<svg xmlns="http://www.w3.org/2000/svg" width="74" height="68" viewBox="0 0 74 68" fill="none">
    <path d="M37.0015 47.3329C36.3422 47.3329 35.6978 47.5284 35.1496 47.8947C34.6015 48.261 34.1742 48.7816 33.9219 49.3907C33.6696 49.9998 33.6036 50.67 33.7322 51.3166C33.8609 51.9632 34.1783 52.5571 34.6445 53.0233C35.1107 53.4895 35.7046 53.8069 36.3512 53.9356C36.9978 54.0642 37.668 53.9982 38.2771 53.7459C38.8862 53.4936 39.4068 53.0663 39.7731 52.5182C40.1394 51.97 40.3349 51.3255 40.3349 50.6663C40.3349 49.7822 39.9837 48.9344 39.3585 48.3092C38.7334 47.6841 37.8856 47.3329 37.0015 47.3329ZM72.5682 52.2329L45.7349 5.56627C44.8675 4.01132 43.6008 2.71613 42.0655 1.8145C40.5302 0.912869 38.782 0.4375 37.0015 0.4375C35.221 0.4375 33.4729 0.912869 31.9375 1.8145C30.4022 2.71613 29.1355 4.01132 28.2682 5.56627L1.60152 52.2329C0.704172 53.7463 0.221995 55.4697 0.203668 57.229C0.185341 58.9883 0.631513 60.7214 1.49714 62.2531C2.36276 63.7849 3.6172 65.0611 5.1338 65.953C6.6504 66.8449 8.37547 67.3209 10.1349 67.3329H63.8682C65.6417 67.3504 67.3879 66.8959 68.9279 66.016C70.4678 65.1361 71.746 63.8624 72.6315 62.3257C73.5169 60.7889 73.9776 59.0443 73.9665 57.2707C73.9554 55.4972 73.4728 53.7585 72.5682 52.2329ZM66.8015 58.8996C66.5093 59.4194 66.0831 59.8514 65.5671 60.1504C65.0512 60.4494 64.4645 60.6045 63.8682 60.5996H10.1349C9.53855 60.6045 8.95185 60.4494 8.43591 60.1504C7.91997 59.8514 7.4937 59.4194 7.20152 58.8996C6.90896 58.3929 6.75494 57.8181 6.75494 57.2329C6.75494 56.6478 6.90896 56.073 7.20152 55.5663L33.8682 8.8996C34.1479 8.3536 34.5729 7.89538 35.0963 7.57541C35.6198 7.25544 36.2214 7.08614 36.8349 7.08614C37.4483 7.08614 38.0499 7.25544 38.5734 7.57541C39.0968 7.89538 39.5218 8.3536 39.8015 8.8996L66.6348 55.5663C66.9656 56.0657 67.1556 56.6451 67.1849 57.2434C67.2142 57.8417 67.0818 58.4369 66.8015 58.9663V58.8996ZM37.0015 20.6663C36.1175 20.6663 35.2696 21.0175 34.6445 21.6426C34.0194 22.2677 33.6682 23.1155 33.6682 23.9996V37.3329C33.6682 38.217 34.0194 39.0648 34.6445 39.69C35.2696 40.3151 36.1175 40.6663 37.0015 40.6663C37.8856 40.6663 38.7334 40.3151 39.3585 39.69C39.9837 39.0648 40.3349 38.217 40.3349 37.3329V23.9996C40.3349 23.1155 39.9837 22.2677 39.3585 21.6426C38.7334 21.0175 37.8856 20.6663 37.0015 20.6663Z" fill="#0E0E0E"></path>
</svg>