<svg xmlns="http://www.w3.org/2000/svg" width="15" height="12" viewBox="0 0 15 12" fill="none">
    <path d="M12.9333 0.666992H2.26668C1.53335 0.666992 0.940016 1.26699 0.940016 2.00033L0.93335 10.0003C0.93335 10.7337 1.53335 11.3337 2.26668 11.3337H12.9333C13.6667 11.3337 14.2667 10.7337 14.2667 10.0003V2.00033C14.2667 1.26699 13.6667 0.666992 12.9333 0.666992ZM12.6667 3.50033L7.95335 6.44699C7.74002 6.58033 7.46002 6.58033 7.24668 6.44699L2.53335 3.50033C2.4665 3.4628 2.40796 3.4121 2.36128 3.35129C2.31459 3.29049 2.28072 3.22084 2.26173 3.14657C2.24274 3.0723 2.23902 2.99495 2.25079 2.9192C2.26256 2.84344 2.28957 2.77087 2.3302 2.70586C2.37083 2.64085 2.42423 2.58476 2.48717 2.54099C2.5501 2.49722 2.62126 2.46667 2.69635 2.45119C2.77143 2.43572 2.84887 2.43564 2.92399 2.45096C2.9991 2.46628 3.07033 2.49668 3.13335 2.54033L7.60002 5.33366L12.0667 2.54033C12.1297 2.49668 12.2009 2.46628 12.276 2.45096C12.3512 2.43564 12.4286 2.43572 12.5037 2.45119C12.5788 2.46667 12.6499 2.49722 12.7129 2.54099C12.7758 2.58476 12.8292 2.64085 12.8698 2.70586C12.9105 2.77087 12.9375 2.84344 12.9492 2.9192C12.961 2.99495 12.9573 3.0723 12.9383 3.14657C12.9193 3.22084 12.8854 3.29049 12.8388 3.35129C12.7921 3.4121 12.7335 3.4628 12.6667 3.50033Z" fill="white"></path>
</svg>