<svg width="58" height="50" viewBox="0 0 58 50" fill="none" xmlns="http://www.w3.org/2000/svg">
<path d="M39.7198 12.5237C39.6819 12.5716 40.4322 13.1711 41.1647 14.0861C41.9034 14.9965 42.3296 15.8566 42.3845 15.8295C42.4317 15.8133 42.0774 14.8944 41.3202 13.9616C40.5691 13.0226 39.7461 12.4827 39.7198 12.5244" fill="#0E0E0E"/>
<path d="M38.022 9.99437C37.9926 10.0462 38.828 10.5536 39.7554 11.3132C40.6875 12.0681 41.3534 12.7828 41.3983 12.7433C41.4385 12.7116 40.829 11.9258 39.8815 11.1585C38.9371 10.3865 38.0444 9.94951 38.0212 9.99437" fill="#0E0E0E"/>
<path d="M36.8602 10.0679C36.837 10.1204 37.2338 10.3386 37.6832 10.6588C38.1349 10.9759 38.473 11.2768 38.5147 11.2366C38.5542 11.2018 38.2695 10.8259 37.7985 10.4948C37.329 10.1614 36.8804 10.0183 36.8602 10.0679Z" fill="#0E0E0E"/>
<path d="M17.2307 39.4077C17.2655 39.2685 20.0833 39.666 23.5919 39.7651C27.1012 39.878 29.9476 39.6514 29.9693 39.7937C29.9971 39.9136 27.1375 40.3568 23.5702 40.2415C20.0037 40.1402 17.1944 39.5245 17.2315 39.4069" fill="#0E0E0E"/>
<path d="M19.3625 41.0653C19.398 40.933 20.7137 41.0568 22.3334 41.1349C23.9531 41.2184 25.2781 41.2254 25.2928 41.3608C25.3106 41.4884 23.9678 41.698 22.2978 41.6114C20.6279 41.5301 19.3253 41.189 19.3617 41.0653" fill="#0E0E0E"/>
<path d="M32.3624 47.3104C32.3601 47.3893 32.9031 47.4682 33.576 47.4875C34.2482 47.5069 34.7943 47.4581 34.7974 47.38C34.7997 47.3011 34.2559 47.2222 33.5838 47.2029C32.9116 47.1836 32.3647 47.2315 32.3624 47.3104Z" fill="#0E0E0E"/>
<path d="M19.009 25.024C19.0113 24.9953 18.8179 24.959 18.5781 24.9404C18.3384 24.9226 18.1419 24.9304 18.1396 24.959C18.1372 24.9876 18.3306 25.0247 18.5704 25.0425C18.8102 25.0603 19.0066 25.0526 19.009 25.024Z" fill="#0E0E0E"/>
<path d="M41.085 46.506C41.0402 46.3683 39.9163 46.6112 38.5232 46.8308C37.131 47.0567 35.9862 47.1758 35.9878 47.3212C35.9854 47.4581 37.1681 47.5672 38.6037 47.3352C40.0393 47.1078 41.1299 46.6352 41.0858 46.506" fill="#0E0E0E"/>
<path d="M30.1286 0.270884C29.0828 0.79144 28.0649 1.36537 27.0733 1.97797C26.0817 2.59057 25.1156 3.24648 24.213 3.97743C23.7628 4.34406 23.3273 4.72848 22.9244 5.14075C22.5229 5.55379 22.1493 5.99622 21.8538 6.4812C21.5607 6.96308 21.3449 7.49988 21.341 8.04209C21.3387 8.31127 21.3898 8.57812 21.4934 8.82486C21.5963 9.07238 21.7494 9.29978 21.932 9.50475C22.0232 9.60763 22.1215 9.70431 22.2251 9.79713C22.3342 9.89614 22.444 9.9936 22.5515 10.0934C22.7681 10.2922 22.9816 10.4956 23.1912 10.7021C23.6112 11.1152 24.0165 11.5452 24.4009 11.9946C24.7846 12.4448 25.1466 12.9166 25.4722 13.417C25.7963 13.9175 26.084 14.4489 26.2983 15.0174C26.5118 15.5844 26.6502 16.1946 26.644 16.8212C26.6402 17.4461 26.4731 18.0773 26.1629 18.6241C25.8551 19.1733 25.4196 19.6328 24.9377 20.0095C24.4535 20.3861 23.9206 20.6855 23.3691 20.9291C22.8176 21.1736 22.246 21.3623 21.6659 21.51C21.0858 21.657 20.4956 21.7622 19.9008 21.8264C19.306 21.8906 18.705 21.9146 18.1009 21.8844C17.9501 21.8767 17.7985 21.8651 17.6469 21.8488L17.2176 21.8078C16.9314 21.7846 16.6452 21.7645 16.359 21.7544C15.7874 21.7343 15.2158 21.7382 14.6535 21.7939C14.3719 21.8186 14.0935 21.8604 13.8197 21.913C13.5458 21.9664 13.2751 22.0337 13.0152 22.1211C12.4947 22.2951 12.0066 22.5457 11.616 22.8961C11.2215 23.2426 10.9353 23.6913 10.7775 24.1925C10.6182 24.6937 10.5795 25.2405 10.6298 25.7835C10.6546 26.055 10.7002 26.3265 10.7652 26.5926C10.7976 26.7256 10.8348 26.8579 10.8773 26.9848C10.9199 27.1132 10.9655 27.2238 11.0243 27.3375C11.2525 27.7892 11.6322 28.1736 12.0754 28.4799C12.521 28.7862 13.0245 29.026 13.5513 29.2139C14.0788 29.4011 14.6272 29.5442 15.1864 29.6494C15.7449 29.7562 16.3126 29.8304 16.8834 29.8807C18.0259 29.9828 19.1807 29.9874 20.3347 29.9441L20.2829 30.7091C19.7299 30.6093 19.1962 30.4902 18.6586 30.3579C18.1226 30.2264 17.5896 30.081 17.0598 29.9201C16.0024 29.5945 14.9536 29.2186 13.9527 28.6918C13.8274 28.6269 13.7044 28.5557 13.5806 28.4853L13.3973 28.3747C13.337 28.3376 13.2697 28.2943 13.2086 28.2509C12.958 28.0769 12.7306 27.8673 12.5341 27.6306C12.1404 27.1588 11.8774 26.564 11.8302 25.9328C11.8063 25.618 11.838 25.2955 11.9308 24.9892C12.0221 24.6821 12.1752 24.3928 12.3748 24.1445C12.5736 23.8955 12.8172 23.6882 13.0802 23.5257C13.3432 23.3617 13.6255 23.2426 13.9117 23.1545C14.4856 22.9804 15.0727 22.9332 15.6451 22.9487C15.9382 22.9588 16.1981 22.9812 16.4704 22.9928C16.7403 23.0067 17.0095 23.0175 17.2795 23.0237C18.3569 23.0508 19.4336 23.0175 20.4941 22.8806C21.5537 22.7445 22.5972 22.4985 23.5803 22.1072C24.5603 21.7134 25.4761 21.1612 26.2387 20.4372C26.6216 20.0775 26.9658 19.6769 27.2675 19.2453C27.4198 19.0302 27.5591 18.8059 27.689 18.5762C27.7555 18.4625 27.8151 18.3441 27.877 18.2274C27.935 18.1106 27.9922 17.993 28.0417 17.8731C28.2459 17.3951 28.3805 16.8915 28.4099 16.3818C28.4424 15.8721 28.3689 15.3585 28.1995 14.8704C28.0325 14.3808 27.7772 13.9175 27.4771 13.482C27.1762 13.0458 26.8289 12.6358 26.4638 12.239C26.098 11.8422 25.7135 11.4594 25.3276 11.0734C24.9416 10.6874 24.5518 10.3007 24.1851 9.88531C23.82 9.47072 23.4697 9.02906 23.209 8.52165C23.0806 8.26795 22.9762 7.99646 22.9213 7.71027C22.8656 7.42485 22.8617 7.12629 22.9151 6.8401C22.9669 6.55313 23.0736 6.28087 23.2121 6.0318C23.3505 5.78274 23.5184 5.55379 23.7033 5.3434C24.0768 4.92959 24.4713 4.55367 24.879 4.18549C25.6934 3.45146 26.5505 2.77156 27.4284 2.12029C28.3086 1.47365 29.2081 0.853319 30.1301 0.269337L30.1286 0.270884ZM30.1286 0.270884C29.2283 0.887352 28.3519 1.53863 27.4972 2.21465C26.6425 2.88991 25.8079 3.59223 25.0228 4.34329C24.6314 4.71765 24.2478 5.10904 23.8989 5.5128C23.5609 5.91888 23.2863 6.38683 23.2074 6.89192C23.1672 7.1433 23.1765 7.39933 23.2307 7.64839C23.2848 7.89745 23.383 8.13878 23.506 8.36773C23.7551 8.82718 24.0977 9.24177 24.462 9.63547C25.1961 10.4229 26.0198 11.1422 26.7817 11.9405C27.1631 12.3396 27.5312 12.7573 27.8584 13.2136C28.1856 13.6692 28.4726 14.1642 28.6683 14.7057C28.8663 15.2448 28.963 15.8303 28.9367 16.4104C28.9111 16.9913 28.7649 17.5591 28.5484 18.0866C28.495 18.2188 28.4347 18.348 28.3736 18.4764C28.3094 18.6017 28.2475 18.7278 28.1786 18.8508C28.0433 19.0975 27.8971 19.3389 27.7378 19.5717C27.4206 20.0381 27.0555 20.4751 26.6479 20.868C25.8358 21.6593 24.8573 22.2665 23.82 22.6989C22.7805 23.132 21.6829 23.3942 20.5815 23.5458C19.4785 23.6974 18.367 23.7408 17.2632 23.7214C16.9871 23.7168 16.7117 23.7083 16.4364 23.6959C16.1633 23.6858 15.8787 23.665 15.6273 23.6588C15.1106 23.6487 14.5962 23.699 14.126 23.8467C13.6572 23.9937 13.2341 24.2458 12.9533 24.6047C12.6687 24.959 12.5357 25.4161 12.5736 25.8748C12.6091 26.3335 12.8056 26.786 13.1111 27.1495C13.2635 27.332 13.4414 27.4953 13.6394 27.6322C13.6889 27.6677 13.7377 27.6979 13.7926 27.7319L13.9604 27.8317C14.0741 27.8959 14.1871 27.9617 14.3046 28.0212C15.2382 28.5085 16.2538 28.8728 17.281 29.1845C17.7961 29.34 18.3167 29.48 18.8403 29.6069C19.1026 29.6703 19.3648 29.7306 19.6285 29.7879C19.8907 29.8451 20.1584 29.9008 20.4152 29.9472L23.9368 30.59L20.3633 30.7122C19.1838 30.7524 17.9988 30.7447 16.8138 30.6356C16.2213 30.5815 15.6296 30.5026 15.0418 30.3889C14.4531 30.2759 13.8692 30.1228 13.296 29.917C12.7244 29.7113 12.1636 29.446 11.6477 29.0879C11.3901 28.9084 11.1457 28.7027 10.9253 28.4675C10.7056 28.2316 10.5115 27.964 10.3622 27.6677C10.2879 27.5216 10.2229 27.3607 10.1758 27.2114C10.127 27.0613 10.086 26.9113 10.0505 26.7604C9.9793 26.4588 9.92979 26.1525 9.90427 25.8423C9.85244 25.2235 9.89731 24.5823 10.0969 23.9697C10.1959 23.6642 10.3366 23.3687 10.5138 23.0972C10.6925 22.8265 10.9075 22.579 11.1504 22.3686C11.6346 21.9416 12.2123 21.657 12.7987 21.4659C13.0926 21.3692 13.3911 21.2973 13.6905 21.2416C13.9898 21.1859 14.2907 21.1449 14.5908 21.1202C15.1918 21.0653 15.7905 21.066 16.3853 21.0916C16.6831 21.1047 16.9793 21.1271 17.2748 21.1534L17.7172 21.1999C17.8557 21.2161 17.9957 21.2285 18.1365 21.237C18.6988 21.2718 19.2689 21.2555 19.8358 21.2006C20.9674 21.0885 22.0944 20.8309 23.134 20.3877C23.653 20.1649 24.148 19.8927 24.5904 19.557C25.0306 19.2205 25.4173 18.8183 25.6865 18.3496C25.958 17.8824 26.1049 17.351 26.1158 16.808C26.1297 16.2642 26.0175 15.7135 25.8272 15.1868C25.6377 14.6585 25.374 14.1519 25.0715 13.6684C24.7676 13.1842 24.4241 12.7225 24.0583 12.2785C23.6901 11.8353 23.3003 11.4075 22.8942 10.996C22.6908 10.7895 22.4842 10.5869 22.2738 10.3873C22.1694 10.2867 22.0627 10.1893 21.9567 10.0903C21.8453 9.98664 21.7371 9.87603 21.6365 9.75846C21.4346 9.52409 21.2637 9.25569 21.1492 8.96099C21.034 8.6663 20.9798 8.34607 20.9906 8.03204C21.0007 7.71723 21.0719 7.41093 21.1794 7.12397C21.2869 6.837 21.43 6.5686 21.5924 6.31567C21.9173 5.80981 22.3141 5.36351 22.7356 4.9497C23.1579 4.53666 23.6097 4.15765 24.0761 3.80107C25.0097 3.08792 25.9997 2.45753 27.0122 1.872C28.0278 1.29188 29.0666 0.752766 30.1301 0.268564L30.1286 0.270884Z" fill="#0E0E0E"/>
<path d="M28.9483 9.16674C30.3537 9.81415 31.7142 10.5768 32.9217 11.5553C33.5196 12.0487 34.0757 12.6049 34.5112 13.2554C34.6218 13.417 34.7231 13.5849 34.8151 13.7582C34.908 13.9314 34.99 14.1109 35.0596 14.295C35.2003 14.6631 35.2908 15.0545 35.3148 15.4529C35.3403 15.8504 35.2986 16.2542 35.1957 16.6417C35.0928 17.03 34.925 17.4005 34.7076 17.7401C34.4895 18.0788 34.2211 18.3875 33.9017 18.6458C33.8197 18.7116 33.7408 18.7665 33.6611 18.8237C33.5822 18.8817 33.501 18.9359 33.4206 18.9923C33.2589 19.1029 33.0965 19.2112 32.9317 19.3172C32.2735 19.7395 31.5951 20.1255 30.9036 20.4875C30.2121 20.8487 29.5083 21.1844 28.7936 21.4969C28.6133 21.5758 28.4401 21.65 28.2668 21.7297C28.0936 21.8086 27.9226 21.8921 27.7532 21.9772C27.4137 22.1481 27.0811 22.3322 26.7554 22.5279C26.1049 22.9201 25.4846 23.3602 24.9099 23.8506C24.3375 24.3418 23.8046 24.8786 23.3598 25.4726C23.1386 25.7696 22.939 26.0806 22.7766 26.4046C22.6142 26.728 22.4889 27.0652 22.4247 27.404C22.3613 27.7428 22.3628 28.0816 22.451 28.391C22.5376 28.7011 22.7109 28.9773 22.9468 29.2101C23.1827 29.4437 23.4797 29.6308 23.8015 29.7801C24.124 29.9294 24.4721 30.0416 24.8294 30.1274C25.5465 30.2984 26.2991 30.3711 27.054 30.3943C27.8097 30.4175 28.5716 30.3865 29.3327 30.3332L29.2569 31.0865C29.0163 31.0154 28.7928 30.9411 28.5638 30.8615C28.3364 30.7818 28.1113 30.6975 27.887 30.6085C27.4392 30.4299 26.9968 30.2326 26.5644 30.0044C26.1328 29.7755 25.7097 29.5179 25.316 29.1892C25.1203 29.0237 24.9323 28.8388 24.7676 28.6191C24.6051 28.3987 24.4628 28.1372 24.404 27.8317C24.3437 27.5277 24.3901 27.1975 24.5108 26.9275C24.5711 26.7929 24.6415 26.6653 24.7243 26.5539C24.8039 26.4441 24.8797 26.3497 24.9617 26.253C25.2881 25.8709 25.6493 25.5383 26.0237 25.2297C26.7748 24.6148 27.5769 24.0927 28.3883 23.5969C30.0157 22.6138 31.6995 21.7583 33.3417 20.8464C34.1616 20.39 34.9776 19.9267 35.7457 19.4046C36.1285 19.1424 36.4998 18.8662 36.8324 18.5561C37.1665 18.2506 37.4349 17.8924 37.6353 17.4902C38.0359 16.6873 38.1512 15.7429 37.9965 14.8488C37.8441 13.9523 37.4202 13.1015 36.745 12.4811C36.4124 12.164 36.0365 11.8879 35.649 11.6303C35.2599 11.3735 34.8554 11.1368 34.4439 10.9102C33.6217 10.4561 32.777 10.0377 31.9463 9.58906C31.1171 9.13812 30.291 8.66475 29.5554 8.05834C29.1911 7.75358 28.85 7.41248 28.5832 7.01258C28.3155 6.61579 28.1338 6.15169 28.0997 5.67059C28.0634 5.19025 28.1608 4.7076 28.3426 4.26826L28.8756 2.95875C29.055 2.52327 29.2368 2.0878 29.424 1.65542C29.5175 1.43885 29.6119 1.22304 29.7094 1.00802C29.8091 0.79376 29.9043 0.578731 30.0242 0.372211L30.0613 0.402377C29.4162 1.02194 28.826 1.70183 28.3001 2.42659C28.0379 2.78935 27.7919 3.16527 27.5738 3.55665C27.3549 3.94726 27.1631 4.35411 27.0169 4.77721C26.8699 5.19953 26.7709 5.64119 26.7554 6.08904C26.7392 6.53534 26.8142 6.98861 26.9983 7.39701C27.1839 7.80463 27.4701 8.16353 27.8112 8.45281C28.1508 8.74597 28.5422 8.97414 28.9459 9.16674H28.9483ZM28.9483 9.16674C28.5437 8.97569 28.1516 8.74829 27.8105 8.45668C27.4678 8.16817 27.1801 7.81005 26.9913 7.40087C26.8049 6.99093 26.7276 6.53689 26.743 6.08827C26.757 5.63887 26.8544 5.19489 27.0006 4.77025C27.146 4.34483 27.3363 3.93643 27.5544 3.54427C27.7718 3.15134 28.0162 2.77388 28.2784 2.40957C28.5399 2.04449 28.8199 1.69332 29.1122 1.35222C29.4046 1.01111 29.7078 0.680058 30.0304 0.366796L30.1503 0.25L30.0667 0.396962C29.9522 0.599615 29.8587 0.816965 29.7612 1.03122C29.6661 1.24625 29.574 1.46283 29.4827 1.68017C29.301 2.11487 29.1238 2.55112 28.9483 2.98814L28.4293 4.30229C28.256 4.7339 28.1678 5.20185 28.2073 5.66208C28.2452 6.12308 28.4223 6.56396 28.6853 6.94452C28.9483 7.32662 29.2855 7.6538 29.6475 7.94695C30.3784 8.52939 31.2037 8.98652 32.0352 9.42199C32.8691 9.85592 33.7207 10.2605 34.556 10.7044C34.9737 10.9264 35.3875 11.1585 35.7897 11.4129C36.1904 11.669 36.5833 11.9451 36.9399 12.2723C37.1178 12.4355 37.2872 12.6111 37.4396 12.8029C37.592 12.9947 37.7258 13.1997 37.8426 13.4139C38.0762 13.8432 38.2386 14.3089 38.3299 14.7884C38.5132 15.7452 38.4126 16.7678 37.988 17.6627C37.882 17.8862 37.7552 18.1005 37.6098 18.3016C37.4643 18.5035 37.2988 18.6899 37.1248 18.8616C36.7759 19.2043 36.3969 19.5021 36.0094 19.7828C35.2321 20.3405 34.4207 20.8332 33.6054 21.3128C31.9726 22.2665 30.315 23.163 28.734 24.1592C27.945 24.6566 27.1716 25.1787 26.4723 25.7696C26.1243 26.0651 25.7955 26.3791 25.514 26.7179C25.4451 26.8014 25.3748 26.8927 25.3175 26.9739C25.2603 27.0528 25.2193 27.134 25.1837 27.2145C25.1156 27.3769 25.1009 27.5339 25.1303 27.6933C25.1613 27.8526 25.2456 28.0174 25.3632 28.1744C25.4815 28.3314 25.6316 28.4791 25.7963 28.6168C26.1281 28.8914 26.5141 29.1273 26.9155 29.3369C27.3178 29.5473 27.7385 29.7322 28.1663 29.9008C28.3805 29.9843 28.5971 30.064 28.8144 30.139C29.031 30.2133 29.2546 30.286 29.4665 30.3471L31.4977 30.9342L29.3907 31.1005C28.6079 31.1623 27.8205 31.1879 27.0285 31.16C26.2372 31.1306 25.4405 31.0517 24.6508 30.8599C24.2563 30.7625 23.8641 30.6364 23.4851 30.4577C23.1069 30.2798 22.7379 30.0493 22.4239 29.736C22.1091 29.4266 21.8631 29.0213 21.7487 28.582C21.6311 28.1427 21.6419 27.6871 21.7278 27.2678C21.8144 26.8463 21.9699 26.4541 22.1594 26.0891C22.3497 25.7232 22.5755 25.3844 22.8215 25.0642C23.3157 24.4261 23.8881 23.8645 24.503 23.3633C25.7329 22.3632 27.1321 21.5843 28.587 21.0104C29.2986 20.7203 30.0017 20.407 30.6917 20.0698C31.3816 19.7318 32.0592 19.3682 32.7151 18.9714C32.8791 18.8724 33.0415 18.7703 33.2017 18.6659C33.2813 18.6133 33.3625 18.5623 33.4407 18.5074C33.5196 18.454 33.6 18.3991 33.6727 18.348C33.9659 18.133 34.2273 17.8623 34.4423 17.5606C34.8755 16.9581 35.1222 16.214 35.1013 15.4614C35.0882 14.7072 34.8151 13.9678 34.4106 13.3204C34.0007 12.6714 33.4654 12.1052 32.8838 11.5994C32.5914 11.3472 32.2874 11.1074 31.971 10.8854C31.6547 10.6634 31.329 10.4538 30.998 10.2535C30.3351 9.85437 29.6475 9.49702 28.9475 9.16597L28.9483 9.16674Z" fill="#0E0E0E"/>
<path d="M30.1286 0.270884C29.9259 0.794534 29.8053 1.3468 29.7465 1.90217C29.6893 2.45753 29.7071 3.02063 29.8115 3.56516C29.8648 3.83743 29.9383 4.10505 30.0366 4.36262C30.1356 4.62019 30.257 4.86926 30.3993 5.10439C30.684 5.57622 31.0576 5.98926 31.4822 6.33888C32.3361 7.03811 33.3718 7.48441 34.4354 7.7853C35.5182 8.06994 36.6073 8.39944 37.6608 8.80862C38.7166 9.21624 39.7508 9.69039 40.7315 10.2728C41.2212 10.5652 41.6976 10.8847 42.147 11.2451C42.5949 11.6071 43.0195 12.0085 43.3784 12.4773C43.7365 12.9429 44.0297 13.4874 44.1558 14.0923C44.2161 14.394 44.2331 14.708 44.1999 15.0174C44.165 15.326 44.0823 15.6269 43.9639 15.9092C43.7265 16.4754 43.3544 16.9573 42.9429 17.3742C42.731 17.5923 42.5028 17.7741 42.2793 17.952C42.0542 18.1291 41.826 18.2993 41.5947 18.4656C41.3643 18.6319 41.1307 18.7935 40.8932 18.9521C40.655 19.1099 40.4167 19.2646 40.1553 19.4108C39.6734 19.6769 39.2016 19.9661 38.7406 20.2717C37.8209 20.885 36.943 21.5634 36.1571 22.326C35.765 22.7082 35.3968 23.1111 35.0696 23.5412C34.744 23.9713 34.4586 24.4276 34.2474 24.9095C34.0363 25.3898 33.9017 25.8972 33.8846 26.4046C33.8653 26.912 33.9643 27.4164 34.1654 27.8859C34.266 28.121 34.389 28.3484 34.5351 28.5642C34.6837 28.7816 34.8414 28.995 35.017 29.19C35.1926 29.3857 35.379 29.569 35.5794 29.7368C35.7812 29.9023 35.9947 30.0524 36.219 30.1847C37.1178 30.7176 38.1868 30.9342 39.2565 30.9226C40.3301 30.9133 41.4099 30.6967 42.4533 30.3718C42.9754 30.2086 43.4906 30.016 43.9949 29.7995C44.247 29.6912 44.4969 29.5775 44.7436 29.4584C44.8666 29.3988 44.9896 29.3369 45.1102 29.2743C45.2301 29.2124 45.3547 29.1451 45.463 29.0824L45.7321 29.7917C45.1977 29.8907 44.6771 29.9642 44.1473 30.0269C43.619 30.088 43.0884 30.1344 42.5554 30.1622C41.4903 30.2141 40.4136 30.2055 39.3346 30.023C38.7963 29.9286 38.2548 29.7902 37.7351 29.5458C37.4752 29.4243 37.223 29.2719 36.9902 29.0817C36.7597 28.8929 36.5493 28.6539 36.3962 28.3902C36.2523 28.145 36.1278 27.8835 36.0342 27.6074C35.9398 27.3313 35.8826 27.0381 35.8624 26.7419C35.8261 26.1463 35.9715 25.5499 36.2268 25.0371C36.4812 24.5212 36.8247 24.0741 37.1983 23.6727C37.5726 23.2705 37.981 22.9131 38.4026 22.5798C39.2472 21.9146 40.1437 21.3437 41.0471 20.7976C41.4996 20.5254 41.9544 20.2608 42.4085 19.9979L42.5786 19.8996L42.7395 19.8037L42.8973 19.7039L43.052 19.5995C43.257 19.4572 43.4534 19.3033 43.6406 19.1385C44.3878 18.4803 44.9919 17.648 45.3044 16.716C45.4599 16.2503 45.5388 15.7623 45.5295 15.2734C45.5217 14.7846 45.4235 14.2973 45.2518 13.834C45.0816 13.3691 44.8357 12.9305 44.5441 12.5198C44.2494 12.1114 43.9121 11.7293 43.5408 11.3789C42.8006 10.6758 41.9537 10.0748 41.061 9.55116C40.6147 9.28895 40.1561 9.0453 39.6897 8.81558C39.4576 8.69956 39.2201 8.59049 38.985 8.48221C38.7499 8.37624 38.5116 8.27646 38.2695 8.18364C37.3027 7.81159 36.2948 7.53237 35.2885 7.22297C34.7858 7.06673 34.283 6.90043 33.7926 6.69623C33.303 6.49203 32.8227 6.24915 32.3864 5.93821C31.9502 5.62727 31.5611 5.24749 31.2509 4.81202C30.9392 4.37732 30.7079 3.89157 30.5416 3.3888C30.2114 2.37941 30.1263 1.31818 30.1247 0.271658L30.1286 0.270884ZM30.1286 0.270884C30.1711 1.31586 30.3026 2.37012 30.6639 3.34626C30.8433 3.83278 31.0846 4.29688 31.3979 4.7045C31.7104 5.11368 32.0933 5.46329 32.521 5.74716C32.9495 6.03026 33.4167 6.25379 33.8993 6.43866C34.3828 6.62429 34.8809 6.77435 35.3837 6.91512C36.3892 7.19667 37.4156 7.44342 38.4142 7.80618C38.664 7.8959 38.9123 7.99259 39.1575 8.09701C39.4004 8.20298 39.6425 8.30817 39.8815 8.4211C40.361 8.64464 40.8344 8.88365 41.2977 9.14199C42.2236 9.661 43.1154 10.2581 43.909 10.9875C44.3058 11.3511 44.6725 11.7525 44.9989 12.1895C45.3214 12.6289 45.6006 13.1076 45.7994 13.6259C46.0005 14.1418 46.122 14.6956 46.1398 15.2556C46.1591 15.8156 46.0771 16.3779 45.9077 16.9101C45.7391 17.4423 45.4877 17.9443 45.176 18.4006C44.8643 18.8577 44.4961 19.2716 44.0869 19.6382C43.882 19.8215 43.6669 19.9932 43.4426 20.1526L43.2724 20.2694L43.0992 20.3815L42.9236 20.4882L42.7542 20.588C42.3025 20.8533 41.8531 21.1194 41.4083 21.3909C40.5212 21.9347 39.6494 22.5001 38.8497 23.139C38.4513 23.4592 38.0708 23.798 37.7327 24.1654C37.3947 24.532 37.0977 24.9304 36.8912 25.3581C36.6839 25.7851 36.5764 26.2414 36.605 26.6955C36.6328 27.1495 36.7945 27.5966 37.0397 28.0096C37.257 28.3848 37.6237 28.6655 38.0545 28.8666C38.4853 29.0685 38.9688 29.1954 39.4622 29.2797C40.4539 29.446 41.488 29.4545 42.5152 29.4011C43.0296 29.3733 43.5447 29.3269 44.0575 29.2658C44.5688 29.2047 45.087 29.1296 45.5836 29.036L47.7989 28.6191L45.8528 29.7461C45.7182 29.8242 45.5952 29.89 45.466 29.9573C45.3384 30.0238 45.21 30.0888 45.0808 30.1522C44.8225 30.2783 44.5618 30.3981 44.2973 30.5095C43.7698 30.7346 43.2307 30.9342 42.6807 31.1051C42.1308 31.2761 41.57 31.4161 40.9992 31.5174C40.4283 31.6179 39.8475 31.6798 39.2604 31.6821C38.6741 31.6845 38.0816 31.6319 37.5015 31.4934C36.9221 31.3565 36.3536 31.1407 35.8369 30.8313C35.5778 30.6781 35.3318 30.5041 35.0998 30.3123C34.8693 30.1189 34.6558 29.9078 34.457 29.685C34.2575 29.4615 34.0811 29.2224 33.914 28.9757C33.7462 28.7259 33.6016 28.4575 33.4817 28.1759C33.3625 27.8944 33.2705 27.5989 33.2148 27.2949C33.1591 26.9917 33.1382 26.6808 33.1522 26.3737C33.1785 25.7572 33.3455 25.1616 33.59 24.6179C33.8351 24.0726 34.1546 23.5737 34.5104 23.1127C34.867 22.6517 35.2622 22.227 35.6776 21.8287C36.5099 21.0336 37.4233 20.3421 38.3763 19.7171C38.8543 19.4069 39.3416 19.1099 39.8467 18.8415C40.0764 18.7162 40.3123 18.5685 40.5436 18.4192C40.7749 18.2683 41.0046 18.1129 41.232 17.9543C41.4586 17.795 41.6829 17.6325 41.9011 17.4647C42.1184 17.2961 42.3327 17.1282 42.5137 16.9457C42.8942 16.5713 43.2237 16.149 43.4287 15.6795C43.5308 15.4451 43.6012 15.2007 43.6329 14.9516C43.6631 14.7026 43.653 14.4496 43.6074 14.2006C43.5114 13.7017 43.2701 13.2252 42.9514 12.799C42.6328 12.3721 42.246 11.9853 41.8276 11.6342C41.4076 11.2838 40.9559 10.9666 40.4871 10.6743C39.5473 10.0911 38.5426 9.60531 37.5123 9.18376C36.9964 8.97414 36.4735 8.77923 35.946 8.599C35.6822 8.50773 35.4161 8.42265 35.1501 8.33911L34.3441 8.09624C33.8003 7.92916 33.2682 7.72032 32.7585 7.46353C32.2495 7.20518 31.7638 6.89501 31.3321 6.51755C30.9021 6.13932 30.5254 5.69611 30.2454 5.19567C30.1046 4.9466 29.9871 4.68439 29.8935 4.41522C29.8006 4.14527 29.7333 3.86759 29.6877 3.58682C29.5995 3.02449 29.6065 2.45289 29.6846 1.89443C29.7658 1.33675 29.9082 0.786799 30.1309 0.270884H30.1286Z" fill="#0E0E0E"/>
<path d="M24.7668 3.33466C23.9338 3.64328 23.1177 3.99444 22.3172 4.37422C21.5166 4.75478 20.7307 5.1655 19.9789 5.62959C19.603 5.86164 19.2371 6.10761 18.8844 6.37059C18.5325 6.63358 18.1953 6.91435 17.8874 7.2222C17.5811 7.53005 17.3027 7.86574 17.0977 8.23546C16.8919 8.60364 16.7682 9.01204 16.7883 9.4158C16.8069 9.81956 16.9693 10.2063 17.2129 10.5428C17.4566 10.88 17.7722 11.1732 18.114 11.4323C18.8318 11.9598 19.538 12.5647 20.0686 13.3327C20.3332 13.7156 20.5498 14.1472 20.6642 14.6183C20.7795 15.087 20.7802 15.5936 20.6588 16.0647C20.5412 16.5381 20.3138 16.9712 20.0369 17.3525C19.7585 17.7346 19.4297 18.0703 19.0763 18.3697C18.8991 18.519 18.715 18.6597 18.5255 18.792C18.4304 18.8577 18.3345 18.9219 18.2355 18.9838L18.0862 19.0751L18.0096 19.1192C17.9833 19.1339 17.9586 19.1478 17.9238 19.1656C17.8642 19.195 17.8155 19.2174 17.7613 19.2422C17.7087 19.2661 17.6561 19.2893 17.6035 19.3118C17.4984 19.3582 17.3932 19.4 17.2872 19.4433C17.076 19.5268 16.8633 19.6057 16.6491 19.6792C16.2213 19.8277 15.7874 19.9576 15.3496 20.0682C15.1315 20.1278 14.9103 20.175 14.6906 20.2268C14.4694 20.2724 14.2482 20.3204 14.0262 20.3598C13.8034 20.3978 13.5814 20.4403 13.3571 20.4689L13.0214 20.5169C12.9093 20.5316 12.7971 20.5424 12.6849 20.5555L12.3493 20.5927C12.2441 20.6058 12.1373 20.6143 12.0329 20.6306C11.8233 20.6615 11.6144 20.6955 11.4095 20.7458C10.5911 20.9338 9.81609 21.2934 9.23598 21.8558C8.94824 22.1373 8.70923 22.4637 8.53984 22.8249C8.37045 23.1854 8.26448 23.576 8.23045 23.9774C8.16161 24.7803 8.36426 25.6072 8.76028 26.3281C9.15553 27.052 9.73565 27.677 10.4179 28.1597C10.7597 28.4002 11.1256 28.6091 11.5093 28.7808C11.8937 28.9525 12.2936 29.091 12.7035 29.1969L15.9653 30.0408L12.5999 29.9549C12.4637 29.9518 12.3438 29.9449 12.2178 29.9364C12.0932 29.9279 11.9687 29.9178 11.8449 29.9062C11.5974 29.883 11.3507 29.8513 11.1039 29.8149C10.612 29.7422 10.1232 29.6455 9.63896 29.5218C8.67365 29.2719 7.71685 28.9185 6.85132 28.36C6.42049 28.0808 6.01518 27.7474 5.66866 27.3506C5.32291 26.9538 5.04136 26.492 4.85728 25.9931C4.66932 25.495 4.58501 24.9652 4.57495 24.4446C4.57341 24.1809 4.58501 23.9341 4.60667 23.6797C4.62832 23.4267 4.66236 23.1746 4.70954 22.9224C4.80622 22.4196 4.95937 21.92 5.19219 21.4512C5.42269 20.9817 5.73363 20.5463 6.10877 20.1789C6.48314 19.8099 6.91552 19.5106 7.37033 19.2723C7.82514 19.0341 8.30238 18.8546 8.78271 18.7116C9.7457 18.4269 10.7226 18.2807 11.6872 18.1485C12.6501 18.0146 13.6116 17.9141 14.5289 17.6998C14.9861 17.5915 15.4324 17.4539 15.8338 17.2512C16.2345 17.0493 16.5849 16.7763 16.8185 16.4189C16.9353 16.2418 17.0273 16.0446 17.0869 15.8381C17.148 15.6323 17.1766 15.4196 17.1712 15.2046C17.1627 14.7745 17.0165 14.3445 16.7991 13.9438C16.5818 13.5423 16.2956 13.1688 15.98 12.8184L15.734 12.5484C15.6505 12.4541 15.5693 12.3581 15.4912 12.2584C15.3349 12.0596 15.191 11.85 15.065 11.628C14.8128 11.1855 14.6334 10.6882 14.5846 10.17C14.5336 9.65249 14.6171 9.12652 14.8028 8.65083C14.9868 8.17359 15.2645 7.7443 15.5817 7.35988C15.9003 6.97546 16.2623 6.63358 16.6452 6.32341C17.414 5.70539 18.2633 5.20495 19.1474 4.78959C20.0323 4.375 20.952 4.04163 21.8917 3.7887C22.8323 3.54118 23.7961 3.36869 24.766 3.33543L24.7668 3.33466ZM24.7668 3.33466C23.7992 3.40814 22.8485 3.62008 21.925 3.90395C21.0015 4.18781 20.1019 4.54903 19.2441 4.9876C18.3886 5.42849 17.5664 5.93821 16.8409 6.55932C16.4789 6.86949 16.1424 7.2075 15.8524 7.57878C15.5639 7.94928 15.3202 8.35458 15.1663 8.78696C15.0093 9.21779 14.9482 9.67724 15.0023 10.1259C15.0541 10.5745 15.2197 11.0069 15.4556 11.4006C15.5731 11.5978 15.7085 11.7858 15.8562 11.9652C15.9297 12.0549 16.0071 12.1423 16.086 12.2282L16.3358 12.4896C16.6769 12.8516 16.9956 13.2446 17.2524 13.6909C17.5076 14.1341 17.6956 14.6446 17.7172 15.1876C17.7288 15.4575 17.6971 15.7313 17.6244 15.992C17.554 16.2526 17.4427 16.5017 17.2965 16.7314C17.1503 16.9612 16.967 17.1661 16.7628 17.3402C16.5586 17.5142 16.335 17.6581 16.1045 17.7795C15.6428 18.0216 15.1562 18.1771 14.6728 18.2993C14.1878 18.4207 13.7021 18.5081 13.2194 18.5862C12.736 18.6644 12.2549 18.7309 11.7769 18.7997C10.8224 18.9397 9.87565 19.0921 8.97918 19.3675C8.08658 19.6397 7.23961 20.0497 6.60999 20.6839C6.29518 20.9987 6.03761 21.3662 5.84424 21.7691C5.64932 22.1714 5.51861 22.6084 5.43584 23.0578C5.39407 23.2829 5.36468 23.511 5.34534 23.7415C5.32601 23.9705 5.31595 24.2087 5.31827 24.4299C5.3291 24.8778 5.40104 25.3194 5.55805 25.7294C5.71198 26.1401 5.94325 26.5191 6.23563 26.8533C6.52878 27.1866 6.87917 27.4751 7.26282 27.7219C8.03166 28.2154 8.91885 28.5456 9.82769 28.7769C10.2833 28.8922 10.7474 28.9827 11.2153 29.05C11.4489 29.084 11.6841 29.1118 11.9184 29.135C12.036 29.1466 12.1536 29.1567 12.2704 29.1652C12.3856 29.1737 12.5078 29.1807 12.6146 29.1838L12.5109 29.9426C12.0615 29.825 11.6199 29.6703 11.1937 29.4785C10.7683 29.2859 10.3599 29.0515 9.9762 28.78C9.21123 28.2355 8.55222 27.5246 8.09818 26.687C7.64414 25.8531 7.40204 24.8816 7.48867 23.9109C7.53121 23.4267 7.66116 22.9479 7.87232 22.5055C8.08426 22.0638 8.38282 21.6663 8.73321 21.3306C8.91034 21.1643 9.09984 21.0134 9.29786 20.8773C9.49664 20.742 9.70626 20.6252 9.91897 20.5192C10.3482 20.3134 10.7976 20.1618 11.254 20.0628C11.4814 20.0095 11.7119 19.9739 11.9416 19.9429C12.0569 19.9275 12.1714 19.9182 12.2866 19.9058L12.613 19.8733C12.7213 19.8617 12.8304 19.8524 12.9379 19.8393L13.262 19.7968C13.4785 19.7712 13.6928 19.7318 13.9086 19.6977C14.1236 19.6614 14.3371 19.6181 14.5514 19.5763C14.7641 19.5284 14.9776 19.485 15.1887 19.4301C15.6126 19.3265 16.0318 19.2066 16.4449 19.072C16.6522 19.0047 16.8564 18.932 17.0598 18.8562C17.1603 18.8167 17.2624 18.7788 17.3607 18.7371C17.4102 18.717 17.4604 18.6961 17.5084 18.6744C17.5564 18.6543 17.6082 18.6303 17.6484 18.6118C17.6631 18.6048 17.6871 18.5917 17.7095 18.5801L17.7776 18.5422L17.9137 18.4625C18.0042 18.4076 18.0939 18.3503 18.1821 18.2915C18.3592 18.1732 18.5302 18.0464 18.6949 17.9125C19.0237 17.6441 19.3253 17.3456 19.5759 17.0138C19.8258 16.6819 20.023 16.3168 20.1267 15.9278C20.2342 15.5403 20.2396 15.1326 20.1522 14.7374C20.0663 14.3414 19.8892 13.96 19.6587 13.6081C19.4305 13.2538 19.1466 12.9297 18.8419 12.625C18.7645 12.55 18.6864 12.4749 18.6068 12.4015C18.5255 12.3303 18.4466 12.256 18.3631 12.1864C18.2796 12.1168 18.1984 12.0449 18.1117 11.9784L17.8511 11.7718C17.4929 11.4872 17.1549 11.1623 16.8865 10.7733C16.7535 10.5784 16.6382 10.3672 16.557 10.1398C16.475 9.91315 16.4294 9.67105 16.424 9.42895C16.4193 9.18608 16.4572 8.94475 16.5261 8.71735C16.5965 8.48994 16.6955 8.27491 16.8146 8.07458C17.052 7.67391 17.3583 7.32817 17.6863 7.01645C18.3469 6.39457 19.0995 5.89799 19.8737 5.45401C20.6495 5.01235 21.4532 4.62483 22.2708 4.27367C23.0899 3.92638 23.9214 3.60925 24.766 3.33543L24.7668 3.33466Z" fill="#0E0E0E"/>
<path d="M35.4131 5.38517C36.9461 5.28694 38.4869 5.30395 40.0223 5.40838C41.5576 5.51589 43.0914 5.72241 44.599 6.07435C45.3516 6.25457 46.098 6.47269 46.8274 6.74573C47.556 7.01877 48.2699 7.34673 48.9444 7.75281C49.6173 8.15966 50.2508 8.65083 50.7892 9.24332C51.3283 9.83349 51.7676 10.5296 52.0438 11.2907C52.3238 12.0503 52.4444 12.8632 52.4305 13.6638C52.4181 14.4659 52.2836 15.2556 52.0747 16.0167C51.8651 16.7786 51.5859 17.515 51.2618 18.2274C51.0986 18.5832 50.9276 18.9343 50.7451 19.2793C50.5618 19.625 50.3862 19.9476 50.2477 20.2802C50.1093 20.6105 50.0072 20.9462 49.9824 21.2726C49.9554 21.599 50.0126 21.9099 50.1565 22.1853L50.2145 22.2874C50.2369 22.3199 50.257 22.3539 50.2802 22.3856L50.3545 22.4838L50.4488 22.6053C50.5726 22.7693 50.6886 22.941 50.7938 23.1212C51.0042 23.4809 51.1697 23.88 51.2548 24.3046C51.3407 24.7293 51.3383 25.1779 51.244 25.6033C51.1512 26.0295 50.9717 26.4286 50.7412 26.7829C50.5099 27.1379 50.2299 27.4519 49.919 27.7265C49.7635 27.8642 49.598 27.9911 49.4247 28.1079C49.2507 28.2246 49.0689 28.3314 48.8647 28.4227L46.4314 29.5133L48.5043 27.7404L48.5445 27.7041C48.5716 27.6786 48.5979 27.6523 48.6242 27.6244C48.676 27.5687 48.7271 27.5107 48.7742 27.4496C48.8694 27.329 48.9514 27.1975 49.021 27.0621C49.1594 26.7898 49.2368 26.4951 49.2484 26.195C49.2523 26.045 49.2399 25.8934 49.2151 25.7418C49.1873 25.5909 49.1455 25.4409 49.0914 25.2924C49.0643 25.2181 49.0318 25.1454 49.0001 25.0727C48.963 25.0015 48.932 24.9273 48.891 24.8577C48.85 24.7873 48.8137 24.7153 48.7665 24.6473C48.7216 24.5777 48.6799 24.5111 48.6273 24.4338C48.2235 23.8328 47.8345 23.2171 47.5181 22.538C47.3619 22.1977 47.2234 21.838 47.1468 21.4458C47.1082 21.2501 47.0873 21.0452 47.0911 20.8386C47.0942 20.6321 47.1236 20.4248 47.1716 20.2299C47.1832 20.1804 47.1963 20.1332 47.2103 20.0853C47.2296 20.0226 47.2497 19.9692 47.2698 19.9213C47.3108 19.8246 47.3534 19.7395 47.3959 19.656C47.4818 19.4897 47.5692 19.3319 47.6573 19.1749L48.1794 18.2444C48.5205 17.6256 48.8431 17.0014 49.12 16.3617C49.3954 15.722 49.6266 15.0661 49.7589 14.4001C49.8246 14.0675 49.8618 13.7326 49.8571 13.4023C49.8548 13.2376 49.8417 13.0744 49.8154 12.9151C49.8022 12.8354 49.786 12.7565 49.7666 12.6791L49.6986 12.4339C49.3087 11.1244 48.5058 9.93791 47.4671 9.0368C47.3363 8.92541 47.2033 8.81945 47.0664 8.72663C46.9264 8.63304 46.7771 8.54176 46.6255 8.45591C46.3231 8.28265 46.0098 8.12176 45.6927 7.97093C45.0576 7.66773 44.401 7.40474 43.735 7.16496C42.4038 6.68385 41.0278 6.32031 39.6363 6.03026C38.244 5.74252 36.8332 5.53445 35.4146 5.38672L35.4131 5.38517ZM35.4131 5.38517C35.5956 5.40064 35.7781 5.40915 35.9522 5.41688C36.1247 5.42384 36.3026 5.43777 36.4805 5.45092C36.8363 5.47489 37.1921 5.50893 37.5471 5.54141C38.2572 5.61567 38.9657 5.70926 39.6719 5.82296C40.3781 5.93589 41.0804 6.07589 41.7781 6.23987C42.4758 6.40308 43.168 6.59258 43.8518 6.81148C44.5363 7.0296 45.2108 7.28253 45.8714 7.57336C46.2016 7.71955 46.528 7.87502 46.849 8.04673C47.0099 8.13259 47.1677 8.22232 47.3271 8.32209C47.4879 8.4242 47.638 8.53712 47.7819 8.65237C48.3566 9.11724 48.8586 9.66332 49.2793 10.2713C49.6993 10.8785 50.0358 11.5475 50.2632 12.2553C50.2903 12.345 50.3174 12.4316 50.3437 12.5229C50.3692 12.6173 50.3916 12.7132 50.4086 12.8091C50.4442 13.0009 50.4635 13.1935 50.4697 13.3846C50.4829 13.7682 50.4473 14.1457 50.3823 14.5138C50.2532 15.251 50.0118 15.9487 49.7326 16.6216C49.4518 17.2938 49.127 17.9419 48.7866 18.5754L48.2738 19.516C48.1895 19.6714 48.106 19.8261 48.0302 19.977C47.993 20.052 47.9567 20.1278 47.9296 20.1951C47.9157 20.2291 47.9048 20.2601 47.8987 20.2825C47.8886 20.3204 47.8778 20.3591 47.87 20.3962C47.7981 20.6979 47.7997 20.9926 47.8639 21.3004C47.9288 21.6075 48.0472 21.9184 48.1887 22.2247C48.4772 22.8381 48.8524 23.4314 49.2461 24.0107C49.294 24.0795 49.3482 24.1639 49.4 24.2443C49.4541 24.3232 49.4998 24.4098 49.5485 24.4934C49.598 24.5769 49.6375 24.6674 49.6823 24.754C49.7225 24.8437 49.762 24.9342 49.7968 25.0271C49.8664 25.2135 49.9213 25.4076 49.9585 25.6072C49.9933 25.8075 50.0103 26.0125 50.0049 26.2182C49.9917 26.6305 49.8842 27.0404 49.7009 27.4048C49.6088 27.5873 49.5013 27.7598 49.3768 27.9191C49.3157 27.9996 49.2492 28.0761 49.1796 28.1504C49.1447 28.1875 49.1084 28.2239 49.0705 28.2602C49.0519 28.278 49.0326 28.2966 49.0125 28.3144C48.9908 28.3337 48.9746 28.3476 48.9421 28.3739L48.5499 27.7188C48.8454 27.5842 49.144 27.3754 49.4062 27.1449C49.6707 26.9128 49.9066 26.6498 50.0954 26.3613C50.2841 26.0736 50.4241 25.7611 50.496 25.437C50.5687 25.1129 50.5726 24.778 50.5076 24.45C50.4434 24.1213 50.3143 23.8003 50.1387 23.4979C50.0513 23.3463 49.953 23.1993 49.8463 23.0562L49.7643 22.9503L49.6661 22.8188C49.6336 22.7731 49.6034 22.7244 49.5725 22.6772C49.5431 22.6285 49.516 22.5782 49.4882 22.5287C49.2762 22.1226 49.1966 21.6477 49.2368 21.2107C49.2731 20.7706 49.4046 20.3645 49.5632 19.9886C49.7233 19.6134 49.9221 19.2646 50.1015 18.9343C50.2825 18.6033 50.4512 18.266 50.612 17.9265C50.9315 17.2458 51.2061 16.5458 51.4126 15.8303C51.6184 15.1148 51.7506 14.3808 51.7715 13.6475C51.7939 12.9151 51.7027 12.1818 51.4637 11.4949C51.2293 10.8073 50.848 10.1715 50.3638 9.61923C49.8811 9.06387 49.2963 8.59514 48.6683 8.1906C48.0387 7.78684 47.3603 7.45115 46.6603 7.16651C45.9595 6.88186 45.2355 6.6475 44.5015 6.44949C43.0327 6.04959 41.5205 5.79589 40.0006 5.62572C39.2403 5.54064 38.4761 5.47876 37.7111 5.43854C36.9461 5.39677 36.1788 5.37202 35.4115 5.38362L35.4131 5.38517Z" fill="#0E0E0E"/>
<path d="M44.9857 6.38606C44.8774 6.0233 44.7312 5.67291 44.5456 5.34495C44.4512 5.18174 44.3507 5.02241 44.2362 4.87312C44.1241 4.72229 44.0018 4.5792 43.8696 4.44461C43.6074 4.17467 43.3072 3.94185 42.9832 3.74925C42.8207 3.65334 42.6521 3.56748 42.4788 3.494C42.3922 3.45764 42.304 3.42361 42.2159 3.39345C42.1292 3.36405 42.0341 3.33543 41.9544 3.31764L41.9482 3.3161L41.9312 3.31146L41.8972 3.3014C41.8848 3.29753 41.8701 3.29444 41.8554 3.29135C41.8268 3.28438 41.7982 3.2782 41.768 3.27278C41.7092 3.26118 41.6481 3.25267 41.587 3.24416C41.4648 3.22869 41.3403 3.21786 41.215 3.2109C40.9644 3.19698 40.7114 3.19775 40.4585 3.20704C39.9519 3.22792 39.4437 3.27742 38.9394 3.354C38.8125 3.37024 38.6872 3.39267 38.5611 3.41356C38.4351 3.43521 38.309 3.45378 38.1837 3.47853C37.9331 3.52958 37.6809 3.57135 37.4311 3.63013C37.1805 3.68428 36.9345 3.74306 36.6731 3.79334C36.4139 3.84129 36.1517 3.87069 35.8887 3.88151C35.3628 3.90163 34.8337 3.84516 34.3248 3.71599C33.8158 3.58682 33.3262 3.3888 32.8675 3.13897C32.4088 2.88913 31.9788 2.58979 31.5812 2.2541C31.1836 1.91609 30.8155 1.55178 30.4898 1.13641L30.643 1.04901C30.7582 1.31741 30.906 1.58349 31.0637 1.83642C31.2231 2.09012 31.3971 2.33454 31.5858 2.56736C31.9633 3.033 32.3996 3.45223 32.8868 3.80107C33.3741 4.15069 33.9148 4.42527 34.4856 4.61091C35.0565 4.79577 35.6567 4.89091 36.2585 4.90097C36.5594 4.90638 36.861 4.89246 37.1604 4.85997C37.4589 4.82749 37.7598 4.77721 38.0607 4.7424C38.6632 4.67047 39.2704 4.62948 39.8784 4.63876C40.1816 4.64649 40.4856 4.66428 40.7865 4.70296C41.0873 4.74318 41.3867 4.80274 41.6767 4.89169C41.9668 4.98141 42.2483 5.10362 42.5005 5.27302C42.6266 5.3581 42.7442 5.45556 42.8463 5.56771C42.9476 5.67987 43.0381 5.80595 43.0868 5.94981C43.0358 5.80672 42.9445 5.68142 42.8424 5.57158C42.7395 5.46097 42.6212 5.36506 42.4943 5.2823C42.2414 5.11677 41.9591 4.99843 41.6698 4.91334C41.3797 4.82826 41.0819 4.77334 40.7818 4.73622C40.4817 4.70141 40.1793 4.68749 39.8768 4.68362C39.272 4.68207 38.6679 4.7308 38.0684 4.8097C37.7683 4.84837 37.4713 4.90174 37.1681 4.93887C36.8657 4.97522 36.5609 4.99301 36.2562 4.99069C35.6459 4.9876 35.0348 4.89865 34.4508 4.71688C33.8669 4.53511 33.3107 4.2613 32.8087 3.91013C32.306 3.55974 31.855 3.13742 31.4644 2.66637C31.2687 2.43123 31.0877 2.18371 30.9214 1.92537C30.7559 1.66625 30.6043 1.40249 30.4774 1.11553L30.2021 0.493648L30.6314 1.02813C30.9454 1.41951 31.3159 1.77918 31.7057 2.10172C32.0979 2.42504 32.5202 2.71123 32.9681 2.94792C33.4151 3.1846 33.8901 3.36947 34.3797 3.48781C34.8693 3.60615 35.3744 3.65411 35.8764 3.62858C36.127 3.61544 36.3768 3.58372 36.6236 3.53499C36.8664 3.48549 37.1201 3.42129 37.3715 3.36405C37.6221 3.30217 37.8774 3.25576 38.1303 3.20162C38.2572 3.17532 38.3848 3.15521 38.5124 3.13123C38.64 3.1088 38.7669 3.08405 38.8953 3.06626C39.4066 2.98195 39.924 2.92549 40.4446 2.89687C40.7052 2.88372 40.9667 2.87985 41.2304 2.89068C41.3619 2.89609 41.4942 2.90538 41.6272 2.92085C41.6938 2.92935 41.7603 2.93709 41.8276 2.95024C41.8608 2.95565 41.8949 2.96261 41.9289 2.97035C41.9459 2.97422 41.9629 2.97731 41.9807 2.98272C41.9993 2.98737 42.0148 2.99123 42.0395 2.99897L42.0163 2.99278C42.1277 3.01598 42.2213 3.04383 42.3203 3.07554C42.4177 3.10726 42.5137 3.14284 42.608 3.18151C42.7967 3.25886 42.9793 3.34936 43.1556 3.44991C43.5084 3.65256 43.8355 3.90085 44.1241 4.18936C44.2687 4.33246 44.4041 4.48638 44.5278 4.64804C44.6539 4.80892 44.7653 4.97986 44.8689 5.15467C45.0731 5.50661 45.2355 5.88252 45.3562 6.26926L44.9865 6.38142L44.9857 6.38606Z" fill="#0E0E0E"/>
<path d="M50.7876 17.6743C51.1751 17.8955 51.5395 18.1601 51.8837 18.4486C52.2302 18.7355 52.5519 19.055 52.8466 19.4007C53.1429 19.7457 53.4067 20.1232 53.6255 20.5316C53.8421 20.94 54.0131 21.3808 54.109 21.8442C54.1569 22.0754 54.1894 22.3121 54.2002 22.5496C54.2095 22.7878 54.2002 23.0268 54.1716 23.2643C54.1446 23.5017 54.0958 23.7369 54.0293 23.9658C53.9984 24.0811 53.9574 24.1932 53.9195 24.3062C53.8754 24.416 53.8352 24.5289 53.7849 24.6357C53.5946 25.0704 53.3425 25.471 53.064 25.8454C52.7848 26.2198 52.4707 26.5624 52.1412 26.8834L51.7235 26.2623C51.7715 26.2391 51.838 26.2051 51.896 26.1734L52.0755 26.072C52.1946 26.0024 52.3129 25.9297 52.4282 25.8524C52.6595 25.6992 52.883 25.5321 53.0957 25.355C53.5227 25.0008 53.9079 24.6001 54.2304 24.1569C54.5553 23.7152 54.8074 23.2272 54.9815 22.712C55.1509 22.1953 55.2383 21.6516 55.2359 21.1008C55.2352 20.8255 55.2166 20.5486 55.1772 20.2732C55.1586 20.1355 55.1338 19.9979 55.1052 19.861C55.0905 19.7929 55.0782 19.7225 55.0611 19.6575L55.0372 19.5577L55.0256 19.5082C55.0256 19.5082 55.0225 19.4959 55.024 19.4997C55.0256 19.5028 55.024 19.4974 55.0225 19.4943L55.0147 19.4719C54.9265 19.219 54.8059 18.9598 54.6752 18.7139C54.5429 18.4664 54.3921 18.2281 54.2273 17.9999C53.8947 17.5459 53.5026 17.1282 53.0362 16.7987C52.5752 16.4623 52.0461 16.214 51.483 16.0508C51.7746 16.0832 52.0647 16.1444 52.3477 16.2341C52.6301 16.3253 52.9062 16.4437 53.1692 16.5883C53.6921 16.883 54.1654 17.2736 54.5622 17.7315C54.7626 17.959 54.9436 18.2034 55.1075 18.4586C55.2723 18.7154 55.4185 18.9792 55.5422 19.27L55.5538 19.2986L55.5616 19.3187C55.5662 19.3311 55.5654 19.3303 55.5678 19.3365L55.5848 19.3922L55.6196 19.5036C55.6436 19.5786 55.6621 19.6513 55.6822 19.7248C55.7031 19.7983 55.7194 19.8726 55.7372 19.9468C55.7557 20.0211 55.7704 20.0961 55.7843 20.1711C55.8424 20.4712 55.8826 20.7768 55.8957 21.0862C55.9251 21.7034 55.8509 22.3315 55.6714 22.9301C55.4927 23.5296 55.2066 24.0942 54.8484 24.6009C54.4895 25.1083 54.0595 25.5569 53.5892 25.9498C53.3525 26.1447 53.1058 26.3265 52.8497 26.4944C52.7213 26.5787 52.5906 26.6583 52.4576 26.7349C52.3911 26.7736 52.323 26.8107 52.2542 26.8463C52.183 26.8834 52.1196 26.9159 52.0353 26.9538L49.9198 27.9153L51.6176 26.3327C51.9308 26.0403 52.2209 25.7278 52.4839 25.3976C52.7469 25.0673 52.9774 24.7146 53.1599 24.3425C53.2086 24.2505 53.2465 24.1546 53.2891 24.0602C53.3254 23.9635 53.3657 23.8684 53.3958 23.7701C53.4608 23.5745 53.5142 23.3757 53.5474 23.173C53.6178 22.7685 53.624 22.3516 53.5644 21.9393C53.4484 21.1117 53.0748 20.3173 52.5829 19.6018C52.084 18.8879 51.4745 18.2382 50.7869 17.6728L50.7876 17.6743Z" fill="#0E0E0E"/>
<path d="M4.72191 25.4741C4.70954 25.4548 4.67086 25.4037 4.63838 25.362L4.53396 25.2274C4.4628 25.1361 4.39164 25.0433 4.32202 24.9489C4.18202 24.761 4.04589 24.5676 3.91672 24.3704C3.6576 23.9751 3.42323 23.5605 3.22677 23.1243C3.03108 22.688 2.87251 22.2301 2.77583 21.7529C2.67914 21.2764 2.64588 20.7814 2.69616 20.2895C2.74721 19.7983 2.88566 19.3156 3.09682 18.8732C3.20434 18.6528 3.32577 18.4401 3.46345 18.2397C3.60345 18.0417 3.75042 17.8483 3.91362 17.672C4.23462 17.3131 4.59816 17.0029 4.97794 16.7237C5.35849 16.4445 5.75916 16.1993 6.17065 15.9781C6.58137 15.7568 7.0037 15.5611 7.43066 15.3817C7.64569 15.2958 7.85917 15.2061 8.07884 15.128C8.29774 15.0491 8.51896 14.9756 8.74095 14.9083C8.96294 14.841 9.18647 14.7792 9.41001 14.7219L9.74648 14.6392C9.85322 14.6136 9.95764 14.5858 10.0621 14.5541C10.4782 14.4272 10.8789 14.2478 11.2292 14.0026C11.5789 13.7589 11.8751 13.4449 12.0654 13.0713C12.1149 12.9793 12.1536 12.8818 12.1915 12.7836C12.2069 12.7333 12.2255 12.6838 12.2394 12.6335L12.2812 12.4749C12.3377 12.2452 12.4088 12.0194 12.4954 11.7989C12.6687 11.3573 12.9062 10.9396 13.2071 10.5706C13.3579 10.3865 13.5234 10.214 13.7052 10.0586C13.7957 9.98122 13.89 9.90697 13.989 9.83813C14.0385 9.80409 14.0888 9.77083 14.1406 9.73912C14.194 9.70663 14.242 9.67879 14.3077 9.64708L14.9706 9.32917L14.505 9.9031C14.3062 10.1483 14.1229 10.4298 13.9651 10.7137C13.8081 11.0007 13.6742 11.3 13.576 11.6094C13.4785 11.9188 13.4159 12.239 13.4097 12.5592C13.4043 12.8988 13.3788 13.2461 13.303 13.5849C13.2295 13.9244 13.0988 14.2563 12.91 14.5517C12.7198 14.8464 12.473 15.1017 12.1969 15.309C11.6423 15.7259 10.9995 15.9819 10.3544 16.1799C10.1928 16.2294 10.0296 16.2735 9.86559 16.3168C9.70084 16.3578 9.53764 16.3957 9.37753 16.4383C9.05575 16.5234 8.74017 16.6309 8.43078 16.7554C7.81354 17.0068 7.22569 17.3332 6.69044 17.7331C6.15905 18.1345 5.66866 18.6071 5.32137 19.1795C5.15275 19.4649 5.01661 19.7805 4.99496 20.1154C4.98335 20.2817 5.00733 20.4511 5.0723 20.605C5.1365 20.7597 5.24634 20.8928 5.37628 20.9987C5.24402 20.8959 5.13109 20.7644 5.06302 20.6089C4.99418 20.4542 4.96634 20.2833 4.97407 20.1139C4.98877 19.7735 5.12026 19.451 5.28579 19.1586C5.45441 18.8655 5.66247 18.5971 5.8922 18.3496C6.12192 18.102 6.37408 17.8754 6.64016 17.6673C7.17309 17.252 7.76171 16.9086 8.38282 16.6402C8.69376 16.5071 9.01321 16.3911 9.33885 16.2983C9.50283 16.2511 9.66526 16.2101 9.82537 16.166C9.98626 16.1204 10.1456 16.0732 10.3042 16.0214C10.9346 15.8141 11.5557 15.5488 12.07 15.145C12.3268 14.9447 12.5488 14.7034 12.7174 14.4303C12.8845 14.1557 12.9982 13.851 13.0601 13.5331C13.1243 13.2144 13.1421 12.888 13.1405 12.5562C13.1398 12.2042 13.2016 11.8569 13.2983 11.5243C13.3966 11.191 13.5311 10.8715 13.6905 10.566C13.8529 10.2597 14.03 9.97117 14.2489 9.69039L14.4462 9.94564C14.409 9.9642 14.3588 9.99437 14.3155 10.0214C14.2706 10.0501 14.2265 10.081 14.1824 10.1119C14.095 10.1754 14.0115 10.2442 13.9303 10.3161C13.7686 10.4608 13.6201 10.6217 13.4855 10.7926C13.2171 11.136 13.0059 11.5243 12.8551 11.935C12.7785 12.14 12.7174 12.3512 12.6695 12.5654L12.6277 12.7379C12.613 12.7975 12.5929 12.8555 12.5759 12.9143C12.5349 13.0303 12.4908 13.1456 12.4351 13.2554C12.2193 13.7009 11.8774 14.0761 11.486 14.3607C11.0939 14.6469 10.6545 14.8526 10.2028 15.0011C10.0899 15.0383 9.97466 15.0715 9.86018 15.1009L9.53377 15.1883C9.31719 15.2487 9.10216 15.3129 8.88868 15.3825C8.67597 15.4521 8.46481 15.5263 8.25674 15.606C8.04868 15.6849 7.8437 15.7762 7.63641 15.8636C7.22646 16.0453 6.82425 16.2434 6.43673 16.4615C5.66325 16.8985 4.93462 17.4214 4.36843 18.0742C4.22456 18.2351 4.09849 18.4091 3.97937 18.5855C3.86257 18.7634 3.76047 18.9498 3.67229 19.1408C3.49826 19.5245 3.39075 19.9337 3.35517 20.3506C3.28555 21.1875 3.50445 22.0399 3.87727 22.8211C4.06291 23.2132 4.28644 23.5907 4.53473 23.9535C4.65849 24.1352 4.78921 24.3124 4.92534 24.4872C4.99341 24.5746 5.06225 24.6612 5.13341 24.7486L5.2417 24.8816C5.2796 24.9296 5.31286 24.9675 5.36468 25.0425L4.72114 25.4718L4.72191 25.4741Z" fill="#0E0E0E"/>
<path d="M16.1022 6.5423C15.8245 6.58407 15.5499 6.64363 15.2777 6.7117C15.0054 6.77822 14.7362 6.85402 14.4702 6.94065C13.9388 7.11236 13.4198 7.31966 12.9263 7.57336C12.432 7.82397 11.9625 8.12099 11.541 8.47215C11.1179 8.82022 10.742 9.22243 10.4426 9.67415C10.1456 10.1266 9.91897 10.6232 9.78206 11.1453C9.71167 11.4068 9.66836 11.6682 9.64438 11.9389C9.63278 12.0735 9.62581 12.2096 9.62195 12.3458C9.61885 12.4842 9.61499 12.635 9.59952 12.7812C9.54305 13.3699 9.352 13.9585 9.02327 14.4605C8.69763 14.9648 8.24901 15.3786 7.75089 15.6895L7.55519 15.2765C7.59928 15.261 7.65729 15.2386 7.70834 15.2162C7.76094 15.1937 7.81431 15.1698 7.86613 15.1442C7.97133 15.094 8.0742 15.039 8.17553 14.981C8.37818 14.8635 8.57233 14.732 8.7541 14.5858C9.11841 14.2934 9.43786 13.9477 9.68847 13.5555C9.9383 13.1633 10.1116 12.7248 10.2098 12.2669C10.3181 11.7571 10.5416 11.2838 10.8216 10.8622C11.1009 10.4391 11.4365 10.0609 11.8001 9.71978C12.1636 9.37868 12.5519 9.06773 12.9588 8.78541C13.3656 8.50386 13.7856 8.2432 14.2188 8.00961C14.6511 7.77369 15.0951 7.55944 15.5499 7.37535C15.331 7.48673 15.1176 7.60662 14.9064 7.73115C14.6952 7.85491 14.4856 7.98176 14.2807 8.11403C13.8707 8.37933 13.4685 8.65701 13.0864 8.95867C12.3237 9.55812 11.616 10.2419 11.114 11.0494C10.8649 11.4524 10.6824 11.891 10.5973 12.3442C10.5014 12.8478 10.3204 13.3397 10.052 13.7814C9.91819 14.0018 9.76504 14.2114 9.5941 14.4048C9.42239 14.5974 9.2352 14.7745 9.03564 14.9362C8.83686 15.0986 8.62492 15.244 8.40371 15.3747C8.2931 15.4397 8.18017 15.5008 8.06415 15.5573C8.00614 15.5859 7.94735 15.613 7.88779 15.6385C7.82669 15.6648 7.771 15.688 7.69906 15.7135L5.83573 16.3702L7.50337 15.2997C7.72845 15.1551 7.93962 14.9919 8.13299 14.8124C8.32481 14.6306 8.4973 14.4303 8.64039 14.2106C8.93045 13.7736 9.10139 13.2639 9.15631 12.7356C9.17023 12.6026 9.17874 12.4718 9.18415 12.3303C9.19034 12.1864 9.20117 12.0418 9.21664 11.8971C9.24681 11.6086 9.30172 11.3155 9.38371 11.0355C9.54228 10.4739 9.79908 9.93868 10.1379 9.46531C10.4759 8.99193 10.8889 8.5758 11.3468 8.2285C11.8055 7.88043 12.3059 7.59734 12.825 7.36297C13.3455 7.13247 13.8846 6.95071 14.433 6.8138C14.9814 6.67844 15.5391 6.58021 16.1007 6.54308L16.1022 6.5423Z" fill="#0E0E0E"/>
<path d="M29.83 27.0312C29.7558 27.5123 29.7488 27.9942 29.8277 28.4528C29.8401 28.5101 29.844 28.5673 29.8587 28.6238L29.8981 28.7916C29.9128 28.8473 29.9321 28.9007 29.9484 28.9556L29.9739 29.0368L30.0064 29.1157C30.0845 29.3284 30.199 29.521 30.3197 29.7051C30.578 30.064 30.9183 30.3533 31.3074 30.5699C31.3561 30.5969 31.4025 30.6263 31.4536 30.6511L31.7599 30.7918C31.8125 30.812 31.8666 30.8298 31.92 30.8491C32.0283 30.8847 32.1304 30.9334 32.2433 30.9589L32.5751 31.051C33.4755 31.2583 34.423 31.3209 35.3759 31.3263C36.3304 31.3341 37.2911 31.2761 38.2672 31.2451C37.3352 31.5313 36.3745 31.7208 35.396 31.8129C34.4191 31.8979 33.4167 31.8801 32.4289 31.6527C31.9386 31.5267 31.452 31.3488 31.0081 31.0734C30.5656 30.8004 30.1727 30.4214 29.9089 29.9642C29.6506 29.504 29.5268 28.9834 29.5261 28.4791C29.5284 27.9748 29.6243 27.4775 29.83 27.0327V27.0312Z" fill="#0E0E0E"/>
<path d="M45.7824 28.0846C45.0167 28.2711 44.2331 28.3848 43.4442 28.4405C42.656 28.4923 41.8562 28.4876 41.0672 28.3368C40.6751 28.2571 40.2829 28.1411 39.9248 27.9361C39.7477 27.8333 39.5798 27.7064 39.4398 27.5509C39.299 27.3962 39.1892 27.2114 39.1235 27.0126C39.0577 26.8138 39.0337 26.605 39.0438 26.4015C39.0546 26.1973 39.0918 25.9986 39.1482 25.806C39.2666 25.4231 39.4445 25.0665 39.6541 24.7331C39.4893 25.0905 39.3424 25.4563 39.258 25.8346C39.1761 26.2097 39.1606 26.6057 39.2936 26.9515C39.3601 27.1232 39.4615 27.2787 39.5876 27.4125C39.7144 27.5463 39.8676 27.6554 40.0323 27.7451C40.3618 27.9269 40.7339 28.0367 41.1113 28.1094C41.4888 28.1868 41.8763 28.2247 42.2646 28.2455C42.6529 28.2695 43.0435 28.2672 43.4349 28.2602C44.2169 28.2386 44.9996 28.1759 45.7816 28.0846H45.7824Z" fill="#0E0E0E"/>
<path d="M25.6888 3.68196C25.6888 3.68196 27.9744 1.91067 29.3628 1.22846L29.8416 0.749672L29.9855 0.414752C29.9855 0.414752 28.0348 1.59973 27.8615 1.86891C27.6882 2.13808 25.6896 3.68196 25.6896 3.68196H25.6888Z" fill="#0E0E0E"/>
<path d="M51.7158 18.8454C51.7158 18.8454 49.827 20.9516 50.428 22.579C50.428 22.579 49.1184 21.7653 49.8161 20.4488C50.5138 19.1323 51.029 18.0788 51.029 18.0788C51.029 18.0788 51.5441 18.2707 51.7158 18.8446V18.8454Z" fill="#0E0E0E"/>
<path d="M51.6122 17.0029C51.6122 17.0029 54.0363 17.4075 55.1191 19.608C55.1191 19.608 54.5004 16.8567 51.804 16.1273L51.6122 17.0029Z" fill="#0E0E0E"/>
<path d="M51.1922 19.5284C51.1922 19.5284 51.6709 18.6961 52.2456 19.4239C52.8203 20.1526 53.3989 21.7328 53.4948 23.3981C53.4948 23.3981 54.0649 22.0252 53.5861 20.9848C53.1073 19.9445 51.9479 18.5251 51.9479 18.5251L51.097 17.9837L51.1922 19.5284Z" fill="#0E0E0E"/>
<path d="M8.85774 16.5311C8.85774 16.5311 6.38414 17.6001 6.09717 18.9405C5.93551 19.6954 6.67187 19.8981 6.67187 19.8981L5.52325 21.1426C5.52325 21.1426 4.37462 20.4728 5.33142 19.0364C6.289 17.6001 7.91641 16.8343 7.91641 16.8343C7.91641 16.8343 8.45862 16.6108 8.85774 16.5311Z" fill="#0E0E0E"/>
<path d="M30.1286 0.366796C30.1363 0.352874 26.7779 5.53677 30.5115 8.69646C30.5115 8.69646 27.3518 6.87722 28.3736 4.46782C28.3736 4.46782 29.7457 0.462709 30.1286 0.366796Z" fill="#0E0E0E"/>
<path d="M43.2933 5.87169C43.2933 5.87169 41.9846 3.97433 37.182 4.9234C37.182 4.9234 34.6287 4.99997 33.6472 4.334C33.6472 4.334 34.6604 5.56539 35.9607 5.39755C35.9607 5.39755 42.8145 5.50429 43.2933 5.87169Z" fill="#0E0E0E"/>
<path d="M10.8843 11.1221C10.8843 11.1221 12.7994 9.04762 15.0967 8.63304C15.0967 8.63304 15.3519 7.80309 15.751 7.48441C16.1502 7.16496 15.6714 7.26087 15.6714 7.26087C15.6714 7.26087 13.3734 8.4095 12.6076 8.88829C11.8419 9.36707 10.7884 10.484 10.8843 11.1221Z" fill="#0E0E0E"/>
<path d="M29.9731 0.653759C29.9731 0.653759 21.918 6.6854 28.222 9.3663C34.5259 12.0472 34.7262 15.3979 34.7262 15.3979C34.7262 15.3979 35.8269 18.6535 29.3729 20.9987C29.3729 20.9987 35.0263 19.2754 35.6265 16.1877C36.2268 13.0999 31.7119 10.5149 31.7119 10.5149C31.7119 10.5149 29.5732 9.31834 29.0728 9.12652C28.5723 8.9347 26.2171 8.01038 26.8714 5.42462C27.5219 2.85587 29.9731 0.653759 29.9731 0.653759Z" fill="#0E0E0E"/>
<path d="M29.0914 6.7496C29.0914 6.7496 29.458 8.12176 32.2348 9.55812C32.2348 9.55812 28.5329 7.96242 29.0914 6.7496Z" fill="#0E0E0E"/>
<path d="M24.001 13.4836C24.2238 13.7821 24.4071 14.1093 24.5696 14.4466C24.7297 14.7846 24.8627 15.1381 24.9548 15.5039C25.0499 15.869 25.1002 16.2488 25.0971 16.6309C25.0924 17.013 25.0244 17.3974 24.8859 17.7578C24.7467 18.1183 24.5278 18.447 24.2625 18.7232C23.9941 18.9962 23.6909 19.2352 23.3544 19.41C23.1928 19.509 23.0164 19.5786 22.8455 19.6568L22.7813 19.6854L22.7147 19.7086L22.5817 19.7558L22.3164 19.8486C22.1354 19.8958 21.9552 19.9468 21.7742 19.9901C21.5909 20.0257 21.4075 20.059 21.2242 20.0907C21.4021 20.035 21.5793 19.9808 21.7572 19.9282L22.2793 19.7418L22.533 19.6328L22.7232 19.5516L22.7844 19.5198C22.9452 19.4324 23.1139 19.359 23.2639 19.2553C23.5772 19.0689 23.8603 18.8392 24.1024 18.5754C24.346 18.3132 24.5456 18.01 24.6709 17.6759C24.8024 17.344 24.8673 16.9875 24.879 16.6278C24.8936 16.2673 24.8511 15.9046 24.7799 15.5464C24.7057 15.1891 24.5997 14.8364 24.4659 14.493C24.3344 14.1488 24.1813 13.8115 24.0018 13.4851L24.001 13.4836Z" fill="#0E0E0E"/>
<path d="M42.9104 7.78684C43.7358 7.99955 44.5301 8.33911 45.2688 8.77226C45.6385 8.98884 45.9928 9.23326 46.3246 9.5063C46.6557 9.78012 46.9635 10.0833 47.2412 10.4128C47.3077 10.4979 47.3797 10.5784 47.4415 10.6665L47.6287 10.9303L47.7981 11.2056L47.8399 11.2745L47.9513 11.4903C48.1415 11.8763 48.3009 12.2816 48.3867 12.7039C48.3983 12.7565 48.4138 12.8083 48.4223 12.8609L48.4718 13.1796C48.4803 13.233 48.4888 13.2856 48.4911 13.3397L48.5136 13.6607L48.519 13.7411V13.8216L48.5159 13.9825C48.5144 14.411 48.4509 14.8364 48.3674 15.2533L48.4022 14.9354C48.4138 14.8294 48.4308 14.725 48.4316 14.6183L48.4455 14.3004L48.4486 14.2207L48.4455 14.141L48.4401 13.9825L48.4331 13.745L48.3906 13.3513C48.3867 13.2987 48.3759 13.2469 48.3658 13.1951L48.3086 12.8841C48.2993 12.8323 48.2823 12.782 48.2692 12.731C48.1717 12.321 48.0131 11.9281 47.8205 11.556L47.7471 11.4168L47.7107 11.3472L47.5026 11.0123L47.3185 10.7563C47.2582 10.6704 47.1871 10.5923 47.1221 10.5095C46.5845 9.8621 45.9232 9.32066 45.2062 8.87204C44.8473 8.64851 44.4752 8.44353 44.0916 8.26254C43.7087 8.07922 43.315 7.91756 42.9104 7.78375V7.78684Z" fill="#0E0E0E"/>
<path d="M18.589 10.255C18.5124 10.0485 18.4907 9.82498 18.4884 9.60376C18.4853 9.381 18.5217 9.16055 18.5696 8.9432C18.6733 8.5085 18.8798 8.10475 19.1289 7.73966L19.2248 7.60353C19.2565 7.55789 19.2882 7.51226 19.3253 7.47126L19.5411 7.21833C19.6107 7.1317 19.695 7.05977 19.7732 6.98164C19.8521 6.9043 19.9317 6.82849 20.0122 6.75269C20.1839 6.61424 20.3548 6.47501 20.5304 6.34429C20.7153 6.22518 20.897 6.10219 21.0835 5.98772C20.9172 6.13081 20.7454 6.2654 20.5776 6.40385C20.4144 6.54849 20.2566 6.69778 20.0942 6.84164C19.7941 7.15336 19.4924 7.46585 19.2565 7.82706C19.0121 8.17977 18.8086 8.56342 18.6857 8.97492C18.63 9.18144 18.5781 9.39183 18.5634 9.60685C18.541 9.82111 18.5464 10.04 18.589 10.255Z" fill="#0E0E0E"/>
<path d="M16.6769 28.1798C16.3551 28.1481 16.0372 28.0769 15.7255 27.9818C15.4154 27.8843 15.1098 27.7559 14.8306 27.5734C14.6906 27.4829 14.5583 27.3761 14.4439 27.2477C14.3294 27.1209 14.2319 26.9724 14.17 26.8061C14.1082 26.6406 14.0873 26.4588 14.102 26.2832C14.1205 26.1084 14.1677 25.9413 14.235 25.782C14.3093 25.625 14.4067 25.4788 14.5251 25.3519C14.645 25.2266 14.785 25.123 14.9342 25.0394C15.0835 24.9559 15.2421 24.8963 15.4022 24.8492C15.5623 24.8012 15.7263 24.7703 15.8903 24.7525C16.2182 24.7115 16.5462 24.7177 16.8703 24.7463C17.1936 24.7795 17.5146 24.8329 17.8255 24.9234C17.5053 24.8832 17.1843 24.8608 16.8649 24.86C16.5454 24.8584 16.2267 24.877 15.9166 24.9311C15.7619 24.9582 15.6095 24.9953 15.4625 25.0433C15.3156 25.0913 15.1725 25.1508 15.0433 25.2297C14.9134 25.3078 14.7919 25.3976 14.6906 25.5066C14.59 25.6165 14.5096 25.7418 14.4469 25.8763C14.3874 26.0133 14.3449 26.1579 14.3278 26.3033C14.3131 26.4495 14.3309 26.5941 14.3766 26.7318C14.4678 27.0095 14.6852 27.24 14.9335 27.4241C15.1856 27.6066 15.4687 27.7536 15.7642 27.8743C16.0589 27.9965 16.3652 28.0963 16.6769 28.1782V28.1798Z" fill="#0E0E0E"/>
<path d="M9.30482 26.1695C9.14393 25.7897 9.04493 25.3836 8.99233 24.9721C8.94128 24.5599 8.94592 24.1376 9.02636 23.7245C9.07045 23.5188 9.13233 23.3169 9.21741 23.1235C9.3025 22.9301 9.41465 22.7491 9.54692 22.5859C9.80913 22.2541 10.168 22.0136 10.5494 21.862C10.1959 22.0723 9.87488 22.3307 9.64283 22.6594C9.40614 22.9835 9.25764 23.3633 9.17797 23.7555C9.0983 24.1492 9.08669 24.556 9.11222 24.9613C9.14084 25.3666 9.20504 25.7712 9.30482 26.1703V26.1695Z" fill="#0E0E0E"/>
<path d="M30.4635 11.3294C31.0568 11.7308 31.6013 12.2042 32.0971 12.7255C32.5906 13.2477 33.0369 13.8278 33.3556 14.486C33.5118 14.8155 33.634 15.1667 33.689 15.5333C33.7416 15.8984 33.7284 16.282 33.6124 16.6363C33.4994 16.9905 33.2983 17.3115 33.0462 17.5738C32.7956 17.8383 32.4986 18.0494 32.1868 18.2235C32.4707 18.0069 32.7422 17.7741 32.9603 17.4987C33.0717 17.3634 33.1692 17.218 33.2488 17.0648C33.3285 16.9117 33.3943 16.7515 33.4383 16.586C33.525 16.2542 33.5327 15.9061 33.4724 15.5681C33.4151 15.2293 33.2991 14.899 33.1467 14.5858C32.999 14.2702 32.8149 13.9701 32.6138 13.6816C32.415 13.3907 32.1923 13.1162 31.9633 12.8462C31.5 12.3102 30.9972 11.8059 30.4635 11.3294Z" fill="#0E0E0E"/>
<path d="M22.7085 12.8609C22.8772 13.1602 23.0241 13.472 23.1595 13.7883C23.2941 14.1054 23.4109 14.4295 23.5122 14.759C23.5609 14.9246 23.6027 15.0924 23.6383 15.261C23.6739 15.4297 23.704 15.6006 23.7172 15.7731C23.7311 15.9456 23.735 16.1196 23.7172 16.2921C23.6955 16.4638 23.6545 16.6355 23.571 16.7863C23.6391 16.6286 23.6715 16.4584 23.68 16.289C23.6901 16.1188 23.68 15.9487 23.6592 15.7793C23.6182 15.4413 23.5385 15.1079 23.4395 14.7807C23.3459 14.452 23.2283 14.1302 23.1061 13.81C23.045 13.6499 22.9808 13.4913 22.9135 13.3335C22.8486 13.1749 22.7797 13.0179 22.7093 12.8609H22.7085Z" fill="#0E0E0E"/>
<path d="M40.1336 7.49911C40.6844 7.62828 41.2243 7.80309 41.7541 8.00265C42.2839 8.20221 42.8006 8.43812 43.3003 8.70729C43.7945 8.9842 44.2741 9.29514 44.6972 9.67647C45.1188 10.0547 45.4854 10.5111 45.6873 11.0424C45.572 10.7841 45.4212 10.5435 45.2448 10.3246C45.07 10.1042 44.8728 9.90233 44.6578 9.72056C44.4435 9.53879 44.2207 9.3663 43.9864 9.21083C43.752 9.05536 43.5107 8.90994 43.2632 8.77536C42.7704 8.50309 42.2561 8.2695 41.7324 8.05834C41.471 7.95237 41.2065 7.85336 40.9396 7.76132C40.6735 7.66695 40.4044 7.57955 40.1336 7.49988V7.49911Z" fill="#0E0E0E"/>
<path d="M14.6658 12.3821C14.9312 12.6451 15.1678 12.9359 15.3829 13.2407C15.5956 13.5478 15.782 13.8757 15.9181 14.2269C16.0519 14.5765 16.1316 14.9586 16.0844 15.3376C16.0442 15.7182 15.8508 16.074 15.5786 16.337C15.304 16.6015 14.9675 16.7871 14.621 16.9287C14.2721 17.0679 13.9102 17.1708 13.5427 17.2427C12.8079 17.3889 12.0607 17.4423 11.3151 17.4554C11.6872 17.4322 12.0592 17.4051 12.4289 17.361C12.7987 17.3201 13.1676 17.2628 13.5304 17.1839C13.8931 17.1035 14.2513 17.0037 14.5939 16.8629C14.935 16.7214 15.2622 16.5373 15.5244 16.2813C15.7882 16.0291 15.9738 15.6926 16.0148 15.3283C16.0635 14.964 15.9854 14.5935 15.8624 14.247C15.7356 13.8997 15.5561 13.571 15.3512 13.2616C15.147 12.9506 14.9172 12.6559 14.6651 12.3813L14.6658 12.3821Z" fill="#0E0E0E"/>
<path d="M8.38514 18.3581C8.67829 18.0773 9.0078 17.8352 9.35664 17.624C9.70626 17.4152 10.0829 17.2466 10.4813 17.146C10.6801 17.1004 10.8789 17.0602 11.0815 17.0315C11.2834 17.0021 11.4899 16.9929 11.6926 16.996C12.0971 17.0006 12.5009 16.972 12.9046 16.9372C12.7043 16.9697 12.5032 16.9975 12.3013 17.0192C12.0994 17.0393 11.896 17.0501 11.6926 17.0555C11.5912 17.0586 11.4907 17.0625 11.3901 17.0679C11.2904 17.0749 11.1906 17.0857 11.0908 17.1012C10.892 17.1313 10.694 17.1739 10.4983 17.221C10.3034 17.2667 10.1131 17.3324 9.9267 17.4082C9.74184 17.4871 9.56161 17.5768 9.38526 17.6751C9.20891 17.7733 9.03796 17.8801 8.87089 17.9953C8.70304 18.1082 8.54139 18.2297 8.38437 18.3581H8.38514Z" fill="#0E0E0E"/>
<path d="M30.6553 30.0949C30.6553 30.0949 33.4322 31.9142 35.4424 30.2868L36.9747 31.2443L35.8261 31.6272L32.1876 31.4354L30.6553 30.0949Z" fill="#0E0E0E"/>
<path d="M26.1552 3.8614C25.9665 4.05864 25.7932 4.26826 25.6323 4.48793C25.4707 4.70605 25.3214 4.93345 25.1899 5.17169C24.9277 5.64506 24.7289 6.15943 24.6678 6.69546C24.5943 7.23071 24.6964 7.78066 24.9339 8.26486C24.9617 8.32674 24.9988 8.3832 25.0313 8.44199L25.0816 8.53016C25.0994 8.55878 25.1195 8.58585 25.1388 8.6137L25.2549 8.78L25.3848 8.93624L25.449 9.01514C25.4714 9.04066 25.4954 9.06464 25.5194 9.08862L25.6609 9.23481C25.7074 9.28508 25.7615 9.32608 25.811 9.37249L25.9634 9.5094C25.5271 9.18376 25.1396 8.77845 24.8805 8.29038C24.626 7.80154 24.5208 7.2338 24.5912 6.6854C24.6601 6.137 24.8627 5.61412 25.1388 5.14152C25.4173 4.6697 25.7576 4.235 26.1552 3.86063V3.8614Z" fill="#0E0E0E"/>
<path d="M30.1124 0.462709C30.1124 0.462709 31.7398 5.29777 35.5059 5.39368L33.7825 4.37268C33.7825 4.37268 31.1976 3.00051 30.1124 0.463482V0.462709Z" fill="#0E0E0E"/>
<path d="M31.565 13.9624C31.8365 14.2733 32.0569 14.6291 32.2178 15.012C32.3771 15.3941 32.4645 15.8172 32.4135 16.2364C32.3864 16.4445 32.3222 16.6479 32.2263 16.8351C32.1327 17.0238 31.9981 17.1886 31.8504 17.3347L31.7359 17.4407C31.6957 17.474 31.6539 17.5049 31.6129 17.5366C31.5332 17.6031 31.442 17.6542 31.3561 17.7114C31.2679 17.7648 31.1736 17.8097 31.0831 17.8592C30.9895 17.9025 30.8943 17.9427 30.8 17.9837L31.0738 17.8414C31.1612 17.7872 31.2517 17.7377 31.336 17.6797C31.4188 17.6194 31.507 17.5668 31.5835 17.498C31.623 17.4655 31.6624 17.4338 31.7011 17.3997L31.8094 17.2922C31.9471 17.1437 32.0778 16.9859 32.1652 16.8026C32.2557 16.6224 32.3145 16.4267 32.3384 16.2263C32.3934 15.8249 32.3091 15.4134 32.1636 15.0336C32.0917 14.8426 32.002 14.6577 31.9014 14.479C31.8024 14.2996 31.6903 14.1263 31.5665 13.9624H31.565Z" fill="#0E0E0E"/>
<path d="M43.6762 27.414C43.1773 27.3614 42.6823 27.2323 42.2298 27.0025C42.0047 26.8873 41.7935 26.7388 41.618 26.5524C41.4431 26.3667 41.3101 26.1355 41.2513 25.8841C41.1933 25.6319 41.2095 25.3697 41.266 25.1222C41.3194 24.8724 41.4238 24.6388 41.5383 24.4145C41.7796 23.9697 42.0921 23.5714 42.4309 23.2016L42.1988 23.4979C42.1207 23.5961 42.0527 23.7013 41.9792 23.8019C41.8353 24.0068 41.7061 24.2203 41.5917 24.4423C41.4872 24.6674 41.3828 24.8956 41.3349 25.1384C41.2823 25.379 41.2699 25.6296 41.3271 25.8671C41.3805 26.1053 41.5042 26.325 41.6706 26.5052C41.8368 26.687 42.0418 26.8301 42.2584 26.9507C42.4757 27.0714 42.7086 27.1634 42.9468 27.2385C43.1843 27.3158 43.4287 27.3746 43.6762 27.414Z" fill="#0E0E0E"/>
<path d="M47.3147 27.0312C47.505 26.9105 47.6658 26.745 47.7865 26.5562C47.8468 26.4619 47.894 26.359 47.9288 26.253C47.9482 26.2004 47.959 26.1455 47.9721 26.0914C47.9799 26.0365 47.9915 25.9815 47.993 25.9259C48.0039 25.8145 47.9938 25.7031 47.9814 25.5925C47.9706 25.5376 47.9621 25.4826 47.9489 25.4285C47.9327 25.3751 47.9219 25.3202 47.9025 25.2676C47.8306 25.0565 47.7308 24.8546 47.6094 24.6658C47.368 24.2884 47.0672 23.9504 46.7454 23.6371C46.6657 23.5567 46.5876 23.4731 46.5087 23.3911C46.436 23.303 46.3641 23.214 46.2968 23.122C46.1699 22.9325 46.0516 22.7345 45.9719 22.5194C45.8837 22.3075 45.8335 22.0824 45.7986 21.8573C45.7878 21.7436 45.7708 21.6299 45.7723 21.5162C45.7723 21.459 45.7669 21.4017 45.7708 21.3453L45.7793 21.1743C45.7801 21.1171 45.7894 21.0606 45.7956 21.0042C45.8033 20.9477 45.8072 20.8905 45.818 20.8348C45.8389 20.7226 45.8567 20.6105 45.8861 20.5006C45.9363 20.2786 46.009 20.0628 46.0895 19.8509C46.4198 19.0047 46.9156 18.2312 47.5088 17.5513C47.2211 17.8994 46.9643 18.2714 46.733 18.6582C46.6178 18.8516 46.5103 19.0503 46.4105 19.2514C46.313 19.4541 46.2225 19.6606 46.1452 19.871C45.9928 20.2926 45.8783 20.7311 45.8505 21.1782L45.8427 21.346C45.8396 21.4017 45.8451 21.4574 45.8451 21.5131C45.8451 21.6253 45.8613 21.7359 45.8729 21.8465C45.9085 22.0662 45.958 22.2851 46.0446 22.4908C46.1212 22.7004 46.2357 22.893 46.3579 23.0794C46.4236 23.1691 46.4932 23.2566 46.5636 23.3432C46.641 23.4244 46.716 23.5056 46.7949 23.5861C47.1174 23.904 47.423 24.2451 47.6604 24.6341C47.7811 24.8275 47.8801 25.0348 47.9497 25.2521C47.969 25.3055 47.9799 25.362 47.9953 25.4169C48.0085 25.4726 48.0162 25.5291 48.0263 25.5855C48.0371 25.6992 48.0456 25.8137 48.0325 25.9282C47.993 26.3876 47.7053 26.803 47.317 27.0304L47.3147 27.0312Z" fill="#0E0E0E"/>
<path d="M53.7044 24.8863C54.3952 25.116 55.0782 25.3775 55.7271 25.7201C56.0504 25.8934 56.3645 26.0875 56.6522 26.3234C56.9376 26.5586 57.2052 26.8378 57.3654 27.1967C57.4419 27.3754 57.4891 27.5734 57.4845 27.7745C57.4814 27.9748 57.4303 28.1728 57.3476 28.3507C57.1805 28.7096 56.9113 28.9935 56.6259 29.2371C56.3382 29.4808 56.0249 29.6858 55.7031 29.8714C55.3814 30.0563 55.0495 30.221 54.7131 30.3718C54.0394 30.6735 53.3463 30.9218 52.6479 31.1453C51.9486 31.3681 51.2417 31.5638 50.5316 31.7425C49.1107 32.0983 47.6728 32.3736 46.231 32.615C40.4562 33.554 34.6063 33.8734 28.7688 33.8811C22.9321 33.8525 17.0814 33.5145 11.312 32.5361C9.87178 32.2847 8.43542 31.9962 7.01839 31.6233C6.30988 31.4362 5.60601 31.2296 4.90987 30.9922C4.21528 30.754 3.52688 30.4879 2.86323 30.1591C2.53218 29.9936 2.20731 29.8118 1.89715 29.6038C1.58775 29.3949 1.28919 29.1598 1.03626 28.869C0.910177 28.7235 0.797249 28.5634 0.710618 28.3855C0.624761 28.2076 0.567523 28.0104 0.558241 27.8077C0.553601 27.7064 0.562882 27.6059 0.579899 27.5061C0.600783 27.4079 0.627855 27.3096 0.669623 27.2199C0.748519 27.0366 0.864542 26.8772 0.994487 26.7372C1.25593 26.458 1.56841 26.2476 1.88709 26.0643C2.20809 25.8825 2.54146 25.7278 2.8787 25.5871C3.55627 25.3102 4.25009 25.0858 4.94777 24.877C4.26246 25.123 3.58257 25.3852 2.92743 25.6961C2.59947 25.8508 2.27847 26.0179 1.97372 26.2089C1.67129 26.4008 1.382 26.6181 1.15692 26.8819C0.930288 27.1433 0.791061 27.4659 0.820453 27.7915C0.846752 28.1171 1.02697 28.4172 1.26134 28.6663C1.49648 28.9177 1.78267 29.1281 2.08278 29.3153C2.38367 29.5017 2.70234 29.6649 3.02798 29.8134C3.67926 30.1112 4.35915 30.3533 5.04755 30.5675C5.73673 30.7802 6.43596 30.9643 7.14061 31.1291C8.54912 31.4578 9.97543 31.7216 11.4087 31.9389C12.1257 32.048 12.8435 32.1454 13.5636 32.2336C14.283 32.3241 15.0039 32.4069 15.7255 32.4804C17.1688 32.6281 18.616 32.7441 20.0648 32.8331C22.9615 33.0195 25.8659 33.1084 28.7696 33.1084C31.674 33.1208 34.5777 33.0396 37.4759 32.8687C40.3742 32.7031 43.2663 32.4285 46.1382 32.0209C47.5738 31.8144 49.0017 31.5615 50.4156 31.2521C51.1226 31.0958 51.8249 30.9226 52.5187 30.723C53.2125 30.5235 53.8986 30.296 54.5638 30.0253C54.8964 29.89 55.2236 29.7422 55.5392 29.5759C55.8547 29.4096 56.1595 29.224 56.4356 29.0066C56.7094 28.7901 56.9616 28.5387 57.1132 28.2386C57.1898 28.0901 57.2354 27.9292 57.2462 27.7652C57.2578 27.6012 57.2261 27.4357 57.1673 27.2771C57.0436 26.96 56.8084 26.6846 56.5439 26.448C56.2786 26.2097 55.9785 26.0063 55.6691 25.8207C55.048 25.4486 54.3805 25.1516 53.7037 24.8863H53.7044Z" fill="#0E0E0E"/>
<path d="M57.3197 28.3554L57.3545 30.5111L57.3816 32.8014L57.3754 32.9476C57.3638 33.045 57.3468 33.1417 57.3158 33.2345C57.2571 33.4209 57.1635 33.5919 57.0536 33.7473C56.8278 34.0529 56.5478 34.3058 56.2492 34.5224C55.9506 34.7397 55.6351 34.9277 55.3125 35.0994C54.99 35.2703 54.6597 35.425 54.3248 35.5666C53.6549 35.8497 52.9689 36.0864 52.2774 36.3006C51.5859 36.5149 50.8866 36.7021 50.1851 36.8738C48.7812 37.2172 47.3611 37.4848 45.9371 37.7184C40.2357 38.6311 34.4617 38.9452 28.7 38.9537C22.9383 38.9266 17.165 38.5955 11.4675 37.648C10.045 37.4052 8.62647 37.1275 7.22569 36.7686C6.52491 36.5891 5.82877 36.3927 5.1396 36.1668C4.7954 36.0546 4.45274 35.9355 4.11318 35.8056C3.77362 35.6764 3.43638 35.5395 3.1061 35.3856C2.77583 35.2317 2.45019 35.0654 2.13461 34.8774C1.8198 34.6887 1.51504 34.4791 1.23581 34.23C1.09891 34.1024 0.965095 33.9709 0.850619 33.8177C0.736143 33.6661 0.630949 33.5029 0.564429 33.3173C0.531943 33.2252 0.501777 33.1309 0.488628 33.0326C0.48476 33.0079 0.480119 32.9839 0.477025 32.9599L0.473158 32.8857C0.470838 32.8354 0.469291 32.7867 0.470838 32.7434L0.531943 30.0485L0.590728 27.8928L0.649513 30.0485L0.710618 32.7434C0.710618 32.7898 0.714486 32.83 0.718353 32.8702L0.722994 32.9305L0.73537 32.9901C0.748519 33.0698 0.776364 33.1471 0.80653 33.2229C0.867636 33.3753 0.964321 33.5137 1.07029 33.6445C1.17626 33.776 1.30388 33.8928 1.43383 34.0049C1.96985 34.445 2.6103 34.7629 3.26003 35.0391C3.58644 35.1767 3.91826 35.3028 4.25473 35.4188C4.59042 35.5364 4.92998 35.6432 5.27186 35.7437C5.95485 35.9456 6.64789 36.1204 7.3448 36.2766C8.73863 36.5899 10.1471 36.8444 11.5626 37.0532C14.3951 37.4647 17.2485 37.7463 20.1089 37.9164C22.9684 38.0959 25.835 38.1833 28.7015 38.1817C31.5681 38.1933 34.4346 38.1144 37.2949 37.9474C40.1561 37.7865 43.011 37.5181 45.8466 37.1251C47.2636 36.9256 48.6745 36.6804 50.0722 36.3826C50.7706 36.2333 51.466 36.0678 52.1528 35.8767C52.8405 35.6872 53.5196 35.4707 54.1832 35.217C54.5151 35.0909 54.8422 34.9524 55.1601 34.7985C55.478 34.6446 55.7874 34.4752 56.0775 34.2795C56.3676 34.0854 56.6344 33.8587 56.8463 33.5934C56.9492 33.4596 57.0335 33.3142 57.0908 33.1603C57.1202 33.0829 57.1372 33.0032 57.1511 32.9228L57.1619 32.8006L57.1666 32.666L57.2385 30.5103L57.3197 28.3554Z" fill="#0E0E0E"/>
<path d="M54.0162 35.2649C54.0285 35.9293 53.9713 36.5976 53.8328 37.252C53.7021 37.9079 53.4848 38.5453 53.2226 39.1617C52.6873 40.3924 51.9301 41.5209 51.0483 42.5318C50.1688 43.5482 49.1618 44.4485 48.0851 45.2498C47.0068 46.0504 45.859 46.7574 44.657 47.3591C43.455 47.9609 42.2043 48.4675 40.9156 48.8628C39.6278 49.2588 38.3005 49.5404 36.9492 49.6649C36.612 49.6982 36.2724 49.7152 35.9328 49.7275C35.5894 49.7353 35.2607 49.7368 34.9281 49.7399L32.934 49.7577L28.9467 49.7701C27.6179 49.7778 26.2882 49.7701 24.9594 49.7662L22.9638 49.7593C22.2824 49.7531 21.6032 49.7043 20.9319 49.6123C20.2605 49.5233 19.5953 49.4004 18.9378 49.2472C18.2803 49.0941 17.6298 48.9154 16.9894 48.7096C15.707 48.2989 14.4578 47.7892 13.2566 47.1866C12.0553 46.5841 10.8928 45.9027 9.80294 45.1153C8.7131 44.3302 7.68669 43.4523 6.77475 42.4637C5.86899 41.4721 5.07153 40.3699 4.50302 39.1509C4.22379 38.5406 3.99406 37.9064 3.8502 37.252C3.70169 36.5992 3.64136 35.9293 3.65605 35.2649C3.68003 35.9293 3.77904 36.5891 3.96235 37.2234C4.13639 37.8607 4.39164 38.4718 4.6933 39.0565C5.00192 39.6374 5.3554 40.1943 5.75297 40.718C6.15132 41.2409 6.58369 41.7382 7.04701 42.2031C7.50956 42.6695 7.99685 43.1119 8.50581 43.5281C9.01553 43.9434 9.54537 44.3333 10.0907 44.7014C11.1813 45.4363 12.3291 46.0852 13.518 46.646C14.112 46.9268 14.7169 47.1851 15.3303 47.4202C15.9436 47.6554 16.5632 47.8735 17.1905 48.0646C17.8178 48.2564 18.4521 48.4219 19.0917 48.5611C19.7306 48.7011 20.3757 48.8117 21.0231 48.8883C21.6705 48.9657 22.3195 49.0105 22.9677 49.0136L24.9594 49.009C26.2882 49.0051 27.6179 48.9982 28.9467 49.0051L32.934 49.0175L34.9281 49.0353C35.2599 49.0376 35.5956 49.0438 35.9166 49.0391C36.2415 49.0314 36.5663 49.0183 36.8904 48.9904C37.5394 48.9401 38.1868 48.8465 38.8288 48.7243C39.4715 48.6037 40.1089 48.4498 40.7393 48.2703C42.0001 47.9099 43.2307 47.438 44.4172 46.8726C46.7872 45.7426 49.0032 44.2381 50.8046 42.3152C51.254 41.8341 51.6709 41.3236 52.0492 40.7853C52.4297 40.2477 52.7662 39.68 53.0563 39.0875C53.6263 37.901 53.9829 36.5984 54.0154 35.2665L54.0162 35.2649Z" fill="#0E0E0E"/>
<path d="M24.4798 30.6696C21.6481 31.4238 9.67145 30.4562 6.56513 29.6162C0.190835 27.8928 5.1365 25.6907 5.1365 25.6907C5.1365 25.6907 4.807 27.6059 8.87321 28.8504C12.9394 30.0949 24.4798 30.6696 24.4798 30.6696Z" fill="#0E0E0E"/>
<path d="M24.4798 30.6696C23.9802 30.8058 23.4627 30.8638 22.9483 30.911C22.4324 30.9543 21.915 30.9775 21.3975 30.9914C20.3626 31.0185 19.3269 31.0115 18.2927 30.9844C17.2586 30.9543 16.2244 30.9063 15.191 30.8429C14.1584 30.7772 13.1258 30.6967 12.0956 30.6008C11.0645 30.5057 10.035 30.3889 9.0078 30.2473C8.4942 30.1754 7.98061 30.0973 7.46856 30.0021C7.21254 29.9542 6.95651 29.9023 6.70049 29.8412C6.44292 29.7778 6.19541 29.7051 5.94325 29.6301C5.44358 29.4746 4.947 29.2998 4.46899 29.0616C4.23075 28.9417 3.99561 28.8079 3.77749 28.6385C3.66765 28.5549 3.56246 28.4613 3.46655 28.3538C3.37064 28.2471 3.28323 28.1256 3.21903 27.9864C3.15483 27.848 3.11539 27.6909 3.11539 27.5324C3.11539 27.3738 3.15174 27.2199 3.20898 27.0814C3.32732 26.8045 3.51296 26.5849 3.71174 26.3961C3.91208 26.2082 4.12942 26.0481 4.35451 25.9034C4.58191 25.7596 4.80932 25.6319 5.05915 25.5167L5.3554 25.3798L5.32446 25.7232L5.32214 25.7449L5.32059 25.7766C5.32059 25.799 5.32059 25.8214 5.32214 25.8446C5.32369 25.891 5.32987 25.9382 5.33761 25.9854C5.35385 26.0798 5.37938 26.1741 5.41418 26.267C5.48225 26.4518 5.58358 26.6282 5.70347 26.7922C5.94634 27.1201 6.26657 27.397 6.61463 27.6337C6.96193 27.8727 7.34403 28.0661 7.73464 28.2401C8.1268 28.4126 8.53211 28.5588 8.94283 28.6872C9.76581 28.9347 10.6197 29.1072 11.476 29.2565C12.3322 29.4073 13.1947 29.5357 14.0587 29.6502C15.7874 29.8768 17.5231 30.0632 19.2604 30.2288C20.9976 30.3997 22.7387 30.5374 24.4806 30.6704L24.4798 30.6696ZM24.4798 30.6696C23.6066 30.6426 22.7341 30.6062 21.8616 30.559C20.9891 30.5134 20.1174 30.4616 19.2457 30.4036C18.3739 30.3471 17.503 30.2752 16.632 30.1994C15.7611 30.1236 14.8909 30.0362 14.0223 29.9348C13.1537 29.8335 12.2851 29.7198 11.4203 29.5798C10.5555 29.4367 9.69233 29.2719 8.83918 29.0252C8.41608 28.8976 7.99685 28.7506 7.58768 28.5758C7.17928 28.3995 6.77861 28.1968 6.40425 27.9423C6.03065 27.6902 5.67794 27.3908 5.39872 27.0165C5.26103 26.8293 5.14037 26.6235 5.05761 26.3985C5.01507 26.2863 4.98258 26.1695 4.9617 26.0488C4.95164 25.9885 4.94391 25.9274 4.94081 25.864C4.93926 25.833 4.93849 25.8005 4.93926 25.7681C4.93926 25.751 4.94004 25.7356 4.94159 25.7178C4.94313 25.6992 4.94391 25.6868 4.94777 25.6582L5.21308 25.8647C4.77064 26.0751 4.32898 26.3466 3.97627 26.6769C3.80224 26.8432 3.64909 27.0296 3.56323 27.2299C3.52224 27.3297 3.49903 27.4318 3.49826 27.5324C3.49826 27.6329 3.52224 27.7319 3.56633 27.8279C3.65528 28.0197 3.81926 28.1937 4.00953 28.3391C4.19904 28.4876 4.41484 28.6122 4.63761 28.7251C5.08468 28.9502 5.56579 29.1219 6.05231 29.275C6.29596 29.3485 6.54425 29.422 6.7879 29.4831C7.03386 29.545 7.28447 29.5976 7.53586 29.6471C8.03862 29.7453 8.54757 29.8281 9.05653 29.9039C10.0752 30.0563 11.1009 30.1754 12.1265 30.2891C13.1521 30.4005 14.1809 30.4964 15.2096 30.5784C16.2383 30.6627 17.2686 30.7331 18.2997 30.7857C19.3307 30.8398 20.3626 30.8808 21.3952 30.8831C21.9111 30.8847 22.4278 30.8769 22.9429 30.8491C23.4573 30.8212 23.9747 30.7857 24.4791 30.6689L24.4798 30.6696Z" fill="#0E0E0E"/>
<path d="M47.7935 30.9566C60.3355 28.5627 53.6341 26.0736 53.6341 26.0736L46.0701 29.3292L39.6556 31.5313L47.7935 30.9566Z" fill="#0E0E0E"/>
<path d="M47.7935 30.9566C48.7062 30.7779 49.6166 30.5846 50.5177 30.3533C50.9679 30.2365 51.4157 30.1096 51.8589 29.9712C52.3029 29.8335 52.7422 29.6804 53.1707 29.5032C53.5993 29.3261 54.02 29.1289 54.4091 28.8837C54.6025 28.7607 54.7881 28.6245 54.949 28.4675C55.1083 28.3105 55.2468 28.128 55.3048 27.9245C55.3651 27.7219 55.3272 27.5069 55.2197 27.322C55.1137 27.1356 54.9528 26.977 54.778 26.8386C54.6017 26.7001 54.4083 26.5802 54.208 26.4735C54.0084 26.3675 53.7973 26.2708 53.5892 26.1943L53.6851 26.1919L51.8071 27.0358L49.9244 27.8681L48.0371 28.6903C47.4083 28.9649 46.7771 29.2341 46.1459 29.5032L46.1382 29.5063L46.132 29.5086C45.5968 29.6896 45.0623 29.8745 44.5255 30.0516L42.9166 30.5869L39.692 31.6373L39.6479 31.4215L43.7218 31.2134L45.7584 31.0935L47.7942 30.9581L47.7935 30.9566ZM47.7935 30.9566L45.76 31.1082L43.728 31.2753L38.8087 31.7185L42.8091 30.2736L44.4071 29.7074C44.9393 29.5179 45.4746 29.3354 46.0083 29.149L45.9951 29.1544C46.6247 28.8806 47.2536 28.6075 47.8855 28.3399L49.7798 27.5339L51.6787 26.7388L53.5822 25.9545L53.6333 25.9336L53.6789 25.9522C53.9048 26.0442 54.1144 26.1486 54.3217 26.267C54.5282 26.3853 54.7278 26.5176 54.9126 26.673C55.0959 26.8285 55.2692 27.0072 55.3875 27.2299C55.4463 27.3413 55.4896 27.4643 55.5043 27.5927C55.5198 27.7211 55.5059 27.8534 55.4664 27.974C55.3875 28.2185 55.2251 28.4126 55.0503 28.575C54.8732 28.7375 54.6767 28.8713 54.4741 28.9919C54.0672 29.231 53.6364 29.4158 53.2001 29.5798C52.3245 29.9031 51.4273 30.1553 50.5223 30.3726C49.6181 30.5931 48.7077 30.7849 47.7927 30.9558L47.7935 30.9566Z" fill="#0E0E0E"/>
<path d="M11.7939 30.5737C11.7939 30.5737 24.2408 32.3203 28.3573 31.1801C32.4738 30.04 25.565 30.6395 25.565 30.6395L22.4695 30.5521L11.7939 30.5745V30.5737Z" fill="#0E0E0E"/>
<path fill-rule="evenodd" clip-rule="evenodd" d="M29.4352 30.8648C29.2272 30.9588 28.8825 31.0748 28.3676 31.2174C27.3331 31.504 25.7787 31.6085 24.0326 31.605C22.2854 31.6016 20.3425 31.4901 18.5288 31.343C16.715 31.1959 15.03 31.0132 13.7985 30.8672C13.1827 30.7942 12.6803 30.7304 12.3318 30.6849C12.1575 30.6621 12.0217 30.6439 11.9295 30.6314C11.8834 30.6251 11.8481 30.6203 11.8244 30.617L11.7967 30.6132L11.7552 30.6133V30.5292L11.7993 30.5354L11.7992 30.5358H11.7993C11.7994 30.5354 11.7994 30.5354 11.7994 30.5354L11.802 30.5358L22.47 30.5134L25.5639 30.6008L25.5815 30.5993C25.5944 30.5982 25.6136 30.5965 25.6384 30.5945C25.6881 30.5904 25.7603 30.5845 25.8508 30.5774C26.0318 30.5632 26.2858 30.5442 26.5777 30.525C27.1613 30.4866 27.8971 30.4473 28.5046 30.4436C28.8082 30.4418 29.0808 30.4488 29.2867 30.4696C29.3895 30.4799 29.4771 30.4938 29.544 30.5122C29.5775 30.5215 29.607 30.5321 29.6311 30.5446C29.6547 30.5569 29.6762 30.5726 29.6899 30.5934C29.7048 30.6159 29.7089 30.642 29.7007 30.6686C29.6932 30.6931 29.6761 30.7151 29.6546 30.7352C29.6115 30.7753 29.5385 30.8181 29.4352 30.8648ZM25.565 30.6395C25.5684 30.678 25.5684 30.678 25.5685 30.678L25.588 30.6763C25.6009 30.6752 25.62 30.6736 25.6448 30.6716C25.6944 30.6675 25.7665 30.6616 25.8569 30.6545C26.0376 30.6403 26.2913 30.6214 26.5828 30.6022C27.1659 30.5638 27.9 30.5246 28.5051 30.5209C28.8078 30.5191 29.0772 30.5262 29.2789 30.5465C29.38 30.5567 29.4626 30.5701 29.5235 30.5868C29.554 30.5952 29.5778 30.6041 29.5954 30.6133C29.6134 30.6226 29.6219 30.6307 29.6254 30.636C29.6277 30.6395 29.6281 30.6417 29.6268 30.6458C29.6249 30.652 29.6186 30.663 29.6019 30.6786C29.5684 30.7097 29.505 30.7483 29.4033 30.7943C29.2011 30.8858 28.8612 31.0004 28.347 31.1429C27.3233 31.4264 25.7781 31.5311 24.0327 31.5277C22.2883 31.5243 20.3477 31.4129 18.535 31.2659C16.7225 31.1189 15.0385 30.9363 13.8076 30.7904C13.2089 30.7195 12.7175 30.6572 12.3706 30.612L22.4696 30.5907L25.5662 30.6782L25.5685 30.678L25.565 30.6395Z" fill="#0E0E0E"/>
<path d="M1.45316 30.6696C1.48178 30.9257 1.50808 31.1825 1.53283 31.4393L1.56841 31.8245C1.58002 31.9544 1.59084 32.0782 1.6156 32.1996C1.71151 32.6884 1.98532 33.1309 2.36742 33.431C2.46102 33.506 2.5693 33.571 2.67527 33.6383C2.78356 33.7025 2.89107 33.7682 3.00246 33.8278C3.11461 33.8858 3.22445 33.9477 3.34047 34.0003C3.45495 34.0544 3.56865 34.1101 3.68622 34.1581C4.15186 34.3599 4.6291 34.5402 5.11717 34.6894C5.23783 34.7312 5.36081 34.7668 5.48303 34.8031C5.60524 34.8387 5.72745 34.8782 5.85043 34.9114C6.09795 34.9772 6.34314 35.0476 6.5922 35.1071L6.96502 35.2015C7.08955 35.2324 7.21486 35.2587 7.33939 35.2881L7.71453 35.3732L8.09122 35.4536C9.09598 35.6656 10.1085 35.8458 11.1233 36.0322C10.093 35.9734 9.06658 35.8597 8.04636 35.6911C7.0269 35.5217 6.01364 35.299 5.0228 34.9841L4.65307 34.8612L4.28722 34.7266C4.16501 34.6833 4.04511 34.6299 3.92445 34.5819C3.80301 34.5347 3.68467 34.4798 3.56633 34.4249C3.44721 34.3723 3.33119 34.312 3.21439 34.2524C3.09682 34.1952 2.98389 34.1279 2.86942 34.0645C2.64201 33.9299 2.42312 33.7945 2.2135 33.6174C1.79891 33.2631 1.53129 32.7534 1.46554 32.2243C1.4493 32.0921 1.4493 31.9575 1.44852 31.8306L1.44698 31.4439C1.44698 31.1863 1.44852 30.928 1.45316 30.6704V30.6696Z" fill="#0E0E0E"/>
<path d="M30.865 27.9477C30.7961 27.6136 30.8015 27.2663 30.8472 26.9275C30.8936 26.588 30.9802 26.2515 31.114 25.9351C31.2517 25.6203 31.411 25.3133 31.623 25.0425C31.7189 24.9002 31.8411 24.778 31.9525 24.6504L31.9958 24.6032L32.1373 24.4732C32.2 24.416 32.2642 24.3595 32.3284 24.3046C32.2758 24.3719 32.2224 24.4377 32.1683 24.5026C32.1165 24.5692 32.0561 24.6287 32.0105 24.6999C31.9138 24.8376 31.8071 24.9667 31.722 25.1114C31.6779 25.1825 31.6315 25.2514 31.5882 25.3233L31.4691 25.543C31.4265 25.6149 31.3925 25.6907 31.3577 25.7665C31.3244 25.8423 31.2834 25.9158 31.2563 25.9947L31.1643 26.2267L31.0877 26.4642C31.039 26.6235 30.9988 26.7852 30.9647 26.9484C30.8982 27.2756 30.8595 27.6097 30.8642 27.9493L30.865 27.9477Z" fill="#0E0E0E"/>
<path d="M3.56014 25.8825C3.41395 25.9614 3.27086 26.0457 3.13318 26.1386C2.99472 26.2298 2.86091 26.3273 2.73483 26.4333C2.48422 26.6444 2.24831 26.8865 2.11759 27.1843C2.0503 27.3305 2.01317 27.4906 2.01936 27.6507C2.024 27.8116 2.07427 27.9679 2.14466 28.1133L2.20499 28.22C2.22433 28.2564 2.2514 28.2873 2.27461 28.3213C2.31947 28.3902 2.37748 28.449 2.43085 28.5116C2.48577 28.5735 2.54687 28.6284 2.60566 28.688L2.79439 28.8512C2.51825 28.6671 2.26378 28.4366 2.09206 28.1419C2.0093 27.9934 1.9567 27.8255 1.9482 27.6538C1.93969 27.4813 1.97759 27.3088 2.04643 27.1526C2.19107 26.8409 2.43394 26.5918 2.69693 26.3869C2.96223 26.1826 3.25307 26.0117 3.55937 25.8825H3.56014Z" fill="#0E0E0E"/>
<path d="M56.4101 30.4778L56.373 31.2606L56.3304 32.0426C56.315 32.304 56.3041 32.5616 56.2856 32.8269C56.2724 32.9607 56.2446 33.0945 56.1989 33.2237C56.1548 33.3521 56.0821 33.4789 55.9924 33.5834C55.8099 33.7937 55.5809 33.9423 55.3496 34.0722C55.1161 34.1998 54.874 34.3081 54.6295 34.4071C54.1399 34.6044 53.6356 34.7567 53.1305 34.8975C51.104 35.4482 49.0341 35.7824 46.9658 36.0879C45.9301 36.2325 44.8929 36.3648 43.8549 36.4855C42.8161 36.6015 41.7773 36.7144 40.7362 36.8088C40.2156 36.8544 39.6958 36.9063 39.1753 36.948C38.6547 36.989 38.1342 37.0339 37.6128 37.0726C36.5702 37.1445 35.5283 37.2203 34.4849 37.2744L40.7107 36.569L42.2654 36.3865L43.8193 36.1954C44.855 36.0662 45.8891 35.9317 46.9217 35.7824C47.9544 35.637 48.9846 35.4768 50.011 35.2974C51.0375 35.1187 52.06 34.9176 53.0679 34.6655C53.5714 34.5386 54.0711 34.3963 54.5568 34.2184C54.7989 34.1294 55.0372 34.0312 55.2661 33.916C55.4927 33.7992 55.7109 33.6623 55.8795 33.4828C56.0489 33.3072 56.1332 33.0628 56.1703 32.813C56.1997 32.5585 56.2229 32.2947 56.2492 32.0364L56.3266 31.2567L56.4101 30.4778Z" fill="#0E0E0E"/>
<path d="M12.3686 36.2225C12.825 36.2882 13.2813 36.3532 13.7384 36.4104C14.1948 36.4708 14.6527 36.528 15.1098 36.5806C16.0249 36.6866 16.9414 36.784 17.8588 36.8622C18.7761 36.9442 19.6958 37.0022 20.6155 37.047C21.0757 37.0625 21.5359 37.0842 21.9969 37.0849C22.4579 37.0989 22.9182 37.0849 23.3792 37.0842C22.4587 37.1313 21.5359 37.1321 20.614 37.1066C19.692 37.0741 18.7715 37.0161 17.8526 36.9395C16.9345 36.8552 16.0171 36.7593 15.1029 36.6402C14.1886 36.5203 13.2759 36.3872 12.3694 36.2233L12.3686 36.2225Z" fill="#0E0E0E"/>
<path d="M6.33618 36.4143C6.33618 36.4143 3.65528 39.0952 9.63896 44.6001C9.63896 44.6001 3.40003 40.6909 3.76666 35.4405L6.33541 36.4135L6.33618 36.4143Z" fill="#0E0E0E"/>
<path d="M7.72459 40.1959C7.95508 40.6739 8.26757 41.1009 8.60481 41.5008C8.94205 41.9014 9.31333 42.2719 9.70471 42.6177C10.489 43.3084 11.3561 43.9009 12.2626 44.423C12.7174 44.6813 13.1784 44.9312 13.6541 45.1539C13.8877 45.273 14.129 45.3775 14.3681 45.4873C14.4872 45.5438 14.6094 45.5909 14.73 45.6435L15.092 45.8006C16.0651 46.2036 17.0606 46.5555 18.0645 46.8997C17.0196 46.7117 15.9885 46.4371 14.9837 46.0829C14.4818 45.905 13.986 45.7062 13.4987 45.4873C13.3764 45.4332 13.2558 45.3759 13.1351 45.3195L12.777 45.1392L12.5983 45.0487L12.422 44.9528C12.3044 44.8886 12.1861 44.826 12.07 44.7602C11.609 44.488 11.1573 44.1994 10.7242 43.8823C10.2941 43.5621 9.88029 43.2187 9.49896 42.8404C9.40228 42.7468 9.31101 42.6486 9.21741 42.5527C9.12614 42.4545 9.03642 42.3547 8.94824 42.2534C8.77653 42.0468 8.60713 41.8395 8.45476 41.6183C8.30315 41.3971 8.15851 41.172 8.03321 40.9353C7.90945 40.6987 7.79652 40.4542 7.72381 40.199L7.72459 40.1959Z" fill="#0E0E0E"/>
<path d="M52.2936 36.2225C52.2936 36.2225 54.0169 37.9458 51.4319 41.5843C51.4319 41.5843 53.8731 39.1432 54.0409 35.6246L52.2936 36.2233V36.2225Z" fill="#0E0E0E"/>
<path d="M19.166 47.1371C19.5713 47.2377 19.9727 47.3336 20.3757 47.4226C20.5776 47.4636 20.7779 47.5115 20.9814 47.5463C21.1832 47.5881 21.3859 47.6213 21.5885 47.6538L21.8933 47.7002C21.9946 47.7173 22.0967 47.7234 22.1988 47.7374C22.4022 47.7683 22.6072 47.7753 22.8114 47.7969C23.2214 47.8232 23.6313 47.8232 24.0498 47.807C23.6476 47.9191 23.2268 47.971 22.8068 47.9779C22.3868 47.981 21.9668 47.947 21.553 47.8828C21.3472 47.8449 21.1399 47.8101 20.9365 47.7606C20.8344 47.7366 20.7331 47.7118 20.6325 47.684C20.5312 47.6569 20.4306 47.6299 20.3309 47.5974C19.9317 47.4744 19.5388 47.3282 19.1668 47.1371H19.166Z" fill="#0E0E0E"/>
<path d="M52.5643 34.1975C52.7763 34.1294 52.9866 34.0598 53.1955 33.984C53.4043 33.9098 53.6124 33.8324 53.8174 33.7473C54.0216 33.6615 54.2258 33.5748 54.4222 33.4751C54.6195 33.3761 54.8121 33.2662 54.9853 33.134C55.0727 33.069 55.154 32.9955 55.2205 32.9127C55.2537 32.8718 55.2808 32.8277 55.3048 32.7774C55.3295 32.7294 55.3551 32.6807 55.3744 32.6297C55.4603 32.4278 55.5167 32.2143 55.5678 31.9993C55.618 31.7842 55.6544 31.5653 55.6838 31.3457C55.7155 31.126 55.7372 30.9048 55.755 30.6836C55.7519 31.1283 55.7116 31.5738 55.6266 32.0116C55.584 32.2305 55.5245 32.4479 55.4394 32.6567C55.42 32.7093 55.3945 32.7604 55.369 32.8106C55.3458 32.8609 55.3148 32.9127 55.2785 32.9584C55.2066 33.0497 55.1222 33.127 55.0317 33.1951C54.85 33.3304 54.6535 33.4395 54.4532 33.5377C54.2521 33.636 54.0471 33.7241 53.8383 33.8023C53.4213 33.9593 52.9959 34.0923 52.5635 34.1975H52.5643Z" fill="#0E0E0E"/>
<path d="M0.639457 31.7703C0.639457 31.7703 0.639457 28.7065 2.26687 29.8552L1.21338 28.7065L0.543545 27.5579L0.639457 31.7703Z" fill="#0E0E0E"/>
<path d="M45.5302 39.6011C46.5907 39.3969 47.6457 39.1749 48.6768 38.8833C49.1904 38.7325 49.7017 38.5731 50.1828 38.3565L50.363 38.2753L50.5355 38.1841L50.6221 38.1384L50.667 38.1152C50.6902 38.1036 50.7126 38.0905 50.7381 38.0835C50.8387 38.0479 50.9532 38.0564 51.0483 38.1013C51.1427 38.1469 51.2208 38.2289 51.2587 38.3302C51.2772 38.3805 51.2865 38.4347 51.2842 38.4865C51.2842 38.4989 51.2834 38.5143 51.2819 38.5236L51.2726 38.6002C51.2571 38.7371 51.2339 38.8732 51.2115 39.0094C51.1071 39.55 50.9462 40.0791 50.7288 40.5842C50.5076 41.0869 50.2354 41.5681 49.9082 42.0082C49.2584 42.8938 48.3976 43.6046 47.45 44.1198C48.3303 43.4948 49.1185 42.7515 49.7109 41.8689C50.0041 41.4273 50.2609 40.9616 50.4589 40.4712C50.66 39.9824 50.8124 39.4735 50.9075 38.9544C50.93 38.8245 50.9539 38.6945 50.9694 38.5638L50.9764 38.5151L50.9795 38.4904C50.9795 38.4834 50.9795 38.4818 50.9795 38.4772C50.981 38.4617 50.9779 38.4486 50.974 38.4354C50.9655 38.4099 50.9446 38.3867 50.9184 38.3736C50.8913 38.3612 50.8627 38.3581 50.8356 38.3681C50.8286 38.3689 50.8217 38.3743 50.8147 38.3766L50.677 38.4478L50.4906 38.5437C50.428 38.5723 50.3638 38.5979 50.3003 38.6249C49.7906 38.8353 49.267 38.9908 48.7387 39.1161C47.6821 39.3675 46.6093 39.5237 45.531 39.6018L45.5302 39.6011Z" fill="#0E0E0E"/>
</svg>
