<svg xmlns="http://www.w3.org/2000/svg" width="15" height="14" viewBox="0 0 15 14" fill="none">
    <path d="M7.60002 5.34634C7.27302 5.34634 6.95336 5.44331 6.68147 5.62498C6.40958 5.80665 6.19767 6.06486 6.07254 6.36697C5.9474 6.66908 5.91466 7.00151 5.97845 7.32222C6.04225 7.64294 6.19971 7.93754 6.43093 8.16876C6.66216 8.39998 6.95675 8.55745 7.27747 8.62124C7.59818 8.68503 7.93061 8.65229 8.23272 8.52716C8.53483 8.40202 8.79304 8.19011 8.97471 7.91822C9.15638 7.64633 9.25335 7.32667 9.25335 6.99967C9.25335 6.78256 9.21059 6.56756 9.1275 6.36697C9.04441 6.16638 8.92263 5.98412 8.7691 5.83059C8.61557 5.67707 8.43331 5.55528 8.23272 5.47219C8.03213 5.38911 7.81714 5.34634 7.60002 5.34634ZM14.22 3.71301C14.2165 3.19818 14.1217 2.68806 13.94 2.20634C13.8062 1.85385 13.5992 1.53374 13.3326 1.26713C13.066 1.00053 12.7458 0.793486 12.3934 0.659674C11.9116 0.477984 11.4015 0.383182 10.8867 0.379674C10.0267 0.333008 9.77335 0.333008 7.60002 0.333008C5.42668 0.333008 5.17335 0.333008 4.31335 0.379674C3.79852 0.383182 3.2884 0.477984 2.80668 0.659674C2.45419 0.793486 2.13408 1.00053 1.86747 1.26713C1.60087 1.53374 1.39383 1.85385 1.26002 2.20634C1.07833 2.68806 0.983524 3.19818 0.980016 3.71301C0.93335 4.57301 0.93335 4.82634 0.93335 6.99967C0.93335 9.17301 0.93335 9.42634 0.980016 10.2863C0.987192 10.803 1.08187 11.3147 1.26002 11.7997C1.39323 12.1506 1.6001 12.4688 1.86668 12.733C2.13215 13.0012 2.45294 13.2083 2.80668 13.3397C3.2884 13.5214 3.79852 13.6162 4.31335 13.6197C5.17335 13.6663 5.42668 13.6663 7.60002 13.6663C9.77335 13.6663 10.0267 13.6663 10.8867 13.6197C11.4015 13.6162 11.9116 13.5214 12.3934 13.3397C12.7471 13.2083 13.0679 13.0012 13.3334 12.733C13.5999 12.4688 13.8068 12.1506 13.94 11.7997C14.1215 11.3156 14.2163 10.8033 14.22 10.2863C14.2667 9.42634 14.2667 9.17301 14.2667 6.99967C14.2667 4.82634 14.2667 4.57301 14.22 3.71301ZM12.5267 9.04634C12.5053 9.45774 12.4175 9.86298 12.2667 10.2463C12.1373 10.5661 11.9449 10.8566 11.7009 11.1006C11.457 11.3445 11.1665 11.5369 10.8467 11.6663C10.4597 11.8087 10.0522 11.8875 9.64002 11.8997C9.11335 11.8997 8.97335 11.8997 7.60002 11.8997C6.22668 11.8997 6.08668 11.8997 5.56002 11.8997C5.14784 11.8875 4.74034 11.8087 4.35335 11.6663C4.02275 11.5435 3.7242 11.3475 3.48002 11.093C3.23846 10.8538 3.05191 10.5649 2.93335 10.2463C2.79039 9.85975 2.71375 9.45179 2.70668 9.03967C2.70668 8.51301 2.70668 8.37301 2.70668 6.99967C2.70668 5.62634 2.70668 5.48634 2.70668 4.95967C2.71375 4.54756 2.79039 4.1396 2.93335 3.75301C3.0562 3.42241 3.2522 3.12386 3.50668 2.87967C3.74691 2.63942 4.03553 2.45307 4.35335 2.33301C4.74034 2.19061 5.14784 2.11181 5.56002 2.09967C6.08668 2.09967 6.22668 2.09967 7.60002 2.09967C8.97335 2.09967 9.11335 2.09967 9.64002 2.09967C10.0522 2.11181 10.4597 2.19061 10.8467 2.33301C11.1773 2.45586 11.4758 2.65186 11.72 2.90634C11.9616 3.14551 12.1481 3.43443 12.2667 3.75301C12.4091 4.14 12.4879 4.54749 12.5 4.95967C12.5 5.48634 12.5 5.62634 12.5 6.99967C12.5 8.37301 12.5467 8.51301 12.5267 9.03967V9.04634ZM11.46 4.08634C11.3806 3.871 11.2555 3.67544 11.0932 3.51315C10.9309 3.35086 10.7354 3.22572 10.52 3.14634C10.2243 3.04385 9.91291 2.9942 9.60002 2.99967C9.08002 2.99967 8.93335 2.99967 7.60002 2.99967C6.26668 2.99967 6.12002 2.99967 5.60002 2.99967C5.28553 3.00275 4.97406 3.06143 4.68002 3.17301C4.46797 3.24878 4.27448 3.36882 4.11241 3.52514C3.95033 3.68147 3.82339 3.8705 3.74002 4.07967C3.6432 4.37659 3.5959 4.6874 3.60002 4.99967C3.60002 5.51967 3.60002 5.66634 3.60002 6.99967C3.60002 8.33301 3.60002 8.47967 3.60002 8.99967C3.60663 9.31381 3.6652 9.62467 3.77335 9.91967C3.85273 10.135 3.97787 10.3306 4.14016 10.4929C4.30244 10.6552 4.49801 10.7803 4.71335 10.8597C4.99779 10.9643 5.29712 11.0228 5.60002 11.033C6.12002 11.033 6.26668 11.033 7.60002 11.033C8.93335 11.033 9.08002 11.033 9.60002 11.033C9.91451 11.0299 10.226 10.9713 10.52 10.8597C10.7354 10.7803 10.9309 10.6552 11.0932 10.4929C11.2555 10.3306 11.3806 10.135 11.46 9.91967C11.5716 9.62563 11.6303 9.31416 11.6333 8.99967C11.6333 8.47967 11.6333 8.33301 11.6333 6.99967C11.6333 5.66634 11.6333 5.51967 11.6333 4.99967C11.6335 4.68487 11.5748 4.37282 11.46 4.07967V4.08634ZM7.60002 9.54634C7.2659 9.54634 6.93506 9.48042 6.62646 9.35236C6.31786 9.2243 6.03755 9.0366 5.8016 8.80004C5.56566 8.56347 5.3787 8.28267 5.25145 7.97374C5.12419 7.6648 5.05914 7.33379 5.06002 6.99967C5.06002 6.49571 5.20955 6.00307 5.48967 5.58413C5.7698 5.16519 6.16793 4.83878 6.63366 4.64623C7.09939 4.45368 7.61178 4.40364 8.10597 4.50244C8.60016 4.60125 9.05392 4.84445 9.40981 5.20128C9.7657 5.5581 10.0077 6.0125 10.1052 6.50694C10.2027 7.00139 10.1514 7.51365 9.95758 7.97887C9.7638 8.44409 9.43635 8.84137 9.01668 9.1204C8.59701 9.39942 8.10398 9.54766 7.60002 9.54634ZM10.2667 4.95301C10.1193 4.93741 9.98293 4.86782 9.88381 4.75766C9.78469 4.64749 9.72984 4.50454 9.72984 4.35634C9.72984 4.20815 9.78469 4.06519 9.88381 3.95503C9.98293 3.84486 10.1193 3.77527 10.2667 3.75967C10.4141 3.77527 10.5504 3.84486 10.6496 3.95503C10.7487 4.06519 10.8035 4.20815 10.8035 4.35634C10.8035 4.50454 10.7487 4.64749 10.6496 4.75766C10.5504 4.86782 10.4141 4.93741 10.2667 4.95301Z" fill="white"></path>
</svg>