<svg xmlns="http://www.w3.org/2000/svg" width="15" height="12" viewBox="0 0 15 12" fill="none">
    <path d="M12.8333 0.666504H2.16659C1.43325 0.666504 0.839919 1.2665 0.839919 1.99984L0.833252 9.99984C0.833252 10.7332 1.43325 11.3332 2.16659 11.3332H12.8333C13.5666 11.3332 14.1666 10.7332 14.1666 9.99984V1.99984C14.1666 1.2665 13.5666 0.666504 12.8333 0.666504ZM12.5666 3.49984L7.85325 6.4465C7.63992 6.57984 7.35992 6.57984 7.14658 6.4465L2.43325 3.49984C2.3664 3.46231 2.30786 3.41161 2.26118 3.35081C2.21449 3.29 2.18063 3.22036 2.16164 3.14608C2.14264 3.07181 2.13892 2.99446 2.15069 2.91871C2.16246 2.84296 2.18948 2.77038 2.23011 2.70537C2.27074 2.64036 2.32413 2.58427 2.38707 2.5405C2.45 2.49673 2.52117 2.46618 2.59625 2.4507C2.67133 2.43523 2.74877 2.43515 2.82389 2.45047C2.899 2.46579 2.97023 2.49619 3.03325 2.53984L7.49992 5.33317L11.9666 2.53984C12.0296 2.49619 12.1008 2.46579 12.1759 2.45047C12.2511 2.43515 12.3285 2.43523 12.4036 2.4507C12.4787 2.46618 12.5498 2.49673 12.6128 2.5405C12.6757 2.58427 12.7291 2.64036 12.7697 2.70537C12.8104 2.77038 12.8374 2.84296 12.8491 2.91871C12.8609 2.99446 12.8572 3.07181 12.8382 3.14608C12.8192 3.22036 12.7853 3.29 12.7387 3.35081C12.692 3.41161 12.6334 3.46231 12.5666 3.49984Z" fill="#0E0E0E"></path>
</svg>