<svg xmlns="http://www.w3.org/2000/svg" width="13" height="12" viewBox="0 0 13 12" fill="none">
    <path d="M8.53725 7.60415L8.23392 7.90615C8.23392 7.90615 7.51192 8.62348 5.54192 6.66482C3.57192 4.70615 4.29392 3.98882 4.29392 3.98882L4.48459 3.79815C4.95592 3.33015 5.00059 2.57815 4.58925 2.02882L3.74925 0.906816C3.23992 0.226816 2.25659 0.136816 1.67325 0.716816L0.626586 1.75682C0.33792 2.04482 0.144586 2.41682 0.16792 2.83015C0.22792 3.88815 0.706586 6.16348 3.37592 8.81815C6.20725 11.6328 8.86392 11.7448 9.94992 11.6435C10.2939 11.6115 10.5926 11.4368 10.8333 11.1968L11.7799 10.2555C12.4199 9.62015 12.2399 8.53015 11.4213 8.08548L10.1479 7.39282C9.61059 7.10148 8.95725 7.18682 8.53725 7.60415Z" fill="#0E0E0E"></path>
</svg>