<svg xmlns="http://www.w3.org/2000/svg" width="14" height="14" viewBox="0 0 14 14" fill="none">
    <path d="M12.6667 0.333008H0.799984C0.605492 0.333008 0.418966 0.41027 0.281439 0.547796C0.143912 0.685323 0.0666504 0.871849 0.0666504 1.06634V12.933C0.0666504 13.0293 0.0856187 13.1247 0.122472 13.2136C0.159326 13.3026 0.213343 13.3835 0.281439 13.4516C0.349535 13.5197 0.430377 13.5737 0.519349 13.6105C0.608321 13.6474 0.703681 13.6663 0.799984 13.6663H7.18665V8.49967H5.45332V6.49967H7.18665V4.99967C7.15075 4.64751 7.19232 4.29176 7.30846 3.95737C7.4246 3.62297 7.61249 3.31804 7.85896 3.06395C8.10543 2.80986 8.4045 2.61277 8.7352 2.4865C9.0659 2.36023 9.42023 2.30784 9.77332 2.33301C10.2922 2.32981 10.8108 2.35653 11.3267 2.41301V4.21301H10.2667C9.42665 4.21301 9.26665 4.61301 9.26665 5.19301V6.47967H11.2667L11.0067 8.47968H9.26665V13.6663H12.6667C12.763 13.6663 12.8583 13.6474 12.9473 13.6105C13.0363 13.5737 13.1171 13.5197 13.1852 13.4516C13.2533 13.3835 13.3073 13.3026 13.3442 13.2136C13.381 13.1247 13.4 13.0293 13.4 12.933V1.06634C13.4 0.970038 13.381 0.874679 13.3442 0.785707C13.3073 0.696735 13.2533 0.615893 13.1852 0.547796C13.1171 0.4797 13.0363 0.425683 12.9473 0.38883C12.8583 0.351976 12.763 0.333008 12.6667 0.333008Z" fill="white"></path>
</svg>