<svg xmlns="http://www.w3.org/2000/svg" width="13" height="12" viewBox="0 0 13 12" fill="none">
    <path d="M8.77065 7.60366L8.46732 7.90566C8.46732 7.90566 7.74532 8.62299 5.77532 6.66433C3.80532 4.70566 4.52732 3.98833 4.52732 3.98833L4.71799 3.79766C5.18932 3.32966 5.23398 2.57766 4.82265 2.02833L3.98265 0.906327C3.47332 0.226327 2.48998 0.136328 1.90665 0.716328L0.859985 1.75633C0.571318 2.04433 0.377985 2.41633 0.401318 2.82966C0.461318 3.88766 0.939985 6.16299 3.60932 8.81766C6.44065 11.6323 9.09732 11.7443 10.1833 11.643C10.5273 11.611 10.826 11.4363 11.0667 11.1963L12.0133 10.255C12.6533 9.61966 12.4733 8.52966 11.6547 8.08499L10.3813 7.39233C9.84399 7.10099 9.19065 7.18633 8.77065 7.60366Z" fill="white"></path>
</svg>