<svg width="25" height="24" viewBox="0 0 25 24" fill="none" xmlns="http://www.w3.org/2000/svg">
<path d="M21.25 16H7.25C6.98478 16 6.73043 15.8946 6.54289 15.7071C6.35536 15.5196 6.25 15.2652 6.25 15C6.25 14.7348 6.35536 14.4804 6.54289 14.2929C6.73043 14.1054 6.98478 14 7.25 14H17.69C18.3587 14 19.0082 13.7767 19.5354 13.3654C20.0626 12.9542 20.4373 12.3786 20.6 11.73L22.25 5.24C22.2875 5.09241 22.2907 4.93821 22.2595 4.78917C22.2283 4.64013 22.1635 4.50018 22.07 4.38C21.9727 4.25673 21.8478 4.1581 21.7054 4.09208C21.5629 4.02606 21.4069 3.99452 21.25 4H7.01C6.80369 3.41645 6.42193 2.911 5.91707 2.55294C5.4122 2.19488 4.80894 2.00174 4.19 2H3.25C2.98478 2 2.73043 2.10536 2.54289 2.29289C2.35536 2.48043 2.25 2.73478 2.25 3C2.25 3.26522 2.35536 3.51957 2.54289 3.70711C2.73043 3.89464 2.98478 4 3.25 4H4.19C4.41843 3.99334 4.64226 4.06513 4.82421 4.20341C5.00615 4.34169 5.13525 4.53812 5.19 4.76L5.25 5.24L6.98 12C6.18435 12.0358 5.43551 12.3862 4.89822 12.9741C4.36093 13.5621 4.0792 14.3394 4.115 15.135C4.1508 15.9306 4.50121 16.6795 5.08914 17.2168C5.67707 17.7541 6.45435 18.0358 7.25 18H7.43C7.26554 18.4531 7.21269 18.9392 7.27593 19.4171C7.33917 19.895 7.51665 20.3506 7.79332 20.7454C8.06999 21.1401 8.43772 21.4624 8.86535 21.6849C9.29299 21.9074 9.76795 22.0235 10.25 22.0235C10.7321 22.0235 11.207 21.9074 11.6346 21.6849C12.0623 21.4624 12.43 21.1401 12.7067 20.7454C12.9834 20.3506 13.1608 19.895 13.2241 19.4171C13.2873 18.9392 13.2345 18.4531 13.07 18H15.43C15.2655 18.4531 15.2127 18.9392 15.2759 19.4171C15.3392 19.895 15.5166 20.3506 15.7933 20.7454C16.07 21.1401 16.4377 21.4624 16.8654 21.6849C17.293 21.9074 17.7679 22.0235 18.25 22.0235C18.7321 22.0235 19.207 21.9074 19.6346 21.6849C20.0623 21.4624 20.43 21.1401 20.7067 20.7454C20.9834 20.3506 21.1608 19.895 21.2241 19.4171C21.2873 18.9392 21.2345 18.4531 21.07 18H21.25C21.5152 18 21.7696 17.8946 21.9571 17.7071C22.1446 17.5196 22.25 17.2652 22.25 17C22.25 16.7348 22.1446 16.4804 21.9571 16.2929C21.7696 16.1054 21.5152 16 21.25 16ZM19.97 6L18.66 11.24C18.6052 11.4619 18.4762 11.6583 18.2942 11.7966C18.1123 11.9349 17.8884 12.0067 17.66 12H9.03L7.53 6H19.97ZM10.25 20C10.0522 20 9.85888 19.9414 9.69443 19.8315C9.52998 19.7216 9.40181 19.5654 9.32612 19.3827C9.25043 19.2 9.23063 18.9989 9.26921 18.8049C9.3078 18.6109 9.40304 18.4327 9.54289 18.2929C9.68275 18.153 9.86093 18.0578 10.0549 18.0192C10.2489 17.9806 10.45 18.0004 10.6327 18.0761C10.8154 18.1518 10.9716 18.28 11.0815 18.4444C11.1914 18.6089 11.25 18.8022 11.25 19C11.25 19.2652 11.1446 19.5196 10.9571 19.7071C10.7696 19.8946 10.5152 20 10.25 20ZM18.25 20C18.0522 20 17.8589 19.9414 17.6944 19.8315C17.53 19.7216 17.4018 19.5654 17.3261 19.3827C17.2504 19.2 17.2306 18.9989 17.2692 18.8049C17.3078 18.6109 17.403 18.4327 17.5429 18.2929C17.6827 18.153 17.8609 18.0578 18.0549 18.0192C18.2489 17.9806 18.45 18.0004 18.6327 18.0761C18.8154 18.1518 18.9716 18.28 19.0815 18.4444C19.1914 18.6089 19.25 18.8022 19.25 19C19.25 19.2652 19.1446 19.5196 18.9571 19.7071C18.7696 19.8946 18.5152 20 18.25 20Z" fill="white"/>
</svg>
