<svg width="56" height="40" viewBox="0 0 56 40" fill="none" xmlns="http://www.w3.org/2000/svg">
<path d="M1.38356 6.34274C1.3611 6.33734 1.30736 6.48851 1.26314 6.6795C1.21892 6.87049 1.20191 7.02909 1.22436 7.03449C1.24681 7.03989 1.30124 6.88871 1.34478 6.69772C1.389 6.50673 1.40669 6.34746 1.38356 6.34274Z" fill="#0E0E0E"/>
<path d="M15.4983 18.3299C15.48 18.3232 15.4194 18.4433 15.3629 18.5979C15.3065 18.7524 15.2759 18.8827 15.2936 18.8894C15.3119 18.8962 15.3725 18.776 15.4289 18.6215C15.4854 18.4669 15.5167 18.336 15.4983 18.3299Z" fill="#0E0E0E"/>
<path d="M20.7457 11.7431C20.7239 11.7539 20.7818 11.9125 20.875 12.0974C20.9682 12.2823 21.0614 12.4227 21.0831 12.4126C21.1049 12.4018 21.0471 12.2432 20.9539 12.0583C20.8607 11.8734 20.7675 11.7323 20.7457 11.7431Z" fill="#0E0E0E"/>
<path d="M10.6428 15.677C10.5911 15.6453 10.2959 16.0266 9.90807 16.4727C9.52233 16.9208 9.18624 17.2677 9.22638 17.3136C9.26312 17.3581 9.67268 17.0733 10.0707 16.6117C10.47 16.1514 10.6925 15.706 10.6428 15.677Z" fill="#0E0E0E"/>
<path d="M19.2014 20.6603C19.232 20.6549 19.2197 20.4437 19.1748 20.1879C19.1299 19.9321 19.0694 19.729 19.0394 19.7344C19.0088 19.7398 19.0211 19.9517 19.066 20.2068C19.1109 20.4625 19.1714 20.6657 19.2014 20.6603Z" fill="#0E0E0E"/>
<path d="M18.9524 19.3254C19.002 19.3099 18.9197 18.9097 18.8476 18.4143C18.7728 17.9189 18.7353 17.512 18.6836 17.512C18.6346 17.5106 18.5904 17.9297 18.6673 18.4406C18.7421 18.9515 18.9068 19.3409 18.953 19.3254" fill="#0E0E0E"/>
<path d="M28.296 25.9689C28.313 25.9858 28.445 25.8825 28.5919 25.7381C28.7382 25.5936 28.843 25.4627 28.826 25.4458C28.809 25.429 28.6763 25.5322 28.53 25.6767C28.3838 25.8211 28.279 25.952 28.296 25.9689Z" fill="#0E0E0E"/>
<path d="M27.9946 26.1936C27.9681 26.1626 27.6993 26.3434 27.3578 26.5466C27.017 26.7511 26.7299 26.9022 26.7455 26.9394C26.7591 26.9751 27.0809 26.8793 27.432 26.6687C27.7837 26.4595 28.0198 26.222 27.9946 26.1936Z" fill="#0E0E0E"/>
<path d="M31.0057 23.8187C31.0302 23.8342 31.1554 23.6804 31.286 23.4759C31.4167 23.2714 31.5031 23.0939 31.4792 23.0784C31.4548 23.0635 31.3296 23.2167 31.199 23.4212C31.0683 23.6257 30.9819 23.8039 31.0057 23.8187Z" fill="#0E0E0E"/>
<path d="M24.5127 12.0502C24.5208 11.9793 24.8515 12.0961 25.2801 12.2425C25.708 12.3897 26.0706 12.5111 26.0632 12.582C26.055 12.6529 25.6794 12.6448 25.2515 12.4976C24.8236 12.3505 24.5045 12.121 24.5127 12.0502Z" fill="#0E0E0E"/>
<path d="M29.7621 18.886C29.7213 18.8725 29.8329 18.693 29.9757 18.4609C30.1186 18.2287 30.2376 18.0323 30.2792 18.0458C30.32 18.0593 30.2669 18.2786 30.124 18.5108C29.9812 18.743 29.8029 18.8995 29.7621 18.886Z" fill="#0E0E0E"/>
<path d="M4.25522 36.4389C4.24298 36.4032 3.98513 36.4585 3.6783 36.5618C3.37216 36.665 3.13404 36.7777 3.14561 36.8135C3.15785 36.8493 3.41638 36.7939 3.72252 36.6907C4.02867 36.5874 4.26747 36.4747 4.25522 36.4389Z" fill="#0E0E0E"/>
<path d="M4.76071 36.3121C4.77635 36.3735 5.28048 36.2986 5.90162 36.2405C6.52276 36.1798 7.03232 36.1595 7.03572 36.0961C7.04049 36.036 6.52072 35.9557 5.88053 36.0178C5.23966 36.0779 4.74438 36.2547 4.76071 36.3127" fill="#0E0E0E"/>
<path d="M22.5887 34.4103C22.5914 34.4386 22.7901 34.4454 23.0336 34.4258C23.2772 34.4062 23.4718 34.3671 23.4697 34.3387C23.467 34.3104 23.2684 34.3036 23.0248 34.3232C22.7812 34.3428 22.586 34.3819 22.5887 34.4103Z" fill="#0E0E0E"/>
<path d="M17.1291 36.9215C17.1284 36.9593 17.4053 37.0652 17.7284 37.0733C18.0509 37.0808 18.2958 36.9876 18.2972 36.9498C18.2979 36.912 18.0543 36.9451 17.7319 36.9377C17.4094 36.9303 17.1304 36.8844 17.1298 36.9215" fill="#0E0E0E"/>
<path d="M11.0844 37.7489C11.0796 37.7772 11.2708 37.8319 11.5123 37.8717C11.7531 37.9115 11.9518 37.921 11.9565 37.8933C11.9613 37.865 11.7695 37.8103 11.5286 37.7705C11.2878 37.7307 11.0891 37.7205 11.0844 37.7489Z" fill="#0E0E0E"/>
<path d="M32.6759 29.4695C32.7161 29.5106 33.0331 29.2717 33.3862 28.9356C33.7386 28.6002 33.9924 28.2952 33.9529 28.254C33.9128 28.2129 33.5951 28.4524 33.2427 28.7878C32.8902 29.1233 32.6358 29.4283 32.6759 29.4695Z" fill="#0E0E0E"/>
<path d="M44.3912 14.7146C44.4075 14.7335 44.5511 14.635 44.711 14.4959C44.8708 14.3562 44.9879 14.2287 44.9715 14.2098C44.9552 14.1909 44.8116 14.2894 44.6518 14.4285C44.4919 14.5682 44.3749 14.6957 44.3912 14.7146Z" fill="#0E0E0E"/>
<path d="M40.5235 16.2425C40.531 16.3195 40.7882 16.0866 41.1644 15.9071C41.5399 15.7276 41.8917 15.6689 41.8849 15.5919C41.8774 15.515 41.5134 15.4509 41.1379 15.6304C40.7623 15.8099 40.5161 16.1656 40.5235 16.2419" fill="#0E0E0E"/>
<path d="M34.0665 33.2346C34.0271 33.1847 33.5971 33.4567 33.0528 33.7597C32.5099 34.0654 32.0528 34.2895 32.0759 34.3488C32.0963 34.4055 32.6038 34.2699 33.1637 33.9547C33.725 33.6416 34.1046 33.2805 34.0665 33.2346Z" fill="#0E0E0E"/>
<path d="M43.3986 15.3436C43.1578 15.2133 42.8884 15.1465 42.6183 15.1236C42.3475 15.1013 42.0754 15.1209 41.8107 15.1728C41.2801 15.2768 40.78 15.5022 40.3385 15.8045C39.8963 16.1076 39.5112 16.4882 39.1846 16.9093C38.8567 17.3311 38.5894 17.7968 38.371 18.2834C38.1533 18.7706 37.9852 19.2795 37.8532 19.7964C37.8206 19.926 37.7907 20.0563 37.7621 20.1865L37.6702 20.5881C37.6049 20.8553 37.5355 21.1212 37.4559 21.3851C37.2988 21.9129 37.1151 22.4339 36.8994 22.9427C36.681 23.4502 36.4341 23.9469 36.1565 24.4261C35.6014 25.3858 34.9251 26.2773 34.1543 27.0791C33.3814 27.8788 32.5161 28.5861 31.5997 29.211C30.6826 29.8359 29.7172 30.3839 28.7321 30.8766C28.2402 31.1243 27.7442 31.3605 27.251 31.5953L26.5163 31.9497L26.1536 32.1305C26.0251 32.1913 25.8972 32.2567 25.7679 32.3127C25.2508 32.5415 24.727 32.7305 24.1991 32.9012C23.6711 33.0706 23.1411 33.2265 22.6084 33.3689C21.5424 33.6503 20.4695 33.8953 19.3932 34.1174C18.3169 34.3407 17.2366 34.5392 16.1535 34.7221C15.0697 34.9002 13.9826 35.0595 12.892 35.1951C12.3464 35.2626 11.7994 35.324 11.2497 35.3747C10.9748 35.3996 10.7 35.4226 10.4217 35.4388C10.2836 35.4482 10.1435 35.4529 10.0033 35.459L9.59172 35.4705C8.49775 35.4968 7.40854 35.5245 6.33158 35.6291C5.79344 35.6817 5.25871 35.7539 4.73553 35.8653C4.21304 35.9753 3.69871 36.1231 3.23201 36.3539C3.00002 36.4693 2.78095 36.607 2.59114 36.773C2.49657 36.856 2.40881 36.9458 2.33125 37.0423L2.27479 37.1165L2.21696 37.1975C2.17886 37.2515 2.14144 37.3062 2.10606 37.3608C2.03463 37.4708 1.96864 37.5829 1.91285 37.6956C1.85774 37.8076 1.81148 37.925 1.79651 38.0276C1.78835 38.0789 1.79107 38.1234 1.79992 38.1525C1.80944 38.1808 1.82101 38.1963 1.85162 38.2152C1.91081 38.2523 2.04415 38.2591 2.14484 38.2422L2.11763 38.251C2.40949 38.1417 2.69387 38.0674 2.98641 37.9999C3.27759 37.9352 3.57149 37.8839 3.86675 37.8461C4.45728 37.7705 5.05325 37.7475 5.64581 37.7806C6.23838 37.8103 6.82618 37.896 7.40174 38.0303C7.97594 38.1693 8.53653 38.3563 9.07603 38.5891C8.52496 38.3853 7.95757 38.2287 7.38269 38.1214C6.80713 38.0175 6.22409 37.9561 5.64105 37.9527C5.05801 37.9466 4.47633 37.9932 3.90349 38.0863C3.61707 38.1336 3.33338 38.1936 3.05308 38.2665C2.91361 38.3036 2.77483 38.3435 2.6374 38.388C2.50202 38.4319 2.36255 38.4811 2.23805 38.5331L2.22444 38.5385L2.21083 38.5412C2.16321 38.5513 2.12851 38.556 2.08701 38.5594C2.04688 38.5628 2.00606 38.5641 1.96456 38.5628C1.88156 38.5587 1.79175 38.5459 1.69991 38.5C1.60806 38.4568 1.52098 38.3644 1.48628 38.2645C1.44955 38.1646 1.44887 38.0701 1.45771 37.9871C1.47812 37.8197 1.53323 37.6807 1.59242 37.5471C1.65297 37.4141 1.72236 37.29 1.79515 37.1692C1.83121 37.1084 1.86931 37.0497 1.90809 36.991L1.9666 36.9039L2.03055 36.8135C2.11967 36.6947 2.21968 36.5854 2.32717 36.4855C2.54283 36.2857 2.78571 36.1238 3.03879 35.9881C3.54632 35.7182 4.08786 35.5474 4.63144 35.4158C5.17639 35.2869 5.72609 35.2019 6.2758 35.1358C7.37589 35.0055 8.47666 34.9542 9.57063 34.9043L9.98019 34.8861C10.1135 34.8786 10.2469 34.8726 10.3816 34.8618C10.6503 34.8429 10.9204 34.8172 11.1898 34.7895C11.73 34.7335 12.2702 34.666 12.8097 34.5925C13.8894 34.4454 14.9663 34.2719 16.0412 34.085C17.1162 33.8987 18.1877 33.6976 19.2537 33.4715C20.3198 33.2474 21.3805 32.9998 22.4295 32.719C23.4738 32.4329 24.5215 32.1305 25.4924 31.7074C25.6135 31.6547 25.7291 31.596 25.8482 31.5407L26.2196 31.3571L26.9632 31.0028C27.4578 30.7693 27.9497 30.5378 28.4355 30.2962C29.4056 29.8137 30.356 29.3001 31.2513 28.7042C32.1466 28.1109 32.9882 27.4401 33.7427 26.6822C34.4999 25.9284 35.1687 25.0868 35.7238 24.1737C36.2783 23.2606 36.7239 22.2807 37.06 21.263C37.145 21.0085 37.2205 20.7514 37.2927 20.4922L37.394 20.1022C37.428 19.9685 37.4627 19.8349 37.5008 19.702C37.6519 19.1708 37.8464 18.6498 38.092 18.1531C38.3383 17.6571 38.6349 17.1833 38.9928 16.7575C39.3486 16.3309 39.7677 15.9537 40.2419 15.6608C40.7147 15.3692 41.242 15.1573 41.7923 15.0804C42.0672 15.0426 42.3468 15.0379 42.6203 15.0757C42.8931 15.1148 43.1618 15.1971 43.3952 15.3409L43.3986 15.3436Z" fill="#0E0E0E"/>
<path d="M42.8149 15.6824C42.9305 15.5758 43.0734 15.5008 43.2231 15.4495C43.3734 15.3989 43.5333 15.3767 43.6932 15.3726C44.0136 15.3746 44.3293 15.463 44.6191 15.5953C44.7667 15.6588 44.9015 15.7431 45.0396 15.8234C45.1715 15.9118 45.3049 15.9989 45.4294 16.1001C45.5552 16.1993 45.675 16.31 45.7784 16.4389C45.8301 16.503 45.877 16.5732 45.9165 16.6441C45.9573 16.7163 45.9907 16.7831 46.0288 16.8378C46.0498 16.8614 46.0682 16.8884 46.0947 16.9066C46.1077 16.9161 46.1179 16.9282 46.1322 16.9363L46.1764 16.962C46.2036 16.9808 46.239 16.993 46.2723 17.0072L46.322 17.0281L46.3757 17.045L46.4832 17.0794L46.5948 17.1077C46.6683 17.128 46.7445 17.1442 46.82 17.1597L46.9336 17.184C46.9703 17.1914 47.0173 17.2063 47.0588 17.2177C47.0799 17.2245 47.1016 17.2292 47.1227 17.2373L47.184 17.2656C47.2248 17.2852 47.2663 17.3028 47.3017 17.3304C47.3377 17.3574 47.3778 17.3797 47.4091 17.4114L47.5044 17.5052L47.5847 17.6098C47.6119 17.6449 47.6296 17.6834 47.6527 17.7205C47.735 17.8717 47.7929 18.0316 47.8289 18.1923C47.8514 18.2726 47.8609 18.3536 47.8758 18.4339C47.8861 18.5142 47.8969 18.5952 47.9024 18.6761C47.9269 18.9987 47.9173 19.32 47.8908 19.6372C47.8643 19.955 47.8153 20.2689 47.7575 20.5807C47.6983 20.8924 47.6282 21.2015 47.5445 21.5079C47.503 21.6611 47.4581 21.8143 47.4071 21.9669C47.3819 22.0431 47.354 22.1201 47.3234 22.1983L47.2275 22.419C47.101 22.7079 46.9676 22.9947 46.8281 23.2775C46.5506 23.8444 46.2485 24.3984 45.9294 24.9424C45.6104 25.4863 45.2743 26.0208 44.9212 26.5439C44.5688 27.0676 44.2 27.5805 43.817 28.0826C43.4333 28.5847 43.0312 29.0726 42.6162 29.5498C42.2012 30.0269 41.7719 30.4919 41.329 30.9441C40.8848 31.3949 40.4269 31.8329 39.9568 32.2574C38.071 33.9507 35.9633 35.4023 33.7053 36.5705C32.5725 37.1469 31.4058 37.6578 30.2091 38.0863C29.0131 38.5155 27.7932 38.882 26.5523 39.1587C25.3128 39.4374 24.0575 39.6446 22.7962 39.7843C22.1656 39.8552 21.5328 39.9071 20.9008 39.9436C20.2647 39.9827 19.6327 39.9935 19 39.9989C18.3673 40.003 17.7353 39.9956 17.1025 39.9767C16.4698 39.9571 15.8399 39.9301 15.2058 39.8788C13.9411 39.7688 12.6845 39.5738 11.4524 39.2822C10.8367 39.1364 10.2258 38.9697 9.62301 38.7801C9.02024 38.5905 8.42291 38.3853 7.83579 38.1538C7.54325 38.0364 7.25003 37.9196 6.96157 37.7934L6.52888 37.6078C6.38533 37.5471 6.23906 37.4911 6.09279 37.4371C5.79889 37.3305 5.49954 37.2394 5.19271 37.1773C4.88657 37.1152 4.57157 37.0828 4.25726 37.1078C4.56953 37.0659 4.88861 37.0814 5.20156 37.1273C5.51451 37.1732 5.8227 37.2495 6.12613 37.3413C6.27716 37.3885 6.42683 37.4391 6.57582 37.4938L7.01736 37.6605C7.3099 37.7732 7.60652 37.8758 7.90178 37.9797C9.08896 38.3819 10.2972 38.72 11.5245 38.9603C12.7498 39.2107 13.9921 39.3679 15.2371 39.4395C16.4834 39.4982 17.7407 39.5083 18.9911 39.4745C19.6164 39.4557 20.2429 39.432 20.8627 39.3807C21.4866 39.3342 22.1077 39.2768 22.7268 39.1992C23.965 39.046 25.1944 38.8267 26.406 38.5385C28.83 37.9669 31.1853 37.1132 33.393 35.9733C33.9441 35.6878 34.4911 35.3929 35.0231 35.073L35.2238 34.9549L35.4218 34.8321L35.817 34.5857C36.0769 34.4157 36.3382 34.249 36.5933 34.0715C36.8511 33.8987 37.1015 33.7151 37.3546 33.5356C37.6029 33.3494 37.8532 33.1665 38.0961 32.9734C38.5853 32.5921 39.0629 32.1953 39.5289 31.7857C41.3978 30.1504 43.051 28.2763 44.4858 26.251C45.2015 25.2373 45.8526 24.1771 46.4336 23.0818C46.5785 22.8078 46.7172 22.531 46.8492 22.2516L46.9465 22.0451C46.9744 21.979 47.0023 21.9095 47.0275 21.8379C47.0792 21.6962 47.1268 21.5505 47.1717 21.4033C47.3486 20.8155 47.4853 20.2115 47.5615 19.6048C47.5983 19.3018 47.6187 18.9967 47.6071 18.6957C47.6044 18.6208 47.5969 18.5466 47.5908 18.4717C47.5799 18.3988 47.5738 18.3239 47.5568 18.2523C47.5309 18.1072 47.4847 17.9689 47.4227 17.8433C47.4051 17.8137 47.3921 17.7792 47.3717 17.7522L47.3125 17.6679L47.2431 17.5943C47.2207 17.5687 47.1908 17.5531 47.1649 17.5315C47.1397 17.5086 47.1084 17.4958 47.0792 17.4803L47.0343 17.4566C47.0186 17.4499 47.0023 17.4458 46.986 17.4404C46.952 17.4303 46.9247 17.4182 46.8846 17.4087L46.7683 17.3797C46.6907 17.3608 46.6138 17.3412 46.5363 17.3169L46.4206 17.2825L46.305 17.24L46.2471 17.2184L46.1893 17.1914C46.1512 17.1725 46.1124 17.157 46.075 17.1307L46.0192 17.0942C46.0009 17.0821 45.9839 17.0639 45.9668 17.049C45.9301 17.0193 45.9036 16.9808 45.8757 16.9437C45.8274 16.8681 45.7954 16.7926 45.7621 16.7271C45.7281 16.6603 45.6913 16.5982 45.6471 16.5381C45.56 16.4187 45.4532 16.31 45.3369 16.2101C45.2226 16.1082 45.096 16.0178 44.9715 15.9253C44.8416 15.8417 44.7137 15.7539 44.5749 15.6858C44.3021 15.5427 44.0034 15.4415 43.6932 15.4226C43.5388 15.4185 43.3823 15.4313 43.2319 15.4732C43.0829 15.5157 42.9373 15.5818 42.8162 15.6817L42.8149 15.6824Z" fill="#0E0E0E"/>
<path d="M9.62369 37.7327C10.0128 37.8467 10.4047 37.9486 10.7986 38.0411C10.9952 38.0883 11.1932 38.1315 11.3905 38.1761L11.9858 38.2976C12.7804 38.4535 13.5812 38.577 14.386 38.666L14.6874 38.7005C14.7881 38.7126 14.8888 38.7234 14.9894 38.7302L15.5949 38.7801C15.797 38.7949 15.9991 38.801 16.2011 38.8118L16.5045 38.8267C16.6059 38.8307 16.7066 38.83 16.808 38.8321L17.4155 38.8408L18.023 38.824L18.3271 38.8165L18.6299 38.7956L19.2367 38.7545L18.6312 38.8132L18.3285 38.8422L18.0244 38.857L17.4162 38.8834H16.8073C16.7059 38.8834 16.6045 38.8854 16.5032 38.8834L16.1991 38.8705C15.9963 38.8604 15.7936 38.8564 15.5909 38.8422L14.984 38.7956C14.8826 38.7889 14.7819 38.7794 14.6813 38.7673L14.3785 38.7342C13.5723 38.6397 12.7695 38.5162 11.9756 38.3495C11.1816 38.1828 10.3938 37.9858 9.62369 37.734V37.7327Z" fill="#0E0E0E"/>
<path d="M24.5385 38.0006C25.0672 37.8386 25.6012 37.6875 26.1257 37.5134C26.6516 37.3413 27.1734 37.1563 27.6905 36.96C28.726 36.5719 29.7444 36.1393 30.7404 35.6622C31.7351 35.1823 32.7147 34.6714 33.6645 34.1093C34.6142 33.5484 35.5374 32.9424 36.4252 32.2898C37.3165 31.6419 38.1737 30.9481 38.988 30.2071C39.8037 29.4675 40.5698 28.6751 41.295 27.8484C42.0189 27.0197 42.689 26.145 43.3006 25.2306C43.9184 24.3195 44.4694 23.3645 44.9668 22.3819C44.5109 23.3848 43.9755 24.3519 43.3843 25.2846C42.787 26.2139 42.1271 27.1034 41.4141 27.9496C40.7031 28.798 39.9269 29.5916 39.1132 30.3428C38.2982 31.0932 37.4396 31.7971 36.5457 32.4531C35.6483 33.105 34.7169 33.7091 33.7584 34.2679C32.7998 34.8253 31.8167 35.3429 30.8071 35.8025C29.7988 36.2648 28.7702 36.6826 27.7245 37.0524C26.6782 37.4189 25.6121 37.7327 24.5385 37.9999V38.0006Z" fill="#0E0E0E"/>
<path d="M15.9011 36.5807C16.2481 36.605 16.5964 36.6131 16.944 36.6158C17.2917 36.6185 17.6393 36.6144 17.987 36.6036C18.6823 36.5813 19.3762 36.5348 20.0674 36.4626C21.4498 36.3242 22.8227 36.0921 24.1698 35.7593C25.5162 35.4253 26.8401 34.9994 28.1157 34.4595C29.3913 33.9203 30.6186 33.2697 31.7691 32.5037C32.9222 31.7425 33.9999 30.8678 34.9741 29.8899C35.9463 28.91 36.8123 27.8288 37.5716 26.6775C38.3274 25.5235 38.9778 24.3013 39.5752 23.0561C40.1793 21.8137 40.7283 20.5435 41.3052 19.2869C40.7719 20.5624 40.2412 21.8393 39.667 23.0986C39.086 24.3546 38.4506 25.5896 37.7049 26.7625C37.3348 27.3504 36.9253 27.9139 36.4912 28.4572C36.0572 29.0004 35.5952 29.5221 35.1068 30.0188C34.1278 31.0095 33.0447 31.899 31.882 32.6711C30.7173 33.4391 29.4757 34.0904 28.1878 34.6282C26.8993 35.1641 25.5665 35.5967 24.2065 35.9092C22.8472 36.225 21.4655 36.4423 20.0763 36.5597C19.3816 36.6171 18.685 36.6488 17.9883 36.6563C17.2917 36.6623 16.5943 36.6468 15.9011 36.5807Z" fill="#0E0E0E"/>
<path d="M23.8705 34.2874C24.5222 34.2004 25.1624 34.0418 25.7924 33.8596C26.4224 33.6746 27.0428 33.458 27.6497 33.209C28.2565 32.9599 28.8518 32.6839 29.4315 32.3782C29.5757 32.2999 29.722 32.2264 29.8635 32.144L30.29 31.8997C30.5697 31.729 30.8506 31.5609 31.1221 31.3774C31.399 31.2019 31.6629 31.0082 31.9317 30.8206C32.1922 30.6228 32.4582 30.4312 32.71 30.222C32.8365 30.118 32.9671 30.0195 33.0896 29.9108L33.4604 29.5896C33.5855 29.4843 33.7012 29.3682 33.8223 29.2582L34.0924 29.0085L34.1795 28.9221C34.4108 28.6907 34.6469 28.4639 34.8659 28.221C34.9768 28.1008 35.0904 27.9827 35.1993 27.8612L35.5204 27.4901L35.6816 27.3051C35.7347 27.2431 35.785 27.1783 35.8368 27.1148L36.1449 26.7328L36.2218 26.637L36.7348 25.9486L36.4484 26.3468L36.3048 26.5459L36.2334 26.6458L36.1579 26.7423L35.8558 27.1297C35.8048 27.1938 35.7558 27.2592 35.7041 27.3227L35.5456 27.5103L35.2279 27.8849C35.1197 28.0077 35.0074 28.1271 34.8972 28.2486C34.6795 28.4943 34.4455 28.7231 34.2155 28.9572C33.7475 29.4162 33.261 29.8582 32.7481 30.2679C32.4963 30.4784 32.2303 30.6714 31.9691 30.8712C31.7004 31.0602 31.4357 31.2552 31.1588 31.432C30.886 31.6156 30.6037 31.783 30.3227 31.9537L29.8941 32.1973C29.7512 32.279 29.6043 32.3526 29.4594 32.4308C28.8763 32.7345 28.2797 33.0133 27.668 33.2555C26.4462 33.7381 25.1753 34.1214 23.8684 34.2861L23.8705 34.2874Z" fill="#0E0E0E"/>
<path d="M41.6719 14.9042C41.5814 14.8523 41.4964 14.7875 41.4311 14.7031C41.3991 14.6606 41.3719 14.6127 41.3603 14.5587C41.3481 14.5054 41.3529 14.4467 41.3746 14.3954C41.4182 14.2908 41.5052 14.2179 41.593 14.1578C41.6842 14.0957 41.7896 14.0613 41.893 14.0343C42.1019 13.9837 42.3114 13.9641 42.5183 13.9338C42.7251 13.9048 42.9299 13.8717 43.1312 13.8258C43.5333 13.7327 43.9218 13.5909 44.2817 13.3972C44.462 13.3014 44.6354 13.1921 44.8021 13.0733C44.9688 12.9552 45.1294 12.8276 45.2811 12.6913C45.4348 12.557 45.5804 12.4126 45.724 12.2641C45.8709 12.1197 46.0043 11.9631 46.1424 11.8106C46.4077 11.4968 46.6628 11.1742 46.89 10.8327C47.118 10.4919 47.3309 10.141 47.5262 9.7799C47.7214 9.41884 47.8976 9.04698 48.0691 8.67039C48.1548 8.48143 48.2391 8.29179 48.3289 8.10012C48.416 7.91048 48.5154 7.71139 48.6242 7.52783C48.731 7.34291 48.8453 7.16407 48.9623 6.98725C49.0793 6.81043 49.1998 6.63699 49.3243 6.46557C49.8229 5.78192 50.3727 5.13066 50.9999 4.54756C51.3135 4.25601 51.6496 3.98471 52.0122 3.74378C52.3749 3.5042 52.7647 3.29499 53.1865 3.14651C53.6069 3.00007 54.0628 2.91233 54.5227 2.93865L54.6948 2.95417C54.7519 2.9589 54.8091 2.9643 54.8662 2.97712L55.037 3.01086L55.0798 3.01964L55.1016 3.02436L55.1302 3.03246C55.1615 3.04191 55.1901 3.05203 55.2193 3.06215C55.3336 3.10467 55.4445 3.15596 55.5534 3.2248C55.6615 3.29364 55.7704 3.38002 55.8602 3.50487C55.9513 3.62703 56.0085 3.80047 55.999 3.96649C55.9942 4.05018 55.9745 4.13386 55.9411 4.2108C55.9064 4.28638 55.8615 4.35792 55.8044 4.41596C55.6928 4.53474 55.5445 4.61505 55.3846 4.64407C55.3044 4.66027 55.2214 4.65824 55.1404 4.64879C55.12 4.64542 55.1003 4.64069 55.0805 4.63665L55.0315 4.62517L54.9622 4.60763C54.7771 4.56173 54.5859 4.53676 54.3948 4.52732C54.2988 4.52597 54.2029 4.52259 54.1077 4.53136C54.0117 4.53339 53.9172 4.54959 53.8219 4.56173C53.4416 4.61775 53.0763 4.76015 52.7395 4.95384C52.6572 5.00648 52.5728 5.05507 52.4919 5.11041L52.2565 5.28723C52.1803 5.34932 52.1089 5.41748 52.034 5.48227C51.9571 5.54436 51.8911 5.61927 51.8211 5.69013C51.5428 5.97358 51.2965 6.2928 51.0707 6.63159C50.8448 6.9697 50.6366 7.32334 50.4393 7.68372C50.0509 8.40787 49.7018 9.15698 49.3896 9.92095C49.0746 10.6842 48.8059 11.4664 48.565 12.256C48.3269 13.0463 48.131 13.8501 47.9956 14.664C47.9269 15.0703 47.8786 15.4799 47.8473 15.8902C47.8214 16.3012 47.8207 16.7129 47.8534 17.1226C47.8874 17.5316 47.9622 17.9398 48.1133 18.3225C48.1527 18.417 48.1976 18.5094 48.2398 18.6039C48.2908 18.6984 48.3208 18.8118 48.3004 18.9205C48.2915 18.9738 48.2664 19.0325 48.2133 19.0615C48.1616 19.0905 48.1024 19.0871 48.0507 19.0757C47.9459 19.0527 47.8527 19.0001 47.7629 18.9481C47.8561 18.9947 47.952 19.0406 48.0541 19.0561C48.1038 19.0642 48.1575 19.0622 48.197 19.0359C48.2371 19.0109 48.2548 18.963 48.2596 18.9151C48.2711 18.8158 48.2391 18.7187 48.1861 18.6343C48.1371 18.5418 48.0847 18.4494 48.0371 18.3549C47.8595 17.9709 47.7602 17.5558 47.703 17.1401C47.6445 16.723 47.6296 16.3019 47.6364 15.8815C47.6493 15.4617 47.6792 15.0426 47.7309 14.6262C47.9486 12.9613 48.3997 11.3362 48.9936 9.76775C49.1399 9.37429 49.3025 8.98691 49.4692 8.60088C49.6406 8.21688 49.8229 7.83759 50.0175 7.46236C50.2148 7.08915 50.4237 6.72067 50.655 6.36231C50.8856 6.00462 51.1455 5.65504 51.4469 5.33852C51.7442 5.0193 52.0844 4.73045 52.4721 4.50572C52.8579 4.28098 53.2858 4.11159 53.7355 4.04208C53.8478 4.02656 53.96 4.00833 54.0743 4.00428C54.1879 3.99416 54.3016 3.99686 54.4152 3.99821C54.6424 4.00833 54.8683 4.03668 55.0907 4.09067L55.1737 4.11159L55.1928 4.11631L55.2016 4.11766L55.2186 4.12171C55.2411 4.12239 55.2642 4.12509 55.2867 4.11969C55.3322 4.11159 55.3778 4.08662 55.4078 4.05288C55.469 3.98404 55.4751 3.90373 55.4152 3.81802C55.352 3.72488 55.1948 3.6277 55.0315 3.56831C55.0111 3.56089 54.9907 3.55347 54.9717 3.54807C54.9676 3.54672 54.9608 3.54469 54.9628 3.54537L54.9465 3.54199L54.9118 3.53524L54.7744 3.50757C54.7288 3.4961 54.6819 3.49205 54.6349 3.488L54.4941 3.47383C54.1158 3.44953 53.7314 3.51972 53.3627 3.6466C52.9933 3.77415 52.6388 3.96042 52.3034 4.17975C51.968 4.39976 51.651 4.65419 51.3482 4.92482C50.7434 5.47012 50.2012 6.09101 49.708 6.74699C49.4617 7.07498 49.2283 7.41445 49.0154 7.76066C48.9079 7.93343 48.8167 8.10485 48.7249 8.29111C48.6337 8.47468 48.5439 8.66297 48.4528 8.85059C48.0902 9.6051 47.682 10.3529 47.1819 11.0372C46.935 11.3814 46.6601 11.7053 46.3757 12.0185C46.2281 12.171 46.0852 12.3269 45.9294 12.47C45.777 12.6164 45.6226 12.7622 45.4546 12.8951C45.2899 13.0301 45.1164 13.1556 44.9368 13.2717C44.7579 13.3885 44.5715 13.4944 44.3783 13.5862C43.9925 13.7718 43.5816 13.9041 43.1618 13.9756C42.9523 14.0121 42.7414 14.035 42.5319 14.0526C42.3223 14.0708 42.1128 14.0809 41.9114 14.1173C41.8114 14.1362 41.7121 14.1626 41.6263 14.2132C41.5399 14.2645 41.4556 14.3272 41.4127 14.4156C41.3665 14.5034 41.3903 14.612 41.4481 14.695C41.5059 14.7801 41.5855 14.8503 41.6726 14.9076L41.6719 14.9042Z" fill="#0E0E0E"/>
<path d="M47.3588 12.9431C47.2057 13.2778 47.0799 13.6233 46.9703 13.9729C46.8622 14.3225 46.7744 14.6782 46.7091 15.0358C46.6445 15.3942 46.6111 15.7559 46.603 16.115C46.5989 16.4747 46.6376 16.8304 46.7084 17.1752L46.3744 17.2373C46.3254 16.8567 46.3152 16.4767 46.3478 16.1022C46.3852 15.7283 46.4485 15.3598 46.5424 15.0001C46.637 14.6404 46.7533 14.2888 46.8894 13.9446C47.0268 13.6017 47.1792 13.265 47.3581 12.9424L47.3588 12.9431Z" fill="#0E0E0E"/>
<path d="M44.3211 15.4988C44.3517 15.4495 44.3776 15.4145 44.4062 15.374C44.4347 15.3355 44.4633 15.2977 44.4926 15.2599C44.5511 15.1857 44.6103 15.1128 44.6715 15.0419C44.7926 14.8995 44.9185 14.7632 45.047 14.6296C45.1749 14.4953 45.3069 14.3657 45.4396 14.2375C45.5729 14.1099 45.709 13.9851 45.8451 13.8616C45.7287 14.004 45.6144 14.1477 45.5029 14.2935C45.392 14.4399 45.2824 14.5864 45.1783 14.7362C45.0736 14.8854 44.9722 15.0365 44.8776 15.1904C44.83 15.2673 44.7844 15.3449 44.7409 15.4226C44.7191 15.4617 44.698 15.5008 44.6776 15.5393C44.6586 15.5771 44.6368 15.6203 44.6239 15.6513L44.3211 15.4975V15.4988Z" fill="#0E0E0E"/>
<path d="M42.0101 17.9608C42.0801 17.7887 42.1665 17.6227 42.2645 17.4641C42.3625 17.3055 42.4727 17.1523 42.6019 17.0146C42.6673 16.9458 42.7366 16.881 42.8135 16.8236C42.889 16.7649 42.9727 16.7149 43.0618 16.6751C43.1503 16.634 43.2483 16.6124 43.3469 16.6016C43.4462 16.5948 43.5469 16.6049 43.6422 16.6319C43.8347 16.6853 43.9987 16.8013 44.1395 16.9309L44.2415 17.0321C44.2742 17.0693 44.3068 17.1064 44.3341 17.1475C44.3905 17.2285 44.4361 17.3169 44.4694 17.4087C44.5354 17.5936 44.5552 17.7887 44.5518 17.979C44.547 18.17 44.5205 18.3583 44.4803 18.5425C44.3089 19.2795 43.9742 19.9564 43.6047 20.6029C43.2312 21.2488 42.8088 21.8649 42.3434 22.446C42.5536 22.1389 42.7591 21.8292 42.9523 21.5127C43.1482 21.1975 43.3347 20.8769 43.5115 20.5516C43.6864 20.2257 43.8537 19.8956 43.998 19.5562C44.1422 19.2174 44.2694 18.8705 44.347 18.5142C44.3871 18.3367 44.4137 18.1558 44.4191 17.9763C44.4239 17.7968 44.4041 17.6173 44.3483 17.4506C44.3198 17.3676 44.281 17.2886 44.232 17.2164C44.2082 17.1793 44.1803 17.1469 44.1517 17.1131L44.0572 17.0159C43.9265 16.8931 43.7796 16.7838 43.6115 16.7325C43.5279 16.7062 43.4408 16.6954 43.353 16.6981C43.2659 16.7055 43.1782 16.721 43.0959 16.7561C42.9292 16.8216 42.7809 16.9329 42.6496 17.0598C42.3849 17.3149 42.1808 17.6314 42.0101 17.9601V17.9608Z" fill="#0E0E0E"/>
<path d="M42.1754 22.72C42.1284 22.8239 42.0645 22.9144 41.9971 23.0028C41.9277 23.0892 41.8549 23.1729 41.7651 23.2437C41.8121 23.1398 41.876 23.0494 41.9434 22.9609C42.0128 22.8746 42.0863 22.7909 42.1754 22.72Z" fill="#0E0E0E"/>
<path d="M46.6036 18.0789C46.7431 18.0991 46.8683 18.1882 46.9601 18.2982C47.0527 18.4102 47.1078 18.5479 47.135 18.6869C47.1527 18.7565 47.154 18.8266 47.1595 18.8968C47.1588 18.967 47.1567 19.0365 47.1493 19.1054C47.1384 19.1735 47.1268 19.2417 47.1105 19.3085C47.0901 19.3746 47.0697 19.4401 47.0438 19.5035C47.0404 19.434 47.0424 19.3665 47.0438 19.2997C47.0445 19.2329 47.0411 19.1661 47.0431 19.1C47.0384 19.0345 47.037 18.969 47.0309 18.9043C47.0207 18.8401 47.018 18.7754 47.0016 18.7139C46.9765 18.5891 46.9384 18.4669 46.873 18.3583C46.807 18.251 46.7213 18.1511 46.6036 18.0789Z" fill="#0E0E0E"/>
<path d="M43.0156 14.0046C43.0156 14.0046 41.9999 14.0438 41.7978 14.4973C41.6869 14.7457 42.7326 15.0959 42.7326 15.0959L41.8822 15.0696C41.8822 15.0696 41.1855 14.7504 41.4073 14.3758C41.6576 13.9527 42.9652 13.9574 43.0163 14.0046H43.0156Z" fill="#0E0E0E"/>
<path d="M47.6418 17.6982C47.6418 17.6982 47.8343 18.1828 48.114 18.4258C48.3936 18.6687 48.2235 19.0332 48.2235 19.0332C48.2235 19.0332 48.1908 19.0811 48.0731 19.0676C47.9554 19.0541 47.8133 18.9731 47.8133 18.9731L47.6418 17.6982Z" fill="#0E0E0E"/>
<path d="M47.5418 12.4848C47.7003 12.0509 47.8684 11.621 48.0398 11.1917C48.2113 10.7625 48.3909 10.3373 48.5711 9.9115C48.7555 9.48767 48.9419 9.0652 49.1392 8.64677C49.3372 8.22902 49.5399 7.81262 49.7726 7.4131L49.6195 7.72421L49.4726 8.03803C49.376 8.24792 49.2794 8.45713 49.1868 8.66904C48.9997 9.09084 48.8133 9.51332 48.6337 9.93849L47.5418 12.4855V12.4848Z" fill="#0E0E0E"/>
<path d="M46.0696 13.6658C46.1492 13.5201 46.239 13.3844 46.3308 13.2488C46.424 13.1145 46.5172 12.9808 46.624 12.854C46.5628 13.0085 46.4791 13.1509 46.3866 13.2866C46.2927 13.4215 46.1914 13.5525 46.0696 13.6658Z" fill="#0E0E0E"/>
<path d="M38.0648 19.0763C37.9777 19.3463 37.9043 19.6338 37.8417 19.9186C37.7777 20.2041 37.7253 20.4929 37.6838 20.7831C37.6607 20.9282 37.6457 21.074 37.6281 21.2198C37.6151 21.3655 37.5981 21.512 37.5913 21.6584C37.5689 21.9513 37.5675 22.2456 37.5709 22.5398V22.5358C37.594 22.7605 37.6049 22.9839 37.6083 23.208C37.6117 23.432 37.6049 23.6561 37.5852 23.8795C37.5655 24.1028 37.5315 24.3249 37.4736 24.5415C37.4131 24.7561 37.3294 24.9707 37.1852 25.1435C37.3226 24.9653 37.3967 24.75 37.4485 24.5354C37.4974 24.3188 37.5219 24.0974 37.5335 23.8761C37.5444 23.6547 37.5423 23.432 37.5301 23.2107C37.5178 22.9893 37.4981 22.7673 37.4668 22.5493V22.5452C37.4437 22.249 37.4253 21.9507 37.428 21.6524C37.4253 21.5032 37.4328 21.3541 37.4362 21.2049C37.4444 21.0558 37.4498 20.9066 37.4634 20.7581C37.4859 20.4605 37.5206 20.1629 37.5661 19.8673C37.6117 19.5704 37.6655 19.2788 37.7403 18.9798L38.0662 19.0763H38.0648Z" fill="#0E0E0E"/>
<path d="M28.4355 12.6987C28.8593 12.8897 29.2321 13.1887 29.5077 13.5606C29.7805 13.9338 29.9608 14.3751 30.0152 14.8334C30.0424 15.0622 30.0444 15.295 30.0131 15.5238C29.9818 15.7526 29.9199 15.9773 29.8301 16.1906C29.7403 16.4038 29.622 16.6056 29.4791 16.7892C29.3355 16.9701 29.1967 17.1523 29.06 17.3372C28.5157 18.0789 27.9864 18.8334 27.4184 19.5602C27.134 19.9233 26.8428 20.2817 26.5346 20.6265C26.2271 20.9721 25.9053 21.3055 25.557 21.6132C25.2073 21.9189 24.8324 22.2024 24.4106 22.4143C24.1997 22.5196 23.9766 22.6053 23.7425 22.6559C23.5092 22.7072 23.2629 22.716 23.0234 22.6761C22.7833 22.6377 22.5561 22.5391 22.354 22.4102C22.1519 22.28 21.9751 22.1167 21.8206 21.9385C21.5111 21.5815 21.2784 21.1685 21.0879 20.7473L20.8015 20.117C20.7784 20.0644 20.7525 20.0124 20.7307 19.9591L20.6675 19.7978L20.5402 19.4759C20.362 19.0494 20.2259 18.608 20.0735 18.1727C19.8007 17.2913 19.5715 16.3978 19.3742 15.4981C19.1796 14.5985 19.0075 13.6955 18.8272 12.7959C18.6489 11.8963 18.4496 11.0021 18.204 10.1227L18.1108 9.79339L18.0638 9.62872C18.0475 9.57406 18.0285 9.52007 18.0115 9.46608L17.7972 8.81617C17.6339 8.391 17.4801 7.9611 17.2856 7.54942L17.1468 7.23763L17.074 7.07566C17.0495 7.01829 17.027 6.95958 17.0093 6.89749C16.9917 6.83472 16.976 6.76926 16.9774 6.68558C16.9794 6.64373 16.9848 6.59312 17.0175 6.53643C17.0325 6.50943 17.059 6.48041 17.0876 6.46152C17.1168 6.4406 17.1481 6.43047 17.1767 6.42372C17.2345 6.41158 17.2774 6.41832 17.3175 6.42372C17.3563 6.43115 17.391 6.44127 17.423 6.45274C17.4869 6.47636 17.5448 6.50336 17.5992 6.53305C17.808 6.65048 18.0026 6.76724 18.2026 6.88467L18.7993 7.23695C19.5919 7.71139 20.3844 8.18448 21.1798 8.65285C21.9737 9.12391 22.7663 9.59768 23.565 10.0606C24.363 10.525 25.1631 10.9859 25.972 11.4313C26.7816 11.8747 27.5966 12.3107 28.4361 12.6974L28.4355 12.6987ZM28.4246 12.723L27.7953 12.4308L27.1735 12.1244C26.7612 11.9152 26.3482 11.708 25.94 11.4921C25.1195 11.0662 24.3045 10.6302 23.4929 10.1882C22.6806 9.74683 21.8716 9.30006 21.0661 8.84721C20.262 8.39167 19.4606 7.9314 18.6605 7.47046L18.0625 7.12087C17.8638 7.00547 17.6618 6.88534 17.4679 6.77736C17.4209 6.75171 17.3733 6.73012 17.3291 6.71392C17.2862 6.69637 17.2386 6.69233 17.2359 6.69435C17.2359 6.69637 17.2549 6.6849 17.2577 6.67748C17.2611 6.67073 17.257 6.67883 17.2563 6.69368C17.2563 6.72539 17.2645 6.77399 17.2787 6.82055C17.2924 6.86847 17.3114 6.91773 17.3318 6.96565L17.4005 7.1175L17.5434 7.43469C17.638 7.6466 17.7373 7.85649 17.8142 8.07515C17.8958 8.29179 17.9802 8.50775 18.0584 8.72573L18.272 9.38577C18.2897 9.44111 18.3088 9.49577 18.3244 9.55111L18.4632 10.0519C18.7034 10.9441 18.8959 11.8464 19.066 12.7494C19.2388 13.6523 19.4014 14.5553 19.5871 15.4529C19.7769 16.3492 19.998 17.238 20.262 18.114C20.4096 18.5466 20.5409 18.9852 20.7151 19.4091L20.9008 19.8889C20.9219 19.9422 20.9471 19.9935 20.9695 20.0461L21.2491 20.6731C21.4335 21.0902 21.656 21.4884 21.9478 21.8305C22.0934 22.0006 22.2581 22.1545 22.4431 22.2753C22.6282 22.3954 22.8336 22.4865 23.0513 22.5223C23.2684 22.5601 23.4929 22.5547 23.7113 22.5081C23.9296 22.4622 24.1426 22.3826 24.3453 22.2834C24.7522 22.0829 25.1216 21.8089 25.4672 21.5106C25.8142 21.2123 26.138 20.8864 26.4482 20.5483C26.7584 20.2101 27.0544 19.8579 27.3429 19.4995C27.9198 18.7828 28.4593 18.037 29.0144 17.3021C29.1532 17.1185 29.2954 16.9363 29.4403 16.7575C29.5832 16.5793 29.7009 16.3822 29.792 16.173C29.975 15.7553 30.0451 15.2883 29.988 14.8347C29.9349 14.3805 29.756 13.9439 29.4859 13.5741C29.2131 13.2063 28.8437 12.91 28.4246 12.721V12.723Z" fill="#0E0E0E"/>
<path d="M28.1075 12.5617C28.4953 12.6751 28.8763 12.804 29.2553 12.937C29.4457 13.0018 29.6335 13.0726 29.8226 13.1394L30.3873 13.348L30.95 13.5619L31.5112 13.7786C31.8854 13.923 32.2575 14.0708 32.6351 14.2132C32.2351 14.1524 31.8439 14.0445 31.4588 13.9277C31.2649 13.8717 31.0751 13.8042 30.884 13.7414C30.6941 13.6753 30.5043 13.6065 30.3159 13.5369C29.9397 13.3932 29.5662 13.2447 29.1981 13.0828C28.8294 12.9215 28.464 12.7521 28.1089 12.5611L28.1075 12.5617Z" fill="#0E0E0E"/>
<path d="M15.9712 8.00564C16.0514 7.90643 16.1685 7.82612 16.2984 7.79845C16.4297 7.76876 16.5685 7.79845 16.6841 7.86054C16.8012 7.92263 16.9012 8.00901 16.9896 8.10417C17.0781 8.2 17.1577 8.30259 17.2284 8.41057C17.372 8.62653 17.4917 8.85531 17.5965 9.09084C17.7019 9.3284 17.7699 9.57743 17.8393 9.82511C17.97 10.3225 18.0727 10.8266 18.1707 11.3301C18.2679 11.8342 18.3564 12.3397 18.4442 12.8452C18.7952 14.8671 19.117 16.8951 19.583 18.8908C19.7021 19.3888 19.8266 19.8855 19.9763 20.3741C20.1259 20.8621 20.2926 21.3466 20.5069 21.8062C20.5341 21.8636 20.56 21.9216 20.5886 21.9783L20.6797 22.1443C20.7362 22.2577 20.8103 22.359 20.8777 22.4642C20.894 22.4912 20.9131 22.5155 20.9335 22.5391L20.9927 22.6107C21.0321 22.6586 21.0689 22.7058 21.1158 22.7565C21.2036 22.8563 21.2866 22.963 21.3539 23.0797C21.4913 23.3112 21.5757 23.5872 21.5546 23.8653C21.5369 24.144 21.4172 24.4038 21.258 24.6198C21.0988 24.8385 20.8988 25.0193 20.6872 25.1779C20.4743 25.3358 20.2463 25.4701 20.0116 25.5876C19.5408 25.8224 19.0415 25.9912 18.5333 26.1153C18.0244 26.2382 17.5039 26.3137 16.9808 26.3414C16.4576 26.3684 15.9297 26.3461 15.4092 26.2611L15.4228 26.2625C15.1963 26.2469 14.986 26.2078 14.7731 26.1565C14.5615 26.1045 14.3533 26.0364 14.152 25.95C13.7492 25.7792 13.3716 25.5268 13.0811 25.188C12.9355 25.02 12.8117 24.831 12.7212 24.6279C12.628 24.4261 12.5607 24.2122 12.5246 23.9949C12.4818 23.7782 12.475 23.5582 12.4743 23.3402C12.4818 23.2316 12.4852 23.1229 12.496 23.0149C12.511 22.9076 12.5212 22.7997 12.5409 22.6937C12.562 22.5884 12.5818 22.4811 12.6049 22.3772L12.6784 22.0694C12.7267 21.8643 12.7763 21.6591 12.8301 21.4553C12.9335 21.0463 13.0423 20.64 13.1512 20.2331C13.3703 19.4199 13.5934 18.6093 13.8179 17.7988C14.0404 16.9883 14.2561 16.1757 14.4601 15.3611C14.5574 14.9528 14.6595 14.5452 14.7486 14.1356C14.8459 13.7273 14.9269 13.3156 15.0126 12.9046C15.1704 12.0806 15.299 11.2511 15.367 10.4163L15.4112 9.78732C15.4283 9.57676 15.4534 9.36619 15.4888 9.15766C15.5242 8.94912 15.5691 8.74126 15.6371 8.54014C15.6718 8.43959 15.712 8.34038 15.7637 8.24725C15.8147 8.15479 15.8841 8.06368 15.9718 8.00564H15.9712ZM15.9902 8.02521C15.9038 8.08865 15.8453 8.17301 15.7984 8.26547C15.7514 8.35793 15.716 8.45646 15.6868 8.55567C15.6276 8.75543 15.5895 8.96127 15.5616 9.16846C15.5337 9.37564 15.5153 9.58418 15.5051 9.79272L15.4813 10.4231C15.4385 11.266 15.3242 12.1035 15.1854 12.9356C14.8996 14.5985 14.486 16.2344 14.0656 17.8643C13.8547 18.6795 13.6349 19.4914 13.4186 20.304C13.3118 20.7102 13.2043 21.1165 13.1036 21.5241C13.0512 21.7273 13.0022 21.9311 12.9525 22.1349L12.8784 22.4406C12.8553 22.5418 12.8369 22.6417 12.8158 22.7423C12.7967 22.8428 12.7872 22.9441 12.7716 23.0453C12.7607 23.1465 12.7573 23.2478 12.7498 23.349C12.7498 23.5508 12.7546 23.7533 12.7927 23.9503C12.824 24.1481 12.8845 24.339 12.9648 24.5206C13.0437 24.7028 13.1526 24.8715 13.2811 25.0227C13.5376 25.3277 13.8785 25.5626 14.2526 25.7252C14.4397 25.8076 14.6343 25.8737 14.8336 25.9243C15.0316 25.975 15.2391 26.0134 15.4357 26.0289H15.4453L15.45 26.0303C15.9494 26.1174 16.461 26.143 16.9706 26.1214C17.4801 26.0991 17.9877 26.0289 18.485 25.9129C18.9809 25.7954 19.4681 25.6341 19.9232 25.4108C20.1504 25.2994 20.3695 25.1719 20.5722 25.0241C20.7736 24.8756 20.9607 24.7075 21.1063 24.5105C21.2519 24.3148 21.3553 24.0893 21.3723 23.8531C21.3913 23.6169 21.3233 23.3794 21.2008 23.1695C21.1403 23.0635 21.0655 22.965 20.9845 22.8712C20.9444 22.8266 20.9015 22.7727 20.8593 22.7207L20.7967 22.6431C20.775 22.6174 20.7552 22.5911 20.7382 22.5628C20.6675 22.4514 20.5906 22.3434 20.5328 22.226L20.4402 22.0532C20.411 21.9952 20.3858 21.9351 20.3579 21.8764C20.1416 21.4033 19.9769 20.9127 19.83 20.4187C19.6824 19.9247 19.5606 19.4246 19.4449 18.9232C18.9911 16.9167 18.6925 14.884 18.3605 12.8594C18.2775 12.3532 18.1938 11.847 18.1019 11.3429C18.0094 10.8388 17.9115 10.3353 17.7863 9.83861C17.7196 9.59228 17.6543 9.34325 17.5536 9.10974C17.4522 8.87556 17.3352 8.64677 17.1957 8.43284C17.1264 8.32553 17.0488 8.22362 16.9638 8.12914C16.878 8.03533 16.7814 7.9503 16.6699 7.89023C16.5596 7.83017 16.4304 7.80115 16.3072 7.82747C16.1841 7.85312 16.0739 7.92533 15.9922 8.02454L15.9902 8.02521Z" fill="#0E0E0E"/>
<path d="M12.8947 11.2923C13.0335 10.9184 13.1913 10.5513 13.3723 10.1956C13.4635 10.0181 13.5601 9.84266 13.671 9.67596C13.7819 9.50994 13.9036 9.3473 14.0622 9.21975C14.1424 9.15901 14.2363 9.10637 14.3425 9.10097C14.3683 9.10232 14.3948 9.10434 14.4207 9.10839C14.4452 9.11716 14.4717 9.12391 14.4948 9.13539C14.5166 9.14956 14.5397 9.16171 14.5608 9.17723C14.5819 9.1941 14.5989 9.21435 14.6146 9.23527C14.6731 9.32165 14.703 9.42086 14.7241 9.51872C14.7452 9.61725 14.7581 9.71713 14.767 9.81634C14.7983 10.2159 14.7785 10.6154 14.7507 11.0129C14.6289 12.6029 14.3527 14.1801 13.9574 15.7262C13.8574 16.113 13.7499 16.497 13.6349 16.8796L13.2879 18.0229C13.06 18.7855 12.8376 19.5501 12.6301 20.3174C12.4226 21.0855 12.2253 21.8562 12.0742 22.633L12.0225 22.9245C12.0055 23.0217 11.9946 23.1189 11.9804 23.2161C11.9674 23.3132 11.962 23.4077 11.9525 23.5056C11.945 23.621 11.9205 23.7236 11.8831 23.8261C11.8096 24.03 11.679 24.2169 11.5055 24.3532C11.3313 24.4875 11.1252 24.5746 10.9163 24.6151C10.7068 24.6576 10.4952 24.6643 10.2877 24.6522C10.0802 24.6373 9.8761 24.6056 9.6754 24.5624C9.274 24.474 8.88894 24.3417 8.51204 24.1906C7.75891 23.8869 7.03913 23.461 6.46629 22.8644C6.3241 22.7153 6.19416 22.554 6.07442 22.3853C5.95808 22.2139 5.85399 22.0337 5.76691 21.8447C5.59683 21.4654 5.4941 21.049 5.50703 20.6259C5.51383 20.4146 5.54921 20.2027 5.61928 19.9996C5.69003 19.7971 5.79481 19.6007 5.94652 19.4381L6.00367 19.378L6.05877 19.3254L6.16831 19.2221L6.82414 18.6073C7.40718 18.062 7.9807 17.5079 8.54469 16.9444C9.10869 16.3809 9.66179 15.8059 10.1918 15.21C10.7211 14.614 11.2313 14.0006 11.6973 13.3541C12.1613 12.7075 12.5831 12.0252 12.8927 11.2923H12.8947ZM12.9199 11.3017C12.7702 11.6729 12.5886 12.0293 12.3906 12.3762C12.1926 12.723 11.981 13.0625 11.7545 13.3918C11.3055 14.0539 10.8163 14.6883 10.304 15.3038C9.79242 15.9193 9.25836 16.5172 8.70933 17.0996C8.15895 17.682 7.59155 18.2476 7.01395 18.8023L6.36016 19.4212L6.25199 19.5238L6.19892 19.5751L6.15334 19.6237C6.03224 19.7539 5.94516 19.9172 5.88529 20.09C5.8261 20.2635 5.79549 20.4484 5.79072 20.6346C5.78052 21.0085 5.86692 21.3858 6.02067 21.7333C6.09959 21.9068 6.19416 22.0735 6.30097 22.2334C6.41118 22.3907 6.53092 22.5418 6.66358 22.6829C7.19424 23.2484 7.87865 23.6662 8.60524 23.9685C8.97058 24.119 9.34476 24.252 9.72642 24.3404C9.9176 24.3836 10.1101 24.4153 10.3027 24.4315C10.4952 24.445 10.6877 24.4396 10.8728 24.4045C11.0571 24.3701 11.2306 24.2972 11.3742 24.1886C11.517 24.0785 11.6252 23.9274 11.6885 23.7573C11.7198 23.6736 11.7422 23.5805 11.7477 23.4968C11.7579 23.3969 11.7654 23.2916 11.7797 23.1918C11.7953 23.0919 11.8075 22.9913 11.8259 22.8928L11.881 22.5965C12.0416 21.8116 12.2457 21.0402 12.46 20.2716C12.6743 19.5035 12.9036 18.7396 13.139 17.9776L13.4961 16.8371C13.6138 16.4571 13.724 16.0758 13.8268 15.6918C14.0349 14.9245 14.2125 14.1497 14.3574 13.3682C14.5023 12.5867 14.6214 11.7991 14.6949 11.0082C14.7282 10.6127 14.7527 10.2145 14.7268 9.81904C14.7194 9.72051 14.7085 9.62197 14.6887 9.52547C14.669 9.42963 14.6411 9.33313 14.5881 9.25349C14.5738 9.23459 14.5588 9.21637 14.5404 9.20152C14.5221 9.18735 14.5003 9.17588 14.4806 9.16238C14.4595 9.15091 14.4363 9.14551 14.4139 9.13674C14.3908 9.13269 14.3669 9.13066 14.3431 9.12931C14.2465 9.13201 14.156 9.18128 14.0785 9.24067C13.9241 9.36417 13.803 9.52547 13.6934 9.69014C13.5832 9.85616 13.4866 10.0303 13.3961 10.2071C13.2158 10.5621 13.0587 10.9285 12.9199 11.3011V11.3017Z" fill="#0E0E0E"/>
<path d="M3.51502 18.0661C3.74293 18.4116 4.04432 18.7173 4.41374 18.9103C4.59879 19.0035 4.80221 19.0642 5.01039 19.0709C5.11448 19.077 5.21789 19.0649 5.31994 19.046C5.4213 19.0244 5.52063 18.992 5.6152 18.9501C5.80501 18.8665 5.97305 18.7396 6.13701 18.6127C6.30097 18.4845 6.45745 18.3461 6.61188 18.2064C6.92007 17.925 7.21329 17.6287 7.50311 17.3284C8.08071 16.7264 8.63994 16.1069 9.19032 15.4799C9.73867 14.8516 10.2843 14.2192 10.8156 13.5774L10.8109 13.5835C11.3218 12.8013 11.811 12.0023 12.2654 11.187C12.4926 10.7794 12.7097 10.3657 12.907 9.94524C13.0056 9.73468 13.0975 9.52209 13.1805 9.3068C13.2621 9.09152 13.3362 8.87286 13.3764 8.65352C13.3859 8.59886 13.3954 8.54419 13.3982 8.49088C13.405 8.43689 13.4009 8.38492 13.4002 8.33228C13.3914 8.23037 13.3614 8.13589 13.3036 8.0981C13.2777 8.07448 13.2383 8.06638 13.1961 8.05963C13.1512 8.0576 13.1029 8.05963 13.0526 8.07043C12.9512 8.09 12.8471 8.12982 12.7457 8.17571C12.5423 8.27019 12.3457 8.39234 12.1559 8.52327C11.9667 8.6542 11.781 8.79592 11.6055 8.94372C11.581 8.96532 11.5538 8.98354 11.53 9.00243L11.4592 9.05507L11.317 9.16036L11.032 9.36889L10.4585 9.78124C10.0754 10.0546 9.68764 10.3218 9.29782 10.587C8.5202 11.1182 7.7249 11.625 6.91735 12.1116C6.10844 12.5962 5.28116 13.0537 4.42258 13.4526C4.31577 13.5032 4.21576 13.5552 4.11235 13.6065C4.06133 13.6328 4.01371 13.6645 3.96404 13.6928C3.91574 13.7232 3.86403 13.7495 3.81777 13.7833C3.72593 13.8508 3.62864 13.9122 3.54496 13.9898C3.50278 14.0276 3.45584 14.062 3.41706 14.1032L3.298 14.2253C3.14697 14.3954 3.01702 14.5837 2.92042 14.7902C2.82585 14.9974 2.76666 15.2201 2.73809 15.4475C2.68026 15.9037 2.75374 16.3728 2.89729 16.8142C2.96804 17.0355 3.0592 17.2508 3.16261 17.46C3.2667 17.6685 3.38168 17.8724 3.51502 18.0647V18.0661ZM3.49189 18.0809C3.22112 17.6969 3.0075 17.2737 2.8483 16.8317C2.69251 16.389 2.6027 15.9152 2.64148 15.4394C2.66189 15.2025 2.71496 14.9663 2.80612 14.743C2.89933 14.5209 3.02927 14.3151 3.18234 14.1281L3.30344 13.9932C3.34358 13.9479 3.39052 13.9102 3.43407 13.8676C3.51979 13.7819 3.61911 13.7131 3.71368 13.6375C3.7613 13.5997 3.81369 13.57 3.86335 13.5363C3.91438 13.5039 3.96336 13.4688 4.01575 13.4391C4.12052 13.3817 4.22733 13.321 4.33074 13.267L4.64165 13.1037C4.74506 13.049 4.84983 12.9977 4.95188 12.9397C5.15598 12.8249 5.36212 12.7143 5.56485 12.5968C5.76759 12.4787 5.97169 12.364 6.17239 12.2439L6.77448 11.8815C7.57591 11.3942 8.361 10.8806 9.14202 10.3616C9.53185 10.1011 9.91964 9.83658 10.3054 9.56933L10.8816 9.16575L11.168 8.96194L11.3823 8.80807C11.4048 8.7912 11.4272 8.77702 11.447 8.75948C11.6327 8.60763 11.8232 8.46591 12.0219 8.33228C12.2205 8.19933 12.4266 8.0738 12.6512 7.97257C12.7641 7.9233 12.8818 7.87876 13.0124 7.85447C13.077 7.84164 13.1471 7.83759 13.2199 7.84367C13.2927 7.85447 13.3737 7.87471 13.4376 7.9287C13.473 7.95165 13.4954 7.98539 13.5213 8.01576C13.5417 8.04816 13.5594 8.08257 13.5737 8.11632C13.5832 8.15006 13.5955 8.18448 13.6023 8.21823L13.6159 8.31743C13.622 8.44566 13.6111 8.57389 13.5859 8.69334C13.5383 8.93427 13.4594 9.15968 13.373 9.38037C13.2859 9.60105 13.1893 9.81701 13.0872 10.0296C12.8825 10.4541 12.6593 10.8685 12.4266 11.2768C11.9606 12.0927 11.4633 12.8884 10.9408 13.6699L10.9388 13.6733L10.936 13.676C10.3952 14.3137 9.84752 14.9441 9.28489 15.5629C8.72294 16.1818 8.1535 16.7939 7.55958 17.3831C7.26295 17.678 6.96021 17.9668 6.64726 18.2449C6.4901 18.3832 6.3309 18.5196 6.16286 18.6458C5.9955 18.7713 5.82406 18.8968 5.62813 18.9798C5.43287 19.0608 5.22129 19.1067 5.00903 19.0979C4.79676 19.0912 4.58926 19.0291 4.40149 18.9339C4.02663 18.7382 3.72252 18.4291 3.49257 18.0802L3.49189 18.0809Z" fill="#0E0E0E"/>
<path d="M1.87815 10.2179C1.88768 10.5121 1.91761 10.805 1.96251 11.0959C2.00946 11.3861 2.07137 11.6743 2.16797 11.9523C2.26458 12.2277 2.3952 12.5003 2.60066 12.7075C2.70339 12.8101 2.82653 12.8924 2.96464 12.9336C2.99797 12.9471 3.03471 12.9498 3.06941 12.9572C3.10411 12.966 3.14084 12.9646 3.1769 12.966C3.24902 12.9714 3.32045 12.9606 3.39052 12.9444C3.4606 12.9269 3.52795 12.9012 3.5919 12.8688C3.65517 12.8364 3.7198 12.7966 3.78375 12.7608L4.16882 12.5388L4.93759 12.092C5.44988 11.7944 5.96149 11.4954 6.47105 11.1931C7.49222 10.5924 8.50863 9.98371 9.50872 9.35135C10.0081 9.03483 10.504 8.71224 10.9844 8.37142C11.2225 8.2 11.4606 8.02454 11.6728 7.8322C11.7722 7.73771 11.8722 7.62568 11.9695 7.51703C12.0668 7.4077 12.1613 7.29634 12.2525 7.18296C12.343 7.06958 12.4294 6.9535 12.5069 6.83405C12.5824 6.7146 12.6546 6.59042 12.692 6.46827C12.711 6.40753 12.7192 6.34746 12.7124 6.30225C12.7063 6.25568 12.6845 6.22936 12.6457 6.20169C12.6063 6.17537 12.5471 6.15715 12.4838 6.14702C12.4205 6.13555 12.3518 6.13285 12.2831 6.13285C12.2137 6.1315 12.143 6.1423 12.0722 6.14702C12.0028 6.15107 11.9293 6.16525 11.8579 6.17469C11.7143 6.19359 11.5688 6.22396 11.4245 6.24961C11.1347 6.30562 10.8449 6.36636 10.5551 6.42845C9.97474 6.55128 9.39374 6.67748 8.8107 6.79288C8.22698 6.90694 7.64054 7.01222 7.05137 7.10265C6.75679 7.14787 6.46017 7.18364 6.16422 7.22008C6.01591 7.23763 5.86692 7.24843 5.71793 7.26327C5.56962 7.2788 5.41994 7.28757 5.27095 7.29634C4.97365 7.31929 4.6709 7.31659 4.37564 7.32334C4.08582 7.32334 3.796 7.35776 3.51979 7.44077C3.24425 7.52445 2.98437 7.65943 2.76122 7.84299C2.73197 7.86459 2.70679 7.89023 2.68026 7.91453C2.65441 7.9395 2.62652 7.96245 2.60202 7.98944C2.55372 8.04276 2.5027 8.09472 2.45915 8.15276C2.36731 8.26547 2.28975 8.38897 2.2224 8.51787C2.08838 8.77635 1.99585 9.0571 1.94074 9.3446C1.88632 9.6321 1.86251 9.92702 1.87747 10.2199L1.87815 10.2179ZM1.85094 10.2192C1.83121 9.92432 1.85026 9.6267 1.89992 9.33515C1.94959 9.0436 2.03259 8.75475 2.16253 8.48548C2.29111 8.21688 2.46664 7.96447 2.69183 7.76133C2.91702 7.55819 3.18643 7.40162 3.4742 7.30039C3.76266 7.19916 4.06677 7.14854 4.3702 7.13505C4.6675 7.1148 4.95936 7.10265 5.25326 7.06958C5.84039 7.01289 6.42547 6.93191 7.00851 6.83337C7.59223 6.74024 8.17459 6.63226 8.75491 6.51483C9.3366 6.40078 9.91759 6.28267 10.4993 6.1639C10.7911 6.10586 11.083 6.04917 11.3769 5.99653C11.5252 5.97223 11.6708 5.94456 11.8218 5.92634C11.9701 5.90474 12.1259 5.88989 12.2831 5.88855C12.362 5.88922 12.4423 5.89394 12.5253 5.90947C12.6076 5.92499 12.6947 5.94861 12.7784 6.0053C12.8621 6.05929 12.9335 6.16457 12.9423 6.2658C12.9553 6.36636 12.9355 6.45477 12.911 6.5344C12.8587 6.69368 12.777 6.82528 12.6933 6.9535C12.6083 7.08038 12.5158 7.19983 12.4205 7.31591C12.3253 7.43199 12.2273 7.5447 12.1266 7.65538C12.0253 7.76606 11.928 7.87404 11.8116 7.98202C11.5824 8.18381 11.3408 8.35793 11.0966 8.52934C10.6068 8.86813 10.1054 9.18668 9.60056 9.49847C8.59095 10.1221 7.5657 10.7187 6.53704 11.3085C6.02135 11.6014 5.5043 11.8909 4.98589 12.1784L4.20624 12.6063L3.81573 12.8189C3.74974 12.854 3.68715 12.8904 3.61775 12.9242C3.54904 12.9565 3.47625 12.9822 3.40141 12.9991C3.32657 13.0153 3.2497 13.0254 3.1735 13.0186C3.1354 13.0159 3.09662 13.0166 3.0592 13.0072C3.02179 12.9991 2.98369 12.995 2.94763 12.9802C2.80136 12.9336 2.67278 12.8445 2.56869 12.7365C2.35915 12.5179 2.23601 12.2398 2.1394 11.9618C2.04211 11.6824 1.9802 11.3922 1.93258 11.1006C1.887 10.8091 1.85774 10.5148 1.84822 10.2199L1.85094 10.2192Z" fill="#0E0E0E"/>
<path d="M2.98029 4.08459C2.90613 4.31608 2.86259 4.56038 2.85102 4.80469C2.83946 5.049 2.86599 5.296 2.94423 5.52749C2.98369 5.64289 3.04084 5.75154 3.10819 5.85278C3.17758 5.95266 3.26194 6.04174 3.35447 6.12003C3.5436 6.2739 3.77287 6.37311 4.00894 6.43317C4.48517 6.5506 4.98589 6.51551 5.47777 6.49729C5.97101 6.47367 6.46289 6.42575 6.95204 6.35691C7.93172 6.22936 8.90187 6.03162 9.8795 5.86087C10.3687 5.77652 10.8599 5.69755 11.3579 5.65099C11.4824 5.63952 11.6075 5.63209 11.732 5.62264L11.9144 5.60915C11.9742 5.60442 12.0334 5.59565 12.0926 5.5889C12.2089 5.56933 12.3253 5.54503 12.4232 5.50251C12.445 5.49037 12.4729 5.48159 12.4906 5.46675L12.5199 5.44717C12.5287 5.44043 12.5348 5.43233 12.5423 5.42558C12.5695 5.39521 12.5845 5.36889 12.5831 5.3338C12.5818 5.2987 12.5682 5.25483 12.5443 5.21097C12.5185 5.1671 12.4872 5.12256 12.4498 5.08139C12.3756 4.99703 12.2865 4.91942 12.1933 4.84721C12.0055 4.70413 11.796 4.57793 11.583 4.48142C11.5286 4.4578 11.4789 4.43891 11.4225 4.42136L11.2436 4.36264L10.8911 4.24454L10.187 4.00496C9.71894 3.84164 9.25155 3.67562 8.78689 3.50352C8.32291 3.32806 7.86028 3.14921 7.40038 2.96092C6.94252 2.76723 6.48602 2.57152 6.04176 2.34138C5.93087 2.28402 5.82202 2.21991 5.71181 2.15917C5.65738 2.12745 5.60431 2.09033 5.55057 2.05591L5.39681 1.95468C5.30361 1.89259 5.2002 1.84602 5.09067 1.83118C4.98181 1.81498 4.8682 1.82713 4.75866 1.86087C4.53756 1.92836 4.33958 2.07616 4.16338 2.24015C3.98853 2.4082 3.8307 2.59581 3.68919 2.79625C3.40617 3.19645 3.17146 3.63243 2.98097 4.08392L2.98029 4.08459ZM2.95443 4.07515C3.04492 3.84501 3.14901 3.62163 3.26194 3.40229C3.37556 3.18296 3.49529 2.967 3.63204 2.75981C3.76743 2.55195 3.91506 2.35083 4.08718 2.16794C4.26134 1.98842 4.45932 1.81835 4.71036 1.72522C4.83418 1.67933 4.97229 1.65638 5.10903 1.66853C5.24714 1.67933 5.37844 1.73062 5.4941 1.79811L5.65534 1.89191C5.70772 1.92161 5.75739 1.95333 5.81181 1.98032L6.14041 2.14027L6.47581 2.29077L6.81598 2.43384C7.04253 2.52968 7.2718 2.62011 7.50107 2.71054C7.95893 2.89411 8.42087 3.0689 8.88418 3.24032C9.34748 3.41309 9.8101 3.58586 10.2754 3.75255L10.9735 4.00361L11.3232 4.12711L11.496 4.18718C11.5579 4.20675 11.6232 4.23307 11.6824 4.26006C11.9178 4.37142 12.1321 4.50707 12.3348 4.66634C12.4355 4.74665 12.5321 4.83303 12.6192 4.93562C12.6634 4.98623 12.7029 5.0436 12.7382 5.10636C12.7716 5.17115 12.7995 5.24674 12.8001 5.33447C12.8029 5.42423 12.7546 5.51534 12.6974 5.57203C12.6825 5.5862 12.6682 5.60172 12.6525 5.61319L12.6049 5.64491C12.5729 5.66786 12.5403 5.67798 12.5083 5.69485C12.3783 5.74885 12.2498 5.77179 12.1219 5.79204C12.0579 5.79879 11.994 5.80688 11.9307 5.81161L11.7416 5.82308C11.6191 5.83051 11.4966 5.83658 11.3742 5.84603C10.8843 5.88517 10.3959 5.95671 9.90739 6.03432C8.93112 6.19089 7.95485 6.37581 6.96769 6.49121C6.47445 6.54925 5.97781 6.58569 5.48049 6.59852C5.23217 6.60797 4.98317 6.59987 4.73485 6.59582C4.48517 6.58502 4.23481 6.55668 3.9933 6.48851C3.75246 6.4217 3.51911 6.31439 3.32725 6.15175C3.23337 6.06874 3.14901 5.9756 3.07961 5.871C3.01294 5.76572 2.95852 5.65301 2.91838 5.53558C2.8796 5.41748 2.85374 5.296 2.83878 5.17317C2.82449 5.05035 2.82313 4.92617 2.82721 4.80334C2.8381 4.55633 2.8796 4.31203 2.95375 4.07515H2.95443Z" fill="#0E0E0E"/>
<path d="M17.1685 6.59177C17.1685 6.59177 17.1597 6.5776 17.1543 6.57017C17.1474 6.56072 17.1406 6.55195 17.1325 6.5425C17.1175 6.52428 17.0998 6.50606 17.0821 6.48919C17.0461 6.45477 17.0059 6.42305 16.9624 6.39538C16.876 6.33936 16.778 6.2982 16.6746 6.26985C16.4678 6.21316 16.2413 6.20844 16.0181 6.23476C15.7916 6.2658 15.5568 6.30697 15.333 6.36029C15.2187 6.38661 15.1126 6.41967 14.9881 6.45072C14.9262 6.46557 14.8439 6.47771 14.7663 6.46354C14.6901 6.45004 14.6302 6.42575 14.5717 6.40213L14.5615 6.39808L14.554 6.39335C14.5057 6.36096 14.4738 6.33261 14.4377 6.30022C14.4037 6.26783 14.3703 6.23543 14.3404 6.20034C14.2792 6.13083 14.2248 6.05659 14.1778 5.9783C14.1309 5.90002 14.0887 5.81836 14.0554 5.734C14.0254 5.65706 13.9914 5.5916 13.9479 5.52276C13.8628 5.38779 13.7553 5.25686 13.6424 5.14078C13.5274 5.02403 13.3995 4.92009 13.2621 4.82899C13.1934 4.78377 13.1219 4.74193 13.0491 4.70278L12.8212 4.58535L12.3641 4.34847L11.4524 3.87066C10.2394 3.22952 9.03113 2.57827 7.83987 1.89799C7.24459 1.55717 6.6527 1.20894 6.07578 0.837754C5.93155 0.744621 5.78868 0.650138 5.64785 0.550931C5.5771 0.50234 5.50839 0.451049 5.43831 0.400433C5.40362 0.374788 5.37028 0.347793 5.33626 0.322147C5.30157 0.295827 5.26891 0.268157 5.23558 0.247911C5.09815 0.161526 4.91174 0.158827 4.77023 0.243186C4.69948 0.283004 4.64369 0.348467 4.5845 0.409881C4.52667 0.47197 4.47089 0.536759 4.41646 0.602222C3.98241 1.12863 3.59734 1.69552 3.25378 2.28469C2.91429 2.87521 2.61155 3.4934 2.43602 4.15343C2.60543 3.49138 2.90273 2.86981 3.23677 2.27525C3.57557 1.68203 3.9552 1.11108 4.38653 0.577926C4.44095 0.511788 4.49606 0.446325 4.55457 0.382886C4.58382 0.351167 4.61307 0.319448 4.64369 0.289078C4.67362 0.258034 4.70968 0.229014 4.74778 0.206068C4.90085 0.111585 5.10699 0.110235 5.26279 0.204718C5.54104 0.412581 5.82134 0.600197 6.1132 0.781739C6.6942 1.14347 7.29017 1.48159 7.89022 1.81295C9.09032 2.47433 10.3074 3.1067 11.5293 3.72826L12.4477 4.19123L12.9076 4.42068L13.139 4.53541C13.2179 4.57591 13.2954 4.61977 13.3703 4.66769C13.5199 4.76352 13.6608 4.8742 13.788 4.99973C13.9152 5.12661 14.0281 5.26023 14.1281 5.41208C14.1771 5.48632 14.2227 5.5727 14.2561 5.65436C14.2867 5.72792 14.3241 5.79811 14.3663 5.8656C14.4084 5.93241 14.4561 5.99585 14.5091 6.05389C14.535 6.08358 14.5636 6.11058 14.5921 6.13623C14.6193 6.16052 14.654 6.18819 14.6765 6.20304L14.6588 6.19426C14.7105 6.21384 14.7615 6.23273 14.803 6.23881C14.8432 6.24488 14.8806 6.23948 14.9337 6.22666C15.0391 6.19831 15.1588 6.16052 15.2752 6.1315C15.5113 6.07211 15.7439 6.0269 15.9868 5.99045C16.2324 5.95806 16.4903 5.95671 16.7427 6.0215C16.8685 6.05457 16.9923 6.10316 17.1059 6.17469C17.1631 6.20979 17.2168 6.25096 17.2672 6.29685C17.2924 6.31979 17.3162 6.34476 17.3393 6.37108C17.3509 6.38458 17.3618 6.39808 17.3726 6.41293C17.3842 6.42912 17.393 6.43992 17.4073 6.46489L17.1685 6.59447V6.59177Z" fill="#0E0E0E"/>
<path d="M5.09135 0.139255C4.87636 0.0461219 4.63689 0.00765384 4.40557 0.0366736C4.17426 0.0656934 3.95384 0.164226 3.78375 0.318098C3.69735 0.395034 3.63 0.485468 3.56537 0.584C3.49938 0.679833 3.43407 0.777015 3.37079 0.874873C3.24289 1.06991 3.11907 1.26765 2.99934 1.46742C2.5197 2.26647 2.09654 3.09792 1.73733 3.95502C1.02298 5.66921 0.546071 7.48261 0.40048 9.3257C0.324284 10.2462 0.329046 11.1715 0.410005 12.09C0.493685 13.0078 0.657645 13.9176 0.89644 14.8071C1.0155 15.2518 1.15633 15.6905 1.3094 16.1251C1.46928 16.557 1.63664 16.9869 1.82781 17.406C2.20131 18.2489 2.64488 19.0608 3.13472 19.843C4.11439 21.4094 5.30157 22.8449 6.59963 24.1663L7.08063 24.6461C7.25479 24.7966 7.43304 24.9471 7.61196 25.0949C7.96982 25.3905 8.33311 25.6807 8.70253 25.9601C9.07195 26.2395 9.44749 26.5101 9.83119 26.7578C10.023 26.8806 10.2176 26.9981 10.4136 27.102L10.5605 27.1762C10.6095 27.1978 10.6585 27.2221 10.7068 27.2417C10.8075 27.2835 10.8877 27.3112 11.0075 27.345C12.7838 27.8734 14.6207 28.2088 16.4637 28.2317C16.9243 28.2351 17.3842 28.225 17.8427 28.1879C18.3006 28.1514 18.7571 28.0947 19.2088 28.0171C20.113 27.8592 20.9995 27.6109 21.8526 27.2768C23.5609 26.608 25.1148 25.5842 26.4816 24.3559C27.166 23.7418 27.8048 23.0743 28.4082 22.3752C29.0124 21.676 29.5784 20.9424 30.1356 20.1953L30.9738 19.0743C31.2445 18.7072 31.4929 18.3259 31.7146 17.9324C31.9351 17.539 32.1269 17.132 32.2725 16.7136C32.4181 16.2952 32.5133 15.8639 32.5344 15.4361C32.5433 15.2228 32.5344 15.0102 32.4984 14.8071C32.4895 14.7564 32.4787 14.7065 32.4671 14.6572L32.4474 14.5844L32.4365 14.5486C32.4365 14.5486 32.4256 14.5135 32.4215 14.4905C32.4161 14.4649 32.4147 14.4359 32.414 14.4089C32.4154 14.2948 32.4678 14.1828 32.546 14.1113C32.6236 14.0377 32.7283 13.9945 32.8399 13.9945C32.895 13.9945 32.9508 14.0053 32.9991 14.0256C33.0202 14.0337 33.0549 14.0519 33.0556 14.0532L33.0794 14.0674C33.1114 14.0856 33.142 14.1052 33.1712 14.1261C33.4107 14.2901 33.593 14.5088 33.7298 14.7403C33.8645 14.9731 33.9556 15.2194 34.0189 15.4664C34.0808 15.7134 34.1203 15.9618 34.1359 16.2081C34.1536 16.4544 34.1563 16.6994 34.1441 16.9417C34.1223 17.4263 34.0563 17.9021 33.9665 18.3704C33.7856 19.3072 33.5128 20.2142 33.1957 21.1017L33.0767 21.4344L32.9508 21.7644C32.8692 21.9851 32.7794 22.2024 32.6916 22.4204C32.6059 22.639 32.5106 22.8536 32.4201 23.071L32.3507 23.2336L32.2759 23.3969C32.2262 23.5062 32.1773 23.6149 32.1215 23.7215C31.9072 24.1508 31.6616 24.5645 31.3847 24.9566C31.1071 25.3487 30.7982 25.7185 30.4635 26.0627C30.1288 26.4069 29.7675 26.7247 29.3859 27.0149C29.0035 27.3045 28.6008 27.5656 28.1837 27.8005C27.3497 28.2702 26.4598 28.6299 25.5495 28.9026C24.6379 29.1752 23.7045 29.3635 22.7649 29.4843C21.8247 29.6024 20.8784 29.6557 19.9334 29.6537C19.4606 29.6524 18.9884 29.6368 18.5169 29.6072C18.0448 29.5768 17.5761 29.5356 17.1046 29.4654H17.1121C16.5705 29.4114 16.0378 29.3318 15.5058 29.2387C14.9738 29.1455 14.4452 29.0369 13.9206 28.912C13.6574 28.8526 13.3975 28.7804 13.1369 28.7136C12.8777 28.6387 12.6171 28.5705 12.3607 28.4875C11.8443 28.3337 11.3374 28.1508 10.834 27.9618C11.3436 28.1339 11.8559 28.2992 12.3763 28.4349C12.6348 28.5084 12.8974 28.5678 13.1573 28.634C13.4199 28.692 13.6812 28.7541 13.9445 28.8061C14.4704 28.9161 14.9997 29.0092 15.5303 29.0868C16.061 29.1644 16.5957 29.2292 17.127 29.2677L17.1338 29.2684C18.0577 29.373 18.9979 29.404 19.9307 29.3865C20.8648 29.3669 21.7975 29.2927 22.7187 29.155C23.6398 29.0173 24.5508 28.8175 25.4338 28.5348C26.3162 28.2527 27.1714 27.8882 27.964 27.4226C28.7566 26.9576 29.4866 26.392 30.1138 25.7306C30.4275 25.4 30.7146 25.0456 30.9724 24.6718C31.2296 24.2972 31.4568 23.9024 31.6541 23.4934C31.7058 23.3922 31.7507 23.2883 31.797 23.1843L31.8657 23.0284L31.9317 22.8678C32.0181 22.6525 32.1092 22.4393 32.1909 22.2226C32.2739 22.0067 32.3596 21.7914 32.4372 21.5734L32.5562 21.2474L32.6685 20.9201C32.8188 20.4835 32.9542 20.0428 33.0773 19.6001C33.2025 19.158 33.3059 18.7112 33.3896 18.2631C33.4719 17.815 33.5298 17.3649 33.5461 16.9181C33.5556 16.6947 33.5508 16.4727 33.5332 16.254C33.5175 16.0353 33.4808 15.8214 33.4284 15.6169C33.3746 15.4124 33.2991 15.2187 33.1984 15.048C33.0964 14.8786 32.9685 14.7328 32.8195 14.6329C32.8011 14.6201 32.7821 14.608 32.763 14.5979L32.7487 14.5898C32.7372 14.583 32.7583 14.5958 32.7658 14.5979C32.7875 14.6066 32.8134 14.612 32.8392 14.612C32.8923 14.612 32.9386 14.5918 32.9739 14.5594C33.0086 14.527 33.0365 14.473 33.0358 14.417C33.0365 14.4042 33.0345 14.39 33.0331 14.3785C33.0331 14.3697 33.0243 14.3461 33.0297 14.363L33.0447 14.4109L33.0712 14.5067C33.0875 14.5709 33.1018 14.635 33.1127 14.6984C33.1597 14.9542 33.1719 15.21 33.1637 15.4624C33.1433 15.9665 33.0365 16.4551 32.88 16.9188C32.7222 17.3824 32.5195 17.8258 32.2834 18.2469C32.048 18.668 31.7861 19.0716 31.5031 19.4577L30.6649 20.5854C30.1063 21.3385 29.5315 22.0883 28.9144 22.8057C28.298 23.5245 27.6415 24.2142 26.934 24.8526C26.2264 25.4911 25.4706 26.0809 24.661 26.5945C23.8521 27.1081 22.9942 27.5494 22.0982 27.8984C21.2022 28.2466 20.2702 28.5044 19.3225 28.6677C18.8483 28.748 18.3714 28.8061 17.8924 28.8425C17.4135 28.8796 16.9338 28.8891 16.4542 28.8844C14.5343 28.8601 12.641 28.4929 10.8252 27.9375C10.719 27.9078 10.5768 27.8599 10.4619 27.8086C10.402 27.7836 10.3455 27.7553 10.2877 27.729L10.1217 27.6433C9.90399 27.5258 9.69785 27.3989 9.49647 27.2673C9.0944 27.0035 8.71205 26.7227 8.33583 26.4339C7.96029 26.145 7.59359 25.8474 7.23234 25.5437C7.05137 25.3919 6.87245 25.2387 6.6942 25.0814L6.67107 25.0605L6.65542 25.0443L6.43567 24.8216L6.18463 24.5665C4.87432 23.2053 3.68579 21.7225 2.70271 20.1069C1.7176 18.4953 0.942702 16.7467 0.488923 14.9117C0.0317423 13.078 -0.113168 11.1681 0.0895702 9.29601C0.186857 8.35995 0.365103 7.43402 0.616825 6.529C0.866505 5.62332 1.19034 4.7399 1.57745 3.88551C1.96524 3.03178 2.41221 2.20506 2.92042 1.41815C3.04764 1.22176 3.17894 1.0274 3.31365 0.836405C3.381 0.740572 3.44971 0.645414 3.51911 0.551606C3.58646 0.457123 3.66198 0.360615 3.75382 0.285029C3.93615 0.130482 4.16678 0.0366736 4.40285 0.0150775C4.63961 -0.00719349 4.87908 0.040048 5.09067 0.13993L5.09135 0.139255Z" fill="#0E0E0E"/>
<path d="M30.5424 13.6281C30.5424 13.6281 33.3263 14.3799 31.7718 17.7995C31.7718 17.7995 33.2148 16.277 32.7916 14.6775C32.7916 14.6775 32.9603 14.228 32.1813 14.0843L30.5424 13.6281Z" fill="#0E0E0E"/>
<path d="M30.2792 13.3129C30.2792 13.3129 32.1827 13.8622 32.9331 13.9871C33.6685 14.1099 34.074 15.5292 34.0856 15.7404C34.0972 15.9517 32.7501 14.3036 32.7501 14.3036L30.2792 13.3129Z" fill="#0E0E0E"/>
<path d="M29.4662 13.1043C29.4662 13.1043 31.1887 14.7376 29.2655 17.0213C29.2655 17.0213 30.6812 15.2714 29.5702 13.676C29.5702 13.676 29.1552 13.0801 28.6341 12.8034L29.4662 13.1043Z" fill="#0E0E0E"/>
<path d="M23.1269 28.5928C23.5038 28.5246 23.8752 28.4356 24.2419 28.3289C24.6093 28.225 24.9719 28.1062 25.3291 27.9746C26.0434 27.7094 26.7367 27.3908 27.3973 27.0156C28.0579 26.6397 28.6838 26.2058 29.2614 25.7124C29.3349 25.6524 29.4049 25.5882 29.475 25.5248C29.5451 25.4607 29.6165 25.3986 29.6852 25.3325C29.8206 25.1995 29.9601 25.0699 30.088 24.9296C30.356 24.6596 30.5941 24.3627 30.8343 24.0664C30.4071 24.6961 29.9043 25.2812 29.3315 25.7914L29.1165 25.9817L28.8933 26.1632C28.8198 26.2247 28.7436 26.2827 28.6661 26.3401C28.5892 26.3974 28.5137 26.4568 28.4348 26.5122C28.1218 26.7349 27.7966 26.94 27.4646 27.1324C26.7952 27.5096 26.0917 27.8261 25.3645 28.0732C24.6372 28.3188 23.8881 28.5064 23.1269 28.5928Z" fill="#0E0E0E"/>
<path d="M30.835 14.4413C31.0289 14.5796 31.1724 14.7814 31.2792 14.9954C31.386 15.212 31.448 15.4489 31.4765 15.6878C31.5337 16.169 31.4534 16.6549 31.3092 17.1084C31.1643 17.5646 30.9513 17.9932 30.7044 18.3967C30.4567 18.801 30.1737 19.1803 29.8594 19.5326C30.105 19.1303 30.3479 18.7308 30.5656 18.3191C30.6737 18.1133 30.7771 17.9054 30.869 17.6928C30.9159 17.5869 30.9588 17.4796 31.0023 17.373C31.0398 17.2643 31.084 17.157 31.1146 17.047C31.1887 16.829 31.2405 16.6056 31.2772 16.3809C31.3153 16.1561 31.3289 15.928 31.318 15.7006C31.3044 15.4745 31.267 15.2471 31.1867 15.0325C31.1098 14.8172 30.9969 14.6107 30.8343 14.4399L30.835 14.4413Z" fill="#0E0E0E"/>
<path d="M33.0569 17.5693C32.8569 18.2273 32.5807 18.8617 32.2664 19.4745C31.9541 20.0893 31.5895 20.6778 31.1915 21.2427C30.9949 21.5275 30.7765 21.7961 30.5635 22.0674C30.4513 22.199 30.3356 22.3279 30.222 22.4582L30.0499 22.6525L29.8669 22.8368C29.7444 22.9589 29.6247 23.0838 29.5002 23.2032L29.1117 23.5467C29.0464 23.6028 28.9824 23.6608 28.9151 23.7155L28.709 23.8727C28.5715 23.9773 28.4327 24.0806 28.294 24.1818C28.4191 24.063 28.5457 23.9456 28.6722 23.8295L28.8627 23.6561C28.9246 23.5967 28.9831 23.5339 29.0437 23.4732L29.4056 23.1087L29.7505 22.7288L29.9227 22.5385L30.0866 22.3414C30.1955 22.2098 30.3064 22.0796 30.4132 21.9466C30.6193 21.6746 30.8343 21.4087 31.0255 21.1253C31.1248 20.9869 31.2262 20.8486 31.3173 20.7048C31.4105 20.5618 31.5071 20.4207 31.5976 20.2763L31.8684 19.841L32.1269 19.3983C32.465 18.8037 32.7787 18.195 33.0569 17.5673V17.5693Z" fill="#0E0E0E"/>
<path d="M32.7766 19.1108C32.7406 19.3166 32.6705 19.5143 32.5868 19.7053C32.5018 19.8956 32.4004 20.0799 32.2712 20.2452L32.7766 19.1108Z" fill="#0E0E0E"/>
<path d="M7.946 21.896C7.98818 21.9176 7.99975 21.9702 8.00111 22.0141C8.00247 22.06 7.99295 22.1066 7.97526 22.1511C7.95689 22.195 7.9324 22.2375 7.89566 22.2719C7.87661 22.2888 7.85484 22.3043 7.82831 22.3137C7.80177 22.3232 7.76776 22.3245 7.73714 22.3104C7.70721 22.2948 7.68816 22.2658 7.68 22.2395C7.67115 22.2125 7.67115 22.1862 7.67319 22.1605C7.67864 22.1099 7.69904 22.0654 7.72354 22.0249C7.74871 21.9851 7.78068 21.9493 7.81878 21.923C7.85484 21.8973 7.9045 21.8751 7.94736 21.896H7.946ZM7.946 21.896C7.90246 21.8764 7.85484 21.9007 7.82354 21.9304C7.79089 21.9608 7.76912 22.0006 7.75279 22.0404C7.73714 22.0809 7.72898 22.1234 7.73034 22.1632C7.73034 22.2031 7.74463 22.2409 7.7664 22.2496C7.78681 22.2618 7.82559 22.2496 7.85824 22.2267C7.89158 22.2044 7.92151 22.172 7.94464 22.1356C7.96709 22.0991 7.98614 22.058 7.99091 22.0134C7.99635 21.9709 7.9875 21.9183 7.94532 21.8953L7.946 21.896Z" fill="#0E0E0E"/>
<path d="M27.9218 13.4877C27.9531 13.4519 28.0075 13.4539 28.0511 13.4634C28.0967 13.4735 28.1395 13.4944 28.1783 13.5214C28.2164 13.5498 28.2525 13.5835 28.2769 13.6274C28.2885 13.6496 28.2987 13.6746 28.3014 13.7023C28.3042 13.73 28.2974 13.7637 28.2756 13.7893C28.2531 13.8143 28.2205 13.8258 28.1926 13.8271C28.164 13.8292 28.1382 13.8224 28.1137 13.8143C28.066 13.7968 28.0266 13.7664 27.9932 13.7333C27.9606 13.6989 27.9334 13.6598 27.9164 13.6166C27.9 13.5754 27.8905 13.5228 27.9211 13.4863L27.9218 13.4877ZM27.9218 13.4877C27.8919 13.5248 27.9041 13.5768 27.9252 13.6139C27.947 13.6523 27.9803 13.6834 28.0157 13.709C28.0511 13.734 28.0912 13.7522 28.1307 13.7603C28.1695 13.7698 28.2096 13.7657 28.2239 13.7468C28.2402 13.73 28.2388 13.6895 28.2239 13.653C28.2103 13.6152 28.1858 13.5788 28.1558 13.5477C28.1252 13.5174 28.0899 13.489 28.0477 13.4735C28.0075 13.458 27.9538 13.4539 27.9211 13.4884L27.9218 13.4877Z" fill="#0E0E0E"/>
<path d="M14.3254 21.954C14.3812 21.9689 14.4084 22.0269 14.4207 22.0789C14.4336 22.1329 14.4336 22.1902 14.4241 22.2456C14.4139 22.3009 14.3955 22.3569 14.3608 22.4062C14.3431 22.4305 14.322 22.4534 14.2935 22.471C14.2656 22.4879 14.2275 22.498 14.1901 22.4899C14.1526 22.4798 14.1241 22.4528 14.1077 22.4251C14.0907 22.3967 14.0832 22.3664 14.0792 22.3367C14.0717 22.2773 14.0826 22.2193 14.0996 22.1653C14.1179 22.1119 14.1452 22.0613 14.1819 22.0202C14.2173 21.9803 14.269 21.9412 14.3254 21.9547V21.954ZM14.3254 21.954C14.269 21.9419 14.2193 21.983 14.1894 22.0256C14.1588 22.0701 14.1418 22.1221 14.1322 22.1734C14.1241 22.2253 14.1241 22.278 14.1363 22.3259C14.1472 22.3731 14.1731 22.417 14.2064 22.4244C14.2384 22.4339 14.2826 22.4075 14.3146 22.3704C14.3479 22.334 14.3737 22.2874 14.3908 22.2375C14.4071 22.1875 14.4166 22.1342 14.4105 22.0802C14.405 22.0289 14.3799 21.9696 14.3248 21.9534L14.3254 21.954Z" fill="#0E0E0E"/>
<path d="M9.47334 11.8545C9.51144 11.897 9.50191 11.9611 9.48287 12.011C9.46382 12.063 9.43184 12.1109 9.39306 12.1521C9.3536 12.1926 9.30734 12.229 9.25087 12.2513C9.22298 12.2614 9.19237 12.2695 9.15903 12.2682C9.12637 12.2675 9.08896 12.2547 9.06242 12.227C9.03657 12.198 9.02773 12.1602 9.02977 12.1278C9.03181 12.0947 9.04201 12.065 9.05494 12.0387C9.08215 11.9847 9.12297 11.9429 9.16719 11.9071C9.2121 11.8727 9.26244 11.845 9.31687 11.8309C9.36857 11.8167 9.4332 11.8126 9.47266 11.8545H9.47334ZM9.47334 11.8545C9.43252 11.814 9.36857 11.8207 9.32027 11.8396C9.26992 11.8599 9.22706 11.8936 9.19032 11.9314C9.15427 11.9699 9.12501 12.0144 9.10869 12.061C9.091 12.1062 9.08828 12.1575 9.11209 12.1811C9.13386 12.2068 9.18556 12.2088 9.23251 12.1953C9.28081 12.1831 9.32775 12.1582 9.36993 12.1264C9.41143 12.0941 9.44953 12.0542 9.47402 12.0063C9.49783 11.9604 9.51008 11.8977 9.47266 11.8538L9.47334 11.8545Z" fill="#0E0E0E"/>
<path d="M23.3425 23.9321C23.3881 23.897 23.4514 23.9112 23.5004 23.9334C23.5514 23.9557 23.597 23.9908 23.6357 24.032C23.6738 24.0738 23.7072 24.1224 23.7255 24.1791C23.7337 24.2074 23.7398 24.2385 23.7364 24.2716C23.733 24.304 23.7181 24.3404 23.6881 24.3647C23.6575 24.3876 23.6181 24.3944 23.5861 24.3903C23.5527 24.3863 23.5242 24.3735 23.4976 24.3593C23.4452 24.3289 23.4058 24.2851 23.3731 24.2392C23.3412 24.1919 23.3173 24.14 23.3071 24.086C23.2963 24.034 23.2969 23.9692 23.3418 23.9328L23.3425 23.9321ZM23.3425 23.9321C23.299 23.9692 23.301 24.0333 23.3173 24.0826C23.3344 24.1339 23.3656 24.1784 23.401 24.2176C23.4371 24.256 23.4799 24.2878 23.5255 24.3073C23.5697 24.3276 23.6208 24.3336 23.6466 24.3121C23.6738 24.2925 23.6793 24.2412 23.6698 24.1939C23.6609 24.1454 23.6391 24.0968 23.6099 24.0529C23.58 24.0097 23.5432 23.9692 23.4963 23.9415C23.4514 23.9146 23.3895 23.8984 23.3425 23.9321Z" fill="#0E0E0E"/>
<path d="M3.95656 11.7883C3.98105 11.8403 3.95316 11.8983 3.92118 11.9409C3.88784 11.9854 3.84362 12.0218 3.79464 12.0509C3.74498 12.0785 3.69055 12.1001 3.63 12.1055C3.60007 12.1075 3.56877 12.1062 3.53679 12.0961C3.5055 12.086 3.47352 12.0637 3.45584 12.0293C3.43951 11.9942 3.44223 11.955 3.45311 11.9247C3.464 11.8936 3.48305 11.8686 3.50346 11.8464C3.54496 11.8025 3.59666 11.7735 3.64905 11.7519C3.70211 11.7316 3.75858 11.7195 3.81437 11.7215C3.86811 11.7229 3.93139 11.737 3.95724 11.7883H3.95656ZM3.95656 11.7883C3.92934 11.7377 3.86607 11.7262 3.81369 11.731C3.75994 11.7357 3.70892 11.7566 3.66266 11.7823C3.61707 11.8093 3.57625 11.8437 3.547 11.8835C3.51707 11.922 3.50006 11.9705 3.5157 11.9996C3.52931 12.0299 3.57829 12.0468 3.62728 12.0475C3.67694 12.0495 3.72933 12.0394 3.77899 12.0205C3.82798 12.0009 3.8756 11.9739 3.91302 11.9348C3.94907 11.8977 3.97901 11.841 3.95588 11.7883H3.95656Z" fill="#0E0E0E"/>
<path d="M6.85476 3.64525C6.83843 3.69991 6.77856 3.72556 6.72618 3.73636C6.67175 3.74783 6.61392 3.74648 6.55813 3.73568C6.50235 3.72353 6.44724 3.70396 6.39826 3.66887C6.37445 3.65065 6.35199 3.62905 6.33499 3.60071C6.31866 3.57236 6.30913 3.53457 6.31866 3.49745C6.32954 3.46101 6.35812 3.43266 6.38669 3.41714C6.41595 3.40094 6.44656 3.39487 6.47649 3.39149C6.53704 3.3861 6.59487 3.39824 6.64862 3.41647C6.70236 3.43604 6.75203 3.46438 6.79285 3.50217C6.83231 3.53862 6.86972 3.59058 6.85544 3.64592L6.85476 3.64525ZM6.85476 3.64525C6.86836 3.58923 6.82822 3.53929 6.78604 3.50825C6.7425 3.47653 6.69012 3.45831 6.63841 3.44751C6.58671 3.43806 6.53296 3.43671 6.48466 3.44751C6.43636 3.45696 6.39145 3.48193 6.38397 3.51432C6.37376 3.54604 6.39894 3.59058 6.43567 3.62298C6.47173 3.6574 6.51799 3.68372 6.56766 3.70194C6.61732 3.71949 6.67107 3.73096 6.72549 3.72623C6.77788 3.72219 6.83775 3.69924 6.85544 3.64457L6.85476 3.64525Z" fill="#0E0E0E"/>
<path d="M7.56434 20.3593C7.59632 20.3836 7.61536 20.4221 7.62081 20.4612C7.62693 20.5003 7.62489 20.5415 7.61672 20.5807C7.60176 20.6596 7.56638 20.7345 7.5208 20.802C7.47386 20.8681 7.41603 20.9302 7.34255 20.9734C7.30582 20.9944 7.265 21.0119 7.21941 21.0186C7.17451 21.0254 7.12213 21.0173 7.08063 20.9869C7.04049 20.9552 7.01872 20.9073 7.01327 20.8628C7.00715 20.8175 7.01327 20.7743 7.02484 20.7332C7.04797 20.6515 7.09287 20.58 7.14458 20.5172C7.19832 20.4558 7.26159 20.4018 7.33439 20.3667C7.37045 20.3485 7.40922 20.3357 7.44936 20.3309C7.48882 20.3262 7.53168 20.3343 7.56366 20.3579L7.56434 20.3593ZM7.56434 20.3593C7.53168 20.3363 7.4895 20.3289 7.45072 20.3343C7.41127 20.3397 7.37385 20.3559 7.33983 20.3755C7.2718 20.416 7.21737 20.4747 7.17247 20.5381C7.12893 20.6022 7.09627 20.6738 7.08267 20.7467C7.0677 20.8175 7.0745 20.8978 7.12281 20.9336C7.16975 20.9701 7.25003 20.9559 7.31534 20.9228C7.38269 20.8904 7.44324 20.8398 7.49427 20.7818C7.54393 20.7224 7.58679 20.6549 7.60788 20.5786C7.61809 20.5408 7.62353 20.501 7.61877 20.4619C7.614 20.4227 7.59564 20.3849 7.56434 20.3593Z" fill="#0E0E0E"/>
<path d="M16.9297 9.41816C16.9685 9.40736 17.0107 9.41411 17.0461 9.43301C17.0821 9.45123 17.1134 9.47687 17.1406 9.50657C17.1964 9.56528 17.2366 9.6375 17.2645 9.71376C17.291 9.79069 17.3073 9.87303 17.2992 9.95739C17.2944 9.99923 17.2849 10.0424 17.2638 10.0822C17.2427 10.1221 17.2053 10.1592 17.1563 10.1747C17.1066 10.1882 17.0549 10.1774 17.0155 10.1551C16.9753 10.1335 16.9433 10.1025 16.9168 10.0701C16.8638 10.0033 16.8318 9.92567 16.8114 9.84671C16.793 9.76775 16.7862 9.68541 16.8005 9.60578C16.8073 9.56596 16.8195 9.52749 16.8393 9.49307C16.859 9.45865 16.8903 9.42963 16.9291 9.41749L16.9297 9.41816ZM16.9297 9.41816C16.8916 9.43098 16.861 9.46 16.8427 9.4951C16.8243 9.53019 16.8154 9.56933 16.8114 9.6078C16.8046 9.68609 16.8202 9.76437 16.8454 9.83793C16.8719 9.91015 16.9107 9.97898 16.9624 10.033C17.0114 10.087 17.0808 10.1281 17.1379 10.1106C17.1958 10.0944 17.2304 10.0215 17.242 9.94996C17.2556 9.87708 17.2502 9.79879 17.2325 9.72321C17.2134 9.64829 17.1835 9.57406 17.1338 9.51264C17.1087 9.48227 17.0801 9.4546 17.0454 9.43503C17.0107 9.41614 16.9692 9.40804 16.9304 9.41816H16.9297Z" fill="#0E0E0E"/>
<path d="M4.89337 14.1936C4.91786 14.2361 4.92126 14.2888 4.90902 14.3353C4.89745 14.3826 4.875 14.4278 4.84711 14.4676C4.792 14.5493 4.7158 14.6167 4.63212 14.6701C4.54708 14.722 4.4532 14.7639 4.34979 14.778C4.29876 14.7841 4.24502 14.7848 4.19195 14.7706C4.13957 14.7571 4.08582 14.7247 4.05452 14.6734C4.02527 14.6208 4.02391 14.5587 4.0382 14.5067C4.05248 14.4541 4.0797 14.4082 4.11099 14.3677C4.17426 14.2861 4.25794 14.226 4.34639 14.1794C4.43551 14.1342 4.53212 14.1025 4.63144 14.0957C4.68043 14.0917 4.73077 14.0957 4.77839 14.1086C4.82602 14.1214 4.86956 14.1504 4.89473 14.1929L4.89337 14.1936ZM4.89337 14.1936C4.86752 14.1518 4.8233 14.1241 4.77635 14.1119C4.72873 14.0998 4.67907 14.0998 4.63144 14.1059C4.53484 14.1194 4.44435 14.1592 4.36271 14.2091C4.28243 14.2611 4.20964 14.3259 4.15793 14.4021C4.10623 14.4764 4.07357 14.5722 4.11303 14.6404C4.15249 14.7085 4.25318 14.7281 4.34298 14.7207C4.43619 14.7153 4.52871 14.6849 4.61444 14.6417C4.6988 14.5965 4.77907 14.5391 4.83894 14.4622C4.8682 14.4237 4.89337 14.3812 4.9063 14.3347C4.91922 14.2881 4.91718 14.2361 4.89337 14.1936Z" fill="#0E0E0E"/>
<path d="M4.5083 7.96312C4.51511 8.00091 4.50354 8.04073 4.48177 8.07245C4.46068 8.10485 4.43211 8.13252 4.40081 8.15546C4.33822 8.2027 4.26407 8.23307 4.18719 8.25197C4.10963 8.26952 4.02867 8.27627 3.94703 8.26007C3.90689 8.2513 3.86607 8.2378 3.82934 8.21283C3.79328 8.18853 3.76062 8.14871 3.75042 8.10012C3.74225 8.05153 3.75858 8.00294 3.78375 7.96717C3.80893 7.93073 3.84226 7.90373 3.87696 7.88146C3.94703 7.83759 4.02595 7.816 4.10487 7.80453C4.18379 7.79508 4.26407 7.79778 4.3389 7.82005C4.37632 7.83017 4.41306 7.84637 4.44435 7.86864C4.47565 7.89091 4.50082 7.92398 4.5083 7.96177V7.96312ZM4.5083 7.96312C4.50014 7.92533 4.47497 7.89293 4.44299 7.87201C4.41102 7.85042 4.37428 7.83827 4.33686 7.83017C4.26134 7.81532 4.18379 7.82207 4.11099 7.83894C4.0382 7.85717 3.96812 7.88686 3.9103 7.93005C3.85315 7.97122 3.8062 8.03263 3.81709 8.08865C3.82661 8.14466 3.89261 8.18583 3.96064 8.20405C4.03003 8.22497 4.10623 8.22767 4.18107 8.2189C4.25522 8.20878 4.33074 8.18786 4.39537 8.14736C4.42735 8.12712 4.45728 8.10215 4.47973 8.0711C4.5015 8.04006 4.51375 8.00091 4.5083 7.96312Z" fill="#0E0E0E"/>
<path d="M13.3424 5.54098C13.5179 5.69958 13.6608 5.89664 13.7574 6.11598C13.7812 6.17132 13.8016 6.22733 13.8172 6.28605C13.8329 6.34409 13.8431 6.4055 13.8587 6.45747C13.8894 6.56477 13.9499 6.66331 14.0268 6.74632C14.1023 6.83135 14.1975 6.89884 14.3003 6.9481C14.4023 6.99939 14.5146 7.03314 14.6289 7.04461L14.6717 7.05001H14.7153C14.7438 7.05001 14.7731 7.05271 14.8024 7.05001C14.8602 7.04326 14.918 7.03921 14.9745 7.02234C15.0901 7.00075 15.1963 6.9481 15.3024 6.89479C15.1105 7.03179 14.869 7.11615 14.6248 7.0959C14.503 7.09118 14.3833 7.05541 14.2724 7.00479C14.1615 6.9535 14.0594 6.88129 13.9771 6.79086C13.8948 6.70042 13.8295 6.59244 13.7975 6.47299C13.7819 6.4109 13.7744 6.35624 13.7608 6.30022C13.7465 6.24421 13.7295 6.18954 13.7097 6.13488C13.6696 6.02622 13.6152 5.92229 13.5533 5.82376C13.4927 5.72388 13.422 5.62939 13.3437 5.54098H13.3424Z" fill="#0E0E0E"/>
<path d="M2.32173 6.30832C2.46052 6.47164 2.52174 6.69637 2.50542 6.91436C2.49521 7.02369 2.46868 7.131 2.42718 7.2329C2.40609 7.28352 2.3816 7.33279 2.35574 7.3807C2.32717 7.42659 2.30132 7.47518 2.2707 7.51905C2.15233 7.69924 2.02238 7.86526 1.91081 8.04208C1.79583 8.21688 1.70127 8.40247 1.62235 8.59346C1.46587 8.97746 1.38696 9.39116 1.36246 9.80891C1.33865 10.2273 1.36246 10.6491 1.39988 11.0716C1.31008 10.6572 1.25021 10.2334 1.25633 9.80487C1.26178 9.69823 1.25905 9.59025 1.27266 9.48362L1.30124 9.24337L1.3162 9.16373C1.33729 9.05778 1.3577 8.95182 1.39104 8.84924C1.40669 8.79795 1.41961 8.74463 1.43866 8.69402L1.49649 8.54217C1.58153 8.34308 1.68154 8.14939 1.80332 7.9719C1.92442 7.79373 2.05844 7.62636 2.18362 7.45899C2.3088 7.29229 2.40677 7.1094 2.44011 6.90559C2.47616 6.7038 2.43466 6.48716 2.32241 6.30697L2.32173 6.30832Z" fill="#0E0E0E"/>
<path d="M3.55108 18.8833C3.17826 18.5331 2.84218 18.1369 2.58365 17.6895C2.32581 17.2427 2.15369 16.7413 2.10402 16.2236C2.05096 15.706 2.12307 15.1836 2.2605 14.6883C2.29452 14.5634 2.33465 14.4433 2.36323 14.3218C2.39248 14.2003 2.41357 14.0775 2.42242 13.9547C2.43126 13.8325 2.42514 13.7084 2.3884 13.5957C2.37003 13.5396 2.34282 13.4877 2.30676 13.4438C2.27138 13.4013 2.21968 13.3642 2.17342 13.352H2.17001C2.06184 13.3142 1.96932 13.2589 1.88632 13.1887C1.804 13.1185 1.73392 13.0335 1.68494 12.9383C1.58289 12.748 1.5652 12.5273 1.59582 12.3228C1.58901 12.4268 1.59582 12.5314 1.61487 12.6319C1.63392 12.7332 1.67065 12.8303 1.72304 12.9167C1.77542 13.0038 1.8455 13.0787 1.92646 13.1394C2.00606 13.1995 2.09926 13.2494 2.19111 13.2758H2.1877C2.34078 13.3122 2.4333 13.4377 2.48024 13.5646C2.52719 13.6935 2.53739 13.8292 2.53263 13.9601C2.52855 14.0917 2.50814 14.2213 2.48093 14.3481C2.45371 14.4757 2.41561 14.5992 2.385 14.7207C2.2571 15.2086 2.19111 15.7128 2.23669 16.2115C2.28091 16.7102 2.43398 17.1975 2.66938 17.6436C2.90341 18.0917 3.2116 18.5014 3.55244 18.8827L3.55108 18.8833Z" fill="#0E0E0E"/>
<path d="M15.1949 9.15563C15.1697 8.97881 15.1745 8.79997 15.1949 8.62248C15.216 8.44499 15.2589 8.26884 15.3269 8.09945C15.3629 8.01576 15.4044 7.93343 15.4555 7.85649C15.5079 7.78023 15.5677 7.70802 15.6405 7.64795C15.712 7.58789 15.7936 7.53795 15.882 7.50893C15.9705 7.48058 16.063 7.46911 16.1521 7.47586C16.065 7.49881 15.9827 7.52715 15.9092 7.56967C15.8344 7.60949 15.7705 7.6655 15.7133 7.72489C15.5997 7.84569 15.5174 7.99484 15.4527 8.15141C15.3874 8.30798 15.3405 8.47333 15.299 8.64137C15.2589 8.81009 15.2255 8.98151 15.1942 9.15631L15.1949 9.15563Z" fill="#0E0E0E"/>
<path d="M29.4049 20.009C29.1083 20.4875 28.7722 20.9417 28.4287 21.3892C28.0796 21.8326 27.713 22.2624 27.3306 22.6788C26.5666 23.5116 25.7264 24.2756 24.8263 24.9647C23.9167 25.6402 22.9418 26.2361 21.8941 26.6775L21.4988 26.8361C21.3662 26.8867 21.2308 26.9299 21.0968 26.9771C21.0294 27.0001 20.9627 27.0244 20.8954 27.046L20.4858 27.1634C20.4178 27.1823 20.3498 27.2046 20.2804 27.2181L19.8647 27.3092C19.796 27.3261 19.7259 27.3369 19.6551 27.3477L19.4449 27.3807C19.166 27.4334 18.8816 27.4462 18.6006 27.4745C19.1626 27.4037 19.7205 27.3085 20.2634 27.154C20.4001 27.1195 20.5334 27.0723 20.6681 27.0325L20.8702 26.9697C20.9369 26.9468 21.0029 26.9211 21.0689 26.8975C21.2008 26.8476 21.3342 26.8024 21.4641 26.749L21.8526 26.583C22.3642 26.3482 22.869 26.0978 23.3493 25.8042C23.8303 25.512 24.297 25.1975 24.7447 24.858C25.1937 24.5199 25.6284 24.1616 26.0468 23.7863C26.4666 23.4118 26.8639 23.0136 27.2551 22.6093C27.6449 22.2037 28.0184 21.7826 28.3776 21.3493C28.7382 20.9174 29.0831 20.472 29.4056 20.0104L29.4049 20.009Z" fill="#0E0E0E"/>
<path d="M21.8444 25.2684C21.9145 25.1955 21.9798 25.1185 22.0383 25.0375C22.0982 24.9572 22.1526 24.8736 22.1996 24.7858C22.2928 24.611 22.3642 24.4234 22.3839 24.2284C22.3948 24.1312 22.3935 24.0333 22.3812 23.9361C22.369 23.839 22.3404 23.7445 22.3071 23.652C22.2343 23.4685 22.122 23.2997 21.9927 23.1452C22.0669 23.214 22.1363 23.2883 22.1982 23.3692C22.2601 23.4502 22.3111 23.5393 22.3554 23.6318C22.3969 23.7256 22.4275 23.8248 22.4445 23.9267C22.4595 24.0286 22.4615 24.1332 22.4513 24.2358C22.4288 24.4416 22.3513 24.638 22.2445 24.8115C22.137 24.9849 22.003 25.1422 21.8438 25.2677L21.8444 25.2684Z" fill="#0E0E0E"/>
<path d="M15.7269 27.4037C15.5568 27.4111 15.3868 27.4064 15.2167 27.3942C15.0466 27.3828 14.8772 27.3632 14.7085 27.3362C14.3717 27.2802 14.0377 27.1931 13.7213 27.0561C13.4056 26.9205 13.107 26.7288 12.8702 26.471C12.8104 26.4076 12.7573 26.3374 12.7076 26.2658C12.6586 26.1909 12.6151 26.1214 12.5716 26.0512C12.4804 25.9135 12.3797 25.7826 12.2606 25.6733C12.1443 25.5633 12.0069 25.4728 11.8572 25.4452C11.7831 25.4317 11.7069 25.433 11.6395 25.4566C11.6048 25.4688 11.5715 25.485 11.5388 25.5052L11.483 25.5397L11.4232 25.5707C11.2612 25.6476 11.0884 25.6908 10.9143 25.7104C10.8707 25.7138 10.8272 25.7212 10.7837 25.7212L10.653 25.7232C10.6095 25.7232 10.5659 25.7178 10.5231 25.7158C10.4795 25.7118 10.436 25.7111 10.3938 25.703C10.0496 25.6564 9.72166 25.543 9.41279 25.3986L9.18488 25.2825C9.11073 25.2407 9.03793 25.1961 8.96514 25.153C8.92908 25.1307 8.89166 25.1098 8.85628 25.0875L8.75083 25.016L8.54197 24.8709C8.83519 25.0416 9.12637 25.215 9.44069 25.3385C9.7516 25.4668 10.0761 25.5633 10.4068 25.599C10.7354 25.6321 11.0776 25.6004 11.3667 25.458L11.4191 25.4297L11.4708 25.3973C11.5102 25.3723 11.5524 25.3507 11.598 25.3345C11.6912 25.3014 11.7905 25.3001 11.8831 25.3156C12.0708 25.3493 12.2273 25.456 12.3559 25.5754C12.4852 25.6962 12.5906 25.8359 12.6852 25.9804C12.7308 26.0539 12.7757 26.1275 12.8192 26.1943C12.8396 26.2294 12.8668 26.2604 12.8906 26.2928C12.9144 26.3259 12.9417 26.3563 12.9682 26.3873C13.1845 26.6336 13.4662 26.8192 13.7676 26.9616C14.0703 27.102 14.3942 27.2019 14.7234 27.2721C15.0534 27.345 15.3902 27.3868 15.7296 27.4043L15.7269 27.4037Z" fill="#0E0E0E"/>
<path d="M5.31245 0.234413C5.31245 0.234413 4.38585 -0.412121 3.63272 0.442276C3.63272 0.442276 4.32325 -0.200884 4.51579 0.442276C4.51579 0.442276 4.84235 -0.0557847 5.31245 0.234413Z" fill="#0E0E0E"/>
<path d="M14.322 6.68153C14.354 6.71257 14.3874 6.73957 14.4241 6.76184C14.4608 6.78343 14.4996 6.80166 14.5404 6.81178C14.5806 6.82258 14.6227 6.82865 14.6656 6.8273C14.7085 6.82798 14.7513 6.81988 14.7956 6.81313C14.7758 6.82258 14.7547 6.83135 14.7336 6.83877C14.7119 6.8435 14.6901 6.85092 14.6677 6.85295C14.6227 6.86037 14.5758 6.85497 14.5316 6.8435C14.4425 6.8192 14.3649 6.75914 14.3227 6.68085L14.322 6.68153Z" fill="#0E0E0E"/>
<path d="M18.4789 25.2684C18.7408 25.2015 18.9973 25.1246 19.2476 25.0335C19.4973 24.9417 19.7402 24.8344 19.964 24.6988C20.0763 24.6313 20.1824 24.555 20.2797 24.4706C20.379 24.3876 20.4654 24.2911 20.5389 24.1859C20.611 24.0799 20.6702 23.9645 20.7083 23.8396C20.7457 23.7148 20.7607 23.5832 20.7661 23.4489C20.7913 23.5812 20.7947 23.7182 20.7736 23.8545C20.7491 23.9901 20.6994 24.1224 20.6287 24.2419C20.4885 24.4855 20.2668 24.6684 20.0348 24.8135C19.7973 24.9539 19.5429 25.0591 19.2803 25.1327C19.0184 25.2069 18.7496 25.2562 18.4789 25.2677V25.2684Z" fill="#0E0E0E"/>
<path d="M19.6313 8.49763C19.8851 8.65757 20.1361 8.82022 20.3913 8.97679L20.7722 9.21435L21.1539 9.45055C21.6642 9.76235 22.1758 10.0728 22.6955 10.3677C22.8241 10.444 22.9547 10.5162 23.0854 10.5891C23.216 10.6613 23.3452 10.7362 23.4779 10.8057L23.8725 11.0183L24.2718 11.2221C24.4038 11.2923 24.5399 11.3537 24.6746 11.4185C24.8093 11.4826 24.9433 11.5494 25.0814 11.6068C25.2189 11.6655 25.3543 11.7303 25.4937 11.785C25.6339 11.8376 25.7733 11.8916 25.9135 11.9463C25.3325 11.7924 24.7712 11.5676 24.2256 11.3173C23.6779 11.0689 23.15 10.7814 22.6275 10.4858C22.1064 10.1875 21.5968 9.871 21.0968 9.53964C20.596 9.20962 20.1055 8.86476 19.6313 8.49897V8.49763Z" fill="#0E0E0E"/>
<path d="M28.9049 14.5911C29.06 14.7011 29.1648 14.8752 29.2253 15.0581C29.2865 15.243 29.294 15.4408 29.2716 15.6318C29.2634 15.679 29.2607 15.7276 29.2485 15.7742L29.2131 15.9132C29.2022 15.9598 29.1825 16.0036 29.1661 16.0482C29.1498 16.0927 29.1321 16.1366 29.1137 16.1804C29.0709 16.2648 29.0273 16.3492 28.9797 16.4301C28.9267 16.5084 28.8736 16.586 28.8158 16.6596C28.8471 16.5705 28.8838 16.4855 28.9199 16.4005C28.9525 16.3141 28.9811 16.227 29.0151 16.142C29.0654 15.9672 29.1199 15.7937 29.1362 15.6156C29.1593 15.4388 29.1586 15.2592 29.1226 15.0851C29.0845 14.9117 29.0185 14.7403 28.9049 14.5911Z" fill="#0E0E0E"/>
<path d="M12.2811 8.85396C12.3702 8.79255 12.4688 8.73788 12.5797 8.71899C12.6341 8.71021 12.6974 8.71561 12.7437 8.75475C12.7886 8.79457 12.8083 8.85329 12.8158 8.90795C12.8301 9.01998 12.811 9.12999 12.7899 9.23729C12.7661 9.34392 12.7389 9.45055 12.7001 9.55313C12.6818 9.60443 12.6648 9.65707 12.645 9.70768L12.5797 9.85818C12.5382 9.95941 12.4865 10.0552 12.4389 10.1538C12.3402 10.3488 12.2348 10.5391 12.1259 10.7281C11.9028 11.1027 11.6681 11.4698 11.4211 11.8281C11.1742 12.1865 10.919 12.5395 10.6496 12.8823C10.7721 12.7028 10.8959 12.524 11.0163 12.3424C11.1381 12.1622 11.2592 11.9813 11.3776 11.7991C11.615 11.4347 11.8497 11.0696 12.0674 10.6937C12.2872 10.3205 12.4974 9.93849 12.6512 9.53559C12.692 9.43571 12.7219 9.33177 12.7484 9.22784C12.7729 9.12391 12.7927 9.01661 12.7831 8.912C12.7784 8.86071 12.7627 8.80874 12.7267 8.77365C12.6899 8.73923 12.6341 8.73046 12.5818 8.73653C12.4756 8.75003 12.3743 8.79862 12.2811 8.85396Z" fill="#0E0E0E"/>
<path d="M16.1528 10.0687C16.112 10.1443 16.1065 10.2321 16.097 10.3157C16.0923 10.3583 16.0902 10.4001 16.0882 10.4426C16.0855 10.4851 16.0848 10.5277 16.0848 10.5702C16.0827 10.7402 16.0916 10.9103 16.1018 11.0804C16.1229 11.4198 16.1603 11.7586 16.2025 12.0968C16.2426 12.4349 16.2998 12.7703 16.3317 13.1118C16.3685 13.4519 16.3746 13.7947 16.3685 14.1369C16.3494 14.8206 16.2596 15.5008 16.1202 16.1696C15.98 16.8378 15.7997 17.4992 15.5575 18.1376C15.6657 17.8136 15.7616 17.487 15.8446 17.1563C15.9283 16.8263 16.0079 16.4949 16.0684 16.1595C16.1025 15.9928 16.127 15.8241 16.1562 15.6567C16.1841 15.4887 16.2032 15.32 16.227 15.1513C16.2433 14.9819 16.2623 14.8131 16.2753 14.6437C16.2827 14.4743 16.2984 14.3043 16.2998 14.1349C16.3079 13.7954 16.3032 13.4553 16.2691 13.1178C16.2406 12.7804 16.1821 12.4423 16.1494 12.1028C16.1133 11.7634 16.0814 11.4239 16.0671 11.0824C16.0616 10.9117 16.0576 10.7409 16.065 10.5702C16.0664 10.5277 16.0684 10.4851 16.0718 10.4426C16.0746 10.4001 16.0787 10.3576 16.0841 10.3151C16.097 10.2314 16.1065 10.1437 16.1501 10.0694L16.1528 10.0687Z" fill="#0E0E0E"/>
<path d="M20.9729 16.2574C21.0274 16.524 21.0859 16.7885 21.1546 17.051C21.2206 17.3142 21.2934 17.5747 21.3723 17.8339C21.5315 18.3509 21.7145 18.8604 21.9492 19.3456C22.0635 19.5893 22.1968 19.8241 22.3445 20.0475C22.4914 20.2716 22.6581 20.4841 22.852 20.6677C23.0459 20.8513 23.2663 21.0085 23.514 21.1118C23.7602 21.2191 24.0331 21.2623 24.3072 21.2555C24.0358 21.2926 23.7534 21.2636 23.4902 21.1732C23.2269 21.0814 22.9874 20.9282 22.7799 20.7446C22.569 20.5624 22.3955 20.3438 22.2377 20.1184C22.0826 19.8903 21.9451 19.6507 21.8267 19.4037C21.7097 19.1553 21.6036 18.9029 21.5118 18.6451C21.422 18.3866 21.3396 18.1261 21.2709 17.8622C21.1301 17.3352 21.0294 16.7986 20.9736 16.2574H20.9729Z" fill="#0E0E0E"/>
<path d="M3.14288 1.16642C2.98029 1.38846 2.88028 1.57067 2.88028 1.57067C2.88028 1.57067 3.00206 1.38238 3.14288 1.16642Z" fill="#0E0E0E"/>
<path d="M4.60831 0.33362L4.56477 0.312699L4.58586 0.256009L4.36135 0.0947132L3.97357 0.155452C3.97357 0.155452 3.67626 0.372763 3.51434 0.606271C3.43475 0.721 3.27963 0.956533 3.14356 1.16575C3.31637 0.929538 3.55925 0.647439 3.8273 0.488167C3.93002 0.427428 4.05112 0.397059 4.1695 0.41798C4.31101 0.44295 4.42871 0.519887 4.17766 0.847878L4.60899 0.33227L4.60831 0.33362Z" fill="#0E0E0E"/>
<path d="M4.18175 0.869474L4.13684 0.925489C4.15317 0.905917 4.16814 0.887021 4.18175 0.869474Z" fill="#0E0E0E"/>
<path d="M4.43483 19.3726C4.51103 19.4185 4.59198 19.4502 4.6743 19.4752C4.75662 19.4988 4.84098 19.5137 4.92603 19.5177C4.96889 19.5177 5.01107 19.5211 5.05393 19.5164C5.07502 19.515 5.09679 19.515 5.11788 19.5123C5.13897 19.5089 5.16074 19.5062 5.18183 19.5035C5.22469 19.4995 5.26687 19.4873 5.31041 19.4806C5.35327 19.4718 5.39545 19.4583 5.43967 19.4502C5.40158 19.4725 5.36144 19.4927 5.32062 19.5123C5.27844 19.5272 5.23694 19.5467 5.19271 19.5555C5.10563 19.5805 5.01379 19.5872 4.92194 19.5852C4.83078 19.5791 4.73962 19.5602 4.65594 19.5245C4.57226 19.49 4.49402 19.4394 4.43415 19.3726H4.43483Z" fill="#0E0E0E"/>
<path d="M15.4997 6.32654C15.4997 6.32654 16.4807 5.97021 17.0243 6.9643L17.2502 6.52293L17.0951 6.20169L16.2263 6.07414L15.499 6.32654H15.4997Z" fill="#0E0E0E"/>
<path d="M4.23957 1.51398C4.33278 1.34594 4.48517 1.21231 4.65662 1.11985C4.82942 1.02605 5.03352 0.987577 5.23081 1.00647C5.42879 1.0274 5.61588 1.10096 5.7812 1.20219C5.94788 1.30275 6.09483 1.4303 6.22545 1.57067C6.18736 1.54165 6.14994 1.51196 6.11252 1.48159L5.99686 1.39723L5.87849 1.31759C5.83699 1.29397 5.79753 1.26833 5.75535 1.24673C5.58867 1.159 5.40974 1.09151 5.22401 1.07329C5.03896 1.05439 4.85051 1.08746 4.68043 1.16575C4.59471 1.20421 4.51443 1.25483 4.44095 1.31354C4.36612 1.37091 4.29536 1.43637 4.24025 1.51398H4.23957Z" fill="#0E0E0E"/>
<path d="M2.75034 2.56949C2.60611 2.84822 2.47276 3.13167 2.34758 3.41849C2.22308 3.70531 2.10062 3.99349 1.99381 4.28773C1.88156 4.57996 1.77951 4.87555 1.68562 5.17385C1.58833 5.47147 1.50601 5.77314 1.42029 6.07481C1.45023 5.92094 1.48084 5.76707 1.51622 5.61454C1.55432 5.4627 1.59106 5.3095 1.63528 5.159C1.71896 4.85666 1.82237 4.55971 1.92986 4.26411C2.04211 3.97054 2.16389 3.68102 2.29928 3.39757C2.43534 3.11412 2.58025 2.83539 2.74965 2.57017L2.75034 2.56949Z" fill="#0E0E0E"/>
<path d="M19.1204 9.50117C19.349 9.81769 19.5579 10.1477 19.7592 10.4818C19.9599 10.8158 20.1504 11.1566 20.3341 11.5008C20.513 11.8477 20.6892 12.1953 20.8505 12.5503C20.9321 12.7271 21.009 12.9066 21.0866 13.0848C21.1621 13.2643 21.2335 13.4458 21.3043 13.6274C21.1383 13.2751 20.9763 12.9208 20.8029 12.5725C20.6328 12.2223 20.4566 11.8754 20.2742 11.5319C20.096 11.1857 19.9055 10.8462 19.715 10.5074C19.6198 10.3373 19.5218 10.1693 19.4225 10.0019C19.3245 9.83389 19.2231 9.66719 19.1211 9.50117H19.1204Z" fill="#0E0E0E"/>
<path d="M28.5606 17.0213C28.5076 17.1212 28.447 17.2171 28.3885 17.3142C28.3273 17.4094 28.264 17.5032 28.1994 17.597C28.0708 17.784 27.932 17.9635 27.7885 18.1389C27.6442 18.3137 27.4939 18.4845 27.3347 18.6465C27.1775 18.8104 27.0102 18.9643 26.8367 19.1108C26.9122 19.0257 26.9938 18.9474 27.068 18.8624C27.1456 18.7801 27.2218 18.6971 27.2959 18.6114C27.4456 18.442 27.5932 18.2712 27.7354 18.0964C27.8796 17.923 28.0184 17.7455 28.1565 17.5666C28.294 17.3878 28.428 17.2056 28.56 17.0213H28.5606Z" fill="#0E0E0E"/>
<path d="M5.06549 15.8612C4.92535 15.9078 4.79472 15.9773 4.68383 16.0704C4.57294 16.1636 4.48245 16.2783 4.41918 16.4059C4.28856 16.6589 4.27019 16.962 4.36816 17.2225C4.46748 17.483 4.65117 17.7232 4.9097 17.819C5.03692 17.867 5.17639 17.8879 5.31653 17.8791C5.456 17.869 5.59683 17.8433 5.7329 17.7981L5.83494 17.7657C5.86896 17.7549 5.90162 17.7394 5.93563 17.7259C6.00231 17.6989 6.06966 17.6726 6.13361 17.6389C6.19756 17.6058 6.26559 17.5788 6.3241 17.5403C6.38533 17.5019 6.44656 17.4627 6.50711 17.4215C6.74999 17.2603 6.97994 17.0794 7.20377 16.8918C7.64938 16.5138 8.0569 16.09 8.41679 15.625C8.25964 15.8734 8.08071 16.1082 7.89226 16.335C7.70041 16.559 7.49291 16.771 7.27384 16.9701C7.05545 17.1698 6.82346 17.3554 6.5799 17.5262C6.51936 17.5693 6.45677 17.6098 6.39349 17.6497C6.32886 17.6928 6.25879 17.7212 6.19212 17.7563C6.12544 17.7914 6.05605 17.8204 5.98598 17.8487C5.95128 17.8629 5.91726 17.8791 5.88121 17.8906L5.77304 17.9257C5.62881 17.9722 5.47709 18.0006 5.32266 18.01C5.16822 18.0181 5.00835 17.9959 4.86207 17.9365C4.71512 17.8771 4.58654 17.7779 4.48789 17.6578C4.38925 17.5376 4.31713 17.402 4.26815 17.2562C4.16814 16.964 4.2076 16.6346 4.36067 16.3741C4.51307 16.113 4.77567 15.922 5.06549 15.8612Z" fill="#0E0E0E"/>
<path d="M6.33703 7.72894L7.1126 7.60611C7.37113 7.56562 7.62965 7.52378 7.8875 7.47991C8.40318 7.39285 8.91887 7.30444 9.43048 7.19646C9.68696 7.14517 9.94209 7.08915 10.1945 7.02437C10.321 6.99265 10.4442 6.95418 10.5714 6.91908C10.6979 6.88264 10.8279 6.85362 10.9612 6.84215C11.0932 6.83135 11.232 6.83203 11.3585 6.89141C11.4204 6.92111 11.4762 6.97307 11.5 7.04056C11.5225 7.10805 11.5136 7.18026 11.4905 7.24303C11.4409 7.36923 11.3463 7.46844 11.2422 7.54807C11.1374 7.62771 11.0177 7.68642 10.8945 7.72961C11.015 7.67967 11.1306 7.61623 11.2306 7.5339C11.33 7.45224 11.4177 7.35101 11.4585 7.23223C11.4783 7.17351 11.4837 7.1094 11.464 7.05339C11.4422 6.99737 11.3953 6.95485 11.3395 6.92988C11.2259 6.87927 11.0925 6.88062 10.966 6.89411C10.7102 6.92313 10.4653 7.01897 10.2101 7.08443C9.95637 7.15192 9.70057 7.20996 9.44409 7.26327C8.92976 7.36585 8.41339 7.45561 7.89566 7.53187C7.37725 7.60814 6.85816 7.6763 6.33703 7.72961V7.72894Z" fill="#0E0E0E"/>
<path d="M20.5715 13.0193C20.6661 13.1253 20.7443 13.242 20.8165 13.3622C20.8879 13.4823 20.9525 13.6071 21.0083 13.7354C21.0648 13.8636 21.111 13.9965 21.1491 14.1315C21.1866 14.2665 21.2124 14.4062 21.2192 14.5472C21.158 14.4197 21.1042 14.2928 21.0491 14.1666L20.8838 13.7893C20.8287 13.6638 20.775 13.5369 20.7219 13.4094C20.6688 13.2818 20.6171 13.1536 20.5715 13.0193Z" fill="#0E0E0E"/>
</svg>
