<svg width="49" height="53" viewBox="0 0 49 53" fill="none" xmlns="http://www.w3.org/2000/svg">
<path d="M31.6969 24.9296C31.702 24.9971 31.3681 25.0017 30.9499 24.9414C30.5324 24.8805 30.1894 24.7769 30.1836 24.71C30.1784 24.6425 30.513 24.6373 30.9305 24.6982C31.348 24.7592 31.6917 24.8621 31.6969 24.9296Z" fill="#0E0E0E"/>
<path d="M18.7491 47.775C18.7595 47.8615 18.208 47.9231 17.5154 47.9133C16.8242 47.9034 16.2552 47.8254 16.2442 47.7389C16.2339 47.6524 16.7866 47.5908 17.4779 47.6006C18.1692 47.6104 18.7388 47.6878 18.7491 47.775Z" fill="#0E0E0E"/>
<path d="M40.5708 47.0841C40.596 47.0696 40.7151 47.2348 40.8368 47.4538C40.9585 47.6721 41.0368 47.8608 41.0115 47.8753C40.9863 47.8897 40.8672 47.7238 40.7455 47.5056C40.6238 47.2873 40.5455 47.0985 40.5708 47.0841Z" fill="#0E0E0E"/>
<path d="M40.24 46.694C40.1941 46.7117 40.0193 46.3591 39.7818 45.9395C39.5455 45.5187 39.3339 45.187 39.3727 45.1562C39.4083 45.126 39.6886 45.419 39.9319 45.8523C40.1772 46.285 40.284 46.6783 40.24 46.694Z" fill="#0E0E0E"/>
<path d="M33.4231 40.228C33.3791 40.2608 33.2322 40.0294 33.093 39.7102C32.9545 39.3916 32.8775 39.1071 32.9208 39.0743C32.9648 39.0415 33.1124 39.2736 33.2509 39.5922C33.3894 39.9108 33.4671 40.1953 33.4231 40.228Z" fill="#0E0E0E"/>
<path d="M41.5086 51.632C41.5242 51.6661 41.3527 51.7323 41.1255 51.7802C40.8983 51.8287 40.7022 51.8405 40.6873 51.8064C40.6717 51.7723 40.8439 51.7061 41.0704 51.6582C41.2976 51.6097 41.4938 51.5979 41.5086 51.632Z" fill="#0E0E0E"/>
<path d="M34.9241 35.2422C34.8801 35.275 34.7331 35.0436 34.594 34.7243C34.4555 34.4058 34.3784 34.1213 34.4218 34.0885C34.4658 34.0557 34.6134 34.2878 34.7519 34.6063C34.8904 34.9249 34.9681 35.2094 34.9241 35.2422Z" fill="#0E0E0E"/>
<path d="M24.7129 39.3811C24.6858 39.3831 24.6851 39.2448 24.7117 39.0717C24.7382 38.8993 24.7816 38.7577 24.8087 38.7557C24.8359 38.7538 24.8366 38.8921 24.81 39.0651C24.7835 39.2375 24.7401 39.3791 24.7129 39.3811Z" fill="#0E0E0E"/>
<path d="M30.858 41.0448C30.8257 41.0717 30.704 40.9012 30.5855 40.6633C30.4671 40.426 30.3965 40.2123 30.4289 40.1854C30.4612 40.1585 30.5829 40.3296 30.7014 40.5669C30.8198 40.8042 30.8904 41.0179 30.858 41.0448Z" fill="#0E0E0E"/>
<path d="M35.8995 51.1299L33.069 44.9956L30.2535 38.8541L30.3978 38.9249C30.2056 38.9773 30.0075 39.0481 29.8172 39.1248C29.6256 39.2021 29.4379 39.288 29.2554 39.3837C28.8904 39.5745 28.5454 39.8039 28.2444 40.0786C27.9441 40.3526 27.689 40.6764 27.5227 41.0415C27.3551 41.406 27.2813 41.8085 27.2987 42.211C27.3033 42.3113 27.3123 42.4129 27.3266 42.5118L27.3376 42.5853L27.3402 42.603C27.3402 42.603 27.3421 42.6102 27.3428 42.6141L27.3518 42.6475C27.3648 42.6928 27.3803 42.7393 27.3978 42.7852C27.467 42.9681 27.5641 43.1418 27.6839 43.2939C27.9221 43.6007 28.2619 43.8084 28.6392 43.8871C29.0172 43.9684 29.4211 43.935 29.8127 43.8438C29.9104 43.8202 30.0082 43.7947 30.1053 43.7645L30.2606 43.7186C30.3143 43.7049 30.3667 43.6898 30.4211 43.678C30.6379 43.6295 30.8638 43.5941 31.1072 43.619C31.2282 43.6321 31.3545 43.6629 31.4742 43.7252C31.5939 43.7855 31.702 43.8832 31.7778 43.9966C31.8535 44.1106 31.8988 44.2352 31.9247 44.3571C31.9512 44.479 31.959 44.599 31.959 44.7163C31.959 44.7753 31.9564 44.8317 31.9512 44.8907L31.9415 44.9812L31.926 45.0703C31.9027 45.189 31.8664 45.305 31.8192 45.4151C31.7228 45.6347 31.5849 45.8307 31.4237 45.9966C31.1001 46.3296 30.7014 46.5544 30.2904 46.7137C29.8774 46.873 29.4457 46.9661 29.0114 47.0093C28.1421 47.0932 27.2567 46.9779 26.4366 46.6685C25.6172 46.3597 24.8676 45.8438 24.2929 45.1693C23.7349 44.5131 23.2333 43.8012 22.8385 43.0225C22.4437 42.2457 22.1621 41.3988 22.0573 40.5204C21.9492 39.6427 22.0275 38.7426 22.2663 37.8951C22.5045 37.0455 22.8948 36.251 23.3692 35.5247C23.845 34.7971 24.4036 34.1337 25.0068 33.5215C25.1583 33.3687 25.3117 33.2186 25.4677 33.0718C25.6275 32.9236 25.7939 32.7768 25.9686 32.645C26.3156 32.3763 26.6864 32.1449 27.069 31.9404C27.836 31.5333 28.6528 31.2416 29.4845 31.0318C30.3169 30.8227 31.1668 30.6982 32.0179 30.6379C33.7228 30.5225 35.4361 30.6706 37.1015 31.0246C38.7675 31.3812 40.3876 31.9489 41.9151 32.7086C42.6802 33.0862 43.4187 33.5169 44.132 33.9862C44.8427 34.4588 45.5326 34.9878 46.1365 35.6132C46.4388 35.9259 46.7197 36.2622 46.9676 36.6253C47.2155 36.9878 47.4317 37.3765 47.5948 37.7908C47.7605 38.2031 47.8718 38.641 47.921 39.0861C47.9689 39.5319 47.954 39.9842 47.8738 40.4247C47.7158 41.307 47.312 42.1271 46.7605 42.8114C46.4848 43.1542 46.1715 43.4663 45.8246 43.7363C45.4776 44.0058 45.0983 44.2378 44.6828 44.4017C44.475 44.483 44.2575 44.5479 44.0297 44.58C43.9164 44.5977 43.7999 44.6042 43.6821 44.6029C43.6245 44.601 43.5611 44.597 43.5067 44.5911C43.4517 44.5852 43.3973 44.5774 43.343 44.5702C42.9093 44.5033 42.4847 44.386 42.0808 44.1952C41.8795 44.0988 41.6834 43.9828 41.5048 43.834C41.3261 43.6865 41.165 43.4997 41.0582 43.2749C41.0057 43.1621 40.9695 43.0402 40.9514 42.9163C40.941 42.854 40.9391 42.7924 40.9365 42.7288C40.9365 42.6626 40.9429 42.5964 40.9565 42.5315C41.009 42.2713 41.1688 42.0379 41.3941 41.8983C41.5061 41.8288 41.6342 41.7829 41.7663 41.7685C41.8316 41.7613 41.8996 41.7613 41.9637 41.7685C42.0252 41.775 42.086 41.7868 42.1442 41.8019C42.2614 41.8327 42.3727 41.8773 42.4756 41.9311C42.5274 41.9579 42.5779 41.9868 42.6258 42.0176C42.6498 42.032 42.675 42.0504 42.6964 42.0635C42.7138 42.0753 42.732 42.0864 42.7501 42.0962C42.8957 42.1782 43.0485 42.1867 43.1902 42.1166C43.3326 42.0471 43.4562 41.9055 43.5404 41.7429C43.7106 41.4132 43.7384 40.9969 43.6077 40.6462C43.5747 40.5578 43.5339 40.4752 43.4808 40.3945C43.4271 40.31 43.3676 40.228 43.3061 40.1481C43.1812 39.9881 43.0426 39.838 42.8951 39.6964C42.3022 39.1307 41.5708 38.7131 40.7915 38.4529C40.4018 38.3205 39.9979 38.232 39.5895 38.1743C39.1805 38.1199 38.7669 38.1009 38.3533 38.1114L38.4704 37.9455C38.6322 38.4804 38.8219 39.0147 39.0212 39.5417C39.2212 40.0694 39.4348 40.5918 39.6614 41.1084C40.1144 42.1421 40.6193 43.1523 41.1785 44.1316C41.7384 45.1103 42.3578 46.0555 43.0491 46.9451C43.7391 47.8353 44.5035 48.6697 45.3585 49.4033C44.4867 48.6901 43.7015 47.872 42.9883 46.9949C42.2763 46.1159 41.6374 45.1778 41.0556 44.2057C40.473 43.2336 39.9513 42.2241 39.4788 41.1923C39.2432 40.6764 39.0193 40.154 38.8096 39.6263C38.6005 39.0973 38.4025 38.567 38.227 38.0203C38.2057 37.9534 38.2419 37.8819 38.3073 37.8603C38.3183 37.857 38.3293 37.8551 38.3397 37.8544H38.3436C38.7701 37.8361 39.1986 37.8518 39.6238 37.9023C40.0484 37.9567 40.4704 38.0439 40.8795 38.1769C41.6983 38.4391 42.4724 38.8659 43.1119 39.4611C43.2711 39.6099 43.4226 39.7692 43.5604 39.9422C43.6291 40.0288 43.6957 40.1179 43.7566 40.2116C43.8213 40.3073 43.877 40.4155 43.9197 40.5256C44.0899 40.9707 44.064 41.4781 43.8517 41.9061C43.7436 42.1179 43.5844 42.3211 43.3475 42.4417C43.2304 42.5014 43.0931 42.5341 42.9566 42.5282C42.82 42.523 42.6899 42.481 42.5779 42.4201C42.5494 42.405 42.5229 42.3886 42.4964 42.3716L42.4342 42.3316C42.3934 42.306 42.352 42.2831 42.3099 42.2614C42.2265 42.2188 42.1404 42.1854 42.0536 42.1638C42.0103 42.1533 41.9675 42.1454 41.9242 42.1408C41.8834 42.1369 41.8459 42.1369 41.807 42.1421C41.73 42.1513 41.6556 42.1782 41.5889 42.2208C41.4549 42.3047 41.3565 42.4509 41.3268 42.6082C41.319 42.6475 41.3158 42.6875 41.3158 42.7275C41.3183 42.7701 41.319 42.8153 41.3274 42.858C41.341 42.9445 41.3662 43.0277 41.4038 43.1077C41.4808 43.2657 41.6018 43.4086 41.7494 43.5279C41.8964 43.6485 42.0666 43.7475 42.2459 43.8314C42.6057 43.9972 43.0012 44.1041 43.3986 44.1611C43.4485 44.1677 43.4983 44.1742 43.5475 44.1788C43.5973 44.1841 43.6394 44.1854 43.6867 44.1873C43.7792 44.1873 43.8731 44.1814 43.9669 44.1657C44.1553 44.1375 44.3443 44.0798 44.5275 44.0064C44.8944 43.8583 45.2407 43.6433 45.5579 43.3922C45.875 43.1405 46.1631 42.8488 46.4161 42.5308C46.923 41.895 47.2867 41.1405 47.4246 40.3434C47.4951 39.9455 47.5061 39.5391 47.4608 39.1386C47.4136 38.738 47.3126 38.3441 47.1592 37.9691C47.009 37.5929 46.8084 37.2363 46.576 36.9006C46.3437 36.565 46.0783 36.2504 45.7909 35.956C45.2148 35.3667 44.5546 34.8646 43.8588 34.4071C43.1617 33.9502 42.44 33.5313 41.6931 33.1642C40.2012 32.4261 38.6186 31.8748 36.9947 31.53C35.3707 31.1872 33.7021 31.0482 32.0509 31.1616C31.2257 31.218 30.4049 31.3379 29.6049 31.5366C28.8062 31.7365 28.0256 32.0144 27.302 32.3966C26.9415 32.5887 26.5939 32.805 26.2722 33.0534C26.1091 33.176 25.9583 33.3091 25.8081 33.4474C25.656 33.5896 25.5071 33.7352 25.3602 33.8826C24.7751 34.4746 24.2372 35.1124 23.7828 35.804C23.3285 36.4949 22.9634 37.2435 22.7375 38.0327C22.511 38.8206 22.4352 39.6499 22.5304 40.4634C22.6236 41.2775 22.8806 42.0707 23.2508 42.8088C23.6204 43.5482 24.0981 44.2352 24.6327 44.871C25.1537 45.4898 25.8346 45.9644 26.5887 46.2535C27.3421 46.5439 28.1648 46.6606 28.97 46.5891C29.3719 46.5531 29.7706 46.4705 30.1447 46.3296C30.5176 46.1893 30.8703 45.99 31.1402 45.716C31.2755 45.5796 31.3855 45.4243 31.4613 45.2558C31.4982 45.1713 31.526 45.0834 31.5448 44.9936L31.5571 44.9261L31.5648 44.8579C31.5694 44.8114 31.5719 44.7609 31.5726 44.7137C31.5752 44.5236 31.5454 44.3374 31.4613 44.2109C31.3797 44.0851 31.2405 44.0143 31.0625 43.994C30.8865 43.973 30.6904 43.9985 30.4981 44.0405C30.4004 44.0621 30.3072 44.0884 30.2056 44.1185C30.1014 44.15 29.9952 44.1768 29.8884 44.2011C29.4625 44.2955 29.0082 44.3335 28.5615 44.2319C28.3395 44.1808 28.1221 44.0949 27.9272 43.9697C27.7318 43.8458 27.5602 43.6852 27.4198 43.503C27.2793 43.3201 27.1699 43.1175 27.091 42.9025C27.0716 42.8488 27.0534 42.7937 27.0379 42.7367L27.0269 42.6928L27.0211 42.6646L27.0178 42.6429L27.0062 42.5584C26.9913 42.4463 26.9829 42.3355 26.979 42.2234C26.9648 41.7757 27.0541 41.3188 27.2476 40.913C27.4392 40.506 27.7253 40.1553 28.0515 39.8649C28.379 39.5738 28.746 39.3372 29.1298 39.1425C29.3221 39.0448 29.5182 38.9576 29.7188 38.8803C29.9201 38.8023 30.1201 38.7348 30.3344 38.679C30.3939 38.664 30.4548 38.6948 30.4787 38.7498L33.1946 44.9372L35.8956 51.1312L35.8995 51.1299Z" fill="#0E0E0E"/>
<path d="M22.2242 37.9993C22.0585 38.7826 21.9686 39.581 21.9543 40.3781C21.9375 41.1746 21.9951 41.973 22.1615 42.7472C22.243 43.1339 22.3582 43.5128 22.4987 43.8792C22.6404 44.2457 22.8191 44.5964 23.0288 44.9254C23.4482 45.5842 24.0126 46.1427 24.6702 46.5557C25.3259 46.9733 26.0664 47.2473 26.8275 47.4164C27.2081 47.5029 27.5945 47.5672 27.9842 47.6052L28.1305 47.6209L28.2768 47.6321C28.3745 47.6386 28.4722 47.6478 28.57 47.6524C28.7654 47.6589 28.9635 47.6753 29.1538 47.6694C29.537 47.6589 29.9201 47.579 30.2697 47.421C30.4444 47.3417 30.6108 47.2447 30.7642 47.126C30.9202 47.0067 31.069 46.8802 31.2062 46.7406C31.4826 46.4652 31.7072 46.1336 31.8341 45.7593C31.9629 45.3856 31.9946 44.9799 31.959 44.5813C31.9901 44.7793 32.0043 44.9805 31.9972 45.1824C31.9875 45.3836 31.9571 45.5855 31.9001 45.7809C31.8444 45.9762 31.7622 46.1644 31.6606 46.3407C31.5577 46.5164 31.4354 46.6809 31.2994 46.831C31.1622 46.9811 31.0121 47.1175 30.8574 47.2453C30.7007 47.3764 30.526 47.4872 30.3428 47.5783C30.1596 47.6701 29.9654 47.7369 29.7674 47.7868C29.5693 47.8359 29.3667 47.8654 29.1635 47.8766C28.9583 47.8884 28.7609 47.8766 28.5609 47.8746C28.4612 47.8713 28.3615 47.8635 28.2619 47.8582L28.1123 47.8497L27.9628 47.8359C27.5648 47.8032 27.168 47.7435 26.7751 47.6609C25.9919 47.4918 25.221 47.2125 24.5337 46.7779C23.8489 46.342 23.254 45.7534 22.8243 45.0592C22.3932 44.365 22.1142 43.5849 21.966 42.7885C21.8132 41.9914 21.7828 41.1772 21.8301 40.3736C21.856 39.9717 21.9026 39.5712 21.9666 39.1746C22.0307 38.778 22.1129 38.3847 22.2255 37.9999L22.2242 37.9993Z" fill="#0E0E0E"/>
<path d="M38.7436 39.1294C38.9869 39.0743 39.2355 39.0501 39.4847 39.0356C39.7339 39.0238 39.985 39.0271 40.2348 39.0494C40.7345 39.0907 41.2323 39.2087 41.6989 39.4113C42.1604 39.6204 42.5934 39.9199 42.9145 40.3211C42.9986 40.4175 43.0679 40.5256 43.1404 40.6305L43.2349 40.797C43.2679 40.8514 43.2951 40.9091 43.321 40.9674C43.4323 41.1962 43.5035 41.4414 43.5592 41.6859C43.4621 41.4538 43.3682 41.2231 43.2368 41.0133C43.1792 40.9039 43.1035 40.8062 43.0362 40.7046C42.9579 40.6102 42.888 40.5099 42.8012 40.424C42.721 40.3323 42.629 40.2529 42.5417 40.169C42.4478 40.0923 42.3553 40.0143 42.2536 39.9475C42.0549 39.8098 41.8446 39.6879 41.6219 39.5928C41.4006 39.4939 41.1701 39.4152 40.9358 39.3509C40.7015 39.2847 40.4614 39.2395 40.2193 39.2028C39.9772 39.1687 39.7326 39.1438 39.4866 39.1333C39.2407 39.1209 38.9934 39.1189 38.7455 39.1307L38.7436 39.1294Z" fill="#0E0E0E"/>
<path d="M28.203 43.9225C28.0088 43.5757 27.869 43.1877 27.8308 42.7793C27.8094 42.5754 27.8172 42.3676 27.8496 42.1631C27.8839 41.9586 27.9486 41.7587 28.0399 41.5725C28.1344 41.3876 28.2554 41.2165 28.3984 41.0677C28.5428 40.9209 28.7046 40.7918 28.8826 40.6921C29.2353 40.4889 29.636 40.3867 30.0302 40.3795C29.6457 40.4679 29.2787 40.6082 28.9615 40.8232C28.6457 41.0369 28.381 41.3227 28.2133 41.6616C28.0418 41.9992 27.9725 42.3847 27.9816 42.7701C27.9894 43.1575 28.0819 43.543 28.203 43.9232V43.9225Z" fill="#0E0E0E"/>
<path d="M46.5773 42.6856C46.4731 42.9432 46.3333 43.1851 46.1812 43.4178C46.0259 43.6492 45.8524 43.8688 45.6569 44.07C45.2699 44.4725 44.7935 44.8055 44.2524 44.9779C43.9818 45.0611 43.6996 45.1051 43.4174 45.107C43.1346 45.1103 42.8543 45.0611 42.5857 44.9851C42.0485 44.8265 41.5585 44.5452 41.1326 44.1952C41.6038 44.4777 42.1015 44.7117 42.6232 44.8363C43.1436 44.9608 43.6893 44.9517 44.1941 44.7904C44.4478 44.7144 44.688 44.5944 44.9145 44.4535C45.1423 44.3132 45.3527 44.1434 45.5514 43.9605C45.9456 43.5895 46.2899 43.1582 46.5767 42.6856H46.5773Z" fill="#0E0E0E"/>
<path d="M45.3585 49.402L45.2692 49.8162L45.1754 50.2292L45.0789 50.6415L44.9818 51.0539C44.9773 51.0729 44.9663 51.0886 44.9514 51.0984L44.9475 51.101C44.7475 51.2354 44.5449 51.3541 44.3378 51.4694C44.1313 51.5855 43.9197 51.6904 43.7061 51.792C43.4925 51.8936 43.2763 51.9886 43.0575 52.0784C42.8375 52.1656 42.6167 52.2495 42.3928 52.3255C41.9462 52.4809 41.4892 52.6068 41.0277 52.7103C40.5662 52.8152 40.0983 52.8906 39.6277 52.9398C39.3921 52.9607 39.1565 52.9824 38.9196 52.9909C38.8012 52.9975 38.6834 52.9981 38.5649 52.9988C38.4465 52.9994 38.3287 53.002 38.2102 52.9968C37.7371 52.9916 37.2652 52.9437 36.7985 52.8736C36.682 52.8539 36.5649 52.8401 36.449 52.8152L36.1027 52.7425C35.9875 52.7189 35.8736 52.6854 35.759 52.6579L35.5882 52.614L35.5668 52.6081L35.539 52.5989C35.5202 52.5917 35.5021 52.5825 35.4853 52.5714C35.4516 52.5497 35.4231 52.5202 35.4024 52.4868C35.3597 52.4206 35.3467 52.3367 35.3668 52.2626C35.3707 52.2449 35.3798 52.2239 35.3856 52.2108L35.4044 52.1708L35.4419 52.0902L35.5927 51.7697C35.693 51.556 35.7972 51.3429 35.9008 51.1305C35.8238 51.3547 35.7461 51.5783 35.6658 51.8005L35.5455 52.1341L35.515 52.2174L35.4995 52.2593C35.495 52.2738 35.4924 52.2803 35.4904 52.2915C35.4833 52.3321 35.4943 52.3747 35.5189 52.4055C35.5312 52.4213 35.5461 52.4337 35.5623 52.4422C35.5707 52.4468 35.5791 52.4501 35.5882 52.4527L35.6024 52.456L35.7953 52.4914C35.9099 52.5111 36.0231 52.5366 36.1377 52.5524L36.482 52.6009C36.5966 52.6173 36.7125 52.6264 36.827 52.6402C37.2872 52.6874 37.7494 52.7103 38.2115 52.7051C38.3267 52.7071 38.4426 52.7012 38.5578 52.6972C38.673 52.6933 38.7882 52.6894 38.9034 52.6795C39.0186 52.6703 39.1339 52.6677 39.2491 52.6553L39.5934 52.6218C40.0523 52.5687 40.508 52.4907 40.9598 52.3957C41.4116 52.2993 41.8582 52.1774 42.3009 52.0411C42.743 51.9021 43.1786 51.7435 43.607 51.5652C43.8219 51.4767 44.0329 51.3803 44.2433 51.2813C44.4524 51.1823 44.6621 51.0768 44.8595 50.9621L44.8252 51.0093L44.9553 50.6068L45.0867 50.2043L45.2207 49.8025L45.3585 49.402Z" fill="#0E0E0E"/>
<path d="M30.0399 40.3985C30.5713 41.3673 31.0826 42.3473 31.5758 43.3358C31.8237 43.8301 32.0652 44.327 32.3059 44.8245C32.427 45.0729 32.5441 45.3233 32.6613 45.5737L33.0127 46.325C33.4736 47.3305 33.9189 48.3433 34.3338 49.3698L34.6374 50.1427L34.9215 50.9234C34.9694 51.0532 35.0102 51.1863 35.0522 51.318L35.1791 51.714C35.2639 51.9775 35.3254 52.2489 35.3966 52.5156L35.2652 52.1223C35.2218 51.9912 35.183 51.8588 35.1312 51.7303L34.9843 51.3429C34.9351 51.2138 34.8878 51.0847 34.8335 50.9575L34.5202 50.1912L34.1946 49.4301C34.1416 49.303 34.0839 49.1771 34.0283 49.0513L33.8619 48.6724L33.6949 48.2935L33.5234 47.9166C33.4089 47.6655 33.2988 47.4118 33.183 47.1614L32.8373 46.4089C32.6069 45.9074 32.3758 45.4053 32.1409 44.9058L31.4405 43.404C30.9706 42.4043 30.5046 41.4021 30.0399 40.3991V40.3985Z" fill="#0E0E0E"/>
<path d="M30.3512 38.8429C30.3596 38.9806 30.3493 39.1143 30.3331 39.2461C30.3163 39.3778 30.2923 39.5076 30.2612 39.6361C30.2308 39.7646 30.1933 39.8911 30.1493 40.0163C30.104 40.1408 30.0528 40.2641 29.9829 40.3827C29.9745 40.2451 29.9849 40.1113 30.001 39.9796C30.0179 39.8478 30.0418 39.718 30.0729 39.5896C30.104 39.4611 30.1409 39.3346 30.1855 39.2094C30.2308 39.0848 30.282 38.9616 30.3512 38.8423V38.8429Z" fill="#0E0E0E"/>
<path d="M39.5028 37.4854C39.7837 37.4854 40.064 37.5168 40.341 37.5647C40.618 37.6132 40.8912 37.6859 41.1591 37.7731C41.4264 37.8629 41.686 37.9783 41.9332 38.114C42.1824 38.2477 42.4103 38.4181 42.6226 38.6037C42.5643 38.5637 42.5074 38.523 42.4504 38.4817L42.3643 38.4208L42.2743 38.3664C42.2142 38.3303 42.1559 38.2916 42.0957 38.2562L41.9106 38.1586C41.6607 38.0334 41.4051 37.9193 41.1391 37.8354C40.8756 37.7436 40.6051 37.6728 40.3319 37.6138C40.1954 37.585 40.0581 37.5588 39.9196 37.5384C39.7818 37.5149 39.6426 37.4985 39.5028 37.4854Z" fill="#0E0E0E"/>
<path d="M37.6018 39.4132C37.928 40.0583 38.2471 40.7039 38.5669 41.349C38.8879 41.9933 39.2063 42.6384 39.5384 43.2755L39.6601 43.5161L39.7856 43.7547L40.0374 44.2306L40.2931 44.7045C40.3345 44.7839 40.3805 44.8612 40.4245 44.9392L40.5559 45.1745C40.9119 45.7973 41.2763 46.4154 41.6918 47.0054C41.1928 46.4836 40.774 45.8884 40.3837 45.2807C40.2873 45.128 40.1882 44.9766 40.0976 44.8199L39.8238 44.3519C39.7332 44.1952 39.6504 44.0346 39.563 43.8766C39.4763 43.718 39.3915 43.5587 39.3093 43.3974C39.1449 43.0756 38.9856 42.7511 38.8296 42.4253C38.6795 42.0969 38.5248 41.7698 38.385 41.4368C38.0989 40.7728 37.8303 40.1015 37.6024 39.4145L37.6018 39.4132Z" fill="#0E0E0E"/>
<path d="M35.5422 48.7104C35.7448 49.0145 35.9306 49.3272 36.1105 49.6432C36.1558 49.7218 36.2011 49.8012 36.2445 49.8811L36.3435 50.0601C36.3545 50.0791 36.3629 50.0942 36.3746 50.1106C36.46 50.239 36.6024 50.3262 36.7532 50.338C36.9248 50.3524 37.1079 50.3603 37.2846 50.3662C37.4626 50.3747 37.6413 50.3754 37.8199 50.3774C38.1772 50.3774 38.5338 50.3656 38.8944 50.3302C38.55 50.4455 38.1876 50.5019 37.8257 50.5307C37.6445 50.5471 37.4633 50.5498 37.2814 50.5524C37.0982 50.5517 36.9215 50.5458 36.7338 50.5334C36.5254 50.5124 36.3306 50.3905 36.2205 50.2115C36.207 50.1899 36.194 50.165 36.1837 50.144L36.1539 50.0824L36.0943 49.9598C36.0542 49.8785 36.0154 49.7959 35.9772 49.7133C35.8225 49.3836 35.6743 49.0513 35.5422 48.7097V48.7104Z" fill="#0E0E0E"/>
<path d="M37.3856 47.9749C37.374 47.908 37.3481 47.8451 37.3267 47.7809L37.2587 47.5895C37.2121 47.4623 37.1655 47.3358 37.1164 47.2099C37.0212 46.9569 36.9202 46.7071 36.8186 46.4574C36.7144 46.2089 36.6128 45.9598 36.5015 45.7153C36.3927 45.4695 36.2827 45.225 36.1636 44.9844C35.9319 44.5007 35.6781 44.0287 35.4037 43.5685C35.2639 43.3404 35.1209 43.1136 34.9668 42.8933C34.8141 42.6724 34.6509 42.4594 34.482 42.2464C34.6911 42.4181 34.8827 42.6115 35.0658 42.8134C35.2451 43.0179 35.4141 43.2329 35.5713 43.4558C35.7299 43.678 35.8723 43.9114 36.0121 44.146C36.1481 44.3827 36.2736 44.6252 36.3947 44.8697C36.5112 45.1162 36.6225 45.3659 36.7248 45.6183C36.8244 45.872 36.9228 46.1263 37.0057 46.3866C37.0918 46.6455 37.1675 46.9071 37.2354 47.1712C37.2672 47.3036 37.2995 47.4361 37.3261 47.5704C37.3507 47.7042 37.3804 47.8386 37.3843 47.9756L37.3856 47.9749Z" fill="#0E0E0E"/>
<path d="M36.1442 51.5514C36.1066 51.6635 36.0587 51.7762 36.0244 51.8864C36.0115 51.9414 36.0128 51.9998 36.0296 52.0529C36.0471 52.1059 36.0782 52.1538 36.1189 52.1899C36.1604 52.2253 36.2108 52.2489 36.2639 52.2587C36.3215 52.2685 36.3798 52.277 36.438 52.2856C36.5545 52.3026 36.6704 52.3183 36.7875 52.3314C37.0206 52.359 37.2549 52.3773 37.4892 52.3878C37.6063 52.3931 37.7241 52.3957 37.8413 52.3937C37.9591 52.3957 38.0762 52.3885 38.194 52.3839C37.961 52.4232 37.7241 52.4383 37.4879 52.4383C37.251 52.4396 37.0147 52.4226 36.7798 52.3963C36.6626 52.3819 36.5455 52.3662 36.4283 52.3465C36.3701 52.3367 36.3118 52.3262 36.2536 52.3151C36.1908 52.3026 36.1319 52.2711 36.0859 52.2272C36.04 52.1826 36.0076 52.1256 35.9908 52.0647C35.9752 52.003 35.9765 51.9375 35.9947 51.8778C36.016 51.8182 36.0438 51.7684 36.0684 51.7133C36.093 51.6589 36.1189 51.6051 36.1448 51.552L36.1442 51.5514Z" fill="#0E0E0E"/>
<path d="M41.7002 51.6064C41.8362 51.5691 41.9714 51.5324 42.1061 51.4911C42.2413 51.4524 42.376 51.4118 42.51 51.3698C42.7779 51.2859 43.0452 51.2 43.3093 51.1037C43.5753 51.0132 43.8355 50.9077 44.0951 50.8008C44.2245 50.7458 44.354 50.6907 44.4802 50.6297C44.6097 50.5747 44.7326 50.5058 44.8608 50.4462C44.6213 50.5956 44.3715 50.7294 44.1152 50.8474C43.8582 50.9647 43.5961 51.0702 43.3307 51.1659C43.064 51.2577 42.7954 51.3449 42.5235 51.4183C42.2517 51.4917 41.9773 51.5579 41.7002 51.6058V51.6064Z" fill="#0E0E0E"/>
<path d="M35.7739 51.5009C35.7739 51.5009 35.4717 52.4822 36.1565 52.5478C36.1565 52.5478 35.5416 52.6127 35.4412 52.4167C35.3416 52.2207 35.7733 51.5016 35.7733 51.5016L35.7739 51.5009Z" fill="#0E0E0E"/>
<path d="M30.203 39.0173C30.203 39.0173 29.8243 40.2969 29.0696 40.5735L30.0308 40.3781L30.3318 38.8718L30.203 39.0173Z" fill="#0E0E0E"/>
<path d="M30.0308 40.3781C30.0308 40.3781 30.1065 40.1703 30.146 40.0773C30.1855 39.9842 30.0263 40.0084 30.0263 40.0084L29.9493 40.3716L30.0315 40.3775L30.0308 40.3781Z" fill="#0E0E0E"/>
<path d="M35.3222 38.9688C35.4477 39.2651 35.5759 39.5601 35.7079 39.8537C35.838 40.1481 35.9701 40.4411 36.1053 40.7334C36.3739 41.3181 36.6464 41.9009 36.928 42.4791C37.207 43.0585 37.4911 43.6354 37.7817 44.209C38.0698 44.7839 38.3669 45.3541 38.6601 45.9271C38.5021 45.6472 38.3455 45.366 38.1908 45.0841C38.0393 44.8002 37.8853 44.5177 37.7371 44.2326C37.5863 43.9487 37.4419 43.661 37.2976 43.3732C37.152 43.0861 37.0115 42.7963 36.8691 42.5079C36.5921 41.9271 36.3189 41.3437 36.06 40.7544C35.8011 40.1651 35.5493 39.5719 35.3222 38.9688Z" fill="#0E0E0E"/>
<path d="M32.9299 36.6234C32.9389 36.6568 32.9577 36.6863 32.9739 36.7164L33.0257 36.8056L33.1331 36.9819L33.3487 37.3339C33.493 37.5686 33.6322 37.8059 33.772 38.0439C33.9072 38.2838 34.0438 38.5237 34.17 38.7689C34.2956 39.0147 34.4179 39.2631 34.5111 39.5233C34.4522 39.3988 34.3907 39.2756 34.3247 39.1549C34.2607 39.033 34.194 38.9131 34.1267 38.7931C33.992 38.5532 33.8561 38.3139 33.7163 38.0766L33.3059 37.3595L33.1053 36.9977L33.0101 36.8141C32.9804 36.7518 32.9454 36.6915 32.9292 36.6234H32.9299Z" fill="#0E0E0E"/>
<path d="M24.8799 38.3415C24.9686 37.7646 25.1214 37.1943 25.3486 36.6535C25.5738 36.112 25.8748 35.5994 26.2521 35.1484C26.4411 34.9229 26.6541 34.7184 26.8826 34.5342C26.9952 34.4405 27.1182 34.3599 27.2385 34.2766C27.3648 34.2019 27.4884 34.1239 27.6217 34.0623C27.7505 33.9934 27.8884 33.943 28.0224 33.8872L28.2301 33.8197C28.2988 33.7955 28.3693 33.7778 28.4399 33.7614C28.5111 33.7456 28.581 33.7266 28.6522 33.7135L28.8664 33.6788C29.0088 33.6532 29.1544 33.6499 29.2975 33.6368C29.0127 33.6847 28.7285 33.7299 28.4567 33.8237C28.3182 33.8604 28.1868 33.9187 28.0528 33.9672C27.924 34.0288 27.7907 34.0813 27.667 34.1534C27.5395 34.2176 27.4211 34.2982 27.3 34.373C27.1842 34.4569 27.0664 34.5375 26.9589 34.6312C26.7395 34.8135 26.5324 35.0128 26.3505 35.2337C25.9803 35.6715 25.6812 36.1697 25.4405 36.6948C25.201 37.2212 25.0172 37.7744 24.8799 38.3415Z" fill="#0E0E0E"/>
<path d="M45.2744 42.3126C45.4356 42.089 45.576 41.8517 45.6964 41.6053C45.8174 41.3594 45.9197 41.1045 45.9974 40.8429C46.1521 40.3211 46.2013 39.7646 46.0906 39.2349C46.0744 39.1694 46.0653 39.1019 46.044 39.0376L45.9838 38.8442L45.9081 38.6568C45.8841 38.5932 45.8485 38.5355 45.82 38.4745L45.7747 38.3841L45.7216 38.2975C45.6854 38.2405 45.653 38.1809 45.6135 38.1258C45.5326 38.017 45.4563 37.9049 45.3644 37.8046C45.0103 37.3923 44.5825 37.0435 44.1242 36.7427C44.6077 36.9996 45.064 37.3241 45.4401 37.7364C45.5385 37.8354 45.6207 37.9488 45.7061 38.0596C45.7482 38.1153 45.7831 38.1763 45.822 38.2346L45.8789 38.3231L45.9281 38.4162L45.9773 38.5099C45.9941 38.5407 46.0103 38.5722 46.0226 38.6056L46.1035 38.801L46.1676 39.0029C46.1903 39.0697 46.2006 39.1405 46.2174 39.2087C46.2725 39.486 46.2886 39.7711 46.2653 40.0517C46.2414 40.3323 46.1825 40.6095 46.0932 40.8744C45.9145 41.4047 45.6343 41.8963 45.2737 42.3126H45.2744Z" fill="#0E0E0E"/>
<path d="M30.1998 38.8967C30.1998 38.8967 27.201 39.6807 27.2463 42.1448C27.2463 42.1448 27.2243 43.4105 28.2949 43.8458C28.2949 43.8458 27.9797 43.718 27.9428 42.8075C27.9059 41.897 28.6043 40.7013 30.0638 40.2883C30.0638 40.2883 30.5104 39.2795 30.1991 38.8973L30.1998 38.8967Z" fill="#0E0E0E"/>
<path d="M30.3357 40.6076C30.491 40.8501 30.6354 41.0979 30.7752 41.3483C30.9163 41.5981 31.0502 41.8517 31.1829 42.1061C31.3137 42.3617 31.4425 42.6174 31.5655 42.877C31.6884 43.1365 31.8082 43.3974 31.9156 43.6649C31.7603 43.423 31.616 43.1746 31.4761 42.9242C31.3357 42.6744 31.2011 42.4207 31.0684 42.1664C30.9376 41.9107 30.8088 41.6551 30.6865 41.3955C30.5635 41.1359 30.4438 40.875 30.3363 40.6076H30.3357Z" fill="#0E0E0E"/>
<path d="M35.4555 51.2446C35.282 50.928 35.1319 50.5996 34.9759 50.2738C34.8218 49.9473 34.6736 49.6183 34.5228 49.2905C34.3765 48.9601 34.2283 48.6317 34.0852 48.3L33.8716 47.8025C33.8024 47.6353 33.7318 47.4695 33.6645 47.3017C33.7448 47.4636 33.8218 47.6268 33.9001 47.7894L34.1299 48.2797L34.581 49.2636L35.0205 50.2528L35.2374 50.749C35.3086 50.9149 35.3785 51.0814 35.4555 51.2446Z" fill="#0E0E0E"/>
<path d="M38.4782 38.0714L38.875 39.1458C38.875 39.1458 42.1527 39.2847 43.6336 41.7882C43.6336 41.7882 44.6342 40.4634 42.1313 38.7911C42.1313 38.7911 40.24 37.6938 38.4788 38.0714H38.4782Z" fill="#0E0E0E"/>
<path d="M29.146 38.74C29.0502 38.7839 28.9551 38.8298 28.8632 38.8803L28.7247 38.9557L28.5894 39.0363C28.4107 39.1464 28.2379 39.2657 28.0742 39.3962C27.9085 39.524 27.7544 39.6676 27.6094 39.819L27.502 39.9344L27.4017 40.0569L27.3505 40.1179L27.3039 40.1821C27.2729 40.2247 27.2418 40.2674 27.2094 40.31C27.313 40.1251 27.4295 39.9442 27.5725 39.7856L27.6243 39.7246L27.68 39.6676C27.7175 39.6295 27.7538 39.5902 27.7926 39.5542C27.8716 39.4827 27.9505 39.4106 28.0347 39.3457C28.2023 39.2146 28.3784 39.0946 28.5654 38.9937C28.7518 38.8927 28.9447 38.8036 29.1467 38.7413L29.146 38.74Z" fill="#0E0E0E"/>
<path d="M22.5485 43.1254C22.5964 43.2591 22.6463 43.3915 22.7026 43.522C22.7563 43.6531 22.8139 43.7822 22.8754 43.9094C22.9977 44.1644 23.1298 44.4135 23.2806 44.6521C23.4275 44.8927 23.5977 45.1175 23.7796 45.3312L23.9226 45.4859L23.9582 45.5246L23.9971 45.56L24.0748 45.6314C24.1731 45.733 24.2903 45.811 24.3984 45.9022C24.1589 45.754 23.9382 45.5718 23.7434 45.3646C23.5511 45.1549 23.3796 44.9268 23.2268 44.6862C23.0793 44.4423 22.9446 44.1906 22.8314 43.9297C22.7187 43.6682 22.6191 43.4007 22.5492 43.1247L22.5485 43.1254Z" fill="#0E0E0E"/>
<path d="M35.8891 51.1266C36.3558 51.1384 36.8225 51.1456 37.2892 51.141C37.7558 51.1384 38.2219 51.1299 38.6872 51.1037C38.9196 51.0912 39.152 51.0735 39.3837 51.0525C39.6154 51.0322 39.8465 51.006 40.0756 50.9699C40.3041 50.9339 40.5319 50.8893 40.7514 50.8225C40.8607 50.789 40.9688 50.7503 41.0692 50.6999C41.1695 50.6507 41.264 50.5891 41.33 50.5104L41.3391 50.5012C41.3339 50.5058 41.3371 50.5026 41.3371 50.5026C41.3371 50.5026 41.3384 50.4999 41.3397 50.4986C41.3416 50.496 41.3436 50.4921 41.3462 50.4868C41.3507 50.479 41.3539 50.4672 41.3578 50.4573C41.3643 50.435 41.3688 50.4108 41.3714 50.3859C41.3766 50.3354 41.376 50.2823 41.3714 50.2286C41.3637 50.1211 41.3417 50.0122 41.3164 49.9047C41.2899 49.7972 41.2582 49.6904 41.2219 49.5842C41.187 49.478 41.1462 49.3738 41.106 49.2689L41.0601 49.1483L41.1779 49.1856C41.2154 49.1974 41.2361 49.2105 41.2627 49.225C41.2873 49.2394 41.3106 49.2551 41.3326 49.2715C41.3773 49.3049 41.418 49.341 41.4569 49.379C41.5345 49.455 41.6012 49.539 41.6633 49.6261C41.787 49.8005 41.8879 49.9873 41.9766 50.1794L42.0103 50.2515C42.0161 50.2646 42.0193 50.2685 42.0239 50.2777C42.0303 50.2843 42.0336 50.2928 42.0413 50.298C42.0679 50.3236 42.108 50.342 42.1533 50.3525C42.2433 50.3734 42.3449 50.3728 42.4446 50.3643C42.6452 50.3465 42.8465 50.3013 43.0446 50.2495C43.442 50.1446 43.831 50.005 44.2187 49.8621C44.6058 49.7179 44.9889 49.5606 45.3695 49.398C44.9987 49.5835 44.62 49.752 44.2381 49.9126C43.8556 50.0732 43.4666 50.2174 43.0672 50.3348C42.8672 50.3918 42.6646 50.4436 42.4536 50.4672C42.3481 50.4777 42.24 50.4836 42.1281 50.46C42.0724 50.4468 42.0135 50.4246 41.9643 50.3787C41.9514 50.3682 41.9423 50.3531 41.9313 50.34C41.9235 50.3262 41.9125 50.3079 41.908 50.2974L41.875 50.2272C41.787 50.0411 41.6873 49.8602 41.5688 49.6956C41.5093 49.6137 41.4452 49.5344 41.374 49.4655C41.3384 49.4308 41.3009 49.3987 41.262 49.3698C41.2426 49.3554 41.2226 49.3423 41.2025 49.3305C41.1837 49.32 41.1585 49.3076 41.1468 49.3036L41.2187 49.2204C41.2601 49.3266 41.3028 49.4328 41.3397 49.5416C41.3779 49.6497 41.4116 49.7599 41.44 49.872C41.4672 49.9841 41.4925 50.0981 41.5009 50.2174C41.5048 50.2771 41.5054 50.3374 41.4989 50.3996C41.4957 50.4305 41.4892 50.4626 41.4795 50.4947C41.4737 50.5111 41.4692 50.5268 41.4601 50.5439C41.4562 50.5517 41.4517 50.5602 41.4459 50.5694C41.4426 50.574 41.4407 50.5779 41.4361 50.5825C41.4316 50.5878 41.4303 50.5904 41.42 50.5996L41.429 50.5904C41.3423 50.692 41.2342 50.7576 41.1248 50.8107C41.0154 50.8644 40.9015 50.9037 40.7876 50.9378C40.5591 51.0053 40.3268 51.0486 40.0944 51.0833C39.629 51.1522 39.161 51.1836 38.6931 51.1974C38.2251 51.2112 37.7578 51.2112 37.2905 51.1987C36.8231 51.1836 36.3565 51.1633 35.8911 51.124L35.8891 51.1266Z" fill="#0E0E0E"/>
<path d="M41.3954 49.674C41.3954 49.674 41.4213 49.5193 41.8789 50.2725C41.8789 50.2725 41.5915 49.44 41.1915 49.2787L41.3954 49.674Z" fill="#0E0E0E"/>
<path d="M41.974 49.2892C42.0957 49.4079 42.1863 49.5586 42.2646 49.7081C42.3507 49.8503 42.5197 49.9355 42.6821 49.9119C42.8491 49.8916 43.0155 49.8641 43.1805 49.8274C43.2627 49.809 43.3443 49.7881 43.4245 49.7625C43.5048 49.7376 43.5844 49.7081 43.6595 49.6694C43.5132 49.7566 43.3494 49.8097 43.1857 49.8516C43.0213 49.8936 42.8536 49.9211 42.686 49.9441C42.5112 49.967 42.3294 49.8746 42.2433 49.7212C42.1676 49.5671 42.0879 49.417 41.974 49.2892Z" fill="#0E0E0E"/>
<path d="M13.0099 33.747C13.0112 33.7856 12.8202 33.7784 12.5833 33.7306C12.3464 33.6827 12.1542 33.6132 12.1529 33.5746C12.1523 33.5359 12.3432 33.5431 12.5795 33.5909C12.8164 33.6388 13.0086 33.7083 13.0099 33.747Z" fill="#0E0E0E"/>
<path d="M21.8954 46.9366C21.9039 46.9746 21.7149 47.0041 21.4734 47.0041C21.232 47.0041 21.0301 46.9733 21.0216 46.9353C21.0132 46.8972 21.2022 46.8671 21.4436 46.8677C21.6851 46.8677 21.887 46.8985 21.8954 46.9366Z" fill="#0E0E0E"/>
<path d="M16.7336 38.1946C16.7433 38.2562 16.4371 38.2838 16.0501 38.2576C15.6636 38.2307 15.3426 38.1599 15.3329 38.0989C15.3232 38.0373 15.63 38.0098 16.0164 38.036C16.4028 38.0629 16.7245 38.1337 16.7336 38.1946Z" fill="#0E0E0E"/>
<path d="M22.6754 32.4385C22.6864 32.4812 22.4747 32.5211 22.2022 32.5297C21.9304 32.5375 21.7013 32.51 21.6903 32.468C21.6793 32.4254 21.8916 32.3855 22.1634 32.3769C22.4353 32.3691 22.6644 32.3959 22.6754 32.4385Z" fill="#0E0E0E"/>
<path d="M21.988 30.0971C21.9899 30.1207 21.9103 30.1252 21.81 30.1082C21.7097 30.0912 21.6268 30.0584 21.6249 30.0348C21.6229 30.0112 21.7026 30.0066 21.8029 30.0236C21.9032 30.0407 21.9861 30.0735 21.988 30.0971Z" fill="#0E0E0E"/>
<path d="M24.278 30.1121C24.3498 30.019 24.3971 29.9089 24.4094 29.7962C24.421 29.6828 24.4023 29.5694 24.3634 29.4645C24.2832 29.2554 24.1447 29.0627 23.9822 28.9145C23.6398 28.6038 23.267 28.3278 22.8825 28.0741C22.4954 27.8231 22.0948 27.5936 21.6825 27.3898C21.476 27.2888 21.267 27.1912 21.0566 27.0994C20.8469 27.0089 20.63 26.9224 20.4197 26.8509L20.6242 26.7395C20.6055 26.807 20.5802 26.8595 20.5543 26.9099C20.5284 26.9604 20.4999 27.0056 20.4702 27.0502C20.4113 27.1381 20.3485 27.22 20.2838 27.2993C20.1543 27.4573 20.0164 27.6048 19.8741 27.7464C19.7304 27.8873 19.5828 28.0243 19.4216 28.1489C19.3407 28.2111 19.2579 28.2721 19.1647 28.3278C19.0708 28.3816 18.9821 28.4255 18.8876 28.4674C18.7006 28.55 18.509 28.6169 18.3135 28.6661C18.2177 28.6916 18.1135 28.712 18.0255 28.7323C17.9342 28.7539 17.8442 28.7795 17.7569 28.8109C17.6695 28.8417 17.5847 28.8791 17.5044 28.9217C17.4235 28.9656 17.3497 29.0128 17.2967 29.0731C17.2429 29.1328 17.2106 29.2042 17.2067 29.2829C17.2048 29.3222 17.2099 29.3629 17.2203 29.4035C17.23 29.4428 17.2481 29.4868 17.2662 29.5176L17.3504 29.6624L17.1944 29.6369C17.0967 29.6205 16.9802 29.6211 16.8708 29.6284C16.7601 29.6362 16.6488 29.6526 16.5387 29.6742C16.4287 29.6965 16.3193 29.7267 16.2112 29.7608C16.1568 29.7765 16.1038 29.7975 16.0494 29.8158L15.8902 29.8794L16.0403 29.7949C16.0915 29.7693 16.142 29.7411 16.195 29.7175C16.2999 29.669 16.408 29.6277 16.518 29.591C16.6287 29.5556 16.742 29.5268 16.8578 29.5084C16.975 29.4907 17.0883 29.4776 17.2171 29.4868L17.1452 29.6061C17.1083 29.5543 17.085 29.5077 17.0656 29.4533C17.0468 29.3996 17.0352 29.3419 17.0339 29.2822C17.0294 29.1623 17.0753 29.0391 17.1472 28.9479C17.219 28.8549 17.3096 28.7886 17.397 28.7329C17.4857 28.6759 17.5795 28.6313 17.6747 28.5913C17.7698 28.552 17.8663 28.5186 17.964 28.4897C18.065 28.4615 18.1523 28.4393 18.2436 28.4104C18.4242 28.3527 18.6015 28.2872 18.7705 28.2052C18.854 28.1646 18.9394 28.1187 19.0138 28.0728C19.0876 28.0256 19.1621 27.9679 19.2346 27.9083C19.3789 27.787 19.5206 27.6572 19.6553 27.5202C19.7899 27.3839 19.92 27.2416 20.0385 27.0941C20.0974 27.0201 20.1537 26.9447 20.2042 26.8686C20.2527 26.7946 20.2999 26.7126 20.3168 26.6536L20.3647 26.4871L20.5213 26.5415C20.7517 26.6222 20.9666 26.7113 21.1841 26.8077C21.4003 26.9034 21.6132 27.0063 21.821 27.1184C22.2378 27.3406 22.643 27.5871 23.0243 27.8683C23.4068 28.1469 23.7667 28.4576 24.0922 28.8037C24.179 28.8942 24.2463 28.9951 24.3084 29.1C24.3693 29.2056 24.4191 29.3183 24.4489 29.4383C24.4786 29.5576 24.4864 29.6841 24.4586 29.804C24.4295 29.924 24.3641 30.0295 24.2812 30.1121H24.278Z" fill="#0E0E0E"/>
<path d="M24.4417 29.6074C24.8456 29.5746 25.2502 29.5903 25.6521 29.6388C26.0541 29.6893 26.4547 29.7739 26.8424 29.9115C27.2288 30.0499 27.6094 30.24 27.9253 30.5277C28.0819 30.6713 28.2179 30.843 28.3098 31.0371C28.3997 31.2311 28.447 31.4435 28.4321 31.6487C28.324 31.2494 28.0742 30.9459 27.7654 30.7277C27.4567 30.5067 27.1007 30.352 26.7363 30.2209C26.3699 30.0905 25.9906 29.9876 25.6075 29.8919C25.2236 29.7949 24.8346 29.7103 24.4424 29.608L24.4417 29.6074Z" fill="#0E0E0E"/>
<path d="M17.1905 29.0482C16.8138 29.079 16.441 29.1269 16.0766 29.2042C15.8941 29.2409 15.7141 29.2862 15.5387 29.3412C15.3627 29.3957 15.1905 29.4586 15.028 29.5372C14.705 29.6939 14.4086 29.9096 14.2539 30.2059C14.1769 30.3514 14.129 30.5192 14.1361 30.6693C14.1413 30.8214 14.2054 30.9623 14.3109 31.0849C14.4151 31.2088 14.5594 31.3098 14.7109 31.3982C14.8649 31.4854 15.0313 31.5575 15.2015 31.6218C15.5439 31.7483 15.9038 31.8407 16.2675 31.9194C16.997 32.0715 17.7426 32.1685 18.4935 32.2491C18.1161 32.2793 17.7375 32.2793 17.3588 32.2681C16.9802 32.253 16.6015 32.2242 16.2242 32.1678C15.8468 32.1134 15.4701 32.0367 15.1012 31.9128C14.9161 31.8519 14.7342 31.7758 14.5575 31.6808C14.3821 31.5838 14.2099 31.4658 14.0669 31.3006C13.9957 31.2186 13.9335 31.1236 13.8889 31.018C13.8442 30.9125 13.819 30.7971 13.8151 30.6824C13.8105 30.5677 13.8274 30.455 13.8584 30.3514C13.8876 30.2472 13.9296 30.1475 13.9821 30.0538C14.0876 29.8663 14.2364 29.711 14.3995 29.5884C14.5633 29.4651 14.7419 29.3714 14.9251 29.2993C15.1083 29.2265 15.2953 29.1715 15.4837 29.1295C15.6727 29.0895 15.8623 29.0613 16.0526 29.0417C16.4332 29.0089 16.8145 29.0043 17.1905 29.0489V29.0482Z" fill="#0E0E0E"/>
<path d="M20.432 33.8846C20.5258 33.9023 20.6216 33.9056 20.7168 33.9121C20.8119 33.9174 20.9071 33.9213 21.0029 33.9239C21.1938 33.9298 21.3841 33.9312 21.575 33.9305C21.9563 33.9285 22.3375 33.9141 22.7175 33.8892C23.0974 33.8663 23.4767 33.8276 23.8534 33.7791C24.2307 33.7325 24.6049 33.665 24.977 33.5909L25.0126 33.7843C24.6327 33.8433 24.2515 33.8951 23.8696 33.9253C23.4877 33.9574 23.1052 33.9797 22.722 33.9869C22.3395 33.9954 21.9569 33.9934 21.5744 33.979C21.3835 33.9711 21.1925 33.962 21.0022 33.9475C20.9071 33.941 20.8119 33.9325 20.7168 33.9233C20.6223 33.9128 20.5265 33.9056 20.4333 33.8833L20.432 33.8846Z" fill="#0E0E0E"/>
<path d="M18.3303 29.8034L18.6831 29.7719C18.8009 29.7634 18.9187 29.7568 19.0371 29.7516C19.2734 29.7411 19.5103 29.7411 19.7465 29.7477C19.9828 29.7568 20.2197 29.7732 20.4546 29.804C20.6896 29.8362 20.9226 29.8788 21.1504 29.9443C21.0333 29.9279 20.9174 29.9043 20.8003 29.8932C20.6838 29.8755 20.5666 29.8663 20.4495 29.8545C20.2152 29.8362 19.9802 29.8217 19.7446 29.8139C19.5096 29.8053 19.274 29.804 19.0384 29.8021C18.8028 29.8008 18.5672 29.8073 18.3303 29.8034Z" fill="#0E0E0E"/>
<path d="M26.7084 31.277C26.7285 31.3543 26.6929 31.4343 26.6483 31.4966L26.6133 31.5444L26.5719 31.5857L26.5298 31.627C26.5149 31.6395 26.4987 31.6506 26.4838 31.6631C26.4521 31.686 26.4224 31.7116 26.3887 31.7313L26.2884 31.7902L26.2379 31.8197L26.0806 31.8945C26.0113 31.9305 25.9376 31.9528 25.8657 31.981L25.757 32.0216L25.6463 32.0557L25.4249 32.1232L25.201 32.1796C25.0515 32.2183 24.9 32.2452 24.7492 32.2747C24.5984 32.3055 24.4469 32.331 24.2948 32.3507C23.9913 32.3992 23.6851 32.4261 23.3796 32.4543C23.5311 32.4268 23.6825 32.4038 23.834 32.3789C23.9861 32.3579 24.1362 32.3291 24.2871 32.3015C24.3621 32.2878 24.4379 32.274 24.5136 32.2616C24.5893 32.2491 24.6638 32.2314 24.7388 32.2163C24.889 32.1855 25.0392 32.156 25.1867 32.116L25.41 32.0629L25.7401 31.9666L25.8476 31.9279L25.9557 31.8899C25.9919 31.8781 26.0275 31.8643 26.0625 31.8486L26.2198 31.7817L26.3712 31.7011C26.4049 31.6827 26.434 31.6591 26.4664 31.6388C26.4819 31.6283 26.4987 31.6178 26.5136 31.6067L26.5563 31.5693L26.5991 31.5313L26.6353 31.4874C26.6813 31.4291 26.722 31.3563 26.7091 31.2776L26.7084 31.277Z" fill="#0E0E0E"/>
<path d="M14.0157 30.0636C13.2066 30.1678 12.4028 30.3022 11.6073 30.4714C10.8118 30.6392 10.0247 30.8437 9.26161 31.1098C8.88102 31.2449 8.50691 31.3969 8.14703 31.5739C7.78845 31.7522 7.44411 31.9587 7.14314 32.2104C7.06482 32.2701 6.9988 32.3415 6.92695 32.4077C6.89006 32.4399 6.86029 32.4779 6.82792 32.5139L6.73278 32.6227L6.60268 32.7997L6.56384 32.8614L6.48617 32.9852L6.3852 33.178L6.35801 33.2448C6.34054 33.2894 6.31983 33.3333 6.30429 33.3786C6.27646 33.4697 6.24474 33.5601 6.2305 33.6539C6.2072 33.7463 6.20526 33.8407 6.19555 33.9344C6.19814 34.0282 6.1949 34.1226 6.21173 34.2156C6.21821 34.3094 6.24733 34.3998 6.2674 34.4916L6.31529 34.6253C6.32371 34.6476 6.33018 34.6706 6.34054 34.6916L6.37225 34.7558C6.39361 34.7984 6.41238 34.8423 6.43633 34.8836L6.51206 35.0062C6.52501 35.0265 6.53666 35.0475 6.5509 35.0672L6.59491 35.1248L6.68229 35.2402C6.93084 35.5398 7.24281 35.7889 7.57421 36.0078C7.90561 36.2287 8.26613 36.4083 8.63377 36.5709C9.00077 36.7348 9.38265 36.8692 9.76583 36.9983C10.5367 37.2435 11.327 37.4349 12.1251 37.5902C12.9225 37.7489 13.7283 37.8695 14.5368 37.9809C13.7219 37.9416 12.9083 37.8636 12.0985 37.7489C11.2895 37.6296 10.4836 37.4716 9.69269 37.2428C9.29851 37.1248 8.90497 36.999 8.52374 36.8351C8.14186 36.6745 7.76515 36.4955 7.41045 36.2694C7.0564 36.0439 6.72048 35.7771 6.44086 35.446L6.34118 35.3169L6.29135 35.252C6.27516 35.2304 6.26157 35.2061 6.24669 35.1832L6.15931 35.0436C6.13212 34.9957 6.10947 34.9452 6.08422 34.8961L6.04733 34.8213C6.03568 34.7964 6.02726 34.7696 6.01691 34.7433L5.95995 34.586C5.93406 34.4772 5.9004 34.3697 5.89134 34.2569C5.87257 34.1455 5.87581 34.0328 5.87451 33.9207C5.88552 33.8092 5.89069 33.6965 5.91788 33.5883C5.936 33.4775 5.9729 33.3733 6.00591 33.2678C6.02403 33.216 6.04733 33.1662 6.06804 33.115L6.1004 33.039L6.13795 32.9662L6.21497 32.822L6.30235 32.685L6.34636 32.6168L6.39426 32.552L6.4907 32.4228C6.52565 32.3815 6.56255 32.3409 6.59815 32.3002C6.63439 32.2596 6.66934 32.2176 6.70947 32.1822C6.78779 32.1088 6.86482 32.0321 6.95025 31.9685C7.28294 31.7004 7.64929 31.4913 8.02535 31.313C8.40141 31.1347 8.78976 30.9905 9.18265 30.8653C9.96777 30.6149 10.7717 30.4432 11.5788 30.3107C12.3872 30.1849 13.2002 30.0931 14.0157 30.061V30.0636Z" fill="#0E0E0E"/>
<path d="M14.1659 30.902C13.9963 30.8968 13.8274 30.9086 13.6584 30.923C13.4901 30.9374 13.3219 30.9558 13.1542 30.9781C12.8189 31.0226 12.4856 31.081 12.1549 31.1511C11.8241 31.2206 11.4959 31.2999 11.173 31.3982C10.8513 31.4966 10.5335 31.6126 10.2351 31.7614C10.0862 31.8361 9.94188 31.92 9.81113 32.0184C9.68104 32.1167 9.56064 32.2288 9.48103 32.3619C9.40012 32.4936 9.36776 32.645 9.39883 32.7925C9.42796 32.9407 9.51016 33.081 9.61113 33.2062C9.81761 33.4579 10.0849 33.6617 10.3717 33.8276C10.659 33.9947 10.9671 34.1278 11.2824 34.2425C11.9128 34.472 12.5704 34.6299 13.2332 34.7551C13.896 34.8836 14.5665 34.9708 15.2384 35.0481C15.9109 35.1235 16.5853 35.176 17.2617 35.2133C17.9375 35.2566 18.6151 35.2795 19.2928 35.2913C18.9543 35.3084 18.6151 35.3156 18.276 35.3169C17.9368 35.3189 17.5976 35.3169 17.2578 35.3104C16.5795 35.292 15.9012 35.2566 15.2242 35.1996C14.8856 35.172 14.5471 35.136 14.2099 35.0921C13.8727 35.0488 13.5361 34.9983 13.2002 34.9387C12.5303 34.8161 11.8629 34.6601 11.217 34.4261C10.8946 34.3068 10.5775 34.1691 10.2778 33.9928C9.97877 33.8164 9.69333 33.6027 9.47003 33.3209C9.35999 33.1799 9.26291 33.0161 9.22731 32.8253C9.20983 32.7309 9.20918 32.6306 9.2299 32.5356C9.24996 32.4405 9.28815 32.3501 9.33799 32.2707C9.43831 32.1114 9.57424 31.9882 9.71793 31.886C9.86227 31.7837 10.0157 31.6998 10.1717 31.6264C10.4849 31.4795 10.8111 31.3714 11.14 31.2796C11.4694 31.1891 11.8021 31.1157 12.1374 31.0574C12.4727 31.0004 12.8105 30.9564 13.1484 30.9263C13.4863 30.8974 13.8274 30.8751 14.1659 30.9014V30.902Z" fill="#0E0E0E"/>
<path fill-rule="evenodd" clip-rule="evenodd" d="M2.65731 32.9242C2.15532 33.4821 1.89582 34.0612 1.89582 34.6529C1.89582 35.4814 2.35858 36.3215 3.242 37.1165C4.12407 37.9104 5.40915 38.6434 7.00921 39.2545C10.2082 40.4761 14.6359 41.1985 19.5272 40.9617C20.3413 40.9224 21.1159 40.8792 21.8521 40.8314L21.8728 41.1585C21.1345 41.2064 20.3582 41.2498 19.5426 41.2891C19.5426 41.2891 19.5426 41.2891 19.5426 41.2891C14.6144 41.5276 10.1416 40.801 6.89502 39.5612C5.2723 38.9415 3.94833 38.1907 3.02703 37.3615C2.10709 36.5336 1.57219 35.6116 1.57219 34.6529C1.57219 33.9568 1.87904 33.3025 2.41812 32.7034C2.95629 32.1054 3.73248 31.5544 4.69203 31.0583C6.61143 30.066 9.2946 29.278 12.3687 28.7783L12.42 29.1019C9.36455 29.5985 6.71755 30.3791 4.83917 31.3503C3.89983 31.8359 3.16021 32.3653 2.65731 32.9242Z" fill="#0E0E0E"/>
<path d="M13.3257 31.5103C13.1976 31.5241 13.0701 31.5405 12.9432 31.5615C12.8164 31.5805 12.6901 31.6028 12.5646 31.629C12.3141 31.6821 12.0642 31.743 11.8273 31.8374C11.5904 31.9272 11.3574 32.0472 11.1898 32.2367C11.1069 32.331 11.0474 32.4471 11.0293 32.5723C11.0079 32.6981 11.0286 32.8286 11.0649 32.9531C11.0144 32.8332 10.9859 32.7014 10.9976 32.5677C11.0099 32.4346 11.0681 32.3074 11.1516 32.2032C11.2345 32.0977 11.3413 32.0164 11.4519 31.9469C11.5639 31.8774 11.683 31.823 11.804 31.7752C11.9257 31.7286 12.05 31.6906 12.1756 31.6591C12.3011 31.6277 12.4274 31.5982 12.5549 31.5785C12.8099 31.5372 13.0668 31.5097 13.3251 31.509L13.3257 31.5103Z" fill="#0E0E0E"/>
<path d="M4.00329 34.0426C3.95086 34.1586 3.92303 34.2819 3.91397 34.4051C3.90555 34.4661 3.91073 34.5283 3.91073 34.5893C3.9172 34.6503 3.92238 34.7112 3.93339 34.7715C3.98128 35.0114 4.07967 35.2396 4.21688 35.4441C4.23307 35.4703 4.24795 35.4972 4.26478 35.5227L4.43177 35.745C4.51462 35.8367 4.59424 35.9324 4.68032 36.0229L4.81366 36.1547C4.85832 36.1979 4.89909 36.2464 4.94764 36.2858C5.04084 36.3697 5.1347 36.4529 5.22596 36.5421C5.11851 36.4765 5.01301 36.4064 4.90751 36.3356C4.80459 36.2622 4.7088 36.1776 4.61042 36.097C4.55993 36.0583 4.51851 36.0085 4.47255 35.9639L4.33857 35.8262L4.21947 35.6742L4.15993 35.5975C4.1418 35.5706 4.12497 35.5424 4.10815 35.5155C3.9664 35.2992 3.86413 35.0495 3.83371 34.7879C3.82788 34.7558 3.82982 34.7224 3.82788 34.6896C3.82788 34.6568 3.824 34.624 3.82659 34.5913C3.83371 34.5257 3.835 34.4602 3.85183 34.3966C3.87902 34.2694 3.92627 34.1455 4.00329 34.0439V34.0426Z" fill="#0E0E0E"/>
<path d="M6.77873 32.5716C6.7276 32.6431 6.68229 32.7329 6.64993 32.8214C6.61627 32.9112 6.59362 33.0043 6.58196 33.0993C6.55866 33.2894 6.58779 33.4841 6.65899 33.6637C6.73083 33.8433 6.8454 34.0052 6.97809 34.1488C7.11077 34.2937 7.26741 34.4156 7.42858 34.529C7.75544 34.7512 8.11532 34.9243 8.48425 35.0698C8.85384 35.2153 9.23378 35.3326 9.61696 35.4375C9.23119 35.3431 8.84801 35.2356 8.47325 35.0999C8.09914 34.9642 7.73214 34.7997 7.39363 34.5834C7.22599 34.4726 7.06288 34.352 6.92048 34.2058C6.77873 34.0603 6.65252 33.8931 6.57031 33.7017C6.48876 33.5103 6.44992 33.2973 6.46999 33.0869C6.4797 32.982 6.50235 32.8784 6.53666 32.7788C6.57161 32.6785 6.61368 32.5854 6.67646 32.4923L6.78003 32.571L6.77873 32.5716Z" fill="#0E0E0E"/>
<path d="M21.988 28.0473C22.1239 28.0918 22.254 28.1515 22.3815 28.2164C22.5097 28.2806 22.632 28.3547 22.7518 28.434C22.8709 28.514 22.9867 28.5992 23.0948 28.6943C23.2042 28.7867 23.3058 28.8896 23.3997 28.9984C23.3421 28.9551 23.2903 28.906 23.2327 28.8647C23.1777 28.8195 23.122 28.7762 23.0644 28.7342C22.9505 28.6497 22.8353 28.5671 22.7168 28.4891C22.5997 28.4098 22.4793 28.335 22.3582 28.261C22.298 28.2236 22.2365 28.1882 22.1744 28.1528C22.1136 28.1161 22.0508 28.0827 21.9886 28.0473H21.988Z" fill="#0E0E0E"/>
<path d="M28.4683 31.4782L28.3583 31.4487C28.3583 31.4487 28.445 31.5733 28.3971 31.8197L28.4683 31.4776V31.4782Z" fill="#0E0E0E"/>
<path d="M35.9869 31.3438C32.08 30.1292 28.2437 29.3485 24.1052 28.9801L23.5861 28.4039C27.7602 28.7755 32.1972 29.6166 36.1383 30.8417L35.9862 31.3432L35.9869 31.3438Z" fill="#0E0E0E"/>
<path d="M19.7407 43.229C14.507 43.229 9.58265 42.462 5.87516 41.0691C2.08611 39.6459 0 37.7213 0 35.6486C0 34.0918 1.18125 32.6064 3.41623 31.353C5.53729 30.1633 8.49396 29.2357 11.9678 28.6713C11.9879 28.6674 14.7873 28.2216 18.7834 28.2039L17.9284 28.7336C13.9762 28.7506 12.0785 29.1833 12.0539 29.1879C8.63442 29.7437 5.73535 30.651 3.66672 31.8112C1.60649 32.9669 0.517806 34.2937 0.517806 35.6479C0.517806 36.5571 1.00325 37.4486 1.96054 38.2988C2.91784 39.1491 4.2952 39.9153 6.0551 40.5761C9.70628 41.9474 14.5665 42.7033 19.7407 42.7033C20.5038 42.7033 21.2728 42.6862 22.0262 42.6534L22.0488 43.1772C21.2883 43.2106 20.5116 43.2277 19.7407 43.2277V43.229Z" fill="#0E0E0E"/>
<path fill-rule="evenodd" clip-rule="evenodd" d="M0 37.9822V35.6486H0.517806V37.9822C0.517806 38.8895 1.00645 39.786 1.96059 40.6333C2.91425 41.4802 4.30911 42.2548 6.05508 42.9106C9.54501 44.2215 14.3836 45.0375 19.7407 45.0375C20.848 45.0375 21.9333 45.003 22.9886 44.9358L23.0211 45.4592C21.9547 45.527 20.8587 45.5619 19.7407 45.5619C14.3385 45.5619 9.43615 44.7399 5.87502 43.4023C4.09545 42.7339 2.63724 41.9317 1.61921 41.0276C0.601661 40.124 0 39.0956 0 37.9822Z" fill="#0E0E0E"/>
<path fill-rule="evenodd" clip-rule="evenodd" d="M1.99226 40.78C1.99226 46.7196 6.67243 51.2387 12.4597 51.2387H26.7635C29.2985 51.2387 32.0988 50.6405 33.8589 48.7126L34.2391 49.0687C32.3318 51.1578 29.3496 51.7631 26.7635 51.7631H12.4597C6.3983 51.7631 1.47445 47.0211 1.47445 40.78H1.99226Z" fill="#0E0E0E"/>
<path fill-rule="evenodd" clip-rule="evenodd" d="M27.9655 43.0681C27.9655 43.0681 27.9655 43.0681 27.9434 42.8068C27.9214 42.5456 27.9214 42.5456 27.9214 42.5456L27.9467 42.5434C27.9633 42.5419 27.9879 42.5397 28.0195 42.5369C28.0826 42.5313 28.1739 42.5232 28.2862 42.5129C28.5109 42.4924 28.8193 42.4636 29.1549 42.4304C29.8291 42.3636 30.6025 42.28 31.0284 42.2104L31.1109 42.7281C30.6663 42.8007 29.8765 42.8859 29.2053 42.9523C28.8681 42.9857 28.5582 43.0147 28.3327 43.0352C28.2199 43.0455 28.1282 43.0537 28.0646 43.0594C28.0328 43.0622 28.0081 43.0644 27.9913 43.0658L27.9655 43.0681Z" fill="#0E0E0E"/>
<path fill-rule="evenodd" clip-rule="evenodd" d="M40.0868 39.2007C40.0868 39.2007 40.0868 39.2008 40.3423 39.2434C40.5977 39.2861 40.5977 39.2862 40.5977 39.2862L40.5977 39.2864L40.5976 39.2869L40.5974 39.2881L40.5967 39.2923C40.5961 39.2957 40.5953 39.3004 40.5942 39.3064C40.5921 39.3183 40.5889 39.3352 40.5847 39.3565C40.5763 39.3989 40.5635 39.4588 40.5458 39.5306C40.5105 39.6736 40.4548 39.8678 40.3732 40.068C40.2923 40.2664 40.1813 40.4825 40.0307 40.661C39.8795 40.8402 39.6744 40.9972 39.4078 41.0391L39.3285 40.5209C39.4334 40.5044 39.5359 40.4401 39.637 40.3203C39.7387 40.1998 39.8248 40.0391 39.8946 39.8679C39.9636 39.6986 40.0121 39.5305 40.0434 39.4036C40.0589 39.3405 40.07 39.2886 40.0771 39.2529C40.0806 39.2351 40.0832 39.2214 40.0848 39.2125C40.0856 39.208 40.0862 39.2048 40.0865 39.2028L40.0868 39.2007Z" fill="#0E0E0E"/>
<path d="M28.9408 11.6981C28.9305 11.7459 28.6994 11.6771 28.4243 11.5447C28.1499 11.4129 27.9356 11.2674 27.946 11.2202C27.9564 11.1723 28.1881 11.2412 28.4625 11.3736C28.7369 11.5053 28.9518 11.6509 28.9408 11.6981Z" fill="#0E0E0E"/>
<path d="M32.7959 15.9242C32.794 15.9904 32.4677 15.9602 32.0664 15.8567C31.6651 15.7531 31.3422 15.6161 31.3435 15.5499C31.3454 15.4837 31.6723 15.5138 32.0729 15.6174C32.4742 15.721 32.7978 15.858 32.7959 15.9242Z" fill="#0E0E0E"/>
<path d="M26.4023 21.9175C26.3939 22.0224 25.8787 21.9451 25.2508 21.7458C24.6236 21.5459 24.1227 21.3 24.1304 21.1952C24.1388 21.0903 24.6547 21.1676 25.2819 21.3669C25.9091 21.5668 26.4107 21.8127 26.4023 21.9175Z" fill="#0E0E0E"/>
<path d="M42.6892 20.1536C42.7054 20.204 42.4517 20.2683 42.1229 20.2984C41.7941 20.3279 41.5151 20.3115 41.4989 20.2611C41.4828 20.2106 41.7365 20.1463 42.0653 20.1162C42.3941 20.0867 42.6731 20.1031 42.6892 20.1536Z" fill="#0E0E0E"/>
<path d="M29.5027 6.46641C29.4489 6.46706 29.4619 6.19634 29.5311 5.86071C29.6004 5.52509 29.6994 5.25305 29.7531 5.25174C29.8069 5.25108 29.7939 5.52247 29.7247 5.85744C29.6554 6.19306 29.5564 6.46575 29.5027 6.46641Z" fill="#0E0E0E"/>
<path d="M35.3681 1.75391C35.3739 1.71262 35.9364 1.77817 36.6264 1.90009C37.3151 2.02202 37.8685 2.15378 37.8639 2.19442C37.8581 2.23572 37.2943 2.17017 36.6057 2.04824C35.917 1.92631 35.3623 1.79456 35.3681 1.75391Z" fill="#0E0E0E"/>
<path d="M34.3461 1.68705C34.3176 1.67263 34.284 1.67329 34.2529 1.67001C34.2212 1.66739 34.1888 1.66673 34.1571 1.66542C34.093 1.66411 34.0296 1.66476 33.9655 1.66673C33.838 1.66935 33.7105 1.67722 33.5843 1.69164C33.458 1.70737 33.3318 1.72442 33.2121 1.75981C33.1532 1.77817 33.0936 1.80046 33.047 1.8352C32.9991 1.86994 32.9778 1.91583 33.0011 1.96565C33.0218 2.01546 33.0658 2.06201 33.1124 2.10199C33.1597 2.14263 33.2114 2.17869 33.2645 2.21277C33.3713 2.2816 33.4846 2.33994 33.5979 2.39894C33.8263 2.51431 34.0613 2.61723 34.2956 2.72211C34.1733 2.68278 34.0529 2.63886 33.9325 2.59428C33.8127 2.54709 33.6937 2.49792 33.5765 2.44483C33.4587 2.39239 33.3441 2.33142 33.2335 2.2639C33.1784 2.22916 33.1241 2.19311 33.0723 2.1505C33.0218 2.10724 32.9713 2.06004 32.9409 1.99055C32.926 1.95581 32.9221 1.91058 32.9383 1.87191C32.9538 1.83323 32.9823 1.8057 33.0108 1.78472C33.069 1.74343 33.1325 1.72179 33.1959 1.70278C33.3228 1.66804 33.4516 1.64969 33.5804 1.64182C33.7092 1.6333 33.838 1.63133 33.9661 1.63461C34.0302 1.63723 34.0943 1.64182 34.1584 1.64772C34.1901 1.651 34.2225 1.65428 34.2542 1.65952C34.2852 1.66608 34.3189 1.6687 34.3467 1.68574L34.3461 1.68705Z" fill="#0E0E0E"/>
<path d="M40.8284 3.24783C40.8795 3.18949 40.8996 3.10624 40.8756 3.03413C40.8536 2.96137 40.8057 2.89975 40.7526 2.846C40.6439 2.73981 40.5138 2.65721 40.3818 2.58314C40.1151 2.4363 39.831 2.32421 39.5442 2.22195C38.9695 2.0194 38.3792 1.8647 37.7843 1.73622C36.594 1.48122 35.3843 1.3062 34.1694 1.24917C33.5629 1.22098 32.9519 1.21377 32.3532 1.29309C32.2043 1.31406 32.0554 1.34094 31.913 1.38224C31.8425 1.40387 31.7713 1.42616 31.7066 1.45828C31.6418 1.48843 31.5784 1.52514 31.535 1.57365C31.4904 1.6215 31.4677 1.67591 31.48 1.7349C31.4923 1.7939 31.5318 1.85355 31.5804 1.90534C31.6768 2.01153 31.8043 2.09609 31.9318 2.1741C32.1914 2.32749 32.4716 2.4481 32.7551 2.55758C33.0393 2.66574 33.3292 2.76013 33.6212 2.84731C34.205 3.0243 34.7998 3.16196 35.3972 3.28651C34.794 3.19146 34.1953 3.0656 33.6037 2.90893C33.3085 2.8283 33.0153 2.7385 32.7266 2.63558C32.4386 2.5307 32.1525 2.41533 31.8813 2.26194C31.7473 2.18393 31.6134 2.10003 31.5001 1.98072C31.4438 1.92173 31.3914 1.85027 31.3706 1.75719C31.3674 1.73359 31.3655 1.70934 31.3655 1.68509C31.37 1.66149 31.3706 1.63592 31.3797 1.61363C31.3959 1.56775 31.4218 1.52842 31.4522 1.4963C31.5124 1.43075 31.5849 1.38945 31.6574 1.35471C31.7299 1.31865 31.805 1.2944 31.88 1.2708C32.0302 1.22623 32.1829 1.19738 32.3357 1.17509C32.9474 1.09053 33.5629 1.09381 34.1746 1.11872C34.7862 1.15084 35.3953 1.21443 36.0011 1.30095C36.6063 1.38879 37.2096 1.4963 37.805 1.63854C38.4005 1.78013 38.9915 1.94598 39.5649 2.1623C39.8504 2.27439 40.1332 2.39632 40.3979 2.55364C40.5293 2.63296 40.6581 2.72014 40.7662 2.83289C40.818 2.88992 40.8653 2.95547 40.8847 3.03217C40.906 3.10886 40.8808 3.19277 40.8277 3.24849L40.8284 3.24783Z" fill="#0E0E0E"/>
<path fill-rule="evenodd" clip-rule="evenodd" d="M48.4822 18.8143C48.4822 14.9549 45.7486 11.7992 41.6744 9.61788L41.9164 9.15426C46.0649 11.3754 49 14.6713 49 18.8143C49 19.6837 48.9143 20.5354 48.7475 21.3634L48.7467 21.3673C48.7459 21.372 48.7447 21.3787 48.743 21.3874C48.7398 21.4048 48.7349 21.4302 48.7284 21.4632C48.7152 21.5291 48.6953 21.6252 48.6675 21.7478C48.612 21.9929 48.5254 22.3443 48.4004 22.7727C48.1505 23.6288 47.7464 24.795 47.1291 26.0352C45.8967 28.5108 43.7975 31.3138 40.3477 32.4974L40.1815 32.0008C43.449 30.8797 45.4641 28.215 46.6667 25.7991C47.2668 24.5936 47.6604 23.4581 47.9038 22.624C48.0255 22.2072 48.1094 21.8664 48.1628 21.6306C48.1895 21.5127 48.2085 21.4211 48.2208 21.3594C48.2269 21.3286 48.2314 21.3053 48.2343 21.2899C48.2357 21.2822 48.2368 21.2765 48.2374 21.2728L48.2381 21.2689L48.2383 21.2681L48.2383 21.2679L48.2389 21.2647L48.2395 21.2613C48.3998 20.4672 48.4822 19.6496 48.4822 18.8143Z" fill="#0E0E0E"/>
<path d="M41.7669 9.37099C41.7837 9.35067 41.7908 9.34805 41.796 9.34936C41.8006 9.35264 41.8025 9.3605 41.7954 9.38607C41.7785 9.40639 41.7714 9.40901 41.7663 9.4077C41.7617 9.40442 41.7598 9.39656 41.7669 9.37099Z" fill="#0E0E0E"/>
<path d="M38.4594 4.75748C38.4568 4.78305 38.4555 4.78895 38.4542 4.79026C38.4529 4.78895 38.4523 4.7837 38.4529 4.75748C38.4555 4.73126 38.4568 4.72602 38.4581 4.72471C38.4594 4.72602 38.4601 4.73192 38.4594 4.75748Z" fill="#0E0E0E"/>
<path fill-rule="evenodd" clip-rule="evenodd" d="M31.0469 0.0716558C32.4584 -0.0751187 34.3558 0.00021405 36.407 0.328872C38.4588 0.657628 40.3159 1.19502 41.6428 1.79152C42.3052 2.08928 42.8439 2.40548 43.2089 2.72372C43.5651 3.03426 43.7986 3.38527 43.7416 3.74937L43.7334 3.80202L43.7273 3.80816C43.6842 3.94439 43.5719 4.04596 43.4531 4.12123C43.3126 4.21032 43.1267 4.28582 42.9171 4.35119C42.4963 4.48242 41.9441 4.58345 41.3774 4.66151C40.3159 4.80772 39.1763 4.8768 38.6901 4.90627C38.6561 4.90833 38.6254 4.9102 38.598 4.91188L38.5882 4.7483L38.5983 4.91186C38.58 4.91303 38.5623 4.92668 38.5575 4.9495C38.3968 5.71916 38.1784 6.34604 37.9998 6.78126C37.9105 6.99896 37.831 7.16892 37.7736 7.28505C37.7448 7.34312 37.7216 7.38775 37.7053 7.41818C37.6972 7.4334 37.6908 7.44507 37.6864 7.45309C37.6842 7.45711 37.6824 7.46021 37.6812 7.46239L37.6798 7.46497L37.6792 7.46598L37.6791 7.46608C37.6791 7.46612 37.6791 7.46615 37.539 7.38413L37.6791 7.46615L37.3081 8.11613L37.3779 7.36869C37.4591 6.50041 37.259 5.22543 37.1887 4.82061L37.1886 4.82012L37.1885 4.81963C37.1885 4.81953 37.1885 4.81951 37.1885 4.81953C37.1885 4.8195 37.1884 4.81934 37.1882 4.81912C37.1877 4.81866 37.187 4.81829 37.186 4.81818C36.7152 4.76806 36.2296 4.70346 35.7357 4.62437C33.6846 4.29571 31.8568 3.77399 30.559 3.19295C29.9112 2.90293 29.3868 2.59431 29.0324 2.28138C28.6855 1.97498 28.4622 1.6282 28.5189 1.26614C28.5755 0.904093 28.8936 0.644113 29.317 0.461214C29.7495 0.274421 30.3424 0.144916 31.0469 0.0716558ZM37.7148 6.62173C37.8845 6.20319 38.0892 5.60828 38.2409 4.88156L38.2409 4.88136C38.275 4.71936 38.4101 4.59538 38.5781 4.58475L38.5784 4.58473C38.6057 4.58304 38.6364 4.58118 38.6702 4.57913C39.1568 4.54962 40.2851 4.48119 41.3338 4.33674C41.8955 4.25937 42.4267 4.16116 42.8218 4.03795C43.0202 3.9761 43.1754 3.91058 43.2814 3.84341C43.3928 3.77277 43.4179 3.72092 43.4213 3.69873L43.4245 3.67886C43.4427 3.4969 43.3258 3.25816 42.9977 2.97211C42.6668 2.68357 42.1603 2.38273 41.5115 2.0911C40.2163 1.50882 38.3876 0.978051 36.3564 0.652603C34.3247 0.327058 32.4564 0.254572 31.08 0.397699C30.3905 0.46939 29.8339 0.594265 29.444 0.762699C29.045 0.935028 28.8677 1.13112 28.8385 1.31741C28.8094 1.50369 28.9182 1.74565 29.2451 2.03435C29.5647 2.31652 30.056 2.60938 30.6899 2.89318C31.9554 3.45978 33.7545 3.97509 35.7863 4.30063C36.2748 4.37886 36.7549 4.44273 37.22 4.49224L37.2202 4.49226C37.3639 4.50772 37.4826 4.61735 37.5075 4.76417C37.5589 5.06009 37.6863 5.85586 37.7148 6.62173Z" fill="#0E0E0E"/>
<path d="M28.5596 0.961397C28.5499 0.958775 28.5441 0.97123 28.5389 0.978441C28.5337 0.986307 28.5292 0.995484 28.5253 1.00401C28.5169 1.0217 28.5098 1.04006 28.5033 1.05841C28.4897 1.09512 28.478 1.13314 28.467 1.17116C28.4444 1.24655 28.4243 1.32324 28.4049 1.39928C28.3667 1.55267 28.3305 1.70606 28.2975 1.86076C28.2282 2.16885 28.1641 2.47826 28.0988 2.78766L27.713 4.64473L27.5162 5.57294C27.4476 5.88169 27.3842 6.19175 27.313 6.49984C27.1758 7.11733 27.0347 7.73483 26.8754 8.34839C26.9557 7.7191 27.0554 7.09374 27.1648 6.46969C27.2178 6.15766 27.278 5.84695 27.3363 5.53558C27.3965 5.22486 27.4599 4.91481 27.5233 4.60409C27.6554 3.98463 27.7926 3.36648 27.9518 2.75292C28.0301 2.44614 28.1143 2.14001 28.2062 1.83651C28.2535 1.68509 28.3007 1.53366 28.3544 1.3842C28.3816 1.30948 28.4088 1.23475 28.4399 1.16198C28.4554 1.12528 28.4716 1.08922 28.4897 1.05382C28.4988 1.03613 28.5085 1.01843 28.5188 1.00138C28.524 0.992862 28.5298 0.98434 28.5363 0.97713C28.5428 0.970574 28.5499 0.958775 28.5602 0.962708L28.5596 0.961397Z" fill="#0E0E0E"/>
<path d="M41.4899 12.4073C41.4562 12.0966 41.4491 11.7826 41.451 11.4699C41.453 11.1566 41.4724 10.8433 41.5009 10.5313C41.5611 9.90655 41.6659 9.28643 41.8148 8.67615C41.9637 8.06652 42.1527 7.46607 42.3805 6.882C42.4951 6.5903 42.6161 6.30056 42.7507 6.01804C42.8148 5.87513 42.8867 5.73617 42.9553 5.59523C43.0258 5.45561 43.1015 5.3186 43.1747 5.18029L43.1786 5.17373C43.2899 5.00592 43.3883 4.82041 43.4731 4.63359C43.5572 4.44546 43.6252 4.24946 43.6679 4.04821C43.71 3.84763 43.7255 3.63786 43.6841 3.43596C43.6433 3.23472 43.5417 3.04462 43.3896 2.89975C43.4705 2.96531 43.5436 3.04331 43.6019 3.13181C43.6595 3.22096 43.7035 3.31994 43.7313 3.42417C43.7889 3.63196 43.787 3.85222 43.7572 4.0646C43.7261 4.27765 43.6627 4.48348 43.5857 4.6821C43.5074 4.88137 43.4142 5.07147 43.3009 5.25698L43.3048 5.25043C43.1682 5.52902 43.0336 5.80762 42.9093 6.09145L42.8161 6.3045L42.7281 6.51951C42.6672 6.66175 42.6129 6.80662 42.5566 6.95083C42.4472 7.24057 42.3455 7.53359 42.251 7.82857C42.1553 8.12289 42.0705 8.42115 41.9934 8.72138C41.9138 9.02095 41.8446 9.32314 41.785 9.62795C41.7229 9.93211 41.6711 10.2382 41.6277 10.5457C41.5417 11.1605 41.4853 11.782 41.4899 12.4067V12.4073Z" fill="#0E0E0E"/>
<path d="M41.9404 11.4706C42.0692 11.6292 42.1598 11.8305 42.1572 12.0461C42.1559 12.153 42.1261 12.2598 42.0763 12.3556C42.0277 12.4526 41.9546 12.5332 41.8782 12.6066C41.7197 12.7495 41.5319 12.8498 41.3404 12.9304C41.1481 13.013 40.9481 13.0681 40.7481 13.1218C40.3462 13.2189 39.9365 13.2733 39.528 13.3133L39.2206 13.3382C39.1183 13.346 39.0161 13.3487 38.9138 13.3546L38.7604 13.3618C38.7073 13.3637 38.6562 13.365 38.6044 13.3664C38.5008 13.3683 38.3973 13.3677 38.2944 13.365C37.8814 13.3546 37.4665 13.3224 37.0549 13.2313C36.849 13.1854 36.6445 13.1251 36.4445 13.034C36.3448 12.9875 36.2471 12.9324 36.1545 12.8649L36.0872 12.8124L36.0283 12.7639L35.9105 12.6676C35.5953 12.4172 35.2762 12.1648 34.9241 12.0691C34.8367 12.0442 34.7461 12.033 34.6548 12.0258C34.6089 12.0252 34.5629 12.0219 34.5163 12.0258C34.4678 12.0278 34.4263 12.0298 34.3849 12.0376C34.2166 12.0658 34.0522 12.1504 33.9047 12.2638C33.8678 12.292 33.8315 12.3221 33.7966 12.3536C33.761 12.385 33.7157 12.425 33.6749 12.4591C33.5888 12.5273 33.4988 12.5915 33.4043 12.6473C33.216 12.7607 33.0095 12.8439 32.7953 12.8963C32.5804 12.9455 32.3571 12.9652 32.1363 12.9416C31.913 12.9186 31.7072 12.861 31.5053 12.7882C31.1027 12.6394 30.7383 12.4113 30.4082 12.1504C30.091 11.8947 29.7654 11.6607 29.4211 11.4516C29.0774 11.2431 28.7188 11.0576 28.346 10.9088C28.1596 10.8348 27.9706 10.7666 27.7784 10.7102C27.6813 10.6814 27.5874 10.6578 27.4865 10.6342C27.3842 10.6093 27.2826 10.5785 27.1835 10.5424C26.9855 10.4696 26.7945 10.3726 26.623 10.2481C26.4521 10.1235 26.2929 9.97603 26.177 9.79314C26.0605 9.61222 25.9965 9.38804 26.0224 9.17237C26.0431 8.95671 26.1311 8.75809 26.2476 8.58634L26.2489 8.58503C26.28 8.54898 26.3136 8.52013 26.3499 8.4926C26.3855 8.46573 26.4237 8.44147 26.4631 8.42115C26.5421 8.3792 26.6282 8.35298 26.7149 8.34052C26.6288 8.35953 26.5466 8.39297 26.4735 8.43951C26.4366 8.46245 26.4016 8.48867 26.3693 8.51751C26.3369 8.5457 26.3059 8.57782 26.2813 8.6106L26.2825 8.60863C26.1829 8.78562 26.1097 8.98031 26.1046 9.17827C26.0948 9.37624 26.1628 9.5683 26.2754 9.72628C26.3887 9.88557 26.5421 10.0147 26.7078 10.1216C26.8741 10.2277 27.0541 10.311 27.2418 10.3713C27.3356 10.4015 27.4314 10.4264 27.5279 10.4454C27.6263 10.4644 27.7311 10.4854 27.8314 10.5109C28.0334 10.5608 28.2321 10.6224 28.4269 10.6938C28.8172 10.8361 29.1933 11.0157 29.5551 11.2209C29.9169 11.4234 30.2599 11.6666 30.5862 11.9183C30.902 12.1602 31.2457 12.3615 31.6114 12.4926C31.7927 12.5574 31.9842 12.6079 32.1668 12.625C32.3519 12.644 32.5402 12.6263 32.7221 12.5837C32.9034 12.5378 33.0801 12.4663 33.2412 12.3673C33.3228 12.3195 33.3991 12.2631 33.4736 12.2041C33.5111 12.1727 33.5435 12.1451 33.5843 12.1091C33.6257 12.0724 33.6684 12.037 33.7131 12.0035C33.8904 11.8698 34.0988 11.759 34.3351 11.7204C34.394 11.7099 34.4542 11.7072 34.5079 11.7053C34.5629 11.702 34.6192 11.7053 34.6749 11.7066C34.7869 11.7151 34.8995 11.7308 35.0082 11.7623C35.2264 11.8233 35.4251 11.9288 35.6024 12.0475C35.7811 12.1661 35.9435 12.2985 36.1027 12.4309L36.2212 12.5312L36.2801 12.5817L36.3332 12.6243C36.4044 12.6787 36.4846 12.7259 36.5694 12.7679C36.7409 12.8498 36.928 12.9095 37.1196 12.956C37.5041 13.0465 37.9041 13.0943 38.3054 13.1153C38.4057 13.1205 38.506 13.1238 38.6063 13.1258C38.6562 13.1264 38.7067 13.1271 38.7559 13.1258L38.908 13.1232C39.1112 13.1212 39.3131 13.1133 39.5151 13.1048C39.919 13.0838 40.3216 13.0445 40.7177 12.9698C40.9138 12.9285 41.1112 12.8859 41.2989 12.8164C41.4866 12.7489 41.6685 12.663 41.8239 12.5411C41.8989 12.4781 41.9708 12.4086 42.02 12.3234C42.0711 12.2395 42.1028 12.1445 42.1119 12.0455C42.13 11.8462 42.0588 11.6404 41.9423 11.4726L41.9404 11.4706Z" fill="#0E0E0E"/>
<path d="M42.9274 12.2789C42.8666 12.7181 42.6038 13.1133 42.2679 13.3985L42.2057 13.4542L42.1404 13.5047C42.0964 13.5381 42.0523 13.5722 42.0077 13.605C41.9145 13.664 41.8245 13.7295 41.7274 13.7813L41.5837 13.8632L41.4361 13.9373C41.3384 13.9891 41.2361 14.0291 41.1358 14.0743C40.3209 14.4099 39.4529 14.585 38.5843 14.6826C36.8426 14.8747 35.0827 14.7554 33.3623 14.4611C31.6451 14.1497 29.9486 13.66 28.3732 12.8832C27.5887 12.4945 26.8295 12.033 26.1745 11.4378C26.0948 11.3611 26.012 11.2877 25.9376 11.2058L25.823 11.0858L25.7149 10.9593C25.6405 10.8774 25.5777 10.7843 25.5104 10.6971C25.4793 10.6512 25.4489 10.604 25.4191 10.5575L25.3744 10.4873L25.3343 10.4139C25.1136 10.0304 24.9977 9.5683 25.0871 9.13435C25.0592 9.35264 25.0819 9.57355 25.1414 9.78134C25.1997 9.9898 25.2929 10.1871 25.4107 10.3667L25.4534 10.4349L25.5013 10.5004L25.5971 10.6302C25.6677 10.7115 25.7324 10.798 25.8088 10.8741L25.9194 10.9914L26.0366 11.1022C26.113 11.1776 26.1978 11.2451 26.2787 11.3159C26.6081 11.5932 26.9661 11.8351 27.3363 12.054C27.7065 12.2736 28.0897 12.4722 28.4813 12.6512C28.8729 12.8301 29.2722 12.9927 29.6755 13.1441C30.0794 13.2942 30.4897 13.4267 30.9027 13.5492C31.3156 13.6725 31.7325 13.7806 32.1519 13.8803C32.5713 13.9793 32.994 14.0619 33.4179 14.1379C33.8425 14.2113 34.2678 14.2782 34.6956 14.3286C35.1234 14.3785 35.5519 14.4191 35.9817 14.4447C36.4115 14.4709 36.8413 14.4866 37.2717 14.4833C37.7015 14.4788 38.1319 14.463 38.5604 14.4283C38.9889 14.3935 39.4154 14.3372 39.8374 14.2579C40.2594 14.1779 40.6769 14.073 41.0795 13.9249C41.1792 13.8862 41.2815 13.8521 41.3785 13.8069L41.5261 13.7426L41.6698 13.6705C41.7669 13.6253 41.8569 13.5663 41.9501 13.5132L42.0834 13.4234L42.1501 13.3782L42.2129 13.3283C42.3844 13.1992 42.5378 13.0452 42.6621 12.8695C42.7876 12.6945 42.8821 12.4945 42.9294 12.2789H42.9274Z" fill="#0E0E0E"/>
<path d="M29.5072 3.63C29.414 4.11246 29.3137 4.5936 29.2127 5.07475L28.9014 6.51557L28.5751 7.95311L28.4069 8.6709L28.2321 9.38672L28.3758 8.66369L28.5266 7.94197L28.8379 6.50115L29.1641 5.06361C29.2755 4.58508 29.3881 4.10656 29.5072 3.63Z" fill="#0E0E0E"/>
<path d="M37.3332 11.9354C37.3164 11.4208 37.3526 10.9049 37.429 10.3943C37.5092 9.88426 37.6309 9.3782 37.8257 8.8964L37.9054 8.71876L37.9455 8.62961L37.9921 8.54373L38.0846 8.37199L38.1798 8.20614C38.2458 8.09733 38.3047 7.98458 38.3669 7.87314C38.4245 7.75974 38.4853 7.64765 38.5403 7.53293C38.6523 7.30416 38.7571 7.07145 38.8491 6.8335C38.9429 6.5962 39.0251 6.35366 39.0827 6.10325C39.0536 6.35956 38.983 6.60865 38.9086 6.85513C38.8303 7.10095 38.7364 7.34152 38.6316 7.57685C38.5287 7.81349 38.4102 8.04226 38.2859 8.26776L38.1921 8.43623L38.1034 8.60338L38.0594 8.68664L37.9448 8.94622C37.9202 9.00456 37.8995 9.06421 37.8769 9.12321C37.8555 9.18286 37.8303 9.2412 37.8122 9.30216C37.774 9.42343 37.7332 9.54339 37.7015 9.66663C37.629 9.91048 37.5798 10.1609 37.5274 10.4106C37.4354 10.9128 37.3655 11.4214 37.3325 11.9341L37.3332 11.9354Z" fill="#0E0E0E"/>
<path d="M37.7973 5.49756C37.8044 5.41103 37.8134 5.32516 37.8186 5.23928C37.8257 5.15341 37.8316 5.06754 37.8335 4.98167C37.8387 4.81058 37.8406 4.63752 37.8109 4.47233C37.7953 4.39039 37.7675 4.31435 37.7131 4.25601C37.66 4.19571 37.5889 4.15179 37.5144 4.11442C37.4393 4.07771 37.3597 4.04953 37.2775 4.02724C37.196 4.00298 37.1125 3.9866 37.0283 3.97218C37.1992 3.97414 37.372 4.00233 37.5345 4.06788C37.6154 4.10066 37.6937 4.1472 37.7578 4.2134C37.8232 4.28027 37.8568 4.37269 37.8743 4.45922C37.9041 4.63556 37.8995 4.81123 37.8827 4.98429C37.8659 5.15735 37.8387 5.32909 37.7966 5.49756H37.7973Z" fill="#0E0E0E"/>
<path d="M27.4767 5.28189C27.4754 5.29173 27.5822 5.30025 27.5842 5.29042C28.2509 1.76178 29.8056 2.82961 29.8056 2.82961L28.981 1.75523L28.4677 1.0748C28.4677 1.0748 27.5991 4.37269 27.4761 5.28255L27.4767 5.28189Z" fill="#0E0E0E"/>
<path d="M42.7501 4.41465C42.7501 4.41465 43.7585 3.94202 42.7792 5.91315C42.7701 5.93216 42.796 6.13144 42.7863 6.15045C42.7863 6.15045 44.0776 3.81354 43.596 3.55396L42.7501 4.41465Z" fill="#0E0E0E"/>
<path d="M30.6056 15.3565C30.0554 15.2182 29.5104 15.0569 28.9706 14.8806C28.4321 14.6997 27.8994 14.4991 27.3758 14.2742C26.8528 14.0487 26.3434 13.7892 25.8528 13.4961C25.3641 13.2005 24.8929 12.8688 24.4702 12.4775C24.0515 12.0842 23.676 11.6312 23.4197 11.1075C23.2922 10.8459 23.1951 10.568 23.1408 10.2802C23.0857 9.99308 23.078 9.69613 23.12 9.40639C23.1421 9.26152 23.1751 9.11862 23.2288 8.97965C23.2883 8.84134 23.3641 8.71941 23.4463 8.59945C23.6126 8.36281 23.8133 8.14846 24.0469 7.97934C24.2806 7.81021 24.546 7.68763 24.823 7.61946C24.9615 7.58472 25.1039 7.56702 25.2456 7.5585C25.388 7.54997 25.5298 7.56046 25.6709 7.57423C25.388 7.55522 25.1026 7.57554 24.8314 7.65158C24.5602 7.72762 24.3052 7.8561 24.0825 8.0285C23.8599 8.20024 23.6676 8.41066 23.511 8.64468C23.434 8.76136 23.3608 8.88591 23.3103 9.01177C23.2631 9.14156 23.234 9.28053 23.2158 9.4195C23.1459 9.97931 23.2728 10.5516 23.5239 11.0544C23.7751 11.5598 24.144 11.999 24.557 12.3811C24.9699 12.7666 25.4308 13.0982 25.913 13.3932C26.3952 13.6895 26.9026 13.9426 27.4159 14.1812C27.9311 14.4158 28.458 14.6269 28.9907 14.819C29.5227 15.0156 30.0625 15.1887 30.6049 15.3558L30.6056 15.3565Z" fill="#0E0E0E"/>
<path d="M41.0238 5.20716C41.2135 5.18881 41.4018 5.16587 41.5896 5.13506C41.7773 5.1049 41.9637 5.06885 42.1455 5.01772C42.1883 5.00461 42.2446 4.99084 42.2964 4.99937C42.3488 5.00592 42.3986 5.02886 42.4388 5.06361C42.521 5.13112 42.5591 5.25043 42.5287 5.354C42.521 5.38022 42.5119 5.40382 42.5028 5.4248L42.4756 5.49166L42.4219 5.62538L42.3151 5.89349C42.1701 6.24943 42.0323 6.608 41.8989 6.96853C41.8316 7.14814 41.7675 7.32972 41.7067 7.51195C41.6439 7.69353 41.587 7.87708 41.5371 8.06324C41.6122 7.68501 41.73 7.31661 41.853 6.95149C41.9773 6.58702 42.1158 6.22715 42.2562 5.86923L42.3656 5.60244L42.4213 5.46937L42.4491 5.40251C42.4588 5.37957 42.4672 5.35793 42.4737 5.33892C42.4983 5.25698 42.4698 5.16325 42.4038 5.10753C42.3714 5.07934 42.3313 5.06099 42.2899 5.05443C42.2465 5.04722 42.2077 5.05443 42.1591 5.06754C41.7863 5.158 41.4057 5.19799 41.0251 5.20848L41.0238 5.20716Z" fill="#0E0E0E"/>
<path d="M23.1246 6.76008C26.8217 5.94331 26.9796 7.62667 26.9796 7.62667L27.2936 6.27565C27.2936 6.27565 23.9699 6.36153 23.1246 6.71288L23.0333 6.77057L23.1246 6.76008Z" fill="#0E0E0E"/>
<path d="M31.0949 4.16162C31.2638 4.24028 31.4373 4.30714 31.6127 4.36811C31.7875 4.43038 31.9648 4.48741 32.1428 4.54051L32.4101 4.61786L32.6788 4.69193C32.8587 4.73716 33.0386 4.78436 33.2199 4.82369C33.5804 4.91218 33.9454 4.98232 34.3098 5.05509L34.8581 5.15538C35.0412 5.1875 35.2244 5.217 35.4076 5.25108C35.2225 5.23207 35.038 5.20848 34.8529 5.18684L34.3008 5.10425C33.9338 5.04198 33.5681 4.97118 33.205 4.88727C32.8425 4.80075 32.482 4.7057 32.1273 4.58836C31.7739 4.47037 31.4218 4.34123 31.0943 4.16162H31.0949Z" fill="#0E0E0E"/>
<path d="M16.6682 11.1029C16.6494 11.1448 16.6287 11.1953 16.6106 11.2438C16.5912 11.2923 16.5737 11.3421 16.5569 11.3926C16.5213 11.4922 16.4928 11.5952 16.4617 11.6968C16.406 11.9026 16.3562 12.111 16.32 12.3221C16.2811 12.5325 16.2552 12.7456 16.2352 12.9593L16.2132 13.2805L16.2086 13.6023C16.2041 13.7098 16.2151 13.8167 16.2183 13.9242C16.2229 14.0317 16.2261 14.1392 16.2403 14.2454L16.2747 14.5659C16.2908 14.6721 16.3109 14.7777 16.329 14.8839L16.3569 15.0425C16.3666 15.0956 16.3821 15.1467 16.3937 15.1992L16.4714 15.5125C16.4973 15.6167 16.5361 15.7177 16.5672 15.8206C16.6022 15.9222 16.63 16.0264 16.6701 16.1261C16.9737 16.9317 17.4125 17.6842 17.9413 18.3647L18.1459 18.6157L18.2481 18.7409C18.2818 18.7829 18.3161 18.8248 18.3543 18.8635L18.7977 19.3355C18.9504 19.4875 19.1129 19.6305 19.2702 19.7786C19.4249 19.93 19.5957 20.0618 19.7634 20.1988C21.1006 21.2987 22.6353 22.1339 24.2159 22.832C25.801 23.5281 27.4476 24.0755 29.1156 24.5396C27.4411 24.1017 25.7848 23.5799 24.1841 22.9074C22.588 22.2322 21.0326 21.418 19.6624 20.3273C19.4909 20.1916 19.3155 20.0605 19.1569 19.9097C18.9951 19.7622 18.8287 19.62 18.6708 19.4679L18.2125 18.9953C18.1731 18.9566 18.1375 18.9146 18.1025 18.8727L17.9964 18.7462L17.7841 18.4938C17.2332 17.8075 16.7698 17.0425 16.4442 16.2152C16.4015 16.113 16.3704 16.0055 16.3329 15.9012C16.2986 15.7957 16.2572 15.6921 16.2287 15.5846L16.1433 15.2614C16.1297 15.2077 16.1135 15.1539 16.1025 15.0995L16.0708 14.9357C16.0507 14.8262 16.0274 14.7167 16.0093 14.6072L15.9678 14.2749C15.951 14.1641 15.9465 14.0527 15.94 13.9412C15.9348 13.8298 15.9219 13.7184 15.9251 13.6069V13.272L15.9426 12.937C15.9601 12.7141 15.9834 12.4919 16.0209 12.271C16.0552 12.0501 16.1044 11.8311 16.1594 11.6135C16.1905 11.5053 16.219 11.3972 16.2552 11.2903C16.2721 11.2366 16.2902 11.1828 16.3102 11.1297C16.3297 11.0753 16.3497 11.0249 16.3743 10.9665L16.6682 11.1042V11.1029Z" fill="#0E0E0E"/>
<path d="M34.5157 12.5771C34.5778 12.5325 34.6587 12.526 34.7331 12.528C34.8095 12.5312 34.8833 12.5535 34.9552 12.5771C35.0988 12.6289 35.2264 12.7128 35.348 12.8013C35.4671 12.8937 35.5804 12.9934 35.6827 13.1035C35.7332 13.1592 35.7869 13.2117 35.8335 13.2706C35.8801 13.3296 35.928 13.3873 35.9733 13.447C35.8626 13.3454 35.7591 13.2385 35.6484 13.1395C35.539 13.0393 35.4264 12.9429 35.3092 12.8537C35.1914 12.7666 35.0691 12.684 34.9364 12.6237C34.8697 12.5961 34.8011 12.5692 34.7293 12.5601C34.6587 12.5483 34.583 12.5463 34.5144 12.5778L34.5157 12.5771Z" fill="#0E0E0E"/>
<path d="M32.6807 13.5722L33.181 13.6567L33.6807 13.74C34.014 13.7944 34.3474 13.8475 34.682 13.8921C35.016 13.9426 35.3513 13.9806 35.6872 14.012C35.8548 14.0297 36.0231 14.0389 36.1914 14.0474L36.4445 14.0533L36.6976 14.0448C36.3616 14.0933 36.0205 14.0815 35.6833 14.0619C35.3455 14.0409 35.0089 14.0015 34.6736 13.9563C34.339 13.9065 34.0043 13.8541 33.6723 13.7892C33.3402 13.7249 33.0089 13.6554 32.6807 13.5722Z" fill="#0E0E0E"/>
<path d="M41.5837 10.7921C41.5837 10.7921 45.7928 11.6319 48.2097 16.5272C48.2097 16.5272 48.433 13.0484 41.7954 9.38607L41.5837 10.7921Z" fill="#0E0E0E"/>
<path d="M28.4114 1.98203C28.4062 1.97679 28.2431 1.82537 28.2431 1.82537C28.2431 1.82537 28.4043 0.945665 28.7661 0.745733C29.1279 0.545801 28.7454 1.09971 28.7454 1.09971L28.4114 1.98138V1.98203Z" fill="#0E0E0E"/>
<path d="M17.6993 12.8321C17.7996 13.1953 17.9213 13.5512 18.0572 13.9013C18.1918 14.252 18.3407 14.5968 18.5045 14.9343C18.6689 15.2713 18.843 15.6036 19.0339 15.9261C19.2242 16.2487 19.432 16.5607 19.6533 16.8616C19.8728 17.1644 20.1103 17.4535 20.3647 17.7268C20.4896 17.8658 20.6242 17.9949 20.7569 18.126C20.8249 18.1896 20.8948 18.2512 20.964 18.3142C20.999 18.345 21.0326 18.3778 21.0682 18.4079L21.1757 18.4971C21.7459 18.9782 22.3912 19.365 23.0767 19.6573L22.8178 19.5511L22.689 19.4974L22.5634 19.4358C22.4799 19.3945 22.3951 19.3545 22.3123 19.3119L22.0676 19.1749C21.7459 18.9848 21.4346 18.7743 21.1453 18.5357L21.0352 18.4479C20.999 18.4184 20.9647 18.3863 20.9291 18.3555C20.8592 18.2932 20.7886 18.2316 20.7194 18.1673C20.5854 18.0362 20.4488 17.9064 20.3226 17.7675C20.0656 17.4935 19.8242 17.2044 19.6028 16.9002C19.1588 16.2926 18.7789 15.6384 18.4611 14.956C18.1452 14.2729 17.8786 13.5643 17.7012 12.8315L17.6993 12.8321Z" fill="#0E0E0E"/>
<path d="M31.4205 10.7921C31.4321 10.6394 32.1448 7.19468 32.3079 6.82366L31.4205 10.7921Z" fill="#0E0E0E"/>
<path d="M47.0375 14.4289C47.2142 14.6086 47.3631 14.8039 47.4951 15.0143C47.6259 15.2247 47.7353 15.4502 47.8078 15.6902C47.8802 15.9294 47.9107 16.1844 47.8854 16.4355C47.8582 16.6865 47.7741 16.9304 47.6427 17.1428C47.5799 17.2509 47.501 17.3479 47.4213 17.443C47.3378 17.5341 47.2505 17.622 47.156 17.7013C46.9689 17.8612 46.7644 17.9969 46.5521 18.1175C46.3404 18.2381 46.1191 18.3411 45.8945 18.4335C45.6705 18.5272 45.4414 18.6065 45.211 18.6806C44.286 18.9703 43.332 19.1427 42.376 19.2719C41.4187 19.3984 40.4562 19.4731 39.4931 19.5236C40.4556 19.4626 41.4174 19.3774 42.3714 19.2398C43.3248 19.1008 44.275 18.9173 45.1909 18.619C45.4187 18.543 45.6459 18.4617 45.8666 18.366C46.088 18.2722 46.3048 18.168 46.5119 18.0467C46.7191 17.9261 46.9178 17.7904 47.0977 17.6338C47.1883 17.5557 47.2718 17.4705 47.3508 17.382C47.4259 17.2903 47.5003 17.1965 47.5586 17.0936C47.6809 16.8904 47.7573 16.6616 47.7799 16.4263C47.8013 16.191 47.7696 15.9517 47.699 15.7255C47.6278 15.4987 47.521 15.2831 47.3922 15.0818C47.2641 14.8819 47.1132 14.6905 46.9476 14.5253L47.0362 14.4303L47.0375 14.4289Z" fill="#0E0E0E"/>
<path d="M36.9151 5.42676C36.9617 5.56508 36.996 5.70732 37.0251 5.85088C37.0549 5.99378 37.0762 6.13865 37.0898 6.28483C37.1015 6.43101 37.1112 6.57785 37.1015 6.72468C37.0931 6.87086 37.0749 7.01835 37.0283 7.15732C37.0322 7.12061 37.0361 7.08456 37.0406 7.0485C37.0452 7.01245 37.0452 6.97574 37.0471 6.93969C37.0503 6.90364 37.051 6.86758 37.051 6.83153C37.051 6.79548 37.0529 6.75942 37.051 6.72337C37.049 6.57916 37.038 6.43494 37.0251 6.29073C37.0128 6.14652 36.9934 6.00296 36.9759 5.85875C36.9675 5.78664 36.9565 5.71453 36.9455 5.64308L36.9144 5.42676H36.9151Z" fill="#0E0E0E"/>
<path d="M41.097 11.881C41.0724 11.6332 41.0711 11.3841 41.0756 11.135C41.0808 10.8859 41.0996 10.6374 41.1196 10.3897C41.1475 10.1425 41.1753 9.89475 41.218 9.64959C41.2374 9.52701 41.2627 9.40508 41.2847 9.2825C41.3106 9.16123 41.3371 9.0393 41.3662 8.91869C41.3339 9.16516 41.297 9.41032 41.2672 9.6568C41.2355 9.90262 41.207 10.1491 41.1844 10.3956C41.1585 10.642 41.141 10.8892 41.1255 11.1363C41.1171 11.2602 41.1112 11.3841 41.1067 11.508C41.1009 11.6319 41.0983 11.7558 41.097 11.8803V11.881Z" fill="#0E0E0E"/>
<path d="M47.7534 23.751C47.7113 23.9424 47.6479 24.1096 47.5747 24.2787C47.5003 24.4459 47.4168 24.6084 47.3217 24.7631C47.1327 25.0738 46.9061 25.359 46.655 25.6173C46.1508 26.1345 45.5449 26.5363 44.9022 26.8424C44.2575 27.1466 43.574 27.3563 42.8815 27.5025C42.1876 27.6454 41.4821 27.7215 40.7766 27.7542C41.4815 27.7051 42.1831 27.6126 42.8711 27.4547C43.5572 27.2934 44.2304 27.0692 44.8601 26.7539C45.4873 26.4373 46.0718 26.0289 46.5501 25.515C46.7883 25.258 47.0013 24.9775 47.176 24.6746C47.2641 24.5239 47.3404 24.3665 47.4077 24.2059C47.4731 24.0467 47.5314 23.8762 47.5624 23.7169L47.7534 23.751Z" fill="#0E0E0E"/>
<path d="M5.44991 44.5144C6.04086 44.7845 6.64863 45.0107 7.26482 45.2093L7.72696 45.3581L8.19299 45.4925C8.50238 45.5869 8.81695 45.6622 9.13022 45.7442C10.3853 46.0582 11.6578 46.2935 12.9374 46.4764L13.8992 46.6009C13.9795 46.6108 14.0591 46.6226 14.14 46.6311L14.3814 46.6534L14.8643 46.6993L15.5886 46.7701L15.8306 46.7851L16.7989 46.8481L17.041 46.8645L17.162 46.8723L17.7679 46.892L18.7381 46.9267C19.3854 46.9412 20.0333 46.9333 20.6818 46.9464C20.3582 46.9628 20.0346 46.9772 19.7103 46.989L18.9808 47.0185L18.8591 47.0231H18.7375L17.7646 47.0211C17.4404 47.0205 17.1154 47.0205 16.7912 47.0021L15.8183 46.9582L15.575 46.9464L15.3322 46.9267L14.8468 46.8861L14.3614 46.8435L14.1186 46.8218C14.0377 46.814 13.9575 46.8022 13.8766 46.793L12.9096 46.6724C12.7484 46.654 12.5879 46.6259 12.428 46.599L11.9471 46.5197L11.4662 46.4397L10.9885 46.3427C10.67 46.2758 10.3509 46.2162 10.0357 46.1342L9.56194 46.0188C9.48297 45.9992 9.40401 45.9808 9.32569 45.9598L9.09074 45.8936C8.77811 45.8032 8.46354 45.7219 8.15545 45.617L7.69136 45.4662L7.23246 45.3011L7.00398 45.2165L6.77744 45.1254C6.62663 45.0638 6.47517 45.0061 6.32694 44.9386C6.02791 44.8107 5.73406 44.6711 5.44797 44.5157L5.44991 44.5144Z" fill="#0E0E0E"/>
<path d="M2.75797 40.112C3.3528 40.4457 3.96316 40.7485 4.58582 41.0245L5.05444 41.227L5.52629 41.4211L6.00267 41.6026C6.16125 41.6649 6.32306 41.7167 6.48293 41.7737L6.72307 41.8589L6.96579 41.9376C7.1276 41.9894 7.28877 42.0438 7.45123 42.0923C7.7781 42.1854 8.10367 42.2837 8.43377 42.3643C9.09074 42.5413 9.75871 42.6672 10.428 42.7904L9.92376 42.7144C9.75547 42.6888 9.58718 42.6646 9.42084 42.6292L8.91986 42.5289C8.75287 42.4954 8.58846 42.4515 8.42212 42.4135C8.08943 42.3408 7.76321 42.2398 7.43505 42.1493C7.27129 42.1015 7.11013 42.0477 6.94702 41.9966L6.70365 41.9193L6.46222 41.8347C5.81885 41.6092 5.18454 41.3562 4.56576 41.0691C4.41041 40.9983 4.25766 40.9222 4.10426 40.8488C3.95151 40.7728 3.7994 40.6961 3.64794 40.6167C3.34697 40.4561 3.04923 40.2896 2.75861 40.1107L2.75797 40.112Z" fill="#0E0E0E"/>
<path d="M23.1945 50.2102C23.6152 50.1951 24.0359 50.1892 24.4566 50.1781L25.7188 50.1597C26.1395 50.1519 26.5602 50.1532 26.9816 50.1506C27.1919 50.1492 27.403 50.1506 27.612 50.146C27.8211 50.1446 28.0289 50.1289 28.2366 50.1106C29.0683 50.0358 29.8865 49.8195 30.649 49.4714C31.0308 49.299 31.3972 49.0912 31.7435 48.8526C32.0923 48.6173 32.4166 48.3446 32.7176 48.047C32.4373 48.3656 32.1195 48.6501 31.7797 48.9051C31.438 49.1568 31.0723 49.377 30.6904 49.5632C30.3091 49.7507 29.9078 49.8969 29.4988 50.009C29.0897 50.123 28.6703 50.1977 28.2483 50.241C28.0366 50.2581 27.825 50.2712 27.6127 50.2712C27.401 50.2731 27.1913 50.2699 26.9809 50.2699C26.5602 50.2672 26.1395 50.2685 25.7181 50.2607L24.456 50.2423C24.0353 50.2318 23.6146 50.2253 23.1938 50.2102H23.1945Z" fill="#0E0E0E"/>
<path d="M18.8475 28.3907L19.3672 28.0656C16.5128 25.3046 14.8979 21.6422 15.1801 17.9071C15.4876 13.839 16.3433 11.2399 17.9536 9.47981C19.8346 7.42346 22.8132 6.42708 27.3279 6.34383L27.3175 5.78074C17.4954 5.96232 15.1788 10.5391 14.6254 17.8645C14.3316 21.7491 15.9426 25.5347 18.8475 28.3914V28.3907Z" fill="#0E0E0E"/>
</svg>
