<svg width="14" height="14" viewBox="0 0 14 14" fill="none" xmlns="http://www.w3.org/2000/svg">
<path d="M13.9066 0.723333C13.7882 0.438259 13.5617 0.211721 13.2766 0.0933333C13.1363 0.0335521 12.9857 0.00184332 12.8333 0H1.1666C0.857176 0 0.56043 0.122917 0.341638 0.341709C0.122845 0.560501 -7.12071e-05 0.857247 -7.12071e-05 1.16667C-7.12071e-05 1.47609 0.122845 1.77283 0.341638 1.99162C0.56043 2.21042 0.857176 2.33333 1.1666 2.33333H10.0216L0.338262 12.005C0.228912 12.1135 0.142119 12.2425 0.0828891 12.3847C0.023659 12.5268 -0.00683594 12.6793 -0.00683594 12.8333C-0.00683594 12.9873 0.023659 13.1398 0.0828891 13.282C0.142119 13.4242 0.228912 13.5532 0.338262 13.6617C0.446719 13.771 0.575753 13.8578 0.717923 13.917C0.860092 13.9763 1.01258 14.0068 1.1666 14.0068C1.32061 14.0068 1.4731 13.9763 1.61527 13.917C1.75744 13.8578 1.88647 13.771 1.99493 13.6617L11.6666 3.97833V12.8333C11.6666 13.1428 11.7895 13.4395 12.0083 13.6583C12.2271 13.8771 12.5238 14 12.8333 14C13.1427 14 13.4394 13.8771 13.6582 13.6583C13.877 13.4395 13.9999 13.1428 13.9999 12.8333V1.16667C13.9981 1.01421 13.9664 0.863593 13.9066 0.723333Z" fill="#0E0E0E"/>
</svg>
