<svg width="18" height="18" viewBox="0 0 18 18" fill="none" xmlns="http://www.w3.org/2000/svg">
<path d="M17.267 1.18366C17.1824 0.980034 17.0206 0.818221 16.817 0.733659C16.7168 0.690958 16.6092 0.668309 16.5003 0.666992H11.5003C11.2793 0.666992 11.0674 0.75479 10.9111 0.91107C10.7548 1.06735 10.667 1.27931 10.667 1.50033C10.667 1.72134 10.7548 1.9333 10.9111 2.08958C11.0674 2.24586 11.2793 2.33366 11.5003 2.33366H14.492L2.33366 14.492V11.5003C2.33366 11.2793 2.24586 11.0674 2.08958 10.9111C1.9333 10.7548 1.72134 10.667 1.50033 10.667C1.27931 10.667 1.06735 10.7548 0.91107 10.9111C0.75479 11.0674 0.666992 11.2793 0.666992 11.5003V16.5003C0.668309 16.6092 0.690958 16.7168 0.733659 16.817C0.818221 17.0206 0.980034 17.1824 1.18366 17.267C1.28384 17.3097 1.39143 17.3323 1.50033 17.3337H6.50033C6.72134 17.3337 6.9333 17.2459 7.08958 17.0896C7.24586 16.9333 7.33366 16.7213 7.33366 16.5003C7.33366 16.2793 7.24586 16.0674 7.08958 15.9111C6.9333 15.7548 6.72134 15.667 6.50033 15.667H3.50866L15.667 3.50866V6.50033C15.667 6.72134 15.7548 6.9333 15.9111 7.08958C16.0674 7.24586 16.2793 7.33366 16.5003 7.33366C16.7213 7.33366 16.9333 7.24586 17.0896 7.08958C17.2459 6.9333 17.3337 6.72134 17.3337 6.50033V1.50033C17.3323 1.39143 17.3097 1.28384 17.267 1.18366Z" fill="white"/>
</svg>
