<svg xmlns="http://www.w3.org/2000/svg" width="1296" height="890" viewBox="0 0 1296 890" fill="none">
    <g clip-path="url(#clip0_3682_2237)">
        <path opacity="0.3" d="M489 1225C680.36 1225 863.882 1149.04 999.194 1013.82C1134.51 878.61 1210.52 695.221 1210.52 504C1210.52 312.779 1134.51 129.39 999.194 -5.82393C863.883 -141.038 680.36 -217 489 -217L489 1225Z" fill="#FFD504"></path>
        <path opacity="0.1" d="M574 1283C765.36 1283 948.882 1207.04 1084.19 1071.82C1219.51 936.61 1295.52 753.221 1295.52 562C1295.52 370.779 1219.51 187.39 1084.19 52.1761C948.883 -83.0377 765.36 -159 574 -159L574 1283Z" fill="#FFD504"></path>
        <path d="M854.004 1083.23C594.267 1032.38 359.486 894.864 188.096 693.185C16.7052 491.507 -81.1416 237.619 -89.4272 -26.9191L571.205 -47.6108C574.804 67.2924 617.304 177.57 691.749 265.17C766.193 352.77 868.171 412.502 980.989 434.589L854.004 1083.23Z" fill="#F3CB03"></path>
        <path d="M833 809.5C671.592 757.157 543.866 1001.05 426.469 878.536C309.073 756.018 223.863 606.322 178.455 442.827C133.048 279.332 128.858 107.134 166.26 -58.3757C203.662 -223.885 544.201 195.082 655.5 66.9999L1004 101.5C996.521 110.107 1018.51 175.346 1016 186.469C1013.49 197.591 1040.95 210.013 1044 221C1047.05 231.987 1033.11 284.767 1041 293C1048.89 301.233 1077.15 375.982 1088 379.5L833 809.5Z" fill="#FFD504"></path>
        <path d="M438.5 762.5C621.234 762.5 787.984 1033.46 917.197 904.343C1046.41 775.224 1119 600.101 1119 417.5C1119 234.898 1046.41 59.7757 917.197 -69.3431C787.984 -198.462 549.234 21.9998 366.5 21.9998L438.5 762.5Z" fill="#FFD504"></path>
    </g>
    <defs>
        <clipPath id="clip0_3682_2237">
            <rect width="1296" height="890" fill="white"></rect>
        </clipPath>
    </defs>
</svg>