<svg xmlns="http://www.w3.org/2000/svg" width="760" height="546" viewBox="0 0 760 546" fill="none">
    <g clip-path="url(#clip0_4384_6667)">
        <path opacity="0.3" d="M-227 662C-227 511.622 -167.263 367.404 -60.9296 261.07C45.4036 154.737 189.622 95 340 95C490.378 94.9999 634.596 154.737 740.929 261.07C847.263 367.403 907 511.622 907 662L-227 662Z" fill="#FFD504"></path>
        <path opacity="0.1" d="M-344 675C-344 503.405 -275.781 338.838 -154.352 217.502C-32.9218 96.1659 131.772 28 303.5 28C475.228 28 639.922 96.1658 761.352 217.502C882.781 338.838 951 503.405 951 675L-344 675Z" fill="#FFD504"></path>
        <path d="M-31.0873 1173.61C119.833 1390.09 -22.1531 1143.14 230.803 1218.32C483.759 1293.5 778.469 1233.3 1023.12 1134.4L776.121 523.417C669.853 566.379 552.149 571.991 442.277 539.336C332.404 506.681 34.4658 550.101 -31.0871 456.073L-31.0873 1173.61Z" fill="#F3CB03"></path>
        <path d="M81.989 443.655C-129.548 584.187 -127.209 710.54 -17.3706 815.891C142.163 1008.75 497.615 1062.79 678.607 1018.07C825.183 1058.82 790.517 1051.63 938.899 1018.07C1087.28 984.503 632.824 702.821 747.652 602.942L716.722 290.2C709.005 296.912 650.517 277.176 640.546 279.432C630.574 281.687 619.438 257.043 609.588 254.305C599.738 251.566 552.42 264.077 545.039 256.997C537.658 249.917 470.644 224.553 467.49 214.819L81.989 443.655Z" fill="#FFD504"></path>
        <path d="M67.5 801.5C67.5 637.515 -118.796 484.052 -3.03909 368.097C112.718 252.143 269.718 187 433.423 187C597.128 187 754.128 252.143 869.885 368.097C985.642 484.052 787.995 698.305 787.995 862.289L67.5 801.5Z" fill="#FFD504"></path>
    </g>
    <defs>
        <clipPath id="clip0_4384_6667">
            <rect width="546" height="760" fill="white" transform="matrix(-4.37114e-08 -1 -1 4.37114e-08 760 546)"></rect>
        </clipPath>
    </defs>
</svg>