<svg xmlns="http://www.w3.org/2000/svg" width="80" height="80" viewBox="0 0 80 80" fill="none">
    <path d="M62.3668 24.0329C62.0569 23.7204 61.6883 23.4725 61.2821 23.3032C60.8759 23.134 60.4402 23.0469 60.0002 23.0469C59.5601 23.0469 59.1244 23.134 58.7182 23.3032C58.312 23.4725 57.9434 23.7204 57.6335 24.0329L32.8002 48.8995L22.3668 38.4329C22.0451 38.1221 21.6653 37.8777 21.2491 37.7137C20.8329 37.5497 20.3885 37.4692 19.9412 37.477C19.494 37.4847 19.0526 37.5805 18.6423 37.7588C18.2321 37.9371 17.861 38.1945 17.5502 38.5162C17.2394 38.8379 16.995 39.2177 16.831 39.6339C16.667 40.0501 16.5865 40.4945 16.5943 40.9418C16.602 41.3891 16.6978 41.8304 16.8761 42.2407C17.0544 42.6509 17.3118 43.0221 17.6335 43.3329L30.4335 56.1329C30.7434 56.4453 31.112 56.6933 31.5182 56.8625C31.9244 57.0317 32.3601 57.1189 32.8002 57.1189C33.2402 57.1189 33.6759 57.0317 34.0821 56.8625C34.4883 56.6933 34.857 56.4453 35.1668 56.1329L62.3668 28.9329C62.7052 28.6207 62.9752 28.2419 63.1599 27.8202C63.3446 27.3986 63.4399 26.9432 63.4399 26.4829C63.4399 26.0225 63.3446 25.5672 63.1599 25.1455C62.9752 24.7238 62.7052 24.345 62.3668 24.0329Z" fill="#0E0E0E"></path>
</svg>