<svg width="58" height="54" viewBox="0 0 58 54" fill="none" xmlns="http://www.w3.org/2000/svg">
<path d="M15.8461 44.1476C15.8867 43.8716 15.9603 43.6005 16.0436 43.3334C16.1269 43.0664 16.226 42.8034 16.3334 42.5446C16.5516 42.0284 16.8076 41.5274 17.0919 41.0435C17.3741 40.5576 17.69 40.0923 18.021 39.6387C18.189 39.4137 18.359 39.19 18.5359 38.9711C18.7162 38.7502 18.8821 38.543 19.0383 38.318C19.6598 37.4239 20.037 36.3777 20.1712 35.3033C20.2393 34.7658 20.2538 34.2227 20.2194 33.679L20.2056 33.4739C20.2008 33.403 20.1946 33.3376 20.1912 33.255C20.1912 33.2323 20.1912 33.2006 20.1912 33.1841L20.1939 33.1291C20.1953 33.0919 20.1987 33.0554 20.2015 33.0182C20.207 32.9446 20.2152 32.871 20.2242 32.7973C20.262 32.5034 20.3309 32.2123 20.43 31.9301C20.6289 31.3657 20.9655 30.8454 21.3984 30.429C21.8327 30.0139 22.353 29.7015 22.8912 29.4771C23.8947 29.0517 24.8473 28.5087 25.6017 27.7619C25.9775 27.3889 26.3051 26.9711 26.5714 26.5134C26.705 26.2849 26.824 26.0474 26.93 25.8031C26.983 25.6812 27.0326 25.5574 27.0787 25.4314C27.1007 25.3681 27.1255 25.3061 27.1455 25.2421L27.1771 25.1471C27.1881 25.1148 27.1992 25.0824 27.2053 25.0584C27.237 24.9503 27.2611 24.8181 27.2831 24.6888C27.3045 24.558 27.323 24.4238 27.3389 24.2896C27.3712 24.0198 27.3953 23.7465 27.4153 23.4726C27.4545 22.9247 27.4772 22.3727 27.4793 21.8248C27.48 21.5509 27.4786 21.2784 27.4628 21.0099C27.4483 20.7394 27.4221 20.4641 27.4036 20.1799C27.385 19.8956 27.3719 19.6024 27.3891 19.303C27.4056 19.0043 27.4497 18.7022 27.5275 18.4096C27.6816 17.8212 27.9645 17.2871 28.2894 16.8046C28.6184 16.3228 28.9893 15.8816 29.3858 15.4721C29.7809 15.0612 30.1952 14.6744 30.6192 14.302C31.0438 13.9297 31.4754 13.5718 31.9166 13.2214C32.3571 12.8718 32.8065 12.5332 33.2621 12.2055C33.7178 11.8786 34.1789 11.5634 34.6222 11.2378C35.0661 10.913 35.4839 10.5695 35.8487 10.1758C36.0324 9.97965 36.2011 9.77042 36.3587 9.55155C36.517 9.33268 36.6663 9.10555 36.8054 8.87016C37.0855 8.40075 37.3326 7.90726 37.5639 7.40482C37.7965 6.90238 38.0099 6.39237 38.2039 5.8741C38.4001 5.35652 38.5749 4.83068 38.7346 4.29864C38.8964 3.7673 39.0361 3.22769 39.2047 2.69221C39.2894 2.42447 39.3816 2.15742 39.5 1.89863C39.619 1.64122 39.767 1.39069 39.9694 1.18558C40.1697 0.979786 40.4195 0.827678 40.6831 0.729255C40.9474 0.629455 41.2234 0.574393 41.5001 0.539291C41.2262 0.5916 40.955 0.66318 40.7031 0.776746C40.4512 0.888934 40.2227 1.04999 40.0458 1.25578C39.8661 1.45951 39.7374 1.70316 39.6362 1.95645C39.5351 2.21111 39.4587 2.47678 39.3885 2.74452C39.2515 3.28137 39.1311 3.82718 38.992 4.36954C38.8537 4.91258 38.6995 5.45288 38.5233 5.98629C38.3464 6.5197 38.1441 7.04623 37.9259 7.56381C37.7077 8.08208 37.4723 8.59554 37.197 9.09385C37.06 9.34369 36.9127 9.58872 36.7489 9.82548C36.5865 10.0629 36.4103 10.2928 36.2176 10.5089C35.8342 10.9432 35.3937 11.3218 34.9464 11.6659C34.0482 12.3508 33.1493 12.9867 32.2944 13.6908C31.4403 14.3929 30.6054 15.1231 29.8593 15.9195C29.6728 16.1184 29.4952 16.3235 29.3218 16.5306C29.1525 16.7406 28.988 16.9539 28.8407 17.1749C28.5461 17.6167 28.3038 18.0855 28.1779 18.5796C28.1139 18.8267 28.0774 19.0786 28.0643 19.3374C28.0505 19.5955 28.0629 19.8605 28.0822 20.1324C28.1015 20.4043 28.129 20.6837 28.1462 20.9707C28.1641 21.2591 28.1682 21.5447 28.1669 21.8283C28.1614 22.3954 28.1359 22.9591 28.0925 23.5228C28.0705 23.805 28.0437 24.0872 28.0092 24.3708C27.9914 24.5126 27.9714 24.655 27.9473 24.7996C27.9218 24.9448 27.8964 25.0873 27.8496 25.2476C27.8372 25.2903 27.8255 25.3233 27.8145 25.3578L27.7794 25.461C27.7573 25.5298 27.7305 25.5973 27.7057 25.6661C27.6548 25.8024 27.6004 25.9373 27.5419 26.0708C27.4249 26.3379 27.2928 26.5994 27.1434 26.8513C26.8454 27.3558 26.4799 27.8245 26.0559 28.2292C25.6333 28.6353 25.1605 28.9822 24.6649 29.2782C24.1687 29.5741 23.6504 29.8212 23.1232 30.036C22.6297 30.2328 22.1761 30.5012 21.7962 30.8509C21.417 31.1991 21.1203 31.6327 20.9359 32.1166C20.8436 32.3582 20.7776 32.6115 20.7376 32.8696C20.728 32.9343 20.7191 32.999 20.7129 33.0644C20.7101 33.0967 20.706 33.1297 20.7039 33.1621L20.7005 33.211C20.6991 33.2289 20.7005 33.2316 20.6991 33.244C20.6991 33.3011 20.7039 33.3748 20.7074 33.4429L20.717 33.6549C20.7383 34.2248 20.7136 34.8022 20.6199 35.3687C20.4396 36.5009 20.0012 37.6001 19.315 38.5169C19.1436 38.7433 18.9509 38.9636 18.7699 39.1673C18.5868 39.3745 18.4092 39.5878 18.2344 39.8026C17.8882 40.2348 17.5606 40.6822 17.2557 41.1447C16.9508 41.6072 16.6727 42.089 16.4291 42.588C16.3072 42.8372 16.193 43.0911 16.0932 43.3506C15.9941 43.6101 15.9039 43.8744 15.8461 44.1476Z" fill="#0E0E0E"/>
<path d="M44.5464 1.72175C39.2288 3.42729 41.5751 10.7044 38.2721 14.0632C36.5872 15.7763 34.1975 16.5031 32.5746 18.38C31.1712 20.003 31.39 21.8469 31.7844 23.7665C32.8299 28.8535 26.1523 31.0422 24.0661 34.8098C22.9229 36.874 23.5224 39.3022 22.1534 41.3698C21.0116 43.0932 19.315 44.3059 18.9729 46.4492C18.9557 46.5593 19.1243 46.5697 19.1429 46.463C19.5848 44.0203 21.7315 43.0278 22.7605 40.9761C23.8122 38.8789 23.4556 36.4947 24.5872 34.4395C26.3952 31.1572 30.551 29.9726 31.8939 26.3103C32.5057 24.6433 31.6936 22.9536 31.653 21.2797C31.5759 18.0875 35.4488 16.2127 37.6967 14.7583C42.2792 11.7939 38.8378 3.726 44.5718 1.77956C44.6097 1.76648 44.5829 1.71142 44.5457 1.72312" fill="#0E0E0E"/>
<path d="M47.5466 3.46308C43.5615 5.71305 43.8746 10.9563 41.8456 14.5959C39.873 18.1336 36.0524 19.9259 35.3579 24.2104C35.1625 25.4176 35.4151 26.5161 35.1102 27.7412C34.7385 29.2341 33.4535 30.484 32.428 31.5281C30.8291 33.1573 29.0327 34.624 27.6273 36.4321C26.7497 37.5615 26.7724 39.2513 26.6458 40.5968C26.3443 43.798 23.243 45.785 21.6985 48.2993C21.6496 48.3785 21.9407 48.5402 21.9793 48.4913C23.2498 46.8457 25.0923 44.944 26.2548 43.2439C27.0952 42.0147 27.0346 40.2527 27.1847 38.8348C27.4979 35.878 30.6914 33.7568 32.6544 31.7952C33.8224 30.6286 34.8349 29.4144 35.4295 27.8534C36.0944 26.1107 35.5149 24.1808 36.1701 22.3665C36.9988 20.0718 39.1193 18.4117 40.7024 16.6628C44.0901 12.92 43.0611 6.20723 47.6044 3.58766C47.6808 3.54361 47.6236 3.41765 47.5459 3.4617" fill="#0E0E0E"/>
<path d="M47.5466 3.46308C47.0696 3.75422 46.6325 4.10524 46.2499 4.50581C45.8665 4.90639 45.5396 5.35514 45.2622 5.83212C44.704 6.78606 44.3427 7.83912 44.0371 8.90388C43.7335 9.97208 43.4768 11.0589 43.1547 12.1401C42.993 12.6804 42.8133 13.2194 42.5979 13.7486C42.3831 14.2779 42.1257 14.7996 41.8256 15.2904C41.2262 16.2753 40.4814 17.1501 39.7305 17.9843C38.9789 18.8192 38.2129 19.621 37.5618 20.4855C37.2369 20.9177 36.941 21.3637 36.6911 21.8297C36.4406 22.2949 36.2362 22.7802 36.0896 23.2812C36.0159 23.5318 35.9554 23.7857 35.9086 24.0432C35.8604 24.304 35.8315 24.5483 35.8177 24.8092C35.7895 25.3268 35.8211 25.8767 35.8115 26.4638C35.806 26.757 35.7888 27.0592 35.7461 27.3648L35.709 27.594C35.6952 27.6704 35.6773 27.7461 35.6615 27.8225C35.6271 27.976 35.5837 28.1322 35.5321 28.2809C35.327 28.8817 35.0138 29.4165 34.6669 29.9011C34.3173 30.3856 33.9305 30.8227 33.5395 31.2391C33.3441 31.4469 33.1472 31.65 32.9538 31.8502C32.7604 32.0498 32.5587 32.257 32.3591 32.4552C31.558 33.255 30.7389 34.0135 29.9626 34.7919C29.5751 35.1808 29.1986 35.5759 28.8421 35.982C28.6631 36.185 28.4903 36.3908 28.3231 36.6007L28.1985 36.7583L28.1373 36.8361L28.0891 36.9022C28.0265 36.9916 27.9686 37.0859 27.9156 37.1857C27.7064 37.5863 27.5811 38.066 27.502 38.5754C27.4221 39.0861 27.3891 39.6257 27.3492 40.188C27.3389 40.3284 27.3285 40.4709 27.3155 40.6161C27.3024 40.7655 27.2838 40.9265 27.2577 41.08C27.2081 41.3904 27.1324 41.696 27.0367 41.992C26.8454 42.5859 26.5701 43.14 26.2548 43.65C25.6189 44.6714 24.8391 45.5283 24.1012 46.3618C23.7316 46.7782 23.3689 47.1884 23.0344 47.6069C22.8672 47.8161 22.7075 48.0267 22.5581 48.2408C22.4838 48.3475 22.4122 48.4555 22.3427 48.5636L22.2918 48.6448C22.309 48.6077 22.2333 48.7604 22.3358 48.5519C22.3943 48.4053 22.3833 48.2463 22.3585 48.1596C22.3358 48.0729 22.3041 48.0185 22.2849 47.9875C22.2615 47.9517 22.247 47.9345 22.2339 47.9194C22.2078 47.8905 22.1947 47.8808 22.1858 47.8726C22.1761 47.865 22.1713 47.8622 22.1672 47.8595C22.1575 47.854 22.1582 47.8526 22.1266 47.8409C22.1183 47.8382 22.1066 47.834 22.088 47.8292C22.0695 47.8251 22.044 47.8182 21.9924 47.8141C21.9435 47.8182 21.8568 47.7886 21.6441 47.8912C21.3192 48.1369 21.4734 48.0536 21.4438 48.057L21.5099 47.9724L21.6427 47.8031L21.9118 47.4699C22.0922 47.2497 22.2739 47.0329 22.4563 46.8174L23.5499 45.5428C24.2726 44.6989 24.9884 43.8579 25.6037 42.9838L25.6615 42.9019L25.6905 42.8612L25.7132 42.8268C25.7441 42.7814 25.7724 42.7332 25.8013 42.6857C25.8563 42.588 25.9086 42.4868 25.9548 42.3808C26.0477 42.1675 26.122 41.9376 26.1812 41.696C26.3003 41.2121 26.3601 40.687 26.4063 40.1439L26.4716 39.3111C26.4833 39.1693 26.4957 39.0255 26.5102 38.881L26.5219 38.7715L26.5363 38.6525C26.5467 38.5733 26.5591 38.4942 26.5728 38.4157C26.685 37.7852 26.9135 37.1885 27.2074 36.6496C27.5013 36.1086 27.8565 35.6206 28.2357 35.1684C28.6156 34.7162 29.0217 34.3005 29.4353 33.9034C29.8497 33.5069 30.2723 33.1291 30.6914 32.7581C31.1113 32.3878 31.5284 32.0244 31.9255 31.6534C32.0246 31.5605 32.1224 31.4676 32.218 31.3733C32.3144 31.2769 32.4128 31.1819 32.5071 31.0849C32.6991 30.8922 32.8829 30.6946 33.0646 30.4964C33.4232 30.0965 33.7591 29.6836 34.053 29.2479C34.1287 29.1405 34.1961 29.0283 34.2677 28.9182C34.3338 28.8053 34.404 28.6952 34.4652 28.5796C34.594 28.3524 34.7061 28.1177 34.8108 27.8796L34.8858 27.6993C34.9126 27.638 34.9298 27.5843 34.9525 27.5258C34.9925 27.4102 35.0289 27.2932 35.0592 27.1727C35.1205 26.9318 35.1645 26.6813 35.1941 26.4218C35.3166 25.3867 35.221 24.2345 35.4653 23.0424C35.5266 22.7464 35.6092 22.4484 35.7207 22.1621C35.8273 21.8806 35.9533 21.608 36.0937 21.3458C36.3738 20.8207 36.7104 20.3361 37.0724 19.8846C37.7992 18.9809 38.6231 18.1997 39.4188 17.4226C39.6177 17.2286 39.8159 17.0345 40.0093 16.839C40.2013 16.6442 40.3982 16.4432 40.5716 16.2485C40.9219 15.8499 41.2289 15.4094 41.5001 14.9428C42.0438 14.0088 42.4382 12.9764 42.7878 11.9254C43.1389 10.873 43.4403 9.79451 43.8175 8.73388C44.194 7.676 44.6359 6.62226 45.2787 5.68758C45.6015 5.22299 45.9718 4.79076 46.3958 4.4184C46.6071 4.23188 46.8301 4.05981 47.0634 3.90357C47.1797 3.82511 47.3002 3.75284 47.4206 3.68264L47.603 3.58077C47.6312 3.56494 47.6415 3.5264 47.6278 3.49543C47.6216 3.48029 47.6092 3.46652 47.5941 3.46033C47.5782 3.45344 47.5596 3.4562 47.5445 3.46445C47.5596 3.45551 47.5782 3.45138 47.5954 3.45688C47.6126 3.46239 47.6264 3.47616 47.6347 3.49267C47.6519 3.52433 47.645 3.57114 47.6119 3.59316L47.4364 3.7081C47.3215 3.78657 47.2072 3.86572 47.0971 3.95175C46.8762 4.12038 46.667 4.30346 46.4708 4.49893C46.0778 4.88918 45.7419 5.33312 45.4563 5.8039C44.8795 6.74614 44.501 7.7937 44.185 8.85433C43.8726 9.91909 43.6103 11.0024 43.3034 12.0851C42.9943 13.1657 42.6364 14.2504 42.0989 15.2745C41.8284 15.7846 41.5111 16.276 41.1401 16.7309C40.9502 16.9601 40.7629 17.1652 40.5709 17.3752C40.3789 17.583 40.1855 17.7874 39.9921 17.9905C39.2178 18.7999 38.4407 19.5859 37.7937 20.4462C37.4716 20.8757 37.1825 21.3231 36.9485 21.7897C36.8315 22.0231 36.7297 22.2612 36.6443 22.5042C36.5597 22.7409 36.4991 22.9846 36.4537 23.2365C36.3621 23.7396 36.3429 24.271 36.3353 24.8209C36.3277 25.3708 36.3325 25.9428 36.2782 26.5361C36.2513 26.832 36.2059 27.1342 36.1364 27.4357C36.102 27.5864 36.0593 27.7371 36.0111 27.8865C35.9609 28.0393 35.9058 28.1755 35.8514 28.3146C35.7379 28.5899 35.6147 28.8624 35.4736 29.1247C35.4061 29.2575 35.3304 29.3848 35.2575 29.5142C35.1797 29.6402 35.1053 29.7689 35.0227 29.8914C34.7006 30.3877 34.3379 30.8488 33.958 31.2865C33.7667 31.504 33.5732 31.7181 33.375 31.9246C33.2766 32.0292 33.1761 32.1297 33.077 32.2329C32.9751 32.3362 32.8726 32.4373 32.7693 32.5371C31.9448 33.3335 31.0975 34.0527 30.3212 34.8153C29.9337 35.1959 29.5641 35.5855 29.2302 35.993C28.8964 36.3997 28.5991 36.8251 28.3651 37.269C28.1311 37.713 27.9611 38.1741 27.8805 38.6456C27.8709 38.7048 27.8613 38.7633 27.8544 38.8225L27.8441 38.9112L27.8344 39.0104C27.822 39.1432 27.811 39.2781 27.8014 39.4144L27.7415 40.252C27.6968 40.8212 27.6383 41.4104 27.4958 42.0133C27.4242 42.3141 27.3299 42.6183 27.2019 42.9191C27.1379 43.0691 27.0642 43.2171 26.9823 43.363C26.9404 43.4353 26.8977 43.5075 26.8502 43.5777L26.8158 43.6307L26.7841 43.6755L26.7215 43.765C26.0525 44.7189 25.3181 45.5813 24.5906 46.4355L23.5059 47.706C23.3276 47.9173 23.1514 48.1286 22.9787 48.3413L22.7226 48.6606L22.534 48.9009C22.4934 48.9174 22.6393 48.8499 22.2986 49.1046C22.0701 49.2147 21.9655 49.1865 21.8994 49.1892C21.8306 49.1837 21.7873 49.1741 21.7522 49.1651C21.7171 49.1562 21.6888 49.1473 21.6641 49.1383C21.5663 49.1025 21.5051 49.0688 21.4362 49.0261C21.4025 49.0048 21.3695 48.9821 21.3323 48.9525C21.2951 48.9229 21.2559 48.8891 21.207 48.8348C21.1823 48.8066 21.1561 48.7756 21.1238 48.7247C21.0949 48.6792 21.0556 48.6083 21.0281 48.5051C20.9985 48.4012 20.9882 48.2243 21.0529 48.0618C21.1616 47.8368 21.0976 47.9765 21.1231 47.9242L21.183 47.8285C21.2642 47.7019 21.3475 47.5766 21.4328 47.4548C21.6035 47.2111 21.7818 46.9771 21.9641 46.7507C22.3289 46.2971 22.7075 45.8718 23.0798 45.454C23.8239 44.6205 24.5514 43.8118 25.0999 42.9349C25.3738 42.4978 25.6003 42.0443 25.7552 41.5756C25.8322 41.3415 25.8935 41.1034 25.9334 40.8625C25.9548 40.7407 25.9685 40.6244 25.9816 40.4957C25.9947 40.3628 26.0057 40.2265 26.0167 40.0889C26.0607 39.5383 26.0986 38.9615 26.195 38.3689C26.292 37.7783 26.4462 37.1596 26.7628 36.5718C26.8426 36.4252 26.9321 36.2827 27.0312 36.1444L27.1076 36.0418L27.1764 35.9558L27.3134 35.7865C27.4972 35.5614 27.6858 35.3425 27.8792 35.1285C28.2646 34.7004 28.6645 34.2915 29.0699 33.8944C29.88 33.0995 30.7128 32.3541 31.5064 31.5894C31.7066 31.3974 31.8973 31.2081 32.0962 31.0099C32.2944 30.8123 32.4892 30.6175 32.6799 30.4214C33.0598 30.0304 33.4198 29.634 33.7322 29.2183C34.044 28.8033 34.3069 28.3669 34.4728 27.9119C34.5155 27.7977 34.5492 27.6855 34.5788 27.5671C34.5926 27.5065 34.6084 27.4474 34.6208 27.3868L34.6552 27.203C34.6958 26.9559 34.7165 26.6999 34.7268 26.4356C34.7495 25.907 34.7254 25.3385 34.7736 24.7411C34.7963 24.4444 34.8417 24.1347 34.9037 23.8477C34.9649 23.5565 35.0413 23.2688 35.1329 22.986C35.3153 22.4202 35.5624 21.8772 35.8549 21.3665C36.146 20.8551 36.486 20.3795 36.846 19.93C37.5694 19.0311 38.3753 18.2389 39.1448 17.4405C39.9164 16.6442 40.6535 15.832 41.2523 14.9283C41.8573 14.0336 42.2833 13.0225 42.6447 11.977C43.0074 10.9322 43.3041 9.85301 43.6709 8.79032C44.0364 7.72969 44.4604 6.66975 45.0839 5.72268C45.3971 5.2519 45.7598 4.81278 46.1735 4.4301C46.5857 4.04605 47.0503 3.72187 47.5459 3.46445L47.5466 3.46308Z" fill="#0E0E0E"/>
<path d="M51.6679 6.38549C47.7221 7.80058 47.0772 12.145 45.649 15.5912C44.651 18.0001 42.7885 19.8075 41.2613 21.8675C39.968 23.6123 39.5124 25.6998 39.0058 27.7674C38.3285 30.5315 36.8308 32.0147 34.7096 33.7148C33.0915 35.0108 31.8216 37.1114 30.8635 38.9078C29.5592 41.3539 29.8173 44.01 27.8441 46.1946C26.5315 47.6482 25.1736 48.5409 24.4165 50.4123C24.3449 50.5892 24.6229 50.6855 24.6952 50.5093C25.5218 48.5037 27.204 47.3887 28.5963 45.836C29.8635 44.4223 30.0995 42.2969 30.5655 40.5411C31.2214 38.0695 33.1032 35.7011 34.8844 33.9206C35.9973 32.8076 37.5294 32.2632 38.2273 30.7463C39.0939 28.8618 39.4215 26.8362 40.0072 24.8588C40.7258 22.4333 42.558 20.5901 44.066 18.6409C46.9918 14.8609 46.669 8.26723 51.681 6.41302C51.7003 6.40683 51.6865 6.37792 51.6679 6.3848" fill="#0E0E0E"/>
<path d="M54.5814 9.47928C51.0423 11.1724 49.184 14.0067 48.1247 17.7042C47.3243 20.5006 46.6339 23.0066 44.1747 24.8188C42.5573 26.0102 41.7554 27.6236 41.0073 29.4495C40.2288 31.3492 40.0224 33.4016 39.3513 35.3288C38.4125 38.0261 35.444 39.2623 33.4803 41.0669C32.4231 42.0388 32.1465 43.5344 31.9586 44.8855C31.5463 47.8526 30.9785 50.0289 28.8689 52.2486C28.7677 52.3553 28.9164 52.5336 29.0196 52.4255C29.9928 51.4048 30.7988 50.3442 31.388 49.055C32.258 47.1526 32.0301 44.9391 32.6103 42.9535C33.3392 40.4578 36.4915 39.254 38.217 37.5271C39.341 36.4018 39.7739 34.8552 40.0974 33.3452C40.6067 30.9672 41.3356 28.7778 42.5456 26.6558C43.6496 24.7197 45.8706 24.1168 46.8204 21.9756C47.6305 20.1489 48.0586 18.21 48.6395 16.3035C49.5783 13.2228 51.7423 10.9068 54.6014 9.52195C54.6282 9.50887 54.6082 9.46689 54.5814 9.47997" fill="#0E0E0E"/>
<path d="M54.5814 9.47928C53.6233 9.98103 52.7286 10.5984 51.9494 11.3342C51.1621 12.0617 50.5103 12.9213 49.9755 13.8409C49.4386 14.7611 49.0291 15.7501 48.707 16.7653C48.6671 16.8927 48.6251 17.0186 48.5872 17.1467L48.4799 17.5321C48.4069 17.7867 48.3408 18.051 48.272 18.3126C48.1337 18.8371 47.9926 19.3629 47.8329 19.8874C47.6711 20.4118 47.4702 20.9273 47.2423 21.4339C47.0173 21.9412 46.7523 22.4367 46.4446 22.9068C46.137 23.3769 45.7873 23.8243 45.3861 24.2207C45.3365 24.271 45.289 24.3233 45.2374 24.3715L44.8451 24.7259C44.8182 24.7486 44.79 24.77 44.7625 24.792L44.4314 25.0535L44.1224 25.2944C43.3199 25.9421 42.688 26.7797 42.1911 27.7034C41.9413 28.1659 41.7196 28.6477 41.5097 29.1391C41.4567 29.261 41.4065 29.3855 41.3549 29.5094C41.3032 29.6333 41.2585 29.7544 41.2103 29.877C41.1635 29.9995 41.1222 30.1247 41.0775 30.2479L40.955 30.6244C40.6425 31.6355 40.4305 32.6913 40.1669 33.7506C40.0348 34.2799 39.8895 34.8112 39.712 35.3364L39.6789 35.4348L39.6411 35.5359C39.6149 35.6034 39.5915 35.6715 39.5633 35.7376L39.4766 35.9358C39.447 36.0019 39.4132 36.0652 39.3816 36.1299C39.2501 36.3853 39.1035 36.6337 38.937 36.8657C38.7718 37.0983 38.5928 37.32 38.4042 37.5299C38.2143 37.7384 38.0154 37.9373 37.8103 38.1273C37.3994 38.5052 36.9657 38.8486 36.5266 39.1755C35.6505 39.8294 34.7495 40.4227 33.9532 41.1075C33.9029 41.1495 33.8541 41.1936 33.8059 41.2369C33.7577 41.2803 33.7068 41.3243 33.6662 41.367L33.5375 41.4957L33.4184 41.6341C33.2649 41.824 33.1279 42.0298 33.0123 42.2508C32.898 42.4731 32.801 42.7064 32.7184 42.948C32.6379 43.1909 32.5711 43.4401 32.5133 43.6947C32.4569 43.9494 32.4101 44.2089 32.3681 44.4704C32.3268 44.732 32.291 44.9977 32.2511 45.2688C32.1712 45.8078 32.0838 46.3487 31.9689 46.887C31.8546 47.4252 31.7183 47.9627 31.5435 48.4913C31.366 49.0192 31.1498 49.5368 30.8917 50.0338L30.7933 50.2196C30.761 50.2815 30.7279 50.3435 30.6908 50.4027L30.4753 50.7633L30.242 51.1116L30.1835 51.1983L29.8703 51.6182L29.7375 51.7799C29.648 51.8866 29.562 51.9967 29.4691 52.1L29.1194 52.4847C29.1559 52.451 29.1876 52.3711 29.1793 52.3119C29.1731 52.2521 29.1518 52.2121 29.1119 52.1743C29.1015 52.1653 29.0885 52.1543 29.074 52.1468C29.0568 52.1357 29.0417 52.1309 29.0196 52.1233C28.9776 52.111 28.9212 52.1096 28.8737 52.1247C28.8489 52.1337 28.8324 52.1392 28.8138 52.1523C28.7973 52.1633 28.7877 52.1695 28.7767 52.1812C28.7657 52.1936 28.7836 52.1743 28.7856 52.1722L28.8028 52.1543L28.871 52.0821C28.9164 52.0339 28.9618 51.9857 29.0066 51.9361C29.0967 51.8391 29.1841 51.74 29.2722 51.6409C29.4457 51.4413 29.6143 51.2382 29.7767 51.0311C30.0995 50.6153 30.3969 50.1824 30.6557 49.7282C30.7864 49.5017 30.9069 49.2698 31.0184 49.0337C31.0769 48.9153 31.123 48.7976 31.1725 48.6806C31.2255 48.565 31.262 48.4411 31.3054 48.3206C31.4692 47.8333 31.5766 47.3213 31.6578 46.7989C31.8216 45.7541 31.8787 44.6645 32.1052 43.5695C32.1637 43.2942 32.2277 43.0271 32.3151 42.7491C32.4052 42.4689 32.5236 42.1971 32.6689 41.9445C32.9579 41.4365 33.331 40.9926 33.7364 40.603C34.5499 39.8205 35.4715 39.2168 36.3449 38.5946C36.7813 38.2835 37.2115 37.9697 37.6031 37.6276C37.7992 37.4569 37.9851 37.2773 38.153 37.0928C38.3161 36.9015 38.4737 36.7046 38.608 36.4885C38.7442 36.2745 38.8688 36.0515 38.9769 35.8181C39.034 35.7032 39.0815 35.5828 39.1331 35.4644C39.1792 35.3432 39.2295 35.2242 39.2701 35.0996C39.4442 34.6088 39.5764 34.0968 39.6941 33.5771L39.8696 32.7842L39.9639 32.385L40.0637 31.9872C40.2006 31.4572 40.3527 30.9307 40.5234 30.4097C40.8641 29.367 41.2764 28.3442 41.7747 27.3641C41.9 27.119 42.028 26.8754 42.1629 26.6366C42.1973 26.576 42.2269 26.5168 42.2654 26.4556L42.3811 26.2711C42.4203 26.2105 42.4568 26.1472 42.4995 26.0887L42.6295 25.9159C42.9792 25.4562 43.3942 25.0652 43.8148 24.708C44.236 24.3508 44.6641 24.0232 45.0585 23.6763C45.4535 23.3308 45.8142 22.9639 46.1005 22.5503C46.1721 22.447 46.234 22.3383 46.3015 22.233L46.3263 22.1931L46.3469 22.1511L46.4729 21.8992C46.5018 21.8455 46.5272 21.7836 46.5534 21.7223L46.6312 21.5399C46.6821 21.4174 46.7296 21.2942 46.7785 21.171C46.9677 20.6754 47.1322 20.1689 47.3043 19.6623C47.6491 18.6492 47.9465 17.6092 48.2796 16.574C48.3223 16.4446 48.3622 16.3159 48.4076 16.1858L48.5487 15.7956C48.5927 15.6648 48.6492 15.5382 48.7029 15.4108C48.7586 15.2842 48.8075 15.1555 48.868 15.0309C48.9899 14.7831 49.1062 14.5333 49.2473 14.2951C49.3774 14.0522 49.5309 13.8223 49.6781 13.5903C50.2948 12.6791 51.0396 11.8593 51.8889 11.1752C52.0967 10.9983 52.3225 10.8441 52.54 10.6817L52.88 10.4559L53.05 10.3438L53.2248 10.2398C53.3418 10.171 53.4575 10.0994 53.5751 10.0333L53.9337 9.842C54.0521 9.77593 54.1753 9.72018 54.2978 9.66167L54.4809 9.57426L54.5725 9.5309C54.5862 9.52195 54.6076 9.51989 54.611 9.50337C54.6144 9.48754 54.5972 9.46964 54.58 9.4779C54.5959 9.46827 54.6165 9.48547 54.6138 9.50406C54.6138 9.51369 54.6048 9.52058 54.5972 9.52402L54.5752 9.53641L54.3088 9.68301C54.1905 9.74839 54.0714 9.81172 53.9571 9.88399L53.6123 10.0953C53.4987 10.1682 53.3886 10.246 53.2771 10.321L53.1099 10.4346L52.9481 10.5557L52.626 10.7987C52.4209 10.9728 52.2082 11.1366 52.0148 11.3225C51.2171 12.0397 50.5364 12.8766 49.9892 13.7872C49.8592 14.0191 49.7236 14.247 49.6114 14.4878C49.4882 14.7226 49.3877 14.9683 49.2824 15.2112C49.2301 15.3324 49.1895 15.459 49.142 15.5822C49.0966 15.7061 49.0484 15.8293 49.0126 15.9566L48.8963 16.3352C48.8584 16.4625 48.8247 16.594 48.7889 16.7227C48.5095 17.7613 48.2624 18.815 47.9616 19.866C47.8109 20.3912 47.6278 20.9094 47.4234 21.4208C47.3187 21.6776 47.2183 21.9288 47.0971 22.1862L46.9994 22.381L46.9505 22.478L46.9257 22.5269L46.8975 22.573C46.8197 22.6955 46.7475 22.8215 46.6649 22.9405C46.3345 23.4168 45.9291 23.825 45.512 24.1911C45.0936 24.558 44.6627 24.8877 44.2594 25.2304C43.856 25.5725 43.4816 25.929 43.176 26.331L43.0618 26.4817C43.0246 26.5326 42.9943 26.587 42.9599 26.6393L42.8594 26.7983C42.8257 26.8513 42.7947 26.9133 42.7624 26.9697C42.6316 27.201 42.5084 27.4363 42.3873 27.6724C41.9055 28.6195 41.507 29.6085 41.1759 30.621C41.0107 31.1276 40.8621 31.6403 40.7285 32.1572L40.6308 32.5461L40.5386 32.9363L40.3637 33.7265C40.2426 34.2613 40.1043 34.7981 39.9171 35.3267C39.873 35.4596 39.8186 35.5896 39.7684 35.7211C39.7126 35.8512 39.6603 35.982 39.597 36.1093C39.4786 36.3667 39.3389 36.6165 39.1847 36.8588C39.0326 37.1025 38.853 37.3296 38.6651 37.5485C38.4689 37.7646 38.2652 37.9601 38.0532 38.1445C37.6299 38.5134 37.1846 38.8376 36.7414 39.1535C35.8556 39.7833 34.9601 40.3745 34.2133 41.0958C33.8403 41.4544 33.5127 41.8488 33.2663 42.2817C33.1417 42.4972 33.044 42.725 32.9683 42.959L32.9393 43.0464L32.9146 43.14L32.8643 43.3279C32.8292 43.4525 32.8065 43.5819 32.7769 43.7085C32.5629 44.734 32.505 45.8119 32.3357 46.9035C32.2504 47.4486 32.1361 47.9992 31.9558 48.5374C31.9076 48.671 31.8663 48.8066 31.8078 48.9373C31.7528 49.0688 31.6991 49.203 31.6378 49.3269C31.5188 49.5795 31.3894 49.8273 31.2496 50.0695C30.9729 50.5548 30.6563 51.0152 30.3163 51.453C30.1456 51.6712 29.9681 51.8845 29.7871 52.0924C29.6955 52.1956 29.604 52.2989 29.5104 52.4C29.4643 52.451 29.4168 52.5012 29.37 52.5515L29.2991 52.6265L29.2812 52.6451C29.2715 52.6554 29.2784 52.6492 29.2543 52.6719C29.2302 52.6939 29.2089 52.7132 29.1779 52.7325C29.1442 52.7517 29.1139 52.769 29.0719 52.7807C28.9928 52.8061 28.9006 52.8047 28.8262 52.7827C28.787 52.7724 28.7574 52.7573 28.725 52.74C28.6975 52.7228 28.6693 52.7036 28.6466 52.6822C28.5571 52.5983 28.5034 52.495 28.4903 52.367C28.4848 52.3037 28.4931 52.2349 28.5158 52.1708C28.5275 52.1399 28.5427 52.1096 28.5599 52.0821C28.5771 52.0566 28.5963 52.0318 28.6163 52.0091L28.948 51.6436C29.0355 51.5459 29.116 51.4426 29.2006 51.3422L29.3252 51.1901L29.6177 50.7977L29.6721 50.7165L29.8903 50.3917L30.0906 50.0565C30.125 50.0014 30.156 49.9436 30.1863 49.8858L30.2778 49.713C30.518 49.2505 30.7197 48.768 30.8869 48.2711C31.0514 47.7728 31.1815 47.2607 31.2923 46.7417C31.4038 46.2235 31.4885 45.6956 31.5676 45.1656C31.6068 44.902 31.6426 44.6322 31.686 44.3596C31.73 44.0878 31.7782 43.8145 31.8395 43.5413C31.9014 43.268 31.9744 42.9955 32.0646 42.725C32.1575 42.4552 32.2676 42.1881 32.4011 41.9293C32.536 41.6712 32.6991 41.4241 32.8857 41.1943L33.0309 41.0256C33.0825 40.9719 33.1355 40.9203 33.1885 40.8673C33.2415 40.8123 33.2931 40.7682 33.3454 40.7214C33.397 40.6746 33.4494 40.6278 33.5023 40.5831C34.3475 39.8569 35.2581 39.2595 36.1137 38.6201C36.5418 38.3007 36.9568 37.9718 37.3415 37.618C37.5329 37.4404 37.7173 37.2566 37.8908 37.0653C38.0629 36.8733 38.2239 36.673 38.3719 36.4651C38.5206 36.2579 38.6493 36.0391 38.7656 35.814C38.7931 35.7569 38.8234 35.7018 38.8489 35.644L38.9246 35.4706C38.9493 35.4128 38.97 35.3529 38.9927 35.2944L39.0257 35.2056L39.0567 35.112C39.226 34.613 39.3664 34.1002 39.4958 33.5813C39.7546 32.5426 39.9687 31.4744 40.2942 30.4186L40.4222 30.0236C40.4691 29.8928 40.5131 29.7613 40.5627 29.6312C40.6136 29.5025 40.6631 29.3697 40.7155 29.2444C40.7685 29.1185 40.8194 28.9925 40.8738 28.8666C41.0885 28.3634 41.3184 27.8624 41.5827 27.373C41.8456 26.8837 42.1498 26.4094 42.4988 25.9662C42.8484 25.5236 43.2442 25.1127 43.6854 24.7576L44.0157 24.5002L44.3213 24.2593C44.3468 24.2393 44.3729 24.22 44.397 24.1987L44.4686 24.1333L44.7563 23.8731C44.8038 23.8291 44.8465 23.7809 44.8919 23.7348C45.2601 23.3714 45.5795 22.9619 45.8637 22.5276C46.148 22.0933 46.3971 21.6328 46.6036 21.1497C46.8122 20.6672 46.9904 20.1689 47.168 19.6664C47.3442 19.1633 47.5115 18.6533 47.6725 18.1385C47.7537 17.8804 47.8315 17.6236 47.9203 17.3628L48.0497 16.9725C48.0944 16.8431 48.1447 16.7151 48.1915 16.5864C48.5755 15.5602 49.0408 14.556 49.6486 13.6399C50.2515 12.7231 50.9693 11.8779 51.8111 11.1814C52.6501 10.4828 53.5862 9.91152 54.5766 9.47653L54.5814 9.47928Z" fill="#0E0E0E"/>
<path d="M30.0142 17.1618C30.0479 17.1879 30.6164 16.4715 31.4148 15.6813C32.2098 14.8884 32.929 14.3247 32.9036 14.2903C32.8925 14.2752 32.6978 14.3977 32.4025 14.6234C32.1079 14.8485 31.7156 15.1809 31.3136 15.5801C30.9117 15.9793 30.5772 16.3696 30.3501 16.6628C30.1229 16.956 29.9997 17.1501 30.0149 17.1618" fill="#0E0E0E"/>
<path d="M29.5737 20.0078C29.615 20.0119 29.6866 19.5687 29.8325 19.0366C29.9756 18.5046 30.1374 18.0855 30.0995 18.0682C30.0658 18.0517 29.8407 18.4537 29.6941 18.9995C29.5455 19.5446 29.5358 20.0051 29.5737 20.0078Z" fill="#0E0E0E"/>
<path d="M28.5998 29.4344C28.6101 29.4489 28.8056 29.3312 29.0878 29.0965C29.37 28.8618 29.7334 28.5018 30.0686 28.0503C30.4031 27.5981 30.6419 27.1459 30.7837 26.8073C30.9261 26.4686 30.9812 26.2477 30.9654 26.2422C30.9227 26.2243 30.6157 27.0798 29.9536 27.9649C29.2998 28.8563 28.5702 29.3993 28.5998 29.4344Z" fill="#0E0E0E"/>
<path d="M28.7485 28.7351C28.7767 28.7613 29.0568 28.5011 29.3232 28.115C29.5902 27.7295 29.7334 27.3751 29.699 27.3579C29.6625 27.3393 29.4656 27.6566 29.2048 28.0331C28.9446 28.4103 28.7182 28.7076 28.7485 28.7344" fill="#0E0E0E"/>
<path d="M24.7138 33.1531C24.7489 33.1772 25.1625 32.6142 25.76 31.9989C26.3546 31.3808 26.9032 30.9479 26.8777 30.9135C26.8578 30.8832 26.2617 31.2707 25.6574 31.8991C25.0504 32.5248 24.6835 33.1332 24.7145 33.1525" fill="#0E0E0E"/>
<path d="M24.625 32.3093C24.6587 32.332 24.8645 32.0822 25.1336 31.7917C25.4014 31.4992 25.6333 31.2735 25.6079 31.2418C25.5845 31.2115 25.3043 31.3932 25.0283 31.694C24.751 31.9941 24.5927 32.2887 24.625 32.3093Z" fill="#0E0E0E"/>
<path d="M18.6123 41.208C18.6412 41.2328 19.0878 40.7572 19.549 40.0992C20.0122 39.4426 20.3082 38.8617 20.2751 38.8424C20.2393 38.8218 19.8904 39.3662 19.4313 40.0166C18.9743 40.6677 18.5806 41.1812 18.6123 41.2073" fill="#0E0E0E"/>
<path d="M19.6275 40.7111C19.6591 40.7352 19.8897 40.484 20.1423 40.1508C20.3949 39.8177 20.5745 39.5279 20.5429 39.5039C20.5112 39.4798 20.2806 39.731 20.028 40.0641C19.7754 40.3972 19.5958 40.687 19.6275 40.7111Z" fill="#0E0E0E"/>
<path d="M40.341 3.4968C40.3775 3.51745 40.6748 3.03497 41.1153 2.49812C41.5531 1.9592 41.9667 1.5717 41.9392 1.54004C41.9165 1.51045 41.4526 1.85665 41.0045 2.40727C40.5544 2.95651 40.308 3.48029 40.341 3.4968Z" fill="#0E0E0E"/>
<path d="M39.3582 5.64491C39.3967 5.65385 39.4711 5.47009 39.5241 5.2347C39.577 4.99931 39.5888 4.80108 39.5502 4.79282C39.5117 4.78388 39.4373 4.96765 39.3836 5.20303C39.3307 5.43842 39.3196 5.63596 39.3582 5.64491Z" fill="#0E0E0E"/>
<path d="M39.8104 5.77361C39.8482 5.786 39.9783 5.49211 40.1015 5.117C40.2247 4.74189 40.2942 4.42735 40.2564 4.41496C40.2185 4.40257 40.0884 4.69647 39.9652 5.07157C39.842 5.44668 39.7725 5.76122 39.8104 5.77361Z" fill="#0E0E0E"/>
<path d="M38.8544 8.35602C38.884 8.37942 39.1909 8.02152 39.4442 7.50256C39.6996 6.98429 39.7939 6.52314 39.7574 6.51351C39.7181 6.50181 39.564 6.93473 39.3155 7.43924C39.0691 7.94512 38.8213 8.33124 38.855 8.35602" fill="#0E0E0E"/>
<path d="M39.2997 14.1251C39.3258 14.1499 39.8014 13.6509 40.1979 12.9055C40.5984 12.1629 40.7512 11.4904 40.7155 11.4822C40.6742 11.4698 40.4635 12.1106 40.0705 12.8381C39.6824 13.5683 39.2653 14.0983 39.299 14.1258" fill="#0E0E0E"/>
<path d="M41.1195 11.5785C41.1566 11.593 41.2805 11.3645 41.3962 11.0678C41.5125 10.7712 41.5765 10.5193 41.54 10.5048C41.5028 10.4904 41.3783 10.7189 41.2633 11.0155C41.147 11.3122 41.083 11.5641 41.1195 11.5785Z" fill="#0E0E0E"/>
<path d="M41.2296 10.1297C41.2681 10.1393 41.3308 10.0168 41.3693 9.85783C41.4072 9.69815 41.4072 9.56187 41.3693 9.55224C41.3308 9.54329 41.2681 9.66442 41.2296 9.8241C41.1917 9.98378 41.1917 10.1201 41.2296 10.1297Z" fill="#0E0E0E"/>
<path d="M24.7998 41.61C24.8342 41.6279 24.9925 41.3746 25.0855 41.0229C25.1798 40.6718 25.1681 40.3738 25.1302 40.3718C25.0896 40.3683 25.0373 40.6491 24.9464 40.9857C24.8576 41.323 24.7627 41.5921 24.7991 41.61" fill="#0E0E0E"/>
<path d="M25.1983 39.1067C25.2362 39.1177 25.2968 39.0248 25.3319 38.8995C25.3677 38.7743 25.3656 38.6635 25.3277 38.6525C25.2899 38.6414 25.23 38.735 25.1942 38.8603C25.1584 38.9856 25.1605 39.0964 25.1983 39.1067Z" fill="#0E0E0E"/>
<path d="M37.2879 22.0657C37.3271 22.0809 37.4923 21.7037 37.7724 21.288C38.0498 20.8702 38.334 20.5736 38.3051 20.5426C38.2817 20.5137 37.9417 20.7732 37.6526 21.2082C37.3615 21.6411 37.2521 22.0547 37.2879 22.0657Z" fill="#0E0E0E"/>
<path d="M46.4412 10.1201C46.4804 10.1345 46.6787 9.66993 46.9973 9.14065C47.3139 8.60999 47.6298 8.2163 47.5989 8.18877C47.572 8.1633 47.199 8.52258 46.8741 9.067C46.5465 9.61074 46.4054 10.1084 46.4405 10.1201" fill="#0E0E0E"/>
<path d="M45.9443 12.4313C45.978 12.4506 46.2051 12.1195 46.4102 11.6707C46.6167 11.222 46.7193 10.8338 46.6828 10.8214C46.6442 10.8076 46.4832 11.169 46.2794 11.6109C46.0771 12.0527 45.9085 12.4113 45.9443 12.4313Z" fill="#0E0E0E"/>
<path d="M45.2429 12.6791C45.2835 12.6846 45.3503 12.4251 45.448 12.1133C45.5444 11.8015 45.6366 11.5496 45.6001 11.531C45.5657 11.5131 45.4115 11.7458 45.3111 12.0706C45.2099 12.3955 45.2051 12.6742 45.2429 12.6791Z" fill="#0E0E0E"/>
<path d="M44.5498 15.7391C44.5849 15.7577 44.9449 15.0736 45.3537 14.2112C45.7626 13.3494 46.064 12.6378 46.0275 12.6226C45.9911 12.6075 45.6311 13.2909 45.2236 14.1499C44.8162 15.0089 44.5147 15.7205 44.5498 15.7391Z" fill="#0E0E0E"/>
<path d="M27.577 38.5568C27.6176 38.574 27.9638 37.766 28.5564 36.8671C29.1442 35.9647 29.7478 35.3253 29.7155 35.2951C29.7017 35.282 29.5338 35.4265 29.2915 35.6881C29.0485 35.9496 28.7361 36.333 28.436 36.7886C28.1373 37.2449 27.9101 37.6847 27.7677 38.0117C27.6238 38.3386 27.5598 38.5499 27.5763 38.5568" fill="#0E0E0E"/>
<path d="M27.9714 42.7277C28.0058 42.7456 28.1503 42.5371 28.257 42.2459C28.3644 41.9548 28.3905 41.7022 28.3527 41.6932C28.3135 41.6843 28.2267 41.9149 28.1228 42.1964C28.0189 42.4779 27.9363 42.7098 27.9721 42.7277" fill="#0E0E0E"/>
<path d="M33.5574 39.1384C33.5815 39.17 33.7914 39.0503 34.0275 38.8713C34.2629 38.6924 34.4343 38.5217 34.4109 38.49C34.3868 38.4584 34.1769 38.5781 33.9408 38.7571C33.7054 38.936 33.534 39.1067 33.5574 39.1384Z" fill="#0E0E0E"/>
<path d="M35.4192 37.693C35.4426 37.7254 35.6862 37.5918 35.965 37.395C36.2431 37.1981 36.4502 37.0123 36.4275 36.9799C36.4048 36.9476 36.1605 37.0804 35.8817 37.278C35.603 37.4748 35.3958 37.6607 35.4185 37.693" fill="#0E0E0E"/>
<path d="M31.2111 42.9844C31.2524 42.992 31.3632 42.5274 31.5745 41.9837C31.7837 41.4379 32.0143 41.0201 31.9785 40.9974C31.9475 40.9768 31.6557 41.3711 31.441 41.9314C31.2228 42.491 31.1739 42.9789 31.2111 42.9844Z" fill="#0E0E0E"/>
<path d="M41.4843 22.8641C41.5235 22.8917 42.0762 22.0864 42.8188 21.149C43.1932 20.683 43.5594 20.2852 43.8388 20.0106C44.1176 19.7352 44.3014 19.5756 44.2876 19.5584C44.2773 19.5446 44.0701 19.6767 43.77 19.9369C43.4692 20.195 43.0852 20.5887 42.7073 21.0595C42.3295 21.5303 42.0211 21.9811 41.8057 22.3115C41.5909 22.6425 41.4684 22.8538 41.4849 22.8648" fill="#0E0E0E"/>
<path d="M43.2992 21.3685C43.333 21.3912 43.5663 21.0967 43.8629 20.7443C44.1582 20.3912 44.4074 20.1104 44.3791 20.0808C44.353 20.0519 44.0536 20.2914 43.7528 20.652C43.45 21.0113 43.2669 21.3479 43.2992 21.3685Z" fill="#0E0E0E"/>
<path d="M41.9365 23.1546C41.9709 23.1746 42.1457 22.9392 42.3274 22.6281C42.5091 22.3177 42.6282 22.0492 42.5938 22.0293C42.5593 22.0093 42.3845 22.2447 42.2028 22.5558C42.0211 22.8662 41.902 23.1346 41.9365 23.1546Z" fill="#0E0E0E"/>
<path d="M39.7911 27.2354C39.829 27.2464 39.9274 27.0227 40.0114 26.735C40.0953 26.448 40.1318 26.2057 40.0939 26.1947C40.0561 26.1837 39.957 26.4074 39.8737 26.6951C39.7897 26.9821 39.7533 27.2244 39.7911 27.2354Z" fill="#0E0E0E"/>
<path d="M43.357 21.935C43.3866 21.9611 43.556 21.8193 43.7356 21.6177C43.9152 21.4167 44.0357 21.2322 44.0061 21.2054C43.9765 21.1792 43.8079 21.321 43.6282 21.522C43.4493 21.7237 43.3274 21.9081 43.357 21.9343" fill="#0E0E0E"/>
<path d="M50.5763 11.7678C50.6121 11.7933 51.0134 11.2316 51.6425 10.6707C52.2674 10.1056 52.869 9.76698 52.8476 9.72912C52.8339 9.69609 52.1883 9.98516 51.5468 10.5647C50.9012 11.1394 50.5447 11.7513 50.5757 11.7678" fill="#0E0E0E"/>
<path d="M48.8247 13.0824C48.8632 13.1017 49.1957 12.4829 49.705 11.7878C50.2116 11.0898 50.6995 10.5846 50.6693 10.5537C50.6452 10.5261 50.1042 10.9935 49.5894 11.7024C49.0711 12.4093 48.7916 13.0673 48.8247 13.0817" fill="#0E0E0E"/>
<path d="M48.9217 13.9138C48.9603 13.9283 49.1021 13.6358 49.3147 13.3006C49.5253 12.964 49.7284 12.71 49.6981 12.6811C49.672 12.6543 49.4132 12.8725 49.1929 13.2235C48.9713 13.5731 48.8859 13.9008 48.9217 13.9131" fill="#0E0E0E"/>
<path d="M45.4129 27.15C45.4349 27.1803 45.8658 26.9022 46.3139 26.4604C46.7647 26.0206 47.051 25.5952 47.0207 25.5725C46.9877 25.547 46.6559 25.9256 46.2134 26.3578C45.7722 26.7921 45.3875 27.117 45.4129 27.15Z" fill="#0E0E0E"/>
<path d="M46.7117 26.6111C46.7372 26.6414 46.8493 26.5877 46.9615 26.492C47.0737 26.3964 47.1446 26.2938 47.1185 26.2635C47.093 26.2332 46.9808 26.2869 46.8686 26.3826C46.7564 26.479 46.6855 26.5808 46.7117 26.6111Z" fill="#0E0E0E"/>
<path d="M40.394 37.2649C40.4284 37.28 40.6239 36.8974 40.7395 36.3832C40.8579 35.8705 40.849 35.4403 40.8111 35.4389C40.7698 35.4361 40.7148 35.8512 40.5991 36.3509C40.4863 36.8512 40.3548 37.2491 40.3933 37.2642" fill="#0E0E0E"/>
<path d="M40.8325 37.45C40.8655 37.47 41.0059 37.2986 41.1126 37.0502C41.22 36.8024 41.2489 36.5821 41.211 36.5718C41.1725 36.5608 41.0837 36.7549 40.9804 36.993C40.8779 37.2319 40.7974 37.4294 40.8325 37.45Z" fill="#0E0E0E"/>
<path d="M15.8461 44.1476C17.1242 45.1979 18.4223 46.209 19.7479 47.1774C21.0735 48.1444 22.4301 49.0633 23.8328 49.8982C25.2362 50.7303 26.6864 51.4833 28.2054 52.0648C29.723 52.6444 31.3164 53.0491 32.9738 53.0862C32.1547 53.215 31.3116 53.2081 30.4801 53.1117C30.0644 53.0622 29.6508 52.992 29.2419 52.9011C28.8331 52.8096 28.4284 52.7001 28.0285 52.5762C26.429 52.0738 24.9134 51.3401 23.4811 50.4894C22.0481 49.6359 20.695 48.6613 19.4162 47.6028C18.7774 47.0721 18.1573 46.5215 17.5592 45.9468C16.9645 45.3693 16.3802 44.7808 15.8454 44.1469L15.8461 44.1476Z" fill="#0E0E0E"/>
<path d="M57.2918 11.7939C57.0193 12.8174 56.5767 13.7968 56.0006 14.6957C55.8554 14.9201 55.7012 15.139 55.5367 15.3503C55.3715 15.5609 55.1953 15.7639 55.0116 15.9601C54.8264 16.1548 54.6296 16.34 54.4259 16.5162L54.1196 16.7688C54.0232 16.8507 53.931 16.9388 53.8415 17.0303C53.4843 17.3979 53.1677 17.8129 52.8793 18.2451C52.5895 18.6774 52.3273 19.1296 52.0857 19.5914C51.6074 20.5164 51.1917 21.4828 50.9342 22.4773C50.8709 22.7258 50.82 22.9756 50.7863 23.2234C50.7766 23.2854 50.7704 23.3473 50.7649 23.4093L50.756 23.5029L50.7477 23.6033C50.7367 23.7376 50.7243 23.8725 50.7085 24.0074C50.6465 24.5456 50.5433 25.0873 50.3678 25.6152C50.193 26.1417 49.9404 26.6545 49.5976 27.1067C49.2569 27.5595 48.8281 27.9477 48.3532 28.2492C47.8797 28.5548 47.3621 28.7771 46.8356 28.9395L46.647 28.9994C46.5899 29.0173 46.5327 29.0359 46.4763 29.0586L46.3916 29.0903L46.3077 29.1261C46.2512 29.1488 46.1969 29.1756 46.1418 29.2025C45.9222 29.3098 45.7096 29.4378 45.5051 29.5803C45.097 29.8659 44.7226 30.2094 44.3846 30.5852C44.0474 30.9617 43.7452 31.3726 43.4906 31.8076C43.2373 32.2426 43.0239 32.6968 42.9124 33.171C42.8484 33.4133 42.8112 33.6549 42.7885 33.8999C42.7665 34.1449 42.7665 34.3941 42.7713 34.6577C42.7761 34.9206 42.7796 35.1939 42.7713 35.4678C42.7651 35.6048 42.7596 35.7417 42.7472 35.8787C42.7383 36.0157 42.7218 36.1513 42.7053 36.2875C42.6715 36.5587 42.6275 36.8272 42.5752 37.0928C42.5518 37.2264 42.5208 37.3578 42.4919 37.4893L42.4472 37.6868C42.4313 37.7543 42.41 37.8265 42.3914 37.896C42.2242 38.4549 41.9268 38.9519 41.5799 39.3875C41.231 39.8239 40.8297 40.2045 40.4057 40.5473C39.9804 40.8893 39.5316 41.1949 39.067 41.4716C38.8344 41.6086 38.5983 41.7394 38.3581 41.8626L38.184 41.952C38.1269 41.9809 38.0725 42.0126 38.016 42.0429C37.9052 42.1055 37.7958 42.1702 37.6891 42.2384C37.2603 42.5109 36.8625 42.833 36.5115 43.1999C36.3373 43.3823 36.1701 43.5805 36.0125 43.7835C35.8549 43.9866 35.7069 44.1965 35.5685 44.4126C35.2946 44.8455 35.0654 45.3074 34.9064 45.7919C34.7454 46.2758 34.6573 46.7837 34.6531 47.2937C34.6497 47.5491 34.6676 47.8044 34.7068 48.0577L34.764 48.4549C34.7757 48.5891 34.7942 48.7226 34.7997 48.8575C34.8197 49.1266 34.8156 49.3971 34.8018 49.6662C34.7832 49.9353 34.7454 50.2031 34.6876 50.4667C34.5712 50.9932 34.3661 51.4991 34.0784 51.9506C33.7866 52.3973 33.4184 52.7999 32.9724 53.0862C33.3984 52.7717 33.7336 52.3505 33.989 51.8969C34.2443 51.4413 34.4157 50.9416 34.4997 50.4302C34.541 50.1742 34.563 49.9154 34.5706 49.6566C34.5719 49.3978 34.5644 49.1383 34.5334 48.8809C34.5224 48.7522 34.4983 48.6242 34.4811 48.4955L34.4074 48.11C34.3544 47.843 34.3228 47.5704 34.3138 47.2972C34.2966 46.75 34.3737 46.1994 34.5279 45.6742C34.68 45.1477 34.9078 44.6466 35.1824 44.1765C35.3208 43.9418 35.4694 43.7133 35.6312 43.4952C35.7922 43.2763 35.9616 43.065 36.1467 42.8599C36.517 42.4531 36.9382 42.0938 37.3938 41.7875C37.5074 41.7105 37.6237 41.6382 37.7414 41.5673C37.8006 41.5336 37.8598 41.4971 37.9197 41.4647L38.0959 41.3684C38.323 41.2445 38.5467 41.113 38.7663 40.9761C39.2054 40.7028 39.6287 40.4069 40.0224 40.0792C40.4154 39.7523 40.7795 39.3937 41.0851 38.9987C41.3893 38.6043 41.635 38.1707 41.7644 37.7116C41.7788 37.6531 41.794 37.5987 41.8084 37.5368L41.8484 37.3468C41.8752 37.2202 41.9048 37.0935 41.9261 36.9669C41.9743 36.7136 42.0149 36.4596 42.0452 36.2063C42.0597 36.0797 42.0748 35.953 42.0824 35.8257C42.0934 35.6991 42.0982 35.5717 42.103 35.4451C42.1099 35.1904 42.1058 34.9351 42.0996 34.6694C42.0934 34.4044 42.0906 34.1243 42.1147 33.8421C42.1388 33.5606 42.1822 33.2777 42.2517 33.0086C42.2813 32.8737 42.3233 32.7319 42.368 32.5984C42.4134 32.4635 42.4644 32.332 42.5194 32.2026C42.6309 31.9452 42.7569 31.6968 42.898 31.4586C43.1802 30.9816 43.5098 30.5384 43.8801 30.1296C44.2504 29.7214 44.662 29.347 45.1218 29.0283C45.3517 28.8693 45.5939 28.7248 45.85 28.6016C45.914 28.5706 45.978 28.5403 46.0448 28.5135L46.1432 28.4715L46.2444 28.4337C46.3111 28.4075 46.3799 28.3855 46.4488 28.3641L46.6387 28.3049C46.881 28.2334 47.1164 28.1439 47.3456 28.0441C47.5755 27.9457 47.7957 27.8293 48.0056 27.6993C48.4269 27.4405 48.7992 27.1122 49.1007 26.7247C49.4028 26.3379 49.6327 25.8932 49.7972 25.4197C49.9631 24.9462 50.0656 24.4444 50.1352 23.9344C50.1531 23.8071 50.1682 23.6784 50.182 23.5497L50.1923 23.4533L50.2047 23.3494C50.2129 23.2792 50.2212 23.2097 50.2336 23.1415C50.2776 22.8669 50.3403 22.5992 50.4146 22.3369C50.5639 21.8131 50.7546 21.3073 50.9687 20.8145C51.1848 20.3223 51.4229 19.8412 51.6886 19.3753C51.9536 18.9093 52.2392 18.4551 52.5531 18.0194C52.8676 17.5837 53.2076 17.1639 53.6034 16.7881C53.7032 16.6951 53.8064 16.605 53.9152 16.5203L54.2318 16.2822C54.4348 16.1218 54.6316 15.9525 54.8189 15.7722C55.0054 15.5912 55.1843 15.4019 55.3543 15.2037C55.523 15.0047 55.6854 14.7996 55.8396 14.5876C56.1472 14.1637 56.4205 13.7129 56.6627 13.2455C56.9057 12.7782 57.1225 12.2957 57.2877 11.7933L57.2918 11.7939Z" fill="#0E0E0E"/>
<path d="M57.2918 11.7939C56.1486 10.6287 54.9889 9.49855 53.7796 8.42691C53.1711 7.89556 52.5599 7.36834 51.9288 6.86728C51.617 6.61124 51.2963 6.36759 50.979 6.11913C50.6555 5.87823 50.3382 5.63045 50.0085 5.3985C49.3581 4.92291 48.6946 4.46521 48.0187 4.0254C47.3442 3.58353 46.658 3.15955 45.9622 2.75003C45.2663 2.34119 44.5581 1.95025 43.8402 1.57583C43.1223 1.20072 42.3928 0.845573 41.6446 0.52002C42.4423 0.700347 43.2153 0.975657 43.9799 1.26817C44.7419 1.56757 45.4886 1.9062 46.2209 2.27512C46.9533 2.64403 47.6684 3.04667 48.3677 3.47409C48.7187 3.68608 49.0608 3.91252 49.4042 4.13621C49.7422 4.36885 50.0815 4.59873 50.4118 4.84169C50.745 5.08052 51.0685 5.33381 51.394 5.58296C51.7113 5.84313 52.0355 6.09435 52.3431 6.36553C52.9695 6.89481 53.5669 7.45713 54.1485 8.03391C55.3006 9.19846 56.3675 10.447 57.2904 11.7939H57.2918Z" fill="#0E0E0E"/>
<path d="M32.854 24.0721C32.7742 23.8876 32.7143 23.6949 32.6606 23.5008C32.6069 23.306 32.567 23.1078 32.5333 22.9082C32.4706 22.5083 32.441 22.1008 32.4582 21.6934C32.4858 20.8778 32.6991 20.0587 33.0963 19.3347C33.1919 19.1516 33.3089 18.9809 33.4232 18.8095L33.6125 18.5652L33.66 18.5046L33.7116 18.4468L33.8148 18.3325L33.9188 18.2183C33.9539 18.1804 33.9924 18.1467 34.0289 18.1109C34.1032 18.04 34.1775 17.9691 34.2533 17.9003C34.4136 17.773 34.5664 17.636 34.7392 17.5266C35.4082 17.0592 36.157 16.7254 36.932 16.5203C36.2059 16.8603 35.5128 17.2533 34.9002 17.7413L34.7853 17.8322C34.7468 17.8625 34.7123 17.8976 34.6759 17.9299L34.4577 18.1247L34.2539 18.3332C34.2202 18.3683 34.1844 18.4014 34.1528 18.4379L34.0585 18.5487L33.9642 18.6588L33.9167 18.7139L33.7006 19.005C33.5953 19.1667 33.4865 19.3271 33.3977 19.4985C33.0254 20.1757 32.8051 20.9328 32.7246 21.7113C32.6861 22.1008 32.6778 22.4945 32.6998 22.8896C32.7026 22.9887 32.7129 23.0871 32.7198 23.1856C32.7301 23.284 32.7404 23.3831 32.7528 23.4815C32.7783 23.6784 32.8093 23.8759 32.8526 24.0714L32.854 24.0721Z" fill="#0E0E0E"/>
<path d="M37.0593 24.2428C37.2066 24.8257 37.2514 25.4321 37.2528 26.035C37.2493 26.3372 37.2342 26.6393 37.2018 26.9408C37.1681 27.2416 37.1227 27.5417 37.0607 27.839C36.9988 28.1363 36.9251 28.4316 36.8308 28.7207C36.7421 29.0118 36.6326 29.2961 36.517 29.5776C36.2733 30.1358 35.9801 30.6726 35.6367 31.1757C35.4646 31.427 35.2795 31.6685 35.0854 31.9032C34.894 32.1407 34.6807 32.3651 34.4556 32.5709C34.2305 32.778 33.9931 32.9701 33.7467 33.1497C33.5058 33.3252 33.2677 33.5007 33.0343 33.6859C32.5704 34.0562 32.1182 34.443 31.7122 34.8745C31.5084 35.0893 31.3178 35.3171 31.1526 35.5621C31.0707 35.6853 30.9957 35.8133 30.9337 35.9475C30.8711 36.0817 30.8208 36.2229 30.7974 36.3715C30.8112 36.0694 30.9303 35.7803 31.0734 35.5146C31.2187 35.2476 31.399 35.0019 31.589 34.7665C31.9744 34.2991 32.4101 33.8765 32.8671 33.4828C33.0956 33.2867 33.3289 33.0933 33.5684 32.9116C33.8018 32.7319 34.0248 32.5406 34.2354 32.3375C34.4446 32.1324 34.6456 31.9218 34.8273 31.6913C35.0131 31.4627 35.19 31.2274 35.3538 30.983C36.0194 30.0132 36.5067 28.9237 36.7957 27.7791C36.8701 27.4935 36.9258 27.203 36.9754 26.9112C37.0256 26.6194 37.0587 26.3248 37.0814 26.0288C37.1282 25.4369 37.1296 24.8388 37.06 24.2434L37.0593 24.2428Z" fill="#0E0E0E"/>
<path d="M32.9834 25.0928C33.0894 25.5567 33.0681 26.046 32.9779 26.5161C32.8863 26.9883 32.7081 27.4432 32.4679 27.8603C32.3433 28.0661 32.2091 28.2671 32.0563 28.4529C31.9021 28.6367 31.7411 28.8163 31.5621 28.9753C31.2097 29.2988 30.816 29.5741 30.3941 29.7896C30.7699 29.5012 31.1271 29.1963 31.4492 28.8597C31.5311 28.7771 31.6062 28.6876 31.6839 28.6023C31.7232 28.5596 31.7576 28.5128 31.7947 28.4681C31.8305 28.4226 31.8691 28.3793 31.9021 28.3318C32.0446 28.1487 32.1719 27.9553 32.2889 27.7564C32.408 27.5582 32.5078 27.3496 32.5973 27.1369C32.6881 26.9243 32.7597 26.704 32.821 26.4803C32.9366 26.0316 33.0034 25.5656 32.9827 25.0928H32.9834Z" fill="#0E0E0E"/>
<path d="M44.4693 2.64334C44.2511 2.74796 44.0515 2.88286 43.8643 3.03084C43.8182 3.0687 43.7707 3.10449 43.7253 3.14234L43.5938 3.26279C43.5036 3.33988 43.4252 3.43004 43.3419 3.51401C43.0198 3.86228 42.7507 4.25597 42.5242 4.67238L42.3584 4.98761L42.2173 5.31522L42.145 5.47834C42.1237 5.53409 42.1051 5.59053 42.0851 5.64697C42.0466 5.75985 42.0053 5.87204 41.964 5.98423C41.942 6.03998 41.9261 6.09779 41.9103 6.15561L41.8607 6.32836L41.7589 6.67388C41.7045 6.90789 41.6515 7.14259 41.5889 7.37798C41.6061 7.13708 41.6329 6.8955 41.6598 6.65392C41.7079 6.41646 41.7479 6.17488 41.8098 5.93949C41.8435 5.82248 41.8779 5.70547 41.9144 5.58847C41.933 5.52996 41.9495 5.47146 41.9695 5.41365L42.0369 5.24295C42.0824 5.12939 42.1292 5.01582 42.1767 4.90295L42.3439 4.57464C42.3976 4.46383 42.4671 4.36196 42.5325 4.25803L42.6316 4.10248C42.6633 4.05018 42.7039 4.00337 42.741 3.95382C42.8883 3.75697 43.0508 3.57114 43.229 3.40182L43.3653 3.27793C43.4094 3.23526 43.4582 3.1974 43.5071 3.16093L43.6537 3.04943C43.7039 3.01432 43.7562 2.98197 43.8072 2.94825C44.015 2.81954 44.2346 2.70598 44.47 2.64334H44.4693Z" fill="#0E0E0E"/>
<path d="M54.5346 11.3658C54.2263 11.6343 53.9269 11.9096 53.6364 12.1925C53.3432 12.4733 53.061 12.763 52.7843 13.0583C52.2365 13.6523 51.7189 14.271 51.2632 14.9325C51.204 15.0137 51.1504 15.0983 51.0953 15.1816C51.0395 15.2649 50.9845 15.3489 50.9336 15.4349C50.8812 15.5203 50.8269 15.6049 50.7773 15.6916L50.6293 15.9532C50.438 16.3049 50.2666 16.6662 50.118 17.0379C49.9769 17.4123 49.8578 17.795 49.7718 18.1887C49.6898 18.5831 49.6472 18.985 49.6272 19.3939C49.5701 18.9885 49.568 18.5748 49.6045 18.1625C49.6527 17.7523 49.7401 17.3449 49.864 16.9491C49.9892 16.5534 50.1544 16.1714 50.3403 15.8011C50.5282 15.4315 50.747 15.0791 50.9797 14.7377C51.2137 14.397 51.4704 14.0728 51.7402 13.7617C52.0107 13.4506 52.295 13.1526 52.5944 12.8711C52.8917 12.5875 53.2042 12.3205 53.5263 12.0672C53.8511 11.8173 54.1822 11.5751 54.5353 11.3672L54.5346 11.3658Z" fill="#0E0E0E"/>
<path d="M15.9321 1.9771C16.1248 2.22556 16.2769 2.49399 16.4201 2.7693C16.5612 3.04461 16.6858 3.32887 16.7973 3.61725C17.0203 4.19471 17.1923 4.79145 17.3252 5.39575C17.3926 5.6979 17.4484 6.00212 17.4966 6.3084C17.522 6.4612 17.5413 6.61468 17.5633 6.76748L17.5971 6.99186L17.6404 7.21417C17.7664 7.80471 17.9921 8.37185 18.3025 8.88736C18.6116 9.40426 19.0011 9.87091 19.443 10.2804C19.5531 10.383 19.6674 10.4821 19.7837 10.5778L19.9613 10.7209C20.0212 10.7705 20.0824 10.8111 20.1519 10.882C20.3784 11.1105 20.5766 11.3693 20.7335 11.6535C20.8904 11.9378 21.0054 12.2475 21.068 12.5676C21.1313 12.8876 21.1444 13.2173 21.1128 13.5401C21.0811 13.8636 21.0074 14.1795 20.9028 14.483C20.8003 14.7749 20.7087 15.0577 20.6323 15.3496C20.4789 15.9305 20.3894 16.5245 20.4031 17.115C20.4142 17.7048 20.5325 18.2878 20.748 18.8371C20.854 19.1124 20.9834 19.3787 21.13 19.6368C21.1685 19.7063 21.1988 19.7531 21.2394 19.8116L21.302 19.8977L21.3702 19.9837C21.461 20.0987 21.5601 20.2129 21.6592 20.3258C22.0612 20.7759 22.4927 21.2095 22.936 21.6218C23.0468 21.725 23.1597 21.8262 23.2732 21.924C23.3868 22.0231 23.5004 22.1167 23.6215 22.2055C23.8624 22.3858 24.1184 22.5606 24.3731 22.7637C24.4997 22.8655 24.6257 22.9736 24.7448 23.0933C24.8618 23.2145 24.976 23.3418 25.0758 23.4801C25.1742 23.6192 25.2672 23.7637 25.3422 23.9158C25.3814 23.9908 25.4151 24.0679 25.4502 24.145C25.4805 24.2228 25.5136 24.3006 25.5383 24.3797C25.7524 25.0116 25.8164 25.6558 25.8233 26.2856C25.8219 26.4432 25.8198 26.6008 25.813 26.757C25.8047 26.9139 25.793 27.0702 25.7786 27.2257C25.7476 27.5368 25.7049 27.8459 25.6416 28.1521L25.5728 28.1501C25.4833 27.5334 25.4151 26.9236 25.316 26.3275C25.2692 26.0295 25.2087 25.7363 25.1391 25.45C25.0717 25.163 24.9815 24.887 24.879 24.6241C24.8253 24.4933 24.7682 24.366 24.7048 24.2428C24.6408 24.1202 24.5706 24.0025 24.4956 23.8883C24.3414 23.6618 24.1604 23.4519 23.9491 23.2516C23.7399 23.05 23.4997 22.8607 23.2609 22.6549C23.1425 22.551 23.0206 22.447 22.9036 22.3417C22.7866 22.2364 22.6724 22.1291 22.5595 22.0203C22.1101 21.586 21.6799 21.1386 21.2711 20.663C21.1692 20.5426 21.0687 20.4221 20.971 20.2941L20.898 20.1978L20.8264 20.0959C20.7803 20.0278 20.7287 19.9438 20.695 19.8777C20.5429 19.5983 20.408 19.3071 20.2978 19.0064C20.0748 18.4055 19.9558 17.7613 19.9558 17.1205C19.953 16.479 20.0618 15.8458 20.2331 15.2408C20.3178 14.9387 20.4217 14.6379 20.5284 14.3509C20.6296 14.0742 20.7012 13.7886 20.7349 13.4995C20.7686 13.2104 20.7624 12.9186 20.7115 12.6343C20.6612 12.3501 20.5649 12.0734 20.4293 11.8167C20.2944 11.5592 20.1209 11.3197 19.9193 11.107C19.8828 11.0658 19.8181 11.0169 19.7603 10.9673L19.582 10.8166C19.4636 10.714 19.3473 10.6087 19.2351 10.4986C18.785 10.0609 18.3893 9.56394 18.0795 9.01607C17.7684 8.46958 17.5468 7.87216 17.4305 7.25547L17.3913 7.02352L17.3617 6.79019C17.3438 6.63809 17.3279 6.48598 17.3066 6.33456C17.2667 6.03103 17.2185 5.72888 17.1593 5.42879C17.0416 4.82861 16.8874 4.23463 16.6837 3.65786C16.5812 3.36947 16.4662 3.0859 16.3348 2.80991C16.2026 2.53529 16.0567 2.26204 15.8784 2.01908L15.9314 1.97572L15.9321 1.9771Z" fill="#0E0E0E"/>
<path d="M15.3354 45.2537C16.2948 42.1179 15.621 39.3772 13.9767 36.6434C12.733 34.5765 11.6029 32.7409 11.8844 30.2039C12.0695 28.5355 11.543 27.1335 10.8568 25.6448C10.1431 24.0962 9.01704 22.8139 8.22621 21.3155C7.11947 19.219 8.03556 16.6924 8.04451 14.4658C8.04864 13.2669 7.29911 12.2551 6.58606 11.3782C5.02093 9.4545 4.07731 7.90864 3.91694 5.35858C3.90937 5.23607 3.68912 5.3813 3.69669 5.50519C3.76896 6.68007 3.93277 7.59134 4.3829 8.68019C5.04708 10.2873 6.51448 11.392 7.39065 12.867C8.49258 14.7205 7.45397 17.3421 7.53244 19.378C7.58337 20.7043 8.27646 21.8414 9.00947 22.8903C10.163 24.5428 11.0805 26.2236 11.6862 28.1639C12.2388 29.9341 11.3592 31.6438 12.1225 33.434C12.7743 34.9612 13.7076 36.3165 14.5356 37.7474C15.8743 40.06 16.0629 42.6974 15.2982 45.2399C15.2913 45.264 15.3271 45.275 15.3347 45.2516" fill="#0E0E0E"/>
<path d="M15.3354 45.2537C15.5467 44.3803 15.663 43.4869 15.6334 42.6018C15.6128 41.7166 15.4545 40.8439 15.1833 40.0118C15.1158 39.8039 15.0415 39.5975 14.961 39.3944C14.8825 39.1907 14.7958 38.9897 14.7056 38.7901C14.5232 38.3923 14.3195 38.0048 14.0986 37.6262C13.879 37.2449 13.6395 36.8857 13.3896 36.5057C13.1425 36.1286 12.8941 35.7479 12.658 35.3529C12.4226 34.9578 12.2196 34.5386 12.0406 34.1037C11.8589 33.6707 11.7006 33.2213 11.5829 32.7574C11.5251 32.5254 11.4769 32.2901 11.4405 32.0519C11.4047 31.8138 11.3819 31.5742 11.3689 31.334C11.3565 31.0938 11.3585 30.8529 11.3689 30.6134C11.3758 30.4937 11.3833 30.3739 11.3957 30.2548L11.4246 29.9313C11.4907 29.1054 11.3462 28.2774 11.0798 27.4666C10.9456 27.0612 10.7818 26.6586 10.6049 26.2566C10.4252 25.8471 10.2463 25.4699 10.0302 25.0935C9.60483 24.3412 9.08656 23.6185 8.58825 22.8552C8.33909 22.4732 8.09475 22.0809 7.87175 21.67C7.84353 21.6177 7.816 21.5695 7.78778 21.5137L7.7045 21.3458C7.67697 21.2894 7.65426 21.2316 7.62879 21.1744C7.60333 21.1173 7.58061 21.0595 7.55928 21.001C7.4698 20.7683 7.40029 20.5295 7.34798 20.2893C7.24061 19.8089 7.20275 19.3243 7.19931 18.8508C7.19725 18.3766 7.23166 17.9113 7.27777 17.4557C7.37138 16.5444 7.5166 15.6627 7.55377 14.8058C7.55859 14.6985 7.56065 14.5925 7.56203 14.4865C7.56203 14.388 7.55928 14.2986 7.54895 14.2036C7.52968 14.0171 7.4877 13.8305 7.42851 13.6454C7.30806 13.2758 7.11259 12.9151 6.87926 12.5662C6.76226 12.3914 6.6363 12.2193 6.50347 12.0479C6.37063 11.8752 6.23366 11.7086 6.08913 11.529C5.80349 11.1738 5.52337 10.8104 5.25632 10.4325C4.72359 9.6775 4.24593 8.84744 3.93346 7.94512C3.77446 7.49636 3.65815 7.03315 3.57487 6.56788C3.53426 6.33525 3.5026 6.10123 3.47713 5.86791C3.46612 5.7509 3.45373 5.63458 3.44616 5.51758L3.43996 5.43016L3.43721 5.39506C3.43996 5.42466 3.44478 5.46389 3.46818 5.52033C3.49021 5.5747 3.53839 5.6511 3.61272 5.70479C3.68292 5.75916 3.76965 5.78394 3.82333 5.78944C3.88184 5.79564 3.91969 5.79082 3.9486 5.786C4.00435 5.77499 4.02775 5.76191 4.04633 5.75297C4.08006 5.73438 4.09038 5.72406 4.10484 5.7096C4.11791 5.69446 4.13443 5.67726 4.15439 5.63045C4.16334 5.60774 4.17435 5.57401 4.17848 5.52928C4.18123 5.51826 4.17848 5.4577 4.17917 5.47903L4.19156 5.6628C4.19982 5.77155 4.20808 5.87961 4.21909 5.98698C4.23974 6.20241 4.2652 6.41577 4.29893 6.6257C4.36569 7.04623 4.46136 7.45713 4.59489 7.85908C4.66096 8.06006 4.73392 8.26035 4.81582 8.45788C4.8936 8.64922 4.98101 8.82955 5.08218 9.01057C5.28385 9.37053 5.53163 9.71467 5.80143 10.054C6.34103 10.7333 6.97425 11.3892 7.51729 12.1697C7.58474 12.2675 7.65082 12.3673 7.71483 12.4685L7.80912 12.6233L7.90273 12.7933C8.0218 13.0225 8.11609 13.2627 8.18698 13.5064C8.33014 13.9944 8.37626 14.4885 8.38314 14.9669C8.39002 15.9257 8.23447 16.8321 8.12504 17.711C8.06929 18.1502 8.02317 18.5824 8.01285 19.0022C8.01147 19.1069 8.01079 19.2108 8.01423 19.3133C8.01629 19.4159 8.02317 19.5122 8.03419 19.6114C8.05552 19.8089 8.09338 20.0051 8.145 20.2005C8.35423 20.9824 8.79198 21.7216 9.28822 22.4429C9.41073 22.6212 9.54495 22.8132 9.67159 23.0011C9.79961 23.1904 9.92418 23.3824 10.0481 23.5751C10.2938 23.9619 10.5278 24.357 10.7494 24.7603C11.192 25.5663 11.5802 26.4074 11.8961 27.276L12.011 27.6029C12.0489 27.7123 12.0833 27.8225 12.1191 27.9319L12.1459 28.0145L12.1721 28.1053C12.19 28.1659 12.2072 28.2265 12.221 28.2877C12.2361 28.349 12.2505 28.4103 12.2616 28.4715C12.2739 28.5328 12.2856 28.594 12.2946 28.656C12.3737 29.1488 12.3724 29.6354 12.351 30.0979C12.329 30.5611 12.2877 31.0044 12.2781 31.4311C12.2678 31.8571 12.2898 32.2666 12.3772 32.6528C12.4206 32.8462 12.4797 33.0334 12.5555 33.2144C12.5947 33.308 12.6408 33.4113 12.6842 33.5083L12.8246 33.8015C12.9216 33.9963 13.0249 34.1876 13.1288 34.3803L13.4364 34.9633C13.8418 35.7479 14.2927 36.525 14.7208 37.3248C14.7738 37.4259 14.8274 37.523 14.8804 37.6276C14.9341 37.7315 14.9864 37.8355 15.0353 37.9415C15.1351 38.1521 15.2273 38.3661 15.3099 38.5836C15.3946 38.8004 15.4675 39.0207 15.535 39.243C15.6004 39.4653 15.6568 39.6904 15.7064 39.9161C15.8991 40.8205 15.9521 41.7469 15.8757 42.6548C15.8564 42.8819 15.8268 43.1077 15.7931 43.332C15.7559 43.5564 15.7153 43.7787 15.6644 43.9997C15.6141 44.2199 15.5584 44.4395 15.4937 44.6549C15.4627 44.763 15.4269 44.8703 15.3925 44.9777C15.3753 45.0314 15.356 45.0844 15.3375 45.1374L15.3099 45.2172C15.3072 45.2303 15.2962 45.2441 15.3037 45.2551C15.3106 45.2661 15.3313 45.2661 15.3354 45.2509C15.3326 45.2661 15.3099 45.2702 15.2996 45.2578C15.2941 45.2523 15.2941 45.242 15.2962 45.2358L15.301 45.2151L15.3202 45.1332C15.3326 45.0782 15.3464 45.0238 15.3574 44.9687C15.3801 44.8586 15.4042 44.7492 15.4235 44.6391C15.4662 44.4195 15.4992 44.1979 15.5274 43.9763C15.5556 43.7546 15.5735 43.5323 15.588 43.3107C15.599 43.0884 15.6059 42.8668 15.6031 42.6451C15.5962 41.7593 15.4648 40.8804 15.206 40.0469C15.0752 39.6305 14.9162 39.2251 14.7283 38.8342C14.6347 38.6387 14.5335 38.4473 14.4255 38.2601C14.3195 38.0722 14.2018 37.8919 14.0807 37.7026C13.5982 36.9552 13.0847 36.2167 12.6002 35.441C12.4797 35.2469 12.3641 35.0487 12.2567 34.8449C12.1494 34.6419 12.0496 34.4326 11.9505 34.2241L11.8052 33.9082C11.7591 33.8001 11.7116 33.6989 11.6648 33.5854C11.5678 33.3521 11.4914 33.1098 11.4363 32.8648C11.3255 32.374 11.3028 31.8792 11.3145 31.4091C11.3255 30.9376 11.3682 30.4868 11.3881 30.0532C11.4088 29.6195 11.4067 29.2031 11.3427 28.8081C11.3358 28.7585 11.3262 28.7097 11.3166 28.6608C11.3076 28.6119 11.2966 28.5637 11.2842 28.5162C11.2732 28.4681 11.2601 28.4206 11.2464 28.3738L11.2257 28.3029L11.2002 28.2251C11.1658 28.1219 11.1342 28.0172 11.0984 27.9147L10.9903 27.6063C10.6916 26.7873 10.3261 25.993 9.90422 25.2256C9.69361 24.8416 9.46992 24.4644 9.23385 24.0934C9.11546 23.9083 8.99502 23.7238 8.87181 23.5414C8.74793 23.3576 8.62472 23.1814 8.49258 22.9901C8.2331 22.6115 7.97981 22.2185 7.75681 21.798C7.53381 21.3782 7.3411 20.9287 7.21308 20.4511C7.14976 20.2122 7.10158 19.9672 7.07473 19.718C7.06097 19.5942 7.05202 19.4668 7.04927 19.3443C7.04514 19.2225 7.04583 19.102 7.04789 18.9823C7.06028 18.5046 7.11052 18.0428 7.16765 17.592C7.28122 16.6917 7.42575 15.8183 7.41818 14.9786C7.41268 14.5608 7.37069 14.1527 7.26057 13.7775C7.20551 13.5903 7.13461 13.4107 7.0472 13.2414L6.97838 13.1161L6.89716 12.9833C6.84141 12.8952 6.78359 12.8078 6.72303 12.7204C6.24124 12.0238 5.62385 11.381 5.04502 10.6555C4.75663 10.2928 4.4765 9.90739 4.23905 9.48341C4.12067 9.2728 4.01192 9.04842 3.92107 8.82404C3.83159 8.60724 3.75038 8.38492 3.67673 8.15986C3.52737 7.70973 3.41932 7.24308 3.34498 6.77712C3.30782 6.54379 3.28028 6.31116 3.25757 6.0799C3.24587 5.96427 3.23761 5.84864 3.22798 5.73369L3.21628 5.56094L3.2149 5.5396C3.2149 5.54717 3.21146 5.47215 3.21559 5.44737C3.22178 5.37441 3.24037 5.31385 3.26032 5.26498C3.30162 5.16656 3.35118 5.10255 3.4028 5.0468C3.45648 4.99173 3.51086 4.94631 3.59414 4.90088C3.6375 4.87886 3.68705 4.85546 3.77034 4.83894C3.81301 4.83137 3.86532 4.82517 3.93759 4.83343C4.00504 4.84031 4.10484 4.8706 4.18674 4.93323C4.27209 4.99586 4.32852 5.08396 4.35606 5.15141C4.38427 5.22162 4.39185 5.27393 4.39598 5.31798L4.39942 5.36684L4.40561 5.44737C4.41249 5.55474 4.42419 5.66143 4.43383 5.76811C4.45723 5.98078 4.48614 6.19208 4.52262 6.40132C4.59764 6.8191 4.70088 7.23 4.84198 7.62782C5.11797 8.42553 5.54264 9.16887 6.0437 9.87917C6.29492 10.2343 6.56266 10.5819 6.84003 10.9267C6.977 11.0967 7.12498 11.2771 7.26607 11.4601C7.40786 11.6439 7.54758 11.8339 7.68041 12.0321C7.9454 12.4285 8.18561 12.8628 8.3446 13.3481C8.42306 13.5903 8.48019 13.8443 8.50772 14.1038C8.52217 14.2325 8.5263 14.3674 8.5263 14.4934C8.52493 14.6117 8.52286 14.7301 8.51735 14.8471C8.47537 15.7859 8.32533 16.6793 8.23723 17.5541C8.14775 18.4255 8.11334 19.2865 8.28954 20.0814C8.33221 20.2797 8.38865 20.4738 8.46092 20.6596C8.47812 20.7064 8.49602 20.7532 8.51667 20.7986C8.53731 20.8441 8.55521 20.8909 8.57723 20.9356L8.64331 21.0691C8.66533 21.1139 8.69355 21.1627 8.71902 21.2095C8.92412 21.5874 9.1547 21.9584 9.39628 22.328C9.87876 23.0679 10.4094 23.8064 10.8692 24.6179C11.1004 25.0205 11.3069 25.4555 11.4873 25.8678C11.6717 26.2869 11.8479 26.7171 11.9952 27.1645C12.1418 27.6119 12.2602 28.0758 12.3311 28.5527C12.3517 28.6711 12.36 28.7922 12.3751 28.912C12.3868 29.0325 12.3916 29.1536 12.3999 29.274C12.4013 29.3952 12.4054 29.5163 12.4033 29.6374C12.3978 29.7586 12.3985 29.8797 12.3868 30.0002L12.3559 30.3477C12.3448 30.4517 12.3386 30.5563 12.3325 30.6609C12.3235 30.8695 12.3208 31.078 12.3325 31.2859C12.3435 31.4937 12.3634 31.7009 12.3944 31.9074C12.4267 32.1132 12.468 32.3183 12.5183 32.5213C12.6215 32.9274 12.7599 33.3287 12.9347 33.7196C13.1095 34.1105 13.3146 34.4918 13.5108 34.8835C13.7083 35.2751 13.9169 35.6667 14.1323 36.0597C14.3457 36.4486 14.5721 36.8574 14.7676 37.2725C15.1626 38.1032 15.4944 38.9704 15.6947 39.8721C15.8984 40.771 15.9782 41.6967 15.9149 42.6073C15.8833 43.0629 15.8151 43.513 15.7174 43.9556C15.6203 44.3982 15.4916 44.8311 15.3368 45.253L15.3354 45.2537Z" fill="#0E0E0E"/>
<path d="M24.4619 25.8747C24.4268 25.8808 24.5459 26.6324 24.5803 27.5664C24.6181 28.5004 24.5589 29.2582 24.5947 29.2616C24.6106 29.263 24.645 29.0751 24.6725 28.7668C24.7007 28.4591 24.7172 28.0324 24.6993 27.5609C24.6808 27.0895 24.6305 26.6648 24.5782 26.3606C24.5266 26.0564 24.477 25.8712 24.4619 25.874" fill="#0E0E0E"/>
<path d="M22.9663 24.0025C22.9408 24.0253 23.1721 24.3192 23.4157 24.708C23.6614 25.0955 23.8266 25.4307 23.859 25.417C23.8879 25.4059 23.7688 25.0412 23.5169 24.644C23.267 24.2462 22.9897 23.9812 22.967 24.0025" fill="#0E0E0E"/>
<path d="M23.647 25.9937C23.6167 26.0109 23.6683 26.1383 23.7344 26.2821C23.8011 26.4246 23.8335 26.5457 23.8665 26.5457C23.9003 26.5471 23.9181 26.3929 23.8431 26.2332C23.7709 26.0756 23.6738 25.9779 23.647 25.9937Z" fill="#0E0E0E"/>
<path d="M17.7388 18.0978C17.7244 18.0965 17.6865 18.2823 17.6707 18.5872C17.6556 18.8921 17.6721 19.3175 17.7595 19.7772C17.8483 20.237 17.9907 20.6376 18.1181 20.9149C18.2454 21.193 18.3493 21.3513 18.3624 21.3444C18.3975 21.3286 18.0465 20.6589 17.8765 19.7545C17.6989 18.8522 17.7767 18.0992 17.7381 18.0978" fill="#0E0E0E"/>
<path d="M18.0837 18.5824C18.052 18.5851 18.0534 18.9031 18.1401 19.2837C18.2261 19.6644 18.3624 19.9521 18.392 19.9404C18.4237 19.9287 18.3404 19.6293 18.2564 19.2576C18.1718 18.8859 18.1174 18.5796 18.0837 18.5831" fill="#0E0E0E"/>
<path d="M18.1477 16.9856C18.1146 16.9863 18.0947 17.2155 18.1022 17.497C18.1105 17.7785 18.1435 18.0056 18.1766 18.0049C18.2096 18.0042 18.2296 17.775 18.222 17.4935C18.2137 17.212 18.1807 16.9849 18.1477 16.9856Z" fill="#0E0E0E"/>
<path d="M17.6487 13.6227C17.6143 13.6303 17.7264 14.2008 17.7664 14.9132C17.8104 15.6256 17.7664 16.2058 17.8022 16.2092C17.8324 16.214 17.9302 15.6304 17.8854 14.9063C17.8441 14.1823 17.6776 13.6144 17.6487 13.6227Z" fill="#0E0E0E"/>
<path d="M18.2158 14.0432C18.1828 14.0515 18.2199 14.3178 18.2468 14.6468C18.275 14.9758 18.2826 15.245 18.3163 15.247C18.348 15.2498 18.3948 14.9758 18.3652 14.6372C18.3376 14.2979 18.2461 14.0357 18.2151 14.0439" fill="#0E0E0E"/>
<path d="M16.5812 8.16537C16.5516 8.17707 16.7133 8.64991 17.0003 9.19365C17.286 9.73876 17.5833 10.14 17.6094 10.1228C17.6383 10.1042 17.3878 9.6775 17.1063 9.13858C16.8227 8.60104 16.6128 8.15229 16.5812 8.16537Z" fill="#0E0E0E"/>
<path d="M16.3499 8.3044C16.3196 8.3099 16.3912 8.7325 16.6273 9.20122C16.8606 9.67062 17.1566 9.98103 17.1793 9.95969C17.2068 9.93767 16.9604 9.60248 16.7346 9.14753C16.5055 8.69396 16.3843 8.29545 16.3506 8.3044" fill="#0E0E0E"/>
<path d="M16.1489 5.34826C16.1173 5.3517 16.1572 5.89337 16.3003 6.54655C16.4421 7.19972 16.6314 7.70835 16.6617 7.69872C16.6947 7.68839 16.5578 7.16806 16.4174 6.52108C16.2756 5.87479 16.1827 5.34413 16.1489 5.34826Z" fill="#0E0E0E"/>
<path d="M15.8819 6.25059C15.8495 6.25678 15.8729 6.53897 15.9349 6.88173C15.9968 7.22449 16.0732 7.49774 16.1056 7.49155C16.1379 7.48535 16.1145 7.20316 16.0526 6.8604C15.9906 6.51764 15.9142 6.24439 15.8819 6.25059Z" fill="#0E0E0E"/>
<path d="M12.4192 8.91352C12.3889 8.92453 12.455 9.16405 12.6181 9.4194C12.7798 9.67475 12.9691 9.83581 12.9918 9.81309C13.0166 9.78969 12.8741 9.59973 12.7193 9.3547C12.563 9.11036 12.4515 8.90044 12.4192 8.91283" fill="#0E0E0E"/>
<path d="M11.2057 7.23757C11.1755 7.23138 11.1039 7.57345 11.192 7.9871C11.2766 8.40213 11.479 8.68708 11.5038 8.66918C11.5347 8.65197 11.3881 8.35533 11.3083 7.96301C11.2243 7.5707 11.2409 7.24032 11.2057 7.23757Z" fill="#0E0E0E"/>
<path d="M12.4694 7.42616C12.4426 7.44612 12.4729 7.53147 12.5135 7.62782C12.5555 7.72487 12.5947 7.8054 12.6277 7.80058C12.6601 7.79576 12.6711 7.69321 12.6236 7.58171C12.5761 7.47021 12.4956 7.4062 12.4694 7.42616Z" fill="#0E0E0E"/>
<path d="M13.7283 10.5674C13.7 10.5846 13.7235 10.6734 13.7799 10.7664C13.837 10.8593 13.9052 10.9198 13.9341 10.9026C13.9623 10.8854 13.9389 10.7959 13.8818 10.7037C13.8253 10.6115 13.7565 10.5502 13.7283 10.5674Z" fill="#0E0E0E"/>
<path d="M17.3617 27.5706C17.33 27.5864 17.4683 27.8996 17.5654 28.3049C17.6652 28.7103 17.6872 29.051 17.7216 29.051C17.7526 29.0531 17.785 28.6986 17.681 28.2767C17.5792 27.8548 17.3878 27.5547 17.361 27.5706" fill="#0E0E0E"/>
<path d="M17.149 35.5821C17.118 35.5931 17.3341 36.1988 17.6322 36.9352C17.9302 37.671 18.1959 38.2567 18.2261 38.2422C18.2557 38.2285 18.0396 37.6228 17.743 36.8898C17.4456 36.1568 17.18 35.5711 17.149 35.5821Z" fill="#0E0E0E"/>
<path d="M12.1039 12.3095C12.075 12.3287 12.2554 12.646 12.4343 13.0562C12.6153 13.4658 12.7268 13.8133 12.7606 13.8051C12.7908 13.7982 12.7296 13.4286 12.5438 13.0081C12.36 12.5868 12.1301 12.2909 12.1039 12.3095Z" fill="#0E0E0E"/>
<path d="M11.4508 11.8848C11.4212 11.902 11.669 12.381 11.9539 12.9805C12.2402 13.5793 12.4557 14.0728 12.4873 14.0611C12.5176 14.0501 12.3497 13.5325 12.0613 12.9296C11.7743 12.3253 11.4783 11.8697 11.4508 11.8855" fill="#0E0E0E"/>
<path d="M9.94759 10.2274C9.9173 10.2384 9.9641 10.4442 10.0818 10.6741C10.1995 10.904 10.3399 11.0623 10.3667 11.0437C10.3943 11.0245 10.302 10.8421 10.1885 10.6198C10.0742 10.3974 9.97925 10.2164 9.94759 10.2281" fill="#0E0E0E"/>
<path d="M9.00121 15.671C8.96817 15.6676 8.92344 15.8637 8.90003 16.1094C8.87732 16.3544 8.88558 16.5561 8.91793 16.5589C8.95097 16.5623 8.9957 16.3661 9.0191 16.1204C9.04182 15.8754 9.03356 15.6737 9.00121 15.671Z" fill="#0E0E0E"/>
<path d="M7.96605 12.0679C7.93852 12.0892 8.16014 12.4182 8.37488 12.8546C8.59169 13.2903 8.71764 13.6667 8.75137 13.6571C8.78165 13.6502 8.70456 13.249 8.48156 12.8016C8.26132 12.3528 7.99014 12.0479 7.96605 12.0679Z" fill="#0E0E0E"/>
<path d="M14.5095 29.6918C14.4702 29.7001 14.6526 30.4923 14.8089 31.4751C14.8832 31.9666 14.921 32.4153 14.9321 32.7409C14.9438 33.0664 14.9383 33.2688 14.9568 33.2701C14.9713 33.2715 15.0071 33.0699 15.0167 32.7402C15.0277 32.4105 15.0029 31.9535 14.9272 31.4572C14.8515 30.9603 14.749 30.5177 14.6678 30.1998C14.5859 29.8818 14.5253 29.6884 14.5095 29.6918Z" fill="#0E0E0E"/>
<path d="M14.4035 31.6458C14.3704 31.6541 14.42 31.9624 14.4689 32.3424C14.5191 32.7223 14.5508 33.0327 14.5845 33.032C14.6168 33.032 14.6389 32.714 14.5872 32.3265C14.537 31.939 14.4344 31.6369 14.4035 31.6451" fill="#0E0E0E"/>
<path d="M14.0772 29.8054C14.0456 29.815 14.0917 30.0552 14.1798 30.3409C14.2679 30.6272 14.3649 30.8509 14.3966 30.8412C14.4282 30.8316 14.3821 30.5914 14.294 30.3058C14.2059 30.0194 14.1082 29.7957 14.0772 29.8054Z" fill="#0E0E0E"/>
<path d="M14.0242 31.3623C13.9912 31.3657 13.9829 31.5488 14.0056 31.7725C14.0277 31.9955 14.0731 32.1737 14.1054 32.1703C14.1378 32.1669 14.1461 31.9838 14.124 31.7608C14.1013 31.5378 14.0573 31.3595 14.0242 31.3623Z" fill="#0E0E0E"/>
<path d="M16.065 39.6828C16.034 39.6979 16.1338 39.9499 16.2198 40.2685C16.3072 40.5865 16.3492 40.8542 16.3836 40.8522C16.4153 40.8508 16.427 40.5693 16.3354 40.2369C16.246 39.9044 16.0932 39.667 16.0656 39.6821" fill="#0E0E0E"/>
<path d="M9.6709 29.6856C9.63993 29.6822 9.56766 30.1027 9.58624 30.6258C9.60207 31.1496 9.70118 31.5646 9.73216 31.5591C9.76657 31.5529 9.72114 31.1365 9.70531 30.6224C9.68742 30.1075 9.70531 29.6891 9.6709 29.6856Z" fill="#0E0E0E"/>
<path d="M9.27032 30.7848C9.23729 30.7834 9.207 30.8818 9.20219 31.005C9.19737 31.1276 9.22008 31.2287 9.25381 31.2301C9.28684 31.2315 9.31713 31.1331 9.32195 31.0099C9.32607 30.8867 9.30336 30.7862 9.27032 30.7848Z" fill="#0E0E0E"/>
<path d="M6.30043 20.9149C6.27152 20.9273 6.3961 21.2625 6.64594 21.6232C6.89372 21.9845 7.16214 22.2213 7.18417 22.1986C7.20895 22.1752 6.98595 21.9074 6.74436 21.555C6.5014 21.204 6.3314 20.8998 6.30043 20.9143" fill="#0E0E0E"/>
<path d="M5.93908 21.0794C5.90811 21.0884 5.93427 21.2715 6.02649 21.4766C6.11803 21.6817 6.23642 21.8235 6.26395 21.8063C6.29217 21.7891 6.22334 21.6252 6.13593 21.4277C6.04714 21.2302 5.97143 21.0698 5.93908 21.0794Z" fill="#0E0E0E"/>
<path d="M15.906 1.99843L15.396 2.08102L14.8873 2.16499C14.5487 2.22487 14.2107 2.27994 13.8742 2.34188C13.2004 2.46233 12.5286 2.58966 11.861 2.72869C11.1934 2.86703 10.5285 3.01501 9.86775 3.17676L9.37357 3.30065C9.20907 3.34263 9.04526 3.38806 8.88145 3.43211C8.71695 3.47478 8.55383 3.52089 8.39071 3.5677C8.22759 3.6145 8.06378 3.65855 7.90273 3.71086L7.41612 3.85815L6.93364 4.01714C6.77189 4.06669 6.61428 4.12795 6.45391 4.18232L6.21439 4.26698L5.97763 4.35715C5.82001 4.4184 5.66033 4.47484 5.50478 4.53954L5.03676 4.73294C4.88052 4.79764 4.7291 4.87129 4.57493 4.93943C4.49784 4.97453 4.42006 5.00688 4.34435 5.04404L4.11791 5.15623C3.96787 5.23332 3.81232 5.30077 3.66641 5.38474L3.22178 5.62701L2.78817 5.88787C2.71452 5.92916 2.64432 5.97665 2.5748 6.02415L2.36419 6.16524C2.29399 6.21273 2.22103 6.25678 2.15358 6.30703L1.95054 6.45982C1.81426 6.561 1.67592 6.66011 1.5479 6.7723L1.35174 6.9368C1.28636 6.99186 1.21891 7.04554 1.15972 7.10611C1.03514 7.22312 0.911937 7.34288 0.783918 7.45988C0.880965 7.31741 0.982141 7.17769 1.08263 7.03591C1.1315 6.96364 1.19 6.89963 1.24575 6.83356L1.41506 6.63533C1.5245 6.49837 1.65114 6.37929 1.77434 6.25541L1.96087 6.07095C2.0235 6.01038 2.09164 5.95532 2.15702 5.8975L2.35593 5.72681C2.42201 5.66968 2.48877 5.61256 2.55897 5.56094L2.97813 5.24571C3.26721 5.05024 3.55697 4.85201 3.86119 4.67995C4.46343 4.3248 5.09251 4.01576 5.73673 3.75078C5.81726 3.71705 5.8971 3.68126 5.97831 3.65029L6.22265 3.55737C6.38577 3.4968 6.54752 3.43004 6.71201 3.37498L7.20619 3.20704L7.70382 3.05218C8.37075 2.85533 9.04319 2.68326 9.72252 2.54217C10.4012 2.40245 11.0846 2.28682 11.7708 2.19734C12.457 2.10856 13.1453 2.04455 13.835 2.00807C14.1798 1.98948 14.5253 1.97916 14.8701 1.97641C15.2156 1.97434 15.5605 1.9771 15.9053 1.99912L15.906 1.99843Z" fill="#0E0E0E"/>
<path d="M12.391 45.6109C12.2079 45.3363 12.0509 45.0445 11.9057 44.7471C11.7612 44.4491 11.6332 44.1428 11.5237 43.829C11.3028 43.2026 11.1521 42.546 11.1032 41.8756C11.0922 41.7077 11.0853 41.5398 11.0867 41.3711C11.0881 41.2872 11.0874 41.2025 11.0936 41.1179L11.1053 40.8721C11.1101 40.7159 11.1053 40.5576 11.0887 40.3993C11.075 40.241 11.0536 40.082 11.0268 39.923C10.918 39.2891 10.7363 38.6628 10.5147 38.0543C10.2903 37.4466 10.0329 36.8499 9.7239 36.2862C9.57041 36.0047 9.40178 35.7321 9.21733 35.4774C9.1251 35.3501 9.02874 35.2276 8.92619 35.1147L8.75756 34.9275C8.70112 34.8594 8.64262 34.7926 8.591 34.7217C8.16565 34.1594 7.87795 33.5214 7.67835 32.862C7.58061 32.5309 7.50559 32.193 7.46154 31.8489C7.41543 31.5047 7.3996 31.1544 7.41956 30.8013C7.43195 30.6244 7.45122 30.4475 7.48494 30.2707C7.52073 30.0938 7.56685 29.9176 7.63017 29.7434C7.66458 29.6574 7.69762 29.5707 7.74029 29.4867L7.79536 29.3731C7.8105 29.3401 7.82839 29.3084 7.84216 29.2747C7.90273 29.1419 7.94884 29.0001 7.98945 28.8563C8.14637 28.276 8.16083 27.6421 8.08787 27.0234C8.01354 26.4046 7.84766 25.7886 7.59025 25.2359C7.52486 25.0983 7.45397 24.9675 7.37276 24.8422C7.32939 24.7789 7.28879 24.7135 7.24405 24.6523C7.19793 24.5924 7.15526 24.5291 7.10639 24.4726C6.91712 24.2386 6.6955 24.0356 6.44428 23.8146C6.19581 23.5951 5.94046 23.3556 5.71195 23.0988C5.48207 22.8428 5.27215 22.5737 5.07186 22.3004L4.92663 22.0933C4.87845 22.0224 4.83165 21.9584 4.78072 21.8772C4.6823 21.7209 4.5997 21.5564 4.53088 21.3885C4.39322 21.0519 4.31063 20.703 4.26452 20.3554C4.17297 19.6588 4.21565 18.9699 4.31682 18.2995C4.36776 17.9636 4.4359 17.6326 4.51986 17.3056C4.56185 17.1418 4.60659 16.9794 4.65545 16.8177C4.70501 16.6545 4.75525 16.4983 4.81651 16.331L4.80206 16.3937C4.81238 16.3015 4.81995 16.1913 4.82477 16.0881C4.82959 15.9835 4.83165 15.8782 4.83165 15.7722C4.83165 15.5609 4.8227 15.3496 4.80481 15.139C4.76902 14.7177 4.69675 14.2999 4.58663 13.8939C4.36707 13.0831 3.96099 12.317 3.34292 11.7478C3.18943 11.6054 3.02425 11.4746 2.84943 11.3576C2.75926 11.2949 2.66497 11.2323 2.5748 11.1662C2.48602 11.0981 2.39517 11.0334 2.30982 10.9598C1.96431 10.6762 1.65045 10.3493 1.39923 9.97897C1.14595 9.61074 0.956675 9.19915 0.845863 8.76967C0.741246 8.34019 0.702702 7.89006 0.783918 7.4592C0.742622 7.89487 0.811449 8.33262 0.945663 8.74076C1.08125 9.1496 1.28842 9.53159 1.55341 9.86678C1.8177 10.2027 2.12949 10.4979 2.47363 10.7498C2.5576 10.8152 2.64845 10.8723 2.73586 10.9322C2.82534 10.9907 2.91619 11.0437 3.00911 11.1015C3.20389 11.2172 3.38972 11.3486 3.56523 11.4945C3.91418 11.7878 4.21221 12.1415 4.45241 12.5276C4.69469 12.9138 4.87845 13.3336 5.01749 13.7645C5.15652 14.196 5.2453 14.6406 5.29761 15.0887C5.32377 15.3124 5.34029 15.5375 5.34717 15.7632C5.35061 15.8761 5.35199 15.989 5.34992 16.1025C5.34786 16.2175 5.3451 16.3262 5.33409 16.4508L5.33203 16.4763L5.31964 16.5134C5.27215 16.6566 5.22603 16.8156 5.18474 16.9691C5.14275 17.1239 5.1049 17.2802 5.06979 17.4371C5.00097 17.751 4.94315 18.0669 4.89979 18.3835C4.81582 19.016 4.79104 19.6561 4.88396 20.2666C4.93008 20.5708 5.00785 20.8668 5.12486 21.1386C5.18336 21.2742 5.2515 21.4043 5.33134 21.5248C5.36851 21.5826 5.41944 21.6514 5.46486 21.7154L5.60389 21.9116C5.79455 22.1683 5.99208 22.4181 6.20407 22.6508C6.41606 22.8848 6.6425 23.0961 6.8889 23.3108C7.01141 23.4182 7.14012 23.5304 7.26607 23.6515C7.39272 23.7727 7.5166 23.9034 7.62948 24.0418C7.68867 24.1092 7.73892 24.1829 7.79329 24.2531C7.84629 24.3247 7.89309 24.3983 7.94333 24.4713C8.04245 24.622 8.12986 24.781 8.20694 24.94C8.3618 25.2593 8.47812 25.589 8.56829 25.9242C8.65845 26.2594 8.72315 26.6001 8.76238 26.9442C8.83809 27.6318 8.82295 28.34 8.63161 29.0338C8.58205 29.2066 8.52424 29.3787 8.44784 29.5452C8.43063 29.5872 8.40792 29.6278 8.38796 29.6698L8.33496 29.7779C8.30192 29.8405 8.27646 29.9079 8.24893 29.974C8.14844 30.2459 8.092 30.5425 8.06585 30.8461C8.01973 31.4559 8.09957 32.0877 8.26613 32.692C8.43476 33.2956 8.69218 33.88 9.05077 34.3797C9.09413 34.443 9.14299 34.5022 9.1898 34.562L9.34672 34.7465C9.46167 34.8814 9.56491 35.0211 9.66126 35.1636C9.85398 35.4492 10.024 35.7438 10.1768 36.0453C10.481 36.6482 10.7336 37.2704 10.9353 37.9098C11.1369 38.5485 11.2973 39.201 11.3826 39.87C11.4239 40.2045 11.4446 40.5452 11.4143 40.8907L11.3888 41.1378C11.3792 41.2177 11.3758 41.2982 11.3696 41.378C11.3599 41.5384 11.3579 41.7001 11.3599 41.8612C11.3661 42.184 11.3998 42.5075 11.4487 42.8289C11.4983 43.1503 11.5692 43.469 11.6579 43.7842C11.8376 44.4126 12.0743 45.0293 12.3875 45.6095L12.391 45.6109Z" fill="#0E0E0E"/>
<path d="M17.2398 45.5696C15.6272 45.7431 14.0063 45.7905 12.3951 45.7148C14.0077 45.6763 15.6121 45.5139 17.191 45.2289L17.2398 45.5696Z" fill="#0E0E0E"/>
<path d="M18.6288 23.7238C18.7878 23.7754 18.9412 23.8456 19.092 23.9206C19.2427 23.9957 19.3879 24.081 19.5304 24.1719C19.8133 24.3563 20.0824 24.5662 20.3254 24.8058C20.8147 25.2807 21.2008 25.876 21.4225 26.5313C21.481 26.6944 21.5202 26.863 21.5608 27.0303L21.6035 27.2856C21.6117 27.3283 21.6166 27.371 21.62 27.4136L21.6317 27.5423L21.6427 27.671C21.6462 27.7137 21.6448 27.7571 21.6462 27.7998C21.6475 27.8858 21.6482 27.9718 21.6475 28.0572C21.6345 28.2279 21.631 28.3992 21.6 28.5672C21.5051 29.2424 21.2807 29.8894 20.9593 30.4751C21.1485 29.8343 21.2917 29.188 21.333 28.5403L21.3413 28.4192C21.344 28.3786 21.3413 28.338 21.3419 28.2981L21.344 28.0558L21.3302 27.8149C21.3275 27.775 21.3275 27.7344 21.3227 27.6944L21.3075 27.5754C21.2724 27.2567 21.2015 26.9435 21.0976 26.6421C20.8939 26.0371 20.558 25.4782 20.132 24.9895C19.9179 24.7466 19.6839 24.5174 19.432 24.3068C19.3074 24.1994 19.1773 24.0989 19.0438 24.0012C18.9103 23.9041 18.7733 23.8098 18.6302 23.7238H18.6288Z" fill="#0E0E0E"/>
<path d="M16.1558 26.2043C15.7119 25.9717 15.3127 25.6606 14.9389 25.3233C14.7545 25.152 14.5762 24.973 14.4083 24.7844C14.241 24.5951 14.082 24.3976 13.9334 24.1925C13.7847 23.9874 13.6443 23.7754 13.519 23.5545C13.3896 23.3356 13.2761 23.1085 13.1673 22.8786C12.9615 22.414 12.7963 21.9302 12.6814 21.4346C12.6243 21.1868 12.5809 20.9363 12.5465 20.6844C12.5086 20.4325 12.4914 20.1744 12.4928 19.919C12.4935 19.6637 12.51 19.4083 12.5396 19.1564C12.5678 18.91 12.5961 18.6657 12.6153 18.4193C12.6518 17.9278 12.6725 17.4337 12.6401 16.9422C12.6257 16.6965 12.5947 16.4522 12.5403 16.2127C12.5128 16.0929 12.477 15.9752 12.4316 15.861C12.3861 15.7467 12.329 15.6359 12.2526 15.5375C12.4323 15.7144 12.5458 15.9497 12.6298 16.1872C12.7138 16.4267 12.7647 16.6752 12.8039 16.925C12.8769 17.4254 12.8934 17.9306 12.8789 18.433C12.8714 18.6843 12.8597 18.9369 12.837 19.186C12.8163 19.429 12.8087 19.6726 12.8156 19.9149C12.8239 20.1578 12.8404 20.3974 12.8796 20.6383C12.9154 20.8798 12.9595 21.1201 13.0173 21.3568C13.2362 22.3073 13.6264 23.2159 14.1591 24.0383C14.2906 24.2448 14.4365 24.4424 14.5859 24.6378C14.7345 24.8333 14.8949 25.0205 15.0621 25.2022C15.3946 25.5663 15.7573 25.9063 16.1579 26.2043H16.1558Z" fill="#0E0E0E"/>
<path d="M17.9309 23.2282C17.5826 23.0376 17.2908 22.7506 17.0506 22.4312C16.8097 22.1098 16.63 21.7429 16.5089 21.3589C16.4531 21.1655 16.4057 20.9693 16.3781 20.7704C16.3533 20.5715 16.3341 20.3712 16.3389 20.1716C16.3416 19.7724 16.3988 19.3753 16.511 18.9967C16.4827 19.3904 16.4724 19.7807 16.4999 20.1661C16.5137 20.3588 16.5357 20.5502 16.5708 20.7394C16.6032 20.9287 16.65 21.1152 16.7057 21.2976C16.7594 21.4814 16.831 21.6597 16.9102 21.8338C16.9879 22.0086 17.0822 22.1766 17.1827 22.3404C17.3899 22.6639 17.6335 22.9694 17.9309 23.2289V23.2282Z" fill="#0E0E0E"/>
<path d="M14.2059 44.1628C14.2114 43.4821 14.1867 42.8083 14.1323 42.1386C14.0724 41.4696 13.9829 40.8061 13.835 40.1563C13.8184 40.0744 13.7971 39.9946 13.7771 39.9134C13.7572 39.8328 13.7372 39.7516 13.7131 39.6725C13.6904 39.5926 13.6698 39.5121 13.645 39.433L13.5693 39.1962C13.4633 38.8816 13.3401 38.574 13.1983 38.2732C13.051 37.9766 12.8865 37.6868 12.6972 37.4115C12.5052 37.1376 12.287 36.8829 12.0509 36.6358C12.3352 36.8237 12.5933 37.0536 12.8294 37.3062C13.0565 37.5657 13.2609 37.8472 13.4358 38.1473C13.6106 38.4467 13.753 38.764 13.8769 39.0868C13.9988 39.4109 14.0924 39.7441 14.1708 40.0799C14.3229 40.7531 14.3938 41.4407 14.4 42.1255C14.4042 42.4682 14.389 42.8103 14.3594 43.1503C14.3257 43.4903 14.2844 43.8297 14.2059 44.1621V44.1628Z" fill="#0E0E0E"/>
<path d="M18.2578 39.5217C17.7347 38.4453 17.1084 37.3902 16.6204 36.3385C15.7064 34.3707 15.6479 32.2116 15.2459 30.1158C14.9052 28.3407 13.8824 26.8864 12.901 25.4114C11.5891 23.4402 11.523 21.6872 11.6765 19.4303C11.7935 17.7097 11.2216 15.7481 10.6599 14.1492C9.89596 11.9729 8.12297 10.6349 7.89515 8.19565C7.74373 6.5727 7.96123 5.23814 7.2413 3.72049C7.17316 3.57733 6.95773 3.69296 7.02449 3.83612C7.78779 5.47215 7.52349 7.13089 7.69074 8.85777C7.84353 10.4298 9.01291 11.7712 9.82576 13.0459C10.971 14.8396 11.362 17.3263 11.4501 19.4207C11.5051 20.7291 10.9766 21.9742 11.5127 23.2565C12.179 24.8484 13.2362 26.1899 14.1178 27.6621C15.1991 29.4681 15.2968 31.6286 15.6424 33.6501C15.9865 35.6688 17.2722 37.5801 18.2089 39.5211H18.2571L18.2578 39.5217Z" fill="#0E0E0E"/>
<path d="M18.7478 32.7044C18.8779 34.116 19.4988 35.4093 20.2269 36.6675L20.2903 36.567C19.9241 35.9152 19.5985 35.2538 19.3728 34.5689C18.3163 31.3685 19.3694 28.0179 17.1352 25.1802C16.5055 24.3811 15.6898 23.9165 15.111 23.0397C14.4055 21.9715 14.3635 20.48 14.3009 19.2638C14.2025 17.3669 14.3161 15.4404 13.9994 13.5607C13.8019 12.3872 12.7537 11.4498 12.0007 10.6142C10.2091 8.6272 10.7377 5.60774 10.0667 3.24558C10.0453 3.17125 9.7824 3.25866 9.79135 3.30959C10.0846 5.01445 10.2119 7.21417 10.5987 8.88392C10.8788 10.0912 11.9924 11.0465 12.7764 11.9364C14.4117 13.7934 13.9127 16.9443 14.0091 19.2521C14.0662 20.6245 14.2403 21.9288 14.8612 23.1718C15.5549 24.56 17.0636 25.2924 17.8063 26.7157C18.7458 28.5156 18.5689 30.7497 18.7485 32.7044H18.7478Z" fill="#0E0E0E"/>
<path d="M18.7478 32.7044C18.8146 33.4126 19.0101 34.1037 19.2771 34.761C19.5428 35.4203 19.8862 36.0446 20.2455 36.6565H20.2077L20.2696 36.5546V36.578C19.9186 35.962 19.5896 35.3295 19.3494 34.657C19.1133 33.9846 18.9578 33.2846 18.8545 32.5798C18.7506 31.875 18.6921 31.1654 18.6212 30.462C18.5517 29.7586 18.4739 29.0572 18.3232 28.3765C18.1745 27.6965 17.9591 27.0358 17.6335 26.4349C17.4718 26.1341 17.2866 25.8485 17.0815 25.5787L16.9225 25.3798C16.8682 25.3151 16.8152 25.2531 16.7574 25.1926C16.6452 25.0701 16.5213 24.9537 16.396 24.8381C16.1427 24.6082 15.8681 24.3845 15.5962 24.1381C15.4607 24.0136 15.3258 23.8842 15.1964 23.7451C15.0683 23.604 14.9424 23.4588 14.8302 23.2998C14.5976 22.9805 14.4207 22.6226 14.2927 22.2612C14.1626 21.8985 14.0745 21.5296 14.0091 21.1634C13.9437 20.7966 13.9003 20.4318 13.8673 20.0718L13.8226 19.5356L13.7826 19.0009C13.7324 18.2816 13.7111 17.5686 13.6815 16.8651C13.6505 16.1617 13.6161 15.4666 13.5424 14.7852C13.5046 14.4452 13.4605 14.1072 13.3993 13.7755C13.3924 13.7356 13.3855 13.6888 13.3779 13.6543L13.3545 13.5573C13.3435 13.4926 13.3146 13.4286 13.296 13.3639C13.2726 13.2992 13.2437 13.2352 13.2169 13.1705C13.1825 13.1065 13.1556 13.0418 13.1171 12.9778C12.9725 12.721 12.7846 12.4691 12.5727 12.22C12.3607 11.9715 12.126 11.7237 11.8809 11.4677C11.7591 11.3404 11.6332 11.2075 11.5079 11.0719L11.3083 10.8414C11.2464 10.7608 11.1823 10.681 11.1225 10.5984C10.8843 10.268 10.6882 9.91083 10.5333 9.54535C10.2201 8.81166 10.0605 8.05524 9.9524 7.32567C9.84779 6.59335 9.79548 5.87892 9.71977 5.19065C9.68122 4.8472 9.63855 4.50994 9.58349 4.18164C9.56972 4.09973 9.55527 4.01783 9.53875 3.93799C9.52361 3.85677 9.50571 3.77762 9.48782 3.69847C9.4713 3.61863 9.44928 3.54223 9.43 3.46377L9.42243 3.43486C9.4066 3.3798 9.44446 3.53741 9.51673 3.62895C9.58762 3.72187 9.64475 3.76798 9.72803 3.81479C9.78515 3.84507 9.82301 3.85884 9.87463 3.87122C9.90973 3.87948 9.92831 3.88224 9.95584 3.88499C9.98682 3.88706 9.98819 3.88705 10.0054 3.88705L10.0384 3.88499C10.1024 3.87604 10.0935 3.87535 10.1293 3.86159C10.1348 3.85884 10.1534 3.84989 10.1678 3.84025C10.1823 3.83199 10.1961 3.82236 10.2091 3.81203C10.2256 3.79964 10.2635 3.76867 10.2848 3.74321C10.3316 3.68401 10.3778 3.64685 10.4294 3.48304C10.4782 3.2036 10.4246 3.15129 10.4445 3.20704L10.45 3.24077L10.4707 3.37636C10.4851 3.46652 10.4989 3.55737 10.5106 3.64685C10.5361 3.82718 10.5601 4.00613 10.5815 4.18508C10.6235 4.54229 10.662 4.89813 10.6985 5.25121L10.8093 6.30565C10.8465 6.6546 10.8829 7.00287 10.9277 7.34701C10.9724 7.69114 11.0199 8.03322 11.0812 8.36841C11.0949 8.45306 11.1128 8.53497 11.128 8.61894L11.1521 8.74352C11.1603 8.78206 11.1693 8.81234 11.1775 8.84744C11.1865 8.88117 11.192 8.91558 11.2037 8.95L11.2381 9.05255C11.2574 9.12138 11.2918 9.18883 11.3186 9.25697C11.437 9.53021 11.6084 9.79933 11.8039 10.0622C12 10.3259 12.2203 10.586 12.4515 10.8476L12.8039 11.2447C12.9237 11.381 13.0414 11.5138 13.1625 11.6632C13.4151 11.9729 13.6181 12.3163 13.7771 12.6715C14.0931 13.3852 14.2286 14.1348 14.2933 14.865C14.356 15.598 14.3429 16.32 14.3174 17.0331C14.292 17.7461 14.2472 18.4516 14.2486 19.1481C14.252 19.8481 14.2878 20.5481 14.4028 21.2329C14.517 21.9164 14.7166 22.5902 15.0264 23.209C15.1805 23.5139 15.3801 23.7988 15.6052 24.0652C15.8303 24.3315 16.0794 24.5814 16.3293 24.8319C16.5798 25.0824 16.8324 25.3337 17.0685 25.6014C17.3059 25.8678 17.5275 26.1513 17.7106 26.4597L17.8407 26.6951L17.9529 26.9387C17.9708 26.9793 17.9914 27.0192 18.008 27.0605L18.0554 27.1858C18.0864 27.2698 18.1208 27.3517 18.1484 27.4363C18.2599 27.775 18.3486 28.1191 18.4154 28.4681C18.6714 29.8687 18.624 31.2948 18.7458 32.7058L18.7478 32.7044ZM18.7478 32.7044C18.6831 31.9989 18.6604 31.29 18.6205 30.5824C18.6116 30.4056 18.5985 30.2287 18.5861 30.0525C18.5689 29.8763 18.5572 29.6994 18.5352 29.5239C18.4994 29.1715 18.4423 28.8218 18.3741 28.4756C18.3349 28.3036 18.2998 28.1301 18.2488 27.9608C18.2062 27.7894 18.1463 27.6236 18.0892 27.457C18.0596 27.3737 18.0231 27.2939 17.9901 27.212L17.9398 27.0901C17.9226 27.0495 17.9013 27.011 17.882 26.9718L17.765 26.7357L17.6315 26.5092C17.4436 26.2133 17.2199 25.9421 16.9783 25.6868C16.7353 25.4328 16.4759 25.1939 16.2157 24.9531C15.9555 24.7122 15.694 24.4699 15.451 24.2042C15.2081 23.9392 14.9809 23.6522 14.8006 23.3329C14.4454 22.6996 14.2046 22.01 14.0442 21.3045C13.8859 20.5983 13.8088 19.8805 13.7592 19.1654C13.7131 18.4454 13.7152 17.7337 13.6966 17.0296C13.6787 16.3262 13.6464 15.6283 13.5459 14.9524C13.4447 14.2786 13.2768 13.6227 12.9801 13.0549C12.8321 12.7713 12.6525 12.5125 12.444 12.2833C12.3352 12.1635 12.2113 12.0376 12.0902 11.9144L11.7158 11.5365C11.4639 11.2798 11.2078 11.0141 10.9669 10.7202C10.726 10.4263 10.4955 10.1063 10.3117 9.73738C10.2683 9.64378 10.2195 9.55361 10.1837 9.45381L10.1265 9.30652C10.108 9.25697 10.0942 9.20466 10.0784 9.15373C10.0632 9.10348 10.0467 9.04911 10.0343 9.00162L10.0013 8.86672C9.97925 8.77724 9.95722 8.68639 9.93864 8.59691C9.85811 8.23763 9.79479 7.87973 9.73422 7.52321C9.67365 7.16668 9.62134 6.81153 9.5711 6.45776L9.42932 5.40126C9.38251 5.05093 9.33502 4.70335 9.28409 4.35783L9.20563 3.84369C9.19255 3.75835 9.1781 3.67369 9.16295 3.58903L9.13542 3.43073C9.15332 3.47616 9.09826 3.41283 9.14988 3.12238C9.20425 2.94825 9.25862 2.90214 9.31162 2.83468C9.3419 2.80234 9.38664 2.76242 9.4128 2.74383C9.43482 2.72731 9.45822 2.71148 9.48162 2.69703C9.51535 2.67707 9.55321 2.65711 9.57936 2.64541C9.69568 2.59517 9.77345 2.5697 9.92556 2.5518C9.94208 2.54974 9.96548 2.54836 9.99164 2.54836C10.0205 2.54836 10.0329 2.54767 10.0742 2.55112C10.1135 2.55525 10.1431 2.55869 10.1885 2.56901C10.2504 2.58553 10.2986 2.60136 10.3661 2.63646C10.4576 2.69015 10.5264 2.74039 10.6021 2.84363C10.6806 2.94481 10.724 3.11137 10.7102 3.06801L10.7198 3.10311C10.7446 3.19603 10.7728 3.29032 10.7942 3.38324C10.8169 3.47616 10.8396 3.56976 10.8589 3.66268C10.8795 3.75559 10.8981 3.84851 10.9146 3.94074C10.9848 4.31034 11.0344 4.67582 11.0757 5.03647C11.1583 5.75641 11.2154 6.45569 11.3145 7.12607C11.4088 7.79645 11.5471 8.43861 11.7887 9.01194C11.9099 9.29826 12.053 9.56738 12.2237 9.81585C12.2664 9.87779 12.3132 9.93698 12.3572 9.99755L12.5025 10.1717C12.6153 10.2976 12.731 10.425 12.8521 10.5551C13.3311 11.0754 13.8556 11.6363 14.2445 12.3707C14.294 12.4602 14.3353 12.56 14.3801 12.6543C14.4193 12.7534 14.4592 12.8532 14.4929 12.9558C14.5225 13.0611 14.559 13.1629 14.5783 13.273L14.6113 13.4362C14.621 13.4878 14.6251 13.5298 14.632 13.5773C14.6857 13.9448 14.7187 14.3123 14.7448 14.6771C14.7958 15.4081 14.8027 16.1301 14.7972 16.8431C14.793 17.5562 14.7813 18.2603 14.7896 18.9575L14.7999 19.4847L14.8144 20.0099C14.8268 20.3568 14.8453 20.6981 14.8846 21.032C14.963 21.6982 15.1151 22.3452 15.4538 22.8738C15.5377 23.0101 15.6368 23.1395 15.7387 23.2675C15.8433 23.3941 15.9569 23.518 16.0746 23.6405C16.3127 23.8849 16.5743 24.1257 16.8303 24.3887C16.9576 24.5215 17.0843 24.6564 17.2027 24.8023C17.2626 24.8739 17.3204 24.9503 17.3754 25.0246L17.5351 25.2518C17.7402 25.5587 17.9219 25.8815 18.0754 26.2153C18.2303 26.5492 18.3535 26.8954 18.4533 27.2457C18.5538 27.596 18.6295 27.9512 18.6866 28.307C18.8015 29.0194 18.8442 29.7331 18.8814 30.442C18.9 30.7965 18.9144 31.1503 18.9351 31.5034C18.9571 31.8558 18.9839 32.2081 19.0218 32.5585C19.0603 32.9088 19.1078 33.2578 19.1766 33.6033C19.2455 33.9488 19.3343 34.2895 19.4402 34.6254C19.6584 35.2951 19.9647 35.9365 20.3068 36.5553L20.3137 36.5677L20.3061 36.5787L20.2421 36.6792L20.2221 36.7101L20.2042 36.6785C19.8525 36.0604 19.527 35.4258 19.262 34.7658C18.9984 34.1057 18.807 33.4133 18.7444 32.7044H18.7478Z" fill="#0E0E0E"/>
<path d="M21.8705 30.559H21.8905C22.1101 29.3119 22.4246 28.0709 22.2732 26.7577C22.0688 24.984 20.8161 24.0803 19.4175 23.2406C15.7119 21.0168 18.1305 15.693 16.9976 12.2936C16.3767 10.4312 14.5514 9.4311 14.0559 7.42822C13.6429 5.75778 13.8549 4.03572 12.7344 2.61925C12.6766 2.54699 12.5754 2.64403 12.6298 2.71561C13.8769 4.36196 13.2775 6.23613 13.9547 8.0222C14.6471 9.84751 16.3086 10.9715 16.9308 12.8222C17.924 15.7784 16.3093 18.9919 17.7973 21.8765C18.4746 23.1904 19.9668 23.644 21.015 24.5621C22.6318 25.9772 22.2663 28.4887 21.8692 30.5597L21.8705 30.559Z" fill="#0E0E0E"/>
<path d="M1.41988 7.85702C1.46737 8.18051 1.57681 8.48335 1.71446 8.76829C1.85487 9.05186 2.03176 9.31547 2.23411 9.55774L2.39104 9.73601C2.44197 9.79657 2.5046 9.84613 2.55966 9.90326C2.66772 10.0203 2.79643 10.1152 2.9155 10.2226C2.974 10.2784 3.04214 10.3204 3.10546 10.3699L3.29749 10.5165C3.43033 10.6087 3.56592 10.6961 3.69807 10.7953C3.54527 10.7368 3.39454 10.6721 3.24518 10.6025C3.1034 10.52 2.95473 10.4463 2.81983 10.3506C2.68493 10.255 2.54865 10.1593 2.42751 10.0457C2.39585 10.0182 2.36557 9.98998 2.33529 9.96176C2.30431 9.93354 2.27334 9.90601 2.2465 9.87435L2.07718 9.68989C2.02212 9.62726 1.97601 9.55706 1.92508 9.49029C1.90099 9.45657 1.87414 9.42422 1.85212 9.38843L1.78673 9.28106L1.72341 9.173C1.70276 9.13652 1.68624 9.09798 1.66766 9.06081C1.63049 8.98579 1.59402 8.91077 1.56786 8.83093C1.45086 8.51983 1.38203 8.18395 1.42057 7.85633L1.41988 7.85702Z" fill="#0E0E0E"/>
</svg>
