<svg width="59" height="53" viewBox="0 0 59 53" fill="none" xmlns="http://www.w3.org/2000/svg">
<path fill-rule="evenodd" clip-rule="evenodd" d="M0.562127 24.6978C0.431534 24.7968 0.371151 24.9092 0.347516 25.0222C0.322197 25.1433 0.337082 25.2762 0.374917 25.4069C0.412528 25.5368 0.470098 25.6552 0.519457 25.7423C0.543916 25.7855 0.565825 25.8201 0.581341 25.8435C0.589086 25.8551 0.595199 25.864 0.599192 25.8696C0.600069 25.8709 0.600842 25.872 0.601508 25.8729C0.602948 25.8745 0.60483 25.8767 0.607144 25.8793C0.61383 25.887 0.624108 25.8985 0.637722 25.9132C0.664977 25.9426 0.705456 25.9847 0.757127 26.0337C0.860937 26.1324 1.00758 26.2571 1.1809 26.3648C1.53282 26.5836 1.9536 26.7098 2.35614 26.4815C2.58568 26.3512 2.68773 26.2442 2.7289 26.1709C2.76422 26.108 2.75722 26.0672 2.74171 26.0333C2.72163 25.9896 2.67987 25.9465 2.63183 25.9106C2.60928 25.8937 2.58842 25.8807 2.57347 25.8721C2.56607 25.8678 2.56032 25.8647 2.55679 25.8629C2.55503 25.8619 2.55385 25.8614 2.5533 25.8611C2.55322 25.861 2.55326 25.8611 2.5532 25.861C2.55309 25.861 2.55294 25.8609 2.55298 25.8609L2.55186 25.8604L2.55005 25.8595L2.6256 25.7098C2.55005 25.8595 2.54999 25.8594 2.54994 25.8594L2.54955 25.8592L2.54891 25.8589L2.54724 25.858C2.54595 25.8574 2.54431 25.8565 2.54232 25.8554C2.53834 25.8533 2.53298 25.8504 2.52626 25.8466C2.51283 25.8389 2.49399 25.8279 2.47001 25.8128C2.42205 25.7826 2.35357 25.7363 2.26674 25.6698C2.09305 25.5367 1.84612 25.3225 1.54313 24.9931C1.27866 24.7056 1.02566 24.6429 0.847576 24.6423C0.755691 24.6419 0.679244 24.6582 0.626535 24.6742C0.600284 24.6822 0.580317 24.69 0.567756 24.6954C0.565668 24.6963 0.56379 24.6971 0.562127 24.6978ZM2.70113 25.5602L2.70039 25.5598C2.69871 25.5589 2.69564 25.5572 2.6912 25.5547C2.68231 25.5497 2.66794 25.5412 2.64835 25.5289C2.60918 25.5042 2.54912 25.4639 2.47032 25.4035C2.31275 25.2827 2.08004 25.0818 1.7895 24.7659C1.46044 24.4082 1.1179 24.308 0.848831 24.3069C0.717138 24.3064 0.607103 24.3297 0.529224 24.3533C0.49018 24.3652 0.458827 24.3773 0.436392 24.3869C0.42516 24.3917 0.416116 24.3959 0.409411 24.3991C0.406057 24.4007 0.403283 24.4021 0.401109 24.4032L0.398297 24.4047L0.397231 24.4052L0.396783 24.4054L0.396581 24.4056C0.396486 24.4056 0.396393 24.4057 0.475239 24.5536L0.396393 24.4057L0.386107 24.4112L0.376681 24.418C0.17071 24.5681 0.0609712 24.756 0.0196712 24.9535C-0.0206389 25.1464 0.00621893 25.3379 0.0532096 25.5002C0.100424 25.6633 0.170763 25.8065 0.228105 25.9078C0.256997 25.9588 0.283137 26.0001 0.302332 26.029C0.311943 26.0435 0.319852 26.0549 0.325541 26.063C0.328387 26.067 0.330682 26.0702 0.33236 26.0725L0.33441 26.0754L0.335074 26.0763L0.335314 26.0766L0.33541 26.0767C0.335452 26.0768 0.335491 26.0768 0.46988 25.9768L0.33549 26.0768L0.338432 26.0808L0.3416 26.0846L0.46988 25.9768C0.3416 26.0846 0.341641 26.0846 0.341685 26.0847L0.341793 26.0848L0.34208 26.0851L0.342929 26.0861L0.345728 26.0894C0.348078 26.0922 0.351393 26.096 0.355641 26.1008C0.364135 26.1105 0.376374 26.1242 0.392101 26.1412C0.42353 26.1751 0.469039 26.2223 0.526582 26.277C0.641199 26.3859 0.805889 26.5264 1.0042 26.6497C1.39552 26.893 1.95916 27.0921 2.52127 26.7732C2.77405 26.6298 2.93653 26.4853 3.02083 26.3353C3.111 26.1748 3.10443 26.0205 3.04608 25.8934C2.99231 25.7762 2.89992 25.6925 2.83228 25.6419C2.79699 25.6155 2.76463 25.5953 2.74081 25.5816C2.72883 25.5747 2.71881 25.5692 2.71141 25.5654C2.70771 25.5635 2.70465 25.5619 2.70231 25.5608L2.70113 25.5602Z" fill="#0E0E0E"/>
<path d="M2.17543 25.7078C2.22635 25.7206 2.27525 25.742 2.3208 25.7749C2.34358 25.7917 2.36501 25.8111 2.38243 25.8386C2.40052 25.8648 2.41124 25.901 2.40856 25.9379C2.40722 25.9566 2.4032 25.9748 2.39516 25.9902C2.38913 26.0076 2.37975 26.021 2.37037 26.0344C2.36099 26.0492 2.35095 26.0606 2.3409 26.0707C2.33018 26.0814 2.32013 26.0935 2.30874 26.1022C2.2652 26.1424 2.21563 26.1693 2.16673 26.1961C1.96777 26.298 1.73933 26.3269 1.51894 26.2974C1.4084 26.2826 1.30122 26.2471 1.20074 26.2014L1.12705 26.1632C1.10293 26.1498 1.08015 26.1337 1.05738 26.119C1.00915 26.0894 0.971631 26.0566 0.929428 26.0244C0.847701 25.9593 0.769323 25.8889 0.696304 25.8125C0.6608 25.7736 0.625965 25.7333 0.59515 25.6897C0.565675 25.6461 0.53419 25.5998 0.526821 25.5462C0.554286 25.5898 0.59649 25.62 0.635344 25.6515C0.675538 25.6817 0.716401 25.7105 0.759944 25.7373C0.843681 25.793 0.931438 25.8433 1.01785 25.8949C1.10829 25.9452 1.18801 25.9935 1.2771 26.0264C1.36486 26.0593 1.45463 26.0868 1.54774 26.0982C1.73196 26.1236 1.92623 26.1116 2.10509 26.0526C2.14931 26.0378 2.19285 26.019 2.23104 25.9969C2.26989 25.9748 2.30137 25.9493 2.31209 25.9218C2.32616 25.8956 2.31075 25.8527 2.28262 25.8145C2.25448 25.7762 2.2163 25.7407 2.17543 25.7078Z" fill="#0E0E0E"/>
<path d="M1.66028 25.5958C1.59195 25.5174 1.53099 25.4382 1.46936 25.3604C1.4084 25.2826 1.34677 25.2068 1.28313 25.1357C1.21882 25.066 1.1525 24.9976 1.07614 24.9493C1.00044 24.901 0.91335 24.8735 0.808847 24.8923C0.847701 24.8574 0.900622 24.8359 0.956894 24.8299C1.01316 24.8245 1.07078 24.8353 1.12236 24.8554C1.22753 24.8963 1.31194 24.9681 1.38228 25.0459C1.45262 25.1243 1.51023 25.2122 1.55712 25.3041C1.60401 25.396 1.64153 25.4925 1.66028 25.5958Z" fill="#0E0E0E"/>
<path d="M17.5509 37.7358C17.6976 37.8405 17.8329 37.9679 17.924 38.1275C17.9682 38.2073 17.9997 38.2979 17.997 38.3918C17.995 38.4857 17.9568 38.5775 17.8972 38.6493C17.7773 38.7942 17.6078 38.8793 17.441 38.9498C17.3559 38.984 17.2715 39.0148 17.1818 39.0383C17.0927 39.0611 17.0009 39.0738 16.9098 39.0812C16.5434 39.104 16.1809 39.0437 15.8272 38.9699C15.4729 38.8928 15.1238 38.7922 14.7802 38.6795C14.0935 38.4494 13.421 38.1798 12.7605 37.8847C12.1006 37.589 11.4488 37.2744 10.8124 36.931C11.1366 37.0906 11.4629 37.2462 11.7911 37.3965C12.1187 37.548 12.4483 37.6963 12.7806 37.8378C13.4444 38.1215 14.115 38.3918 14.8003 38.6158C15.1426 38.7278 15.4883 38.8311 15.84 38.9095C16.191 38.986 16.5494 39.0443 16.9058 39.0276C16.9949 39.0222 17.0833 39.0108 17.169 38.9907C17.2548 38.9699 17.3405 38.9404 17.4236 38.9089C17.5884 38.8438 17.7545 38.7626 17.8698 38.6285C17.926 38.5621 17.9649 38.4796 17.9689 38.3918C17.9743 38.3039 17.9475 38.2167 17.9066 38.1376C17.8222 37.9793 17.6922 37.8478 17.5502 37.7372L17.5509 37.7358Z" fill="#0E0E0E"/>
<path d="M9.92814 36.3153C9.72181 36.2597 9.51883 36.1899 9.31987 36.1114C9.12024 36.0336 8.92396 35.9471 8.7317 35.8505C8.3512 35.6527 7.98209 35.418 7.68533 35.0947C7.53862 34.9331 7.41268 34.7453 7.34234 34.532C7.27066 34.3201 7.25994 34.086 7.31152 33.868C7.33832 33.7594 7.37449 33.6534 7.42407 33.5541C7.46895 33.4529 7.52857 33.3563 7.60092 33.2691C7.74361 33.0934 7.95194 32.9653 8.17502 32.921C8.39809 32.8754 8.62519 32.8962 8.83822 32.9452C9.05258 32.9948 9.2569 33.0712 9.45385 33.1625C9.84641 33.3462 10.2128 33.5763 10.5558 33.8358C10.8995 34.094 11.2251 34.3744 11.5332 34.6728C11.6859 34.8231 11.834 34.9787 11.976 35.139C12.1174 35.2999 12.254 35.4662 12.3672 35.648C12.112 35.3046 11.8038 35.0068 11.4883 34.7205C11.1735 34.4334 10.8425 34.1645 10.4955 33.919C10.1472 33.6762 9.78813 33.4468 9.40361 33.2738C9.21202 33.1873 9.01373 33.1155 8.81075 33.0706C8.60844 33.0256 8.39943 33.0109 8.20315 33.0525C8.00621 33.0907 7.82868 33.1973 7.69939 33.3516C7.63441 33.428 7.57948 33.5146 7.53728 33.6085C7.49039 33.7003 7.45622 33.7976 7.43076 33.8955C7.38186 34.0934 7.38923 34.3019 7.45287 34.4958C7.51584 34.6896 7.62771 34.868 7.76236 35.0263C8.03635 35.3435 8.3934 35.5856 8.76252 35.7929C9.13297 36.0021 9.52553 36.1725 9.92814 36.3153Z" fill="#0E0E0E"/>
<path d="M20.3343 43.0208C20.3075 43.055 19.7408 42.6278 18.9798 42.2046C18.2208 41.7774 17.5616 41.5171 17.5763 41.4762C17.5871 41.4407 18.2797 41.6432 19.0508 42.0778C19.8238 42.5084 20.3584 42.9933 20.3336 43.0208" fill="#0E0E0E"/>
<path d="M20.1735 42.1731C20.1474 42.2053 19.8741 42.0228 19.5277 41.8183C19.1821 41.6124 18.89 41.4608 18.9061 41.4226C18.9195 41.3857 19.245 41.4809 19.6021 41.6929C19.9598 41.9035 20.1996 42.1436 20.1742 42.1731" fill="#0E0E0E"/>
<path d="M33.351 43.4132C33.3276 43.4279 33.1923 43.2549 33.0147 43.053C32.8379 42.8498 32.6845 42.6928 32.7026 42.6714C32.7187 42.6513 32.9056 42.7794 33.0884 42.9886C33.2713 43.1972 33.3738 43.3997 33.3517 43.4132" fill="#0E0E0E"/>
<path d="M22.628 37.2013C22.5972 37.2275 22.3942 37.0343 22.1732 36.7701C21.9534 36.5065 21.8 36.2717 21.8308 36.2456C21.8617 36.2194 22.0653 36.4132 22.2857 36.6768C22.5054 36.9404 22.6595 37.1758 22.628 37.2013Z" fill="#0E0E0E"/>
<path d="M27.9845 40.0383C27.9624 40.0758 27.3407 39.7345 26.5275 39.4246C25.7156 39.1101 25.0256 38.9471 25.0343 38.9042C25.0396 38.8673 25.7538 38.9692 26.5797 39.2885C27.4064 39.6044 28.0046 40.0074 27.9845 40.0383Z" fill="#0E0E0E"/>
<path d="M27.7165 39.1912C27.6971 39.2274 27.3943 39.1 27.0152 38.9645C26.6367 38.8277 26.3218 38.7338 26.3299 38.6929C26.3366 38.6547 26.6742 38.6862 27.0641 38.827C27.4546 38.9665 27.7353 39.157 27.7165 39.1912Z" fill="#0E0E0E"/>
<path d="M14.8981 31.7788C14.88 31.8151 15.1145 31.968 15.422 32.1222C15.7294 32.2758 15.9927 32.371 16.0108 32.3348C16.0289 32.2986 15.7937 32.145 15.4869 31.9914C15.1794 31.8379 14.9162 31.7426 14.8981 31.7788Z" fill="#0E0E0E"/>
<path d="M11.1226 30.52C11.1172 30.5629 11.8179 30.6729 12.6513 30.9237C13.486 31.1705 14.1324 31.4629 14.1512 31.4234C14.1692 31.3912 13.5416 31.0351 12.6928 30.7842C11.8454 30.5294 11.1259 30.4831 11.1232 30.52" fill="#0E0E0E"/>
<path d="M10.7689 33.1222C10.7883 33.0981 10.9692 33.2128 11.1735 33.3771C11.3771 33.5421 11.5272 33.6943 11.5077 33.7184C11.4883 33.7426 11.3075 33.6279 11.1031 33.4636C10.8995 33.2986 10.7494 33.1464 10.7689 33.1222Z" fill="#0E0E0E"/>
<path d="M10.5652 32.9814C10.5384 33.0256 10.1659 32.8492 9.69769 32.6581C9.2301 32.4656 8.84023 32.3301 8.85295 32.2798C8.86367 32.2315 9.28504 32.2906 9.76669 32.4891C10.249 32.6856 10.5913 32.9405 10.5652 32.9814Z" fill="#0E0E0E"/>
<path d="M24.4274 46.3118C24.4193 46.3514 24.6853 46.4393 25.0222 46.5084C25.3585 46.5774 25.6372 46.6016 25.6459 46.562C25.6539 46.5224 25.3873 46.4346 25.051 46.3655C24.7147 46.2964 24.4354 46.2716 24.4274 46.3118Z" fill="#0E0E0E"/>
<path d="M23.9645 46.175C23.9846 46.11 23.4855 45.9014 22.8899 45.611C22.2931 45.3233 21.8195 45.0617 21.7813 45.118C21.7438 45.1703 22.1698 45.5305 22.7854 45.8269C23.3997 46.1254 23.947 46.2367 23.9645 46.175Z" fill="#0E0E0E"/>
<path d="M8.74175 30.911C8.71696 30.697 8.725 30.4791 8.76252 30.2658C8.78127 30.1591 8.80673 30.0532 8.8429 29.9506C8.87707 29.8473 8.92262 29.7473 8.97621 29.6528C9.08474 29.4636 9.23077 29.2926 9.40897 29.1625C9.58649 29.0317 9.79081 28.9392 10.0018 28.8775C10.4272 28.7588 10.8727 28.7581 11.3048 28.8024L11.3865 28.8097L11.4669 28.8211L11.6277 28.8446C11.7342 28.8587 11.844 28.8788 11.9499 28.9003C12.1636 28.9439 12.3739 28.9975 12.5829 29.0592C12.9996 29.1853 13.4089 29.3416 13.7968 29.5475L13.9422 29.6246L14.0842 29.7084C14.18 29.7621 14.2697 29.8265 14.3622 29.8868L14.4948 29.9754C14.5377 30.0049 14.5812 30.0331 14.6268 30.0592C14.7152 30.1142 14.8083 30.1645 14.9008 30.2148C15.2746 30.41 15.6678 30.5716 16.0684 30.7145C16.469 30.8573 16.8776 30.9814 17.2889 31.0914C17.4939 31.1471 17.6983 31.1947 17.9046 31.2336L18.0593 31.2611L18.2194 31.2872C18.2744 31.2959 18.3286 31.3067 18.3829 31.3174C18.4372 31.3281 18.4914 31.3389 18.545 31.3516C18.9757 31.4495 19.3971 31.5837 19.8037 31.754C20.2104 31.9244 20.6023 32.1316 20.9747 32.3697C21.0678 32.4287 21.1623 32.4871 21.2507 32.5541C21.3398 32.6192 21.4316 32.6822 21.5193 32.7493C21.6908 32.8888 21.8663 33.025 22.0258 33.1786C22.1933 33.3241 22.342 33.4884 22.4967 33.648C22.5731 33.7285 22.6414 33.8164 22.7138 33.9002C22.7841 33.9847 22.8591 34.0719 22.9221 34.1524C23.1847 34.481 23.4687 34.7902 23.7742 35.0732C24.0804 35.3563 24.4099 35.6091 24.761 35.8324C25.1107 36.0538 25.4791 36.2422 25.8603 36.3616C26.0505 36.4206 26.2434 36.4615 26.4344 36.477L26.7472 36.4931L26.92 36.5031C26.9776 36.5058 27.0326 36.5172 27.0895 36.5239C27.3159 36.5494 27.5343 36.5984 27.7534 36.646C27.9684 36.703 28.1841 36.758 28.3931 36.8291C28.6055 36.8921 28.8098 36.9739 29.0175 37.049C29.2198 37.1342 29.4261 37.2114 29.6244 37.3053C30.027 37.481 30.4162 37.6828 30.8014 37.8914C31.1839 38.1054 31.5597 38.3321 31.9248 38.5782C32.2879 38.8277 32.6436 39.0913 32.9799 39.3877C33.6384 39.988 34.2179 40.6446 34.7558 41.3347C35.2937 42.0248 35.7841 42.7505 36.2249 43.5084C36.6643 44.2663 37.0529 45.0577 37.3617 45.886L37.4722 46.1985C37.5084 46.3031 37.5486 46.4057 37.5767 46.5137L37.6692 46.8336C37.6987 46.9409 37.7348 47.0456 37.7556 47.1556L37.8273 47.4822C37.8501 47.5902 37.8775 47.7015 37.8949 47.8068L38.0088 48.4453C38.0825 48.8718 38.1542 49.2991 38.2172 49.7296C38.2801 50.1602 38.3371 50.5928 38.3726 51.0341C38.39 51.2554 38.4014 51.4781 38.3994 51.7081C38.3933 51.9402 38.388 52.1729 38.3056 52.4459C38.2855 52.5136 38.254 52.5874 38.2118 52.6612C38.1656 52.737 38.106 52.8161 38.0155 52.8825C37.97 52.914 37.9211 52.9435 37.8688 52.9623C37.834 52.9818 37.7167 53.0046 37.6685 52.9992C37.5426 52.9965 37.4736 52.969 37.3999 52.9449C37.2639 52.8939 37.1587 52.8349 37.0549 52.7739C36.9537 52.7128 36.8579 52.6491 36.7648 52.5847C36.3957 52.3245 36.0601 52.0448 35.7285 51.7598C35.3982 51.4721 35.0774 51.185 34.7612 50.8792C34.6037 50.7222 34.441 50.5573 34.3023 50.4137C34.1562 50.2668 34.0042 50.1247 33.8481 49.9872C33.5346 49.7135 33.205 49.4593 32.8587 49.2333C32.1673 48.782 31.4057 48.4399 30.6132 48.3111C30.2179 48.2521 29.816 48.2421 29.4248 48.3051C29.327 48.3225 29.2292 48.3366 29.1334 48.3628L28.5003 48.517C28.3918 48.5412 28.2819 48.5586 28.1727 48.5794C27.736 48.6632 27.2932 48.7035 26.851 48.7276C26.4082 48.7464 25.9661 48.7357 25.5253 48.7048C25.0852 48.6679 24.6478 48.6083 24.2143 48.5231C23.7829 48.4372 23.3495 48.3286 22.9321 48.1837L22.6267 48.0818L22.3179 47.9751C22.1122 47.9034 21.9085 47.8276 21.7056 47.7511C21.2989 47.5969 20.897 47.4319 20.4984 47.2548C20.1005 47.0784 19.7066 46.8886 19.3207 46.6807C18.9349 46.4741 18.5571 46.2421 18.1973 45.9946C17.8363 45.7485 17.4906 45.4882 17.1436 45.2388C16.7966 44.9899 16.4482 44.7505 16.0858 44.5392C15.994 44.4883 15.9049 44.4326 15.8118 44.385L15.5325 44.2428C15.3416 44.1576 15.1527 44.0671 14.9557 43.998C14.7614 43.9195 14.5598 43.8625 14.3602 43.8001C14.2597 43.7706 14.1565 43.7492 14.0554 43.723C13.9535 43.6982 13.8517 43.6714 13.7479 43.6546L13.437 43.5976L13.3593 43.5835L13.281 43.5734L13.1235 43.554L12.4818 43.4762C12.0477 43.4165 11.619 43.3313 11.1969 43.222C10.3535 43.0014 9.5329 42.6955 8.75649 42.3012C8.36929 42.1013 7.99415 41.8773 7.63709 41.6271C7.28004 41.3776 6.94107 41.098 6.63761 40.7841C6.33281 40.4715 6.05949 40.1268 5.83507 39.7519L5.75335 39.6097C5.72655 39.5621 5.69774 39.5158 5.67564 39.4655C5.62942 39.3669 5.58118 39.2683 5.5363 39.1691L5.42041 38.8626C5.3849 38.7593 5.35878 38.6533 5.32863 38.5487C5.22212 38.1262 5.17992 37.6902 5.19197 37.2576C5.20872 36.8244 5.28844 36.3978 5.39562 35.9813C5.30452 36.4025 5.24222 36.8291 5.24222 37.2583C5.24758 37.6869 5.30586 38.1134 5.42577 38.5219C5.45993 38.6225 5.48807 38.7258 5.52558 38.825L5.6475 39.1194C5.6944 39.2147 5.74397 39.3086 5.7922 39.4031C5.81498 39.4514 5.84445 39.4957 5.87192 39.5406L5.95566 39.6761C6.18543 40.0329 6.46143 40.3582 6.7669 40.652C7.0717 40.9471 7.40933 41.2066 7.76303 41.4413C8.11674 41.6754 8.48853 41.8833 8.87104 42.0684C9.63874 42.4326 10.448 42.7096 11.2746 42.9028C11.688 42.9973 12.106 43.0738 12.5253 43.1214L13.1664 43.1858L13.3299 43.2026L13.4116 43.2113L13.4927 43.224L13.8182 43.2763C13.9274 43.2911 14.0339 43.3172 14.1418 43.3407C14.249 43.3655 14.3575 43.3857 14.464 43.4152C14.6764 43.4762 14.8901 43.5319 15.097 43.6103C15.3074 43.6787 15.5097 43.77 15.7134 43.8565L16.0121 44.0007C16.1119 44.049 16.2064 44.1046 16.3042 44.1569C16.6894 44.3716 17.0572 44.6117 17.4129 44.8598C17.7686 45.108 18.1149 45.3595 18.4686 45.5929C18.8217 45.8276 19.1814 46.0416 19.5572 46.2354C19.9317 46.4299 20.3175 46.6083 20.7081 46.7746C21.0993 46.9409 21.4952 47.0965 21.8958 47.2414C22.0961 47.3132 22.2971 47.3849 22.4987 47.452L22.8015 47.5513L23.1097 47.6492C23.9022 47.9094 24.7355 48.0549 25.5695 48.1187C25.9875 48.1441 26.4062 48.1502 26.8229 48.1287C27.2389 48.1026 27.6549 48.0603 28.0629 47.9778C28.1647 47.957 28.2672 47.9403 28.3684 47.9168L28.6705 47.8396L28.988 47.7592C29.0999 47.7283 29.2144 47.7095 29.3283 47.6887C29.7865 47.6116 30.2554 47.6183 30.7103 47.6827C31.1645 47.7531 31.6066 47.8799 32.0233 48.0569C32.442 48.23 32.8372 48.4473 33.2124 48.6901C33.5875 48.9335 33.9419 49.2045 34.2775 49.4962C34.445 49.6424 34.6078 49.794 34.7659 49.9516C34.9273 50.118 35.068 50.2581 35.2147 50.4043C35.5175 50.6961 35.839 50.9825 36.1592 51.2588C36.4808 51.5344 36.809 51.8041 37.144 52.0388C37.2277 52.0965 37.3115 52.1521 37.3945 52.2018C37.4762 52.2501 37.5607 52.2936 37.6263 52.3178C37.6544 52.3285 37.6893 52.3346 37.6719 52.3319C37.6692 52.3319 37.6719 52.3332 37.6652 52.3325C37.6591 52.3325 37.6524 52.3326 37.6464 52.3346C37.641 52.3359 37.633 52.3386 37.6297 52.3399C37.6297 52.3399 37.6283 52.3399 37.6277 52.3399C37.6263 52.3419 37.623 52.3413 37.6223 52.3433C37.6196 52.3453 37.6263 52.3379 37.637 52.3225C37.6471 52.3024 37.6598 52.2776 37.6699 52.242C37.7141 52.1018 37.7281 51.8986 37.7301 51.7014C37.7315 51.5009 37.7194 51.2937 37.704 51.0851C37.6719 50.6679 37.6176 50.2461 37.5573 49.8242C37.497 49.4023 37.428 48.9798 37.3557 48.5573L37.2445 47.9235C37.2271 47.8162 37.2023 47.7176 37.1808 47.6156L37.1152 47.3112C37.0964 47.2092 37.0623 47.1099 37.0348 47.0093L36.949 46.7082C36.9229 46.6069 36.8847 46.509 36.8512 46.4104L36.7474 46.114C36.4567 45.3273 36.0862 44.5661 35.6642 43.833C35.2422 43.1006 34.7672 42.3964 34.2541 41.7224C33.7409 41.0497 33.1816 40.4072 32.5719 39.8411C32.2651 39.5654 31.9309 39.3119 31.5865 39.0712C31.2402 38.8331 30.8811 38.6111 30.514 38.4025C30.1449 38.1986 29.7711 38.0001 29.3866 37.8277C29.1963 37.7358 29.0001 37.6607 28.8071 37.5769C28.6102 37.5044 28.4159 37.4233 28.217 37.3609C28.0193 37.2905 27.819 37.2368 27.6187 37.1798L27.3173 37.1114L27.2416 37.0947L27.1666 37.0826L27.0158 37.0591C26.9656 37.0524 26.9147 37.041 26.8651 37.0383L26.7157 37.0276L26.3848 37.0055C26.1476 36.9827 25.9179 36.929 25.6988 36.8572C25.26 36.7124 24.8594 36.4971 24.4863 36.2536C24.1145 36.0095 23.7628 35.7312 23.4419 35.4247C23.1211 35.1182 22.8263 34.7862 22.5563 34.4381C22.4887 34.3482 22.4237 34.2718 22.3574 34.1893C22.2904 34.1088 22.2288 34.0249 22.1584 33.9478C22.0164 33.7956 21.8797 33.6366 21.7243 33.4971C21.577 33.3489 21.4142 33.2174 21.2554 33.082C21.1737 33.0169 21.0886 32.9559 21.0055 32.8928C20.9231 32.8278 20.8354 32.7714 20.7483 32.7131C20.4006 32.4804 20.0328 32.2765 19.6497 32.1061C19.2665 31.9358 18.8672 31.7996 18.4613 31.6984C18.4104 31.6849 18.3594 31.6735 18.3085 31.6628C18.2576 31.6514 18.2067 31.64 18.1551 31.6313L17.997 31.6018L17.8349 31.5696C17.6199 31.5246 17.4062 31.469 17.1972 31.4066C16.7812 31.2832 16.3692 31.1457 15.9632 30.9888C15.5579 30.8312 15.158 30.6554 14.7742 30.4415C14.679 30.3865 14.5839 30.3315 14.4915 30.2705C14.4446 30.2416 14.399 30.2101 14.3535 30.1779L14.2202 30.084C14.1337 30.0243 14.05 29.9606 13.9596 29.907L13.8256 29.8231L13.6876 29.7453C13.3198 29.5388 12.9273 29.3724 12.5247 29.2363C12.323 29.1699 12.118 29.1109 11.9117 29.0612C11.8072 29.0371 11.7067 29.015 11.6002 28.9975L11.3637 28.9553L11.2847 28.9452C10.8653 28.8882 10.4352 28.8768 10.0246 28.9754C9.82095 29.0264 9.624 29.1068 9.44983 29.2249C9.27499 29.3416 9.12895 29.4999 9.01641 29.6789C8.96081 29.7688 8.91257 29.8647 8.87506 29.964C8.83554 30.0632 8.80673 30.1665 8.78395 30.2711C8.73907 30.4804 8.72232 30.697 8.73907 30.9116L8.74175 30.911Z" fill="#0E0E0E"/>
<path d="M14.9765 34.261C14.7916 34.1074 14.6033 33.9586 14.4117 33.815C14.2208 33.6702 14.0286 33.528 13.8323 33.3912C13.4404 33.1168 13.0425 32.8539 12.6312 32.6138C12.2219 32.3717 11.8032 32.1484 11.3718 31.9559C10.941 31.7648 10.5022 31.5944 10.0514 31.4797C9.6019 31.3644 9.14302 31.2973 8.69151 31.306C8.24 31.3154 7.7972 31.4093 7.39995 31.6004C7.0027 31.7909 6.649 32.0692 6.35893 32.412C6.06485 32.7547 5.82034 33.1376 5.68837 33.5521C5.55372 33.9646 5.53228 34.4059 5.63076 34.8318C5.72454 35.259 5.92484 35.6688 6.18007 36.0464C6.43463 36.4253 6.74412 36.7741 7.0784 37.0994C7.41469 37.4233 7.77576 37.7264 8.15358 38.0088C8.5314 38.2918 8.92798 38.5521 9.3326 38.7948C9.53357 38.9162 9.74191 39.0249 9.95493 39.1335C10.1666 39.2415 10.3823 39.3428 10.598 39.4434C11.0294 39.6446 11.4702 39.827 11.9197 39.9866C12.1442 40.0678 12.3719 40.1382 12.6024 40.1999L12.6888 40.2241L12.9507 40.2844C13.009 40.2998 13.0679 40.3059 13.1269 40.3173L13.3044 40.3481C12.8234 40.3374 12.3444 40.2469 11.8769 40.1282C11.4079 40.0088 10.9497 39.8538 10.4969 39.6855C10.2711 39.599 10.0474 39.5078 9.82497 39.4112C9.60391 39.3153 9.38016 39.2147 9.16312 39.1013C8.73036 38.8767 8.3157 38.6225 7.91175 38.3488C7.5078 38.0752 7.11926 37.7754 6.75551 37.4434C6.39109 37.1121 6.05279 36.7452 5.76205 36.3341C5.47266 35.9237 5.23552 35.4589 5.11561 34.9485C4.99369 34.4394 5.01646 33.8861 5.17925 33.3865C5.3427 32.8841 5.62875 32.4442 5.96101 32.0632C6.29663 31.6796 6.71398 31.3509 7.18893 31.1397C7.66255 30.9264 8.18239 30.8325 8.68883 30.8359C9.19728 30.8365 9.693 30.9324 10.1659 31.0773C11.1139 31.3677 11.9727 31.8486 12.7725 32.3918C13.1704 32.6682 13.555 32.9606 13.9227 33.2724C14.2905 33.5843 14.6462 33.9096 14.9765 34.2597V34.261Z" fill="#0E0E0E"/>
<path d="M32.9866 46.3487C32.8881 46.1851 32.7803 46.0288 32.6644 45.8786C32.5498 45.7277 32.4279 45.5835 32.3 45.4467C32.0434 45.1724 31.7627 44.9249 31.4572 44.719C31.1524 44.5131 30.8242 44.3488 30.4805 44.2401C30.1369 44.1315 29.7805 44.0798 29.4241 44.0812C29.0677 44.0818 28.7113 44.1375 28.3643 44.2294L28.1058 44.3078C28.02 44.3367 27.9363 44.3709 27.8512 44.4011C27.7688 44.4299 27.6764 44.4695 27.5819 44.503L27.2945 44.6003C26.5188 44.829 25.6821 44.8625 24.8916 44.6807C24.1038 44.4977 23.3555 44.1268 22.7533 43.5869C22.6749 43.5231 22.6046 43.4507 22.5329 43.3796L22.4257 43.273C22.3909 43.2374 22.3614 43.2052 22.3286 43.171C22.2 43.0376 22.0693 42.9068 21.9347 42.7794C21.6647 42.5252 21.3813 42.2864 21.0852 42.0644C20.4911 41.6238 19.8426 41.2515 19.1385 41.0155C18.7875 40.8961 18.4231 40.8109 18.0506 40.7666C17.9575 40.7573 17.8644 40.7445 17.7699 40.7405L17.6286 40.7324L17.4872 40.7304C17.3928 40.7264 17.2983 40.7318 17.2032 40.7338C17.1081 40.7371 17.0136 40.7472 16.9178 40.7519C17.1027 40.7036 17.2903 40.6647 17.4812 40.6392L17.6246 40.6218L17.7686 40.611C17.8651 40.6023 17.9615 40.6023 18.0587 40.5996C18.4465 40.5949 18.8351 40.6479 19.2176 40.7304C19.9786 40.9122 20.7021 41.2455 21.3552 41.6754C21.518 41.7834 21.6781 41.8967 21.8342 42.0141C21.9896 42.1328 22.141 42.2569 22.2891 42.3843C22.4371 42.5118 22.5818 42.6439 22.7211 42.7814C22.7553 42.8149 22.7915 42.8518 22.8243 42.8833L22.9228 42.9752C22.9884 43.0362 23.0521 43.0986 23.1237 43.1529L23.2282 43.2374C23.2631 43.2656 23.2966 43.2944 23.3341 43.3193L23.5531 43.4735L23.7822 43.6117C23.8586 43.6573 23.9403 43.6942 24.0187 43.7358C24.3383 43.894 24.6759 44.0141 25.0222 44.0932C25.3686 44.1764 25.7256 44.2086 26.0807 44.2005C26.4364 44.1945 26.7901 44.1422 27.1351 44.0516L27.391 43.9738C27.4767 43.9463 27.5605 43.9135 27.6589 43.882C27.7541 43.8511 27.8472 43.8169 27.9436 43.7894L28.2344 43.7143C28.6256 43.6264 29.0316 43.5855 29.4355 43.6083C29.8388 43.6318 30.2407 43.7163 30.6125 43.8699C30.9836 44.0241 31.3273 44.2334 31.6321 44.4836C31.9322 44.7391 32.2008 45.0261 32.4266 45.3414C32.6517 45.6566 32.8466 45.9919 32.9846 46.3487H32.9866Z" fill="#0E0E0E"/>
<path d="M35.9857 50.4801C36.0929 50.5666 36.2041 50.6471 36.318 50.7216C36.4326 50.7953 36.5505 50.8638 36.6737 50.9087C36.7354 50.9302 36.7976 50.9462 36.8559 50.9456C36.9142 50.9456 36.9611 50.9261 36.9919 50.8886C36.9986 50.8772 37.008 50.8705 37.0134 50.857C37.0187 50.8443 37.0241 50.8322 37.0301 50.8202L37.0415 50.7779C37.0462 50.7645 37.0489 50.7497 37.0502 50.7336C37.0542 50.7028 37.0589 50.6726 37.0582 50.6404C37.0589 50.6082 37.0602 50.5767 37.0569 50.5438C37.0401 50.2823 36.9745 50.0167 36.9008 49.7565C36.8613 49.6257 36.8271 49.4936 36.7869 49.3634C36.7447 49.234 36.7045 49.1032 36.661 48.9744C36.6161 48.8457 36.5739 48.7156 36.527 48.5875C36.4788 48.46 36.4326 48.3313 36.3823 48.2045C36.2845 47.9496 36.1787 47.6975 36.0695 47.4473C35.9596 47.1971 35.8451 46.9483 35.7231 46.7028C35.6032 46.4567 35.4766 46.2126 35.3426 45.9718C35.5141 46.1884 35.6642 46.4205 35.8096 46.6552C35.8819 46.7726 35.9496 46.8933 36.0179 47.0134C36.0835 47.1348 36.1499 47.2562 36.2108 47.3802L36.3039 47.5653L36.391 47.7538C36.4506 47.8786 36.5029 48.0066 36.5585 48.1334C36.6134 48.2602 36.6597 48.391 36.7112 48.5197C36.7601 48.6492 36.8043 48.7806 36.8512 48.9107C36.8941 49.0422 36.9336 49.175 36.9745 49.3071C37.0134 49.4399 37.0489 49.574 37.0844 49.7075C37.1185 49.8416 37.1487 49.9785 37.1728 50.1166C37.1962 50.2554 37.215 50.3956 37.213 50.5405C37.2143 50.576 37.211 50.6129 37.2083 50.6498C37.207 50.686 37.1996 50.7236 37.1922 50.7611C37.1875 50.798 37.1701 50.8363 37.1581 50.8731C37.1487 50.8919 37.1386 50.91 37.1279 50.9281C37.1185 50.9462 37.1011 50.9623 37.087 50.9784C37.0569 51.01 37.0167 51.0348 36.9752 51.0482C36.9336 51.0616 36.8908 51.065 36.8512 51.0616C36.7715 51.0549 36.7012 51.0301 36.6355 50.9999C36.5062 50.9362 36.3917 50.8557 36.2845 50.7665C36.1773 50.678 36.0775 50.5821 35.9851 50.4801H35.9857Z" fill="#0E0E0E"/>
<path d="M34.4389 44.6083C34.3679 44.4608 34.2956 44.3139 34.2186 44.1703C34.1435 44.0255 34.0665 43.8813 33.9848 43.7398C33.8233 43.4561 33.6578 43.1744 33.4709 42.9075C33.2874 42.6385 33.0938 42.3756 32.8741 42.1355C32.8225 42.0718 32.7622 42.0175 32.7059 41.9591L32.6202 41.8726C32.5907 41.8444 32.5586 41.8196 32.5284 41.7921L32.4366 41.7116C32.4058 41.6848 32.3757 41.6573 32.3415 41.6345L32.1425 41.4916C32.4306 41.6493 32.6825 41.8659 32.9116 42.1006C32.9679 42.1603 33.0235 42.2207 33.0784 42.2824L33.2338 42.4735C33.2867 42.5366 33.3343 42.6036 33.3832 42.6694C33.4314 42.7358 33.4817 42.8008 33.5266 42.8699C33.7108 43.1422 33.8776 43.4252 34.0303 43.715C34.1817 44.006 34.3231 44.3018 34.4389 44.6083Z" fill="#0E0E0E"/>
<path d="M31.5926 41.0269C31.1444 40.6533 30.6862 40.3086 30.2132 39.99C29.7403 39.6721 29.2533 39.3817 28.7448 39.1376C28.4916 39.0135 28.233 38.9015 27.9698 38.8036C27.8391 38.7506 27.7045 38.711 27.5718 38.6634C27.4365 38.6252 27.3025 38.5795 27.1659 38.5467C26.6199 38.3985 26.0559 38.3247 25.4731 38.2905C26.0411 38.157 26.6447 38.1429 27.2302 38.2368C27.3776 38.2563 27.5223 38.2905 27.6676 38.3213C27.811 38.3589 27.9557 38.3958 28.0964 38.4434C28.2384 38.4863 28.3764 38.542 28.5157 38.5936C28.6517 38.6527 28.789 38.7097 28.9217 38.7754C29.4556 39.0329 29.952 39.3622 30.4042 39.7385C30.6299 39.9276 30.8443 40.1288 31.0446 40.3428C31.2429 40.5587 31.4345 40.7814 31.5939 41.0275L31.5926 41.0269Z" fill="#0E0E0E"/>
<path d="M21.6855 36.0511C21.3693 35.7184 21.0189 35.4428 20.6491 35.2094C20.2787 34.9766 19.8841 34.7935 19.4721 34.6621C19.0602 34.532 18.6314 34.4482 18.1926 34.4106C17.7532 34.3697 17.3057 34.3703 16.8455 34.3784C17.2729 34.206 17.7331 34.1142 18.2 34.094C18.6669 34.0726 19.1432 34.1349 19.5947 34.2785C20.0462 34.4227 20.471 34.6534 20.834 34.9538C21.0149 35.1047 21.181 35.2724 21.3271 35.4548C21.4691 35.6399 21.6011 35.8344 21.6855 36.0511Z" fill="#0E0E0E"/>
<path d="M7.21506 31.2812C7.07371 31.3764 6.91294 31.4435 6.74747 31.4938C6.58134 31.5454 6.40783 31.5743 6.23165 31.5857C5.87862 31.6071 5.51754 31.5414 5.18394 31.4073C5.01713 31.3395 4.8577 31.255 4.70764 31.1578C4.63127 31.1102 4.56026 31.0565 4.48791 31.0042C4.41958 30.9479 4.34791 30.8929 4.2836 30.8325L4.18512 30.7433L4.09335 30.6554L3.9118 30.4777C3.78988 30.359 3.67265 30.2349 3.55542 30.1088C3.32364 29.8547 3.09989 29.5797 2.92304 29.2631C2.74685 28.9472 2.63297 28.5864 2.60417 28.2282C2.57201 27.8694 2.6102 27.5193 2.67719 27.1827C2.71336 27.0143 2.75288 26.848 2.8038 26.685C2.82791 26.6032 2.85538 26.5227 2.8815 26.4416C2.91031 26.3611 2.93845 26.2813 2.96993 26.2021C2.94715 26.5415 2.91835 26.8775 2.90964 27.2088C2.90294 27.5401 2.91165 27.8674 2.97261 28.1766C3.0329 28.4858 3.14477 28.7728 3.30957 29.0371C3.47235 29.3027 3.68002 29.5495 3.90042 29.7923C4.01028 29.9143 4.12483 30.0331 4.23871 30.1551L4.49796 30.4267L4.5817 30.5119C4.80611 30.7359 5.05665 30.9311 5.33399 31.0786C5.88465 31.3758 6.56124 31.4683 7.21372 31.2812H7.21506Z" fill="#0E0E0E"/>
<path d="M5.18661 36.4307C5.04661 36.1939 4.92536 35.9458 4.81415 35.6929C4.70295 35.4394 4.60849 35.1785 4.52811 34.9109C4.45107 34.642 4.39279 34.3657 4.37135 34.0766L4.34992 33.8861C4.33987 33.8244 4.32446 33.7641 4.3124 33.7037C4.29163 33.6447 4.2769 33.5843 4.25278 33.5273C4.22732 33.4703 4.20656 33.4119 4.17507 33.3576L4.13153 33.2751L4.08129 33.196C4.0498 33.1423 4.00827 33.094 3.97276 33.0431C3.89372 32.9452 3.80998 32.8513 3.71753 32.7654C3.67131 32.7225 3.62375 32.6816 3.57485 32.6433C3.5246 32.6051 3.47771 32.5676 3.43082 32.5427C3.30689 32.4683 3.19033 32.3905 3.07376 32.3107C2.84265 32.1497 2.62225 31.976 2.40856 31.7943C2.19687 31.6098 1.99389 31.4147 1.79895 31.2121L1.65693 31.0558C1.60937 31.0042 1.56315 30.9512 1.51827 30.8962L1.38295 30.7339L1.25433 30.5656C1.16724 30.4542 1.0902 30.3355 1.01049 30.2188C0.970292 30.1632 0.932777 30.0948 0.894593 30.0324C0.857749 29.9687 0.826264 29.9023 0.792099 29.8372C0.667499 29.5743 0.573044 29.3047 0.498015 29.0324C0.421647 28.7608 0.364706 28.4865 0.319153 28.2115C0.225368 27.6622 0.180485 27.1102 0.158378 26.5589C0.142971 26.0076 0.14632 25.4563 0.196562 24.9084C0.250824 25.4556 0.308435 25.9996 0.388152 26.5388C0.425666 26.8084 0.4672 27.0774 0.516102 27.3443C0.565675 27.6112 0.615247 27.8768 0.678217 28.139C0.806167 28.6608 0.956224 29.1799 1.19069 29.638C1.22217 29.693 1.25165 29.75 1.2838 29.8043C1.31864 29.8573 1.34677 29.9096 1.38831 29.964C1.46601 30.0713 1.5397 30.1813 1.62344 30.2839C1.78221 30.4965 1.9604 30.6937 2.13993 30.8895C2.50569 31.2752 2.90562 31.632 3.33301 31.9499C3.43953 32.0283 3.54872 32.1068 3.65657 32.1766C3.72825 32.2201 3.78787 32.2704 3.84347 32.3181C3.89975 32.367 3.95334 32.418 4.00559 32.471C4.10875 32.577 4.20321 32.691 4.28828 32.8124C4.32714 32.8761 4.37068 32.9358 4.40485 33.0022L4.45777 33.1001L4.50399 33.202C4.53682 33.2691 4.55825 33.3415 4.58371 33.4113C4.60715 33.4824 4.62189 33.5561 4.64065 33.6279C4.65137 33.7024 4.66477 33.7761 4.67146 33.8499L4.67548 33.9619C4.67615 33.9981 4.67749 34.039 4.67749 34.0692C4.67213 34.3288 4.70429 34.595 4.75118 34.8586C4.84497 35.3891 5.0044 35.9129 5.18661 36.4307Z" fill="#0E0E0E"/>
<path d="M5.66157 35.9766C5.66157 35.9766 4.64936 37.9149 6.2484 40.2482C6.2484 40.2482 4.0297 38.0517 5.28442 35.5078L5.6609 35.9766H5.66157Z" fill="#0E0E0E"/>
<path d="M10.2651 28.8091C10.2651 28.8091 8.65734 28.9593 8.28823 30.9076L8.96282 30.8754C8.96282 30.8754 8.64261 29.3396 10.2651 28.8091Z" fill="#0E0E0E"/>
<path d="M15.7669 40.6352C15.6464 40.6835 15.5224 40.7063 15.3978 40.7204C15.2732 40.7331 15.148 40.7331 15.0234 40.723C14.8988 40.713 14.7748 40.6895 14.6536 40.654C14.533 40.6171 14.4144 40.5661 14.3099 40.491C14.4399 40.4863 14.5605 40.493 14.681 40.4984C14.8016 40.5037 14.9209 40.5131 15.0408 40.5232C15.1607 40.5332 15.2799 40.5467 15.4012 40.5634C15.5218 40.5809 15.643 40.6017 15.7676 40.6359L15.7669 40.6352Z" fill="#0E0E0E"/>
<path d="M28.3871 44.9678C28.1674 45.1261 27.9296 45.2582 27.6871 45.3796C27.4432 45.499 27.1913 45.6049 26.9301 45.6854C26.8008 45.731 26.6668 45.7612 26.5342 45.7947C26.3989 45.8196 26.2649 45.8511 26.1269 45.8632C25.9902 45.8846 25.8509 45.8839 25.7122 45.888C25.6425 45.89 25.5729 45.8806 25.5039 45.8772L25.3994 45.8699C25.3645 45.8678 25.3304 45.8591 25.2955 45.8538L25.0892 45.8149L24.8923 45.7646C24.7616 45.7297 24.6297 45.6962 24.4997 45.6552C24.2405 45.5748 23.9785 45.4856 23.7333 45.3581C23.4875 45.2314 23.2644 45.0711 23.0487 44.9088C22.8343 44.7445 22.6206 44.5795 22.4096 44.4111C22.6461 44.5426 22.8752 44.6861 23.105 44.8276C23.3334 44.9711 23.5619 45.1086 23.8017 45.2166C24.0428 45.3212 24.2947 45.4037 24.5526 45.4721C24.6812 45.5077 24.8105 45.5412 24.9405 45.5741L25.1361 45.6217L25.327 45.6552C25.3592 45.6606 25.39 45.6693 25.4228 45.6713L25.52 45.6787C25.5849 45.6821 25.6492 45.6921 25.7149 45.6908L25.9112 45.6874C25.944 45.6874 25.9768 45.6861 26.009 45.6821L26.1068 45.6733C26.2381 45.6666 26.368 45.6405 26.4987 45.621C26.5637 45.609 26.628 45.5929 26.6929 45.5795C26.7579 45.5674 26.8222 45.5513 26.8865 45.5332C27.1438 45.4674 27.3983 45.3836 27.6482 45.287C27.8988 45.1918 28.1459 45.0852 28.3878 44.9651L28.3871 44.9678Z" fill="#0E0E0E"/>
<path d="M9.79483 30.1759C9.98575 29.9224 10.2698 29.744 10.5726 29.6347C10.6476 29.6018 10.7267 29.587 10.8057 29.5663C10.8841 29.5428 10.9651 29.5374 11.0449 29.5247C11.085 29.52 11.1252 29.5119 11.1654 29.5119L11.2867 29.5106C11.3677 29.5099 11.4488 29.5059 11.5285 29.5173L11.769 29.5455C11.8474 29.5629 11.9258 29.5797 12.0041 29.5984C12.043 29.6085 12.0825 29.6166 12.1207 29.628L12.2339 29.6675C12.3096 29.6937 12.384 29.7212 12.4583 29.7494C12.6037 29.8137 12.7444 29.8875 12.8844 29.9606C13.017 30.0471 13.1497 30.1323 13.2763 30.2255C13.1276 30.1712 12.9842 30.1102 12.8415 30.0498L12.4047 29.8969C12.3304 29.8775 12.2567 29.858 12.1837 29.8365L12.0738 29.805C12.037 29.797 11.9988 29.7909 11.9619 29.7842C11.8876 29.7708 11.8132 29.7547 11.7389 29.74L11.5138 29.7185C11.2143 29.6937 10.9115 29.7118 10.6195 29.7856C10.3287 29.8614 10.044 29.9848 9.79617 30.1772L9.79483 30.1759Z" fill="#0E0E0E"/>
<path d="M6.03202 37.3535C6.01996 37.5226 6.03068 37.6916 6.05145 37.8586C6.07356 38.0249 6.10303 38.1899 6.14992 38.3508C6.23701 38.6734 6.373 38.9799 6.53913 39.267C6.87542 39.8411 7.35574 40.3173 7.89232 40.7083C8.02965 40.8022 8.1643 40.9008 8.30833 40.9846C8.38001 41.0269 8.44901 41.0745 8.52336 41.1127L8.74309 41.2328C8.81544 41.275 8.89181 41.3099 8.96617 41.3468L9.19192 41.4574L9.42237 41.5574C9.4994 41.5902 9.57443 41.6278 9.65348 41.6566C10.2765 41.9088 10.9216 42.1073 11.5747 42.2884C10.9042 42.1898 10.2403 42.0315 9.59721 41.8035C8.95344 41.5795 8.33579 41.2676 7.77375 40.8706C7.49775 40.6647 7.23516 40.44 7.00136 40.1852C6.76891 39.9296 6.56191 39.6493 6.4018 39.3428C6.24036 39.0376 6.11978 38.7103 6.05346 38.373C6.01929 38.2046 6.00054 38.0336 5.99518 37.8626C5.98982 37.6916 5.99786 37.5199 6.03135 37.3535H6.03202Z" fill="#0E0E0E"/>
<path d="M6.66173 38.4622C6.72068 38.5822 6.78499 38.6996 6.85399 38.8136C6.92164 38.9283 6.99399 39.0403 7.07103 39.149C7.22377 39.3669 7.39124 39.5735 7.58149 39.7586C7.76839 39.9457 7.97874 40.11 8.20851 40.2408C8.43829 40.373 8.69017 40.4642 8.95277 40.5151C8.81946 40.5024 8.68682 40.4776 8.5582 40.4393C8.43025 40.3984 8.30364 40.3495 8.1844 40.2858C7.94391 40.1617 7.72887 39.9927 7.53527 39.8062C7.34569 39.6144 7.1742 39.4045 7.0295 39.1778C6.88413 38.9518 6.75685 38.7137 6.66306 38.4622H6.66173Z" fill="#0E0E0E"/>
<path d="M23.2081 42.3186C23.0045 42.1161 22.7955 41.9229 22.5811 41.7364C22.3654 41.5513 22.1444 41.3736 21.9146 41.2093L21.7411 41.0879C21.6828 41.0483 21.6218 41.0128 21.5622 40.9739C21.5327 40.9551 21.5033 40.935 21.4731 40.9169L21.3813 40.8646C21.319 40.831 21.2601 40.7921 21.1965 40.7606C20.9466 40.6265 20.6853 40.5198 20.4147 40.4226C20.698 40.4648 20.9787 40.5473 21.2427 40.666C21.5059 40.7868 21.7578 40.9316 21.993 41.1006C22.2268 41.271 22.4485 41.4568 22.6528 41.66C22.8565 41.8632 23.048 42.0805 23.2095 42.3186H23.2081Z" fill="#0E0E0E"/>
<path d="M0.820235 26.9238C0.863778 27.1431 0.912011 27.3604 0.971631 27.575C1.02857 27.7903 1.09288 28.0029 1.16188 28.2142C1.30189 28.6354 1.46534 29.0485 1.66363 29.4435C1.7601 29.6427 1.86862 29.8352 1.98451 30.0237C2.09773 30.2135 2.22635 30.3932 2.35966 30.5696C2.62895 30.9204 2.93912 31.2396 3.28947 31.5179C3.19636 31.4562 3.09922 31.3992 3.01213 31.3288C2.96792 31.2946 2.9217 31.2624 2.87815 31.2269L2.74886 31.1189C2.58206 30.9687 2.42129 30.8097 2.27793 30.6353C1.98652 30.2913 1.74536 29.9056 1.54372 29.5032C1.44525 29.3007 1.35347 29.0948 1.27308 28.8848C1.19471 28.6743 1.12169 28.461 1.06207 28.2443C0.940146 27.8124 0.85306 27.3698 0.819565 26.9231L0.820235 26.9238Z" fill="#0E0E0E"/>
<path d="M4.61921 34.1779C4.61921 34.1779 4.83291 35.202 5.3695 35.6453C5.90608 36.0886 5.18126 36.2805 5.18126 36.2805L4.96689 35.9619L4.61921 34.1779Z" fill="#0E0E0E"/>
<path d="M6.18543 31.9244C6.18543 31.9244 6.00322 31.7265 5.31658 31.6856C4.6306 31.644 3.2821 29.8184 3.2821 29.8184L5.14173 31.2222L6.58 31.5595L6.18543 31.925V31.9244Z" fill="#0E0E0E"/>
<path d="M5.32461 32.6366C5.336 32.5702 5.36079 32.5065 5.38758 32.4442C5.41438 32.3818 5.44988 32.3234 5.48673 32.2664C5.52558 32.2108 5.56511 32.1551 5.61133 32.1048C5.65688 32.0538 5.70511 32.0062 5.7567 31.9613L5.76072 32.0136C5.68569 31.9753 5.5919 31.9532 5.50214 31.9391C5.41103 31.9264 5.31858 31.9204 5.22547 31.9224C5.129 31.9244 5.03053 31.9123 4.93875 31.8808C4.84832 31.8479 4.76123 31.7936 4.71032 31.7118C4.77396 31.7822 4.86105 31.8231 4.94947 31.8459C5.03857 31.8694 5.13101 31.8727 5.22279 31.8654C5.31858 31.8593 5.41505 31.8607 5.51084 31.8741C5.60731 31.8882 5.70042 31.9089 5.79354 31.9579L5.83373 31.9794L5.79823 32.0109C5.74866 32.0545 5.69909 32.0974 5.65353 32.145C5.60798 32.192 5.56377 32.2416 5.52223 32.2933C5.48137 32.3456 5.44586 32.4006 5.41103 32.4576C5.37687 32.5146 5.34672 32.5743 5.32394 32.6373L5.32461 32.6366Z" fill="#0E0E0E"/>
<path d="M19.3911 35.2201C19.3187 35.1624 19.2404 35.1135 19.1586 35.0712C19.0782 35.0263 18.9938 34.9901 18.9088 34.9565C18.7379 34.8908 18.5611 34.8418 18.3809 34.8063L18.2456 34.7808L18.1089 34.7627C18.0185 34.7473 17.926 34.7459 17.8349 34.7352C17.7431 34.7278 17.6507 34.7278 17.5589 34.7231C17.4665 34.7218 17.374 34.7245 17.2809 34.7218C17.3727 34.709 17.4651 34.7003 17.5576 34.6903C17.6507 34.6883 17.7438 34.6822 17.8369 34.6836C18.0232 34.6876 18.2101 34.7023 18.3936 34.7399C18.5765 34.7781 18.758 34.8298 18.9282 34.9089C19.097 34.988 19.2625 35.084 19.3904 35.2201H19.3911Z" fill="#0E0E0E"/>
<path d="M34.7772 32.2564C34.8168 32.247 34.9139 32.5099 34.995 32.8439C35.076 33.1779 35.1102 33.4562 35.0713 33.4656C35.0318 33.475 34.9347 33.2114 34.8536 32.8781C34.7726 32.5441 34.7377 32.2658 34.7772 32.2564Z" fill="#0E0E0E"/>
<path d="M48.5985 21.8427C48.6461 21.8527 48.6159 22.1901 48.5315 22.5972C48.4471 23.0036 48.34 23.3249 48.2924 23.3148C48.2448 23.3048 48.275 22.9668 48.3594 22.5603C48.4438 22.1539 48.551 21.832 48.5985 21.8427Z" fill="#0E0E0E"/>
<path d="M43.1449 19.7046C43.2072 19.6563 43.4289 19.9836 43.642 20.4363C43.8543 20.889 43.9756 21.2941 43.914 21.343C43.8517 21.3913 43.6292 21.0634 43.4169 20.6113C43.2045 20.1586 43.0826 19.7528 43.1449 19.7046Z" fill="#0E0E0E"/>
<path d="M44.1243 13.6684C44.1377 13.5705 44.62 13.6691 45.2022 13.8871C45.7843 14.105 46.2445 14.3606 46.2318 14.4578C46.2184 14.5557 45.7354 14.4571 45.1539 14.2392C44.5718 14.0212 44.1109 13.7657 44.1243 13.6684Z" fill="#0E0E0E"/>
<path d="M34.2809 28.135C34.3244 28.133 34.376 28.8412 34.5582 29.693C34.7364 30.5461 34.9742 31.2148 34.9333 31.2302C34.8998 31.2456 34.5964 30.5904 34.4155 29.7225C34.2306 28.856 34.244 28.1344 34.2809 28.1344" fill="#0E0E0E"/>
<path d="M33.749 28.8138C33.7905 28.8124 33.8327 29.1384 33.9071 29.5341C33.9801 29.9304 34.0578 30.2497 34.0183 30.2631C33.9814 30.2772 33.8387 29.9693 33.7637 29.5609C33.6873 29.1524 33.7094 28.8138 33.7483 28.8138" fill="#0E0E0E"/>
<path d="M54.1721 30.6393C54.2123 30.6434 54.2149 30.9237 54.1788 31.2664C54.1426 31.6085 54.081 31.8815 54.0408 31.8781C54.0006 31.8734 53.9979 31.5931 54.0341 31.251C54.0702 30.909 54.1319 30.6353 54.1721 30.6393Z" fill="#0E0E0E"/>
<path d="M54.4983 26.6736C54.5398 26.6863 54.3496 27.3704 54.2337 28.2336C54.1131 29.0968 54.1124 29.807 54.0689 29.8077C54.0321 29.8111 53.9677 29.0914 54.0897 28.2135C54.2076 27.3356 54.4635 26.6602 54.4983 26.6729" fill="#0E0E0E"/>
<path d="M53.7695 27.1324C53.809 27.1451 53.7386 27.4664 53.6757 27.8641C53.6107 28.2618 53.5759 28.5884 53.5343 28.5884C53.4955 28.5884 53.4646 28.2511 53.5316 27.8413C53.5973 27.4315 53.7326 27.1196 53.7695 27.1324Z" fill="#0E0E0E"/>
<path d="M29.8314 22.4597C29.8716 22.4604 29.8984 22.7394 29.8917 23.0841C29.885 23.4275 29.8468 23.7052 29.8066 23.7052C29.7664 23.7045 29.7396 23.4248 29.7463 23.0808C29.753 22.7374 29.7912 22.459 29.8314 22.4597Z" fill="#0E0E0E"/>
<path d="M30.4705 18.5268C30.5113 18.5423 30.2829 19.2143 30.1174 20.0694C29.9486 20.9245 29.9064 21.6328 29.8629 21.6314C29.826 21.6328 29.8026 20.9104 29.9748 20.0412C30.1429 19.1714 30.4363 18.5121 30.4705 18.5268Z" fill="#0E0E0E"/>
<path d="M29.7169 18.944C29.7557 18.9588 29.6673 19.2753 29.5815 19.669C29.4938 20.062 29.4409 20.3866 29.3993 20.384C29.3605 20.3826 29.3491 20.0432 29.4395 19.6375C29.5279 19.2317 29.6813 18.9286 29.7169 18.9433" fill="#0E0E0E"/>
<path d="M34.0819 9.76773C34.0832 9.79657 33.8849 9.82809 33.6384 9.83882C33.3926 9.84888 33.1923 9.83413 33.1909 9.80529C33.1896 9.77645 33.3885 9.74493 33.6344 9.7342C33.8803 9.72414 34.0806 9.73889 34.0819 9.76773Z" fill="#0E0E0E"/>
<path d="M46.0657 8.63696C46.0489 8.66044 45.8721 8.56587 45.6697 8.42503C45.4681 8.28418 45.3174 8.15139 45.3335 8.12724C45.3502 8.10377 45.5271 8.19834 45.7294 8.33918C45.931 8.48002 46.0817 8.61282 46.0657 8.63696Z" fill="#0E0E0E"/>
<path d="M37.081 10.4733C37.0683 10.5015 36.5994 10.3056 35.9965 10.1453C35.3942 9.98235 34.8905 9.91796 34.8931 9.88711C34.8945 9.86029 35.411 9.87907 36.0233 10.0447C36.6362 10.207 37.0924 10.4498 37.0803 10.4733" fill="#0E0E0E"/>
<path d="M36.8198 9.91327C36.807 9.9401 36.5853 9.86163 36.3086 9.78115C36.032 9.69932 35.8029 9.64567 35.8069 9.61616C35.8102 9.58799 36.0527 9.59671 36.3374 9.68121C36.6228 9.76438 36.8318 9.88845 36.8191 9.91394" fill="#0E0E0E"/>
<path d="M38.3907 8.21242C38.3826 8.23858 38.2031 8.17151 37.9794 8.10377C37.7563 8.03469 37.5721 7.9911 37.5727 7.96293C37.5727 7.9361 37.7636 7.93543 37.9941 8.00585C38.2245 8.0756 38.398 8.18828 38.3907 8.21242Z" fill="#0E0E0E"/>
<path d="M55.2767 16.2841C55.2399 16.3029 55.065 16.0245 54.8319 15.6959C54.6001 15.3666 54.3958 15.109 54.426 15.0802C54.4534 15.0527 54.712 15.272 54.9505 15.6114C55.191 15.9501 55.3122 16.2673 55.2767 16.2841Z" fill="#0E0E0E"/>
<path d="M28.1426 32.2476C28.1801 32.2302 28.0689 31.9204 27.955 31.534C27.8391 31.1484 27.7628 30.8285 27.7219 30.8345C27.6831 30.8392 27.6964 31.1779 27.8157 31.5756C27.9336 31.974 28.1078 32.2651 28.1426 32.2476Z" fill="#0E0E0E"/>
<path d="M56.8369 21.4383C56.8101 21.4336 56.8275 21.2203 56.8329 20.9574C56.8396 20.6952 56.8329 20.4805 56.8604 20.4772C56.8858 20.4732 56.9354 20.6891 56.928 20.9594C56.922 21.2297 56.8617 21.443 56.8369 21.4376" fill="#0E0E0E"/>
<path d="M39.6869 8.02664C39.6601 8.03 39.6105 7.82208 39.5348 7.57058C39.4605 7.31907 39.3881 7.1172 39.4123 7.1058C39.435 7.09439 39.5489 7.2842 39.6253 7.54375C39.703 7.80263 39.7117 8.02396 39.6862 8.02664" fill="#0E0E0E"/>
<path d="M48.7452 21.3846C48.6635 21.3792 48.6434 20.726 48.5737 19.9279C48.5074 19.1298 48.417 18.4826 48.4967 18.4631C48.5717 18.443 48.7935 19.0801 48.8618 19.9031C48.9328 20.7253 48.8216 21.3913 48.7446 21.3846" fill="#0E0E0E"/>
<path d="M47.4537 9.95888C47.4363 9.92199 47.6741 9.77377 47.9842 9.62555C48.2944 9.478 48.5597 9.38813 48.5771 9.42434C48.5945 9.46123 48.3567 9.61012 48.0465 9.75767C47.7364 9.90522 47.4711 9.99576 47.4537 9.95888Z" fill="#0E0E0E"/>
<path d="M47.0142 10.1567C47.0464 10.2171 46.5975 10.5182 46.0697 10.9186C45.5398 11.317 45.1265 11.6658 45.0776 11.6181C45.0307 11.5745 45.379 11.1379 45.925 10.7275C46.4696 10.315 46.9848 10.0997 47.0142 10.1567Z" fill="#0E0E0E"/>
<path d="M26.9482 18.3464C26.9087 18.339 26.8256 18.6066 26.7626 18.9453C26.6996 19.2834 26.6809 19.563 26.7197 19.5704C26.7593 19.5778 26.8423 19.3095 26.9053 18.9715C26.9683 18.6335 26.9877 18.3538 26.9482 18.3464Z" fill="#0E0E0E"/>
<path d="M27.0266 17.8709C27.0929 17.887 27.2691 17.3753 27.5203 16.7616C27.7688 16.1466 27.9999 15.6577 27.9416 15.6228C27.8874 15.5886 27.5551 16.0373 27.2985 16.6711C27.04 17.3035 26.9636 17.8575 27.0266 17.8709Z" fill="#0E0E0E"/>
<path d="M44.1638 12.4726C44.4546 12.547 44.7486 12.6014 45.0447 12.6403C45.3402 12.6812 45.6362 12.708 45.933 12.7181C46.5252 12.7395 47.1181 12.7053 47.6908 12.5886C48.2636 12.4773 48.8183 12.2875 49.32 12.0078C49.4453 11.9381 49.5679 11.8636 49.6871 11.7851C49.7487 11.7456 49.8017 11.7053 49.8666 11.6617L49.9651 11.594L50.0663 11.5303C50.3376 11.3626 50.6297 11.2278 50.9318 11.1265C51.2339 11.0259 51.5461 10.9562 51.8602 10.918C52.1751 10.8797 52.4913 10.8723 52.8055 10.8871C53.4345 10.9166 54.0515 11.0447 54.645 11.2365C55.2385 11.4304 55.8079 11.6939 56.3412 12.0252C56.6071 12.1929 56.8637 12.3787 57.1055 12.5886C57.3467 12.7999 57.5745 13.034 57.7674 13.315C57.9556 13.6013 58.0856 13.8891 58.2028 14.1815C58.318 14.4739 58.4152 14.7683 58.4989 15.0654C58.6657 15.6603 58.7856 16.2626 58.87 16.8696C58.9102 17.1734 58.9424 17.4779 58.9652 17.7837C58.9879 18.0896 58.998 18.3961 59 18.7026C59 19.0091 58.9913 19.3162 58.9692 19.6227C58.9457 19.9292 58.9082 20.2357 58.858 20.5396C58.8077 20.844 58.7387 21.1465 58.6537 21.445C58.5686 21.7434 58.4648 22.0379 58.3301 22.3209C58.2638 22.4624 58.1908 22.6012 58.111 22.7367C58.0327 22.8715 57.9396 23.005 57.8585 23.1237C57.6924 23.3685 57.5329 23.6187 57.3822 23.8735C57.0774 24.3819 56.8094 24.9124 56.5864 25.463C56.4745 25.7387 56.3767 26.0197 56.2956 26.3067C56.2139 26.5931 56.1469 26.8855 56.1188 27.1847C56.1121 27.0344 56.1215 26.8835 56.1355 26.7333C56.1503 26.5831 56.171 26.4335 56.1972 26.2846C56.2508 25.9868 56.3244 25.6924 56.4115 25.4027C56.5864 24.8219 56.8248 24.2612 57.0941 23.7166C57.2301 23.4449 57.3795 23.18 57.5343 22.9185C57.614 22.7843 57.6857 22.667 57.7506 22.5382C57.8156 22.4108 57.8746 22.28 57.9275 22.1465C58.1392 21.612 58.2685 21.0419 58.3408 20.4644C58.4782 19.3062 58.4199 18.1211 58.241 16.9621C58.1472 16.3833 58.0287 15.8072 57.8625 15.2492C57.7801 14.9702 57.6897 14.6946 57.5832 14.4296C57.4773 14.1661 57.3547 13.9065 57.212 13.6919C57.066 13.4773 56.8758 13.2754 56.6661 13.0916C56.4564 12.9072 56.2266 12.7395 55.9868 12.5859C55.5072 12.2781 54.9833 12.0293 54.4414 11.8408C53.8994 11.651 53.3347 11.5263 52.7673 11.48C52.4833 11.4585 52.1986 11.4565 51.9172 11.4813C51.6352 11.5028 51.3572 11.5531 51.0872 11.6302C50.8172 11.708 50.5566 11.8147 50.3121 11.9515L50.221 12.0038L50.1319 12.0595C50.0703 12.097 50.002 12.1433 49.935 12.1822C49.801 12.2633 49.663 12.3371 49.5216 12.4042C48.9576 12.6738 48.352 12.8401 47.7431 12.9186C47.1328 12.9924 46.5185 12.9837 45.9169 12.9065C45.3167 12.8267 44.7239 12.6912 44.1638 12.4733V12.4726Z" fill="#0E0E0E"/>
<path d="M58.2906 21.565C58.2651 22.0519 58.2249 22.5382 58.1774 23.0231C58.1318 23.5087 58.0742 23.9929 58.0132 24.4771C57.892 25.4456 57.7406 26.41 57.5637 27.3704C57.2074 29.2906 56.7518 31.1987 56.1228 33.0612C55.8059 33.9914 55.4469 34.9109 55.0094 35.8002C54.7917 36.2456 54.5532 36.6822 54.288 37.1054C54.0247 37.5293 53.7286 37.9377 53.3943 38.3186C53.3133 38.4159 53.2222 38.5058 53.1364 38.599L52.9314 38.8002L52.8564 38.8666C52.6554 39.043 52.437 39.1932 52.2099 39.32C51.7557 39.5742 51.2701 39.7472 50.7757 39.8612C50.2806 39.9746 49.7749 40.0309 49.2671 40.0195C48.7606 40.0074 48.2468 39.9363 47.7592 39.7311L47.9179 39.3374C48.3373 39.4897 48.8055 39.5379 49.2684 39.5299C49.7327 39.5205 50.1976 39.4521 50.6464 39.3334C51.0946 39.2133 51.528 39.043 51.9172 38.8123C52.1115 38.6969 52.2923 38.5641 52.4531 38.4159L52.5134 38.3602L52.5737 38.2985L52.6943 38.1745C52.7706 38.0873 52.851 38.0041 52.924 37.9129C53.5216 37.1966 53.9952 36.365 54.4132 35.5092C54.8279 34.6494 55.1836 33.7553 55.5025 32.8472C56.1395 31.029 56.6453 29.1578 57.0962 27.2732C57.5436 25.3859 57.9389 23.4838 58.2919 21.567L58.2906 21.565Z" fill="#0E0E0E"/>
<path d="M43.581 12.376C44.003 12.4484 44.4204 12.5457 44.8351 12.6537C45.2491 12.763 45.6597 12.8864 46.065 13.0246C46.8756 13.3016 47.668 13.6369 48.4197 14.05C49.1693 14.4645 49.8867 14.9501 50.5017 15.553C51.1167 16.1526 51.6278 16.8729 51.9319 17.6851C52.08 18.0916 52.1872 18.5141 52.2341 18.9453L52.2515 19.107L52.2635 19.2679L52.287 19.5899C52.297 19.8045 52.3104 20.0198 52.3131 20.2351C52.3379 21.0962 52.2863 21.9607 52.1584 22.8152C52.0338 23.6703 51.8234 24.51 51.6037 25.339C51.3846 26.1679 51.1703 26.9935 51.0316 27.8305C50.9613 28.249 50.9083 28.6696 50.8715 29.0914C50.8333 29.5146 50.8212 29.9345 50.8112 30.363C50.7924 31.2275 50.7301 32.0927 50.6062 32.9525C50.4823 33.8117 50.3027 34.6661 50.0448 35.5005C49.7889 36.3348 49.456 37.151 49.0273 37.9196C48.5992 38.6875 48.0774 39.4099 47.4604 40.0463C46.8427 40.6815 46.1326 41.2334 45.3495 41.656C44.5671 42.0805 43.7183 42.3803 42.8455 42.548C41.9719 42.7156 41.0749 42.7525 40.1913 42.6593C39.3071 42.5681 38.4369 42.3387 37.6189 41.9819C36.8023 41.6244 36.036 41.1322 35.3949 40.4943C35.074 40.1764 34.7873 39.8203 34.5481 39.4327C34.4878 39.3361 34.4322 39.2361 34.378 39.1355L34.3009 38.9833L34.232 38.8351C34.1402 38.6372 34.0457 38.4407 33.9627 38.2395C33.617 37.4394 33.3263 36.6178 33.0851 35.7821C32.6008 34.1115 32.3388 32.3865 32.2276 30.6615C32.174 29.7963 32.158 28.9392 32.1506 28.078C32.1446 27.2175 32.1559 26.3577 32.1874 25.4979C32.2524 23.7789 32.3938 22.06 32.6838 20.3625C32.8272 19.5141 33.0107 18.671 33.2552 17.8454C33.3758 17.4323 33.5199 17.0225 33.6987 16.6295C33.8769 16.2358 34.0879 15.8575 34.3298 15.5C34.4497 15.3203 34.581 15.1493 34.7163 14.9816C34.8556 14.8173 34.9983 14.655 35.1524 14.5041C35.3031 14.3498 35.4659 14.2083 35.6307 14.0702C35.7988 13.9353 35.969 13.8039 36.1485 13.6852C36.5042 13.4431 36.8841 13.2378 37.2746 13.0614C37.6672 12.8877 38.0718 12.7422 38.4844 12.6262C39.3098 12.3921 40.1639 12.27 41.02 12.2325C41.4481 12.2137 41.8768 12.2157 42.3042 12.2392C42.7316 12.2633 43.159 12.3029 43.581 12.3767V12.376ZM43.581 12.376C43.159 12.3042 42.7316 12.2667 42.3042 12.2452C41.8768 12.2244 41.4481 12.2244 41.0207 12.2452C40.1659 12.2875 39.3138 12.4136 38.4918 12.6517C37.6705 12.8884 36.8821 13.2466 36.182 13.7348C36.0058 13.8549 35.839 13.9877 35.6749 14.1238C35.5141 14.2633 35.3554 14.4062 35.2087 14.5604C34.9106 14.8649 34.6439 15.1989 34.4115 15.555C33.9432 16.2673 33.6197 17.0648 33.4033 17.8877C33.1802 18.7113 33.0168 19.551 32.8942 20.396C32.6523 22.0875 32.5579 23.7977 32.5405 25.5066C32.5331 26.3611 32.5445 27.2162 32.574 28.07C32.5887 28.4972 32.6075 28.9237 32.6302 29.3503C32.6517 29.7775 32.6778 30.2021 32.7146 30.6253C32.8607 32.3181 33.1635 33.9961 33.6532 35.6145C33.899 36.4233 34.1938 37.2161 34.5394 37.9847C34.6225 38.1785 34.717 38.3669 34.8081 38.5567L34.8771 38.6989L34.9461 38.8331C34.9943 38.9209 35.0432 39.0081 35.0968 39.0926C35.3091 39.4327 35.565 39.7479 35.8538 40.0322C36.4312 40.6017 37.1326 41.0497 37.8849 41.3749C38.6385 41.7016 39.4464 41.9034 40.2644 41.9953C41.0836 42.0852 41.9156 42.055 42.7256 41.9034C43.5348 41.7519 44.3212 41.4776 45.0474 41.0886C45.7743 40.7016 46.4421 40.2033 47.0263 39.6164C47.6104 39.0296 48.1108 38.3576 48.5269 37.6346C48.9408 36.9096 49.2785 36.1383 49.5411 35.3388C49.8064 34.54 49.9979 33.7151 50.1359 32.8801C50.2726 32.0444 50.3563 31.1987 50.3952 30.3496C50.416 29.921 50.4407 29.4844 50.4917 29.0545C50.5406 28.6233 50.6069 28.194 50.6906 27.7688C51.0155 26.0613 51.668 24.4624 51.9527 22.783C52.0974 21.9446 52.1677 21.0922 52.163 20.2384C52.1651 20.0251 52.1563 19.8119 52.1517 19.5979L52.1275 19.1177L52.1141 18.9594C52.078 18.5369 51.9835 18.1204 51.8422 17.72C51.5555 16.9192 51.0631 16.1996 50.4615 15.596C49.8593 14.9903 49.1552 14.4893 48.4083 14.0735C47.6607 13.657 46.8709 13.319 46.0623 13.0373C45.6577 12.8971 45.2484 12.771 44.8351 12.6604C44.4217 12.5497 44.0044 12.4505 43.583 12.376H43.581Z" fill="#0E0E0E"/>
<path d="M34.7987 39.1423C34.7076 39.1738 34.6272 39.2261 34.5455 39.2757C34.4644 39.3267 34.3833 39.3783 34.3009 39.428C34.1362 39.5272 33.9647 39.6191 33.7804 39.6862C33.5976 39.7539 33.4013 39.7962 33.2016 39.7995C33.0027 39.8042 32.7997 39.7673 32.6128 39.6949C32.4252 39.6231 32.2524 39.5232 32.0903 39.4132C31.9268 39.3039 31.7741 39.1838 31.6234 39.0631C31.3233 38.821 31.0319 38.5749 30.7264 38.3535C30.5743 38.2435 30.4169 38.1329 30.2615 38.0423C30.1034 37.9504 29.9372 37.8706 29.7664 37.7982C29.4241 37.656 29.0637 37.5487 28.6966 37.4488C28.5131 37.3985 28.3268 37.3502 28.1392 37.2965C27.9517 37.2422 27.7621 37.1852 27.5692 37.102C27.4727 37.0598 27.3749 37.0115 27.2784 36.9451C27.2543 36.9283 27.2302 36.9116 27.2061 36.8908L27.1706 36.8613L27.1398 36.8317C27.0982 36.7929 27.0607 36.7506 27.0232 36.7077C26.8785 36.532 26.7814 36.3328 26.707 36.1416C26.6327 35.9498 26.5771 35.762 26.5194 35.5816C26.4906 35.4904 26.4618 35.4032 26.431 35.3133L26.3392 35.0377C26.2187 34.6695 26.1068 34.2986 26.0009 33.927C25.7879 33.1832 25.607 32.4321 25.4389 31.6789C25.2714 30.9251 25.1214 30.1685 24.9854 29.4086C24.8487 28.6494 24.7355 27.8862 24.6317 27.1216C24.4287 25.5918 24.274 24.0539 24.215 22.508C24.1842 21.7354 24.1735 20.9607 24.1916 20.1854C24.209 19.4101 24.2579 18.6328 24.3597 17.8582C24.4622 17.0842 24.6096 16.3089 24.8769 15.553C25.0108 15.1761 25.181 14.8046 25.4114 14.4578C25.5347 14.2814 25.658 14.1352 25.7846 13.983C25.8495 13.9085 25.9132 13.8334 25.9802 13.7603L26.1832 13.5437C26.7338 12.9756 27.3689 12.484 28.0736 12.1158C28.2505 12.0252 28.432 11.9434 28.6155 11.8683C28.8004 11.7952 28.9887 11.7308 29.1796 11.6758C29.3705 11.6208 29.5655 11.5766 29.7624 11.5437C29.8609 11.5269 29.96 11.5142 30.0605 11.5048C30.1108 11.5001 30.161 11.4961 30.2119 11.4934C30.2642 11.4907 30.3111 11.4894 30.372 11.4907L30.3385 11.4934C30.8396 11.4283 31.3273 11.4136 31.8217 11.4236C32.314 11.4344 32.8057 11.4766 33.2907 11.5564C33.7757 11.6389 34.2541 11.7597 34.7149 11.9293C35.1745 12.1004 35.6146 12.3244 36.0112 12.6067C35.8002 12.4853 35.5845 12.374 35.3614 12.2794C35.1376 12.1869 34.9106 12.1037 34.6788 12.0373C34.2159 11.9005 33.7409 11.8133 33.2626 11.7644C32.7843 11.7127 32.3026 11.6973 31.823 11.7127C31.5832 11.7201 31.3434 11.7355 31.1049 11.7583C30.8677 11.7811 30.6259 11.8093 30.3988 11.8495L30.3888 11.8515H30.3646C30.3298 11.8536 30.2809 11.8562 30.2374 11.8603C30.1925 11.8643 30.1476 11.8696 30.1027 11.8757C30.0129 11.8878 29.9225 11.9039 29.8327 11.9226C29.6532 11.9602 29.475 12.0092 29.3002 12.0668C29.1253 12.1252 28.9532 12.1922 28.7844 12.2674C28.6162 12.3438 28.4514 12.4277 28.2906 12.5182C27.6462 12.881 27.0667 13.3566 26.5663 13.9052L26.3821 14.1144C26.3218 14.1848 26.2642 14.2579 26.2046 14.3297C26.0907 14.4746 25.9721 14.6275 25.8797 14.7683C25.6928 15.0661 25.5434 15.3974 25.4275 15.7462C25.1937 16.443 25.0638 17.1868 24.978 17.9346C24.8166 19.4343 24.8058 20.9601 24.8762 22.4805C24.9505 24.0016 25.0832 25.5234 25.2781 27.0371C25.327 27.4154 25.3793 27.7936 25.4342 28.1712L25.6097 29.3027C25.7316 30.0565 25.867 30.8077 26.0197 31.5555C26.1711 32.3033 26.3439 33.0464 26.5288 33.7848C26.6226 34.1537 26.7224 34.5213 26.8303 34.8854L26.9127 35.1577C26.9408 35.2496 26.9696 35.3462 26.9957 35.4387C27.0493 35.6252 27.0982 35.8069 27.1579 35.9746C27.2168 36.1423 27.2885 36.2932 27.3849 36.4173C27.4097 36.4474 27.4345 36.4783 27.4627 36.5051L27.4827 36.5266L27.5022 36.5434C27.5142 36.5548 27.5283 36.5662 27.5437 36.5776C27.6027 36.6225 27.6757 36.6634 27.7534 36.7016C27.9095 36.7774 28.0857 36.8391 28.2638 36.8981C28.4427 36.9572 28.6256 37.0135 28.8091 37.0719C29.1769 37.1886 29.5487 37.3153 29.9084 37.4823C30.088 37.5661 30.2635 37.6614 30.4316 37.772C30.6018 37.8841 30.7518 38.0028 30.9046 38.1262C31.2074 38.3716 31.4894 38.6366 31.7728 38.8914C32.0575 39.1429 32.3408 39.3978 32.6751 39.552C32.8412 39.6292 33.0201 39.6741 33.205 39.6808C33.3892 39.6882 33.5755 39.6614 33.7563 39.609C33.9372 39.5567 34.1114 39.4796 34.2815 39.3924L34.5361 39.2589C34.6218 39.216 34.7076 39.1697 34.8007 39.1456L34.7987 39.1423Z" fill="#0E0E0E"/>
<path d="M43.581 12.376C42.9674 11.3103 42.3752 10.2339 41.7817 9.15808C41.7448 9.09101 41.7073 9.02395 41.6705 8.95151C41.635 8.88042 41.6008 8.80866 41.5693 8.73689C41.5057 8.59337 41.4474 8.4485 41.3918 8.30296C41.2813 8.01256 41.1808 7.72014 41.0816 7.42839C40.884 6.84423 40.7025 6.25873 40.5055 5.67993C40.3086 5.10113 40.1022 4.52702 39.8745 3.96499C39.6447 3.4043 39.3901 2.85502 39.0833 2.3453C38.9286 2.09178 38.7638 1.84631 38.5796 1.62163C38.3953 1.39762 38.1917 1.19374 37.9666 1.03143C37.8541 0.950279 37.7362 0.878516 37.6136 0.82285C37.552 0.795352 37.4903 0.769195 37.4267 0.748404C37.3637 0.726272 37.2887 0.704139 37.2204 0.68536C36.9397 0.60689 36.655 0.553236 36.3736 0.539151C36.0943 0.524396 35.8149 0.549212 35.5804 0.640424C35.4646 0.686031 35.3614 0.749075 35.287 0.824862C35.212 0.900649 35.1678 0.987837 35.1544 1.08106C35.1236 1.26684 35.2401 1.49219 35.4297 1.66724C35.5242 1.75577 35.634 1.83424 35.7533 1.90332C35.7834 1.92009 35.8136 1.93752 35.8444 1.95362L35.9442 2.00593C36.0179 2.04483 36.0916 2.0844 36.1612 2.12934C36.4439 2.30237 36.6945 2.51498 36.9209 2.74502C37.1487 2.9744 37.3483 3.22523 37.5325 3.48411C37.899 4.00389 38.1917 4.56324 38.4302 5.14472C38.6559 5.72755 38.8589 6.31171 39.0297 6.90727C39.1999 7.50284 39.3493 8.10578 39.4424 8.72281C39.4866 9.03132 39.5174 9.34319 39.5147 9.65908C39.5134 9.81669 39.5027 9.97564 39.4759 10.1333C39.4625 10.2124 39.4444 10.2902 39.4183 10.3693C39.4116 10.3895 39.4056 10.4096 39.3975 10.4284L39.3761 10.4807L39.3345 10.5866C39.2267 10.871 39.1349 11.1628 39.0639 11.4599C38.9902 11.7563 38.9433 12.0595 38.94 12.3673C38.9118 12.0608 38.9366 11.7496 38.9849 11.4444C39.0338 11.1386 39.1061 10.8375 39.1945 10.5397L39.2287 10.4284L39.2468 10.3727C39.2528 10.3559 39.2562 10.3392 39.2602 10.3224C39.2763 10.254 39.2897 10.1809 39.2977 10.1078C39.3138 9.96156 39.3151 9.812 39.3071 9.66311C39.2917 9.36398 39.2441 9.06486 39.1831 8.76842C39.0619 8.17486 38.8891 7.58936 38.6941 7.01257C38.4985 6.43579 38.2835 5.86369 38.045 5.30971C37.9217 5.03607 37.7851 4.76847 37.6357 4.50959C37.487 4.25003 37.3269 3.99786 37.1507 3.75909C36.9745 3.521 36.7849 3.29431 36.5752 3.09177C36.3669 2.88855 36.1418 2.70679 35.8973 2.56394C35.837 2.52638 35.7747 2.49486 35.7117 2.46334L35.6066 2.41035C35.5691 2.39157 35.5322 2.37078 35.4954 2.34999C35.3487 2.26549 35.206 2.1669 35.0753 2.04617C34.9454 1.92545 34.8261 1.78125 34.7397 1.60688C34.6533 1.43384 34.6051 1.22325 34.6339 1.01064C34.6607 0.798034 34.7672 0.599513 34.9072 0.457328C35.0472 0.313132 35.214 0.215212 35.3822 0.147473C35.7211 0.0146782 36.0675 -0.0114784 36.3991 0.00394731C36.7313 0.0227264 37.0522 0.0871118 37.3617 0.175642C37.4407 0.198445 37.5131 0.219907 37.5948 0.248746C37.6772 0.276244 37.7563 0.310449 37.8346 0.345995C37.9907 0.419099 38.1354 0.508971 38.2714 0.607561C38.5434 0.806083 38.7745 1.0435 38.9782 1.29434C39.1818 1.54584 39.3593 1.81278 39.5174 2.08776C39.8336 2.63704 40.0842 3.21182 40.3086 3.79196C40.4198 4.08236 40.5249 4.37411 40.6227 4.66787C40.7199 4.96163 40.8123 5.25673 40.9014 5.5525C41.079 6.14337 41.2471 6.73491 41.4146 7.32444C41.499 7.61887 41.5847 7.91196 41.6792 8.20035C41.7267 8.34455 41.7763 8.4874 41.8306 8.6269C41.8574 8.69665 41.8862 8.76573 41.9163 8.83347L42.0128 9.03803C42.5413 10.1473 43.0712 11.256 43.5797 12.376L43.581 12.376Z" fill="#0E0E0E"/>
<path d="M53.8699 11.5578L53.8612 11.5356C53.8579 11.5256 53.8525 11.5142 53.8465 11.5028C53.8351 11.48 53.8251 11.4565 53.811 11.433C53.7862 11.3854 53.7554 11.3385 53.7246 11.2915C53.6616 11.1983 53.5906 11.1071 53.5136 11.0192C53.3595 10.8442 53.188 10.6785 53.0011 10.529C52.6306 10.2251 52.2173 9.96558 51.7892 9.73286C51.5715 9.62287 51.3552 9.50751 51.1294 9.41093C51.0169 9.36197 50.907 9.30764 50.7924 9.26204L50.2786 9.05681L50.1085 9.00047C50.0515 8.98371 49.9959 8.95956 49.937 8.94816L49.7621 8.90725C49.7327 8.90054 49.7039 8.89249 49.6744 8.88713L49.5853 8.87438L49.4078 8.84823C49.3481 8.84219 49.2879 8.84018 49.2282 8.83615C49.1686 8.83347 49.1083 8.8261 49.048 8.82945C48.5677 8.83012 48.084 8.92133 47.6278 9.09504L47.457 9.16009L47.2896 9.23454C47.2333 9.25801 47.1784 9.28484 47.1234 9.31301L46.9593 9.39617C46.7449 9.51556 46.5319 9.63963 46.3303 9.78182C46.1273 9.92132 45.9297 10.0702 45.7408 10.2292C45.5498 10.3868 45.3663 10.5524 45.1894 10.7261C44.8351 11.0722 44.5014 11.4424 44.2047 11.8408C44.486 11.4304 44.8056 11.0467 45.1479 10.6852C45.3187 10.5041 45.4976 10.3298 45.6838 10.1628C45.8687 9.99509 46.0623 9.83614 46.2626 9.68658C46.4616 9.53434 46.6733 9.39886 46.8883 9.26875L47.0531 9.17686C47.108 9.14601 47.1636 9.11583 47.2206 9.089L47.3907 9.00584L47.5649 8.93139C48.0298 8.73287 48.5336 8.6155 49.046 8.59471C49.5572 8.56922 50.079 8.6772 50.5519 8.85024L50.907 8.97566C51.0256 9.01724 51.1408 9.06821 51.2573 9.11449C51.4925 9.20436 51.7196 9.31435 51.9493 9.41898C52.4022 9.64299 52.8457 9.89583 53.2563 10.2064C53.4626 10.3599 53.6576 10.533 53.8398 10.7235C53.9309 10.8194 54.0166 10.9206 54.097 11.0306C54.1366 11.0856 54.1761 11.142 54.2116 11.203C54.2303 11.2318 54.2471 11.2647 54.2645 11.2969C54.2732 11.313 54.2813 11.3291 54.29 11.3479C54.298 11.3666 54.306 11.3814 54.3168 11.4116L53.8706 11.5571L53.8699 11.5578Z" fill="#0E0E0E"/>
<path d="M38.4396 10.4102C38.2661 10.2204 38.0651 10.0581 37.8561 9.91059C37.6464 9.76371 37.426 9.63158 37.1969 9.51757C36.74 9.28618 36.253 9.12187 35.7566 9.00785C34.7605 8.78451 33.7275 8.78183 32.722 8.92133C32.2189 8.99041 31.7219 9.09638 31.2435 9.25399C31.1243 9.29423 31.0064 9.33782 30.8892 9.38276C30.7739 9.43239 30.6567 9.47666 30.5455 9.53299C30.3184 9.63695 30.102 9.76237 29.895 9.89784C29.4811 10.1701 29.116 10.5108 28.8279 10.9045C28.6845 11.1017 28.5593 11.311 28.4601 11.5316C28.4099 11.6409 28.3657 11.7536 28.3295 11.867C28.3107 11.924 28.2953 11.981 28.2806 12.0373C28.2739 12.0655 28.2665 12.0943 28.2618 12.1218C28.2592 12.1359 28.2565 12.1493 28.2538 12.1627L28.2484 12.1969L27.7835 12.1339C27.7876 12.1077 27.7909 12.0923 27.7949 12.0729C27.7989 12.0548 27.803 12.0366 27.807 12.0192C27.815 11.9837 27.8251 11.9501 27.8344 11.9166C27.8545 11.8495 27.8753 11.7831 27.8994 11.7187C27.9463 11.5886 28.0013 11.4632 28.0629 11.3412C28.1841 11.0964 28.3328 10.8677 28.5003 10.655C28.8359 10.2305 29.2499 9.87437 29.7048 9.59872C29.9326 9.46123 30.1677 9.33648 30.4122 9.23521C30.5321 9.18021 30.6574 9.13796 30.7806 9.09034C30.9052 9.04809 31.0305 9.00651 31.1558 8.96962C31.6602 8.82408 32.1767 8.73421 32.6939 8.68324C33.7268 8.58062 34.7819 8.62556 35.7854 8.89249C36.2859 9.02864 36.7729 9.21442 37.225 9.46592C37.4515 9.59067 37.6685 9.73219 37.8735 9.88845C38.0778 10.0454 38.2734 10.2157 38.4396 10.4123V10.4102Z" fill="#0E0E0E"/>
<path d="M47.0263 9.22917C47.0002 9.17686 46.9647 9.11382 46.9291 9.05681C46.8936 8.99846 46.8561 8.94145 46.8173 8.88444C46.7389 8.77177 46.6565 8.66044 46.5667 8.55581C46.3899 8.3432 46.1916 8.14871 45.9766 7.97366C45.5465 7.6249 45.0461 7.3573 44.5061 7.21311C43.9669 7.06556 43.3955 7.03202 42.8334 7.09641C42.2707 7.15744 41.716 7.30566 41.1841 7.51089C41.7053 7.28017 42.2546 7.10378 42.822 7.01324C43.3888 6.92002 43.9769 6.92471 44.5457 7.05013C45.1151 7.17219 45.657 7.42772 46.13 7.77447C46.3664 7.94817 46.5868 8.14401 46.7865 8.36131C46.8876 8.46862 46.9814 8.58264 47.0712 8.70001C47.1161 8.75903 47.1596 8.81872 47.2018 8.88042C47.2447 8.94279 47.2829 9.00248 47.3244 9.07559L47.0263 9.22917Z" fill="#0E0E0E"/>
<path d="M38.9949 7.59405C38.6151 7.4398 38.2138 7.34322 37.8112 7.29828C37.4079 7.25402 36.9986 7.2681 36.6128 7.36736C36.2256 7.46193 35.8685 7.64905 35.5737 7.90458C35.279 8.16212 35.0485 8.48606 34.8717 8.83548L34.5776 8.67519C34.7953 8.30766 35.0733 7.96896 35.4157 7.70874C35.7586 7.44986 36.1619 7.27481 36.5773 7.20305C36.9926 7.12659 37.416 7.14201 37.8233 7.21445C38.2306 7.28822 38.6265 7.41297 38.9956 7.59338L38.9949 7.59405Z" fill="#0E0E0E"/>
<path d="M57.0935 16.6261C57.0218 16.2666 56.922 15.9179 56.8007 15.5792C56.7378 15.4108 56.6728 15.2432 56.5957 15.0815C56.5214 14.9192 56.441 14.7589 56.3479 14.6067C56.2581 14.4524 56.1617 14.3022 56.0538 14.1607C55.948 14.0178 55.8334 13.8804 55.7101 13.7516C55.4656 13.4907 55.1823 13.266 54.8795 13.0594C55.2211 13.1916 55.544 13.3881 55.8193 13.6389C55.9614 13.7603 56.0846 13.9011 56.2045 14.044C56.3231 14.1889 56.4249 14.3458 56.5221 14.5048C56.7096 14.8274 56.853 15.1741 56.9501 15.5316C57.0466 15.889 57.1049 16.2579 57.0941 16.6255L57.0935 16.6261Z" fill="#0E0E0E"/>
<path d="M48.5965 24.7762C48.7586 24.3812 48.9013 23.9815 49.0266 23.5771C49.1545 23.1733 49.2624 22.7649 49.3528 22.3537C49.4392 21.9419 49.5123 21.5281 49.5511 21.1116C49.5927 20.6958 49.6128 20.278 49.59 19.8628C49.5712 19.4477 49.5143 19.0359 49.4178 18.6335C49.3294 18.2284 49.174 17.8427 48.9938 17.4698L48.9228 17.331C48.8993 17.2847 48.8765 17.2378 48.8477 17.1949C48.7928 17.107 48.7372 17.0191 48.6836 16.9293C48.6287 16.8407 48.5624 16.7596 48.5021 16.6744L48.4096 16.5477L48.3071 16.4289C48.2388 16.3498 48.1725 16.268 48.1021 16.1895L47.8784 15.9662C47.8409 15.9293 47.8054 15.8897 47.7659 15.8542L47.6453 15.7502L47.4054 15.5383L47.6761 15.71L47.8107 15.7978C47.8549 15.828 47.8958 15.8629 47.9387 15.8951C48.0238 15.9608 48.1075 16.0285 48.1919 16.0956C48.2723 16.1674 48.3493 16.2432 48.4277 16.3169C48.4666 16.3545 48.5061 16.3921 48.5443 16.4303L48.6508 16.553C48.7205 16.6362 48.7962 16.7147 48.8611 16.8018C48.9254 16.889 48.9884 16.9782 49.0514 17.0674C49.0849 17.111 49.111 17.1586 49.1391 17.2056L49.2229 17.3464L49.3059 17.488L49.3776 17.6355L49.448 17.7837L49.4828 17.8582L49.5123 17.9346L49.6288 18.2418L49.7233 18.5563C49.8352 18.9795 49.8981 19.4141 49.9229 19.8494C49.9403 20.2854 49.9176 20.7206 49.8633 21.1499C49.805 21.5791 49.7219 22.0043 49.6034 22.4188C49.4888 22.8346 49.3441 23.2397 49.178 23.6354C49.0078 24.0291 48.8229 24.4168 48.5945 24.7783L48.5965 24.7762Z" fill="#0E0E0E"/>
<path d="M39.9977 14.2063C39.837 14.2432 39.6809 14.2935 39.5275 14.3498C39.4511 14.3793 39.3741 14.4062 39.2997 14.439L39.1872 14.4866L39.0766 14.5383C38.7832 14.6778 38.4999 14.8354 38.2332 15.0165L38.0356 15.156C38.0028 15.1795 37.97 15.2016 37.9378 15.2264L37.8434 15.3015C37.7811 15.3518 37.7168 15.4001 37.6558 15.4518L37.4763 15.6121L37.3872 15.6925L37.3021 15.7777L37.1313 15.9461C37.0227 16.0634 36.9156 16.1828 36.8104 16.3022C36.3997 16.7918 36.0521 17.3317 35.76 17.9011L35.553 18.3344C35.4867 18.4799 35.4304 18.6308 35.3681 18.7783C35.3031 18.9252 35.2549 19.0781 35.2006 19.2297C35.1477 19.3813 35.0914 19.5315 35.0506 19.6878L34.9139 20.1512L34.8014 20.622L34.7438 20.8575L34.6982 21.0955L34.6064 21.5724C34.579 21.732 34.5582 21.893 34.5341 22.0533L34.4986 22.2941L34.4805 22.4148L34.4671 22.5362L34.4162 23.0211L34.3894 23.2639C34.3813 23.345 34.378 23.4262 34.372 23.5073C34.2668 24.8078 34.2641 26.1203 34.2762 27.4409C34.0404 26.1411 33.9292 24.8158 33.9513 23.4859C33.9526 23.4027 33.9513 23.3195 33.9553 23.2364L33.9687 22.9869L33.9982 22.4879L34.0062 22.3631L34.0196 22.2384L34.0471 21.9896C34.0665 21.8239 34.0826 21.6576 34.1053 21.4919L34.1884 20.997L34.2306 20.7495L34.2855 20.504L34.3994 20.0137L34.5388 19.5295C34.7397 18.8883 34.9863 18.2566 35.3118 17.663C35.6381 17.0701 36.032 16.5121 36.4982 16.0205C36.9638 15.5282 37.5104 15.1151 38.0986 14.7918C38.3967 14.6362 38.7048 14.5014 39.023 14.4001C39.3406 14.3002 39.6675 14.2231 39.9977 14.2056V14.2063Z" fill="#0E0E0E"/>
<path d="M38.4282 32.4395C38.2299 31.7272 38.0644 31.0062 37.9144 30.2825C37.8407 29.9204 37.7703 29.5569 37.704 29.1927C37.6397 28.8285 37.5801 28.463 37.5252 28.0968C37.4119 27.3644 37.3269 26.628 37.2612 25.8882C37.2304 25.518 37.2003 25.1478 37.1842 24.7762C37.1681 24.4047 37.1574 24.0325 37.156 23.6596C37.156 23.2867 37.1627 22.9131 37.1808 22.5395C37.2016 22.166 37.2364 21.7924 37.284 21.4188C37.3309 21.0459 37.3985 20.673 37.485 20.3035C37.5734 19.9346 37.6812 19.5664 37.83 19.2096C37.9787 18.8535 38.1642 18.506 38.4054 18.1895C38.6452 17.8736 38.9453 17.5912 39.2984 17.386C39.6501 17.1781 40.0527 17.0654 40.4499 17.0319C40.8485 16.997 41.2424 17.0359 41.6209 17.1137L41.5874 17.1097C41.647 17.1144 41.6899 17.1204 41.7381 17.1285C41.7857 17.1352 41.8312 17.1446 41.8775 17.1539C41.9692 17.1727 42.0597 17.1955 42.1488 17.221C42.327 17.272 42.5005 17.3364 42.6686 17.4115C42.8374 17.4853 42.9982 17.5765 43.1556 17.671C43.3097 17.771 43.4611 17.8763 43.6011 17.9943C43.8831 18.2284 44.133 18.4993 44.3454 18.7944C44.555 19.0909 44.7326 19.4088 44.8679 19.7421C45.1466 20.4054 45.2846 21.1116 45.3442 21.8132C45.3971 22.5167 45.369 23.2203 45.2859 23.9138C45.2946 23.2149 45.2651 22.5181 45.162 21.834C45.1311 21.6643 45.105 21.4933 45.0682 21.3256C45.0273 21.1586 44.9945 20.9896 44.9409 20.8266C44.8498 20.496 44.7265 20.1774 44.5818 19.8716C44.4385 19.5644 44.2563 19.2793 44.0506 19.0164C43.8456 18.7529 43.6091 18.5161 43.3465 18.3149C43.2166 18.213 43.0766 18.1244 42.9352 18.0399C42.7905 17.9608 42.6445 17.8843 42.4911 17.8246C42.339 17.7629 42.1843 17.7079 42.0262 17.6677C41.9471 17.6476 41.8681 17.6295 41.7884 17.6147C41.7488 17.608 41.7093 17.6013 41.6705 17.5959C41.633 17.5906 41.5894 17.5865 41.5619 17.5845L41.5459 17.5832L41.5278 17.5798C41.1835 17.5175 40.8351 17.4933 40.4995 17.5309C40.3313 17.5483 40.1679 17.5852 40.0098 17.6342C39.9301 17.6576 39.855 17.6925 39.7773 17.7207C39.7037 17.7582 39.6293 17.7931 39.5576 17.834C39.2736 18.0024 39.0277 18.2351 38.8241 18.5074C38.6198 18.7797 38.4563 19.0889 38.3237 19.4141C38.0577 20.0654 37.899 20.7729 37.7998 21.4879C37.7034 22.2049 37.6565 22.9325 37.6404 23.6622C37.6263 24.3926 37.6477 25.125 37.6812 25.8574C37.7181 26.5904 37.779 27.3222 37.8474 28.0545C37.9954 29.518 38.1863 30.9801 38.4275 32.4374L38.4282 32.4395Z" fill="#0E0E0E"/>
<path d="M47.9012 30.6615C47.9461 30.8238 47.9769 30.9894 48.003 31.1558C48.0305 31.3221 48.0485 31.4898 48.0626 31.6581C48.0901 31.9941 48.0954 32.3328 48.082 32.6708C48.0519 33.3469 47.9467 34.0243 47.7498 34.6775C47.7029 34.8412 47.6446 35.0021 47.5877 35.1631C47.524 35.322 47.4631 35.4817 47.3894 35.6359C47.2467 35.9464 47.0832 36.2476 46.891 36.5306C46.5158 37.1 46.0348 37.6004 45.4822 37.9806C45.9015 37.4555 46.2773 36.9196 46.5748 36.3415C46.6532 36.1993 46.7195 36.0511 46.7912 35.9062L46.889 35.6842C46.9231 35.6111 46.9533 35.536 46.9821 35.4602C47.1047 35.1611 47.2092 34.8546 47.3009 34.5441C47.4885 33.9237 47.6198 33.2852 47.7163 32.6373C47.8114 31.9888 47.873 31.3322 47.9012 30.6622V30.6615Z" fill="#0E0E0E"/>
<path d="M52.019 18.1164C51.9554 17.885 51.8609 17.6637 51.7564 17.4484C51.6519 17.2331 51.534 17.0245 51.4061 16.8233C51.1468 16.4222 50.8467 16.0487 50.5151 15.7059C49.8553 15.0158 49.0695 14.4585 48.2341 14.0044C48.0218 13.8971 47.8121 13.7838 47.5937 13.6892C47.4845 13.6416 47.3793 13.5859 47.2681 13.543L46.9379 13.4069C46.8287 13.3592 46.7148 13.3237 46.6036 13.2814C46.491 13.2419 46.3805 13.1976 46.2673 13.1614L45.927 13.0534L45.7568 12.9991L45.5847 12.9521C44.6683 12.6932 43.7284 12.5081 42.7832 12.3961C41.8386 12.2821 40.882 12.2654 39.9395 12.3787C39.4699 12.4451 39.0009 12.5256 38.5467 12.6651L38.3759 12.714C38.319 12.7301 38.264 12.7523 38.2078 12.771L37.8722 12.8898C37.6538 12.9816 37.432 13.0675 37.2217 13.1768C36.797 13.3874 36.3877 13.6329 36.0098 13.9219C35.6314 14.2097 35.2803 14.5336 34.9601 14.8864C34.6386 15.2378 34.3472 15.6188 34.0953 16.0252C33.9667 16.2271 33.8521 16.437 33.7436 16.6503C33.6357 16.8642 33.5359 17.0822 33.4562 17.3089C34.0692 15.4893 35.4244 13.9186 37.152 13.0386C37.365 12.9226 37.5888 12.8307 37.8105 12.7328C37.9237 12.6892 38.0376 12.6497 38.1515 12.6081C38.2085 12.5879 38.2647 12.5651 38.323 12.5477L38.4972 12.4961C38.9594 12.3492 39.437 12.2627 39.9153 12.1902C40.876 12.0682 41.8493 12.0843 42.8073 12.1969C43.7646 12.315 44.7111 12.5021 45.6383 12.7704C46.5641 13.0386 47.4657 13.4008 48.3098 13.8696C49.1478 14.3465 49.935 14.9259 50.5881 15.6389C50.913 15.9957 51.2044 16.3827 51.453 16.7951C51.6968 17.2096 51.9071 17.6489 52.0204 18.1164H52.019Z" fill="#0E0E0E"/>
<path d="M31.5048 12.9957C32.0749 13.2472 32.5485 13.7536 32.7488 14.3746C32.8486 14.6845 32.8774 15.0151 32.8573 15.3391C32.8372 15.6644 32.7595 15.9816 32.6557 16.2854C32.5498 16.5886 32.4212 16.8843 32.2631 17.1613C32.227 17.2324 32.1847 17.3002 32.1439 17.3686L32.022 17.5725L31.9088 17.7676L31.8525 17.8649L31.8022 17.9661C31.5276 18.502 31.3199 19.0768 31.1766 19.6703C30.8838 20.8561 30.7706 22.0902 30.7458 23.3249C30.7237 24.561 30.7806 25.8024 30.9012 27.0432C30.7518 26.4369 30.6547 25.8185 30.5737 25.1988C30.5368 24.8883 30.506 24.5771 30.4805 24.2645C30.4564 23.9527 30.441 23.6394 30.4323 23.3256C30.3995 22.0734 30.4805 20.8051 30.7873 19.5718C30.8262 19.4182 30.8731 19.2659 30.9166 19.113L30.9923 18.8863C31.0178 18.8105 31.0419 18.7347 31.0721 18.661C31.1303 18.5121 31.1853 18.3625 31.2543 18.2177C31.2878 18.1452 31.3192 18.0714 31.3541 17.9997L31.4673 17.7871L31.5242 17.6811L31.5879 17.5785L31.7152 17.3739L31.8384 17.1808C31.8793 17.1171 31.9215 17.0533 31.9577 16.9869L32.0709 16.7898L32.1747 16.5886C32.2115 16.5222 32.241 16.4531 32.2725 16.3847C32.304 16.3163 32.3361 16.2479 32.3616 16.1774C32.4741 15.8984 32.5559 15.6087 32.5954 15.3136C32.6342 15.0192 32.6282 14.7174 32.5586 14.4276C32.4259 13.8455 32.03 13.325 31.5035 12.9951L31.5048 12.9957Z" fill="#0E0E0E"/>
<path d="M32.8727 37.5071C32.5679 36.7982 32.306 36.0705 32.0729 35.3341C31.8391 34.5977 31.6388 33.8506 31.4666 33.0967C31.3012 32.3415 31.1712 31.5776 31.0848 30.809C31.0071 30.0391 30.983 29.2638 31.0325 28.4932C31.0459 28.8795 31.0372 29.2645 31.0761 29.6481C31.0942 30.0324 31.1484 30.414 31.1879 30.7963C31.2482 31.1766 31.2938 31.5582 31.3702 31.9358C31.407 32.1242 31.4338 32.3154 31.4773 32.5025L31.5966 33.0672C31.7654 33.8177 31.959 34.5628 32.172 35.3033C32.2792 35.6728 32.3897 36.0424 32.5076 36.4092C32.6208 36.7774 32.7461 37.1423 32.8727 37.5065V37.5071Z" fill="#0E0E0E"/>
<path d="M38.1642 12.7623C38.0718 12.8059 37.9854 12.8321 37.8943 12.8542C37.8038 12.8763 37.7121 12.8911 37.6203 12.9012C37.4367 12.9206 37.2512 12.9193 37.069 12.8998C36.7032 12.8616 36.3488 12.7576 36.0159 12.6114C35.8491 12.5383 35.687 12.4552 35.5295 12.3653C35.3721 12.2714 35.2227 12.1822 35.0606 12.1057C34.737 11.9575 34.3941 11.8489 34.045 11.7724C33.696 11.6939 33.3403 11.6416 32.9826 11.6074C32.6255 11.5719 32.2665 11.5544 31.9067 11.5477C31.5477 11.541 31.1879 11.5464 30.8282 11.5578C30.4685 11.5678 30.1094 11.5927 29.7497 11.5994C30.1094 11.5866 30.4678 11.5564 30.8275 11.541C31.1873 11.5236 31.547 11.5122 31.9074 11.5142C32.2678 11.5149 32.6282 11.5269 32.9873 11.5571C33.347 11.586 33.7054 11.6329 34.0591 11.7067C34.4135 11.7791 34.7625 11.8831 35.0954 12.0293C35.2609 12.1037 35.4224 12.1963 35.5751 12.2848C35.7312 12.3706 35.8913 12.4498 36.0554 12.5189C36.383 12.6564 36.7287 12.7523 37.0803 12.7831C37.2559 12.7992 37.4327 12.7979 37.6062 12.7764C37.6933 12.7657 37.779 12.7503 37.8628 12.7281C37.9459 12.7067 38.0316 12.6778 38.1019 12.6436L38.1649 12.7623H38.1642Z" fill="#0E0E0E"/>
<path d="M48.3835 25.2142C48.3319 25.3249 48.2844 25.4369 48.2415 25.5509L48.1778 25.7219L48.1202 25.8949C48.0472 26.1263 47.9869 26.3617 47.9427 26.5998C47.9172 26.7185 47.9032 26.8386 47.8858 26.9586L47.8683 27.1397C47.8616 27.2001 47.8576 27.2605 47.8556 27.3208C47.8529 27.3812 47.8496 27.4422 47.8482 27.5026L47.8516 27.685C47.8516 27.7152 47.8516 27.746 47.8529 27.7762L47.8596 27.8674C47.8643 27.9278 47.8683 27.9888 47.8717 28.0498C47.8275 27.8097 47.7973 27.5649 47.804 27.3195V27.2276L47.8094 27.1357L47.8221 26.9519C47.8382 26.8305 47.8516 26.7078 47.8764 26.5878C47.9233 26.347 47.9856 26.1082 48.0713 25.8788C48.1557 25.6488 48.2555 25.4241 48.3828 25.2149L48.3835 25.2142Z" fill="#0E0E0E"/>
<path d="M52.0579 18.3699C52.0579 18.3699 52.0237 15.323 47.8114 12.9213L45.6363 12.8368C45.6363 12.8368 48.0378 13.7348 48.2033 13.9233C48.3688 14.1117 51.2607 15.1137 52.0579 18.3699Z" fill="#0E0E0E"/>
<path d="M48.4652 18.0359C48.3058 17.7294 48.1209 17.441 47.9152 17.168C47.7096 16.8957 47.4811 16.6422 47.2313 16.4128C47.1114 16.2921 46.974 16.1915 46.8434 16.0829C46.7034 15.987 46.5694 15.881 46.4207 15.7985C46.134 15.6134 45.8178 15.4819 45.4996 15.3485C45.8339 15.4283 46.1695 15.5356 46.4729 15.708L46.5888 15.769C46.6277 15.7884 46.6625 15.8153 46.6994 15.8381L46.9184 15.9816C47.0551 16.0903 47.1964 16.1935 47.3217 16.3156C47.5769 16.5537 47.8074 16.8186 47.9996 17.109C48.0465 17.1821 48.0934 17.2559 48.139 17.3297C48.1805 17.4061 48.2247 17.4806 48.2636 17.5584C48.3413 17.7133 48.413 17.8723 48.4646 18.0372L48.4652 18.0359Z" fill="#0E0E0E"/>
<path d="M49.1177 13.1245C49.2544 13.1634 49.3883 13.1969 49.5237 13.2097C49.6583 13.2231 49.793 13.2157 49.9222 13.1922C50.0515 13.1661 50.1768 13.1265 50.2947 13.0668C50.4133 13.0098 50.5252 12.9387 50.6276 12.8542C50.6799 12.8133 50.7422 12.7637 50.8032 12.7248C50.8655 12.6845 50.9291 12.6476 50.9961 12.6161C51.1294 12.5537 51.2687 12.5041 51.4134 12.478C51.7001 12.4223 51.9996 12.4444 52.2642 12.5444C51.9822 12.5269 51.7075 12.5524 51.4503 12.6309C51.1917 12.7093 50.9613 12.8381 50.7529 13.0118C50.6364 13.1024 50.5104 13.1815 50.3738 13.2399C50.2364 13.2962 50.0911 13.3371 49.943 13.3472C49.795 13.3592 49.6462 13.3445 49.5062 13.3062C49.3669 13.2647 49.2356 13.2036 49.1184 13.1245H49.1177Z" fill="#0E0E0E"/>
<path d="M56.7907 22.791C56.6366 23.1056 56.4899 23.4235 56.3553 23.7461C56.2179 24.0673 56.088 24.3919 55.9647 24.7192C55.7202 25.3732 55.4998 26.0371 55.3216 26.7112C55.2292 27.0478 55.1501 27.3872 55.0804 27.7293C55.0074 28.0706 54.9525 28.4147 54.9049 28.7601C54.8125 29.4516 54.7723 30.1504 54.7991 30.8513C54.783 30.6769 54.7609 30.5025 54.7562 30.3268C54.7529 30.239 54.7462 30.1518 54.7448 30.0639L54.7415 29.8003C54.7462 29.4489 54.7609 29.0975 54.8011 28.7474C54.8734 28.0472 55.0114 27.355 55.193 26.6756C55.3759 25.9962 55.603 25.3302 55.8689 24.6803C56.1349 24.0305 56.437 23.3946 56.792 22.7904L56.7907 22.791Z" fill="#0E0E0E"/>
<path d="M51.0303 38.2455C51.3759 38.0289 51.6787 37.7613 51.954 37.4723L52.0565 37.3629L52.2508 37.1349C52.2836 37.0973 52.3111 37.0551 52.3412 37.0155L52.431 36.8961L52.4766 36.8364C52.4913 36.8163 52.504 36.7949 52.5181 36.7741L52.6822 36.5239L52.8316 36.265C52.8557 36.2214 52.8832 36.1792 52.9046 36.1342L52.9696 35.9994C53.0131 35.9096 53.0607 35.821 53.1002 35.7291C53.1371 35.6359 53.1753 35.5434 53.2148 35.4508C53.2342 35.4045 53.2543 35.3583 53.2724 35.3113L53.3206 35.1685L53.4204 34.8827C53.4821 34.6903 53.5303 34.4938 53.5953 34.2986C53.5745 34.5011 53.5517 34.705 53.5162 34.9076L53.4472 35.2074L53.4111 35.3576C53.3963 35.4066 53.3789 35.4555 53.3635 35.5045C53.3313 35.6024 53.2985 35.7003 53.2637 35.7976C53.2275 35.8941 53.1826 35.9874 53.1418 36.0819L53.0781 36.2234C53.0567 36.2704 53.0292 36.3147 53.0051 36.3603C52.9549 36.4508 52.906 36.542 52.8537 36.6312C52.632 36.9806 52.37 37.3066 52.0646 37.5849C51.7598 37.8619 51.4154 38.104 51.0309 38.2469L51.0303 38.2455Z" fill="#0E0E0E"/>
<path d="M29.7584 12.8924C29.5614 12.9045 29.3698 12.9588 29.1876 13.0279C29.0048 13.097 28.8306 13.1862 28.6671 13.2915C28.5043 13.3975 28.3483 13.5135 28.2069 13.647C28.1332 13.71 28.0682 13.7824 27.9999 13.8508C27.9356 13.9233 27.87 13.995 27.8097 14.0708C27.5651 14.372 27.3602 14.7033 27.1873 15.05C27.1458 15.1379 27.1002 15.2231 27.0627 15.3129L26.9475 15.5805C26.8785 15.7623 26.8082 15.9434 26.7512 16.1298C26.5101 16.8703 26.3607 17.6402 26.2602 18.4155C26.2481 18.5128 26.2341 18.6093 26.2233 18.7066L26.1932 18.9983C26.1838 19.0956 26.1711 19.1928 26.1651 19.2907L26.1463 19.5845L26.1081 20.172C26.1028 20.2699 26.0927 20.3679 26.092 20.4658L26.086 20.7602C26.0766 21.1526 26.0586 21.5442 26.072 21.9366L26.0813 22.5248C26.0867 22.7206 26.1028 22.9164 26.1101 23.1123C26.1389 23.897 26.2334 24.677 26.3278 25.457C26.5556 27.0103 26.8772 28.5582 27.4117 30.0458C27.2416 29.689 27.0935 29.3208 26.9602 28.9486C26.8906 28.7635 26.833 28.5736 26.7686 28.3859C26.7084 28.1974 26.6534 28.0069 26.5951 27.8171C26.3788 27.0546 26.2066 26.2786 26.0693 25.4966L25.9788 24.9077L25.9353 24.6133C25.9226 24.5147 25.9132 24.4161 25.9025 24.3175L25.8382 23.7253C25.8167 23.5281 25.8087 23.3289 25.7933 23.1311C25.7799 22.9325 25.7651 22.7347 25.7578 22.5362L25.7444 21.9406C25.7283 21.5436 25.7444 21.1458 25.7511 20.7488L25.7591 20.451C25.7604 20.3518 25.7718 20.2525 25.7779 20.1539L25.8201 19.5597L25.8415 19.2626C25.8482 19.1633 25.8623 19.0647 25.8717 18.9655L25.9045 18.6683C25.9152 18.5691 25.9326 18.4712 25.9467 18.3726L25.9909 18.0768L26.0452 17.7824C26.0786 17.5859 26.1235 17.3914 26.1671 17.1962C26.1872 17.0983 26.2126 17.0017 26.2388 16.9051C26.2649 16.8085 26.289 16.712 26.3165 16.6154C26.3781 16.4249 26.4324 16.2324 26.504 16.0453C26.638 15.6684 26.7968 15.2982 26.9937 14.9481C27.1893 14.5973 27.4164 14.2633 27.6857 13.9642C27.7527 13.8897 27.8251 13.8193 27.8961 13.7482C27.9718 13.6818 28.0428 13.6107 28.1232 13.5497C28.2772 13.4216 28.4454 13.3089 28.6209 13.213C28.7964 13.1171 28.9813 13.0373 29.1722 12.981C29.3631 12.9266 29.5608 12.8884 29.7591 12.8931L29.7584 12.8924Z" fill="#0E0E0E"/>
<path d="M50.7616 39.2945C50.7616 39.2945 48.4873 39.3086 48.3748 38.9833L48.2622 38.658L47.946 39.5326L49.0366 39.8471L50.761 39.2952L50.7616 39.2945Z" fill="#0E0E0E"/>
<path d="M46.0971 34.6004C46.1059 34.8163 46.0811 35.0316 46.0469 35.2449C46.0101 35.4582 45.9591 35.6695 45.8928 35.876C45.7622 36.2898 45.5766 36.6889 45.3422 37.0564C45.109 37.4253 44.8223 37.7593 44.5014 38.0517C44.1772 38.3408 43.8161 38.5869 43.4263 38.7667C43.7572 38.4924 44.0694 38.2087 44.3547 37.9028C44.6374 37.5936 44.8927 37.2637 45.1164 36.9122C45.3402 36.5615 45.5351 36.1912 45.6979 35.8043C45.8593 35.4173 45.9973 35.0176 46.0971 34.6004Z" fill="#0E0E0E"/>
<path d="M44.1618 29.351C44.2931 30.5025 44.3266 31.6662 44.2529 32.8264C44.2127 33.4059 44.1377 33.9854 44.0057 34.5541C43.9387 34.8385 43.857 35.1195 43.7492 35.3931C43.642 35.6661 43.508 35.9317 43.3285 36.1698C43.1509 36.4072 42.9252 36.6178 42.6519 36.7479C42.5165 36.8136 42.3698 36.8592 42.2231 36.8821C42.0784 36.9082 41.9317 36.9236 41.7837 36.929C41.4896 36.9391 41.1848 36.9008 40.9115 36.7707C40.7748 36.707 40.6509 36.6171 40.5437 36.5118C40.4359 36.4065 40.3488 36.2825 40.2784 36.1517C40.1391 35.8874 40.0714 35.5943 40.0446 35.3026C40.0185 35.0102 40.0319 34.7164 40.0748 34.428C40.119 34.1396 40.1887 33.8559 40.2891 33.583C40.3394 33.4468 40.397 33.3127 40.4673 33.1853C40.5377 33.0592 40.6194 32.9351 40.7299 32.8405C40.6234 32.9391 40.5484 33.0659 40.4834 33.194C40.4191 33.3227 40.3648 33.4569 40.32 33.5937C40.2289 33.8673 40.1686 34.151 40.1344 34.4361C40.1022 34.7218 40.0915 35.0102 40.1237 35.2945C40.1545 35.5782 40.2268 35.8593 40.3628 36.1061C40.4982 36.3522 40.7058 36.5554 40.9597 36.6694C41.2123 36.7861 41.4983 36.823 41.7803 36.811C41.9217 36.8049 42.063 36.7895 42.203 36.7633C42.3417 36.7405 42.4737 36.6983 42.5983 36.6366C42.8481 36.5145 43.0578 36.318 43.224 36.092C43.5556 35.6332 43.7492 35.0813 43.8851 34.5259C44.0205 33.9673 44.0948 33.3938 44.1457 32.8191C44.1966 32.2443 44.2167 31.6655 44.2161 31.0874C44.2188 30.5086 44.2 29.9298 44.1618 29.3523V29.351Z" fill="#0E0E0E"/>
<path d="M34.4242 38.6567C34.3766 38.7935 33.8528 39.4682 33.0241 39.4877C32.0307 39.5105 33.1909 40.0074 33.1909 40.0074L34.1516 39.6956L34.806 39.3616L34.4242 38.6567Z" fill="#0E0E0E"/>
<path d="M51.9634 13.4518C52.3493 13.4008 52.7425 13.429 53.125 13.5014C53.3166 13.537 53.5042 13.594 53.6891 13.6563C53.7802 13.6919 53.8719 13.7254 53.961 13.7657C54.0488 13.8086 54.1399 13.8448 54.2243 13.8951C54.917 14.2647 55.475 14.8535 55.8716 15.5262C55.9232 15.6094 55.9647 15.6986 56.0109 15.7837L56.0793 15.9132L56.1389 16.0473C56.1777 16.1372 56.2199 16.2251 56.2561 16.3156L56.3573 16.5906C56.3733 16.6369 56.3921 16.6818 56.4068 16.7281L56.5334 17.1486C56.579 17.3384 56.6279 17.5268 56.6654 17.7187C56.8161 18.4839 56.8784 19.2632 56.8845 20.0406L56.851 19.4584C56.8389 19.2646 56.8148 19.0714 56.7967 18.8783C56.7893 18.7817 56.7753 18.6851 56.7612 18.5892L56.7203 18.3008C56.709 18.2042 56.6889 18.1097 56.6701 18.0144L56.6145 17.7287C56.5978 17.6328 56.5696 17.5403 56.5475 17.4457L56.4778 17.1633L56.3928 16.8857L56.3499 16.7468C56.3352 16.7006 56.3164 16.6563 56.3003 16.6107L56.1985 16.3391C56.1617 16.2499 56.1201 16.1627 56.0813 16.0742L56.0216 15.942L55.9533 15.8139C55.9064 15.7294 55.8649 15.6416 55.814 15.5597C55.6204 15.2251 55.3852 14.9159 55.1159 14.6396C54.846 14.3639 54.5365 14.1285 54.1995 13.94C54.1171 13.8897 54.028 13.8522 53.9416 13.8086C53.8545 13.7677 53.7641 13.7328 53.6743 13.6966C53.4921 13.6322 53.3079 13.5732 53.1183 13.5343C52.7412 13.4518 52.3499 13.4162 51.9634 13.4525V13.4518Z" fill="#0E0E0E"/>
<path d="M32.4989 9.82608C32.1707 9.85626 31.8498 9.93473 31.541 10.042C31.2328 10.1507 30.9314 10.2828 30.654 10.4565C30.3747 10.6255 30.1067 10.8167 29.8696 11.0427C29.743 11.1473 29.6365 11.2727 29.5219 11.3901C29.4623 11.4471 29.4147 11.5149 29.3611 11.5766L29.203 11.767L29.3471 11.5658C29.3966 11.5001 29.4402 11.429 29.4971 11.3687C29.6077 11.2459 29.7108 11.1158 29.8348 11.0051C29.895 10.9481 29.9527 10.8884 30.0163 10.8355L30.2106 10.6799C30.2735 10.6255 30.3445 10.5819 30.4122 10.5343C30.4812 10.488 30.5475 10.4384 30.6205 10.3988L30.8376 10.2768L31.062 10.1695C31.2141 10.1037 31.3675 10.04 31.5262 9.99308C31.6843 9.94345 31.8458 9.90522 32.0079 9.87303C32.1714 9.84754 32.3355 9.82474 32.5003 9.82608H32.4989Z" fill="#0E0E0E"/>
<path d="M41.1614 7.67588C41.1614 7.67588 42.7738 11.8381 42.0356 12.1178L43.6152 12.4384L41.1614 7.67588Z" fill="#0E0E0E"/>
<path d="M33.5621 14.8528C33.5734 14.6389 33.5487 14.4263 33.4984 14.2211C33.4462 14.0165 33.3731 13.8173 33.2686 13.6335C33.2452 13.5859 33.2137 13.5437 33.1869 13.4981L33.1447 13.431C33.1293 13.4095 33.1126 13.3894 33.0971 13.368L33.0014 13.2419C32.9652 13.203 32.9303 13.1641 32.8948 13.1245L32.8419 13.0648L32.7836 13.0105L32.6671 12.9025C32.588 12.8314 32.5009 12.7704 32.4185 12.7006C32.509 12.7576 32.6001 12.814 32.6872 12.877L32.8118 12.9796L32.8741 13.0313L32.931 13.0883C32.9692 13.1265 33.0074 13.1647 33.0449 13.2036L33.1467 13.3304C33.1635 13.3519 33.1809 13.3726 33.1963 13.3948L33.2405 13.4632C33.2686 13.5095 33.3015 13.5531 33.3256 13.6013C33.4314 13.7905 33.5051 13.9977 33.5466 14.2103C33.5681 14.3163 33.5788 14.4243 33.5842 14.5316C33.5842 14.6396 33.5821 14.7475 33.5607 14.8528H33.5621Z" fill="#0E0E0E"/>
<path d="M35.2087 12.1098C35.2087 12.1098 37.7315 13.201 38.9232 12.0306L38.9413 12.5155C38.9413 12.5155 37.5205 12.9515 37.3376 12.8556C37.3376 12.8556 35.8122 12.7 35.2087 12.1098Z" fill="#0E0E0E"/>
<path d="M39.1811 10.6094C39.1811 10.6094 39.1081 10.7597 38.7477 11.8831C38.3317 13.1802 34.6466 11.8542 34.6466 11.8542L35.9214 12.5115L36.9497 12.8046L38.8281 12.4042L38.9286 12.1976L39.1811 10.6088V10.6094Z" fill="#0E0E0E"/>
<path d="M37.221 12.871C37.221 12.871 35.9315 13.4082 34.6814 14.9897C34.6814 14.9897 34.24 15.5175 34.169 15.8166C34.169 15.8166 35.5637 13.8602 36.3803 13.5524C37.1969 13.2445 37.639 12.7918 37.639 12.7918L37.2204 12.871H37.221Z" fill="#0E0E0E"/>
<path d="M37.8923 2.0388C37.763 1.8671 37.6183 1.71821 37.4582 1.59279C37.2974 1.47006 37.1246 1.36744 36.9363 1.2997C36.8908 1.28025 36.8412 1.27019 36.7936 1.2541C36.7695 1.24672 36.7461 1.238 36.722 1.23197L36.6483 1.21788C36.5987 1.20916 36.5498 1.19575 36.4995 1.18904C36.4493 1.18502 36.3984 1.17898 36.3475 1.17295C36.322 1.17026 36.2966 1.16557 36.2711 1.16557C36.2457 1.16557 36.2195 1.16557 36.1941 1.1649L36.038 1.1602C35.9335 1.16154 35.829 1.17093 35.7191 1.16758C35.8183 1.12734 35.9208 1.09179 36.0259 1.06228L36.1867 1.03344C36.2403 1.02338 36.2952 1.01601 36.3502 1.01668C36.4051 1.01466 36.4607 1.01332 36.5156 1.01332C36.5712 1.01399 36.6262 1.02472 36.6811 1.03076L36.7642 1.04216C36.7916 1.04753 36.8184 1.05625 36.8452 1.06295C36.8988 1.07905 36.9537 1.09045 37.006 1.11191C37.217 1.18837 37.4086 1.31781 37.5627 1.47744C37.7167 1.63639 37.8367 1.82887 37.8916 2.0388H37.8923Z" fill="#0E0E0E"/>
<path d="M39.3814 11.8388C39.3265 11.6892 39.3292 11.5229 39.3486 11.3633C39.3721 11.2037 39.4176 11.0474 39.4813 10.8985C39.5442 10.7503 39.6226 10.6088 39.7104 10.4746L39.768 10.3814C39.7834 10.3506 39.8001 10.3204 39.8122 10.2868C39.8396 10.2218 39.8577 10.1514 39.8718 10.0803C39.9026 9.93742 39.914 9.78651 39.9153 9.63561C39.92 9.48403 39.91 9.33112 39.8999 9.17753C39.8758 8.87036 39.8343 8.56252 39.7881 8.25065C39.9147 8.53971 40.0011 8.84554 40.0554 9.15808C40.1083 9.47062 40.1317 9.79456 40.0681 10.1219C40.05 10.203 40.0272 10.2842 39.9924 10.3633C39.977 10.4029 39.9549 10.4411 39.9348 10.4793C39.9107 10.5169 39.8865 10.5544 39.8651 10.5826C39.7733 10.704 39.6963 10.8348 39.6206 10.9662C39.5496 11.0997 39.4873 11.2385 39.4431 11.3841C39.3995 11.5296 39.3694 11.6819 39.3808 11.8388H39.3814Z" fill="#0E0E0E"/>
<path d="M38.7986 3.07366C39.0311 3.4935 39.2441 3.92341 39.4498 4.35734C39.6541 4.79127 39.845 5.23191 40.0272 5.6759C40.2027 6.12258 40.3715 6.5726 40.5169 7.03001C40.6596 7.48876 40.7855 7.95287 40.872 8.42503L40.7829 8.07694C40.7561 7.96025 40.7172 7.8469 40.6844 7.73154C40.6516 7.61619 40.6187 7.5015 40.5799 7.38815C40.5424 7.27414 40.5069 7.16012 40.468 7.04678C40.3126 6.59407 40.1444 6.14538 39.9649 5.70139C39.7881 5.25606 39.5971 4.81676 39.4029 4.3788C39.3064 4.15949 39.2066 3.94152 39.1054 3.72422C39.0063 3.50625 38.9025 3.28962 38.7986 3.07366Z" fill="#0E0E0E"/>
<path d="M51.7799 10.3928C51.6472 10.3096 51.5099 10.2359 51.3679 10.1715C51.2265 10.1058 51.0818 10.0481 50.9345 10.0005C50.6397 9.90522 50.3336 9.8395 50.0241 9.83078C49.87 9.82474 49.7146 9.82876 49.5618 9.84822C49.4084 9.86901 49.257 9.9012 49.109 9.94613C48.9616 9.99241 48.8156 10.0481 48.6782 10.1205C48.5369 10.1869 48.4063 10.2728 48.2756 10.3579C48.5175 10.1594 48.7941 9.99979 49.0936 9.89717C49.3924 9.79456 49.7112 9.75298 50.0274 9.76371C50.3436 9.77846 50.6558 9.84419 50.9519 9.95217C51.2466 10.0615 51.5307 10.2043 51.7812 10.3935L51.7799 10.3928Z" fill="#0E0E0E"/>
<path d="M43.7271 7.08702C42.6077 7.02464 41.499 7.8583 41.499 7.8583L41.3462 7.56119L41.4561 7.40157C41.4561 7.40157 42.757 7.0233 43.5757 6.93947L43.7264 7.08702H43.7271Z" fill="#0E0E0E"/>
<path d="M39.0807 8.29626C39.0807 8.29626 38.8837 7.36535 37.1674 7.23524C37.1674 7.23524 38.609 7.23121 39.0485 7.6685L39.0807 8.29626Z" fill="#0E0E0E"/>
<path d="M43.2796 10.4143C43.0485 10.042 42.8348 9.66042 42.6278 9.27612C42.5755 9.18022 42.5239 9.08431 42.4737 8.98706L42.398 8.84219C42.3712 8.7872 42.3464 8.72818 42.3337 8.66714C42.2754 8.42167 42.3611 8.14871 42.5474 7.97701C42.5695 7.95421 42.5963 7.93744 42.6211 7.91732C42.6479 7.90055 42.674 7.88245 42.7021 7.86903C42.7611 7.83885 42.8106 7.82208 42.8636 7.80129C42.9694 7.76374 43.0759 7.72685 43.1864 7.70203C43.4055 7.65039 43.6306 7.62088 43.8557 7.62759C44.3058 7.63362 44.7473 7.77111 45.1171 8.00585C44.7091 7.84623 44.2817 7.76239 43.8584 7.78453C43.6473 7.7966 43.437 7.82745 43.2347 7.88647C43.1329 7.9133 43.033 7.94817 42.9339 7.98506C42.8307 8.0253 42.7503 8.05951 42.6834 8.12523C42.546 8.2473 42.481 8.44649 42.5192 8.62824C42.5266 8.67452 42.5427 8.71744 42.5614 8.76171L42.6311 8.90993C42.678 9.00852 42.7229 9.10778 42.7678 9.20771C42.9486 9.60543 43.1228 10.0058 43.2796 10.4156V10.4143Z" fill="#0E0E0E"/>
<path d="M43.8195 8.22248C43.7257 8.2151 43.6319 8.2151 43.5388 8.22583C43.4464 8.23455 43.3546 8.25199 43.2675 8.2815C43.1824 8.31101 43.0947 8.35125 43.027 8.40222C42.964 8.45521 42.9359 8.54575 42.9587 8.62422C42.9687 8.66044 42.9928 8.70806 43.0103 8.74964L43.0665 8.87908C43.1027 8.96627 43.1409 9.05211 43.1751 9.13997L43.2809 9.40221C43.3137 9.49074 43.3492 9.57793 43.38 9.66713C43.3352 9.58397 43.2943 9.49946 43.2508 9.41562L43.1282 9.16077C43.0866 9.07626 43.0484 8.98974 43.0083 8.90456L42.95 8.77579L42.9212 8.71141C42.9125 8.69062 42.9004 8.66714 42.8937 8.64099C42.8656 8.5377 42.9031 8.41966 42.9868 8.35326C43.0719 8.29424 43.159 8.25736 43.2528 8.23187C43.439 8.18224 43.6346 8.18023 43.8188 8.22181L43.8195 8.22248Z" fill="#0E0E0E"/>
<path d="M37.8822 7.78721C37.7161 7.77245 37.5526 7.76105 37.3898 7.75636C37.2277 7.753 37.0656 7.753 36.9068 7.77111C36.7474 7.78587 36.5913 7.81806 36.4413 7.8697C36.3669 7.8972 36.2939 7.92872 36.2235 7.96829C36.1532 8.00786 36.0876 8.05548 36.0212 8.10712C36.0655 8.03536 36.1217 7.97165 36.186 7.91464C36.2517 7.85964 36.324 7.81202 36.4011 7.7738C36.5551 7.69667 36.7246 7.65576 36.8941 7.63832C37.0636 7.62155 37.2337 7.62759 37.3999 7.65307C37.566 7.67856 37.7295 7.71947 37.8829 7.78788L37.8822 7.78721Z" fill="#0E0E0E"/>
<path d="M35.1765 34.4052C35.4136 35.086 35.6615 35.7526 35.9362 36.4039C36.2108 37.0544 36.5149 37.6896 36.8754 38.2838C37.2364 38.876 37.6558 39.4327 38.1817 39.8686C38.4443 40.0859 38.7336 40.2717 39.0512 40.4072C39.2093 40.4749 39.3741 40.5326 39.5449 40.5755C39.715 40.6184 39.8906 40.6473 40.0701 40.6687C39.715 40.7298 39.3392 40.717 38.9788 40.6258C38.6164 40.5379 38.2721 40.3736 37.9619 40.1644C37.3396 39.7418 36.8559 39.153 36.4754 38.5272C36.0943 37.8981 35.8082 37.2221 35.5912 36.5299C35.3781 35.8371 35.2241 35.1262 35.1765 34.4046V34.4052Z" fill="#0E0E0E"/>
</svg>
