<svg width="57" height="35" viewBox="0 0 57 35" fill="none" xmlns="http://www.w3.org/2000/svg">
<path d="M46.5118 15.7168C46.3832 15.6281 46.2671 15.5216 46.1538 15.4138C46.041 15.3053 45.9323 15.1928 45.8256 15.0784C45.6121 14.8502 45.4058 14.6147 45.203 14.3766C44.7978 13.9003 44.4047 13.4134 44.0175 12.9226C43.243 11.9402 42.4898 10.9427 41.7512 9.9326L41.7486 9.92863C41.5185 9.58663 41.2393 9.26581 40.9536 8.95953C40.6652 8.65392 40.3608 8.36352 40.0459 8.08437C39.4153 7.52739 38.7424 7.01869 38.0422 6.55101C36.6432 5.61301 35.1394 4.83641 33.5893 4.17689C32.0311 3.52333 30.4611 2.89226 28.8744 2.31675C27.2878 1.74191 25.6799 1.22197 24.0403 0.849548C23.6305 0.756938 23.2188 0.675574 22.8057 0.606778C22.392 0.538644 21.9776 0.482416 21.5645 0.451326C20.7357 0.389145 19.8996 0.416928 19.0735 0.524091C17.4212 0.741063 15.8094 1.25505 14.3255 2.01048C13.5829 2.3882 12.8728 2.82743 12.2091 3.32819C12.1249 3.38971 12.044 3.45453 11.9624 3.5187C11.922 3.55045 11.8796 3.58286 11.8411 3.61462L11.7284 3.71053C11.5805 3.8435 11.44 3.98902 11.3047 4.14051C11.1708 4.29398 11.0422 4.4534 10.9182 4.61745C10.7955 4.78282 10.6775 4.95151 10.5648 5.1235C10.4521 5.29615 10.3453 5.47211 10.2452 5.65071C10.1451 5.82998 10.0529 6.00792 9.97998 6.18983C9.83146 6.55564 9.74659 6.94328 9.73001 7.33555C9.6962 8.12141 9.9402 8.91389 10.3473 9.60185C10.3984 9.68784 10.4521 9.77185 10.5078 9.85388C10.5641 9.93392 10.6225 10.0179 10.6808 10.0801C10.822 10.2329 10.9573 10.387 11.1038 10.5379C11.2484 10.6894 11.3916 10.8415 11.5401 10.9903C11.6873 11.1398 11.8345 11.2893 11.985 11.4362C12.5824 12.0276 13.1957 12.6057 13.8156 13.1766C15.0568 14.3183 16.3285 15.4297 17.6102 16.5291C18.8931 17.6272 20.1894 18.7114 21.4942 19.7843C22.1466 20.3208 22.8017 20.8546 23.4588 21.3851L23.9521 21.782L24.0754 21.8806L24.1629 21.9501L24.1894 21.9692C24.2717 22.0288 24.3565 22.0883 24.4414 22.1472C24.7835 22.3827 25.1356 22.6076 25.4923 22.8252C26.2057 23.2598 26.941 23.66 27.6936 24.0239C28.4455 24.3883 29.2152 24.7151 29.9996 24.9996C30.784 25.284 31.5843 25.5202 32.3945 25.7061C32.5974 25.7504 32.8009 25.7934 33.0045 25.8324C33.2094 25.8668 33.4129 25.9091 33.6184 25.9356L33.9261 25.9799C34.0289 25.9931 34.1316 26.0031 34.2351 26.015C34.4386 26.0381 34.6514 26.0593 34.863 26.0805C36.555 26.2478 38.2404 26.4694 39.9179 26.74C40.7567 26.8749 41.5934 27.0198 42.4282 27.1786C43.2636 27.3373 44.0937 27.5047 44.9285 27.6965L44.9013 27.6912C45.9542 27.8467 47.0104 27.9962 48.0659 28.141C49.1215 28.2852 50.1784 28.4248 51.2346 28.5545C52.2908 28.6828 53.349 28.8058 54.4032 28.8932C54.6664 28.9137 54.9297 28.9328 55.1889 28.9434C55.3195 28.95 55.4455 28.9514 55.5741 28.952C55.7021 28.952 55.8294 28.9481 55.9527 28.9395C56.0747 28.9309 56.1967 28.917 56.2955 28.8932C56.3439 28.8826 56.387 28.8654 56.3983 28.8588C56.4029 28.8568 56.395 28.8574 56.3731 28.8859C56.3611 28.9011 56.3512 28.9229 56.3433 28.95C56.3366 28.9758 56.3366 29.0043 56.3393 29.0228C56.3466 29.0625 56.3545 29.0678 56.3519 29.0645C56.3499 29.0612 56.3406 29.0493 56.3273 29.036C56.3008 29.0089 56.2604 28.9758 56.2159 28.9448C56.1715 28.913 56.1225 28.8819 56.0714 28.8521C56.0217 28.823 55.9647 28.792 55.9189 28.7695L55.9414 28.7794C54.5955 28.2608 53.2349 27.762 51.8711 27.2864C50.5059 26.8127 49.1348 26.3537 47.7523 25.9495C47.0608 25.7484 46.3666 25.5579 45.6697 25.4011C45.3203 25.3211 44.9742 25.2569 44.6221 25.2L44.0778 25.1081C43.8968 25.075 43.7164 25.036 43.5361 24.9996C42.816 24.8448 42.1026 24.6496 41.4064 24.3989C41.059 24.2719 40.7149 24.133 40.3767 23.9762L40.1248 23.8545C40.0419 23.8109 39.9584 23.7692 39.8755 23.7242C39.7933 23.6786 39.7104 23.6336 39.6288 23.5846C39.5877 23.5608 39.5473 23.5357 39.5062 23.5099L39.4445 23.4702C39.4233 23.4563 39.4041 23.4437 39.3782 23.4252L39.5155 23.4781C39.0195 23.4173 38.5342 23.2903 38.0767 23.1057C37.6172 22.9244 37.1849 22.6896 36.7751 22.4257C35.9583 21.8938 35.2389 21.2416 34.5865 20.5397C33.9354 19.8352 33.3506 19.0772 32.8148 18.29C32.547 17.8957 32.2917 17.4935 32.0484 17.0847C31.805 16.6733 31.5743 16.2631 31.3582 15.8272L31.3767 15.8596C31.1062 15.4535 30.8529 15.0453 30.6089 14.6259C30.3669 14.2059 30.1342 13.7792 29.9373 13.3234C29.8411 13.0932 29.749 12.8604 29.6999 12.5859C29.6886 12.5164 29.68 12.443 29.682 12.3616C29.6847 12.2803 29.6939 12.187 29.745 12.0825C29.7702 12.0309 29.81 11.9773 29.8597 11.9356C29.9094 11.8933 29.9678 11.8635 30.0215 11.8463C30.1315 11.8126 30.223 11.8165 30.3033 11.8251C30.3888 11.8364 30.4392 11.8509 30.5035 11.8629L30.6858 11.9065C30.8065 11.9383 30.9252 11.972 31.0432 12.0084C31.2786 12.0818 31.5093 12.1625 31.7368 12.2505C32.6458 12.6024 33.5137 13.0304 34.3644 13.4842C35.2144 13.94 36.0432 14.4308 36.8607 14.9382C37.6769 15.4469 38.4805 15.9747 39.2735 16.5172L40.4576 17.3308C40.6539 17.4671 40.8535 17.5974 41.0524 17.7297C41.2513 17.8613 41.4495 17.995 41.6518 18.122C42.454 18.6393 43.2709 19.1301 44.1169 19.5654C44.9623 20.0019 45.8368 20.3803 46.7226 20.7435C47.6084 21.106 48.4989 21.4678 49.3801 21.8475L50.0398 22.1359C50.2593 22.2305 50.482 22.3317 50.6982 22.4396C51.1318 22.6546 51.5528 22.896 51.9566 23.1639C52.7642 23.6984 53.5015 24.3387 54.1387 25.0651C54.4576 25.4276 54.7526 25.8106 55.0265 26.2068C55.1637 26.4046 55.295 26.6057 55.4256 26.8068C55.4906 26.9073 55.5556 27.0072 55.6225 27.1045C55.6888 27.1997 55.7591 27.3016 55.8334 27.3658C55.8506 27.381 55.8698 27.3902 55.8751 27.3909C55.8778 27.3909 55.8758 27.3909 55.8765 27.3909C55.8771 27.3909 55.8811 27.3882 55.8864 27.383C55.897 27.3724 55.9096 27.3505 55.9202 27.3281C55.9308 27.3023 55.9428 27.2765 55.9514 27.25C55.9905 27.1442 56.0144 27.0324 56.0257 26.9186C56.0489 26.691 56.023 26.4569 55.97 26.23C55.8625 25.7735 55.6603 25.3396 55.4296 24.9248C55.1969 24.5107 54.9303 24.1138 54.6479 23.7295C54.3654 23.3445 54.0664 22.9721 53.7568 22.6076C53.1368 21.8793 52.4778 21.1847 51.7975 20.5106C51.1166 19.8379 50.4157 19.1843 49.691 18.5579C50.425 19.1737 51.1351 19.8174 51.8267 20.4809C52.5169 21.1457 53.1872 21.8317 53.8197 22.5533C54.449 23.2757 55.0497 24.0305 55.535 24.8646C55.7737 25.2827 55.9865 25.7219 56.1046 26.1975C56.1622 26.4344 56.1934 26.6824 56.1715 26.9318C56.1603 27.0562 56.1357 27.1805 56.0933 27.2996C56.0833 27.33 56.0707 27.3585 56.0588 27.3882C56.0442 27.42 56.029 27.4524 55.9991 27.4855C55.9846 27.502 55.9647 27.5192 55.9381 27.5311C55.9116 27.543 55.8785 27.547 55.8519 27.5424C55.7969 27.5331 55.7644 27.508 55.7359 27.4862C55.6796 27.4405 55.6398 27.3922 55.6 27.3433C55.5609 27.2943 55.5251 27.2454 55.4899 27.1958C55.4196 27.0965 55.3533 26.9966 55.2864 26.8974C55.1531 26.6983 55.0198 26.5012 54.8813 26.3074C54.6048 25.9197 54.3091 25.5473 53.9901 25.196C53.353 24.4929 52.625 23.873 51.8273 23.3604C51.4288 23.1037 51.0138 22.8722 50.5868 22.6671C50.3726 22.5639 50.1578 22.4687 49.9357 22.3767L49.2746 22.0976C48.3908 21.7304 47.4997 21.3812 46.6073 21.0293C45.7148 20.6773 44.823 20.3049 43.9611 19.8696C43.0978 19.4364 42.2657 18.9475 41.4522 18.4342C41.2466 18.3085 41.0464 18.1755 40.8448 18.0452C40.6433 17.9143 40.4404 17.7846 40.2421 17.6497L39.0487 16.8473C38.2544 16.3161 37.4508 15.7994 36.6352 15.302C35.8197 14.8059 34.9922 14.3302 34.1502 13.8857C33.3075 13.4438 32.4495 13.0284 31.567 12.695C31.3469 12.6117 31.1248 12.5356 30.902 12.4681C30.7906 12.4344 30.6786 12.4033 30.5672 12.3749L30.4001 12.3358C30.347 12.3259 30.2814 12.3107 30.2476 12.3074C30.2091 12.3028 30.178 12.3067 30.1733 12.3094C30.17 12.3107 30.1746 12.3094 30.1786 12.3061C30.1826 12.3028 30.1853 12.2981 30.1846 12.3001C30.1826 12.3028 30.1746 12.3312 30.1746 12.3689C30.1746 12.4073 30.1786 12.4536 30.1872 12.5019C30.223 12.699 30.3059 12.916 30.3961 13.125C30.5811 13.547 30.8098 13.9611 31.0492 14.368C31.2892 14.7741 31.5445 15.1776 31.807 15.5666L31.8163 15.5805L31.8256 15.599C32.0311 16.0052 32.2639 16.4146 32.5032 16.8115C32.7439 17.2098 32.9965 17.6014 33.2604 17.9844C33.7888 18.7497 34.3637 19.4827 34.9962 20.1581C35.6281 20.8321 36.319 21.4513 37.0854 21.9448C37.8499 22.4363 38.6986 22.7961 39.5818 22.8973L39.6507 22.9053L39.7183 22.9502L39.7648 22.9813L39.8171 23.0144C39.8529 23.0369 39.8887 23.0587 39.9265 23.0806C40.0001 23.1249 40.077 23.1659 40.1533 23.2076C40.2302 23.2486 40.3084 23.2876 40.386 23.328L40.6241 23.4411C40.9443 23.5873 41.2732 23.7182 41.6067 23.8386C42.275 24.0761 42.9632 24.2613 43.6607 24.4082C43.8358 24.4419 44.0102 24.479 44.1852 24.5107L44.713 24.598C45.0763 24.6556 45.4436 24.7224 45.801 24.8024C46.5191 24.9605 47.2239 25.1504 47.9247 25.3515C49.3257 25.755 50.7068 26.2095 52.0793 26.6851C53.4524 27.162 54.815 27.6588 56.1735 28.1801L56.1854 28.1847L56.1961 28.19C56.2703 28.2264 56.33 28.2588 56.3956 28.2971C56.4599 28.3349 56.5236 28.3745 56.5879 28.4202C56.6522 28.4658 56.7172 28.5161 56.7842 28.5836C56.818 28.618 56.8525 28.6563 56.8876 28.7086C56.9214 28.7609 56.9605 28.827 56.9764 28.9328C56.9844 28.9838 56.9824 29.046 56.9678 29.1042C56.9532 29.1644 56.9261 29.2153 56.8962 29.2583C56.8352 29.341 56.7722 29.382 56.7199 29.4138C56.6144 29.4726 56.5289 29.4958 56.448 29.5163C56.2869 29.5547 56.1423 29.5686 55.9991 29.5798C55.8566 29.5897 55.7167 29.5937 55.5781 29.5943C55.4395 29.5943 55.299 29.5924 55.163 29.5857C54.8892 29.5752 54.6207 29.556 54.3515 29.5355C53.2787 29.4482 52.2172 29.3258 51.1557 29.1988C50.0948 29.0698 49.0353 28.9315 47.9771 28.7886C46.9189 28.6451 45.862 28.4969 44.8038 28.3421L44.7919 28.3401L44.7766 28.3368C43.9611 28.1516 43.1316 27.9823 42.3048 27.8242C41.4767 27.6654 40.6459 27.5205 39.8132 27.3856C38.1483 27.1144 36.4755 26.8921 34.7986 26.7241C34.5891 26.7029 34.3809 26.6818 34.1641 26.6566C34.0567 26.6441 33.9493 26.6335 33.8425 26.6196L33.5223 26.5726C33.3081 26.5448 33.0973 26.5005 32.8845 26.4648C32.673 26.4238 32.4621 26.3795 32.2519 26.3332C31.4125 26.14 30.5871 25.8946 29.7808 25.6009C28.9746 25.3072 28.1849 24.9705 27.4144 24.5961C26.644 24.2216 25.8921 23.8109 25.1615 23.3643C24.7955 23.1414 24.4361 22.9086 24.082 22.6632C23.9932 22.6016 23.9057 22.5395 23.8168 22.474L23.7797 22.4462L23.7439 22.4177L23.5576 22.2676L23.0643 21.8674C22.4072 21.3329 21.7535 20.7951 21.1017 20.2546C19.7982 19.1737 18.5046 18.0816 17.2223 16.9749C15.9413 15.8662 14.6709 14.7463 13.4271 13.5927C12.8058 13.0158 12.1905 12.4304 11.5892 11.8298C11.438 11.6803 11.2895 11.5281 11.1416 11.3747C10.9924 11.2232 10.8472 11.0671 10.7007 10.9116C10.5535 10.7582 10.4116 10.5934 10.2671 10.4353C10.1829 10.3421 10.1212 10.2508 10.0569 10.1575C9.9939 10.0649 9.93489 9.9703 9.87853 9.87372C9.65443 9.48939 9.4774 9.07794 9.35872 8.64598C9.24003 8.21468 9.18367 7.76222 9.20555 7.31041C9.22744 6.85861 9.32954 6.41077 9.50259 5.99469C9.58813 5.78566 9.69288 5.58787 9.79963 5.39934C9.90771 5.21015 10.0217 5.02626 10.1411 4.84501C10.2611 4.66508 10.3864 4.48846 10.517 4.31448C10.649 4.14183 10.7869 3.97315 10.9321 3.8091C11.0793 3.64637 11.2338 3.48893 11.4015 3.34009L11.5308 3.23161C11.5739 3.19589 11.6163 3.1648 11.6588 3.13172C11.7436 3.06557 11.8285 2.99942 11.916 2.93658C12.6069 2.42326 13.3435 1.97344 14.112 1.5891C15.6476 0.819119 17.3118 0.301165 19.0198 0.094116C19.8738 -0.00841643 20.7384 -0.0295844 21.597 0.042519C22.0273 0.07824 22.4523 0.141082 22.8727 0.214509C23.2937 0.288597 23.7121 0.375915 24.1265 0.473817C25.786 0.86807 27.4005 1.40852 28.9898 2.00188C30.5784 2.59921 32.1412 3.25211 33.6967 3.92684C35.2515 4.6115 36.7586 5.41257 38.1589 6.3777C38.8584 6.86059 39.53 7.38384 40.1586 7.9567C40.4729 8.24313 40.7759 8.54147 41.063 8.85502C41.3488 9.17121 41.6232 9.49402 41.8593 9.85719L41.8566 9.85322C42.2173 10.3626 42.5833 10.8693 42.952 11.3733C43.3206 11.8781 43.6926 12.3795 44.0705 12.8769C44.4484 13.3744 44.8323 13.8679 45.2282 14.3508C45.4264 14.5922 45.628 14.831 45.8368 15.0632C45.9416 15.179 46.0477 15.2934 46.1584 15.4039C46.2698 15.5137 46.3832 15.6215 46.5105 15.7128L46.5118 15.7168Z" fill="#0E0E0E"/>
<path d="M46.3792 20.4134C46.5529 20.2692 46.6696 20.0721 46.7478 19.8683C46.8254 19.6633 46.8599 19.4436 46.8566 19.2253C46.8586 19.1711 46.8519 19.1162 46.8499 19.062C46.8479 19.0348 46.8473 19.0077 46.8446 18.9806L46.8327 18.8992C46.8241 18.845 46.8188 18.7907 46.8075 18.7378L46.771 18.5777C46.72 18.3641 46.6517 18.1531 46.5761 17.9447C46.4999 17.7363 46.4143 17.5312 46.3314 17.3215C46.2499 17.1105 46.1591 16.9028 46.114 16.6581C46.1034 16.5965 46.0974 16.5311 46.102 16.4616C46.1054 16.3928 46.1252 16.3174 46.161 16.2499C46.1962 16.1805 46.2525 16.1242 46.3102 16.0832C46.3686 16.0396 46.4302 16.0138 46.4912 15.99C46.5217 15.9787 46.5516 15.9708 46.5821 15.9608C46.6119 15.9529 46.6424 15.947 46.6722 15.9397C46.7346 15.9284 46.7989 15.9192 46.8625 15.9185C46.9898 15.9152 47.1145 15.9331 47.2332 15.9635C47.4692 16.0283 47.6827 16.1381 47.879 16.2638C48.0759 16.3895 48.2582 16.5324 48.4293 16.6858C48.5997 16.84 48.7608 17.0027 48.9133 17.1734C48.9895 17.26 49.0638 17.3454 49.1341 17.4406C49.2024 17.5352 49.266 17.6325 49.3237 17.7323C49.5558 18.1306 49.7136 18.5784 49.7441 19.0395C49.7759 19.4999 49.6619 19.9649 49.4285 20.3499C49.6095 19.9378 49.6798 19.486 49.6141 19.0527C49.5558 18.6187 49.3807 18.2073 49.1467 17.8402C49.0287 17.6549 48.8934 17.4902 48.7409 17.3301C48.5897 17.1701 48.4299 17.0166 48.2629 16.8744C48.0958 16.7322 47.9234 16.5965 47.7397 16.4828C47.5574 16.3677 47.3631 16.2731 47.1649 16.2202C47.0661 16.1944 46.966 16.1791 46.8685 16.1811C46.8194 16.1811 46.7724 16.1877 46.724 16.1957L46.6497 16.2122C46.6265 16.2195 46.602 16.2254 46.5794 16.234C46.4899 16.2671 46.417 16.3121 46.3858 16.373C46.3513 16.4325 46.3467 16.5231 46.3613 16.6217C46.3911 16.8201 46.472 17.0318 46.5476 17.2402C46.6258 17.4499 46.7034 17.6629 46.771 17.8799C46.838 18.0975 46.901 18.3158 46.9401 18.5427L46.968 18.7133C46.9766 18.7702 46.9786 18.8284 46.9839 18.8853L46.9905 18.9713C46.9912 19.0004 46.9905 19.0289 46.9905 19.058C46.9885 19.1155 46.9932 19.1731 46.9859 19.2313C46.9699 19.4615 46.9169 19.691 46.8148 19.8981C46.7637 20.0013 46.7027 20.0985 46.6311 20.1878C46.5569 20.2745 46.4747 20.3552 46.3792 20.4147V20.4134Z" fill="#0E0E0E"/>
<path d="M18.3329 6.45576C17.9417 6.50603 17.5525 6.57152 17.1673 6.65421C16.7827 6.73888 16.4001 6.83281 16.0282 6.95784C15.6575 7.08286 15.2929 7.23566 14.97 7.44734C14.8095 7.55318 14.6603 7.67755 14.545 7.82638C14.4303 7.97456 14.356 8.15118 14.3494 8.33508V8.33045C14.3593 8.45415 14.4143 8.58711 14.5092 8.6645C14.6046 8.74454 14.7372 8.77167 14.8712 8.76108C15.0058 8.75315 15.1404 8.71346 15.2716 8.66583C15.4009 8.61688 15.5369 8.55536 15.6721 8.50508C16.2151 8.29803 16.7734 8.13861 17.335 8.00036C17.8973 7.86409 18.4661 7.75693 19.037 7.66696C19.3228 7.62132 19.6099 7.58626 19.897 7.55715C20.0408 7.54326 20.1847 7.53135 20.3293 7.52408C20.4015 7.52077 20.4738 7.51945 20.5461 7.52077C20.5825 7.52209 20.6183 7.52342 20.6542 7.52805C20.6721 7.53069 20.69 7.53334 20.7072 7.53995C20.7152 7.54326 20.7251 7.54723 20.7291 7.55583C20.7324 7.56575 20.7244 7.57369 20.7185 7.57898C20.7244 7.57303 20.7317 7.56443 20.7277 7.55583C20.7238 7.54789 20.7145 7.54458 20.7065 7.54194C20.6893 7.53665 20.6714 7.53466 20.6535 7.53334C20.6177 7.53069 20.5819 7.53069 20.5454 7.53202C20.4738 7.534 20.4015 7.53995 20.3299 7.54657C20.1867 7.5598 20.0435 7.57766 19.9009 7.59751C19.6158 7.63719 19.3314 7.68747 19.0483 7.73774C18.4814 7.84028 17.9191 7.96728 17.3615 8.10951C16.8039 8.25173 16.2516 8.41512 15.7179 8.62349C15.5833 8.67509 15.4566 8.73396 15.3167 8.7882C15.1775 8.8398 15.0316 8.88081 14.8778 8.88941C14.8009 8.89404 14.7213 8.88941 14.6438 8.86957C14.5662 8.84972 14.4899 8.81268 14.4269 8.75976C14.3646 8.70618 14.3162 8.63804 14.2837 8.56528C14.2519 8.49119 14.232 8.41776 14.2267 8.33309V8.32846C14.2353 8.11678 14.3242 7.91436 14.4515 7.75362C14.5794 7.59089 14.7392 7.46124 14.9076 7.35209C15.2478 7.13512 15.6237 6.99289 16.0016 6.87449C16.3809 6.75806 16.7675 6.6681 17.1573 6.60195C17.5472 6.5358 17.939 6.48222 18.3329 6.45509V6.45576Z" fill="#0E0E0E"/>
<path d="M17.0068 6.05886C16.3013 6.26921 15.6018 6.49545 14.9176 6.75939C14.2327 7.01935 13.557 7.30777 12.9219 7.66233C12.7654 7.75362 12.6089 7.84557 12.461 7.9481C12.3132 8.04997 12.168 8.15647 12.0374 8.27554C11.9034 8.38998 11.7954 8.51897 11.7264 8.66649C11.6575 8.81268 11.6349 8.97475 11.6608 9.13351C11.686 9.29227 11.7569 9.4464 11.8524 9.58531C11.9479 9.72423 12.0692 9.84859 12.2045 9.95443C12.3397 10.0603 12.4902 10.1482 12.6474 10.2098C12.7263 10.2402 12.8065 10.264 12.8867 10.2772C12.9643 10.2905 13.0525 10.2925 13.1393 10.2938C13.4868 10.2891 13.8375 10.2111 14.1763 10.096C14.3461 10.0384 14.5131 9.97163 14.6776 9.8982C14.8433 9.82411 14.9998 9.74275 15.1709 9.66072C15.5077 9.49799 15.8551 9.36371 16.2065 9.24265C16.5579 9.12292 16.9133 9.01708 17.2727 8.92712C18.7081 8.56462 20.1774 8.37278 21.648 8.30266C20.9174 8.3913 20.19 8.49847 19.4693 8.63871C19.1086 8.70552 18.7493 8.7796 18.3925 8.86229C18.0352 8.943 17.6798 9.0323 17.3284 9.13218C16.6262 9.33262 15.932 9.56811 15.2836 9.88894C15.1238 9.967 14.9541 10.0563 14.785 10.133C14.6139 10.2098 14.4402 10.2812 14.2618 10.3427C13.9058 10.4658 13.5305 10.5544 13.1407 10.5557C13.0432 10.5544 12.9471 10.5518 12.843 10.5339C12.7422 10.5167 12.6454 10.4869 12.5532 10.4506C12.3682 10.3778 12.1992 10.2759 12.0453 10.1549C11.8922 10.0331 11.7543 9.89159 11.6422 9.72687C11.5308 9.56282 11.4466 9.37363 11.4168 9.16923C11.3856 8.96482 11.4201 8.74785 11.5109 8.56396C11.5998 8.3794 11.7383 8.22394 11.8849 8.10289C12.1726 7.85152 12.4962 7.66035 12.8237 7.48307C13.4828 7.13578 14.175 6.87184 14.8752 6.63899C15.2259 6.52455 15.5793 6.4207 15.9347 6.32213C16.2894 6.22357 16.6468 6.13427 17.0075 6.0582L17.0068 6.05886Z" fill="#0E0E0E"/>
<path d="M15.8405 5.66196C15.3963 5.74398 14.9547 5.81807 14.5145 5.89613C14.0742 5.97418 13.6366 6.0582 13.203 6.15345C12.77 6.25069 12.3397 6.35785 11.9247 6.50471L11.7702 6.56226L11.6183 6.62576C11.5182 6.66942 11.4188 6.71573 11.3239 6.77063C11.1323 6.87647 10.9533 7.00612 10.8134 7.18473C10.9023 6.97437 11.0713 6.80371 11.2517 6.66281C11.436 6.52389 11.6376 6.40879 11.8464 6.31486C12.0539 6.21762 12.2701 6.14287 12.4862 6.07076C12.7037 6.00263 12.9238 5.9464 13.1453 5.89613C13.5882 5.79889 14.0371 5.73406 14.4866 5.69371C14.9362 5.65336 15.3883 5.63682 15.8399 5.66328L15.8405 5.66196Z" fill="#0E0E0E"/>
<path d="M21.8469 8.57256C21.0593 8.94233 20.259 9.27507 19.4534 9.59457C19.0523 9.75796 18.6458 9.90812 18.242 10.0642C18.1413 10.1039 18.0391 10.1403 17.9364 10.1754L17.6281 10.2825C17.4172 10.3546 17.2296 10.4228 17.0426 10.5094C16.674 10.6834 16.3385 10.9196 16.1064 11.2358C15.9897 11.3925 15.9002 11.5685 15.8432 11.7564C15.7868 11.9442 15.759 12.1433 15.7577 12.3451C15.7563 12.5475 15.7862 12.7512 15.8326 12.9537C15.879 13.1561 15.9473 13.3552 16.0302 13.549C16.1939 13.9393 16.42 14.3064 16.6753 14.6577C16.3537 14.3646 16.0766 14.0193 15.8551 13.635C15.639 13.2494 15.4785 12.8181 15.4474 12.3563C15.4082 11.8979 15.5296 11.411 15.7981 11.0188C15.9314 10.8223 16.0998 10.653 16.2828 10.5088C16.4671 10.3659 16.6673 10.2481 16.8735 10.1496C17.0804 10.0563 17.3019 9.98089 17.5014 9.9154L18.1147 9.71033C18.5258 9.57407 18.9349 9.43184 19.3486 9.30285C20.1735 9.03825 21.0036 8.78622 21.8463 8.57123L21.8469 8.57256Z" fill="#0E0E0E"/>
<path d="M22.3774 8.77101C22.1122 8.91654 21.8595 9.08125 21.6122 9.25324C21.3649 9.42457 21.1256 9.60714 20.8968 9.80096C20.4367 10.1846 20.0183 10.6159 19.6702 11.0929C19.3248 11.5705 19.0576 12.1036 18.9362 12.6672C18.8103 13.2295 18.8408 13.8169 19.0105 14.3646C19.1756 14.915 19.4607 15.4297 19.8114 15.8973C19.9871 16.1315 20.1774 16.3558 20.3783 16.5707C20.4791 16.6779 20.5878 16.789 20.6866 16.8916C20.7881 16.9928 20.8955 17.092 21.0062 17.1859C21.4491 17.5617 21.9451 17.8832 22.4782 18.0651C22.6108 18.112 22.746 18.1438 22.8813 18.1709C23.0172 18.1927 23.1531 18.208 23.289 18.2053C23.5602 18.204 23.8248 18.1398 24.0701 18.0267L24.639 17.7641L24.3685 18.3363L24.3559 18.3627C24.3512 18.3733 24.3459 18.3846 24.3413 18.3958C24.332 18.4183 24.3227 18.4421 24.3148 18.4659C24.2982 18.5136 24.2829 18.5625 24.271 18.6121C24.2458 18.7114 24.2306 18.8126 24.2239 18.9138C24.2107 19.1169 24.2418 19.318 24.3075 19.5078C24.3758 19.697 24.4852 19.873 24.6231 20.0297C24.761 20.1872 24.9274 20.3241 25.1071 20.4465C25.4731 20.6853 25.8888 20.8606 26.3198 20.9968C26.7521 21.1324 27.197 21.2389 27.6458 21.2978C28.0954 21.3554 28.5502 21.3706 29.0011 21.3276C29.2272 21.3091 29.4506 21.2687 29.6721 21.2211C29.8929 21.1682 30.1117 21.106 30.3252 21.0266C30.538 20.9459 30.7462 20.8526 30.9477 20.7448C31.148 20.635 31.3429 20.5139 31.5292 20.3797C31.7155 20.2454 31.8919 20.0965 32.0597 19.9384C32.2267 19.7797 32.3852 19.6097 32.5218 19.4218C32.2785 19.818 31.9575 20.1667 31.5995 20.469C31.4198 20.6198 31.2295 20.7594 31.0293 20.8844C30.8284 21.0081 30.6182 21.1172 30.4021 21.2151C30.1853 21.3104 29.9612 21.3911 29.7324 21.4559C29.503 21.5174 29.2703 21.5697 29.0342 21.6008C28.5628 21.6676 28.0828 21.6769 27.6087 21.6292C27.134 21.5829 26.6685 21.4883 26.2104 21.3613C25.7516 21.2343 25.3007 21.0517 24.8817 20.7931C24.6748 20.6595 24.4765 20.5034 24.3041 20.3155C24.1324 20.1283 23.9872 19.9067 23.8924 19.6613C23.8009 19.4152 23.7611 19.1493 23.7757 18.8893C23.783 18.759 23.8022 18.6307 23.8327 18.505C23.8473 18.4421 23.8666 18.3799 23.8878 18.3178C23.899 18.2867 23.9096 18.2562 23.9229 18.2252C23.9289 18.2099 23.9355 18.1941 23.9428 18.1782C23.9501 18.1617 23.9561 18.1484 23.968 18.1259L24.2664 18.4355C23.9647 18.5784 23.6292 18.6611 23.2957 18.6651C23.1286 18.669 22.9635 18.6525 22.8011 18.6267C22.6399 18.5963 22.4801 18.5586 22.3283 18.5036C21.7163 18.2893 21.1852 17.9341 20.7112 17.5279C20.5932 17.4254 20.4784 17.3189 20.3671 17.2064C20.257 17.0907 20.1556 16.9855 20.0501 16.8724C19.8426 16.6428 19.6477 16.4014 19.466 16.1494C19.1046 15.6446 18.8036 15.083 18.6359 14.4718C18.4688 13.8619 18.4575 13.2037 18.6173 12.5931C18.6544 12.4397 18.7062 12.2908 18.7619 12.144C18.8222 11.9991 18.8852 11.8556 18.9601 11.7193C19.1053 11.4435 19.2823 11.1868 19.4733 10.9447C19.8598 10.4631 20.3193 10.0517 20.8086 9.68983C21.3013 9.33196 21.8251 9.01907 22.3774 8.77233V8.77101Z" fill="#0E0E0E"/>
<path d="M23.5045 9.8294C23.116 10.1754 22.7553 10.5451 22.441 10.9467C22.2832 11.1465 22.1367 11.3535 22.0107 11.5698C21.8847 11.7861 21.7753 12.009 21.7011 12.2406C21.6262 12.4714 21.5844 12.7076 21.5844 12.9404C21.587 13.1726 21.6281 13.4015 21.7196 13.6138C21.8125 13.8255 21.9411 14.0233 22.0963 14.2039C22.258 14.3805 22.4337 14.5472 22.634 14.6934C22.6837 14.7305 22.7321 14.7688 22.7818 14.8052L23.0126 14.958L23.0921 15.0037L23.2519 15.0949C23.4694 15.2054 23.6928 15.3053 23.9269 15.3721C24.1596 15.4402 24.3996 15.4826 24.6423 15.5004C24.885 15.5137 25.1296 15.5004 25.3723 15.4614C25.615 15.4224 25.8537 15.3529 26.087 15.2643C26.3204 15.1756 26.5452 15.0625 26.7594 14.9289C26.9755 14.7979 27.1777 14.6438 27.366 14.4725C27.4589 14.3858 27.5497 14.2952 27.6279 14.1946C27.7068 14.0954 27.7818 13.9896 27.8156 13.8632C27.8089 13.9949 27.7479 14.1179 27.6863 14.2337C27.622 14.3494 27.5424 14.4559 27.4609 14.5598C27.2938 14.7655 27.0995 14.9487 26.8906 15.1154C26.6798 15.2795 26.4517 15.4224 26.2104 15.5421C25.9684 15.6618 25.7104 15.7518 25.4452 15.8153C25.1794 15.8788 24.9049 15.9112 24.6284 15.9079C24.3526 15.904 24.0774 15.8623 23.8102 15.7948C23.5417 15.7273 23.2877 15.6188 23.0411 15.4998L22.8621 15.3999L22.7732 15.3496L22.6877 15.2941L22.5166 15.1823C22.4616 15.1426 22.4079 15.1016 22.3535 15.0605C22.1367 14.8991 21.9338 14.708 21.7495 14.4996C21.5725 14.2833 21.4173 14.0418 21.3125 13.7746C21.2084 13.5067 21.164 13.2143 21.1773 12.9305C21.1892 12.6454 21.2595 12.3702 21.3629 12.1155C21.5691 11.6029 21.9053 11.1749 22.2713 10.7965C22.6452 10.4234 23.055 10.0927 23.5052 9.82874L23.5045 9.8294Z" fill="#0E0E0E"/>
<path d="M28.3447 23.6614C28.4249 23.6805 28.5051 23.6958 28.586 23.709C28.6669 23.7235 28.7471 23.7361 28.8287 23.7467C28.9905 23.7692 29.1523 23.787 29.3147 23.797C29.6389 23.8214 29.9638 23.8234 30.2854 23.8042C30.6069 23.7818 30.9272 23.7427 31.2395 23.6706C31.5524 23.6012 31.8594 23.5072 32.1538 23.3842C32.4508 23.2664 32.7313 23.1103 32.9992 22.9377C33.2717 22.7697 33.515 22.5593 33.7544 22.345C34.2218 21.9024 34.6216 21.3858 34.9737 20.8308C34.7197 21.4367 34.3577 22.0036 33.9002 22.4912C33.8459 22.5547 33.7815 22.6089 33.7232 22.6684C33.6622 22.726 33.6032 22.7855 33.5369 22.8371L33.3426 22.9972C33.2757 23.0481 33.2067 23.0958 33.1391 23.1454C32.8613 23.3339 32.5662 23.5006 32.2546 23.6289C31.9423 23.754 31.6187 23.8519 31.2892 23.916C30.959 23.9769 30.6248 24.0126 30.2907 24.0106C29.9565 24.0126 29.6243 23.9815 29.2975 23.926C29.1343 23.8969 28.9719 23.8625 28.8128 23.8188C28.653 23.7751 28.4952 23.7255 28.3434 23.662L28.3447 23.6614Z" fill="#0E0E0E"/>
<path d="M31.9914 25.6168C32.1671 25.3813 32.3879 25.1821 32.6206 25.0002C32.856 24.821 33.1099 24.6649 33.3764 24.5332C33.6417 24.3976 33.9248 24.3017 34.2099 24.2124L34.4273 24.1588L34.5361 24.1323C34.5725 24.1244 34.6097 24.1191 34.6461 24.1125L35.0791 24.0364C35.642 23.9465 36.1903 23.7712 36.7168 23.541C37.2419 23.3088 37.7498 23.0263 38.2245 22.6856C37.8207 23.1117 37.3301 23.453 36.8063 23.7275L36.6081 23.8287L36.4045 23.918C36.3369 23.9491 36.2679 23.9756 36.1983 24.0014L35.9894 24.0801C35.9185 24.1032 35.8476 24.1237 35.776 24.1456L35.6692 24.178L35.5605 24.2045L35.343 24.2567C35.2701 24.2732 35.1965 24.2838 35.1229 24.2971L34.6932 24.3665C34.6581 24.3725 34.6229 24.3771 34.5878 24.3844L34.4837 24.4082L34.2748 24.4538C33.999 24.5253 33.7265 24.6119 33.462 24.7204C33.1987 24.8316 32.9402 24.9572 32.6942 25.1067C32.4469 25.2549 32.2095 25.4216 31.992 25.6168H31.9914Z" fill="#0E0E0E"/>
<path d="M36.7652 25.4408C36.7851 25.29 36.854 25.1484 36.9329 25.0174C37.0165 24.8878 37.1153 24.7674 37.228 24.6615C37.4548 24.4499 37.7239 24.2891 38.0064 24.1707L38.1125 24.1271L38.2146 24.0874C38.2835 24.0622 38.3512 24.0351 38.4195 24.0086C38.5567 23.9571 38.6913 23.9008 38.8266 23.8459C38.9612 23.789 39.0964 23.7335 39.2284 23.67C39.361 23.6078 39.4929 23.543 39.6156 23.457C39.5334 23.5859 39.414 23.6852 39.2967 23.7804C39.176 23.8724 39.05 23.9564 38.9194 24.0318C38.7888 24.1065 38.6548 24.1767 38.5183 24.2388C38.45 24.2713 38.381 24.3004 38.3121 24.3295L38.208 24.3718L38.1092 24.4141C37.8453 24.5246 37.592 24.6563 37.3606 24.821C37.2459 24.9043 37.1352 24.9943 37.0344 25.0975C36.9329 25.1993 36.8395 25.3111 36.7645 25.4415L36.7652 25.4408Z" fill="#0E0E0E"/>
<path d="M45.0531 25.3085C44.4537 25.4229 43.8603 25.544 43.2715 25.6822C42.9778 25.7557 42.6841 25.8238 42.3937 25.9065C42.1026 25.9852 41.8115 26.0666 41.5245 26.1585C41.236 26.2458 40.9496 26.3411 40.6671 26.4436C40.5969 26.4674 40.5319 26.4939 40.4643 26.5237C40.3953 26.5534 40.337 26.5858 40.2534 26.6202C40.0969 26.6838 39.9378 26.7102 39.7807 26.7261C39.4657 26.7565 39.1548 26.7327 38.8504 26.6851C38.5468 26.6341 38.2491 26.562 37.9593 26.4661C38.2623 26.5045 38.5633 26.5415 38.8644 26.5554C39.0149 26.564 39.1647 26.5667 39.3132 26.5614C39.4618 26.5567 39.6096 26.5448 39.7535 26.521C39.7893 26.5151 39.8251 26.5091 39.8602 26.5005C39.896 26.4932 39.9305 26.4846 39.965 26.4747C40.034 26.4562 40.1009 26.4344 40.1626 26.4066C40.2183 26.3814 40.2925 26.3378 40.3622 26.3047C40.4324 26.2703 40.5067 26.2366 40.579 26.2088C40.8647 26.097 41.1551 25.9984 41.4469 25.9058C42.033 25.7279 42.6284 25.5824 43.2318 25.4805C43.8345 25.3786 44.4438 25.3138 45.0544 25.3078L45.0531 25.3085Z" fill="#0E0E0E"/>
<path d="M26.2568 17.3844C26.2442 17.684 26.2694 17.9804 26.3549 18.2523C26.4365 18.5235 26.5817 18.7656 26.7859 18.9323C26.9861 19.105 27.2427 19.2015 27.5119 19.2511C27.5809 19.2597 27.6472 19.2763 27.7168 19.2809L27.9256 19.2961C28.0669 19.2948 28.2081 19.3008 28.3513 19.2855C28.9222 19.2465 29.4984 19.1241 30.0692 18.9766C30.6414 18.8291 31.2096 18.6525 31.7918 18.4957C31.2746 18.8046 30.7296 19.0646 30.1621 19.275C29.5938 19.482 28.9991 19.6401 28.3772 19.6824C28.2227 19.6963 28.0642 19.6904 27.9071 19.6877L27.6697 19.6633C27.5908 19.6547 27.5112 19.6341 27.433 19.6189C27.1207 19.5462 26.8044 19.4033 26.5724 19.1592C26.3357 18.9217 26.2031 18.6029 26.1646 18.2926C26.1262 17.9811 26.1573 17.6695 26.2561 17.3844H26.2568Z" fill="#0E0E0E"/>
<path d="M17.272 4.60356C17.0015 4.36277 16.7794 4.06907 16.6057 3.74427C16.5201 3.58088 16.4492 3.40823 16.4008 3.22565C16.3531 3.04374 16.3285 2.85058 16.3431 2.65544C16.3584 2.46096 16.4134 2.26516 16.5148 2.09515C16.6156 1.92515 16.7542 1.78425 16.9074 1.67245C17.219 1.45416 17.5764 1.3384 17.9351 1.29606C17.6062 1.44424 17.2893 1.60961 17.038 1.83452C16.9153 1.9483 16.8086 2.07465 16.7343 2.21687C16.66 2.35843 16.6189 2.5152 16.607 2.67661C16.5825 3.00008 16.6687 3.33679 16.794 3.65828C16.9206 3.98175 17.087 4.29398 17.2714 4.60356H17.272Z" fill="#0E0E0E"/>
<path d="M18.0929 4.888C18.0312 4.66574 18.008 4.4362 17.9994 4.20534C17.9927 3.97447 18.0086 3.74229 18.0451 3.51142C18.118 3.05102 18.2805 2.5926 18.553 2.19239C18.8195 1.78954 19.2101 1.46144 19.6503 1.2696C20.0919 1.07909 20.5719 1.01955 21.0261 1.07777C20.5872 1.21139 20.1761 1.36552 19.8201 1.59175C19.4653 1.81798 19.1676 2.10706 18.9369 2.4517C18.7035 2.7937 18.5305 3.18332 18.3992 3.59477C18.2666 4.00689 18.1698 4.43752 18.0929 4.88734V4.888Z" fill="#0E0E0E"/>
<path d="M19.1948 5.39736C19.2101 5.05867 19.2671 4.72263 19.3486 4.39122C19.4348 4.06179 19.5469 3.73369 19.7219 3.43006C19.8081 3.27791 19.9096 3.13172 20.0342 3.00141C20.1575 2.87109 20.3034 2.75533 20.4712 2.6733C20.6382 2.59128 20.8272 2.54696 21.0135 2.54696C21.1965 2.54629 21.3908 2.57672 21.5652 2.6647C21.7389 2.75268 21.8808 2.89358 21.9822 3.04903C22.0823 3.20647 22.1493 3.37581 22.197 3.54648C22.2448 3.71781 22.2706 3.89112 22.2879 4.06377C22.3071 4.23643 22.3097 4.40908 22.3064 4.58041C22.3018 4.92372 22.264 5.26307 22.2103 5.59779C22.1526 5.93251 22.0817 6.26458 21.9802 6.58739C22.024 6.25201 22.0598 5.9173 22.081 5.58258C22.1042 5.24786 22.1128 4.9138 22.0996 4.58239C22.0823 4.2523 22.0518 3.92089 21.9557 3.61594C21.9079 3.46379 21.8496 3.31694 21.7654 3.19059C21.6812 3.06557 21.5725 2.96304 21.4438 2.89954C21.3165 2.83405 21.1693 2.80626 21.0148 2.80494C20.8623 2.80229 20.7145 2.83868 20.5766 2.89954C20.2974 3.02257 20.076 3.26733 19.8976 3.53656C19.8075 3.67217 19.7319 3.81836 19.6609 3.96786C19.59 4.11736 19.5283 4.27149 19.472 4.42892C19.3579 4.74313 19.2677 5.06727 19.1948 5.39736Z" fill="#0E0E0E"/>
<path d="M23.0039 1.37412C23.1273 1.39462 23.2413 1.45747 23.3454 1.53288C23.4482 1.61027 23.5377 1.70619 23.6139 1.81203C23.7671 2.02437 23.8586 2.27442 23.9123 2.52579C24.025 3.03117 23.9733 3.54913 23.8984 4.02673C23.8208 4.51161 23.6988 4.98855 23.5357 5.45094C23.3673 5.91068 23.1651 6.36116 22.8806 6.76468C22.9867 6.28641 23.0875 5.81939 23.1843 5.35304C23.2784 4.88602 23.3653 4.42098 23.4402 3.95463C23.4621 3.8382 23.4754 3.72112 23.4939 3.60403C23.5138 3.48695 23.5204 3.37515 23.5377 3.26005C23.5463 3.2025 23.5456 3.14627 23.5503 3.08939C23.5523 3.0325 23.5602 2.97495 23.5609 2.91872C23.5582 2.80626 23.5655 2.69116 23.5529 2.58003C23.5383 2.35578 23.5006 2.1322 23.4163 1.92382C23.3938 1.87289 23.3739 1.81931 23.3447 1.77102C23.3195 1.71942 23.2864 1.67378 23.2552 1.62483C23.2208 1.57852 23.1843 1.53288 23.1425 1.49186C23.1014 1.44953 23.0563 1.40918 23.0046 1.3761L23.0039 1.37412Z" fill="#0E0E0E"/>
<path d="M23.5045 7.31571C23.7081 7.12982 23.8977 6.93601 24.0655 6.72763C24.2345 6.52058 24.385 6.30295 24.5031 6.07407C24.6204 5.84519 24.7093 5.60573 24.7464 5.36031C24.755 5.29946 24.7577 5.23727 24.765 5.17642L24.7696 5.13077C24.7709 5.11556 24.7716 5.09571 24.7729 5.07785C24.7749 5.04213 24.7762 5.00575 24.7795 4.97003C24.7908 4.82648 24.8127 4.68492 24.8399 4.54468C24.9546 3.98506 25.186 3.45056 25.5321 2.99611C25.7065 2.77054 25.912 2.56482 26.1527 2.40804C26.3927 2.25391 26.6738 2.14675 26.953 2.15667C26.6871 2.23539 26.461 2.38026 26.2734 2.56151C26.0844 2.7421 25.9259 2.95113 25.79 3.1734C25.5202 3.61925 25.3345 4.11669 25.2297 4.6234C25.2039 4.75041 25.1827 4.87808 25.1701 5.00641C25.1661 5.03816 25.1641 5.07058 25.1608 5.10233L25.1561 5.15128L25.1495 5.20685C25.1389 5.28093 25.1329 5.35568 25.1177 5.42845C25.0574 5.72083 24.9314 5.99205 24.7729 6.23217C24.6131 6.47229 24.4195 6.68265 24.2054 6.8639C23.9899 7.04317 23.7591 7.20259 23.5059 7.31571H23.5045Z" fill="#0E0E0E"/>
<path d="M24.3002 7.31571C24.7318 7.19928 25.1396 7.01671 25.5301 6.80966C25.6276 6.7574 25.723 6.70183 25.8192 6.64759L26.1003 6.47229L26.3741 6.28707L26.64 6.09061C26.8124 5.95302 26.9841 5.81543 27.1472 5.66725L27.2706 5.5581C27.311 5.5204 27.3495 5.48137 27.3892 5.443C27.4695 5.36561 27.5437 5.29086 27.6286 5.21148L27.7592 5.09174C27.8043 5.05404 27.8527 5.02096 27.8998 4.9859L27.9707 4.93365L28.0456 4.888C28.096 4.85824 28.1451 4.82582 28.1962 4.7987C28.3003 4.7471 28.403 4.69154 28.5111 4.65119C28.6172 4.60422 28.7266 4.56916 28.836 4.53278C28.8904 4.51293 28.9467 4.50169 29.0017 4.48581C29.0574 4.47192 29.1125 4.45538 29.1688 4.44348C29.2809 4.42098 29.3923 4.39386 29.505 4.37799L29.6741 4.35087L29.8431 4.33036C29.9558 4.31514 30.0692 4.30853 30.1819 4.29993C30.6348 4.27347 31.087 4.28008 31.5359 4.31581C31.9847 4.34954 32.4303 4.41106 32.8719 4.49044C33.3128 4.57313 33.751 4.67037 34.1787 4.80135C33.2969 4.65383 32.4104 4.55461 31.5246 4.52153C31.0817 4.51095 30.6388 4.50962 30.2005 4.54931C29.7636 4.58834 29.3273 4.65317 28.9142 4.78415C28.8115 4.81722 28.708 4.84964 28.6099 4.89197C28.5084 4.92835 28.4143 4.97929 28.3175 5.0256C28.1318 5.12945 27.9528 5.24521 27.801 5.39074C27.4748 5.69503 27.1327 5.99866 26.7614 6.25532C26.392 6.51595 25.9982 6.74152 25.5865 6.92476C25.1734 7.10336 24.7444 7.25485 24.2995 7.31504L24.3002 7.31571Z" fill="#0E0E0E"/>
<path d="M26.0904 4.86816C26.1752 4.58636 26.3191 4.32242 26.4968 4.08428C26.6752 3.84614 26.8959 3.63578 27.1499 3.47438C27.2779 3.39566 27.4131 3.32819 27.5543 3.27394C27.6962 3.22367 27.8421 3.1853 27.9906 3.16347C28.2877 3.12246 28.59 3.14164 28.8751 3.21507C28.5814 3.19655 28.2896 3.20779 28.0092 3.26534C27.8693 3.29776 27.732 3.33679 27.6001 3.39103C27.4688 3.44527 27.3415 3.5101 27.2215 3.58683C26.9802 3.73766 26.7667 3.9328 26.5777 4.14977C26.3907 4.36873 26.2256 4.60885 26.0904 4.86948V4.86816Z" fill="#0E0E0E"/>
<path d="M32.9097 9.97692L33.0774 9.93723L33.1609 9.91805L33.2425 9.89291C33.2969 9.87571 33.3512 9.86182 33.4043 9.84197L33.5608 9.77979C33.763 9.68784 33.9566 9.5734 34.0945 9.41266C34.1668 9.33659 34.2225 9.24795 34.2636 9.15666C34.2848 9.11102 34.2987 9.06339 34.3087 9.01774C34.3106 9.0065 34.3133 8.99459 34.314 8.98467C34.3153 8.97276 34.3153 8.97078 34.3153 8.95623C34.3153 8.93175 34.3146 8.90595 34.3126 8.88015C34.2974 8.67046 34.247 8.45944 34.1648 8.2643C33.9984 7.87401 33.7172 7.53995 33.3638 7.29851C33.0144 7.05045 32.6053 6.88242 32.1816 6.76666C31.9695 6.70911 31.7533 6.65751 31.5332 6.62709L31.2037 6.57946C31.0943 6.55895 30.9829 6.56027 30.8722 6.54969L30.6235 6.53183C30.5957 6.53051 30.5678 6.53183 30.5406 6.53183L30.2078 6.53514C30.1521 6.53381 30.0971 6.54109 30.042 6.54572L29.8763 6.56027C29.8213 6.5649 29.7656 6.56821 29.7099 6.57417L29.5454 6.60063C29.1065 6.66876 28.6722 6.78518 28.2585 6.96114C28.0516 7.04846 27.8474 7.1457 27.6525 7.26146C27.4569 7.37524 27.2659 7.50026 27.0889 7.64646C27.2348 7.46851 27.4078 7.31306 27.5901 7.17018C27.6359 7.13512 27.6816 7.09807 27.7287 7.065L27.8733 6.96776L27.9462 6.91881L28.0211 6.87449L28.1723 6.78585C28.2737 6.72829 28.3811 6.68133 28.4859 6.62841C28.592 6.5788 28.702 6.53844 28.8101 6.49346C28.8638 6.46965 28.9202 6.45245 28.9765 6.43525L29.145 6.38299C29.2563 6.34396 29.3724 6.32412 29.4871 6.29634C29.9459 6.19248 30.4213 6.15345 30.8921 6.17462C31.1288 6.17462 31.3615 6.21299 31.5955 6.24011C31.8289 6.2712 32.0597 6.32346 32.2891 6.38498C32.7432 6.51728 33.1948 6.7025 33.586 6.9962C33.9738 7.28792 34.2994 7.68879 34.4545 8.15581C34.5321 8.388 34.5785 8.63011 34.5725 8.87685C34.5719 8.90794 34.5699 8.93903 34.5672 8.97144C34.5659 8.98533 34.5626 9.01179 34.5586 9.02767C34.5553 9.04619 34.55 9.0614 34.5454 9.07794C34.5255 9.14211 34.4996 9.2023 34.4678 9.25787C34.4041 9.369 34.3266 9.47021 34.2317 9.55091C34.1867 9.59391 34.1349 9.62699 34.0865 9.66403C34.0342 9.69446 33.9838 9.7282 33.9294 9.75465C33.8744 9.77913 33.822 9.80758 33.7663 9.82742C33.7106 9.8466 33.6549 9.86711 33.5986 9.88365C33.3718 9.94847 33.1397 9.96964 32.911 9.97824L32.9097 9.97692Z" fill="#0E0E0E"/>
<path d="M28.842 5.95963C29.2212 5.8313 29.6111 5.73141 30.0042 5.65005C30.3974 5.56802 30.7959 5.50783 31.1977 5.47078C31.5995 5.43639 32.0059 5.42249 32.4117 5.45226C32.8175 5.48137 33.2259 5.54619 33.6178 5.68511C34.007 5.8227 34.3876 6.03372 34.674 6.3519C34.7111 6.39027 34.743 6.4326 34.7774 6.47296L34.8703 6.59599C34.9299 6.67934 34.9883 6.76402 35.0426 6.85133C35.1507 7.02663 35.2442 7.21053 35.3231 7.40038C35.6394 8.15978 35.6699 9.03825 35.3755 9.78641C35.5346 9.00187 35.4391 8.19352 35.1096 7.49299C35.0287 7.31769 34.9326 7.14901 34.8272 6.98694C34.7748 6.90558 34.7191 6.8262 34.6614 6.7488L34.5725 6.6337C34.542 6.59864 34.5135 6.5616 34.4804 6.52852C34.2258 6.25466 33.8909 6.0582 33.5296 5.92722C33.1676 5.79756 32.7817 5.72348 32.3912 5.68511C32.0006 5.64873 31.6048 5.64145 31.209 5.65799C30.4167 5.69106 29.625 5.79955 28.8406 5.95897L28.842 5.95963Z" fill="#0E0E0E"/>
<path d="M34.7761 5.72811C34.8981 5.73274 35.0208 5.75192 35.1414 5.78037C35.2621 5.80881 35.3815 5.84519 35.4981 5.89282C35.7302 5.98808 35.9556 6.11773 36.1492 6.29303C36.2467 6.37968 36.3369 6.47759 36.4171 6.58343C36.496 6.69059 36.5656 6.80569 36.6226 6.92741C36.736 7.1715 36.7977 7.43808 36.8163 7.70202L36.4914 7.4738C36.5192 7.4652 36.5305 7.46256 36.549 7.45793L36.5968 7.44668C36.6286 7.44007 36.6591 7.43478 36.6903 7.43081C36.7519 7.42287 36.8136 7.41824 36.8746 7.41758C36.9973 7.41559 37.1199 7.42551 37.2393 7.45065C37.4786 7.4996 37.706 7.59751 37.903 7.73245C38.1012 7.86541 38.269 8.03277 38.4102 8.21138C38.4818 8.30068 38.5441 8.39527 38.6031 8.49053C38.6621 8.58578 38.7152 8.68369 38.7623 8.78357C38.9532 9.18246 39.0686 9.60053 39.1402 10.0199C39.2098 10.44 39.2363 10.8627 39.2184 11.2834C39.0951 10.8799 38.9804 10.4816 38.8418 10.0967C38.7032 9.71232 38.5468 9.33923 38.3485 9.00187C38.1509 8.66583 37.9069 8.36617 37.6099 8.16904C37.4607 8.07246 37.3003 7.9997 37.1319 7.96265C37.0477 7.94479 36.9621 7.93222 36.8759 7.9309C36.8328 7.92958 36.7904 7.9309 36.7486 7.93487C36.7281 7.93685 36.7075 7.9395 36.6876 7.94215L36.6405 7.94942L36.3203 8.00168L36.3157 7.72121C36.3123 7.50622 36.2818 7.29454 36.2136 7.09344C36.1453 6.89235 36.0392 6.7025 35.8999 6.53117C35.7614 6.35918 35.5903 6.20571 35.4 6.07209C35.2091 5.93846 35.0009 5.82072 34.7761 5.72678V5.72811Z" fill="#0E0E0E"/>
<path d="M36.5663 9.49865C36.7155 9.6336 36.8395 9.79567 36.9469 9.96766C37.0516 10.1416 37.1405 10.3282 37.1982 10.5273C37.3202 10.9222 37.3202 11.3667 37.1809 11.7663C37.1106 11.9654 37.0099 12.1519 36.8899 12.3219C36.8262 12.404 36.7652 12.4886 36.6923 12.5621C36.6565 12.5991 36.6246 12.6401 36.5855 12.6732L36.4715 12.7764C36.1652 13.0483 35.8104 13.252 35.4391 13.4002C35.7561 13.1561 36.0657 12.9113 36.3276 12.6275C36.4582 12.486 36.5782 12.3371 36.6817 12.1797C36.7824 12.0203 36.868 11.8543 36.9296 11.679C37.0516 11.3284 37.0689 10.948 36.9973 10.5756C36.9608 10.389 36.9044 10.2045 36.8302 10.0245C36.7586 9.8433 36.6684 9.668 36.5656 9.49733L36.5663 9.49865Z" fill="#0E0E0E"/>
<path d="M36.6326 14.3938C36.927 14.4195 37.2127 14.3938 37.4799 14.3216C37.7472 14.2495 37.9911 14.1232 38.206 13.9558C38.4208 13.7878 38.6051 13.5781 38.7682 13.3486C38.934 13.119 39.0726 12.8663 39.2184 12.6084C39.178 12.9021 39.0865 13.1892 38.9466 13.4571C38.8067 13.7237 38.6157 13.973 38.3697 14.1649C38.1251 14.3567 37.8274 14.4864 37.5204 14.5261C37.2147 14.5644 36.9005 14.528 36.6326 14.3951V14.3938Z" fill="#0E0E0E"/>
<path d="M39.8815 8.63871C40.0638 8.89867 40.2183 9.17717 40.3635 9.45963C40.506 9.74341 40.6367 10.0345 40.7487 10.3328C40.9741 10.9288 41.1406 11.5513 41.2181 12.1896C41.2526 12.5091 41.2725 12.8313 41.2579 13.1534C41.2393 13.4756 41.2002 13.7971 41.1213 14.1106C41.0404 14.4235 40.9231 14.7258 40.7752 15.0109C40.6207 15.2927 40.4304 15.5527 40.213 15.7836C40.384 15.5163 40.5398 15.2444 40.6572 14.956C40.7732 14.6676 40.8588 14.3693 40.9191 14.067C41.0272 13.4591 41.0325 12.8366 40.9549 12.2214C40.9224 11.9131 40.8647 11.6075 40.7958 11.3039C40.7295 10.9996 40.6439 10.6993 40.5538 10.4003C40.4603 10.1019 40.3582 9.80559 40.2448 9.51255C40.1334 9.21818 40.0121 8.92778 39.8808 8.63937L39.8815 8.63871Z" fill="#0E0E0E"/>
<path d="M41.8706 17.5689C42.0449 17.4016 42.1855 17.2071 42.2949 17.0007C42.407 16.7957 42.4799 16.5741 42.5197 16.3491C42.527 16.2923 42.5356 16.236 42.5415 16.1791L42.5508 16.0085C42.5488 15.894 42.5462 15.7816 42.5316 15.6645C42.5071 15.4316 42.4699 15.1968 42.4268 14.962C42.3884 14.7265 42.3446 14.4897 42.3075 14.2509C42.2737 14.0114 42.2385 13.7706 42.2266 13.5265C42.2206 13.4041 42.216 13.2818 42.2206 13.1581C42.2266 13.035 42.2372 12.9113 42.2598 12.789C42.2843 12.6672 42.3174 12.5455 42.3731 12.4337C42.4282 12.3219 42.5031 12.2194 42.5992 12.1447C42.4494 12.3378 42.3983 12.5733 42.389 12.8048C42.3764 13.0377 42.4016 13.2725 42.4328 13.506C42.4686 13.7395 42.5077 13.9744 42.5555 14.2085L42.6881 14.917C42.7259 15.1558 42.7637 15.3966 42.7809 15.6427C42.7895 15.765 42.7869 15.8927 42.7822 16.0184L42.761 16.2069C42.7491 16.2691 42.7345 16.3306 42.7212 16.3921C42.6589 16.6369 42.5502 16.8678 42.4043 17.0689C42.2571 17.268 42.0814 17.4466 41.8699 17.5689H41.8706Z" fill="#0E0E0E"/>
<path d="M43.8597 18.6273C43.7516 18.245 43.7078 17.8474 43.7052 17.4472C43.7072 17.3473 43.7052 17.2468 43.7158 17.1463L43.7284 16.9954L43.7496 16.8453C43.7609 16.7447 43.7894 16.6455 43.8099 16.5456C43.8232 16.496 43.8398 16.447 43.855 16.3981L43.8782 16.3247C43.8862 16.3002 43.8974 16.2764 43.9074 16.2526L43.9691 16.109L44.0466 15.9708L44.0858 15.9033L44.1222 15.8438C44.1454 15.8034 44.1726 15.765 44.1932 15.724C44.284 15.5613 44.351 15.386 44.4073 15.2061C44.5127 14.8442 44.5512 14.4566 44.522 14.0623C44.5956 14.2476 44.6288 14.4473 44.6453 14.6478C44.6579 14.8489 44.648 15.0533 44.6089 15.2537C44.5718 15.4548 44.5081 15.6526 44.4173 15.8385C44.3967 15.8861 44.3682 15.9291 44.3437 15.9747L44.3052 16.0422L44.2721 16.1031L44.2064 16.2221L44.1534 16.3498C44.1448 16.371 44.1342 16.3915 44.1269 16.4133L44.105 16.4801C44.0911 16.5244 44.0758 16.5688 44.0619 16.6131C44.04 16.705 44.0122 16.7943 43.9962 16.8883C43.9551 17.0735 43.9346 17.2647 43.9107 17.4558C43.8749 17.8402 43.8603 18.2298 43.859 18.6254L43.8597 18.6273Z" fill="#0E0E0E"/>
<path d="M28.4242 9.20296C28.8426 9.12888 29.2888 9.21553 29.6588 9.45632C29.7496 9.5185 29.8385 9.58663 29.9187 9.66535C29.997 9.74605 30.0725 9.83073 30.1362 9.92863C30.1998 10.0259 30.2555 10.1337 30.29 10.2541C30.3252 10.3732 30.3391 10.5041 30.3285 10.6338C30.3092 10.8944 30.1879 11.1418 30.0487 11.3323L29.9452 11.4739C29.9094 11.5209 29.8697 11.5632 29.8305 11.6075C29.7543 11.6981 29.6668 11.7769 29.5799 11.8576C29.3989 12.0104 29.2026 12.148 28.9878 12.2551C28.9348 12.2829 28.8784 12.3047 28.824 12.3299C28.7697 12.355 28.7133 12.3775 28.655 12.396C28.5409 12.437 28.4222 12.4661 28.3022 12.4946C28.0602 12.5409 27.8063 12.5588 27.5378 12.5144C27.4708 12.5032 27.4012 12.4847 27.3342 12.4661L27.2295 12.4251C27.195 12.4112 27.1612 12.398 27.1254 12.3762C27.0902 12.3563 27.0557 12.3352 27.0213 12.314C26.9888 12.2935 26.9709 12.275 26.945 12.2551C26.8973 12.2161 26.8495 12.1771 26.8044 12.1321L26.7368 12.0666C26.7149 12.0434 26.6944 12.0183 26.6732 11.9945C26.6526 11.9694 26.6314 11.9469 26.6115 11.9204L26.5545 11.8404C26.5154 11.7894 26.4855 11.7272 26.4537 11.6704C26.4385 11.6406 26.4265 11.6088 26.4133 11.5784C26.4 11.548 26.3867 11.5176 26.3781 11.4845L26.3496 11.3879C26.3423 11.3555 26.337 11.3217 26.331 11.2887L26.3231 11.2397L26.3198 11.1894C26.3178 11.1564 26.3145 11.1233 26.3151 11.0902C26.3165 10.9579 26.339 10.8309 26.3748 10.7112C26.4524 10.4737 26.5837 10.2733 26.7368 10.1072C26.8887 9.93855 27.061 9.79964 27.2427 9.68057C27.6061 9.44243 28.0072 9.27904 28.4249 9.20296H28.4242ZM28.4242 9.20296C28.0065 9.28036 27.614 9.48212 27.3097 9.76656C27.1565 9.90746 27.0259 10.0709 26.9304 10.2468C26.833 10.4221 26.7766 10.612 26.766 10.7892C26.764 10.8785 26.772 10.9639 26.7925 11.0426C26.8164 11.1213 26.8469 11.1947 26.8906 11.2609C26.9735 11.3952 27.1008 11.505 27.244 11.6022C27.2785 11.6274 27.3176 11.6499 27.3561 11.6717L27.3846 11.6882C27.3932 11.6928 27.4058 11.7021 27.4105 11.7021C27.4231 11.7061 27.435 11.71 27.4469 11.7153C27.4569 11.7213 27.4734 11.7239 27.4894 11.7272C27.5046 11.7306 27.5199 11.7345 27.5351 11.7392C27.5722 11.7411 27.6054 11.7497 27.6432 11.753C27.7963 11.7636 27.9714 11.7517 28.1458 11.7147C28.2333 11.6955 28.3215 11.6776 28.4077 11.6479C28.4295 11.6413 28.4514 11.6346 28.4733 11.6287C28.4952 11.6214 28.5164 11.6135 28.5383 11.6055C28.5814 11.589 28.6258 11.5764 28.6676 11.5579C28.84 11.4904 29.0051 11.4031 29.1688 11.3085C29.2451 11.2543 29.3306 11.2093 29.4042 11.1484C29.4413 11.1187 29.4818 11.0922 29.5189 11.0618L29.6283 10.9672C29.7046 10.9037 29.7609 10.8455 29.8159 10.7773C29.8703 10.7105 29.9101 10.6371 29.9393 10.559C29.997 10.4036 29.993 10.217 29.9253 10.0345C29.8584 9.85123 29.7423 9.67858 29.5925 9.53967C29.2915 9.25853 28.8433 9.12623 28.4242 9.20098V9.20296Z" fill="#0E0E0E"/>
<path d="M56.6562 29.2775C56.7411 29.4217 56.7835 29.5877 56.8107 29.7525C56.8167 29.7941 56.8246 29.8351 56.8286 29.8768L56.8365 30.0025C56.8452 30.0865 56.8399 30.1705 56.8392 30.2545C56.8405 30.3392 56.8293 30.4226 56.8213 30.5059L56.8087 30.6316C56.8034 30.6733 56.7941 30.7143 56.7875 30.7559C56.7716 30.8386 56.7583 30.922 56.7404 31.004L56.6768 31.2481C56.4958 31.8984 56.2047 32.5109 55.8732 33.0957L55.7498 33.3159L55.6159 33.5296L55.4813 33.7433L55.4137 33.8498C55.3911 33.8855 55.3706 33.9206 55.3401 33.9589C55.228 34.1111 55.0835 34.2301 54.9317 34.3247C54.7792 34.42 54.6187 34.4941 54.4563 34.5569C54.13 34.68 53.7946 34.7587 53.4591 34.8182C53.1229 34.8784 52.7854 34.9161 52.4486 34.9446C51.7736 34.9995 51.0987 35.0061 50.4263 34.9962C49.7534 34.9849 49.0824 34.9525 48.412 34.9075C47.7424 34.8632 47.074 34.8023 46.407 34.7322C45.74 34.6628 45.0743 34.5834 44.41 34.498C43.7456 34.4127 43.0819 34.3208 42.4196 34.2229C41.7572 34.125 41.0961 34.0178 40.4358 33.9086L39.9405 33.8253L38.206 33.5025L37.96 33.4489L36.4821 33.1254C33.8664 32.4997 31.2992 31.6734 28.8015 30.6746L28.3334 30.4861L28.0994 30.3915C28.0218 30.359 27.9455 30.324 27.8686 30.2902L26.4842 29.679L26.0294 29.4614L24.8929 28.915C24.818 28.8773 24.7437 28.8376 24.6688 28.7992L23.3275 28.1007L22.4483 27.6072L22.0094 27.3598L21.7906 27.2354L21.5751 27.1045L20.2855 26.3146L19.8638 26.0381L18.8116 25.3462C18.742 25.2992 18.6743 25.2496 18.6054 25.2013L17.3701 24.3301L16.5666 23.7229L15.9658 23.2645C15.8995 23.2135 15.8352 23.1586 15.7702 23.1064L14.6 22.1518L14.2168 21.8257C14.0888 21.7179 13.9628 21.6061 13.8362 21.4956C13.7095 21.3858 13.5836 21.274 13.4589 21.1616C12.959 20.7137 12.4664 20.256 11.9929 19.7764C11.5195 19.2974 11.0607 18.8026 10.6331 18.2774C10.2074 17.7515 9.80759 17.1972 9.49199 16.5833L9.38325 16.3465L9.35606 16.287L9.3428 16.2572C9.33816 16.2473 9.33153 16.2288 9.32822 16.2182L9.307 16.1514L9.2891 16.0872C9.24335 15.9159 9.21152 15.7478 9.18434 15.5792C9.12864 15.2425 9.10146 14.9058 9.07693 14.5697C9.03582 13.8976 9.03449 13.2262 9.06433 12.5581C9.07295 12.2234 9.09947 11.89 9.1187 11.5566C9.14323 11.2232 9.17307 10.8911 9.20224 10.5584L9.31562 9.56348L9.44756 8.57189L9.37529 9.56877L9.32225 10.5663C9.31098 10.899 9.29639 11.2311 9.2891 11.5639C9.28645 11.8966 9.2765 12.2287 9.28446 12.5607C9.28446 12.8928 9.29971 13.2242 9.31098 13.555L9.34081 14.0504C9.35275 14.2151 9.36999 14.3792 9.38391 14.5439C9.4217 14.8707 9.46149 15.1981 9.52779 15.517C9.56028 15.6757 9.59741 15.8345 9.64382 15.9833L9.66172 16.0389L9.68029 16.0905C9.6836 16.0991 9.68427 16.1004 9.68824 16.1097L9.70217 16.1361L9.72935 16.1897L9.83809 16.4034C10.1544 16.9657 10.5528 17.4889 10.9825 17.9844C11.4135 18.4805 11.8782 18.9502 12.3583 19.4053C12.8396 19.8584 13.3329 20.3003 13.8375 20.7309C13.9628 20.8387 14.0895 20.9459 14.2174 21.0517C14.3454 21.1576 14.4714 21.2647 14.6007 21.3686L14.9872 21.6822L16.1661 22.599C16.2317 22.6493 16.296 22.7015 16.363 22.7505L16.967 23.1891L17.77 23.7765L19.0012 24.6199C19.0695 24.6662 19.1378 24.7145 19.2068 24.7595L20.255 25.4282L20.6747 25.6948L21.9577 26.4555L22.1718 26.5819L22.39 26.7016L23.6935 27.426L25.0196 28.1086C25.0932 28.1463 25.1668 28.1854 25.241 28.2217L25.4658 28.3282L26.3635 28.7549L26.8131 28.9672L28.1796 29.5639C28.2558 29.597 28.3314 29.6307 28.4077 29.6625L28.6384 29.7544L29.0999 29.939C31.5557 30.9379 34.0859 31.7548 36.6598 32.3971L38.3552 32.7927L40.0631 33.1354L40.5551 33.2247C41.2108 33.3437 41.8672 33.4562 42.5243 33.5673C43.1807 33.6791 43.8384 33.7856 44.4968 33.8862C45.813 34.0873 47.1337 34.2573 48.4558 34.3909C49.1169 34.457 49.7792 34.51 50.4416 34.5424C51.104 34.5741 51.7663 34.586 52.4247 34.5576C52.7536 34.5437 53.0825 34.5199 53.406 34.4756C53.7296 34.4319 54.0505 34.3697 54.3535 34.2685C54.5047 34.2176 54.6505 34.1567 54.7851 34.08C54.9197 34.0039 55.0404 33.9106 55.1306 33.7975C55.1531 33.7717 55.177 33.736 55.2002 33.7023L55.2705 33.6004L55.5542 33.1929L55.6855 32.9832C56.0396 32.4262 56.3539 31.8388 56.5634 31.213L56.6403 30.9775C56.6628 30.8982 56.6801 30.8175 56.7006 30.7374C56.7099 30.6971 56.7212 30.6574 56.7291 30.617L56.749 30.4953C56.7623 30.4139 56.7775 30.3326 56.7815 30.2499C56.7875 30.1679 56.7974 30.0852 56.7941 30.0025V29.8781C56.7915 29.8371 56.7862 29.7961 56.7828 29.7544C56.7656 29.5904 56.7338 29.425 56.6575 29.2755L56.6562 29.2775Z" fill="#0E0E0E"/>
<path d="M30.1017 14.7576C29.9817 14.5776 29.8458 14.4096 29.6979 14.2542C29.5501 14.0987 29.3923 13.9545 29.2199 13.8302C28.8784 13.5814 28.4859 13.4008 28.0768 13.3651C28.0264 13.3585 27.9747 13.3585 27.9243 13.3552L27.7566 13.3446C27.6432 13.342 27.5311 13.3175 27.4184 13.3003C27.3621 13.2904 27.3077 13.2725 27.252 13.2586L27.1691 13.2361C27.1413 13.2282 27.1154 13.2169 27.0882 13.207C27.0345 13.1865 26.9802 13.1673 26.9271 13.1455L26.772 13.0694C26.5691 12.9609 26.3781 12.8286 26.2117 12.6725C26.0453 12.5171 25.8921 12.3484 25.7569 12.1698C25.6216 11.9905 25.4969 11.806 25.3829 11.6168C25.2689 11.4269 25.1628 11.2384 25.06 11.0426C24.8578 10.6556 24.6708 10.2779 24.4334 9.93723C24.1987 9.5959 23.9282 9.28367 23.6146 9.01444L23.4972 8.91323C23.4588 8.87883 23.415 8.85039 23.3739 8.81863L23.1869 8.67972L23.1213 8.63738C23.0338 8.58115 22.9476 8.5236 22.8587 8.4687L22.5849 8.31589L22.5166 8.27753L22.4463 8.24247L22.3051 8.17301C22.2103 8.12737 22.1181 8.07775 22.02 8.03939L21.4259 7.79066C21.3245 7.747 21.221 7.70798 21.1216 7.66101L20.8232 7.52143C20.7231 7.47579 20.6256 7.42684 20.5282 7.37723L20.2364 7.22839C19.8519 7.02399 19.4726 6.81429 19.094 6.60856L18.8096 6.45443L18.5245 6.30494C18.3355 6.20174 18.1439 6.10781 17.9523 6.01255C17.1845 5.6355 16.3889 5.31732 15.5554 5.12019C14.7246 4.91446 13.8634 4.83111 12.9961 4.83376C13.8567 4.72858 14.7379 4.74975 15.6018 4.89726C15.7112 4.90983 15.8167 4.93894 15.9241 4.96143L16.245 5.03287C16.4578 5.08645 16.6667 5.15194 16.8788 5.21081C17.0857 5.28226 17.2939 5.35304 17.4981 5.43176L17.8024 5.55546L17.9549 5.61698L18.1048 5.68379C18.9077 6.0324 19.6682 6.45576 20.438 6.83744C20.8232 7.02465 21.2058 7.21714 21.5996 7.37193L22.2043 7.61934C22.3078 7.65902 22.4072 7.71062 22.508 7.75825L22.6585 7.83035L22.7334 7.86674L22.8064 7.90775L23.0981 8.07378C23.1929 8.13332 23.2864 8.19682 23.3799 8.25768L23.4502 8.30399L23.5178 8.35492L23.6524 8.45679C23.6968 8.49185 23.7432 8.52294 23.7857 8.56065L23.9136 8.67178C24.2524 8.97012 24.5541 9.31476 24.7988 9.69247C25.0461 10.0689 25.2331 10.4737 25.4214 10.8561C25.613 11.2351 25.8119 11.6135 26.0479 11.9541C26.1659 12.1255 26.2986 12.2829 26.4424 12.4284C26.5856 12.5746 26.7488 12.6963 26.9198 12.8035L27.0518 12.8783C27.0975 12.9001 27.1439 12.9193 27.1903 12.9404C27.2135 12.9504 27.2361 12.9623 27.2606 12.9702L27.3329 12.994C27.3813 13.0092 27.429 13.0284 27.4788 13.0397C27.5789 13.0608 27.6777 13.0886 27.7811 13.0972L27.9369 13.1164C27.9939 13.123 28.051 13.127 28.1066 13.1382C28.5595 13.213 28.9686 13.4379 29.2994 13.7276C29.631 14.0193 29.9028 14.3693 30.1011 14.7543L30.1017 14.7576Z" fill="#0E0E0E"/>
<path d="M9.69554 15.2345C9.58879 14.7391 9.36932 13.4875 9.60868 12.4489C9.99788 11.4269 10.8287 10.9784 12.5638 12.74L10.8307 10.6159C10.4408 10.1383 10.1179 9.60913 9.87058 9.04487L9.2155 7.54789C9.2155 7.54789 8.88664 11.3773 8.98344 14.0637C8.94432 14.4004 9.28578 16.2069 9.38126 16.4451C10.0443 18.0988 12.829 19.951 12.829 19.951C10.9321 18.3859 10.0788 16.5608 9.69487 15.2352L9.69554 15.2345Z" fill="#0E0E0E"/>
<path d="M32.9528 11.9131C32.7558 11.839 32.5722 11.7299 32.3965 11.6115C32.3514 11.583 32.3096 11.5506 32.2665 11.5195C32.2234 11.4884 32.181 11.456 32.1405 11.4223L32.0166 11.3217L31.8965 11.2166C31.5816 10.9308 31.2965 10.6113 31.0459 10.2673C30.9212 10.0953 30.7966 9.92135 30.6878 9.73878C30.5692 9.54694 30.483 9.40406 30.3537 9.26978C30.2284 9.13748 30.0759 9.03097 29.9114 8.94233C29.869 8.92183 29.8299 8.89603 29.7854 8.87883L29.6542 8.8226C29.5633 8.79085 29.4738 8.75579 29.3783 8.73198C29.2855 8.70287 29.1887 8.68236 29.0926 8.65921C28.9944 8.64135 28.8976 8.62018 28.7975 8.60629C28.5999 8.57256 28.3971 8.55337 28.1942 8.53353C27.7864 8.49648 27.372 8.47928 26.955 8.44885C26.7461 8.43364 26.5366 8.42107 26.3264 8.39726C26.1169 8.37411 25.906 8.345 25.6965 8.30597C25.4877 8.26297 25.2795 8.21005 25.0799 8.13266C24.881 8.05526 24.688 7.95405 24.5322 7.81183C24.7172 7.91172 24.9161 7.97059 25.1164 8.00962C25.3173 8.04799 25.5202 8.0718 25.725 8.0804C25.9299 8.09164 26.1354 8.09694 26.3417 8.09429C26.5485 8.09231 26.7554 8.09231 26.9636 8.08768C27.38 8.07775 27.7997 8.07577 28.2247 8.09561C28.649 8.11943 29.08 8.16375 29.507 8.28745C29.9307 8.40586 30.3603 8.62151 30.6759 8.97276C30.7163 9.01444 30.7488 9.06405 30.786 9.10969C30.8032 9.13351 30.8224 9.15534 30.8383 9.17981L30.8834 9.25456C30.9484 9.35842 30.9915 9.44507 31.0406 9.53438C31.089 9.62434 31.1367 9.7143 31.1891 9.80162C31.2408 9.88894 31.2892 9.97957 31.3442 10.0656C31.5591 10.4122 31.7931 10.7476 32.059 11.0591C32.1883 11.2192 32.3308 11.3661 32.4767 11.5123C32.5503 11.5844 32.6265 11.6545 32.7054 11.7213C32.7837 11.7894 32.8659 11.8536 32.9521 11.9125L32.9528 11.9131Z" fill="#0E0E0E"/>
<path d="M38.3896 24.0186C38.3896 24.0186 39.4505 23.6217 38.9201 23.3571C38.3896 23.0925 39.4505 23.2248 39.4505 23.2248L39.5387 23.5555C39.5387 23.5555 38.7875 24.0847 38.3896 24.0186Z" fill="#0E0E0E"/>
<path d="M38.6217 24.1839C38.6217 24.1839 39.7488 23.6547 40.5445 24.0516C41.3401 24.4485 39.6162 23.1917 39.6162 23.1917L38.6217 24.1839Z" fill="#0E0E0E"/>
<path d="M19.9573 6.95188C19.0954 6.09193 17.5591 6.55498 17.5591 6.55498C17.5591 6.55498 18.9628 6.35653 19.9573 7.08418V6.95188Z" fill="#0E0E0E"/>
<path d="M10.7411 13.3023C10.6954 13.4266 10.6642 13.5556 10.6397 13.6846C10.6145 13.8136 10.5966 13.9439 10.5867 14.0742C10.5668 14.3349 10.5707 14.5968 10.6065 14.8535C10.6397 15.1102 10.698 15.3635 10.7829 15.6069C10.8691 15.849 10.9672 16.0905 11.1025 16.3015C11.3836 16.7341 11.7098 17.1509 12.0473 17.5524C12.3841 17.9553 12.7336 18.3495 13.0982 18.7292C13.4583 19.1122 13.8315 19.484 14.2161 19.8425C14.598 20.205 14.9972 20.5477 15.4029 20.8824C16.2204 21.5446 17.087 22.1492 18.0358 22.6301C17.0307 22.2762 16.1018 21.7199 15.2438 21.0868C14.8122 20.7719 14.4031 20.4273 14.0033 20.074C13.6068 19.7162 13.2262 19.3424 12.8575 18.9561C12.4929 18.5665 12.1388 18.1669 11.806 17.7495C11.6402 17.5398 11.4778 17.3282 11.322 17.1099C11.1655 16.8922 11.0176 16.6686 10.883 16.4318C10.8161 16.3134 10.7551 16.1818 10.7073 16.0574C10.6589 15.9304 10.6138 15.8014 10.5794 15.6698C10.5078 15.4078 10.4627 15.1386 10.4487 14.868C10.4355 14.5982 10.4514 14.3269 10.4991 14.063C10.5469 13.7997 10.6231 13.5398 10.7431 13.3029L10.7411 13.3023Z" fill="#0E0E0E"/>
<path d="M13.3389 17.3725C13.63 17.7079 13.935 18.0234 14.2486 18.329C14.5635 18.6333 14.8858 18.9277 15.2232 19.2048C15.5607 19.4807 15.9029 19.7539 16.2629 20.0033C16.4392 20.1336 16.6236 20.2527 16.8052 20.377C16.8941 20.4432 16.9896 20.4974 17.0824 20.5583C17.1752 20.6185 17.268 20.6793 17.3595 20.7428C17.2548 20.7051 17.1513 20.6641 17.0479 20.6231C16.9445 20.5814 16.8404 20.5397 16.7409 20.4901L16.4412 20.3406C16.3398 20.293 16.247 20.2315 16.1495 20.1766C15.7616 19.9543 15.3976 19.6917 15.0528 19.4079C14.7067 19.1248 14.3898 18.8066 14.0974 18.4699C13.807 18.1319 13.5391 17.77 13.3382 17.3725H13.3389Z" fill="#0E0E0E"/>
<path d="M18.6757 7.75693C18.6757 7.75693 20.8192 7.54723 22.742 8.34103C22.742 8.34103 21.3716 6.97371 18.6757 7.75693Z" fill="#0E0E0E"/>
<path d="M19.0291 6.48883C17.9682 5.95963 15.4487 7.08418 15.4487 7.08418C15.4487 7.08418 18.366 6.22423 19.0291 6.55498C19.6921 6.88573 19.0291 6.48883 19.0291 6.48883Z" fill="#0E0E0E"/>
<path d="M15.5813 8.53948C15.5813 8.53948 19.6258 6.81958 21.1508 7.67953C21.1508 7.67953 17.8575 7.5254 15.5594 8.66053L15.5813 8.53948Z" fill="#0E0E0E"/>
<path d="M20.9519 9.73018C20.9519 9.73018 22.8083 8.40718 23.7366 9.13483C24.6648 9.86248 23.3388 8.40718 23.3388 8.40718H22.8747C22.8747 8.40718 21.0182 9.39943 20.9519 9.73018Z" fill="#0E0E0E"/>
<path d="M20.0568 10.3586C20.0568 10.3586 21.9796 8.17566 22.9741 8.37411C23.9687 8.57255 22.1122 8.95821 22.1122 8.95821L20.0568 10.3586Z" fill="#0E0E0E"/>
<path d="M39.9809 26.9292C39.9809 26.9292 40.5776 26.863 40.9092 26.5984C41.2407 26.3338 42.8651 25.7715 42.8651 25.7715L41.6106 26.0031L39.7157 26.7307L39.9809 26.9292Z" fill="#0E0E0E"/>
<path d="M22.2448 5.13276C22.2448 5.13276 21.8469 6.98496 22.941 7.41493C22.941 7.41493 22.6406 7.36466 22.3469 7.18804C21.9312 6.93733 21.7395 6.42334 21.9305 5.97815C21.9524 5.92722 21.9789 5.87694 22.012 5.82733C22.2773 5.43043 22.2441 5.13276 22.2441 5.13276H22.2448Z" fill="#0E0E0E"/>
<path d="M22.1122 4.73586C22.1122 4.73586 22.0624 5.59581 21.9212 5.99271H22.1122L22.2448 5.26506L22.1122 4.73586Z" fill="#0E0E0E"/>
<path d="M21.8549 6.28641L22.1122 4.80201L22.1864 5.00046L21.8549 6.28641Z" fill="#0E0E0E"/>
<path d="M22.3111 4.53741C22.3111 4.53741 22.0711 6.51397 22.39 6.91484C22.39 6.91484 22.1122 6.98496 22.1122 6.52191C22.1122 6.05886 22.2448 5.00046 22.2448 5.00046L22.3111 4.53741Z" fill="#0E0E0E"/>
<path d="M24.1344 7.34878C24.1344 7.34878 25.6594 7.48108 26.9192 6.48883C28.1789 5.49658 28.1789 4.96738 29.5713 4.63663C29.5713 4.63663 28.4441 4.57048 27.5159 5.43043C26.5876 6.29038 25.7257 6.95188 24.1344 7.34878Z" fill="#0E0E0E"/>
<path d="M22.7089 8.57255C21.2834 8.14258 18.1671 8.87023 18.1671 8.87023C18.1671 8.87023 20.6866 7.89981 21.9796 7.88923C23.2725 7.87798 22.7089 8.57255 22.7089 8.57255Z" fill="#0E0E0E"/>
<path d="M19.2943 15.0883C19.2943 15.0883 22.079 18.8589 24.9301 17.4036C24.9301 17.4036 24.3002 18.3627 23.6869 18.3793C23.0736 18.3958 22.2779 18.5943 21.1508 17.6682C20.0236 16.7421 19.2943 15.0883 19.2943 15.0883Z" fill="#0E0E0E"/>
<path d="M13.559 7.31571C13.559 7.31571 11.7025 8.24181 12.1004 9.10176C12.3742 9.69314 12.9623 9.9617 13.2938 9.9617C14.421 9.9617 17.0731 8.90331 17.9351 8.77101C17.9351 8.77101 14.6365 9.87902 14.2963 10.1853C13.9562 10.4916 12.6467 10.3758 12.6467 10.3758L11.6356 9.63162L11.503 8.83782L11.9008 8.17632L13.5584 7.31637L13.559 7.31571Z" fill="#0E0E0E"/>
<path d="M15.946 6.98496C15.946 6.98496 14.4873 7.84491 14.7525 8.24181C15.0177 8.63871 16.9902 8.02682 16.9902 8.02682L16.1117 8.41578L15.0177 8.83782L14.5788 8.79217L14.3547 8.57322L14.2884 8.24247L14.4621 7.833L15.0177 7.31637L15.946 6.98562V6.98496Z" fill="#0E0E0E"/>
<path d="M15.6184 7.19399C15.6184 7.19399 16.1117 6.91484 16.493 6.8176L15.946 6.91881L15.6184 7.19399Z" fill="#0E0E0E"/>
<path d="M20.0236 10.5901C20.1231 10.6232 22.7089 8.04336 24.4328 9.89555L23.9024 8.83716L22.7089 8.57255L21.3828 9.23405L20.0236 10.5901Z" fill="#0E0E0E"/>
<path d="M19.1285 11.417C19.1285 11.417 19.8592 9.53636 22.4523 8.4859C25.0448 7.43478 21.0427 9.66601 21.0427 9.66601L19.1285 11.4177V11.417Z" fill="#0E0E0E"/>
<path d="M43.6939 27.5907C43.6939 27.5907 46.346 27.8553 47.6721 27.1938C48.9982 26.5323 49.8601 26.5984 49.8601 26.5984L51.6503 27.1276C51.6503 27.1276 49.2806 26.3067 47.6721 27.5907C47.3406 27.8553 48.534 28.2522 48.534 28.2522C48.534 28.2522 43.5613 27.9876 43.6939 27.5907Z" fill="#0E0E0E"/>
<path d="M31.4278 25.54C31.4278 25.54 32.8865 24.4816 34.2788 24.217C34.2788 24.217 31.9582 25.1431 32.4223 25.8046L31.4278 25.54Z" fill="#0E0E0E"/>
<path d="M21.4823 1.13069C21.5632 1.07644 21.6474 1.05263 21.7309 1.0394C21.8151 1.02683 21.8993 1.02815 21.9829 1.04204C22.0664 1.05594 22.1486 1.08306 22.2262 1.12804C22.3011 1.17302 22.3774 1.23586 22.4105 1.32914C22.3137 1.32715 22.2395 1.33046 22.1626 1.32649C22.087 1.32252 22.0127 1.31591 21.9384 1.30334C21.8642 1.29011 21.7893 1.27225 21.7137 1.24645C21.6381 1.21933 21.5618 1.18691 21.4823 1.13135V1.13069Z" fill="#0E0E0E"/>
<path d="M19.891 18.5281C19.891 18.5281 21.6812 19.9173 23.0736 19.5204C23.0736 19.5204 22.6757 20.5788 23.604 21.6372C23.604 21.6372 20.6203 19.785 19.891 18.5281Z" fill="#0E0E0E"/>
<path d="M36.7652 5.72811C36.7652 5.72811 37.4945 6.45576 37.2956 6.72036C37.2956 6.72036 38.0913 6.38961 38.7543 7.05111L38.4891 6.72036L36.7652 5.72811Z" fill="#0E0E0E"/>
<path d="M29.2729 24.7131C29.2729 24.7131 30.599 25.2423 31.5272 24.8454C32.4555 24.4485 34.4446 24.0516 35.0413 24.0516C35.0413 24.0516 32.1903 24.9116 32.124 25.2423C32.0577 25.5731 31.3946 25.8377 31.3946 25.8377L29.2729 24.7131Z" fill="#0E0E0E"/>
<path d="M36.9641 22.5302C36.9641 22.5302 37.4945 23.1255 36.6326 23.5886C36.6326 23.5886 37.8261 23.1255 37.8924 22.9271C37.9587 22.7286 36.9641 22.5302 36.9641 22.5302Z" fill="#0E0E0E"/>
<path d="M10.1776 9.39943C10.1776 9.39943 7.92325 3.01596 18.8633 0.568411C18.8633 0.568411 15.5481 0.105361 11.7025 3.41286C7.85695 6.72036 10.1557 9.49865 10.1557 9.49865" fill="#0E0E0E"/>
<path d="M54.0372 29.509C54.0372 29.509 57.6839 29.7075 55.6948 32.9488C55.6948 32.9488 57.2861 31.2289 56.9546 29.1783L54.0372 29.509Z" fill="#0E0E0E"/>
<path d="M27.2175 10.2898C27.3335 10.0775 27.5099 9.90812 27.7121 9.77384C27.9157 9.64154 28.1564 9.54893 28.4156 9.52908C28.6735 9.50593 28.946 9.57473 29.1595 9.71629C29.373 9.85917 29.5269 10.0629 29.6044 10.2898C29.3976 10.1661 29.2093 10.0583 29.0183 9.99478C28.8274 9.9326 28.6391 9.90945 28.4448 9.92532C28.2512 9.93987 28.0523 9.98684 27.8494 10.0537C27.6458 10.1198 27.441 10.2032 27.2175 10.2898Z" fill="#0E0E0E"/>
<path d="M27.7148 13.3684C27.7148 13.3684 30.4332 14.2945 31.2952 17.2713C31.2952 17.2713 31.3615 14.4268 28.5767 13.3023H27.7148L27.3833 13.2361L27.7148 13.3684Z" fill="#0E0E0E"/>
<path d="M31.5935 4.53741C31.5935 4.53741 35.1739 4.66971 36.4337 5.59581L34.1794 4.33896C34.1794 4.33896 33.6489 4.53741 32.1903 4.47126L30.7316 4.40511" fill="#0E0E0E"/>
<path d="M16.3106 4.50433C16.0965 4.40842 15.8949 4.31779 15.692 4.2351C15.4898 4.15242 15.2869 4.08031 15.0827 4.01879C14.9812 3.98373 14.8771 3.96323 14.7737 3.9328C14.669 3.91361 14.5649 3.88319 14.4574 3.86929C14.2439 3.82431 14.0265 3.81174 13.7911 3.77602C14.0019 3.67614 14.2367 3.61395 14.474 3.60999L14.5635 3.60602C14.5934 3.60469 14.6225 3.60866 14.6524 3.60999C14.712 3.61329 14.7711 3.61925 14.8307 3.62454C14.9474 3.64505 15.0661 3.66489 15.1788 3.7026C15.4062 3.77139 15.6231 3.87392 15.8167 4.00755C16.0089 4.14183 16.1853 4.30324 16.3106 4.50433Z" fill="#0E0E0E"/>
<path d="M49.5286 20.16C49.5286 20.16 50.059 18.5943 51.8492 20.5788L49.1971 17.602C49.1971 17.602 49.6831 18.2854 49.6725 18.837C49.6612 19.3881 49.5286 20.16 49.5286 20.16Z" fill="#0E0E0E"/>
<path d="M46.2466 16.1798C46.2466 16.1798 46.6663 15.9813 44.8986 13.9969C44.8986 13.9969 46.777 15.9152 47.3074 15.9813L46.2466 16.1798Z" fill="#0E0E0E"/>
<path d="M42.5336 14.6584C42.3347 14.5261 42.3347 12.5416 42.3347 12.5416C42.7325 11.5493 41.1963 9.15666 41.1963 9.15666L42.8651 11.417L43.1966 11.8139C43.1966 11.8139 42.1358 12.6739 42.5999 14.3938L42.5336 14.6584Z" fill="#0E0E0E"/>
<path d="M42.5999 12.6077C42.5999 12.6077 42.9977 11.6816 43.5944 12.3431L43.0362 11.5989L42.5999 12.6077Z" fill="#0E0E0E"/>
<path d="M17.3715 13.5669C17.1931 13.3922 17.0658 13.1627 17.0022 12.9146C16.9697 12.7903 16.9577 12.6606 16.9617 12.5316C16.967 12.402 16.9929 12.2743 17.032 12.1513C17.0724 12.0282 17.1328 11.9138 17.1997 11.8046L17.2535 11.7253C17.272 11.6995 17.2926 11.675 17.3118 11.6499C17.3496 11.5983 17.394 11.5533 17.4371 11.5063C17.6115 11.3231 17.8164 11.1736 18.0345 11.0532C17.8489 11.2186 17.6679 11.3866 17.5147 11.5751C17.3629 11.763 17.2316 11.968 17.158 12.1929C17.0811 12.4165 17.0632 12.658 17.1036 12.8928C17.1447 13.1283 17.2369 13.3578 17.3715 13.5662V13.5669Z" fill="#0E0E0E"/>
<path d="M20.4877 11.7808C20.318 12.0732 20.1894 12.3854 20.1038 12.7063C20.021 13.0271 19.9852 13.3598 20.0249 13.6853C20.0641 14.0107 20.1794 14.3236 20.3551 14.6041C20.5328 14.8833 20.7629 15.13 21.0175 15.3536C20.7297 15.1743 20.4712 14.9415 20.2689 14.6617C20.1708 14.5201 20.0833 14.3686 20.021 14.2065C19.9586 14.0445 19.9162 13.8745 19.893 13.7018C19.8532 13.3559 19.8976 13.0046 20.0044 12.6785C20.1118 12.3524 20.2716 12.0448 20.4871 11.7822L20.4877 11.7808Z" fill="#0E0E0E"/>
<path d="M21.6149 15.816C21.8131 15.9721 22.0233 16.1077 22.2421 16.2248C22.4609 16.3412 22.6903 16.4365 22.9264 16.5046C23.0431 16.5449 23.1651 16.5648 23.2851 16.5926C23.4071 16.6091 23.5284 16.6316 23.6524 16.6349C23.8997 16.6574 24.1477 16.6323 24.4003 16.6098C24.1603 16.6858 23.907 16.7414 23.6497 16.7381C23.5211 16.7467 23.3938 16.7262 23.2652 16.7163C23.1392 16.6918 23.0112 16.672 22.8892 16.6316C22.6433 16.5575 22.4059 16.4523 22.1911 16.3134C21.9762 16.1758 21.7767 16.0118 21.6162 15.816H21.6149Z" fill="#0E0E0E"/>
<path d="M12.6639 6.95188C12.7919 6.8348 12.9378 6.73888 13.0889 6.65421C13.2401 6.56887 13.3999 6.50008 13.563 6.44054C13.6446 6.41144 13.7288 6.38762 13.8123 6.36381L13.9396 6.33536L14.0033 6.32147L14.0676 6.31221C14.2386 6.28244 14.4143 6.27715 14.5867 6.29038C14.4183 6.33272 14.2526 6.36513 14.0895 6.41342C13.927 6.45906 13.7652 6.50735 13.6068 6.56557C13.4476 6.62047 13.2898 6.68199 13.1334 6.74682C12.9769 6.8123 12.8211 6.8811 12.6633 6.95188H12.6639Z" fill="#0E0E0E"/>
<path d="M28.1126 4.23973C28.2863 4.09817 28.4958 4.00755 28.7067 3.9328C28.9189 3.85871 29.1397 3.81307 29.3611 3.77999C29.5826 3.74625 29.8073 3.73567 30.0308 3.73369C30.1428 3.73501 30.2542 3.7403 30.3656 3.74361C30.477 3.75485 30.5877 3.76345 30.6984 3.77602C30.5871 3.77801 30.4757 3.77602 30.3643 3.77602C30.2529 3.77933 30.1422 3.77999 30.0314 3.78462C29.81 3.79851 29.5885 3.81108 29.3704 3.84548C29.1516 3.87657 28.9341 3.91891 28.7219 3.98109L28.5641 4.03136C28.5124 4.05121 28.46 4.0684 28.4097 4.0909C28.3069 4.13125 28.2068 4.17954 28.1126 4.23973Z" fill="#0E0E0E"/>
<path d="M23.4714 11.9793C23.3653 12.1255 23.2844 12.2829 23.236 12.4476C23.1889 12.6117 23.1777 12.7823 23.2108 12.9471C23.242 13.1118 23.3149 13.2679 23.4084 13.4141C23.5019 13.5609 23.6172 13.6959 23.7366 13.8321C23.5814 13.7382 23.4402 13.6191 23.3242 13.4749C23.2645 13.4041 23.2161 13.3234 23.1724 13.2408C23.1319 13.1554 23.1007 13.0661 23.0809 12.9729C23.0643 12.8789 23.059 12.783 23.0689 12.6884C23.0802 12.5938 23.1021 12.5012 23.1392 12.4145C23.2108 12.2419 23.3255 12.0891 23.4714 11.9806V11.9793Z" fill="#0E0E0E"/>
<path d="M37.594 9.73018C37.8075 9.93591 37.9779 10.186 38.1105 10.4539C38.2424 10.7224 38.3319 11.0155 38.3605 11.3165C38.3731 11.4673 38.3724 11.6194 38.3558 11.7696C38.3346 11.9197 38.3034 12.0679 38.253 12.2101C38.1523 12.4939 37.9925 12.7532 37.7929 12.9715C37.9481 12.7202 38.076 12.4562 38.1543 12.1791C38.1907 12.0401 38.2179 11.8992 38.2312 11.7564C38.2431 11.6141 38.2424 11.4706 38.2292 11.3284C38.2186 11.1855 38.1901 11.0446 38.1543 10.9057C38.1191 10.7661 38.0707 10.6298 38.017 10.4955C37.9056 10.2283 37.7651 9.9703 37.594 9.73018Z" fill="#0E0E0E"/>
<path d="M35.0745 25.4077C35.1321 25.1484 35.3065 24.9142 35.5353 24.7641C35.6487 24.6854 35.7793 24.6351 35.9105 24.598L36.0107 24.5742C36.0445 24.567 36.0783 24.565 36.1121 24.5597L36.307 24.5345C36.559 24.5041 36.7984 24.4055 37.0165 24.2726C37.232 24.1337 37.4289 23.9604 37.5933 23.754C37.4746 23.9914 37.2903 24.1959 37.0748 24.3579C36.9654 24.438 36.8461 24.5048 36.7208 24.5584C36.6903 24.5742 36.6565 24.5815 36.6246 24.5934C36.5921 24.6033 36.5603 24.6166 36.5265 24.6245C36.4595 24.6384 36.3939 24.6596 36.3256 24.6655L36.128 24.688C36.0969 24.692 36.065 24.694 36.0339 24.6999L35.941 24.7191C35.8184 24.7469 35.6984 24.7892 35.589 24.8521C35.3702 24.9751 35.1839 25.1683 35.0745 25.4084V25.4077Z" fill="#0E0E0E"/>
<path d="M27.317 22.4971C27.7413 22.6155 28.1743 22.6936 28.6079 22.7478C29.0422 22.8001 29.4791 22.8199 29.9141 22.7935C30.3484 22.7677 30.78 22.6949 31.1931 22.5606C31.6068 22.4263 31.9987 22.2266 32.356 21.9673C32.2725 22.0387 32.1929 22.1168 32.1021 22.1789C32.0577 22.2114 32.0139 22.2458 31.9682 22.2768L31.8283 22.3675C31.6373 22.4799 31.4384 22.5831 31.2282 22.6579C30.8105 22.8166 30.3669 22.8973 29.9227 22.9251C29.7006 22.9364 29.4778 22.937 29.2557 22.9244C29.0336 22.9106 28.8128 22.8867 28.594 22.8497C28.157 22.7776 27.7261 22.6638 27.3176 22.4971H27.317Z" fill="#0E0E0E"/>
<path d="M27.7148 15.3529C27.5643 15.5434 27.431 15.7425 27.3216 15.9522C27.2142 16.1619 27.1313 16.3842 27.1094 16.6124C27.0829 16.84 27.1333 17.0695 27.2447 17.2719C27.3594 17.473 27.5285 17.6457 27.7148 17.8005C27.4986 17.6913 27.2984 17.5345 27.1565 17.3262C27.0849 17.2217 27.0358 17.1026 27.0034 16.9796C26.9729 16.8559 26.9656 16.7262 26.9775 16.5999C27.0047 16.3472 27.1015 16.1103 27.2321 15.902C27.3634 15.6936 27.5252 15.5057 27.7148 15.3536V15.3529Z" fill="#0E0E0E"/>
<path d="M30.168 7.34878C30.4365 7.278 30.7157 7.2489 30.9942 7.24559C31.2726 7.24294 31.5524 7.27337 31.8249 7.33754C31.9609 7.37127 32.0941 7.41361 32.2241 7.46719C32.3534 7.52011 32.4807 7.57964 32.5987 7.65572C32.8381 7.79992 33.0476 7.9911 33.2186 8.20873C33.1205 8.11083 33.0244 8.01227 32.9136 7.92958C32.8613 7.8846 32.8036 7.84755 32.7485 7.80654C32.6902 7.77016 32.6338 7.73113 32.5728 7.69938C32.3348 7.56377 32.0769 7.46388 31.8097 7.4017C31.5438 7.33357 31.2693 7.30446 30.9942 7.29586C30.8562 7.29123 30.7183 7.29454 30.5811 7.30314C30.4432 7.31041 30.3059 7.32563 30.1687 7.34812L30.168 7.34878Z" fill="#0E0E0E"/>
<path d="M35.2734 10.1932C35.2482 10.3335 35.2097 10.4704 35.1666 10.606C35.1235 10.7416 35.0712 10.8746 35.0135 11.0042C34.9531 11.1332 34.8882 11.2609 34.8112 11.3813C34.733 11.501 34.6468 11.6161 34.544 11.7147C34.5832 11.6545 34.6263 11.5989 34.6607 11.5374C34.6999 11.4792 34.733 11.4163 34.7675 11.3555C34.8331 11.2311 34.8954 11.1054 34.9531 10.9771C35.0115 10.8494 35.0645 10.7191 35.1189 10.5888C35.1461 10.524 35.1719 10.4578 35.1965 10.3917C35.2236 10.3262 35.2475 10.2594 35.2734 10.1932Z" fill="#0E0E0E"/>
<path d="M20.2225 4.96738C20.2112 4.82516 20.2185 4.68161 20.2364 4.53939C20.2543 4.39717 20.2855 4.25627 20.3359 4.12C20.3869 3.98506 20.4566 3.85276 20.5613 3.74824C20.613 3.69598 20.674 3.65232 20.741 3.62255C20.8086 3.59411 20.8802 3.57823 20.9519 3.57823C20.8113 3.60536 20.6866 3.67746 20.5985 3.7833C20.5096 3.88782 20.4453 4.01284 20.3982 4.14315C20.3485 4.27347 20.316 4.4104 20.2868 4.54799C20.2722 4.61679 20.261 4.68691 20.251 4.75636C20.2391 4.82648 20.2311 4.8966 20.2232 4.96738H20.2225Z" fill="#0E0E0E"/>
<path d="M43.6276 26.863C43.8013 26.7678 43.9823 26.6844 44.1646 26.6064C44.347 26.5276 44.5326 26.4582 44.7209 26.3927C44.9099 26.3305 45.1002 26.2736 45.2938 26.2286C45.4881 26.185 45.6843 26.1499 45.8826 26.1354C45.7858 26.1585 45.6883 26.1751 45.5935 26.2022C45.4973 26.2233 45.4025 26.2518 45.3071 26.2776C45.1181 26.3338 44.9291 26.392 44.7422 26.4555C44.5552 26.5184 44.3695 26.5858 44.1839 26.6533C44.0911 26.6871 43.9982 26.7221 43.9061 26.7578L43.6283 26.8637L43.6276 26.863Z" fill="#0E0E0E"/>
<path d="M51.6503 22.431C51.9009 22.5573 52.1423 22.7022 52.379 22.8537C52.615 23.0058 52.8438 23.1699 53.0672 23.3405C53.286 23.5172 53.5015 23.6984 53.7004 23.8975C53.8973 24.0986 54.083 24.3116 54.2361 24.5471C54.1904 24.4935 54.146 24.4399 54.1015 24.3857C54.0591 24.3301 54.0074 24.2825 53.9603 24.2309L53.8894 24.1535C53.8655 24.1284 53.8396 24.1046 53.8151 24.0801C53.7647 24.0318 53.7163 23.9815 53.6646 23.9346C53.4597 23.7447 53.2469 23.5641 53.0261 23.3928C52.8073 23.2182 52.5799 23.0561 52.3505 22.896C52.2364 22.8153 52.1197 22.7372 52.003 22.6605C51.887 22.5818 51.769 22.5064 51.6503 22.431Z" fill="#0E0E0E"/>
<path d="M33.8147 30.369C34.9863 30.7017 36.1612 31.0219 37.342 31.3162C38.5216 31.6166 39.7058 31.8977 40.8932 32.1629C42.0814 32.4223 43.2729 32.669 44.4703 32.878C45.6671 33.0897 46.8692 33.2743 48.0765 33.398L48.5294 33.4449C48.6806 33.4602 48.8317 33.4707 48.9829 33.4833C49.2853 33.5111 49.5876 33.527 49.8899 33.5435C50.0411 33.5541 50.1923 33.5567 50.3441 33.5614C50.4953 33.5647 50.6471 33.5713 50.7983 33.5726C51.1006 33.5693 51.4037 33.5753 51.7053 33.5587L51.9314 33.5501C52.007 33.5475 52.0826 33.5448 52.1575 33.5375L52.6084 33.4998C52.7576 33.4873 52.8941 33.4621 53.0327 33.4191C53.1693 33.3755 53.3006 33.3166 53.4239 33.2438C53.6706 33.0983 53.8854 32.8972 54.0438 32.6571C54.1247 32.5374 54.1857 32.4104 54.2514 32.2701L54.447 31.858L54.6406 31.4479C54.6916 31.3328 54.6969 31.1985 54.6465 31.0821C54.622 31.0238 54.5869 30.9696 54.5418 30.9246C54.496 30.8803 54.4417 30.8459 54.3833 30.8221C54.3681 30.8168 54.3535 30.8108 54.3382 30.8062L54.2912 30.7963C54.2759 30.7923 54.2593 30.793 54.2434 30.791L54.2196 30.789H54.191L53.9623 30.7824C53.3523 30.7659 52.743 30.7401 52.1343 30.6997C51.5256 30.6574 50.9176 30.6012 50.3136 30.5171L50.0869 30.4854L49.8608 30.4483C49.7103 30.4252 49.5604 30.3928 49.4112 30.3637C49.1142 30.2955 48.8172 30.2201 48.5347 30.1044C48.8218 30.2082 49.1202 30.2697 49.4185 30.3246C49.569 30.3478 49.7182 30.3762 49.8687 30.3934L50.0948 30.4232L50.3216 30.4477C50.9263 30.5112 51.5336 30.5476 52.1409 30.5701C52.7483 30.5945 53.3563 30.6064 53.9643 30.6091H54.2209L54.254 30.6111C54.2759 30.6131 54.2978 30.6124 54.3197 30.617L54.3846 30.6303C54.4059 30.6362 54.4271 30.6441 54.4476 30.6508C54.5305 30.6819 54.6074 30.7295 54.6717 30.7903C54.7354 30.8519 54.7864 30.9259 54.8216 31.0073C54.8952 31.1694 54.8925 31.3639 54.8216 31.5273L54.6326 31.9447L54.4443 32.3594C54.384 32.495 54.3157 32.6445 54.2282 32.7781C54.0551 33.0487 53.8164 33.2763 53.5413 33.4423C53.4034 33.5256 53.2562 33.5931 53.103 33.6434C52.9512 33.693 52.7867 33.7241 52.6329 33.7386L52.1741 33.7816C52.0978 33.7902 52.0209 33.7935 51.944 33.7969L51.714 33.8081C51.4076 33.8293 51.1006 33.822 50.7943 33.8266C50.6412 33.826 50.488 33.82 50.3348 33.8167C50.1817 33.8127 50.0285 33.8107 49.876 33.8008C49.5704 33.7849 49.2647 33.7697 48.9604 33.7433C48.8079 33.7307 48.6554 33.7208 48.5035 33.7062L48.0474 33.6606C45.616 33.3986 43.2185 32.923 40.8455 32.3627C38.4738 31.7958 36.126 31.135 33.8134 30.3683L33.8147 30.369Z" fill="#0E0E0E"/>
<path d="M45.2189 32.4858C45.4523 32.5261 45.6856 32.5671 45.9197 32.6035C46.1531 32.6425 46.3871 32.6796 46.6212 32.7146C47.0893 32.7848 47.5581 32.8522 48.0281 32.9032C48.4976 32.9594 48.9697 33.0017 49.4417 33.0216C49.6778 33.0315 49.9145 33.0368 50.1505 33.0269C50.3866 33.0189 50.6226 32.9984 50.8547 32.9482C50.3952 33.0725 49.9132 33.0791 49.4404 33.0725C49.203 33.0692 48.9657 33.054 48.7296 33.0355C48.4929 33.0169 48.2569 32.9951 48.0209 32.9687C47.5501 32.9118 47.08 32.845 46.6132 32.7643C46.1465 32.6829 45.6803 32.5936 45.2189 32.4851V32.4858Z" fill="#0E0E0E"/>
<path d="M23.8029 23.4232C24.2299 23.7024 24.6648 23.9696 25.1064 24.225C25.5467 24.4823 25.9922 24.7303 26.4438 24.9665C27.3455 25.4408 28.2678 25.878 29.2132 26.2551C29.6853 26.4456 30.1627 26.6229 30.6461 26.7823C31.1301 26.9398 31.6207 27.076 32.1147 27.2004C32.61 27.3175 33.1099 27.4147 33.6151 27.4828C34.1204 27.5503 34.6296 27.5841 35.1401 27.5907C34.6296 27.6145 34.117 27.5926 33.6072 27.547C33.098 27.4921 32.5927 27.4054 32.0915 27.2996C31.5909 27.1905 31.0976 27.0496 30.6089 26.8974C30.1216 26.74 29.6396 26.566 29.1635 26.3781C28.6895 26.185 28.222 25.9759 27.7599 25.7563C27.2984 25.536 26.8416 25.3052 26.3947 25.0558C25.9471 24.8077 25.5062 24.5498 25.0719 24.2805C24.641 24.006 24.212 23.7275 23.8022 23.4239L23.8029 23.4232Z" fill="#0E0E0E"/>
<path d="M31.9582 16.1467C31.9582 16.1467 28.9083 10.7224 35.3397 14.493L33.3174 13.1587L30.3006 12.0454L29.8365 12.5085L31.9582 16.1467Z" fill="#0E0E0E"/>
<path d="M52.2802 23.7209C52.2802 23.7209 55.3301 26.8299 54.4682 27.6237L56.2584 28.4175L56.1258 26.4992L55.905 27.4914L55.6617 27.293L55.12 26.4774C55.12 26.4774 53.2747 23.7209 52.015 23.4563L52.2802 23.7209Z" fill="#0E0E0E"/>
<path d="M33.3837 14.5261C33.8724 14.7152 34.3445 14.9395 34.8092 15.1776C35.0433 15.2947 35.2701 15.423 35.4995 15.5481C35.7262 15.6777 35.9517 15.81 36.1751 15.9463C36.3972 16.0832 36.616 16.2274 36.8348 16.371C37.0483 16.5231 37.2658 16.668 37.4707 16.832C37.8844 17.1522 38.2888 17.4935 38.6217 17.8997C38.2126 17.5736 37.7823 17.2865 37.3507 17.0007C36.9177 16.7169 36.4788 16.4411 36.0359 16.1712C35.5963 15.8967 35.1507 15.6294 34.7078 15.3569C34.2642 15.0857 33.8213 14.8125 33.3837 14.5261Z" fill="#0E0E0E"/>
<path d="M35.5054 16.9074C36.0955 17.1304 36.6571 17.4221 37.1982 17.7482C37.7392 18.075 38.2544 18.4448 38.7371 18.8562C38.9751 19.0653 39.2091 19.2802 39.4273 19.5111C39.483 19.5673 39.534 19.6289 39.5877 19.6871C39.6408 19.7459 39.6938 19.8055 39.7442 19.867C39.7946 19.9285 39.847 19.9881 39.896 20.0509L40.0393 20.2414C40.2262 20.4987 40.396 20.768 40.5398 21.0504C40.6797 21.3355 40.7978 21.6299 40.876 21.9348C40.7421 21.6497 40.5942 21.3759 40.4265 21.1146L40.2972 20.9214C40.2547 20.8566 40.2057 20.7964 40.1606 20.7336L40.0923 20.6403L40.02 20.549C39.9716 20.4888 39.9259 20.4266 39.8748 20.3684C39.6759 20.1316 39.4664 19.9034 39.2469 19.6864C39.0288 19.4668 38.7994 19.2584 38.564 19.0573C38.3313 18.8523 38.0866 18.6604 37.84 18.4719C37.5947 18.2814 37.34 18.1015 37.0854 17.9215C36.5723 17.5676 36.0465 17.2296 35.5054 16.9088V16.9074Z" fill="#0E0E0E"/>
<path d="M42.2684 20.2149C43.1051 20.7534 43.9757 21.235 44.8787 21.6345C45.3316 21.8303 45.7911 22.0096 46.2632 22.1419C46.4985 22.2087 46.7359 22.2696 46.9759 22.3112C47.2153 22.3542 47.4573 22.386 47.6986 22.3939L47.8869 22.4052C47.9512 22.4098 48.0162 22.4111 48.0799 22.4217L48.2715 22.4475L48.4604 22.4846C48.7111 22.5401 48.9564 22.6142 49.1931 22.7081C49.6652 22.9 50.1094 23.1474 50.5211 23.4371C50.9342 23.7242 51.3194 24.0483 51.6801 24.3936C52.0382 24.7423 52.379 25.1087 52.6787 25.5069C52.3345 25.1471 51.9719 24.8084 51.5933 24.4902C51.2153 24.1707 50.8195 23.875 50.4064 23.6091C50.1983 23.4781 49.9867 23.3544 49.7706 23.2406C49.5531 23.1289 49.3303 23.0283 49.1036 22.9423C48.8762 22.8576 48.6434 22.7882 48.4081 22.7379L48.2304 22.7048L48.052 22.6823C47.9923 22.6731 47.9327 22.6724 47.873 22.6684L47.6887 22.6585C47.4327 22.6486 47.1795 22.6129 46.9302 22.5659C46.6802 22.5189 46.4349 22.4574 46.1935 22.382C45.9522 22.3079 45.7155 22.2213 45.4814 22.128C45.2474 22.0361 45.0186 21.9315 44.7932 21.8217C44.3417 21.6041 43.9067 21.3547 43.4844 21.0881C43.0647 20.8182 42.6536 20.5331 42.2697 20.2156L42.2684 20.2149Z" fill="#0E0E0E"/>
<path d="M22.079 22.7617C22.2289 22.9377 22.386 23.107 22.5491 23.2704C22.6307 23.3524 22.7129 23.4325 22.7957 23.5132L23.0504 23.7474C23.3931 24.0556 23.7545 24.344 24.1338 24.606C24.3194 24.7429 24.517 24.8626 24.7106 24.9877L25.0109 25.1597L25.1615 25.245L25.3153 25.3237C25.418 25.3753 25.5202 25.4302 25.6243 25.4798L25.9412 25.6187C25.9942 25.6419 26.0459 25.667 26.0996 25.6882L26.2621 25.7484L26.587 25.8701C26.1447 25.7352 25.7051 25.5804 25.2914 25.3687L25.1343 25.2933C25.0832 25.2662 25.0328 25.2371 24.9818 25.2093L24.6781 25.0386C24.4818 24.9142 24.2823 24.7958 24.0946 24.6596C23.7167 24.391 23.352 24.1019 23.0145 23.7837C22.6771 23.4669 22.3568 23.1289 22.077 22.7604L22.079 22.7617Z" fill="#0E0E0E"/>
<path d="M38.257 28.3183C38.8199 28.3282 39.3809 28.3712 39.9398 28.4275C40.2196 28.4546 40.4987 28.489 40.7772 28.5247C41.0564 28.5604 41.3335 28.6047 41.612 28.6458C41.8891 28.694 42.1663 28.7397 42.4421 28.7946C42.7179 28.8482 42.9931 28.9077 43.2676 28.9712C43.8146 29.1015 44.3583 29.253 44.8874 29.4435C44.3357 29.3324 43.7867 29.2246 43.2357 29.1234C42.9593 29.0784 42.6854 29.0228 42.4083 28.9798C42.1325 28.9309 41.8566 28.8865 41.5801 28.8422C41.3037 28.7972 41.0272 28.7529 40.7507 28.7106C40.4742 28.6643 40.1971 28.6259 39.9206 28.5809C39.3663 28.4963 38.812 28.4109 38.257 28.319V28.3183Z" fill="#0E0E0E"/>
<path d="M11.2053 29.1783L13.6479 29.1154C14.4621 29.0929 15.2756 29.0691 16.0885 29.0374L16.6985 29.0136L17.3078 28.9838C17.5114 28.9758 17.7143 28.9626 17.9172 28.9507C18.12 28.9381 18.3236 28.9282 18.5258 28.913C18.7287 28.8978 18.9316 28.8852 19.1345 28.868L19.7418 28.8131L20.3478 28.743C20.4493 28.7318 20.5487 28.7112 20.6488 28.696L20.9505 28.6484C20.1582 28.8435 19.3447 28.9408 18.5338 29.0149C17.7216 29.089 16.9074 29.1379 16.0931 29.1683C15.2783 29.1974 14.4634 29.216 13.6485 29.2173C12.8337 29.2199 12.0188 29.208 11.2046 29.1776L11.2053 29.1783Z" fill="#0E0E0E"/>
<path d="M9.17108 17.4909C9.05306 17.4823 8.93636 17.4763 8.81967 17.471C8.70298 17.4664 8.58695 17.4638 8.47091 17.4691C8.35555 17.4737 8.24018 17.4856 8.13078 17.5154C8.02403 17.5465 7.91463 17.6014 7.86888 17.7138C7.8775 17.6549 7.91198 17.6007 7.95706 17.5584C8.00281 17.5173 8.05784 17.4869 8.11487 17.4658C8.22891 17.4234 8.34958 17.4075 8.46893 17.4023C8.70762 17.395 8.94432 17.4247 9.17174 17.4902L9.17108 17.4909Z" fill="#0E0E0E"/>
<path d="M9.31562 15.9152C9.01593 15.982 8.7169 16.0515 8.4192 16.1262C8.1215 16.1983 7.82446 16.2744 7.52874 16.3538C6.93732 16.5105 6.34987 16.6806 5.76905 16.8671C5.18757 17.0503 4.61339 17.2534 4.05246 17.4816C3.49087 17.7065 2.94055 17.9579 2.42538 18.2562C2.16878 18.4064 1.92081 18.5665 1.68941 18.7424C1.45867 18.9184 1.2465 19.1122 1.07146 19.3246C0.896421 19.5362 0.761825 19.7691 0.697511 20.0105C0.632534 20.252 0.639827 20.5014 0.710109 20.7481C0.779064 20.9909 0.910345 21.2165 1.08804 21.4156C1.26573 21.6147 1.48453 21.7893 1.72322 21.9421C2.2026 22.2484 2.75623 22.4674 3.32047 22.6506C4.45757 23.0085 5.65833 23.2109 6.86173 23.3637C8.06779 23.5119 9.28512 23.6031 10.5051 23.664C11.7257 23.7196 12.949 23.7526 14.1743 23.7586C15.3996 23.7692 16.6256 23.7573 17.8542 23.7321C16.6362 23.8962 15.4102 23.9954 14.1823 24.0715C12.9543 24.1403 11.7238 24.18 10.4912 24.1667C9.2586 24.1575 8.02403 24.1059 6.79211 23.9769C6.17616 23.9141 5.5602 23.83 4.94756 23.7189C4.33425 23.6084 3.7236 23.4675 3.1209 23.2784C2.51953 23.0878 1.92213 22.8497 1.36717 22.4938C1.09135 22.3152 0.824814 22.1055 0.598056 21.8429C0.371299 21.5829 0.186312 21.2654 0.0934877 20.9175C0.0470754 20.7441 0.020554 20.5662 0.019891 20.3823C0.019891 20.1997 0.0477384 20.0165 0.0981289 19.8425C0.200236 19.4932 0.392516 19.1909 0.612643 18.9369C0.835422 18.6829 1.08737 18.4706 1.34994 18.2827C1.61183 18.0942 1.88699 17.9328 2.16679 17.7866C2.72706 17.4949 3.30721 17.2614 3.89399 17.0569C4.48277 16.8572 5.07817 16.6892 5.67755 16.5403C6.87831 16.2532 8.09232 16.0343 9.31695 15.9165L9.31562 15.9152Z" fill="#0E0E0E"/>
<path d="M25.2284 28.8144C24.1709 29.0493 23.1047 29.2391 22.0366 29.4184C20.9678 29.5917 19.8956 29.7518 18.8202 29.8821C18.2825 29.9476 17.7441 30.0144 17.2051 30.068C16.6653 30.1216 16.1256 30.1718 15.5846 30.2162L14.773 30.279C14.5025 30.2975 14.2313 30.3134 13.9602 30.3286C13.4178 30.359 12.8748 30.3815 12.3311 30.3934C11.7874 30.4073 11.2431 30.41 10.698 30.4007C10.153 30.3934 9.60735 30.3716 9.06101 30.3313C8.78784 30.3121 8.51467 30.2876 8.24217 30.2578C7.969 30.2248 7.69649 30.1904 7.42398 30.1447C6.87765 30.0528 6.34457 29.941 5.81082 29.8034C4.74599 29.5328 3.70105 29.1472 2.73634 28.5955C2.49632 28.4552 2.26028 28.3077 2.03551 28.143C1.80942 27.9796 1.59194 27.8037 1.38839 27.6098C1.18484 27.4167 0.99455 27.2077 0.824813 26.9814C0.739282 26.8683 0.659718 26.7506 0.587448 26.6262C0.550981 26.5647 0.517166 26.5005 0.484677 26.4357C0.468765 26.4026 0.452852 26.3695 0.438265 26.3351C0.430972 26.3179 0.423678 26.3007 0.416385 26.2822C0.409092 26.263 0.403124 26.2478 0.394505 26.2214L0.385885 26.1956V26.1711C0.377266 25.6492 0.36931 25.1272 0.365331 24.6047L0.350745 23.0382C0.34544 21.9937 0.340136 20.9492 0.346766 19.9047C0.42832 20.9466 0.497275 21.9884 0.566894 23.031L0.664359 24.5941C0.698174 25.1153 0.726685 25.6366 0.756521 26.1579L0.747902 26.1082L0.761825 26.142C0.76713 26.1552 0.77376 26.1684 0.78039 26.1823C0.792988 26.2095 0.807575 26.2366 0.822161 26.2637C0.851998 26.3179 0.883823 26.3722 0.918301 26.4251C0.986594 26.5316 1.06218 26.6348 1.14373 26.734C1.30618 26.9325 1.48785 27.1177 1.68344 27.2884C2.07662 27.6277 2.5129 27.9221 2.97569 28.1695C3.90261 28.6676 4.91838 28.9983 5.9494 29.2471C6.46524 29.3688 6.99169 29.474 7.51416 29.5454C8.03862 29.6162 8.56971 29.6592 9.10278 29.6916C9.63586 29.722 10.1709 29.7372 10.7067 29.7438C11.2424 29.7491 11.7795 29.7452 12.3165 29.7359C12.8536 29.7253 13.3913 29.7075 13.929 29.6856L14.7353 29.6479L15.5422 29.6069C16.0799 29.5772 16.6176 29.5421 17.1553 29.5031C17.693 29.464 18.2314 29.429 18.7691 29.3853C20.9207 29.216 23.0722 29.0142 25.2284 28.8131V28.8144Z" fill="#0E0E0E"/>
<path d="M11.6144 19.4205L4.11081 19.785L11.5699 18.8933L11.6144 19.4205Z" fill="#0E0E0E"/>
<path d="M5.50318 22.3648C5.26448 22.1988 5.11729 21.8852 5.13785 21.5611C5.14779 21.4004 5.19752 21.2423 5.27045 21.1027C5.34471 20.9631 5.43886 20.8374 5.54627 20.7303C5.75977 20.5133 6.01438 20.3585 6.27694 20.2401C6.54149 20.1243 6.81731 20.0449 7.10507 20.0158C6.87963 20.1977 6.65022 20.3506 6.43275 20.5106C6.21594 20.6694 6.00642 20.8295 5.83005 21.0081C5.65369 21.1867 5.5118 21.3818 5.44549 21.6074C5.37985 21.8323 5.39709 22.0963 5.50251 22.3642L5.50318 22.3648Z" fill="#0E0E0E"/>
<path d="M7.92325 19.0904C7.62356 19.1605 7.31989 19.1718 7.01622 19.1559C6.71321 19.136 6.40888 19.0851 6.11184 18.9779C6.03758 18.9515 5.96465 18.9184 5.89171 18.8853L5.7843 18.8271C5.7485 18.8066 5.71336 18.7835 5.67954 18.7603C5.54362 18.6644 5.40969 18.5374 5.3341 18.3641C5.31421 18.3217 5.30427 18.2741 5.29167 18.2298C5.28504 18.1835 5.2804 18.1365 5.27973 18.0909C5.28504 18.0452 5.28835 18.0002 5.29764 17.9572C5.3109 17.9156 5.32416 17.8746 5.33874 17.8349C5.35864 17.7978 5.37786 17.7614 5.39842 17.727C5.41897 17.692 5.44549 17.6622 5.47003 17.6318C5.51644 17.5683 5.58009 17.5207 5.63645 17.4704C5.58738 17.6166 5.53832 17.7542 5.52705 17.8871C5.5171 18.0194 5.54495 18.1319 5.61125 18.2185C5.67623 18.3065 5.77237 18.3806 5.88376 18.4435C5.99448 18.507 6.1198 18.5599 6.24975 18.6062C6.509 18.7008 6.78615 18.7749 7.06595 18.8496C7.34707 18.9244 7.63218 18.9971 7.92391 19.0911L7.92325 19.0904Z" fill="#0E0E0E"/>
<path d="M3.43385 21.6702C3.35031 21.6676 3.26809 21.655 3.18654 21.6385C3.10499 21.6226 3.0241 21.6014 2.94453 21.575C2.7854 21.5234 2.63025 21.4539 2.48372 21.3646C2.33719 21.2747 2.19862 21.1635 2.0806 21.0259C1.96258 20.889 1.8671 20.7217 1.81605 20.5378C1.8061 20.4915 1.79417 20.4451 1.78687 20.3982C1.78223 20.3512 1.77759 20.3036 1.77428 20.2566L1.78024 20.1157C1.78489 20.0694 1.79351 20.0238 1.80212 19.9781C1.80876 19.9318 1.82533 19.8895 1.83727 19.8458L1.85782 19.781C1.86578 19.7598 1.87572 19.74 1.88434 19.7195C1.90291 19.6791 1.91948 19.6381 1.93937 19.5984L2.00568 19.486C2.18934 19.1916 2.44129 18.9647 2.72308 18.7921C2.55931 19.0792 2.3909 19.3484 2.28415 19.6275C2.17541 19.904 2.12635 20.1825 2.19928 20.4326C2.26691 20.684 2.44527 20.9135 2.66871 21.1139C2.89348 21.315 3.15471 21.4923 3.43319 21.6696L3.43385 21.6702Z" fill="#0E0E0E"/>
<path d="M10.0781 18.5963C9.55298 18.6816 9.01924 18.7047 8.48351 18.6697C8.21565 18.6525 7.94645 18.6174 7.67859 18.548C7.54466 18.5129 7.41072 18.4673 7.27878 18.4031C7.14883 18.337 7.01423 18.2516 6.9108 18.1101C6.86041 18.0393 6.82195 17.9533 6.80736 17.8627C6.79145 17.7727 6.79874 17.6821 6.81863 17.6014C6.82792 17.5597 6.84184 17.5233 6.85709 17.4849L6.88295 17.4274C6.88295 17.4274 6.89157 17.4115 6.89687 17.4036L6.90814 17.3877C6.91477 17.3784 6.92207 17.3679 6.9287 17.3606C6.9824 17.2944 7.04075 17.2455 7.10175 17.1992C7.22375 17.1092 7.35636 17.0477 7.49095 17.0007L7.59239 16.9676C7.62621 16.9577 7.66069 16.9504 7.6945 16.9425C7.72898 16.9352 7.76279 16.9266 7.79727 16.92L7.90004 16.9055C8.17387 16.8678 8.44771 16.8671 8.71425 16.8988L8.81437 16.9094L8.91382 16.926C8.98012 16.9372 9.04576 16.9471 9.1114 16.9604C9.24202 16.9882 9.37065 17.0225 9.49862 17.0576C9.36468 17.0589 9.2334 17.053 9.10212 17.0517C9.03648 17.0536 8.97084 17.0536 8.9052 17.0543H8.80707L8.70961 17.0616L8.51534 17.0715L8.32372 17.0933C8.25941 17.0993 8.19708 17.1119 8.13476 17.1218L8.04061 17.137L7.94911 17.1595C7.70776 17.2203 7.4704 17.307 7.29337 17.4492C7.2516 17.4849 7.20916 17.5226 7.18131 17.5603C7.17667 17.565 7.17535 17.5689 7.17269 17.5729C7.17203 17.5742 7.16872 17.5782 7.16938 17.5769C7.17071 17.5756 7.17336 17.5689 7.17137 17.5742L7.15811 17.6073C7.15015 17.6298 7.14087 17.6556 7.13689 17.6788C7.11567 17.774 7.1296 17.8488 7.18131 17.9209C7.23237 17.9943 7.32387 18.0604 7.42664 18.114C7.53007 18.1689 7.6461 18.2113 7.76478 18.249C8.00414 18.3231 8.25742 18.372 8.51268 18.4163C9.02587 18.4977 9.54901 18.5466 10.0774 18.5982L10.0781 18.5963Z" fill="#0E0E0E"/>
<path d="M10.1444 19.5865C9.70084 19.7486 9.26324 19.9239 8.83956 20.1243C8.62805 20.2235 8.4192 20.3294 8.21896 20.4458C8.01939 20.5629 7.82379 20.6866 7.64942 20.8295C7.47703 20.9724 7.31923 21.1344 7.22972 21.3137C7.18662 21.4037 7.16275 21.4956 7.1654 21.5862C7.16805 21.6755 7.1959 21.7681 7.24364 21.8482C7.3305 21.9977 7.52012 22.1108 7.72235 22.1869C7.92723 22.2629 8.14934 22.3119 8.37411 22.345C8.82497 22.4158 9.29109 22.427 9.75388 22.4131C10.218 22.4025 10.6821 22.3536 11.1423 22.2848C11.3723 22.2497 11.6004 22.2041 11.8265 22.1505C12.0526 22.0976 12.2761 22.0334 12.4922 21.952C12.7084 21.872 12.9199 21.7734 13.0989 21.6332C13.1871 21.5631 13.268 21.4797 13.313 21.3765C13.3634 21.2753 13.3634 21.153 13.3256 21.0412C13.3787 21.145 13.3992 21.2747 13.3601 21.3937C13.3243 21.5135 13.2461 21.6147 13.1605 21.7013C12.9855 21.874 12.772 21.9957 12.5565 22.1015C12.1196 22.3059 11.6568 22.4402 11.1894 22.5388C10.2525 22.73 9.2891 22.8041 8.32372 22.6718C8.08304 22.6334 7.8417 22.5785 7.60499 22.4879C7.48697 22.4416 7.36962 22.3847 7.25889 22.3086C7.14816 22.2332 7.04208 22.1326 6.97047 22.0003C6.90218 21.8753 6.86438 21.7344 6.86438 21.5882C6.86438 21.442 6.90814 21.3025 6.9718 21.1827C7.10175 20.9426 7.29536 20.7726 7.49228 20.6264C7.89142 20.3373 8.33234 20.1442 8.77724 19.9755C9.22478 19.8134 9.68029 19.6785 10.1444 19.5865Z" fill="#0E0E0E"/>
<path d="M12.1998 23.0263C12.3556 22.9827 12.5081 22.9496 12.6593 22.9145C12.8098 22.8795 12.959 22.8457 13.1035 22.8047C13.2487 22.7637 13.39 22.7174 13.5206 22.6526C13.6505 22.5871 13.7705 22.5031 13.8574 22.3655C13.8561 22.4468 13.8242 22.5282 13.7792 22.6003C13.7321 22.6711 13.6717 22.7333 13.6048 22.7849C13.4695 22.8867 13.3144 22.9529 13.1579 22.9966C13.0008 23.0409 12.8403 23.0634 12.6799 23.07C12.5194 23.0746 12.3583 23.0667 12.2005 23.0276L12.1998 23.0263Z" fill="#0E0E0E"/>
<path d="M4.30972 20.9757C4.26065 20.8745 4.28717 20.7481 4.34088 20.6496C4.39591 20.549 4.47614 20.4657 4.56565 20.4015C4.61073 20.3697 4.65781 20.3406 4.70621 20.3155C4.7566 20.2943 4.80368 20.2665 4.85606 20.2513C4.90711 20.2341 4.95816 20.2169 5.01121 20.2057C5.06425 20.1958 5.11729 20.1858 5.17166 20.1819C5.12724 20.2136 5.08082 20.2401 5.03508 20.2665C4.98866 20.2917 4.94557 20.3208 4.89982 20.3453C4.85473 20.3711 4.8123 20.3988 4.76854 20.4246C4.7261 20.4524 4.68433 20.4802 4.64389 20.5087C4.563 20.5669 4.48874 20.631 4.42774 20.7058C4.36806 20.7812 4.31767 20.8678 4.30972 20.9757Z" fill="#0E0E0E"/>
<path d="M5.37057 19.1896C5.232 19.2148 5.09143 19.2161 4.9522 19.2048C4.8123 19.1929 4.67306 19.1671 4.5378 19.1208C4.4032 19.0752 4.27192 19.0077 4.16319 18.9085C4.05445 18.8112 3.9782 18.669 3.97886 18.5281C4.03456 18.6578 4.12208 18.7557 4.22816 18.8284C4.33491 18.9012 4.45558 18.9528 4.5809 18.9958C4.83219 19.0818 5.09873 19.1307 5.37123 19.1896H5.37057Z" fill="#0E0E0E"/>
<path d="M9.81289 20.3803C9.74924 20.4154 9.68559 20.4491 9.62393 20.4868C9.5616 20.5225 9.49994 20.5596 9.44027 20.5993C9.32092 20.678 9.20489 20.7613 9.10411 20.8599C9.00532 20.9571 8.91714 21.0742 8.90586 21.2085C8.89327 21.3448 8.98211 21.4711 9.08356 21.5717C9.02455 21.53 8.96819 21.4824 8.92443 21.4209C8.88266 21.3593 8.85481 21.2846 8.85481 21.2065C8.85348 21.1285 8.88133 21.0537 8.91846 20.9882C8.95692 20.9228 9.00532 20.8652 9.0577 20.8129C9.16511 20.7104 9.28578 20.6264 9.41375 20.5563C9.54171 20.4862 9.67366 20.4253 9.81223 20.381L9.81289 20.3803Z" fill="#0E0E0E"/>
<path d="M11.8683 21.7033L12.16 21.6061C12.2562 21.573 12.3523 21.5399 12.4471 21.5035C12.5419 21.4672 12.6348 21.4281 12.7269 21.3858C12.8178 21.3415 12.9079 21.2952 12.9955 21.2403C12.9238 21.315 12.8403 21.3779 12.7508 21.4308C12.6613 21.4837 12.5665 21.5267 12.4703 21.5644C12.2761 21.6365 12.0745 21.6881 11.8683 21.7027V21.7033Z" fill="#0E0E0E"/>
<path d="M6.49773 16.6098C6.49773 16.6098 8.55313 16.0806 9.34877 16.4113C9.34877 16.4113 9.61398 16.6098 9.61398 16.6759C9.61398 16.7421 9.38192 15.849 9.38192 15.849L6.63033 16.3452L6.49773 16.6098Z" fill="#0E0E0E"/>
<path d="M10.9401 20.1819C10.8187 20.2493 10.702 20.3267 10.6052 20.4233C10.5568 20.4709 10.5131 20.5245 10.4859 20.5841C10.458 20.6436 10.4507 20.7097 10.4726 20.7686C10.4925 20.8282 10.5376 20.8784 10.5873 20.9214C10.6377 20.9657 10.6947 20.9982 10.7571 21.022C10.8187 21.0458 10.885 21.0603 10.952 21.0663C11.019 21.0736 11.0866 21.0736 11.1542 21.0683C11.4261 21.0511 11.6919 20.9611 11.9339 20.8341C12.0546 20.7693 12.17 20.6932 12.2688 20.598C12.3669 20.5053 12.4551 20.3883 12.465 20.2474C12.4683 20.3168 12.4478 20.3869 12.4153 20.4491C12.3828 20.512 12.3397 20.5682 12.292 20.6204C12.1952 20.7236 12.0798 20.8063 11.9591 20.8784C11.8378 20.9499 11.7078 21.0061 11.5739 21.0498C11.44 21.0928 11.3007 21.1245 11.1589 21.1344C11.0879 21.1391 11.0163 21.1377 10.9454 21.1291C10.8744 21.1212 10.8035 21.1053 10.7358 21.0782C10.6689 21.0517 10.6039 21.0134 10.5502 20.9651C10.4965 20.9175 10.4461 20.8586 10.4249 20.7845C10.401 20.7111 10.4149 20.6304 10.4487 20.5662C10.4826 20.5007 10.531 20.4471 10.5833 20.4002C10.6907 20.3082 10.8121 20.2368 10.9401 20.1819Z" fill="#0E0E0E"/>
<path d="M0 20.4465L0.464123 26.2015C0.464123 26.2015 0.464123 24.217 0.99455 23.4232C1.52498 22.6294 2.91735 23.2248 2.91735 23.2248L0.580154 21.2237L0 20.4465Z" fill="#0E0E0E"/>
<path d="M1.29291 24.2501C1.31281 24.4829 1.33071 24.7158 1.34596 24.9486L1.37115 25.2972C1.3811 25.411 1.40099 25.5241 1.43215 25.6333C1.49315 25.8522 1.59526 26.0586 1.73184 26.2386C1.80014 26.3279 1.87572 26.4119 1.9586 26.4879C2.04082 26.562 2.13696 26.6322 2.22647 26.7036C2.59644 26.9808 2.98962 27.2282 3.39871 27.4451C3.80846 27.6614 4.23148 27.8526 4.66378 28.022C4.77185 28.0643 4.88125 28.1027 4.98999 28.143C5.09939 28.1827 5.20746 28.225 5.31885 28.2581C5.54031 28.3282 5.76043 28.4036 5.9852 28.4625L6.3207 28.5578C6.43275 28.5882 6.54679 28.6133 6.65951 28.6411L6.99898 28.7232L7.34111 28.7946C8.2541 28.9818 9.1797 29.1128 10.1113 29.2107C9.17506 29.1902 8.23753 29.1101 7.31193 28.9467C6.38634 28.786 5.47201 28.5452 4.59151 28.2059C4.1539 28.0299 3.72426 27.8348 3.3092 27.6085C2.89746 27.3777 2.49831 27.1217 2.13099 26.824C2.04082 26.7459 1.94932 26.6758 1.86047 26.5905C1.77361 26.5058 1.69471 26.4132 1.62642 26.3133C1.48917 26.1142 1.39038 25.89 1.338 25.6558C1.31214 25.5387 1.29888 25.4196 1.29623 25.3006L1.29291 24.95C1.29026 24.7164 1.29026 24.4829 1.29225 24.2494L1.29291 24.2501Z" fill="#0E0E0E"/>
<path d="M3.59894 26.7578C3.89731 26.8961 4.19965 27.0251 4.50465 27.1461C4.80898 27.2692 5.11663 27.3856 5.42626 27.4941C5.73656 27.6019 6.04686 27.7078 6.36114 27.8037C6.67542 27.8989 6.99169 27.9869 7.30994 28.0669C7.62754 28.1483 7.94844 28.2191 8.27068 28.2813C8.59291 28.3441 8.9178 28.3904 9.24268 28.4328C9.56823 28.4724 9.89577 28.4963 10.224 28.5088C10.5522 28.5201 10.8804 28.5121 11.2086 28.491C10.8817 28.5267 10.5522 28.5412 10.2233 28.5412C9.89378 28.5353 9.56492 28.5168 9.23738 28.4837C8.58164 28.4149 7.93319 28.2892 7.29403 28.1311C6.65619 27.9671 6.02631 27.7719 5.40969 27.5424C4.79307 27.3122 4.18507 27.0575 3.59961 26.7578H3.59894Z" fill="#0E0E0E"/>
<path d="M1.79019 23.6217C1.81539 23.9068 1.83329 24.1925 1.84986 24.4783C1.86047 24.6219 1.86113 24.7634 1.88766 24.9023C1.91219 25.0412 1.94534 25.1788 1.99772 25.3098C2.0932 25.5751 2.24437 25.8198 2.43466 26.0282C2.62429 26.2379 2.859 26.4066 3.11692 26.5329C2.98232 26.4833 2.85436 26.4158 2.73236 26.3384C2.61036 26.2611 2.50096 26.1651 2.39819 26.0633C2.19464 25.8562 2.03949 25.6035 1.93606 25.333C1.88434 25.1974 1.85185 25.0545 1.82865 24.9123L1.81406 24.8044L1.80677 24.6959C1.8008 24.6238 1.80212 24.5531 1.80014 24.481C1.79417 24.1952 1.78886 23.9088 1.79085 23.6223L1.79019 23.6217Z" fill="#0E0E0E"/>
<path d="M15.8465 24.8124C15.0058 24.9698 14.1571 25.0823 13.3058 25.1616C12.4538 25.243 11.5984 25.2873 10.7418 25.2966C10.3135 25.2966 9.8845 25.2913 9.45618 25.2701C9.02786 25.245 8.60021 25.2139 8.17454 25.1577C7.74887 25.1014 7.32586 25.0254 6.90947 24.9202C6.80604 24.8911 6.70194 24.8659 6.59917 24.8335C6.49706 24.8005 6.39429 24.7687 6.29351 24.7337L5.99316 24.6185L5.70275 24.4823C6.10057 24.6384 6.51298 24.7482 6.93069 24.8256C7.34774 24.907 7.76942 24.9612 8.19178 25.0035C9.03847 25.0803 9.88914 25.1054 10.7405 25.0981C11.1661 25.0981 11.5918 25.0849 12.0175 25.0697C12.4431 25.0565 12.8688 25.0313 13.2945 25.0082C13.7201 24.9824 14.1458 24.9539 14.5708 24.9202C14.9965 24.8911 15.4215 24.8507 15.8472 24.8124H15.8465Z" fill="#0E0E0E"/>
</svg>
