<svg width="49" height="52" viewBox="0 0 49 52" fill="none" xmlns="http://www.w3.org/2000/svg">
<path d="M9.63947 33.4496C9.67983 33.6926 9.75659 33.9289 9.84527 34.1633L9.90879 34.3398L9.93857 34.428L9.95247 34.4721C9.95511 34.48 9.9571 34.4853 9.95975 34.4958C9.96504 34.5215 9.96438 34.5498 9.95776 34.5775C9.94453 34.6328 9.90813 34.6796 9.8585 34.7059C9.83402 34.7191 9.80556 34.7276 9.77579 34.7303C9.74799 34.7329 9.71424 34.7263 9.69439 34.7191C9.66461 34.7105 9.63417 34.7033 9.60506 34.694C9.5455 34.6769 9.48727 34.6565 9.42904 34.6361C9.37147 34.6144 9.31324 34.5926 9.25699 34.5676C9.22853 34.5558 9.20074 34.5426 9.17229 34.5294L9.15111 34.5196C9.15111 34.5196 9.13523 34.5136 9.12266 34.5064C9.11008 34.4991 9.09817 34.4912 9.08759 34.4814C9.04457 34.4432 9.01943 34.3885 9.01943 34.3332C9.01943 34.3056 9.02538 34.2773 9.03597 34.2529C9.04126 34.2424 9.04391 34.2384 9.04854 34.2312L9.07237 34.191C9.08825 34.164 9.10545 34.1383 9.122 34.1113L9.22456 33.954C9.29338 33.8493 9.36287 33.7452 9.42375 33.6373C9.45485 33.5833 9.48396 33.5293 9.51109 33.474L9.53161 33.4325C9.53955 33.418 9.55344 33.4075 9.56866 33.4035C9.59977 33.3943 9.63484 33.4173 9.63881 33.4489L9.63947 33.4496ZM9.63947 33.4496C9.63484 33.418 9.59976 33.3982 9.57065 33.4075C9.53822 33.4154 9.53492 33.4516 9.523 33.4792C9.50249 33.5372 9.48396 33.5964 9.46676 33.6557C9.43235 33.7749 9.40588 33.8973 9.37875 34.0191L9.33772 34.2022C9.33044 34.2325 9.32316 34.2628 9.31522 34.2931L9.30331 34.3378C9.30199 34.3444 9.29868 34.3549 9.29802 34.3582C9.30331 34.3477 9.30662 34.3352 9.30662 34.3233C9.30728 34.2983 9.29735 34.2733 9.27816 34.2549C9.27353 34.2503 9.26824 34.2463 9.26228 34.243C9.25699 34.2397 9.24772 34.2364 9.25566 34.2384L9.27816 34.2443C9.30794 34.2529 9.33838 34.2601 9.3675 34.2694C9.42705 34.2865 9.48529 34.3069 9.54352 34.3273C9.60109 34.349 9.65866 34.3714 9.71557 34.3964C9.74402 34.4083 9.77182 34.4221 9.80027 34.4346C9.79498 34.4326 9.77645 34.4294 9.76387 34.4313C9.74998 34.4326 9.73674 34.4373 9.72616 34.4438C9.70432 34.457 9.6891 34.4781 9.6838 34.5031C9.68116 34.5156 9.68182 34.5281 9.6838 34.5387C9.6838 34.5347 9.6838 34.5242 9.6838 34.5169L9.68248 34.4702L9.68116 34.3767L9.68248 34.189C9.68844 33.9388 9.68182 33.6899 9.63881 33.4476L9.63947 33.4496Z" fill="#0E0E0E"/>
<path d="M10.7995 42.9231C11.1059 42.7012 11.3904 42.4497 11.6677 42.1883L11.7722 42.0915L11.7788 42.0856C11.7788 42.0856 11.7888 42.0777 11.7934 42.0744C11.8047 42.0672 11.8166 42.0606 11.8298 42.056C11.8556 42.0461 11.8841 42.0428 11.9119 42.0454C11.9674 42.05 12.0224 42.0823 12.0535 42.1323C12.1097 42.2179 12.1613 42.291 12.2129 42.3727C12.3155 42.532 12.4115 42.6946 12.5008 42.8606L12.512 42.8823C12.52 42.8987 12.5259 42.9159 12.5299 42.9343C12.5379 42.9699 12.5379 43.0074 12.5292 43.0429C12.5206 43.0785 12.5041 43.1121 12.4809 43.1397C12.469 43.1536 12.4558 43.1667 12.4412 43.1779C12.434 43.1838 12.4267 43.1885 12.4187 43.1931L12.4075 43.1996C12.3665 43.2227 12.3241 43.2444 12.2824 43.2668C12.1984 43.3109 12.1137 43.3531 12.0277 43.3932C11.8556 43.4736 11.6809 43.5493 11.5049 43.623L11.3732 43.679L11.3368 43.6948C11.317 43.7027 11.2958 43.7066 11.2753 43.7053C11.2342 43.7033 11.1959 43.681 11.174 43.6494C11.1224 43.5651 11.0774 43.4847 11.0265 43.4038C10.9768 43.3234 10.9252 43.2438 10.8723 43.1654L10.7915 43.0489C10.777 43.0311 10.7638 43.008 10.7657 42.9843C10.7664 42.9606 10.779 42.9376 10.7988 42.9238L10.7995 42.9231ZM10.7995 42.9231C10.7803 42.9369 10.7684 42.96 10.7684 42.9837C10.7671 43.008 10.7796 43.0285 10.7949 43.0469L10.8822 43.1582C10.9411 43.2319 11.002 43.305 11.0635 43.3761C11.1251 43.4472 11.1912 43.519 11.2521 43.5868C11.2594 43.5921 11.2687 43.5927 11.2746 43.5894C11.2779 43.5881 11.2799 43.5861 11.2819 43.5835C11.2845 43.5802 11.2991 43.5703 11.307 43.5644L11.4222 43.4795C11.575 43.3656 11.7286 43.2536 11.8847 43.1457C11.9628 43.0923 12.0422 43.0403 12.1229 42.9903C12.1633 42.9659 12.203 42.9402 12.244 42.9165L12.248 42.9145C12.248 42.9145 12.2427 42.9178 12.2401 42.9198C12.2348 42.9238 12.2301 42.9284 12.2262 42.933C12.2182 42.9429 12.2116 42.9547 12.209 42.9672C12.2057 42.9797 12.2057 42.9929 12.209 43.0061C12.2103 43.0127 12.2129 43.0186 12.2149 43.0245C12.2176 43.0298 12.2149 43.0252 12.2143 43.0225L12.2103 43.0146C12.121 42.848 12.0389 42.6782 11.9628 42.505C11.9258 42.4201 11.888 42.3266 11.8543 42.2462C11.8616 42.2548 11.8735 42.2581 11.8821 42.2561C11.8867 42.2555 11.8907 42.2535 11.894 42.2509C11.896 42.2495 11.8973 42.2482 11.898 42.2469C11.898 42.2469 11.8999 42.2443 11.898 42.2456L11.89 42.2502L11.7656 42.3206C11.4321 42.5057 11.1045 42.6992 10.8001 42.9231H10.7995Z" fill="#0E0E0E"/>
<path d="M12.3982 43.0166C12.4432 43.1753 12.4551 43.3287 12.4571 43.4808C12.4571 43.519 12.4571 43.5565 12.4558 43.594V43.6013C12.4558 43.6013 12.4558 43.6046 12.4545 43.6131C12.4525 43.6263 12.4492 43.6395 12.4452 43.6526C12.4366 43.6783 12.4227 43.7027 12.4055 43.7238C12.3876 43.7448 12.3665 43.7626 12.342 43.7764L12.3102 43.7942C12.2447 43.8311 12.1772 43.8647 12.109 43.8969C12.0402 43.9279 11.9714 43.9575 11.9006 43.9838C11.8649 43.9964 11.8298 44.0102 11.7934 44.0214L11.7391 44.0385L11.7325 44.0405L11.7286 44.0418L11.7193 44.0451C11.7074 44.049 11.6948 44.0523 11.6816 44.0543C11.6564 44.0582 11.6306 44.0569 11.6061 44.0523C11.5816 44.0471 11.5585 44.0378 11.538 44.024C11.5327 44.0207 11.528 44.0168 11.5234 44.0135C11.5188 44.0095 11.5194 44.0095 11.5168 44.0075L11.5069 43.997C11.4936 43.9832 11.4804 43.97 11.4672 43.9555C11.4414 43.9272 11.4156 43.8982 11.3911 43.868C11.3421 43.8074 11.2945 43.7442 11.2534 43.6717C11.3355 43.6862 11.4109 43.7099 11.485 43.7356C11.5214 43.7488 11.5578 43.7633 11.5929 43.7784C11.6108 43.7857 11.628 43.7936 11.6458 43.8015L11.6591 43.8074C11.6591 43.8074 11.665 43.8107 11.6644 43.8094L11.6617 43.8061C11.6577 43.8015 11.6525 43.7982 11.6465 43.7962C11.6405 43.7936 11.6339 43.7922 11.6273 43.7922C11.624 43.7922 11.62 43.7922 11.6167 43.7929H11.6141C11.6141 43.7929 11.6161 43.7929 11.6167 43.7916L11.6227 43.7876L11.671 43.7573C11.7027 43.7369 11.7358 43.7192 11.7689 43.7001C11.8351 43.6632 11.9019 43.6296 11.9701 43.5973C12.0389 43.5664 12.1077 43.5368 12.1785 43.5104L12.1918 43.5058C12.1918 43.5058 12.2057 43.4999 12.1977 43.5045C12.1898 43.5091 12.1832 43.5157 12.1785 43.5229C12.1732 43.5302 12.1693 43.5381 12.1679 43.546C12.1673 43.5499 12.1666 43.5545 12.166 43.5585C12.166 43.5624 12.166 43.5585 12.1673 43.5565L12.1693 43.5499C12.1792 43.5137 12.1904 43.4775 12.2024 43.4413C12.2507 43.2971 12.3089 43.1542 12.3995 43.0166H12.3982Z" fill="#0E0E0E"/>
<path d="M8.34579 47.2885C8.23395 47.675 8.15785 48.072 8.09234 48.4724L8.06653 48.6218L8.06323 48.6403L8.0619 48.6495V48.6541V48.6528C8.06455 48.6488 8.06587 48.6436 8.06521 48.6376C8.06521 48.633 8.0619 48.6251 8.06124 48.6225L8.09036 48.6468C8.16712 48.7127 8.24586 48.7772 8.32196 48.8437C8.39806 48.9102 8.47284 48.9787 8.54629 49.0478L8.65548 49.1525L8.66871 49.1657C8.66871 49.1657 8.67003 49.1664 8.66871 49.165L8.66474 49.1617C8.66474 49.1617 8.65945 49.1571 8.65614 49.1552C8.64356 49.1466 8.62768 49.1413 8.61312 49.1407C8.58401 49.1387 8.55423 49.1506 8.53504 49.1762C8.52578 49.1854 8.51784 49.2151 8.52578 49.1914L8.53703 49.1552L8.55952 49.0834C8.57475 49.0353 8.59195 48.9879 8.60783 48.9398C8.64092 48.8444 8.67533 48.7502 8.71172 48.6561C8.78584 48.4684 8.86458 48.2814 8.94531 48.0957L8.96053 48.0608L8.9645 48.0523H8.96517C8.96517 48.0523 8.96649 48.0529 8.96715 48.0523C8.96847 48.0523 8.9698 48.051 8.97046 48.0497C8.96781 48.0437 8.95855 48.0292 8.95325 48.0194L8.87649 47.8883C8.82422 47.8021 8.7726 47.7145 8.719 47.6289C8.6654 47.5433 8.60982 47.459 8.55357 47.3754C8.52445 47.3346 8.49798 47.2905 8.46622 47.2529C8.42916 47.2167 8.35836 47.2365 8.34512 47.2878L8.34579 47.2885ZM8.34579 47.2885C8.35703 47.2371 8.42916 47.2141 8.46887 47.2516C8.50261 47.2898 8.53173 47.3306 8.5635 47.3702C8.62636 47.4492 8.69055 47.5269 8.75672 47.6039C8.82223 47.6809 8.89105 47.7553 8.95789 47.8311L9.06046 47.943C9.06972 47.9535 9.07568 47.9588 9.08825 47.9733C9.10281 47.9924 9.11273 48.0161 9.1167 48.0411C9.11869 48.0536 9.11869 48.0661 9.1167 48.0786C9.11604 48.0852 9.11472 48.0911 9.11339 48.0977L9.11141 48.1076L9.10413 48.1451C9.06773 48.3446 9.02869 48.5428 8.98502 48.7403C8.96252 48.8391 8.9387 48.9366 8.91289 49.034C8.89965 49.0827 8.88708 49.1315 8.87252 49.1795L8.84076 49.2882C8.83878 49.2947 8.83944 49.2961 8.83017 49.3198C8.82289 49.3382 8.81297 49.356 8.80106 49.3724C8.75209 49.4389 8.6707 49.4745 8.59063 49.4686C8.55026 49.4659 8.5099 49.4528 8.47681 49.4304C8.46821 49.4251 8.46026 49.4192 8.45298 49.4126L8.44174 49.4027L8.43446 49.3955L8.42122 49.3817L8.31865 49.2704C8.2505 49.196 8.18432 49.1203 8.11881 49.0426C8.0533 48.9649 7.99044 48.8859 7.92625 48.8082L7.90242 48.7785C7.8839 48.7588 7.86669 48.7285 7.86007 48.6995C7.8528 48.6699 7.8528 48.6389 7.86007 48.61L7.86338 48.5994L7.86537 48.5948L7.86868 48.5863L7.93353 48.4276C8.08969 48.0536 8.23528 47.6763 8.34512 47.2892L8.34579 47.2885Z" fill="#0E0E0E"/>
<path d="M8.38814 47.141C8.3213 47.1996 8.2505 47.247 8.17903 47.2925C8.1433 47.3142 8.1069 47.3359 8.07051 47.3557L8.04337 47.3708L8.03676 47.3741C8.03676 47.3741 8.03874 47.3741 8.0394 47.3741C8.04205 47.3741 8.04536 47.3734 8.04801 47.3721C8.05396 47.3702 8.05992 47.3669 8.06455 47.3623L8.06852 47.3583C8.06852 47.3583 8.07117 47.3544 8.06984 47.3583L8.06587 47.3734C8.02485 47.5328 7.97191 47.6875 7.90838 47.8376L7.85875 47.9496L7.81243 48.0464L7.80912 48.053C7.80912 48.053 7.81044 48.049 7.81044 48.047C7.81309 48.0365 7.81309 48.0253 7.81177 48.0148C7.81111 48.0095 7.80912 48.0042 7.80714 47.9996C7.80581 47.9957 7.80052 47.9858 7.80449 47.995C7.81177 48.0141 7.81839 48.0339 7.825 48.053C7.83824 48.0918 7.85081 48.1306 7.86272 48.1701C7.90838 48.3288 7.94544 48.4915 7.95139 48.6679C7.81971 48.5494 7.71846 48.4164 7.62648 48.2794C7.60398 48.2452 7.58149 48.2103 7.56031 48.1754C7.54972 48.1576 7.53847 48.1405 7.52855 48.1227C7.52855 48.1227 7.51862 48.1036 7.51399 48.0898C7.5087 48.0753 7.50539 48.0602 7.5034 48.0444C7.49943 48.0134 7.50208 47.9818 7.51068 47.9515L7.52524 47.9094L7.53583 47.8804L7.557 47.8232L7.60266 47.7099C7.66619 47.5598 7.7403 47.4143 7.82566 47.2734L7.8336 47.2602L7.84155 47.2464C7.84485 47.2404 7.84882 47.2345 7.8528 47.2293C7.86868 47.2075 7.88919 47.1891 7.91235 47.1759C7.9236 47.1693 7.93551 47.1641 7.94808 47.1595C7.95338 47.1575 7.96264 47.1549 7.96529 47.1549L7.97323 47.1535L8.00433 47.1502C8.04602 47.145 8.08771 47.1417 8.1294 47.139C8.2141 47.1344 8.2988 47.1318 8.38814 47.141Z" fill="#0E0E0E"/>
<path d="M5.29057 43.5243C5.46064 43.4452 5.62739 43.3603 5.79084 43.2681C5.8729 43.222 5.95296 43.1733 6.03436 43.1259L6.09457 43.0897C6.11575 43.0778 6.12965 43.0647 6.16604 43.0508C6.23089 43.0271 6.30964 43.0377 6.36919 43.0825C6.52536 43.1931 6.67624 43.3024 6.82579 43.4169C6.8999 43.4742 6.97269 43.5335 7.04482 43.5934L7.09842 43.6388L7.12489 43.6619C7.13085 43.6671 7.13085 43.6665 7.14077 43.6764C7.14937 43.6849 7.15798 43.6941 7.16592 43.7027C7.23143 43.7804 7.2526 43.8936 7.22217 43.9878C7.19437 44.0826 7.10901 44.1636 7.01173 44.1886C7.00115 44.1912 6.98526 44.1952 6.97799 44.1959L6.96078 44.1985L6.92571 44.2031L6.85623 44.2123C6.76292 44.2242 6.66962 44.2347 6.57632 44.2433C6.48301 44.2518 6.38838 44.2571 6.29442 44.2637C6.24744 44.267 6.20045 44.2689 6.15281 44.2716L6.13296 44.2729C6.12303 44.2736 6.1131 44.2736 6.10318 44.2729C6.08333 44.2722 6.06414 44.2683 6.04561 44.263C6.02708 44.2571 6.00987 44.2492 5.99333 44.2393L5.96421 44.2196C5.80805 44.1136 5.65122 44.0095 5.49174 43.9101C5.45137 43.8857 5.41167 43.8607 5.3713 43.8377C5.3316 43.812 5.28925 43.7942 5.25087 43.7626C5.21447 43.729 5.19991 43.6783 5.20719 43.6316C5.21447 43.5848 5.2469 43.5434 5.28925 43.5243H5.29057ZM5.29057 43.5243C5.24822 43.5447 5.21712 43.5862 5.21116 43.6322C5.20455 43.6783 5.2244 43.7257 5.25947 43.7541C5.27601 43.7685 5.29785 43.7764 5.31969 43.7863L5.38388 43.8146C5.42623 43.8337 5.4699 43.8515 5.51358 43.8699C5.68761 43.941 5.86363 44.0075 6.04098 44.0721L6.07406 44.0846C6.07869 44.0852 6.08333 44.0852 6.08796 44.0846C6.09259 44.0846 6.09656 44.0833 6.10053 44.082C6.10252 44.0813 6.1045 44.0806 6.10582 44.0793C6.10649 44.0787 6.11575 44.076 6.12038 44.0747C6.16538 44.0615 6.21104 44.0477 6.25604 44.0352C6.34669 44.0108 6.43735 43.9845 6.52867 43.9615C6.61999 43.9384 6.71131 43.9173 6.80329 43.8982L6.92439 43.8732C6.91777 43.8732 6.9085 43.8824 6.90718 43.8877C6.9052 43.8923 6.90718 43.9042 6.91314 43.9088L6.8291 43.8265C6.76226 43.7606 6.69741 43.6935 6.63322 43.625C6.50617 43.488 6.38044 43.3452 6.26001 43.2043C6.24942 43.1871 6.22626 43.174 6.20045 43.1753C6.19185 43.174 6.16406 43.1852 6.14288 43.1918L6.07605 43.2141C5.98737 43.2457 5.89804 43.2747 5.81003 43.3076C5.63401 43.3728 5.46064 43.4446 5.29057 43.5229V43.5243Z" fill="#0E0E0E"/>
<path d="M2.10698 40.6647C2.09838 40.7746 2.09706 40.8846 2.10301 40.9952C2.10566 41.0505 2.11095 41.1065 2.11625 41.1618L2.12088 41.2033C2.12154 41.2184 2.12617 41.2263 2.12287 41.256C2.11691 41.3047 2.08316 41.3527 2.03287 41.3758C1.93162 41.4324 1.83567 41.4877 1.73443 41.5358C1.68414 41.5602 1.63318 41.5825 1.58223 41.603L1.54385 41.6181L1.52466 41.6253C1.52003 41.6273 1.52201 41.6267 1.51143 41.63C1.50216 41.6326 1.49224 41.6352 1.48231 41.6372C1.40092 41.653 1.31158 41.622 1.25798 41.5634C1.2024 41.5062 1.17857 41.4133 1.19975 41.3356C1.20174 41.3271 1.20571 41.3146 1.20769 41.31L1.21166 41.3001L1.2196 41.281L1.23615 41.2428C1.25798 41.1921 1.28247 41.1421 1.30827 41.0933C1.33342 41.0439 1.36121 40.9952 1.38967 40.9472L1.43334 40.8754C1.43533 40.8714 1.43599 40.8714 1.43996 40.8642C1.44327 40.8576 1.44724 40.851 1.45121 40.8451C1.45915 40.8326 1.46907 40.8214 1.47966 40.8122C1.49025 40.803 1.50216 40.7944 1.51473 40.7878L1.53459 40.7799C1.63914 40.7384 1.74435 40.697 1.84494 40.6489C1.89655 40.6258 1.94221 40.5975 1.99515 40.5738C2.05404 40.556 2.11559 40.6081 2.10765 40.6653L2.10698 40.6647ZM2.10698 40.6647C2.10831 40.637 2.09573 40.6094 2.0739 40.5936C2.05206 40.5771 2.02162 40.5745 1.99846 40.5844C1.95412 40.6114 1.91111 40.6509 1.86942 40.6858C1.78472 40.7582 1.70531 40.8379 1.62524 40.9175L1.61002 40.932C1.61002 40.932 1.61201 40.934 1.61399 40.934C1.61532 40.934 1.6173 40.934 1.61863 40.934H1.62127C1.62127 40.934 1.62127 40.9393 1.62061 40.9412L1.60804 41.0242C1.59877 41.0795 1.58885 41.1342 1.57694 41.1888C1.56503 41.2428 1.55179 41.2968 1.53657 41.3495L1.51804 41.4127C1.52532 41.3876 1.51672 41.3554 1.50018 41.3376C1.48363 41.3192 1.45253 41.3086 1.42606 41.3146C1.42342 41.3146 1.42011 41.3159 1.41746 41.3165C1.41349 41.3185 1.42209 41.3152 1.42408 41.3152L1.44393 41.31L1.48429 41.2994C1.53789 41.2862 1.59216 41.2744 1.64708 41.2645C1.75627 41.2441 1.87075 41.2316 1.97927 41.2197C1.98125 41.225 1.98986 41.2276 1.99647 41.223C1.99978 41.225 2.00375 41.2059 2.00772 41.1934L2.01897 41.1526C2.03353 41.0986 2.04743 41.0446 2.05868 40.99C2.0825 40.8813 2.09838 40.7727 2.10765 40.6627L2.10698 40.6647Z" fill="#0E0E0E"/>
<path d="M5.81863 37.5312C5.92848 37.5411 6.03965 37.5437 6.15082 37.5391C6.20641 37.5371 6.26266 37.5332 6.31824 37.5279L6.36059 37.524C6.37581 37.5233 6.38441 37.5187 6.41353 37.5227C6.4625 37.5292 6.51014 37.5635 6.53264 37.6142C6.58823 37.7156 6.64249 37.8117 6.68947 37.9131C6.71329 37.9631 6.73513 38.0145 6.75498 38.0659L6.76954 38.1047L6.77682 38.1238C6.77814 38.1284 6.77814 38.1264 6.78145 38.137C6.7841 38.1462 6.78608 38.1561 6.78807 38.1659C6.80263 38.2469 6.77086 38.3352 6.71131 38.3885C6.65308 38.4431 6.55977 38.4655 6.48169 38.4438C6.47309 38.4412 6.46051 38.4372 6.45588 38.4352L6.44596 38.4313L6.42676 38.4227L6.38905 38.4063C6.33875 38.3839 6.28846 38.3595 6.23949 38.3332C6.19053 38.3075 6.14156 38.2792 6.09325 38.2502L6.02112 38.2061C6.01715 38.2041 6.01715 38.2035 6.00987 38.1995C6.00326 38.1962 5.99664 38.1923 5.99068 38.1883C5.97811 38.1798 5.96752 38.1699 5.9576 38.1594C5.94767 38.1488 5.93973 38.1363 5.93377 38.1238L5.92583 38.104C5.88547 37.9994 5.84576 37.894 5.79812 37.7939C5.77562 37.7426 5.74783 37.6971 5.72467 37.6431C5.70746 37.5845 5.76106 37.524 5.81797 37.5325L5.81863 37.5312ZM5.81863 37.5312C5.79084 37.5292 5.76305 37.5418 5.7465 37.5635C5.72996 37.5852 5.72665 37.6148 5.73658 37.6385C5.76305 37.6827 5.80209 37.7261 5.83716 37.7682C5.90863 37.8532 5.98804 37.9335 6.06678 38.0138L6.08134 38.029C6.08134 38.029 6.08333 38.027 6.08399 38.025C6.08399 38.0237 6.08465 38.0217 6.08399 38.0204V38.0178C6.08399 38.0178 6.08928 38.0178 6.09127 38.0185L6.17464 38.0323C6.23023 38.0422 6.28515 38.0527 6.33942 38.0652C6.39368 38.0777 6.44728 38.0915 6.50088 38.1073L6.5644 38.1271C6.53992 38.1192 6.50683 38.1271 6.48897 38.1442C6.47044 38.1607 6.45919 38.191 6.46514 38.2173C6.46514 38.2199 6.46581 38.2232 6.46713 38.2259C6.46845 38.2298 6.46647 38.2212 6.46581 38.2193L6.46051 38.1995L6.45059 38.1594C6.43801 38.1054 6.42676 38.0514 6.4175 37.9967C6.39831 37.8881 6.38706 37.7742 6.37647 37.6655C6.38177 37.6636 6.38441 37.6557 6.37978 37.6484C6.38177 37.6451 6.36258 37.6412 6.35 37.6372L6.30964 37.6254C6.25538 37.6102 6.20111 37.5957 6.14685 37.5839C6.03833 37.5589 5.92848 37.5418 5.81863 37.5312Z" fill="#0E0E0E"/>
<path d="M11.5208 51.2793C11.5671 51.3418 11.6187 51.3998 11.6769 51.4531C11.7087 51.4801 11.7365 51.5275 11.7398 51.5802C11.7444 51.6328 11.7259 51.6934 11.6822 51.7382C11.6326 51.8021 11.5836 51.8666 11.5294 51.9239C11.5261 51.9285 11.5075 51.9443 11.4917 51.9548C11.4751 51.966 11.4572 51.9752 11.4381 51.9818C11.4003 51.9956 11.3586 52.0029 11.3176 51.9989C11.2356 51.9937 11.1548 51.9495 11.1052 51.8817C11.0595 51.8192 11.0192 51.7527 10.9854 51.6816C10.9834 51.6763 10.9709 51.6559 10.9643 51.6388C10.957 51.621 10.9517 51.6026 10.9484 51.5841C10.9418 51.5472 10.9444 51.5097 10.953 51.4755C10.9715 51.407 11.0205 51.3517 11.0767 51.3247C11.1528 51.297 11.2296 51.27 11.3004 51.2358C11.3785 51.191 11.4764 51.2147 11.5208 51.2786V51.2793ZM11.5208 51.2793C11.4976 51.2483 11.4599 51.2286 11.4222 51.2286C11.3838 51.2286 11.3507 51.245 11.3275 51.2733C11.2733 51.3306 11.2243 51.3951 11.1747 51.459C11.1674 51.4781 11.1747 51.4952 11.1839 51.5038C11.1886 51.5077 11.1945 51.5097 11.1985 51.5097C11.2005 51.5097 11.2031 51.5097 11.2051 51.5084C11.2078 51.5084 11.2064 51.5038 11.2157 51.5137C11.2739 51.5677 11.3256 51.6256 11.3712 51.6881C11.3672 51.6835 11.3593 51.6809 11.3547 51.6849C11.352 51.6855 11.3507 51.6895 11.3494 51.6921C11.3494 51.6934 11.3494 51.6954 11.3494 51.6967C11.3507 51.698 11.3481 51.702 11.36 51.6954C11.4314 51.6612 11.5075 51.6342 11.5836 51.6065C11.6035 51.6065 11.6273 51.5933 11.6405 51.569C11.6538 51.5446 11.6564 51.5123 11.6392 51.4794C11.6055 51.4083 11.5651 51.3418 11.5194 51.2786L11.5208 51.2793Z" fill="#0E0E0E"/>
<path d="M5.18006 40.5811C5.22638 40.6436 5.278 40.7016 5.33623 40.7549C5.36799 40.7826 5.39579 40.8293 5.3991 40.882C5.40373 40.9347 5.3852 40.9952 5.34153 41.04C5.2919 41.1039 5.24293 41.1684 5.18867 41.2257C5.18536 41.2303 5.16683 41.2461 5.15095 41.2566C5.1344 41.2678 5.11654 41.277 5.09735 41.2836C5.05963 41.2974 5.01794 41.3047 4.97691 41.3007C4.89486 41.2955 4.81413 41.2514 4.7645 41.1835C4.71884 41.121 4.67847 41.0545 4.64472 40.9834C4.64274 40.9781 4.63016 40.9577 4.62355 40.9406C4.61627 40.9228 4.61097 40.9044 4.60767 40.8859C4.60039 40.8491 4.60369 40.8115 4.6123 40.7773C4.63083 40.7088 4.67979 40.6535 4.73604 40.6265C4.81214 40.5989 4.8889 40.5719 4.95971 40.5376C5.03779 40.4928 5.13573 40.5165 5.18006 40.5804V40.5811ZM5.18006 40.5811C5.1569 40.5501 5.11918 40.5304 5.08147 40.5304C5.04309 40.5304 5.01 40.5468 4.98684 40.5751C4.93258 40.6324 4.88361 40.697 4.83398 40.7608C4.8267 40.7799 4.83398 40.797 4.84324 40.8056C4.84787 40.8095 4.85383 40.8115 4.8578 40.8115C4.85979 40.8115 4.86243 40.8115 4.86442 40.8102C4.86706 40.8102 4.86574 40.8056 4.875 40.8155C4.93324 40.8695 4.98485 40.9274 5.03051 40.99C5.02654 40.9853 5.0186 40.9827 5.01397 40.9867C5.01132 40.9873 5.01 40.9913 5.00868 40.9939C5.00868 40.9952 5.00868 40.9972 5.00868 40.9985C5.01 40.9998 5.00735 41.0038 5.01926 40.9972C5.09073 40.963 5.16683 40.936 5.24293 40.9083C5.26278 40.9083 5.2866 40.8951 5.29984 40.8708C5.31307 40.8464 5.31572 40.8142 5.29851 40.7812C5.26476 40.7101 5.2244 40.6436 5.17874 40.5804L5.18006 40.5811Z" fill="#0E0E0E"/>
<path d="M13.2691 33.6504C13.3154 33.713 13.367 33.7709 13.4252 33.8242C13.457 33.8519 13.4848 33.8987 13.4881 33.9513C13.4927 34.004 13.4742 34.0646 13.4305 34.1094C13.3809 34.1732 13.3319 34.2377 13.2777 34.295C13.2744 34.2996 13.2558 34.3154 13.2399 34.326C13.2234 34.3372 13.2055 34.3464 13.1863 34.353C13.1486 34.3668 13.1069 34.374 13.0659 34.3701C12.9839 34.3648 12.9031 34.3207 12.8535 34.2529C12.8078 34.1903 12.7675 34.1238 12.7337 34.0527C12.7317 34.0475 12.7192 34.027 12.7125 34.0099C12.7053 33.9921 12.7 33.9737 12.6967 33.9553C12.6894 33.9184 12.6927 33.8809 12.7013 33.8466C12.7198 33.7782 12.7688 33.7229 12.825 33.6959C12.9011 33.6682 12.9779 33.6412 13.0487 33.607C13.1268 33.5622 13.2247 33.5859 13.2691 33.6498V33.6504ZM13.2691 33.6504C13.2459 33.6195 13.2082 33.5997 13.1705 33.5997C13.1321 33.5997 13.099 33.6162 13.0758 33.6445C13.0216 33.7018 12.9726 33.7663 12.923 33.8302C12.9157 33.8493 12.923 33.8664 12.9322 33.875C12.9369 33.8789 12.9428 33.8809 12.9468 33.8809C12.9488 33.8809 12.9514 33.8809 12.9534 33.8796C12.9561 33.8796 12.9547 33.875 12.964 33.8848C13.0222 33.9388 13.0739 33.9968 13.1195 34.0593C13.1155 34.0547 13.1076 34.0521 13.103 34.056C13.1003 34.0567 13.099 34.0606 13.0977 34.0633C13.0977 34.0646 13.0977 34.0666 13.0977 34.0679C13.099 34.0692 13.0964 34.0731 13.1083 34.0666C13.1797 34.0323 13.2558 34.0053 13.3319 33.9777C13.3518 33.9777 13.3756 33.9645 13.3888 33.9401C13.4021 33.9158 13.4047 33.8835 13.3875 33.8506C13.3538 33.7795 13.3134 33.713 13.2677 33.6498L13.2691 33.6504Z" fill="#0E0E0E"/>
<path d="M0.576399 36.7582C0.622721 36.8208 0.674336 36.8787 0.732568 36.932C0.764331 36.9597 0.792124 37.0065 0.795432 37.0591C0.800065 37.1118 0.781536 37.1724 0.737862 37.2171C0.688232 37.281 0.639264 37.3455 0.585002 37.4028C0.581693 37.4074 0.563165 37.4232 0.547283 37.4338C0.53074 37.445 0.512873 37.4542 0.493683 37.4608C0.455964 37.4746 0.414275 37.4818 0.373248 37.4779C0.291193 37.4726 0.210462 37.4285 0.160832 37.3607C0.115173 37.2981 0.0748072 37.2316 0.0410589 37.1605C0.0390738 37.1553 0.0265009 37.1348 0.0198836 37.1177C0.0126045 37.0999 0.00731066 37.0815 0.004002 37.0631C-0.00327704 37.0262 3.16159e-05 36.9887 0.00863412 36.9544C0.0271626 36.886 0.0761307 36.8306 0.132378 36.8036C0.208477 36.776 0.285238 36.749 0.356043 36.7148C0.434127 36.67 0.532063 36.6937 0.576399 36.7576V36.7582ZM0.576399 36.7582C0.553239 36.7273 0.51552 36.7075 0.477801 36.7075C0.439421 36.7075 0.406335 36.724 0.383174 36.7523C0.328912 36.8096 0.279944 36.8741 0.230314 36.938C0.223035 36.9571 0.230314 36.9742 0.239578 36.9827C0.24421 36.9867 0.250166 36.9887 0.254136 36.9887C0.256122 36.9887 0.258768 36.9887 0.260754 36.9874C0.263401 36.9874 0.262077 36.9827 0.271341 36.9926C0.329574 37.0466 0.381189 37.1046 0.426848 37.1671C0.422878 37.1625 0.414937 37.1599 0.410305 37.1638C0.407658 37.1645 0.406335 37.1684 0.405011 37.1711C0.405011 37.1724 0.405011 37.1744 0.405011 37.1757C0.406335 37.177 0.403688 37.1809 0.415599 37.1743C0.487066 37.1401 0.563165 37.1131 0.639264 37.0855C0.659116 37.0855 0.682938 37.0723 0.696173 37.0479C0.709407 37.0236 0.712054 36.9913 0.694849 36.9584C0.661101 36.8873 0.620735 36.8208 0.575076 36.7576L0.576399 36.7582Z" fill="#0E0E0E"/>
<path d="M8.16315 29.0566C8.20947 29.1191 8.26108 29.177 8.31932 29.2304C8.35108 29.258 8.37887 29.3048 8.38218 29.3575C8.38681 29.4101 8.36828 29.4707 8.32461 29.5155C8.27498 29.5793 8.22601 29.6439 8.17175 29.7012C8.16844 29.7058 8.14991 29.7216 8.13403 29.7321C8.11749 29.7433 8.09962 29.7525 8.08043 29.7591C8.04271 29.7729 8.00102 29.7802 7.96 29.7762C7.87794 29.7709 7.79721 29.7268 7.74758 29.659C7.70192 29.5965 7.66155 29.53 7.62781 29.4589C7.62582 29.4536 7.61325 29.4332 7.60663 29.4161C7.59935 29.3983 7.59406 29.3798 7.59075 29.3614C7.58413 29.3245 7.58678 29.287 7.59538 29.2528C7.61391 29.1843 7.66288 29.129 7.71913 29.102C7.79522 29.0743 7.87199 29.0473 7.94279 29.0131C8.02087 28.9683 8.11881 28.992 8.16315 29.0559V29.0566ZM8.16315 29.0566C8.13999 29.0256 8.10227 29.0058 8.06455 29.0058C8.02617 29.0058 7.99308 29.0223 7.96992 29.0506C7.91566 29.1079 7.86669 29.1724 7.81706 29.2363C7.80978 29.2554 7.81706 29.2725 7.82633 29.2811C7.83096 29.285 7.83691 29.287 7.84088 29.287C7.84287 29.287 7.84552 29.287 7.8475 29.2857C7.85015 29.2857 7.84882 29.2811 7.85809 29.291C7.91632 29.3449 7.96794 29.4029 8.0136 29.4654C8.00963 29.4608 8.00168 29.4582 7.99705 29.4621C7.99441 29.4628 7.99308 29.4668 7.99176 29.4694C7.99176 29.4707 7.99176 29.4727 7.99176 29.474C7.99308 29.4753 7.99044 29.4793 8.00235 29.4727C8.07381 29.4384 8.14991 29.4114 8.22601 29.3838C8.24586 29.3838 8.26969 29.3706 8.28292 29.3463C8.29615 29.3219 8.2988 29.2896 8.2816 29.2567C8.24785 29.1856 8.20748 29.1191 8.16182 29.0559L8.16315 29.0566Z" fill="#0E0E0E"/>
<path d="M4.8439 35.124C4.89022 35.1865 4.94184 35.2445 5.00007 35.2978C5.03184 35.3255 5.05963 35.3722 5.06294 35.4249C5.06757 35.4776 5.04904 35.5381 5.00537 35.5829C4.95574 35.6468 4.90677 35.7113 4.85251 35.7686C4.8492 35.7732 4.83067 35.789 4.81479 35.7995C4.79824 35.8107 4.78038 35.82 4.76119 35.8265C4.72347 35.8404 4.68178 35.8476 4.64075 35.8437C4.5587 35.8384 4.47797 35.7943 4.42834 35.7265C4.38268 35.6639 4.34231 35.5974 4.30856 35.5263C4.30658 35.521 4.29401 35.5006 4.28739 35.4835C4.28011 35.4657 4.27482 35.4473 4.27151 35.4288C4.26423 35.392 4.26754 35.3544 4.27614 35.3202C4.29467 35.2517 4.34364 35.1964 4.39988 35.1694C4.47598 35.1418 4.55274 35.1148 4.62355 35.0805C4.70163 35.0358 4.79957 35.0595 4.8439 35.1233V35.124ZM4.8439 35.124C4.82074 35.093 4.78302 35.0733 4.74531 35.0733C4.70693 35.0733 4.67384 35.0898 4.65068 35.1181C4.59642 35.1754 4.54745 35.2399 4.49782 35.3037C4.49054 35.3228 4.49782 35.34 4.50708 35.3485C4.51171 35.3525 4.51767 35.3544 4.52164 35.3544C4.52363 35.3544 4.52627 35.3544 4.52826 35.3531C4.5309 35.3531 4.52958 35.3485 4.53885 35.3584C4.59708 35.4124 4.64869 35.4703 4.69435 35.5329C4.69038 35.5283 4.68244 35.5256 4.67781 35.5296C4.67516 35.5302 4.67384 35.5342 4.67252 35.5368C4.67252 35.5381 4.67252 35.5401 4.67252 35.5414C4.67384 35.5428 4.67119 35.5467 4.6831 35.5401C4.75457 35.5059 4.83067 35.4789 4.90677 35.4512C4.92662 35.4512 4.95044 35.4381 4.96368 35.4137C4.97691 35.3893 4.97956 35.3571 4.96235 35.3242C4.92861 35.253 4.88824 35.1865 4.84258 35.1233L4.8439 35.124Z" fill="#0E0E0E"/>
<path d="M12.2619 46.3614C12.3082 46.424 12.3598 46.4819 12.4181 46.5353C12.4498 46.5629 12.4776 46.6097 12.4809 46.6623C12.4856 46.715 12.467 46.7756 12.4234 46.8204C12.3737 46.8842 12.3248 46.9488 12.2705 47.006C12.2672 47.0107 12.2487 47.0265 12.2328 47.037C12.2163 47.0482 12.1984 47.0574 12.1792 47.064C12.1415 47.0778 12.0998 47.0851 12.0588 47.0811C11.9767 47.0758 11.896 47.0317 11.8463 46.9639C11.8007 46.9014 11.7603 46.8349 11.7266 46.7637C11.7246 46.7585 11.712 46.7381 11.7054 46.7209C11.6981 46.7032 11.6928 46.6847 11.6895 46.6663C11.6822 46.6294 11.6855 46.5919 11.6941 46.5577C11.7127 46.4892 11.7616 46.4339 11.8179 46.4069C11.894 46.3792 11.9707 46.3522 12.0416 46.318C12.1196 46.2732 12.2176 46.2969 12.2619 46.3608V46.3614ZM12.2619 46.3614C12.2387 46.3305 12.201 46.3107 12.1633 46.3107C12.1249 46.3107 12.0918 46.3272 12.0687 46.3555C12.0144 46.4128 11.9655 46.4773 11.9158 46.5412C11.9085 46.5603 11.9158 46.5774 11.9251 46.586C11.9297 46.5899 11.9357 46.5919 11.9396 46.5919C11.9416 46.5919 11.9443 46.5919 11.9463 46.5906C11.9489 46.5906 11.9476 46.586 11.9569 46.5958C12.0151 46.6498 12.0667 46.7078 12.1124 46.7703C12.1084 46.7657 12.1004 46.7631 12.0958 46.767C12.0932 46.7677 12.0918 46.7716 12.0905 46.7743C12.0905 46.7756 12.0905 46.7776 12.0905 46.7789C12.0918 46.7802 12.0892 46.7842 12.1011 46.7776C12.1726 46.7433 12.2487 46.7163 12.3248 46.6887C12.3446 46.6887 12.3684 46.6755 12.3817 46.6511C12.3949 46.6268 12.3976 46.5945 12.3804 46.5616C12.3466 46.4905 12.3062 46.424 12.2606 46.3608L12.2619 46.3614Z" fill="#0E0E0E"/>
<path d="M15.329 41.1947C15.3754 41.2573 15.427 41.3152 15.4852 41.3686C15.517 41.3962 15.5448 41.443 15.5481 41.4956C15.5527 41.5483 15.5342 41.6089 15.4905 41.6537C15.4409 41.7175 15.3919 41.782 15.3376 41.8393C15.3343 41.8439 15.3158 41.8597 15.2999 41.8703C15.2834 41.8815 15.2655 41.8907 15.2463 41.8973C15.2086 41.9111 15.1669 41.9183 15.1259 41.9144C15.0438 41.9091 14.9631 41.865 14.9135 41.7972C14.8678 41.7346 14.8274 41.6681 14.7937 41.597C14.7917 41.5918 14.7791 41.5714 14.7725 41.5542C14.7652 41.5365 14.7599 41.518 14.7566 41.4996C14.7494 41.4627 14.7527 41.4252 14.7613 41.3909C14.7798 41.3225 14.8288 41.2672 14.885 41.2402C14.9611 41.2125 15.0379 41.1855 15.1087 41.1513C15.1868 41.1065 15.2847 41.1302 15.329 41.1941V41.1947ZM15.329 41.1947C15.3059 41.1638 15.2682 41.144 15.2304 41.144C15.1921 41.144 15.159 41.1605 15.1358 41.1888C15.0815 41.2461 15.0326 41.3106 14.9829 41.3745C14.9757 41.3936 14.9829 41.4107 14.9922 41.4193C14.9968 41.4232 15.0028 41.4252 15.0068 41.4252C15.0088 41.4252 15.0114 41.4252 15.0134 41.4239C15.016 41.4239 15.0147 41.4193 15.024 41.4291C15.0822 41.4831 15.1338 41.5411 15.1795 41.6036C15.1755 41.599 15.1676 41.5964 15.1629 41.6003C15.1603 41.601 15.159 41.6049 15.1576 41.6076C15.1576 41.6089 15.1576 41.6109 15.1576 41.6122C15.159 41.6135 15.1563 41.6174 15.1682 41.6109C15.2397 41.5766 15.3158 41.5496 15.3919 41.522C15.4118 41.522 15.4356 41.5088 15.4488 41.4844C15.462 41.4601 15.4647 41.4278 15.4475 41.3949C15.4137 41.3238 15.3734 41.2573 15.3277 41.1941L15.329 41.1947Z" fill="#0E0E0E"/>
<path d="M2.41072 46.0217C2.46498 45.9618 2.51461 45.8972 2.55828 45.8281C2.58012 45.7932 2.60063 45.7577 2.62049 45.7208L2.62843 45.7063C2.63372 45.6984 2.64034 45.6912 2.64828 45.6846C2.66416 45.6714 2.68467 45.6622 2.70585 45.6589C2.74886 45.6523 2.79717 45.6688 2.82827 45.7089C2.84349 45.728 2.85342 45.7557 2.85672 45.7761L2.86665 45.8057L2.88584 45.8656C2.89775 45.9051 2.909 45.9453 2.91827 45.9855C2.93679 46.0651 2.94804 46.1455 2.95201 46.2265C2.95334 46.2666 2.954 46.3068 2.95201 46.3476V46.3746C2.95069 46.3937 2.94672 46.4121 2.94076 46.4299C2.92885 46.4655 2.90702 46.4971 2.87922 46.5214C2.86533 46.5333 2.85011 46.5438 2.83356 46.5517C2.81901 46.5596 2.7932 46.5669 2.79386 46.5655L2.76342 46.5695C2.72239 46.5748 2.68137 46.5787 2.63968 46.5813L2.57681 46.584C2.5735 46.5827 2.53976 46.5912 2.51395 46.5866C2.48748 46.5833 2.46366 46.5728 2.4438 46.557C2.42461 46.5418 2.40939 46.5214 2.40079 46.4997C2.39682 46.4885 2.39351 46.4773 2.39285 46.4661C2.39219 46.4595 2.39285 46.4562 2.39285 46.4543V46.4464L2.39947 46.3838C2.40278 46.3423 2.40542 46.3009 2.40542 46.26C2.40609 46.2192 2.40476 46.1784 2.40145 46.1382C2.39947 46.1178 2.39815 46.0981 2.3955 46.0777C2.39087 46.0579 2.3955 46.0355 2.41006 46.021L2.41072 46.0217ZM2.41072 46.0217C2.39682 46.0368 2.39351 46.0586 2.39947 46.0777C2.40344 46.0974 2.40939 46.1172 2.41403 46.1362C2.42461 46.1751 2.43653 46.2139 2.45108 46.2528C2.46498 46.2916 2.48086 46.3298 2.49807 46.3674L2.52454 46.424L2.52784 46.4312C2.52784 46.4312 2.53049 46.4358 2.53049 46.4345C2.53182 46.4332 2.53248 46.4312 2.53314 46.4293C2.53446 46.4253 2.5338 46.42 2.53181 46.4154C2.52983 46.4108 2.5252 46.4062 2.51924 46.4036C2.51395 46.4003 2.50005 46.4016 2.51593 46.3937L2.56887 46.3595C2.60461 46.3377 2.64034 46.316 2.67673 46.2969L2.70387 46.2824C2.71379 46.2785 2.69791 46.2824 2.69262 46.2851C2.68534 46.2883 2.67806 46.2923 2.67144 46.2976C2.65821 46.3081 2.64762 46.3219 2.64166 46.3384C2.63835 46.3463 2.63637 46.3549 2.63571 46.3641V46.3707C2.63571 46.3707 2.63571 46.3687 2.63504 46.368V46.3608C2.62843 46.3206 2.62578 46.2804 2.62313 46.2403C2.61983 46.16 2.6238 46.079 2.63504 45.9973C2.64034 45.9565 2.64828 45.9163 2.65688 45.8755L2.67078 45.8143L2.67806 45.784C2.67806 45.784 2.68467 45.7919 2.68997 45.7939C2.70056 45.7991 2.7085 45.7939 2.71048 45.7893C2.71181 45.7866 2.71247 45.7833 2.71048 45.7807C2.70982 45.7794 2.7085 45.7787 2.70717 45.7781C2.70387 45.7794 2.69857 45.7833 2.6946 45.786C2.65953 45.809 2.62578 45.8321 2.59269 45.8571C2.52718 45.9065 2.46697 45.9611 2.41204 46.0204L2.41072 46.0217Z" fill="#0E0E0E"/>
<path d="M9.66858 33.3462C9.83468 33.4252 9.97563 33.526 10.11 33.634C10.1768 33.688 10.241 33.7446 10.3025 33.8032C10.3336 33.8321 10.3634 33.8624 10.3938 33.8927L10.4038 33.9026L10.4137 33.9145C10.4269 33.9309 10.4375 33.9493 10.4455 33.9691C10.4534 33.9889 10.458 34.0093 10.46 34.0303L10.4613 34.0527L10.4653 34.1159C10.4732 34.2851 10.4693 34.455 10.4527 34.6256L10.4494 34.6578C10.4494 34.6842 10.4408 34.725 10.4223 34.752C10.3859 34.8099 10.3184 34.8409 10.2536 34.8297C10.2225 34.8257 10.188 34.8047 10.1874 34.802L10.1622 34.7816L10.1119 34.7395C10.0458 34.6815 9.98092 34.6216 9.92137 34.5512C10.0133 34.5584 10.1 34.5755 10.1861 34.5953L10.2496 34.6117L10.2807 34.6203C10.2986 34.6275 10.284 34.6163 10.2741 34.6144C10.2522 34.6084 10.2277 34.6144 10.2119 34.6361C10.2039 34.6453 10.1993 34.6637 10.198 34.669L10.192 34.6374C10.1603 34.4689 10.1411 34.3003 10.1338 34.1304L10.1318 34.0665V34.0534V34.0573C10.1325 34.0679 10.1351 34.0777 10.1391 34.0876C10.143 34.0975 10.1483 34.1067 10.155 34.1146L10.1603 34.1205C10.1603 34.1205 10.1589 34.1192 10.1583 34.1186L10.153 34.1126C10.1258 34.0797 10.0974 34.0481 10.0716 34.0145C10.0186 33.948 9.96703 33.8802 9.91872 33.8091C9.82211 33.6669 9.73277 33.5181 9.66792 33.3469L9.66858 33.3462Z" fill="#0E0E0E"/>
<path d="M13.3994 36.3823C13.3392 36.7628 13.316 37.1487 13.3035 37.5365L13.3022 37.5727C13.3022 37.5727 13.3048 37.5701 13.3055 37.5681C13.3074 37.5628 13.3022 37.5536 13.2995 37.5503L13.4424 37.5799C13.5371 37.6017 13.6324 37.6214 13.7263 37.6445C13.9149 37.6906 14.1009 37.7432 14.2848 37.8032C14.2861 37.8032 14.2941 37.8064 14.2901 37.8045C14.2868 37.8032 14.2835 37.8025 14.2795 37.8018C14.2722 37.8005 14.265 37.8005 14.257 37.8005C14.2418 37.8018 14.2279 37.8064 14.2153 37.8143C14.1915 37.8288 14.1743 37.8585 14.1737 37.8868L14.1763 37.7518C14.1789 37.6557 14.1829 37.5595 14.1895 37.4627C14.2028 37.2698 14.222 37.0776 14.2425 36.8846L14.2464 36.8497C14.2464 36.8497 14.2498 36.8497 14.2504 36.8497C14.2517 36.8491 14.2524 36.8478 14.2524 36.8465C14.2471 36.8412 14.2339 36.8326 14.2253 36.8254L14.1088 36.7378C14.0301 36.6812 13.952 36.6232 13.8726 36.5679C13.7932 36.5126 13.7124 36.4586 13.631 36.4066L13.508 36.3296C13.4669 36.3026 13.4041 36.3316 13.3974 36.3809L13.3994 36.3823ZM13.3994 36.3823C13.4041 36.3322 13.4676 36.3006 13.5113 36.3276L13.6383 36.3974C13.7237 36.4428 13.8097 36.4876 13.897 36.5297C13.9844 36.5725 14.0731 36.612 14.1604 36.6535L14.2934 36.7128C14.3053 36.7181 14.3139 36.7214 14.3285 36.7286C14.349 36.7398 14.3669 36.7569 14.3801 36.7767C14.3933 36.7971 14.4019 36.8208 14.4039 36.8451L14.4086 36.8827C14.4344 37.0749 14.4575 37.2672 14.4754 37.4594C14.484 37.5556 14.4906 37.6517 14.4953 37.7478L14.4986 37.8203L14.4999 37.8565V37.8743L14.5005 37.8835V37.9019C14.4986 37.979 14.4536 38.0547 14.3881 38.0935C14.3556 38.1139 14.3179 38.1264 14.2782 38.1291C14.2584 38.1304 14.2392 38.1291 14.22 38.1258C14.2107 38.1245 14.2014 38.1218 14.1922 38.1192L14.1803 38.1152C13.9963 38.0547 13.815 37.9875 13.6363 37.9131C13.547 37.8756 13.4583 37.8354 13.369 37.7972L13.236 37.7367C13.1877 37.7195 13.1427 37.6728 13.1308 37.6214C13.1241 37.5964 13.1241 37.5661 13.1294 37.5457L13.1394 37.5108C13.2452 37.1375 13.3399 36.7628 13.3974 36.3816L13.3994 36.3823Z" fill="#0E0E0E"/>
<path d="M9.27287 39.3393C9.25434 39.4591 9.24309 39.5796 9.23978 39.7014C9.23846 39.7317 9.23846 39.7626 9.2378 39.7929V39.839C9.2378 39.8496 9.24243 39.8509 9.2464 39.8542L9.36154 39.999C9.4383 40.0951 9.51639 40.1913 9.58653 40.2914C9.60373 40.3164 9.62226 40.3414 9.63814 40.3671L9.66329 40.4053L9.66925 40.4151C9.66925 40.4151 9.66925 40.4145 9.66858 40.4125C9.66726 40.4105 9.66594 40.4079 9.66461 40.4059C9.65932 40.3967 9.65072 40.3888 9.64145 40.3822C9.60307 40.3559 9.55411 40.3579 9.51771 40.3934C9.50977 40.402 9.50315 40.4119 9.49918 40.4211L9.50712 40.402L9.52433 40.3598C9.57131 40.2486 9.62557 40.1393 9.68645 40.0333C9.70101 40.0063 9.71755 39.9806 9.73343 39.9542C9.74005 39.9417 9.73542 39.9542 9.73542 39.9615C9.73542 39.9687 9.73674 39.976 9.73939 39.9826C9.7427 39.9944 9.76056 40.0135 9.74667 39.9898L9.66528 39.8239C9.61168 39.7133 9.55874 39.6013 9.49786 39.4953C9.46808 39.442 9.43632 39.39 9.40389 39.3386C9.39529 39.3261 9.38801 39.3123 9.37742 39.3024C9.36684 39.2925 9.35228 39.2866 9.33772 39.2873C9.30794 39.2873 9.27882 39.3103 9.27419 39.3406L9.27287 39.3393ZM9.27287 39.3393C9.27618 39.309 9.30463 39.2833 9.33573 39.2826C9.35095 39.282 9.3675 39.2859 9.38007 39.2958C9.3933 39.3057 9.40125 39.3189 9.41117 39.3301C9.45021 39.3768 9.49058 39.4222 9.53293 39.4663C9.61631 39.5559 9.70763 39.6395 9.79762 39.7238L9.93262 39.8509C9.93923 39.8588 9.93989 39.8548 9.95578 39.8779C9.96769 39.8956 9.97629 39.9161 9.98158 39.9378C9.98688 39.9589 9.9882 39.9819 9.98489 40.0036C9.98291 40.0254 9.97232 40.0524 9.97232 40.0537C9.96438 40.0833 9.9571 40.1129 9.9485 40.1419C9.91475 40.2591 9.87438 40.3737 9.8274 40.4856L9.80887 40.5271L9.79895 40.5495C9.78836 40.5725 9.7738 40.5956 9.75527 40.6147C9.67785 40.695 9.55344 40.7055 9.46411 40.6443C9.44161 40.6291 9.42308 40.61 9.40786 40.589L9.39794 40.5732C9.39463 40.5679 9.39132 40.5607 9.39132 40.5607L9.38669 40.5501L9.36882 40.508C9.35625 40.4803 9.34566 40.4514 9.33441 40.423C9.29007 40.3098 9.25302 40.1919 9.2153 40.0747L9.15839 39.8989C9.1478 39.8752 9.1478 39.8443 9.15442 39.8259L9.16832 39.7817C9.17692 39.7528 9.18684 39.7231 9.19412 39.6942C9.22721 39.577 9.25302 39.4584 9.27221 39.3386L9.27287 39.3393Z" fill="#0E0E0E"/>
<path d="M9.29669 39.1845C9.15839 39.3235 9.00685 39.4328 8.85069 39.5328L8.82885 39.5467L8.82488 39.5486C8.82488 39.5486 8.82752 39.548 8.82885 39.5473C8.8401 39.5427 8.85069 39.5355 8.85863 39.5249C8.8626 39.5197 8.86591 39.5144 8.86855 39.5078C8.86988 39.5052 8.87054 39.5012 8.8712 39.4993V39.5078L8.86855 39.5421C8.86657 39.5882 8.86193 39.6336 8.85863 39.6797C8.85069 39.7712 8.83877 39.8621 8.82554 39.9523L8.80238 40.0879L8.80039 40.0965C8.80039 40.0965 8.80039 40.0965 8.80039 40.0945V40.0879C8.80039 40.0793 8.80039 40.0708 8.79775 40.0622C8.79378 40.0458 8.78517 40.0306 8.77326 40.0188C8.76731 40.0128 8.76069 40.0076 8.75341 40.0036C8.75076 40.0017 8.75143 40.003 8.75341 40.0036L8.75672 40.0063L8.764 40.0109L8.79245 40.03C8.86855 40.082 8.94399 40.1353 9.01678 40.1926C9.16236 40.3078 9.30265 40.4316 9.42639 40.5837C9.2325 40.5495 9.05648 40.4869 8.88443 40.4158C8.79841 40.3802 8.71569 40.3401 8.63298 40.2993L8.60254 40.2835L8.59526 40.2795L8.59129 40.2775L8.58401 40.2729C8.56746 40.2624 8.55158 40.2499 8.53769 40.2354C8.51056 40.2064 8.4907 40.1702 8.48144 40.1314C8.47681 40.1123 8.47482 40.0919 8.47548 40.0721C8.47548 40.0668 8.47548 40.0622 8.47681 40.057L8.47813 40.0464V40.0379L8.49798 39.9016C8.51254 39.8114 8.52908 39.7212 8.54894 39.6316C8.55952 39.5868 8.56879 39.5421 8.5807 39.4973L8.5893 39.4637L8.59129 39.4552C8.59261 39.4473 8.59526 39.438 8.5979 39.4295C8.6032 39.4124 8.61114 39.3959 8.62106 39.3814C8.64092 39.3518 8.66871 39.3274 8.70047 39.3123L8.71172 39.307L8.72363 39.3031L8.74018 39.2978C8.91818 39.2438 9.10016 39.1984 9.29537 39.1832L9.29669 39.1845Z" fill="#0E0E0E"/>
<path d="M4.87633 48.3986C4.67252 48.6831 4.49782 48.9886 4.33371 49.3013L4.31783 49.3303C4.31584 49.3343 4.31187 49.3415 4.31121 49.3435C4.31253 49.3428 4.31386 49.3422 4.31518 49.3408C4.31717 49.3389 4.31915 49.3356 4.32047 49.3323C4.32047 49.3303 4.32114 49.3283 4.32114 49.3264V49.3217L4.32378 49.325L4.40054 49.433C4.45084 49.5054 4.50047 49.5779 4.54811 49.6516C4.59642 49.7254 4.64208 49.7998 4.68707 49.8748L4.7367 49.9598L4.74531 49.9743C4.74795 49.9795 4.74398 49.9716 4.74332 49.9703L4.73736 49.9617C4.7195 49.9387 4.68972 49.9262 4.66259 49.9268C4.63546 49.9268 4.60436 49.9433 4.58914 49.9657C4.79097 49.6793 5.02323 49.4146 5.26609 49.1571L5.28859 49.1328L5.29917 49.1216C5.29917 49.1216 5.29984 49.1229 5.3005 49.1236C5.30182 49.1236 5.30844 49.1282 5.30579 49.1183L5.25815 48.9952C5.22572 48.9135 5.19264 48.8319 5.15756 48.7509C5.12315 48.6706 5.0861 48.5902 5.04838 48.5119C5.02853 48.473 5.01132 48.4322 4.98882 48.3953C4.96235 48.3598 4.90147 48.3611 4.87633 48.398V48.3986ZM4.87633 48.3986C4.90081 48.3604 4.96302 48.3571 4.99147 48.3934C5.01529 48.4302 5.03647 48.4691 5.05897 48.5066C5.10396 48.5817 5.15029 48.6567 5.19793 48.7298C5.24557 48.8036 5.2952 48.876 5.34616 48.9484L5.42292 49.0564C5.43086 49.0669 5.44211 49.092 5.44476 49.1124C5.44806 49.1341 5.44674 49.1565 5.43946 49.1775C5.43615 49.1881 5.43152 49.1986 5.42557 49.2085L5.41696 49.2243L5.40108 49.2533C5.23697 49.566 5.06294 49.8722 4.85846 50.156C4.8181 50.2139 4.74464 50.2534 4.67318 50.2547C4.60237 50.258 4.52826 50.2251 4.4826 50.1678C4.47664 50.1606 4.47135 50.1533 4.46672 50.1461C4.46275 50.1402 4.45613 50.1277 4.45613 50.1277L4.44885 50.1132L4.40518 50.0243C4.36746 49.9453 4.33106 49.8656 4.29599 49.7853C4.26092 49.705 4.22783 49.6233 4.19541 49.5417L4.14776 49.4185L4.14247 49.406C4.13982 49.4001 4.13784 49.3942 4.13651 49.3876C4.1332 49.3751 4.13122 49.3626 4.13056 49.3501C4.1299 49.3244 4.13453 49.2994 4.14512 49.277C4.15041 49.2658 4.15636 49.2552 4.16431 49.2454C4.1696 49.2388 4.17225 49.2368 4.17622 49.2315L4.19872 49.2072C4.44091 48.9497 4.67318 48.685 4.87567 48.3993L4.87633 48.3986Z" fill="#0E0E0E"/>
<path d="M5.38719 49.1308C5.44211 49.1841 5.48512 49.2408 5.52615 49.2987C5.546 49.3277 5.56519 49.3566 5.58306 49.3863C5.59232 49.4008 5.60092 49.4159 5.60953 49.431L5.6221 49.4534C5.6221 49.4534 5.62872 49.4686 5.63136 49.4791C5.63401 49.4903 5.636 49.5022 5.63732 49.514C5.6393 49.5377 5.63732 49.5621 5.63004 49.5851C5.62673 49.597 5.6221 49.6082 5.61681 49.6194C5.61416 49.6246 5.61085 49.6305 5.6082 49.6352C5.60556 49.6398 5.60556 49.6398 5.60423 49.6424L5.58041 49.6878C5.56519 49.7181 5.54732 49.7471 5.53078 49.7767C5.49637 49.8353 5.45931 49.8913 5.42027 49.9466C5.38057 50.0012 5.33954 50.0552 5.29587 50.1066C5.27337 50.1323 5.25219 50.1579 5.22837 50.183L5.1933 50.2198L5.17477 50.2376L5.16087 50.2514L5.15029 50.2633C5.11786 50.2982 5.07286 50.3193 5.02787 50.3232C5.00669 50.3258 4.9789 50.3232 4.96434 50.3179L4.93985 50.3081C4.90743 50.2949 4.87567 50.2811 4.8439 50.2659C4.78038 50.2343 4.71685 50.2007 4.65531 50.1553C4.72744 50.1303 4.79824 50.1171 4.86839 50.1059C4.90346 50.1013 4.93853 50.0974 4.97294 50.0941L4.99875 50.0921C4.99875 50.0921 4.99081 50.0875 4.98618 50.0875C4.97426 50.0862 4.96037 50.0888 4.94978 50.098C4.94912 50.098 4.94581 50.102 4.94713 50.1L4.95507 50.0822L4.96632 50.0592L4.99015 50.0138C5.00537 49.9835 5.02323 49.9545 5.03978 49.9249C5.07419 49.8663 5.11124 49.8103 5.15029 49.755C5.18999 49.7003 5.23102 49.647 5.27469 49.595C5.29719 49.5693 5.31903 49.5436 5.34219 49.5193L5.37726 49.4824C5.37726 49.4824 5.38123 49.4778 5.38057 49.4791L5.37858 49.4844C5.37726 49.4883 5.3766 49.4916 5.37594 49.4956C5.37461 49.5028 5.37527 49.5101 5.3766 49.5173C5.37726 49.5206 5.37858 49.5239 5.37991 49.5272C5.38123 49.5298 5.38388 49.5364 5.38255 49.5285L5.37991 49.5028C5.37792 49.4857 5.37594 49.4686 5.37527 49.4515C5.37263 49.4172 5.3713 49.3823 5.37064 49.3468C5.37064 49.2763 5.37263 49.2045 5.38586 49.1295L5.38719 49.1308Z" fill="#0E0E0E"/>
<path d="M43.9615 12.3015C43.9317 12.3192 44.2096 12.8091 44.4624 13.4511C44.7185 14.0924 44.8522 14.6382 44.8859 14.6316C44.915 14.627 44.8303 14.0614 44.5703 13.4096C44.3129 12.7564 43.986 12.2857 43.9621 12.3015" fill="#0E0E0E"/>
<path d="M43.3547 12.0111C43.3282 12.0308 43.4665 12.2521 43.6022 12.5391C43.7405 12.8256 43.8258 13.0718 43.8576 13.0633C43.8874 13.0567 43.8503 12.788 43.706 12.4891C43.5638 12.1895 43.3778 11.9913 43.354 12.0104" fill="#0E0E0E"/>
<path d="M29.1724 20.8057C29.0798 20.7327 29.4775 20.2968 30.0598 19.8313C30.6422 19.3664 31.1881 19.0484 31.2807 19.1208C31.3734 19.1939 30.975 19.6305 30.3933 20.0953C29.811 20.5602 29.2644 20.8788 29.1724 20.8057Z" fill="#0E0E0E"/>
<path d="M31.0107 26.5756C30.9234 26.5064 31.2979 26.0969 31.8465 25.6584C32.3944 25.2205 32.9086 24.9216 32.9959 24.9901C33.0833 25.0592 32.7087 25.4701 32.1602 25.9073C31.6123 26.3451 31.0981 26.6447 31.0107 26.5756Z" fill="#0E0E0E"/>
<path d="M31.2615 13.9153C31.1523 13.829 31.6215 13.3154 32.3084 12.7656C32.9953 12.2172 33.6391 11.8425 33.749 11.9275C33.8582 12.0137 33.389 12.5286 32.7021 13.0771C32.0152 13.6256 31.3707 14.0015 31.2615 13.9153Z" fill="#0E0E0E"/>
<path d="M29.7945 15.0794C29.7442 15.0392 29.9599 14.8028 30.2762 14.55C30.5925 14.2972 30.889 14.1246 30.9393 14.1642C30.9896 14.2043 30.7732 14.4407 30.4575 14.6935C30.1412 14.9464 29.8448 15.1189 29.7945 15.0794Z" fill="#0E0E0E"/>
<path d="M26.3052 26.7632C26.3515 26.7448 26.5355 27.0918 26.7843 27.504C27.0317 27.9175 27.2528 28.2427 27.2144 28.2743C27.1787 28.3053 26.8895 28.0195 26.634 27.5935C26.3773 27.1682 26.2608 26.7797 26.3045 26.7632" fill="#0E0E0E"/>
<path d="M24.2631 24.8874C24.4881 25.7038 24.7375 26.5117 25.0591 27.2867C25.2199 27.6745 25.4006 28.0518 25.6004 28.4172C25.8016 28.782 26.0312 29.1283 26.286 29.4523C26.5407 29.7756 26.8299 30.0699 27.1515 30.3181C27.4725 30.5663 27.8265 30.7698 28.2063 30.9021C28.5855 31.0365 28.9865 31.1016 29.3888 31.1023C29.59 31.1016 29.7918 31.0852 29.9897 31.0503C30.0889 31.0332 30.1875 31.0121 30.2842 30.9864C30.3325 30.9732 30.3801 30.9594 30.4271 30.9443C30.4728 30.9298 30.5237 30.9114 30.5594 30.8969L31.8181 30.376L30.7573 31.2175C30.6369 31.313 30.5211 31.3933 30.3986 31.4743C30.2775 31.5546 30.1538 31.631 30.0281 31.7034C29.7766 31.849 29.5159 31.98 29.2446 32.0906C28.9739 32.2019 28.6907 32.2894 28.3976 32.3408C28.1051 32.3922 27.8007 32.4066 27.5003 32.3559C27.4255 32.3428 27.3507 32.3276 27.2779 32.3059L27.0728 32.2427L26.6665 32.1163C26.3958 32.0333 26.1258 31.9517 25.8545 31.8806C25.5832 31.8114 25.3079 31.7568 25.03 31.7456C24.7521 31.7344 24.4702 31.7772 24.2048 31.8806C24.3306 31.8141 24.4629 31.7594 24.6019 31.7199C24.7402 31.6811 24.8844 31.6587 25.0287 31.6501C25.3185 31.6304 25.6077 31.6666 25.8903 31.714C26.1735 31.7614 26.4514 31.8272 26.728 31.8931L27.3474 32.0425C27.4109 32.0583 27.4764 32.0689 27.5413 32.0781C27.8033 32.111 28.0733 32.0886 28.3367 32.0313C28.6007 31.9734 28.8588 31.8825 29.1102 31.7739C29.3617 31.6646 29.6052 31.5342 29.8408 31.3907C30.0751 31.2478 30.3067 31.0858 30.5151 30.9212L30.713 31.2419C30.6508 31.2682 30.6018 31.2853 30.5462 31.3044C30.4926 31.3222 30.4383 31.3387 30.3841 31.3538C30.2756 31.3841 30.1664 31.4085 30.0565 31.4282C29.8368 31.4684 29.6138 31.4888 29.3902 31.4921C28.9428 31.4987 28.4935 31.4197 28.0733 31.2662C27.6525 31.1141 27.2614 30.8876 26.9166 30.6104C26.5738 30.3306 26.2734 30.0073 26.0133 29.6584C25.4945 28.9578 25.1273 28.1703 24.8507 27.3631C24.5741 26.5552 24.3861 25.7236 24.2624 24.8854L24.2631 24.8874Z" fill="#0E0E0E"/>
<path d="M24.0387 24.0775C23.9646 23.6061 23.8541 23.1484 23.7066 22.7093C23.559 22.2714 23.3704 21.8533 23.1275 21.4813C22.882 21.1119 22.5836 20.7899 22.2282 20.5569C22.0496 20.4423 21.8636 20.3402 21.6631 20.2685C21.6142 20.2474 21.5619 20.2349 21.5122 20.2171C21.462 20.2007 21.4123 20.1835 21.3548 20.169L21.1887 20.1243L21.0212 20.0835C20.7982 20.0288 20.5739 19.9794 20.3456 19.9393C20.1186 19.8958 19.8884 19.8602 19.6561 19.824C19.4245 19.7872 19.1889 19.7562 18.952 19.716C18.7145 19.6779 18.4742 19.6337 18.2334 19.5745C17.9925 19.5152 17.7503 19.4388 17.5187 19.3309C17.2871 19.2242 17.0681 19.0853 16.8775 18.9187C16.6869 18.7514 16.5254 18.5585 16.3951 18.3511C16.3607 18.3004 16.3316 18.2471 16.3018 18.1938C16.2713 18.1411 16.2422 18.0884 16.2171 18.0331C16.1641 17.9245 16.1191 17.8132 16.0768 17.7012C16.1529 17.7947 16.2217 17.8909 16.3011 17.9791C16.3382 18.0252 16.3766 18.0693 16.4169 18.1115C16.456 18.1549 16.4957 18.1977 16.538 18.2372C16.7034 18.3998 16.8801 18.5447 17.0714 18.6593C17.4532 18.8923 17.8813 19.0063 18.3333 19.0668C18.7853 19.1287 19.2564 19.1551 19.7355 19.2051C19.975 19.2295 20.2159 19.2617 20.4568 19.2993C20.6977 19.3381 20.9385 19.3881 21.1774 19.4448L21.3561 19.4902L21.5334 19.5402C21.5917 19.5554 21.6539 19.5771 21.7161 19.5982C21.7776 19.6206 21.8411 19.637 21.9007 19.6653L22.0807 19.745C22.1402 19.7727 22.1971 19.8063 22.2554 19.8365C22.2838 19.8523 22.3136 19.8668 22.3414 19.8839L22.4248 19.9373C22.4797 19.9735 22.5366 20.0071 22.5876 20.0486C22.8006 20.2026 22.9892 20.3863 23.1533 20.5852C23.3188 20.784 23.4584 20.9993 23.5749 21.2232C23.8045 21.6736 23.9461 22.1529 24.0196 22.6342C24.0553 22.8752 24.0771 23.1168 24.0798 23.3585C24.0831 23.5995 24.0738 23.8405 24.0368 24.0775H24.0387Z" fill="#0E0E0E"/>
<path d="M30.478 29.9744C32.5671 28.1795 34.6966 26.436 36.8406 24.7102C38.9846 22.9852 41.1425 21.2778 43.3183 19.5929L44.1355 18.9621L44.5445 18.6474L44.7516 18.4887L44.8641 18.4038L44.9203 18.3617C44.9395 18.3472 44.9514 18.3399 44.9673 18.3281C45.0891 18.2438 45.2108 18.1391 45.3246 18.0311C45.4391 17.9218 45.5476 17.8053 45.6476 17.6815C45.8507 17.4359 46.0201 17.164 46.1617 16.8795C46.4397 16.3067 46.5747 15.6674 46.5627 15.0221C46.5581 14.6995 46.5177 14.3755 46.4542 14.0549C46.3867 13.7342 46.2941 13.4175 46.1823 13.1047C45.9513 12.4832 45.6383 11.882 45.279 11.3191C45.236 11.2466 45.1877 11.1795 45.1394 11.1117L44.9951 10.9076L44.8389 10.7133L44.7608 10.6159L44.6768 10.5243C44.4584 10.2735 44.209 10.0542 43.9403 9.86592C43.6716 9.67695 43.3752 9.52682 43.0589 9.4353C42.7432 9.34312 42.4091 9.31152 42.0755 9.33522C41.7427 9.36419 41.4105 9.44386 41.0962 9.57423C40.7805 9.69999 40.4788 9.86921 40.2055 10.0786C40.7077 9.60847 41.3516 9.27069 42.0537 9.15415C42.4051 9.09884 42.7697 9.11135 43.1217 9.18839C43.4738 9.26543 43.8106 9.40897 44.1176 9.5953C44.4234 9.78361 44.7053 10.0101 44.9528 10.2649L45.048 10.3591L45.3141 10.6574L45.4782 10.8654C45.5331 10.9346 45.5887 11.0037 45.6376 11.0768C45.7376 11.2216 45.8441 11.3632 45.9328 11.5153L46.0711 11.7398C46.1181 11.8142 46.1578 11.8926 46.2014 11.9689C46.3761 12.2738 46.525 12.5951 46.6646 12.921C46.797 13.2503 46.9102 13.5887 46.9968 13.937C47.0776 14.2866 47.1285 14.6455 47.1431 15.0083C47.1735 15.7332 47.0372 16.4759 46.7295 17.1462C46.5747 17.4807 46.3788 17.7961 46.1485 18.0831C46.034 18.2273 45.9096 18.3649 45.7773 18.4947C45.6436 18.6244 45.5053 18.7468 45.3458 18.8607C45.3266 18.8746 45.3028 18.8904 45.2882 18.9022L45.2419 18.9378L44.9475 19.1656L43.7259 20.1144C41.5515 21.8 39.3618 23.4671 37.1582 25.1158C34.9547 26.7646 32.7365 28.3961 30.4794 29.9764L30.478 29.9744Z" fill="#0E0E0E"/>
<path d="M24.8705 22.2859C26.0517 21.2245 27.262 20.198 28.4816 19.1847C29.0891 18.6744 29.7065 18.1773 30.3192 17.6743L32.1727 16.1836L34.0421 14.7126C34.6708 14.2293 35.2941 13.7388 35.9281 13.2621C37.1906 12.3015 38.4632 11.3533 39.7641 10.4414C38.5829 11.5034 37.3733 12.5299 36.1537 13.5433C35.5469 14.0535 34.9288 14.55 34.3161 15.0537L32.4619 16.5437L30.5919 18.0147C29.9632 18.4986 29.3399 18.9885 28.7059 19.4652C27.4433 20.4258 26.1708 21.374 24.8699 22.2866L24.8705 22.2859Z" fill="#0E0E0E"/>
<path d="M26.4646 19.3243C27.4586 18.4117 28.4803 17.5353 29.5126 16.6708C30.5429 15.8043 31.5878 14.9556 32.6412 14.1174C33.6947 13.2799 34.7575 12.4529 35.8334 11.643C36.9081 10.8318 37.9933 10.0332 39.107 9.27004C38.1138 10.1826 37.0914 11.0597 36.0591 11.9242C35.0288 12.7907 33.9832 13.6394 32.9304 14.4776C31.8763 15.3144 30.8142 16.1421 29.7376 16.9513C28.6629 17.7625 27.5777 18.5618 26.4646 19.3249V19.3243Z" fill="#0E0E0E"/>
<path d="M39.9686 8.62543C40.267 8.21457 40.5019 7.76947 40.6469 7.30857C40.7183 7.07878 40.768 6.84503 40.7805 6.61327C40.7944 6.3815 40.7759 6.15302 40.7276 5.93311L40.6852 5.76982C40.6674 5.71648 40.6462 5.66447 40.627 5.61179C40.6164 5.58546 40.6091 5.55912 40.5966 5.53344L40.5595 5.45706C40.5337 5.40702 40.5139 5.35435 40.4834 5.30628C40.4232 5.21015 40.3689 5.11138 40.2968 5.02118C40.2624 4.97575 40.2306 4.92834 40.1942 4.88357L40.0791 4.75386C39.9249 4.58201 39.7515 4.42267 39.5663 4.27452L39.4981 4.21789L39.426 4.16522L39.2811 4.05987C39.1871 3.98678 39.0819 3.92555 38.9806 3.86037C38.5737 3.6016 38.1396 3.37181 37.6896 3.16901L37.5215 3.09066L37.4375 3.05181C37.4143 3.04194 37.3898 3.03206 37.3634 3.02152C37.2588 2.98268 37.147 2.94581 37.0338 2.91552C36.8068 2.8556 36.5719 2.80885 36.3344 2.78646C35.8586 2.73116 35.3715 2.75815 34.8898 2.8477C34.7694 2.8714 34.6476 2.89181 34.5292 2.92803C34.4107 2.96161 34.2876 2.98794 34.1712 3.03272L33.9938 3.09395C33.9343 3.11436 33.8741 3.13412 33.8171 3.16045C33.7007 3.20852 33.5849 3.25922 33.4651 3.30663C33.5644 3.22696 33.6669 3.15124 33.7695 3.07288C33.8204 3.03272 33.8754 3.00111 33.9303 2.96687L34.0957 2.86613C34.2043 2.79371 34.324 2.74498 34.4405 2.68572C34.5563 2.62449 34.68 2.58301 34.8025 2.5356C35.2954 2.35717 35.8275 2.26038 36.3628 2.2696C36.6308 2.2696 36.8995 2.29791 37.1655 2.34992C37.2992 2.3756 37.4315 2.40787 37.5658 2.45132C37.5989 2.46186 37.634 2.47371 37.6697 2.48754L37.7597 2.52375L37.9404 2.59684L38.1204 2.67058C38.1806 2.69494 38.2402 2.72062 38.2984 2.74959L38.6517 2.91683C38.7695 2.9728 38.882 3.04194 38.9978 3.10383L39.1699 3.19996L39.3373 3.30597C39.4478 3.37839 39.561 3.44687 39.6655 3.52983L39.9057 3.70959L39.9818 3.77543C40.185 3.95057 40.3822 4.13691 40.5542 4.35024L40.6819 4.5109C40.7223 4.5662 40.7594 4.62546 40.7977 4.68275C40.8785 4.79468 40.9374 4.92242 41.0016 5.04488C41.1154 5.29904 41.206 5.56702 41.2378 5.84554C41.2709 6.12274 41.261 6.40257 41.2087 6.67055C41.1584 6.93919 41.0631 7.19269 40.9453 7.42972C40.8255 7.6661 40.6819 7.88601 40.5165 8.08552C40.3517 8.28502 40.1711 8.4707 39.9673 8.62543H39.9686Z" fill="#0E0E0E"/>
<path d="M18.2241 18.2524C18.0024 18.2359 17.7827 18.1891 17.5697 18.118C17.3579 18.0443 17.1501 17.9409 16.9767 17.7836C16.8907 17.7045 16.8153 17.6104 16.761 17.5031C16.7061 17.3964 16.673 17.2779 16.6598 17.158C16.6492 17.0382 16.6585 16.9184 16.679 16.8018C16.6915 16.7445 16.7048 16.6866 16.722 16.6306C16.7412 16.576 16.757 16.5194 16.7802 16.4654C16.8682 16.2487 16.9966 16.0486 17.1514 15.8728C17.2289 15.7846 17.3122 15.7023 17.4022 15.6265L17.6603 15.4139C18.0018 15.1327 18.3478 14.8568 18.6913 14.5777C19.3775 14.0186 20.0736 13.4728 20.7652 12.921L22.8549 11.2848L24.9599 9.66773C25.6673 9.13572 26.3687 8.59712 27.0814 8.07169C28.5008 7.01425 29.9301 5.96932 31.3879 4.9606C30.0486 6.12076 28.6814 7.24404 27.3037 8.35548C26.6175 8.91448 25.9214 9.45966 25.2299 10.0121L23.1394 11.6483L21.0338 13.2647C20.3271 13.7968 19.625 14.3353 18.9123 14.8608C18.557 15.1241 18.2036 15.3902 17.8456 15.6516L17.5802 15.8464C17.4969 15.909 17.4188 15.9781 17.346 16.0519C17.1997 16.2 17.078 16.3706 16.9867 16.5576C16.9628 16.6036 16.9456 16.653 16.9245 16.7004C16.9059 16.7485 16.8907 16.7979 16.8762 16.8473C16.851 16.946 16.8358 17.0468 16.8371 17.1475C16.8424 17.3477 16.9245 17.5412 17.0667 17.696C17.2083 17.8501 17.3963 17.9666 17.5948 18.0561C17.794 18.1463 18.0064 18.2122 18.2234 18.255L18.2241 18.2524Z" fill="#0E0E0E"/>
<path d="M32.2336 30.1067C36.781 26.4452 41.3668 22.8331 45.9652 19.2367L47.9054 17.7197L47.9319 17.6986L47.9537 17.6802C47.9683 17.6677 47.9828 17.6565 47.9974 17.644C48.0245 17.6176 48.053 17.5933 48.0781 17.5643C48.182 17.455 48.2647 17.3266 48.3256 17.1896C48.356 17.1212 48.3792 17.0494 48.3984 16.977C48.4149 16.9039 48.4275 16.8301 48.4328 16.7551C48.4348 16.7176 48.4368 16.68 48.4354 16.6431L48.4335 16.5872L48.4295 16.52L48.4123 16.2481C48.3183 14.7976 48.2184 13.3484 48.0761 11.9071C48.0033 11.1874 47.9233 10.4671 47.8048 9.76386C47.775 9.58872 47.7433 9.41423 47.7049 9.24568C47.6963 9.20288 47.685 9.16205 47.6751 9.12057L47.6672 9.08963C47.6672 9.08963 47.6632 9.07251 47.6652 9.08107C47.6658 9.08568 47.6692 9.09292 47.6698 9.09555C47.6698 9.09621 47.6652 9.08502 47.6566 9.07053C47.6235 9.01193 47.5732 8.93687 47.5249 8.86642C47.3244 8.57868 47.1034 8.28831 46.8837 8.00124C45.9983 6.8503 45.0851 5.71385 44.1904 4.5583L43.8563 4.12308C43.7458 3.9802 43.6319 3.8202 43.5327 3.70168C43.3229 3.44951 43.0695 3.2342 42.7882 3.06564C42.6479 2.9807 42.5004 2.90762 42.3475 2.84704L42.2311 2.80358L36.4144 0.759156L36.3496 0.736769C36.3277 0.728868 36.3059 0.720966 36.2887 0.716357C36.2523 0.705823 36.2166 0.691996 36.1795 0.684094C36.032 0.645905 35.8798 0.629445 35.7276 0.634054C35.4225 0.642613 35.1227 0.74467 34.8713 0.915862C34.8395 0.936932 34.8104 0.961294 34.7793 0.98368L34.6728 1.06862L29.7627 5.00538C25.2007 8.64716 20.6328 12.281 16.0351 15.8794L16.0192 15.8919L16.008 15.8945C16.008 15.8945 15.9934 15.9004 15.9855 15.905C15.9762 15.9097 15.9669 15.9149 15.9577 15.9208C15.9391 15.932 15.9206 15.9452 15.9021 15.9584C15.8657 15.986 15.8306 16.017 15.7982 16.0506C15.7327 16.1177 15.6731 16.1941 15.6209 16.2757C15.5163 16.439 15.4369 16.6214 15.3747 16.8097C15.3125 16.998 15.2668 17.1929 15.2331 17.3905C15.2 17.5873 15.1775 17.7895 15.153 17.9903C15.1034 18.3919 15.069 18.7969 15.0008 19.1992C14.9644 19.3993 14.9201 19.6015 14.8281 19.7858C14.7818 19.8774 14.7202 19.9623 14.6441 20.0308C14.5667 20.0986 14.4754 20.1486 14.3794 20.1816C14.4741 20.144 14.5627 20.0907 14.6355 20.0216C14.7077 19.9511 14.7639 19.8662 14.8049 19.7746C14.887 19.5909 14.9227 19.3908 14.9499 19.1913C15.0002 18.791 15.018 18.3854 15.0504 17.9804C15.0829 17.5775 15.116 17.1646 15.2351 16.7669C15.2933 16.5681 15.3694 16.3719 15.4779 16.1888C15.5322 16.0973 15.5944 16.0097 15.6678 15.9294C15.7042 15.8892 15.7446 15.8511 15.7883 15.8155C15.8101 15.7977 15.8326 15.7806 15.8571 15.7648C15.869 15.7569 15.8816 15.749 15.8948 15.7418C15.9094 15.7339 15.9193 15.7279 15.9411 15.7187L15.914 15.7339C20.3886 11.9854 24.8924 8.27251 29.4027 4.56752L34.2737 0.584013L34.3803 0.4971C34.4226 0.464837 34.4636 0.431257 34.5073 0.400969C34.8561 0.157349 35.2763 0.0157867 35.7024 0.00130123C35.9155 -0.00594151 36.1299 0.0171036 36.3363 0.0691196C36.3886 0.080313 36.4389 0.098749 36.4899 0.113893C36.517 0.122453 36.5375 0.129695 36.5594 0.136938L36.6242 0.159325L42.3171 2.13989L42.4468 2.18466L42.5871 2.23668C42.7743 2.31042 42.955 2.39931 43.1277 2.50268C43.4725 2.70877 43.7808 2.97478 44.0369 3.28358C44.1699 3.44555 44.2659 3.58448 44.3777 3.73L44.7079 4.16259C45.594 5.31484 46.5032 6.45393 47.3919 7.61672C47.6136 7.90906 47.8339 8.19943 48.049 8.51021C48.1033 8.59054 48.1549 8.66625 48.2118 8.76634C48.2257 8.79136 48.2416 8.82099 48.2594 8.86378C48.2647 8.8763 48.2707 8.89473 48.2753 8.91053C48.2813 8.92963 48.2793 8.92568 48.2819 8.9349L48.2905 8.96979C48.3018 9.01654 48.3143 9.06395 48.3236 9.11004C48.3653 9.29637 48.3977 9.47942 48.4288 9.66312C48.546 10.396 48.6181 11.1235 48.6849 11.8524C48.8139 13.3082 48.9 14.7633 48.98 16.2171L48.9946 16.4897L48.9979 16.5589L48.9999 16.6392C49.0006 16.6925 48.9979 16.7465 48.9946 16.7999C48.9867 16.9065 48.9675 17.0125 48.9423 17.1166C48.9145 17.2199 48.8801 17.3213 48.8358 17.4188C48.7471 17.6137 48.6254 17.7934 48.4758 17.9462C48.4394 17.9857 48.399 18.0206 48.3593 18.0568C48.3395 18.0746 48.3183 18.0904 48.2971 18.1075L48.266 18.1325L48.2382 18.1536L46.2729 19.6377C41.6143 23.1557 36.9425 26.6579 32.233 30.11L32.2336 30.1067Z" fill="#0E0E0E"/>
<path fill-rule="evenodd" clip-rule="evenodd" d="M10.8939 25.3029C11.4856 26.8501 12.6148 28.7659 14.1473 30.674C15.6798 32.5822 17.3088 34.1006 18.695 35.016C19.3898 35.4748 20.0075 35.7714 20.5101 35.8977C21.0192 36.0256 21.3461 35.9651 21.5396 35.8112C21.7331 35.6573 21.8645 35.3534 21.8514 34.8312C21.8384 34.3155 21.6839 33.6506 21.3873 32.8752C20.7957 31.3279 19.6665 29.4121 18.134 27.504C16.6014 25.5959 14.9724 24.0775 13.5862 23.162C12.8915 22.7032 12.2738 22.4066 11.7711 22.2803C11.2621 22.1524 10.9352 22.2129 10.7417 22.3668C10.5482 22.5207 10.4168 22.8246 10.4299 23.3468C10.4429 23.8625 10.5974 24.5274 10.8939 25.3029ZM9.76838 23.3633C9.75299 22.7508 9.90026 22.193 10.3286 21.8524C10.7569 21.5119 11.3361 21.4919 11.9331 21.6419C12.5366 21.7936 13.225 22.1332 13.9522 22.6134C15.4097 23.576 17.0876 25.1465 18.6509 27.0929C20.2142 29.0394 21.3837 31.0141 22.0058 32.641C22.3162 33.4526 22.4973 34.1956 22.5129 34.8147C22.5283 35.4273 22.381 35.985 21.9527 36.3256C21.5244 36.6661 20.9452 36.6861 20.3481 36.5361C19.7447 36.3845 19.0563 36.0448 18.3291 35.5646C16.8715 34.602 15.1937 33.0315 13.6304 31.0851C12.0671 29.1386 10.8976 27.1639 10.2755 25.537C9.96508 24.7254 9.78393 23.9824 9.76838 23.3633Z" fill="#0E0E0E"/>
<path d="M21.953 35.9753C22.1442 35.7923 22.3388 35.6132 22.532 35.4315L23.1163 34.8942C23.3102 34.7144 23.508 34.538 23.7039 34.3602L23.9984 34.0942L24.0718 34.0277C24.0937 34.0066 24.1115 33.9869 24.1314 33.9665C24.1744 33.9296 24.1995 33.8782 24.2339 33.8348C24.3504 33.6432 24.4 33.4061 24.4106 33.1638C24.4206 32.9209 24.3928 32.6707 24.3471 32.4238C24.2518 31.928 24.091 31.4381 23.8978 30.9607C23.5041 30.0073 23.0018 29.0928 22.4479 28.2118C22.17 27.7719 21.8802 27.3387 21.5764 26.9153C21.274 26.4906 20.9604 26.0739 20.6335 25.6669C20.3092 25.2581 19.9737 24.8584 19.6276 24.4679C19.2835 24.0762 18.9269 23.6956 18.5596 23.3256C17.8257 22.5861 17.0476 21.8882 16.2098 21.2792C16.0007 21.1257 15.7843 20.9848 15.5666 20.8479C15.3462 20.7155 15.1226 20.5885 14.893 20.4778C14.6633 20.3679 14.4284 20.2718 14.1882 20.2053C13.9493 20.1394 13.7032 20.1052 13.4722 20.1341C13.3551 20.144 13.2479 20.1816 13.146 20.2296C13.0547 20.2797 12.9402 20.3666 12.8343 20.4416C12.6192 20.5957 12.4048 20.7511 12.1878 20.9025L11.5386 21.3595C11.3203 21.5096 11.1039 21.6617 10.8842 21.8099C11.0801 21.6314 11.2792 21.4576 11.4764 21.2811L12.074 20.759C12.2725 20.5845 12.4743 20.4133 12.6748 20.2408C12.7774 20.1546 12.8654 20.0703 12.9984 19.9794C13.1281 19.9017 13.271 19.8411 13.4166 19.8148C13.7091 19.7556 14.0009 19.7819 14.2749 19.8365C14.5502 19.8932 14.8135 19.9807 15.0683 20.0828C15.5772 20.2895 16.0483 20.5621 16.5016 20.8551C16.7286 21.0013 16.949 21.1567 17.1667 21.3147C17.2745 21.395 17.3811 21.4773 17.4876 21.559L17.8019 21.8112C18.2175 22.1509 18.6152 22.5111 19.001 22.8818C19.3868 23.2531 19.756 23.6403 20.1153 24.036C20.4727 24.4337 20.8174 24.8413 21.1516 25.2581C21.8166 26.0936 22.4314 26.97 22.982 27.8872C23.2559 28.3461 23.516 28.8149 23.7509 29.2969C23.9871 29.7782 24.2015 30.2714 24.3789 30.781C24.5542 31.2906 24.7078 31.8127 24.7739 32.3599C24.8057 32.6331 24.8189 32.9117 24.7878 33.1948L24.7752 33.3008C24.7706 33.3363 24.7613 33.3713 24.7547 33.4068L24.7322 33.5128L24.6991 33.6175C24.6568 33.7571 24.5873 33.8934 24.5006 34.0172C24.4497 34.0745 24.406 34.1383 24.3451 34.1851C24.3167 34.2094 24.2869 34.2358 24.2591 34.2582L23.8647 34.5577C23.6536 34.7171 23.4445 34.8784 23.2314 35.0351L22.5948 35.5085C22.3804 35.6646 22.1687 35.8219 21.953 35.976V35.9753Z" fill="#0E0E0E"/>
<path d="M16.2647 20.8117C16.2647 20.8117 14.7322 18.6468 16.1284 15.8952L16.4679 15.4198L15.5249 16.1697C15.5249 16.1697 15.2106 16.9329 15.1345 17.6084C15.059 18.284 15.0432 19.7832 14.6924 19.934C14.3417 20.0848 16.2647 20.8117 16.2647 20.8117Z" fill="#0E0E0E"/>
<path d="M37.454 22.8785C38.3844 22.1022 39.3221 21.3364 40.2677 20.5799C40.7388 20.2 41.2146 19.8253 41.6884 19.4481L43.1158 18.3248L44.1911 17.4879C44.3089 17.3938 44.4207 17.3022 44.5253 17.1975C44.9461 16.7867 45.2466 16.2553 45.3862 15.6838C45.4563 15.3974 45.4841 15.1011 45.4702 14.8061C45.4577 14.5105 45.3968 14.2195 45.3094 13.9317C45.142 13.3556 44.8879 12.8052 44.5994 12.2738C44.9263 12.7828 45.2002 13.3279 45.4021 13.9021C45.5013 14.1885 45.5761 14.4907 45.5999 14.7976C45.6251 15.1044 45.6019 15.4158 45.5371 15.7181C45.408 16.3232 45.095 16.8874 44.6576 17.3299C44.5504 17.4418 44.4273 17.5419 44.3089 17.638L43.2382 18.4802L41.8042 19.5949C41.3238 19.9636 40.8461 20.335 40.363 20.7011C39.4008 21.4372 38.4314 22.1628 37.454 22.8792V22.8785Z" fill="#0E0E0E"/>
<path d="M36.2847 23.6034C35.8076 24.0354 35.3179 24.4521 34.8236 24.8637C34.5781 25.0711 34.3273 25.2725 34.0792 25.4767L33.3281 26.0811L32.5704 26.677C32.3157 26.8725 32.0629 27.0714 31.8055 27.2643C31.2933 27.6528 30.7765 28.0366 30.2478 28.404C30.7249 27.9721 31.2146 27.5547 31.7089 27.1438C31.9544 26.9364 32.2052 26.7349 32.4533 26.5308L33.2044 25.9264L33.9627 25.3305C34.2175 25.1349 34.4703 24.9361 34.7277 24.7432C35.2399 24.3547 35.756 23.9708 36.2847 23.6028V23.6034Z" fill="#0E0E0E"/>
<path d="M31.7545 18.5414C32.6836 17.7539 33.6199 16.9763 34.5642 16.2086C35.0347 15.8227 35.5098 15.4422 35.983 15.059L37.4084 13.9186L38.8403 12.7861C39.3201 12.4114 39.7979 12.0341 40.2796 11.6621L41.0016 11.1038L41.1829 10.9648L41.2775 10.8957L41.3761 10.8318C41.5104 10.7508 41.6534 10.685 41.8022 10.6383C42.1007 10.5448 42.421 10.525 42.7247 10.5856C42.8762 10.6165 43.0245 10.6646 43.1601 10.7403C43.2945 10.8154 43.4116 10.9273 43.4744 11.0662C43.4023 10.9313 43.2812 10.8312 43.1462 10.7667C43.0112 10.7001 42.8643 10.6606 42.7161 10.6376C42.419 10.5928 42.1133 10.6277 41.8347 10.7304C41.695 10.7811 41.5614 10.847 41.4376 10.9286L41.347 10.9925L41.2596 11.061L41.0836 11.2065L40.3769 11.7846C39.9064 12.1704 39.4313 12.551 38.9581 12.9342L37.5321 14.0746L36.0995 15.2071C35.6197 15.5818 35.1419 15.959 34.6602 16.3304C33.6994 17.0777 32.7306 17.8158 31.7539 18.5434L31.7545 18.5414Z" fill="#0E0E0E"/>
<path d="M22.3818 13.349C22.982 12.8512 23.5901 12.364 24.1936 11.8708L26.0186 10.4091C27.2356 9.43464 28.4618 8.47268 29.6879 7.51071L31.5328 6.07467L32.4579 5.36027L32.9218 5.0034C33.0806 4.88423 33.2481 4.77624 33.4214 4.67945C34.1149 4.29361 34.9262 4.10925 35.715 4.20407C36.1087 4.25345 36.4905 4.37855 36.8353 4.56752C37.1794 4.75912 37.4851 5.01065 37.7458 5.2997C37.4692 5.02513 37.1549 4.79007 36.8108 4.61361C36.4647 4.4411 36.0875 4.33378 35.7044 4.3002C35.3219 4.26464 34.9328 4.29493 34.5596 4.38316C34.1864 4.47205 33.8271 4.61822 33.4969 4.81114C33.3314 4.90793 33.1733 5.01591 33.0231 5.13377L31.6486 6.2215L29.8104 7.66544C28.5809 8.62346 27.3514 9.58147 26.1126 10.5276L24.2538 11.9459C23.6298 12.4134 23.0097 12.8855 22.3824 13.3484L22.3818 13.349Z" fill="#0E0E0E"/>
<path d="M39.9964 2.75881C40.4629 2.97741 40.9241 3.20654 41.388 3.43041L42.0802 3.77279L42.4256 3.9453C42.5407 4.00259 42.6579 4.06514 42.769 4.13362C42.9934 4.26991 43.2038 4.42859 43.3964 4.60703C43.493 4.69591 43.585 4.79007 43.6723 4.88752C43.761 4.98628 43.8404 5.08768 43.9218 5.18579L44.8912 6.38347L45.852 7.58774C45.9314 7.6898 46.0109 7.78725 46.0909 7.8926C46.1697 7.99729 46.2451 8.10461 46.3139 8.21655C46.4529 8.43844 46.5694 8.67416 46.6633 8.91778C46.7566 9.1614 46.8288 9.41358 46.8757 9.6697L47.0134 10.4262C47.0994 10.9319 47.1921 11.4363 47.2728 11.9433C47.1484 11.4455 47.0365 10.9451 46.9181 10.446L46.7487 9.69538C46.7202 9.57226 46.6878 9.45045 46.6508 9.32995C46.6124 9.21012 46.5687 9.0916 46.5204 8.97506C46.4218 8.74329 46.304 8.52008 46.1677 8.30873C46.1002 8.20272 46.0254 8.10132 45.9487 8.0019C45.8712 7.90379 45.7872 7.80371 45.7065 7.70429L44.7377 6.50594L43.7769 5.30101C43.6968 5.20027 43.6194 5.09822 43.538 5.00406C43.4559 4.90925 43.3692 4.81772 43.2786 4.73081C43.0966 4.55764 42.8994 4.39896 42.6876 4.26135C42.5818 4.19221 42.4732 4.12966 42.3601 4.06909L42.0213 3.88473L41.3443 3.51337C40.8957 3.26119 40.4437 3.01428 39.9977 2.75684L39.9964 2.75881Z" fill="#0E0E0E"/>
<path d="M46.2226 10.0608C46.1406 9.75662 46.0353 9.46296 45.901 9.18312C45.766 8.90395 45.6052 8.6386 45.4153 8.39432C45.3213 8.27185 45.2208 8.14873 45.1248 8.02494C45.0295 7.89984 44.9316 7.77671 44.8383 7.6503C44.649 7.39943 44.4631 7.14528 44.2877 6.88322C44.5061 7.11104 44.7145 7.34742 44.919 7.58643C45.1241 7.8261 45.3233 8.06642 45.5205 8.31465C45.7144 8.56881 45.8765 8.84732 45.995 9.1423C46.1148 9.43728 46.1942 9.7474 46.222 10.0615L46.2226 10.0608Z" fill="#0E0E0E"/>
<path d="M19.8983 34.1232C19.9837 34.0508 20.0419 33.9533 20.077 33.8499C20.1147 33.7466 20.1253 33.6359 20.1299 33.5266C20.1345 33.3074 20.0995 33.0881 20.0485 32.8748C19.9446 32.4468 19.7772 32.0366 19.5912 31.6369C19.2174 30.8376 18.7555 30.0811 18.2526 29.3555C17.7463 28.6319 17.2037 27.9326 16.6207 27.2689C16.0384 26.6046 15.4217 25.9698 14.754 25.3937C14.4218 25.104 14.0751 24.8314 13.7124 24.5838C13.3485 24.3422 12.966 24.115 12.5577 23.9879C12.5068 23.9741 12.4558 23.957 12.4042 23.9478L12.3268 23.932L12.25 23.9228C12.1481 23.9135 12.0449 23.9135 11.9535 23.9425C11.8616 23.9689 11.7815 24.0182 11.7206 24.0893C11.6577 24.1591 11.622 24.254 11.5982 24.3507C11.5512 24.5483 11.5631 24.7662 11.5949 24.9782C11.6266 25.1916 11.6789 25.4036 11.7438 25.6123C11.8093 25.821 11.8854 26.0271 11.9681 26.2306C12.0535 26.4334 12.1421 26.6348 12.2394 26.8324C12.4313 27.2294 12.6464 27.6152 12.8727 27.9952C13.322 28.757 13.8309 29.4839 14.3682 30.1891C13.7951 29.5115 13.2691 28.7938 12.79 28.0452C12.5537 27.6692 12.3294 27.2847 12.1276 26.8877C12.0257 26.6901 11.931 26.488 11.8404 26.2839C11.7524 26.0791 11.6703 25.8711 11.5989 25.6584C11.528 25.4457 11.4692 25.2278 11.4308 25.0039C11.3944 24.78 11.3765 24.5476 11.4288 24.3119C11.4566 24.196 11.4996 24.0755 11.5843 23.9774C11.6664 23.878 11.7815 23.8062 11.9026 23.7707C12.0243 23.7325 12.1488 23.7318 12.2672 23.741L12.3559 23.7509L12.4426 23.7674C12.5008 23.7772 12.5557 23.7944 12.612 23.8095C12.8343 23.8747 13.0421 23.9702 13.2419 24.0762C13.4418 24.1822 13.6337 24.3007 13.8209 24.4251C14.1928 24.6773 14.5462 24.9532 14.8837 25.2456C15.558 25.8322 16.18 26.4735 16.7623 27.1478C17.3414 27.824 17.8873 28.5298 18.3783 29.2719C18.87 30.0133 19.3206 30.7836 19.6793 31.5988C19.8533 32.0076 20.0081 32.4277 20.0988 32.8643C20.1431 33.0822 20.1722 33.3054 20.159 33.5286C20.1491 33.6392 20.1332 33.7518 20.0902 33.8552C20.0492 33.9586 19.9856 34.0547 19.897 34.1232H19.8983Z" fill="#0E0E0E"/>
<path d="M22.0913 36.2756L24.5185 34.0376C24.5185 34.0376 25.3364 32.8748 24.2809 31.0476L24.3431 32.5364C24.3431 32.5364 24.4431 33.6873 23.3744 34.0244C22.3057 34.3615 21.8663 32.1472 21.8663 32.1472L22.0906 36.2756H22.0913Z" fill="#0E0E0E"/>
<path d="M14.2312 27.4533C14.263 27.4282 14.2722 27.3861 14.2736 27.3479C14.2756 27.3091 14.2676 27.2702 14.2577 27.2327C14.2372 27.1576 14.2028 27.0872 14.1657 27.0194C14.0883 26.8844 13.9904 26.7632 13.8845 26.652C13.7773 26.5413 13.6621 26.4399 13.541 26.353C13.4815 26.3096 13.418 26.272 13.3564 26.2437C13.3412 26.2358 13.326 26.2319 13.3114 26.226C13.2975 26.2233 13.2823 26.2167 13.271 26.2161C13.2578 26.2128 13.2499 26.2148 13.2426 26.2141C13.2413 26.2154 13.2393 26.2161 13.2373 26.2154C13.2373 26.2167 13.2386 26.2167 13.2373 26.2154C13.238 26.2167 13.2386 26.2154 13.2373 26.2154C13.2373 26.2174 13.2366 26.2187 13.2347 26.22C13.2333 26.2273 13.23 26.2352 13.23 26.2483C13.228 26.2727 13.2313 26.305 13.238 26.3372C13.2512 26.4031 13.275 26.4729 13.3041 26.5407C13.3617 26.6776 13.4365 26.8113 13.5212 26.9397C13.6072 27.0674 13.7045 27.1892 13.8196 27.2939C13.8785 27.3446 13.9394 27.3934 14.0089 27.4302C14.0433 27.448 14.0797 27.4638 14.1181 27.4704C14.1558 27.4776 14.1988 27.4776 14.2306 27.4526L14.2312 27.4533ZM14.2312 27.4533C14.2001 27.4789 14.1564 27.4803 14.1187 27.473C14.0797 27.4671 14.0426 27.4533 14.0069 27.4368C13.9354 27.4039 13.8679 27.3624 13.8037 27.3157C13.6754 27.2235 13.5563 27.1168 13.4451 27.0016C13.3352 26.885 13.234 26.7593 13.1519 26.6157C13.1129 26.5433 13.0765 26.4676 13.0527 26.3813C13.0414 26.3379 13.0322 26.2925 13.0341 26.2385C13.0341 26.2128 13.0401 26.1818 13.05 26.1522C13.0573 26.1357 13.0653 26.1199 13.0739 26.1048C13.0858 26.0897 13.0997 26.0752 13.1136 26.0613C13.1294 26.0502 13.1473 26.0403 13.1645 26.0324C13.1817 26.0271 13.1989 26.0225 13.2161 26.0192C13.2479 26.0166 13.279 26.0172 13.3041 26.0232C13.3577 26.0324 13.4001 26.0521 13.4405 26.0719C13.5199 26.1134 13.5854 26.166 13.6482 26.22C13.7707 26.3306 13.8726 26.4571 13.9619 26.5894C14.0499 26.7224 14.1287 26.8613 14.1902 27.0069C14.2213 27.0793 14.2478 27.1537 14.2636 27.2307C14.2716 27.2689 14.2769 27.3084 14.2742 27.3473C14.2729 27.3855 14.2623 27.4276 14.2299 27.452L14.2312 27.4533Z" fill="#0E0E0E"/>
<path d="M15.7386 30.3556C15.7704 30.3306 15.7797 30.2885 15.781 30.2503C15.783 30.2114 15.775 30.1726 15.7651 30.1351C15.7446 30.06 15.7102 29.9895 15.6731 29.9217C15.5957 29.7868 15.4978 29.6656 15.3919 29.5543C15.2847 29.4437 15.1696 29.3423 15.0485 29.2554C14.9889 29.2119 14.9254 29.1744 14.8638 29.1461C14.8486 29.1382 14.8334 29.1342 14.8188 29.1283C14.8049 29.1257 14.7897 29.1191 14.7785 29.1184C14.7652 29.1152 14.7573 29.1171 14.75 29.1165C14.7487 29.1178 14.7467 29.1184 14.7447 29.1178C14.7447 29.1191 14.746 29.1191 14.7447 29.1178C14.7454 29.1191 14.746 29.1178 14.7447 29.1178C14.7447 29.1198 14.7441 29.1211 14.7421 29.1224C14.7408 29.1296 14.7374 29.1375 14.7374 29.1507C14.7355 29.1751 14.7388 29.2073 14.7454 29.2396C14.7586 29.3054 14.7824 29.3752 14.8116 29.4431C14.8691 29.58 14.9439 29.7137 15.0286 29.8421C15.1146 29.9698 15.2119 30.0916 15.327 30.1963C15.3859 30.247 15.4468 30.2957 15.5163 30.3326C15.5507 30.3504 15.5871 30.3662 15.6255 30.3728C15.6632 30.38 15.7062 30.38 15.738 30.355L15.7386 30.3556ZM15.7386 30.3556C15.7075 30.3813 15.6639 30.3826 15.6262 30.3754C15.5871 30.3695 15.5501 30.3556 15.5143 30.3392C15.4429 30.3063 15.3754 30.2648 15.3112 30.218C15.1828 30.1258 15.0637 30.0192 14.9525 29.904C14.8427 29.7874 14.7414 29.6616 14.6594 29.5181C14.6203 29.4457 14.5839 29.37 14.5601 29.2837C14.5489 29.2403 14.5396 29.1948 14.5416 29.1408C14.5416 29.1152 14.5475 29.0842 14.5575 29.0546C14.5647 29.0381 14.5727 29.0223 14.5813 29.0072C14.5932 28.992 14.6071 28.9775 14.621 28.9637C14.6369 28.9525 14.6547 28.9426 14.6719 28.9347C14.6891 28.9295 14.7063 28.9249 14.7235 28.9216C14.7553 28.9189 14.7864 28.9196 14.8116 28.9255C14.8652 28.9347 14.9075 28.9545 14.9479 28.9742C15.0273 29.0157 15.0928 29.0684 15.1557 29.1224C15.2781 29.233 15.38 29.3594 15.4693 29.4918C15.5573 29.6248 15.6361 29.7637 15.6976 29.9092C15.7287 29.9816 15.7552 30.056 15.7711 30.1331C15.779 30.1713 15.7843 30.2108 15.7817 30.2496C15.7803 30.2878 15.7691 30.33 15.7373 30.3543L15.7386 30.3556Z" fill="#0E0E0E"/>
<path d="M18.3531 32.5838C18.3849 32.5587 18.3942 32.5166 18.3955 32.4784C18.3975 32.4396 18.3895 32.4007 18.3796 32.3632C18.3591 32.2881 18.3247 32.2177 18.2876 32.1499C18.2102 32.0149 18.1123 31.8937 18.0064 31.7825C17.8992 31.6718 17.7841 31.5704 17.663 31.4835C17.6034 31.4401 17.5399 31.4025 17.4783 31.3742C17.4631 31.3663 17.4479 31.3624 17.4333 31.3565C17.4194 31.3538 17.4042 31.3472 17.393 31.3466C17.3797 31.3433 17.3718 31.3453 17.3645 31.3446C17.3632 31.3459 17.3612 31.3466 17.3592 31.3459C17.3592 31.3472 17.3605 31.3472 17.3592 31.3459C17.3599 31.3472 17.3605 31.3459 17.3592 31.3459C17.3592 31.3479 17.3586 31.3492 17.3566 31.3505C17.3553 31.3578 17.3519 31.3657 17.3519 31.3788C17.35 31.4032 17.3533 31.4355 17.3599 31.4677C17.3731 31.5336 17.3969 31.6034 17.4261 31.6712C17.4836 31.8081 17.5584 31.9418 17.6431 32.0702C17.7291 32.1979 17.8264 32.3197 17.9415 32.4244C18.0004 32.4751 18.0613 32.5238 18.1308 32.5607C18.1652 32.5785 18.2016 32.5943 18.24 32.6009C18.2777 32.6081 18.3207 32.6081 18.3525 32.5831L18.3531 32.5838ZM18.3531 32.5838C18.322 32.6094 18.2784 32.6108 18.2407 32.6035C18.2016 32.5976 18.1646 32.5838 18.1288 32.5673C18.0574 32.5344 17.9899 32.4929 17.9257 32.4462C17.7973 32.354 17.6782 32.2473 17.567 32.1321C17.4572 32.0155 17.3559 31.8898 17.2739 31.7462C17.2348 31.6738 17.1984 31.5981 17.1746 31.5118C17.1634 31.4684 17.1541 31.423 17.1561 31.369C17.1561 31.3433 17.162 31.3123 17.172 31.2827C17.1792 31.2662 17.1872 31.2504 17.1958 31.2353C17.2077 31.2202 17.2216 31.2057 17.2355 31.1918C17.2514 31.1806 17.2692 31.1708 17.2864 31.1629C17.3036 31.1576 17.3208 31.153 17.3381 31.1497C17.3698 31.1471 17.4009 31.1477 17.4261 31.1537C17.4797 31.1629 17.522 31.1826 17.5624 31.2024C17.6418 31.2439 17.7073 31.2965 17.7702 31.3505C17.8926 31.4611 17.9945 31.5876 18.0838 31.7199C18.1718 31.8529 18.2506 31.9918 18.3121 32.1373C18.3432 32.2098 18.3697 32.2842 18.3856 32.3612C18.3935 32.3994 18.3988 32.4389 18.3962 32.4778C18.3948 32.5159 18.3836 32.5581 18.3518 32.5824L18.3531 32.5838Z" fill="#0E0E0E"/>
<path d="M16.9337 29.4055C16.9655 29.3805 16.9748 29.3384 16.9761 29.3002C16.9781 29.2613 16.9701 29.2225 16.9602 29.1849C16.9397 29.1099 16.9053 29.0394 16.8682 28.9716C16.7908 28.8366 16.6929 28.7155 16.587 28.6042C16.4798 28.4936 16.3646 28.3922 16.2435 28.3053C16.184 28.2618 16.1205 28.2243 16.0589 28.196C16.0437 28.1881 16.0285 28.1841 16.0139 28.1782C16 28.1756 15.9848 28.169 15.9736 28.1683C15.9603 28.165 15.9524 28.167 15.9451 28.1664C15.9438 28.1677 15.9418 28.1683 15.9398 28.1677C15.9398 28.169 15.9411 28.169 15.9398 28.1677C15.9405 28.169 15.9411 28.1677 15.9398 28.1677C15.9398 28.1696 15.9391 28.171 15.9372 28.1723C15.9358 28.1795 15.9325 28.1874 15.9325 28.2006C15.9305 28.225 15.9339 28.2572 15.9405 28.2895C15.9537 28.3553 15.9775 28.4251 16.0066 28.4929C16.0642 28.6299 16.139 28.7635 16.2237 28.8919C16.3097 29.0197 16.407 29.1415 16.5221 29.2462C16.581 29.2969 16.6419 29.3456 16.7114 29.3825C16.7458 29.4003 16.7822 29.4161 16.8206 29.4226C16.8583 29.4299 16.9013 29.4299 16.9331 29.4049L16.9337 29.4055ZM16.9337 29.4055C16.9026 29.4312 16.859 29.4325 16.8212 29.4253C16.7822 29.4193 16.7451 29.4055 16.7094 29.3891C16.6379 29.3561 16.5704 29.3147 16.5063 29.2679C16.3779 29.1757 16.2588 29.0691 16.1476 28.9538C16.0377 28.8373 15.9365 28.7115 15.8544 28.568C15.8154 28.4956 15.779 28.4198 15.7552 28.3336C15.7439 28.2901 15.7347 28.2447 15.7367 28.1907C15.7367 28.165 15.7426 28.1341 15.7525 28.1045C15.7598 28.088 15.7678 28.0722 15.7764 28.0571C15.7883 28.0419 15.8022 28.0274 15.8161 28.0136C15.8319 28.0024 15.8498 27.9925 15.867 27.9846C15.8842 27.9794 15.9014 27.9747 15.9186 27.9715C15.9504 27.9688 15.9815 27.9695 16.0066 27.9754C16.0602 27.9846 16.1026 28.0044 16.143 28.0241C16.2224 28.0656 16.2879 28.1183 16.3507 28.1723C16.4732 28.2829 16.5751 28.4093 16.6644 28.5417C16.7524 28.6747 16.8312 28.8136 16.8927 28.9591C16.9245 29.0315 16.9503 29.1059 16.9662 29.183C16.9741 29.2212 16.9794 29.2607 16.9767 29.2995C16.9754 29.3377 16.9648 29.3798 16.9324 29.4042L16.9337 29.4055Z" fill="#0E0E0E"/>
<path d="M10.3932 21.8125L12.9448 20.0137L13.1222 20.2349C13.1222 20.2349 11.4758 21.4892 12.029 21.6643C12.5822 21.8395 10.3932 21.8125 10.3932 21.8125Z" fill="#0E0E0E"/>
<path d="M23.1216 23.5106C23.0673 23.3308 22.9998 23.1557 22.9204 22.9865C22.843 22.8166 22.755 22.6513 22.6564 22.4927C22.4598 22.1753 22.2256 21.8816 21.9497 21.6308C21.812 21.505 21.6651 21.3898 21.5103 21.2857C21.3541 21.183 21.1893 21.0961 21.0206 21.0158C20.8492 20.9414 20.6745 20.8723 20.4932 20.8255C20.4039 20.7965 20.3112 20.7788 20.2199 20.757C20.1279 20.7366 20.0346 20.7241 19.942 20.707C20.3178 20.7366 20.6904 20.8242 21.0411 20.9697C21.2158 21.0434 21.3832 21.1343 21.5434 21.2357C21.7022 21.3397 21.853 21.4556 21.994 21.582C22.2713 21.8415 22.5101 22.1397 22.6994 22.4663C22.8873 22.7936 23.0375 23.1438 23.1209 23.5099L23.1216 23.5106Z" fill="#0E0E0E"/>
<path d="M27.7894 29.8987C27.3249 29.5905 26.9325 29.1817 26.5871 28.7445C26.241 28.3053 25.9518 27.8233 25.705 27.3222C25.6481 27.1952 25.5938 27.0661 25.5382 26.9384C25.5118 26.8738 25.4807 26.8113 25.4575 26.7455L25.3873 26.5486C25.343 26.4162 25.2934 26.2859 25.253 26.1529C25.2153 26.0185 25.1789 25.8842 25.1438 25.7493L25.0909 25.5478L25.0512 25.343L24.9751 24.9335C24.9612 24.8656 24.9552 24.7958 24.948 24.7274L24.9261 24.5206C24.9122 24.383 24.8997 24.2447 24.8884 24.1071C24.9202 24.2421 24.9513 24.3771 24.9804 24.5121L25.0234 24.7142C25.0373 24.7814 25.0505 24.8492 25.0704 24.915L25.1769 25.3134L25.2285 25.5129L25.2921 25.7084C25.3351 25.8388 25.3768 25.9692 25.4178 26.1002C25.4621 26.2299 25.5151 26.3563 25.5634 26.4841L25.6355 26.6763C25.6593 26.7402 25.6904 26.8014 25.7169 26.8646L25.8843 27.2393L26.1159 27.6969L26.1675 27.7858L26.2701 27.9636C26.3045 28.0228 26.3363 28.0834 26.3727 28.1413L26.4838 28.3138L26.5943 28.487L26.7121 28.6556C27.0291 29.102 27.3785 29.53 27.7908 29.9013L27.7894 29.8987Z" fill="#0E0E0E"/>
<path d="M25.8784 30.085C25.9631 30.2635 26.0696 30.4287 26.1993 30.5756C26.3303 30.7211 26.4772 30.8508 26.6354 30.9667C26.7935 31.0812 26.9609 31.1839 27.135 31.2741C27.2217 31.3189 27.3103 31.3611 27.4003 31.3999C27.4897 31.4394 27.581 31.4769 27.6723 31.5079L27.8 31.5513L27.6677 31.5685C27.5135 31.5882 27.3633 31.5876 27.2117 31.5777C27.0609 31.5671 26.91 31.5448 26.7631 31.5092C26.6168 31.473 26.4706 31.4322 26.3316 31.3729C26.1914 31.3176 26.057 31.2485 25.9273 31.1741C26.063 31.2373 26.1993 31.3005 26.3416 31.3466C26.4825 31.3966 26.6268 31.4341 26.7724 31.4644C26.9179 31.4947 27.0668 31.5105 27.2144 31.5204C27.362 31.529 27.5128 31.5276 27.6564 31.5072L27.6518 31.5678C27.4606 31.5053 27.2799 31.423 27.1039 31.3301C26.9285 31.2366 26.7591 31.1306 26.5996 31.0121C26.4428 30.889 26.2986 30.7514 26.1702 30.5993C26.0464 30.4439 25.9465 30.27 25.8764 30.0863L25.8784 30.085Z" fill="#0E0E0E"/>
<path d="M16.0523 18.6224C16.0748 18.7165 16.1019 18.8094 16.1357 18.8996C16.1681 18.9905 16.2045 19.0793 16.2469 19.1649C16.3322 19.3361 16.4328 19.5001 16.5592 19.643C16.6829 19.7872 16.8318 19.9096 16.9966 20.0064C17.0793 20.0538 17.166 20.096 17.2567 20.1282C17.346 20.1651 17.44 20.1875 17.5346 20.2118C17.3407 20.1941 17.1475 20.1414 16.9721 20.0512C16.7954 19.9623 16.6386 19.8352 16.5089 19.6864C16.3792 19.5376 16.2766 19.3664 16.2005 19.186C16.1251 19.0056 16.0702 18.816 16.0516 18.6224H16.0523Z" fill="#0E0E0E"/>
<path d="M12.5431 21.3101C12.8125 21.0882 13.1407 20.9368 13.4874 20.8723C13.8342 20.8097 14.1975 20.8393 14.5316 20.9532C14.5727 20.969 14.615 20.9829 14.6561 21L14.7771 21.0546L15.0101 21.1758L15.2397 21.3029L15.466 21.4352C15.7658 21.6156 16.0569 21.8105 16.3408 22.0146C16.9046 22.4288 17.436 22.8864 17.9277 23.3822C18.1745 23.6291 18.4094 23.8872 18.6397 24.1499C18.7528 24.2823 18.862 24.4186 18.9739 24.5522L19.2935 24.9657L18.96 24.5634C18.8448 24.433 18.7317 24.3 18.6152 24.171C18.3809 23.9135 18.1427 23.6594 17.8919 23.4177L17.7046 23.236L17.5127 23.0589C17.3864 22.9391 17.2527 22.8278 17.1223 22.7126C16.8556 22.4894 16.585 22.2694 16.3018 22.0673C16.0205 21.8619 15.7327 21.667 15.4349 21.4859L15.2106 21.3529L14.9829 21.2252C14.8281 21.1442 14.6786 21.056 14.5151 21C14.1909 20.8828 13.8355 20.8479 13.4934 20.9032C13.1506 20.9565 12.8224 21.0994 12.5438 21.3095L12.5431 21.3101Z" fill="#0E0E0E"/>
<path d="M23.4604 32.0656C23.3902 31.7443 23.2989 31.4289 23.1957 31.1181C23.0911 30.8073 22.978 30.4998 22.843 30.2009C22.8119 30.1252 22.7781 30.0501 22.7431 29.9764C22.708 29.9026 22.6756 29.8269 22.6385 29.7538C22.5637 29.6077 22.4903 29.4615 22.4102 29.3186C22.256 29.0289 22.0767 28.7537 21.8974 28.4771L22.0456 28.6747C22.0946 28.7405 22.1449 28.8063 22.1899 28.8755L22.3255 29.0822C22.3712 29.1507 22.4109 29.2231 22.4539 29.2936C22.624 29.5767 22.7689 29.8737 22.9039 30.1746C23.0342 30.4774 23.15 30.7869 23.2447 31.103C23.2916 31.261 23.334 31.4203 23.3724 31.5803C23.4068 31.7416 23.4412 31.9023 23.461 32.0662L23.4604 32.0656Z" fill="#0E0E0E"/>
<path d="M19.0195 18.2109C19.4126 18.1075 19.8222 18.0647 20.2311 18.0687C20.6401 18.0719 21.051 18.1259 21.4467 18.2398C21.6439 18.2971 21.8385 18.3682 22.0238 18.4578C22.2091 18.5473 22.389 18.6487 22.5538 18.7725C22.89 19.0096 23.1666 19.3223 23.3816 19.664C23.2486 19.5106 23.1203 19.3559 22.9674 19.2249C22.8966 19.1544 22.8152 19.0945 22.7391 19.03C22.657 18.972 22.5803 18.9088 22.4949 18.8568C22.3288 18.7468 22.1535 18.6514 21.9708 18.571C21.7902 18.4881 21.6022 18.4196 21.4097 18.3663C21.0265 18.2537 20.6282 18.1951 20.2278 18.1707C20.0273 18.1595 19.8262 18.1569 19.6243 18.1635C19.4225 18.1681 19.2207 18.1845 19.0195 18.2109Z" fill="#0E0E0E"/>
<path d="M13.4874 36.8162C13.4874 36.9182 13.4835 37.0203 13.4749 37.121C13.4716 37.1717 13.4656 37.2218 13.4616 37.2724C13.459 37.2994 13.4563 37.3179 13.4603 37.3396C13.4636 37.3607 13.4709 37.3804 13.4821 37.3989C13.5033 37.4357 13.5391 37.4634 13.5801 37.4752C13.629 37.4904 13.678 37.5036 13.7263 37.52C13.8236 37.5503 13.9195 37.5845 14.0148 37.6234C13.9129 37.6096 13.8123 37.5918 13.7131 37.5701C13.6628 37.5602 13.6138 37.5477 13.5642 37.5365C13.5066 37.5227 13.4557 37.4838 13.4252 37.4331C13.4107 37.4074 13.4001 37.3791 13.3968 37.3495C13.3921 37.3205 13.3968 37.2883 13.4001 37.2652C13.408 37.2152 13.4153 37.1651 13.4246 37.1151C13.4418 37.015 13.463 36.9156 13.4881 36.8168L13.4874 36.8162Z" fill="#0E0E0E"/>
<path d="M8.2452 48.61C8.31071 48.6554 8.37424 48.7101 8.43115 48.7575C8.45629 48.7746 8.48938 48.7766 8.51453 48.7627C8.5271 48.7561 8.53769 48.7469 8.54563 48.7351C8.54894 48.7292 8.55225 48.7226 8.55423 48.716L8.56283 48.6877C8.61114 48.5369 8.66474 48.3868 8.73687 48.2432C8.71437 48.4026 8.67268 48.5553 8.6257 48.7074L8.61643 48.7357C8.61246 48.7476 8.60651 48.7594 8.59989 48.7706C8.58533 48.7924 8.56482 48.8095 8.541 48.8194C8.49401 48.8398 8.43578 48.8319 8.39939 48.7976C8.34115 48.7357 8.29351 48.6765 8.24586 48.61H8.2452Z" fill="#0E0E0E"/>
<path d="M11.2964 42.7901C11.4156 42.6907 11.5453 42.609 11.6769 42.5313C11.6908 42.5228 11.718 42.5083 11.7418 42.5063C11.7663 42.5024 11.7921 42.5063 11.8146 42.5155C11.8371 42.5254 11.8569 42.5412 11.8715 42.5603C11.8867 42.5814 11.892 42.5992 11.8993 42.6169C11.9291 42.6874 11.9569 42.7585 11.9787 42.8329C11.9324 42.771 11.8913 42.7058 11.853 42.64C11.843 42.6235 11.8338 42.6051 11.8258 42.5965C11.8166 42.586 11.8047 42.5781 11.7914 42.5741C11.7782 42.5702 11.7643 42.5682 11.7511 42.5708C11.7365 42.5735 11.7286 42.5774 11.71 42.5893C11.577 42.665 11.442 42.7368 11.2964 42.7914V42.7901Z" fill="#0E0E0E"/>
</svg>
