<svg width="55" height="46" viewBox="0 0 55 46" fill="none" xmlns="http://www.w3.org/2000/svg">
<circle cx="6.44641" cy="1.78384" r="1.25" transform="rotate(12.2363 6.44641 1.78384)" fill="white" stroke="#742B02" stroke-width="0.5"/>
<circle cx="13.8878" cy="14.6532" r="1.25" transform="rotate(12.2363 13.8878 14.6532)" fill="white" stroke="#742B02" stroke-width="0.5"/>
<circle cx="1.78381" cy="23.2841" r="1.25" transform="rotate(12.2363 1.78381 23.2841)" fill="white" stroke="#742B02" stroke-width="0.5"/>
<circle cx="3.36145" cy="34.882" r="1.25" transform="rotate(12.2363 3.36145 34.882)" fill="white" stroke="#742B02" stroke-width="0.5"/>
<circle cx="16.2194" cy="3.90322" r="1.25" transform="rotate(12.2363 16.2194 3.90322)" fill="white" stroke="#742B02" stroke-width="0.5"/>
<circle cx="23.6608" cy="16.7729" r="1.25" transform="rotate(12.2363 23.6608 16.7729)" fill="white" stroke="#742B02" stroke-width="0.5"/>
<circle cx="4.11487" cy="12.5338" r="1.25" transform="rotate(12.2363 4.11487 12.5338)" fill="white" stroke="#742B02" stroke-width="0.5"/>
<circle cx="11.5563" cy="25.4035" r="1.25" transform="rotate(12.2363 11.5563 25.4035)" fill="white" stroke="#742B02" stroke-width="0.5"/>
<circle cx="13.1344" cy="37.0014" r="1.25" transform="rotate(12.2363 13.1344 37.0014)" fill="white" stroke="#742B02" stroke-width="0.5"/>
<circle cx="25.9923" cy="6.02261" r="1.25" transform="rotate(12.2363 25.9923 6.02261)" fill="white" stroke="#742B02" stroke-width="0.5"/>
<circle cx="33.4337" cy="18.8922" r="1.25" transform="rotate(12.2363 33.4337 18.8922)" fill="white" stroke="#742B02" stroke-width="0.5"/>
<circle cx="21.3292" cy="27.5229" r="1.25" transform="rotate(12.2363 21.3292 27.5229)" fill="white" stroke="#742B02" stroke-width="0.5"/>
<circle cx="22.9069" cy="39.1208" r="1.25" transform="rotate(12.2363 22.9069 39.1208)" fill="white" stroke="#742B02" stroke-width="0.5"/>
<circle cx="35.7648" cy="8.14199" r="1.25" transform="rotate(12.2363 35.7648 8.14199)" fill="white" stroke="#742B02" stroke-width="0.5"/>
<circle cx="43.2062" cy="21.0116" r="1.25" transform="rotate(12.2363 43.2062 21.0116)" fill="white" stroke="#742B02" stroke-width="0.5"/>
<circle cx="31.1022" cy="29.6422" r="1.25" transform="rotate(12.2363 31.1022 29.6422)" fill="white" stroke="#742B02" stroke-width="0.5"/>
<circle cx="32.6798" cy="41.2401" r="1.25" transform="rotate(12.2363 32.6798 41.2401)" fill="white" stroke="#742B02" stroke-width="0.5"/>
<circle cx="45.5377" cy="10.2616" r="1.25" transform="rotate(12.2363 45.5377 10.2616)" fill="white" stroke="#742B02" stroke-width="0.5"/>
<circle cx="52.9791" cy="23.131" r="1.25" transform="rotate(12.2363 52.9791 23.131)" fill="white" stroke="#742B02" stroke-width="0.5"/>
<circle cx="40.8751" cy="31.7616" r="1.25" transform="rotate(12.2363 40.8751 31.7616)" fill="white" stroke="#742B02" stroke-width="0.5"/>
<circle cx="42.4528" cy="43.3595" r="1.25" transform="rotate(12.2363 42.4528 43.3595)" fill="white" stroke="#742B02" stroke-width="0.5"/>
</svg>
