<svg xmlns="http://www.w3.org/2000/svg" width="79" height="64" viewBox="0 0 79 64" fill="none">
    <path fill-rule="evenodd" clip-rule="evenodd" d="M73.5999 8.17154C75.6067 13.0535 76.6251 18.2638 76.6251 23.5415C76.6251 45.8855 58.5106 64 36.1666 64C23.3109 64 11.3159 57.9402 3.66719 47.6399C3.29362 47.1375 3.34309 46.4492 3.78404 46.0049L13.5189 36.1958C13.7987 35.9135 14.1569 35.7881 14.5509 35.8325C14.9458 35.8768 15.2665 36.0789 15.4772 36.4158C19.9335 43.5613 27.7212 47.9077 36.1674 47.9077C49.6252 47.9077 60.5345 36.9984 60.5345 23.5406C60.5345 19.8928 59.7293 16.309 58.1515 13.0194C57.986 12.6748 57.9818 12.3123 58.137 11.9635C58.2931 11.6147 58.566 11.3758 58.9336 11.2692L72.086 7.44146C72.7052 7.26151 73.3542 7.57366 73.599 8.17069L73.5999 8.17154Z" fill="#441010"></path>
    <path fill-rule="evenodd" clip-rule="evenodd" d="M72.4375 8.64915C74.325 13.2411 75.368 18.2689 75.368 23.5415C75.368 45.1921 57.8173 62.7428 36.1667 62.7428C23.265 62.7428 11.8192 56.5091 4.67627 46.8902L14.4112 37.0811C18.9357 44.3358 26.987 49.1648 36.1675 49.1648C50.3195 49.1648 61.7917 37.6926 61.7917 23.5406C61.7917 19.5781 60.8919 15.8254 59.286 12.4761L72.4384 8.6483L72.4375 8.64915Z" fill="white"></path>
    <path fill-rule="evenodd" clip-rule="evenodd" d="M28.0319 45.7004C26.3952 41.5016 23.0587 38.7084 16.8668 40.4585C8.78136 42.8151 3.57703 41.8206 1.25205 37.476C-0.0187507 35.0998 -0.300204 32.484 0.307906 30.0558C0.854608 27.875 5.32631 21.1269 7.57964 22.7065C9.19587 23.8391 8.62699 29.504 11.7724 31.2806C15.926 33.6269 20.1564 28.4157 26.5658 33.2243C30.4465 36.1361 31.7642 39.5169 31.3804 44.0825C31.1083 47.3132 29.6618 49.8804 28.0319 45.7004Z" fill="#441010"></path>
    <path fill-rule="evenodd" clip-rule="evenodd" d="M28.5104 45.0258C26.988 40.8517 23.6949 38.1276 17.5934 39.9306C9.62482 42.3554 4.52028 41.4206 2.28059 37.1263C1.05584 34.7774 0.805941 32.1804 1.4277 29.7607C1.98719 27.5867 5.85249 21.4272 8.05124 22.9734C9.62823 24.0831 9.60862 29.1262 12.6816 30.8601C16.7396 33.1493 20.9495 27.9262 27.1978 32.6401C30.9812 35.4947 31.8733 38.9046 31.4494 43.4462C31.1492 46.6608 30.2178 49.703 28.5112 45.0249L28.5104 45.0258Z" fill="url(#paint0_linear_1813_164)"></path>
    <path fill-rule="evenodd" clip-rule="evenodd" d="M28.2621 45.2748C27.3078 40.6538 24.3525 37.1868 17.6556 37.9092C8.89727 38.9259 3.69891 36.9881 2.05966 32.096C1.16327 29.4204 1.33043 26.6707 2.38375 24.2707C3.32961 22.1146 9.12755 15.9328 11.177 17.9576C12.6474 19.4101 11.0679 25.1577 14.0035 27.5424C17.8808 30.6912 23.1593 26.0532 28.9334 32.1394C32.4294 35.8248 33.1978 39.5451 32.0021 44.1908C31.156 47.4787 29.2131 49.8753 28.263 45.274L28.2621 45.2748Z" fill="#441010"></path>
    <path fill-rule="evenodd" clip-rule="evenodd" d="M28.8736 44.6624C28.0326 40.0875 25.1106 36.6981 18.4965 37.4913C9.84561 38.5992 4.74107 36.7399 3.18113 31.9151C2.32824 29.2763 2.52441 26.5513 3.59137 24.1624C4.54917 22.0165 9.61789 16.3345 11.6162 18.3167C13.0499 19.7384 12.1467 24.9411 15.015 27.2686C18.8027 30.3424 24.0633 25.6882 29.6872 31.6482C33.0928 35.2568 33.4169 38.9327 32.1836 43.5468C31.3111 46.8117 29.8169 49.7891 28.8736 44.6616V44.6624Z" fill="url(#paint1_linear_1813_164)"></path>
    <path fill-rule="evenodd" clip-rule="evenodd" d="M28.5737 44.8535C28.5404 39.9127 26.2172 35.7463 19.191 35.1152C9.98837 34.3638 5.04758 31.3087 4.36697 25.9492C3.99511 23.0178 4.7303 20.2288 6.30303 17.9798C7.71627 15.9601 14.9368 10.7993 16.6273 13.2991C17.8392 15.0919 15.0392 20.6706 17.5654 23.7214C20.9011 27.7496 27.273 24.0686 31.9545 31.5023C34.7887 36.003 34.816 39.9809 32.6351 44.5064C31.0923 47.709 28.6061 49.7721 28.5728 44.8526L28.5737 44.8535Z" fill="#441010"></path>
    <path fill-rule="evenodd" clip-rule="evenodd" d="M29.3268 44.3503C29.401 39.4794 27.0956 35.4009 20.1403 34.8593C11.0298 34.2239 6.16829 31.2687 5.55591 25.9944C5.22073 23.1091 5.98151 20.3517 7.56617 18.1171C8.98965 16.1094 15.359 11.3136 17.0051 13.7588C18.1855 15.5124 16.1923 20.6698 18.6606 23.6481C21.9203 27.5808 28.276 23.8792 32.8305 31.1527C35.5879 35.557 35.1674 39.3984 32.955 43.8837C31.3899 47.0582 29.2449 49.8088 29.3277 44.3503H29.3268Z" fill="url(#paint2_linear_1813_164)"></path>
    <path fill-rule="evenodd" clip-rule="evenodd" d="M28.9172 44.4995C29.9773 39.4214 28.5155 34.6324 21.445 32.4294C12.1681 29.6209 7.77405 25.3914 8.26276 19.7418C8.52971 16.6518 9.90201 13.9524 12.0146 11.9925C13.9123 10.2321 22.4642 6.53569 23.6446 9.4756C24.4915 11.5839 20.3832 16.6885 22.2996 20.3781C24.831 25.2506 32.1846 22.8839 35.342 31.5484C37.2542 36.7945 36.4004 40.8824 33.1612 45.0437C30.8686 47.9887 27.8605 49.5546 28.9163 44.4995H28.9172Z" fill="#441010"></path>
    <path fill-rule="evenodd" clip-rule="evenodd" d="M29.8016 44.1498C30.9555 39.1681 29.4937 34.4721 22.4761 32.3765C13.2683 29.707 8.93391 25.5986 9.47294 20.0506C9.76804 17.016 11.1591 14.355 13.2794 12.413C15.1847 10.6688 22.7831 7.15745 23.9303 10.0308C24.7533 12.0914 21.5661 16.9427 23.439 20.5453C25.9132 25.3027 33.2549 22.912 36.3176 31.3838C38.1718 36.5131 36.8899 40.3622 33.6268 44.4756C31.318 47.3866 28.5077 49.7346 29.8016 44.1515V44.1498Z" fill="url(#paint3_linear_1813_164)"></path>
    <path fill-rule="evenodd" clip-rule="evenodd" d="M31.0437 44.1968C33.112 39.0317 32.4621 33.6994 25.4053 30.0524C16.1309 25.353 12.2802 20.0651 13.8512 14.1887C14.7109 10.9741 16.664 8.37964 19.2611 6.70456C21.5937 5.20007 31.3175 2.893 32.016 6.21756C32.5167 8.60224 27.2236 13.2275 28.5593 17.4825C30.323 23.1014 38.5321 21.9756 40.2498 31.7173C41.2895 37.6159 39.6246 41.7745 35.4259 45.5648C32.4544 48.2471 28.9849 49.3397 31.0437 44.1968Z" fill="#441010"></path>
    <path fill-rule="evenodd" clip-rule="evenodd" d="M32.0433 43.9921C34.1926 38.9455 33.5248 33.7122 26.5046 30.188C17.2772 25.649 13.4665 20.4992 15.0716 14.7396C15.9493 11.5891 17.916 9.03808 20.519 7.38262C22.8568 5.89603 31.5384 3.60602 32.2147 6.85553C32.6992 9.18563 28.4262 13.7145 29.732 17.8698C31.4565 23.3564 39.6579 22.2024 41.3108 31.7232C42.3112 37.4879 40.2387 41.314 36.0237 45.0488C33.0412 47.6919 29.6339 49.6476 32.0433 43.9921Z" fill="url(#paint4_linear_1813_164)"></path>
    <path fill-rule="evenodd" clip-rule="evenodd" d="M32.9871 43.9682C36.0916 38.8577 36.3432 33.0904 29.5064 27.9773C20.5042 21.3581 17.3544 15.0731 20.0572 9.1208C21.5353 5.86532 24.065 3.45847 27.1132 2.14161C29.8518 0.958648 40.5675 0.228575 40.7211 3.87724C40.8311 6.4939 34.4037 10.4624 35.0681 15.2096C35.9457 21.4783 44.8473 21.7333 44.9488 32.3638C45.0102 38.8005 42.5113 42.9149 37.3905 46.1925C33.7675 48.5115 29.8962 49.0574 32.9862 43.969L32.9871 43.9682Z" fill="#441010"></path>
    <path fill-rule="evenodd" clip-rule="evenodd" d="M34.0833 43.9281C37.2526 38.9583 37.4684 33.2917 30.6487 28.3168C21.6678 21.8758 18.5368 15.7443 21.255 9.92166C22.7416 6.73697 25.2772 4.37958 28.328 3.08404C31.0692 1.9207 40.677 1.02602 40.8194 4.58939C40.9218 7.1455 35.5921 11.1925 36.2437 15.8271C37.1034 21.9483 46.0016 22.1726 46.0732 32.5574C46.1167 38.8449 43.2433 42.5353 38.1158 45.7507C34.4876 48.0262 30.5302 49.4983 34.0824 43.9281H34.0833Z" fill="url(#paint5_linear_1813_164)"></path>
    <path fill-rule="evenodd" clip-rule="evenodd" d="M34.0166 43.9938C38.0175 39.308 39.2261 33.4845 33.1168 27.1569C25.0544 18.9393 22.8881 12.0266 26.6203 6.41971C28.6613 3.35272 31.6311 1.32284 34.9488 0.486153C37.9297 -0.265243 48.9481 0.761636 48.5012 4.49729C48.1814 7.17622 40.989 10.152 40.8815 15.0893C40.7391 21.6097 49.7507 23.3385 48.0987 34.1659C47.0982 40.7221 43.8777 44.4944 38.1292 46.9823C34.0618 48.7427 30.0336 48.6591 34.0166 43.9938Z" fill="#441010"></path>
    <path fill-rule="evenodd" clip-rule="evenodd" d="M35.1375 44.1337C39.181 39.6022 40.3359 33.8751 34.2215 27.6899C26.1506 19.6566 23.9791 12.9034 27.7046 7.43123C29.7421 4.43759 32.7102 2.45889 36.0271 1.64523C39.0071 0.914303 48.9253 1.59064 48.4827 5.23845C48.1654 7.85512 42.0766 11.091 41.9734 15.9124C41.8378 22.2801 50.8503 23.9764 49.2085 34.5506C48.2149 40.9524 44.6839 44.2309 38.938 46.6548C34.8722 48.37 30.6052 49.2135 35.1375 44.1354V44.1337Z" fill="url(#paint6_linear_1813_164)"></path>
    <path fill-rule="evenodd" clip-rule="evenodd" d="M35.0178 44.1396C39.9603 40.1097 42.2699 34.4039 37.2217 26.8285C30.535 16.9665 29.6105 9.52678 34.4498 4.50838C37.0963 1.76378 40.4959 0.247338 44.0294 0.0102345C47.2039 -0.202135 58.2326 2.88533 57.0863 6.60648C56.2641 9.27518 48.3894 10.9716 47.3642 15.9789C46.0107 22.5913 54.8662 26.0217 51.1775 36.7416C48.9438 43.2321 44.965 46.4765 38.6511 47.9444C34.1828 48.9832 30.0975 48.1507 35.0178 44.1396Z" fill="#441010"></path>
    <path fill-rule="evenodd" clip-rule="evenodd" d="M36.1327 44.4901C41.0905 40.6257 43.3277 35.0077 38.247 27.5756C31.5177 17.9004 30.5574 10.621 35.3659 5.73909C37.9963 3.06869 41.3839 1.60343 44.9123 1.38935C48.0825 1.19745 58.0562 3.72371 56.9296 7.35617C56.121 9.96175 49.3218 12.1281 48.3239 17.0186C47.0053 23.4766 55.8677 26.8754 52.237 37.3378C50.0382 43.6722 45.8352 46.3563 39.5357 47.7593C35.0777 48.7529 30.5761 48.8203 36.1327 44.4893V44.4901Z" fill="url(#paint7_linear_1813_164)"></path>
    <path fill-rule="evenodd" clip-rule="evenodd" d="M35.8864 44.4458C41.773 41.3686 45.3245 36.0286 41.7594 27.2413C36.9994 15.7776 37.6143 7.99157 43.6025 3.88406C46.8776 1.63669 50.6644 0.800859 54.3208 1.29895C57.6044 1.74671 68.2135 7.20606 66.2638 10.7635C64.8659 13.3145 56.4743 13.398 54.3804 18.2928C51.6154 24.7577 59.9336 30.1121 53.9259 40.2786C50.2883 46.4347 45.5488 48.9124 38.7982 49.0889C34.0211 49.2134 30.0262 47.5094 35.8864 44.4458Z" fill="#441010"></path>
    <path fill-rule="evenodd" clip-rule="evenodd" d="M36.9514 45.036C42.8192 42.1302 46.2786 36.8653 42.6495 28.2179C37.8077 16.9358 38.3518 9.30674 44.2802 5.33142C47.5229 3.15655 51.2876 2.37018 54.9328 2.8913C58.2079 3.35868 67.8575 8.02484 65.947 11.4961C64.5765 13.9857 57.1845 14.7729 55.1418 19.5551C52.4441 25.8699 60.7768 31.1927 54.8817 41.1093C51.3123 47.1136 46.4611 48.9721 39.7386 49.0855C34.9812 49.1657 30.373 48.2932 36.9505 45.036H36.9514Z" fill="url(#paint8_linear_1813_164)"></path>
    <path fill-rule="evenodd" clip-rule="evenodd" d="M54.9044 3.08929C51.3069 2.57499 47.5922 3.35084 44.3915 5.49752L44.3915 5.49753C41.4826 7.44811 39.8932 10.2908 39.6254 14.0488C39.3568 17.8178 40.418 22.5115 42.8332 28.139L42.8338 28.1405C44.6629 32.4988 44.7169 36.0341 43.5464 38.8567C42.3772 41.6761 40.0009 43.749 37.04 45.2152C37.0363 45.217 37.0326 45.2187 37.0288 45.2203C35.3921 46.0317 34.4873 46.6786 34.1 47.1769C33.9086 47.4232 33.8646 47.606 33.8853 47.7391C33.9058 47.8713 33.9988 48.0088 34.2046 48.1458C34.6243 48.425 35.3985 48.6249 36.395 48.7461C37.3811 48.866 38.5513 48.9055 39.7351 48.8855C43.0802 48.8291 45.9411 48.3385 48.4041 47.127C50.8639 45.9171 52.9418 43.9808 54.7096 41.0071C56.1678 38.5542 56.7417 36.3939 56.83 34.4369C56.9185 32.4775 56.521 30.7101 56.0191 29.0391C55.8594 28.5073 55.6879 27.982 55.5182 27.4626C55.1588 26.3619 54.8078 25.2873 54.5959 24.2318C54.281 22.6645 54.2625 21.1038 54.9577 19.4765C56.011 17.0107 58.4351 15.5913 60.7089 14.486C61.1251 14.2837 61.5347 14.0926 61.9313 13.9076C62.6306 13.5813 63.2894 13.274 63.8721 12.9574C64.7877 12.4599 65.4594 11.967 65.7717 11.3997C65.7717 11.3997 65.7717 11.3997 65.7717 11.3996M65.7717 11.3996C66.195 10.6306 65.9973 9.77548 65.3315 8.8715C64.6655 7.96736 63.5596 7.05972 62.2763 6.23553C59.7077 4.58589 56.5039 3.31755 54.9044 3.08929L54.9044 3.08929M54.961 2.69331C51.268 2.16538 47.4534 2.96226 44.1687 5.16532C41.1492 7.19005 39.5023 10.1495 39.2264 14.0204C38.9513 17.8802 40.0388 22.6418 42.4653 28.296C44.2649 32.5847 44.2957 36.0055 43.1769 38.7034C42.058 41.4016 39.7748 43.4125 36.8728 44.8517C36.869 44.8532 36.8653 44.8549 36.8616 44.8568C35.2161 45.6716 34.2333 46.3536 33.7842 46.9314C33.5571 47.2236 33.4458 47.5161 33.49 47.8005C33.5344 48.0858 33.7265 48.3081 33.983 48.4788C34.4879 48.8148 35.3466 49.0215 36.3467 49.1432C37.3571 49.2661 38.5469 49.3056 39.7418 49.2855C43.1192 49.2285 46.0452 48.7331 48.5807 47.486C51.1195 46.2372 53.2519 44.2421 55.0534 41.2115C56.5428 38.7061 57.1381 36.4823 57.2296 34.4549C57.3211 32.4299 56.9094 30.6126 56.4022 28.924C56.2359 28.3705 56.0607 27.8341 55.8893 27.3095C55.534 26.222 55.1954 25.1855 54.988 24.1531C54.6834 22.6364 54.6719 21.1637 55.3256 19.6336L55.1417 19.5551L55.3256 19.6336C56.315 17.3173 58.6082 15.9519 60.8838 14.8457C61.2859 14.6503 61.6891 14.4621 62.0833 14.2782C62.7915 13.9477 63.4708 13.6307 64.0631 13.3089C64.9828 12.8091 65.7491 12.27 66.1221 11.5926L66.1221 11.5925C66.6541 10.626 66.362 9.5961 65.6535 8.63428C64.9452 7.67262 63.7921 6.73365 62.4925 5.89896C59.8951 4.23087 56.6366 2.93245 54.961 2.69331Z" fill="#441010"></path>
    <path fill-rule="evenodd" clip-rule="evenodd" d="M17.4827 45.975C17.4827 45.9801 17.4827 45.9844 17.4818 45.9895L17.417 46.6164L18.055 46.4569C17.9859 46.3614 17.9876 46.2258 18.0686 46.1328L19.1168 44.9149C19.2106 44.8057 19.377 44.7929 19.4861 44.8867L22.2009 47.222C22.31 47.3158 22.3228 47.4821 22.229 47.5913L21.1817 48.8092C21.0879 48.9184 20.9215 48.9311 20.8124 48.8373L20.5437 48.6062C20.4542 48.5286 20.3603 48.4885 20.2409 48.4987C19.9646 48.5226 19.6465 48.6002 19.3821 48.6599L17.9347 49.0241L17.6482 51.7312C17.6362 51.8403 17.6234 51.9495 17.6106 52.0587C17.5987 52.1576 17.5961 52.2591 17.5978 52.3589C17.5987 52.4468 17.6081 52.5355 17.6345 52.619C17.6499 52.6694 17.6763 52.7103 17.7164 52.7444L17.985 52.9755C18.0942 53.0694 18.107 53.2357 18.0132 53.3448L16.9658 54.5628C16.872 54.6719 16.7057 54.6847 16.5965 54.5909L13.0715 51.5589C12.9624 51.4651 12.9496 51.2988 13.0434 51.1896L14.0908 49.9717C14.1846 49.8625 14.3509 49.8497 14.4601 49.9435C14.466 49.9486 14.4763 49.9572 14.4873 49.9657C14.4984 49.9086 14.5053 49.8386 14.5078 49.8019L14.5709 49.1836L13.846 49.3653C13.8289 49.3695 13.8144 49.3721 13.7974 49.3729C13.9074 49.4676 13.9193 49.6331 13.8255 49.7422L12.7773 50.9602C12.6835 51.0693 12.5172 51.0821 12.408 50.9883L9.49282 48.48C9.38365 48.3861 9.37086 48.2198 9.46468 48.1107L10.512 46.8927C10.6058 46.7836 10.7722 46.7708 10.8813 46.8646L11.1517 47.0974C11.2651 47.1947 11.4255 47.3064 11.5824 47.3047C11.8332 47.3021 12.1632 47.2202 12.4063 47.158L14.13 46.7162L14.3961 44.172C14.4131 44.0066 14.4686 43.5818 14.443 43.4232C14.4328 43.3592 14.356 43.2833 14.3099 43.2441L14.1197 43.0803C14.0106 42.9865 13.9978 42.8202 14.0925 42.711L15.1398 41.4931C15.2336 41.3839 15.3999 41.3711 15.5091 41.4649L18.907 44.3878C19.0162 44.4816 19.029 44.6479 18.9352 44.7571L17.8878 45.975C17.794 46.0842 17.6277 46.097 17.5185 46.0032L17.4844 45.9742L17.4827 45.975ZM29.1101 55.0455C29.1545 55.0404 29.1988 55.0344 29.2432 55.0259C29.6185 54.9594 29.9562 54.8041 30.2462 54.5568C30.5328 54.3129 30.7443 54.0127 30.8773 53.6604C31.0522 53.199 31.1434 52.6864 31.0044 52.2028C30.8807 51.7704 30.63 51.4131 30.2846 51.1265C29.9315 50.8348 29.5349 50.5985 29.1187 50.4084C28.5634 50.1542 27.9886 49.9282 27.418 49.7124L23.8964 48.3776C23.7617 48.3264 23.6099 48.3947 23.5587 48.5294L22.9889 50.0314C22.9378 50.1661 23.006 50.3179 23.1408 50.3691L23.6124 50.5482C23.6457 50.561 23.7327 50.5977 23.7719 50.631C23.7693 50.6864 23.7327 50.7913 23.7182 50.8297L22.1113 55.0685C22.0968 55.1078 22.055 55.2084 22.0201 55.2519C21.9697 55.2511 21.8785 55.2195 21.8461 55.2076L21.3744 55.0285C21.2397 54.9773 21.0879 55.0455 21.0367 55.1803L20.4678 56.6805C20.4166 56.8153 20.4849 56.9671 20.6196 57.0182L23.7088 58.1893C24.4116 58.4554 25.1254 58.7189 25.8444 58.9407C26.3493 59.0967 26.8764 59.2059 27.4052 59.2281C27.8879 59.2477 28.3511 59.1488 28.7587 58.8844C29.2031 58.5969 29.4837 58.1227 29.6671 57.6374C29.8317 57.2025 29.8999 56.7419 29.8044 56.2831C29.7191 55.8754 29.5426 55.5095 29.262 55.2016C29.2125 55.147 29.1613 55.0958 29.1084 55.0464L29.1101 55.0455ZM38.2548 57.1607L36.7316 60.5816C36.6889 60.6771 36.6002 60.736 36.4953 60.7368L33.0727 60.7752C32.9285 60.7769 32.81 60.6609 32.8083 60.5159L32.7904 58.91C32.7887 58.7658 32.9046 58.6473 33.0496 58.6456L33.5537 58.6396C33.5912 58.6396 33.6825 58.6362 33.7337 58.6217C33.749 58.5603 33.7507 58.446 33.7499 58.4008L33.6987 53.8805C33.6987 53.8387 33.6936 53.7304 33.6765 53.6775C33.6279 53.6613 33.5332 53.6579 33.4974 53.6587L32.9933 53.6647C32.8492 53.6664 32.7298 53.5504 32.7281 53.4054L32.7102 51.7986C32.7085 51.6544 32.8245 51.5359 32.9695 51.5342L37.3985 51.4847C37.5427 51.483 37.6612 51.599 37.6629 51.744L37.6808 53.3508C37.6825 53.495 37.5665 53.6135 37.4216 53.6152L37.1972 53.6178C37.1529 53.6178 37.0233 53.6246 37.0079 53.628C36.9857 53.6689 36.9832 53.7986 36.984 53.8438L36.9994 55.2476L38.5857 51.6254C38.6284 51.529 38.7171 51.4702 38.8228 51.4685L42.1926 51.431C42.3368 51.4293 42.4553 51.5452 42.457 51.6902L42.4749 53.2962C42.4766 53.4404 42.3606 53.5589 42.2156 53.5606L41.7159 53.5666C41.6715 53.5666 41.541 53.5734 41.5265 53.5768C41.5043 53.6178 41.5018 53.7474 41.5026 53.7926L41.5538 58.3257C41.5538 58.3718 41.5598 58.5006 41.5598 58.5176C41.5982 58.5432 41.7286 58.5475 41.773 58.5466L42.2728 58.5407C42.4169 58.5389 42.5355 58.6549 42.5372 58.7999L42.5551 60.4059C42.5568 60.5501 42.4408 60.6686 42.2958 60.6703L37.8557 60.7206C37.7115 60.7223 37.593 60.6064 37.5913 60.4614L37.5734 58.8554C37.5717 58.7112 37.6877 58.5927 37.8326 58.591L38.0732 58.5884C38.109 58.5884 38.213 58.5833 38.2361 58.5705C38.2659 58.5304 38.2693 58.3965 38.2685 58.3496L38.2548 57.1598V57.1607ZM48.9722 51.2356L48.0827 51.6374C48.3616 52.3043 48.6294 52.9755 48.8955 53.6476C49.1147 54.2011 49.3347 54.7615 49.5215 55.327C49.6776 55.7995 49.7714 56.2873 49.8132 56.782C49.8575 57.3057 49.7765 57.814 49.5462 58.289C49.2912 58.8153 48.8324 59.1701 48.3078 59.4063C47.8899 59.5948 47.4422 59.6878 46.9833 59.6741C46.881 59.6707 46.7948 59.6136 46.7522 59.5198L45.733 57.2613C45.698 57.1846 45.7014 57.1035 45.7415 57.0293C45.7816 56.9551 45.8473 56.9082 45.9308 56.8954C46.1296 56.8639 46.3837 56.8178 46.5679 56.7342C46.8255 56.6182 46.9338 56.4536 46.8963 56.1705C46.8323 55.6826 46.6174 55.1206 46.4332 54.6668C46.4315 54.6634 46.4306 54.66 46.4289 54.6566C46.4016 54.5807 46.3743 54.5022 46.3445 54.4272C46.3428 54.4238 46.3419 54.4212 46.3402 54.4169C46.3163 54.3521 46.2899 54.289 46.2652 54.2242C46.2396 54.1577 46.214 54.0911 46.1841 54.0178C46.0792 53.7355 45.9701 53.4532 45.8464 53.1794C45.8012 53.0787 45.6357 52.7256 45.5513 52.6651C45.501 52.6463 45.3381 52.712 45.2937 52.7325L44.8502 52.9329C44.7189 52.9926 44.5628 52.9329 44.5039 52.8024L43.843 51.338C43.7833 51.2066 43.843 51.0506 43.9735 50.9917L51.5616 47.5665C51.693 47.5068 51.849 47.5665 51.9079 47.6979L52.5689 49.1623C52.6286 49.2936 52.5689 49.4488 52.4384 49.5085L52.1493 49.639C52.081 49.6697 51.9855 49.7226 51.9505 49.7687C51.942 49.8156 51.994 49.9444 52.0136 49.9862L53.8491 54.0519C53.8687 54.0954 53.9318 54.2225 53.9531 54.2421C54.0213 54.254 54.1399 54.2071 54.1996 54.1798L54.5007 54.0442C54.632 53.9854 54.7881 54.0442 54.8469 54.1747L55.5071 55.6374C55.5659 55.7688 55.5071 55.9248 55.3766 55.9837L51.4499 57.756C51.3185 57.8148 51.1625 57.756 51.1036 57.6246L50.4435 56.1619C50.3838 56.0306 50.4435 55.8745 50.5748 55.8157L50.7198 55.7508C50.788 55.7201 50.8844 55.6673 50.9202 55.6212C50.9279 55.576 50.8784 55.454 50.8605 55.4148L48.9739 51.2365L48.9722 51.2356ZM60.0137 42.7929C60.0385 42.7451 60.1101 42.6718 60.1383 42.6453L60.5059 42.2999C60.6108 42.201 60.6159 42.0347 60.5169 41.9298L59.4159 40.7596C59.3169 40.6547 59.1506 40.6496 59.0457 40.7485L56.2039 43.4215C55.7229 43.8735 55.2614 44.3571 54.8546 44.8774C54.4802 45.3567 54.2363 45.8974 54.151 46.4996C54.0537 47.1878 54.3506 47.7908 54.8145 48.2838C55.1497 48.6403 55.554 48.903 56.0401 48.9917C56.487 49.0727 56.9246 49.0258 57.3476 48.8612C57.444 48.8237 57.5378 48.7827 57.6299 48.7375C57.5941 48.81 57.5608 48.8834 57.5335 48.9559C57.4465 49.1819 57.3647 49.4659 57.4116 49.709C57.45 49.9128 57.5404 50.1184 57.6342 50.3026C57.6359 50.306 57.6376 50.3094 57.6393 50.3128C57.6777 50.3793 57.7118 50.4595 57.7144 50.538C57.7161 50.5747 57.6419 50.6506 57.6188 50.6727C57.5361 50.7504 57.3723 50.8425 57.2751 50.8996C57.2043 50.9414 57.16 51.0062 57.148 51.0872C57.1361 51.1683 57.1591 51.2433 57.2154 51.3039L58.9476 53.1649C59.0167 53.2391 59.1139 53.2655 59.2112 53.2382C59.5822 53.1325 59.9097 52.915 60.1886 52.6523C60.5238 52.3376 60.8359 51.9487 60.9664 51.5009C61.0807 51.1086 61.0773 50.7103 60.9681 50.3171C60.8376 49.8489 60.6244 49.3746 60.4112 48.9397C60.2978 48.7068 60.1579 48.4177 60.0956 48.1661C60.0828 48.1158 60.0504 47.9588 60.0726 47.9085C60.0914 47.8676 60.1246 47.8224 60.1622 47.7789L60.8479 48.5081C60.8786 48.5414 60.969 48.6429 60.9775 48.6889C60.9664 48.6992 60.8905 48.7742 60.8624 48.8015L60.7873 48.8723C60.6833 48.9704 60.6773 49.135 60.7745 49.2407L61.8637 50.4211C61.9131 50.4749 61.9745 50.503 62.047 50.5056C62.1195 50.5081 62.1826 50.4843 62.2355 50.4348L65.375 47.4821C65.4799 47.3831 65.485 47.2168 65.3861 47.1119L64.285 45.9418C64.1861 45.8369 64.0198 45.8317 63.9149 45.9307L63.5473 46.2761C63.5191 46.3025 63.4424 46.3699 63.392 46.3912C63.3443 46.3648 63.2675 46.288 63.2394 46.2582L60.134 42.9558C60.1059 42.9259 60.0342 42.8449 60.0103 42.7955L60.0137 42.7929ZM66.6339 33.6337L65.3204 36.4747C65.2624 36.6009 65.1157 36.6589 64.9869 36.6086C64.6953 36.4935 64.3788 36.3749 64.0726 36.3041C63.9046 36.2649 63.7289 36.2598 63.5652 36.3229C63.4014 36.386 63.2914 36.5617 63.2215 36.7126C63.1353 36.8986 63.0756 37.1195 63.1592 37.3182C63.2453 37.5246 63.3997 37.6832 63.5822 37.8086C63.8714 38.0082 64.2023 38.1762 64.5213 38.3229L65.1311 38.6052C65.2343 38.653 65.34 38.6956 65.445 38.7383C65.6147 38.8082 65.7835 38.8815 65.9516 38.9557C66.2868 39.1041 66.7618 39.3063 67.1277 39.3489C67.2556 39.3643 67.4714 39.3745 67.5797 39.2884C67.7136 39.1818 67.8177 38.9941 67.8885 38.8423C68.2578 38.044 67.3298 37.5331 66.7294 37.2551C66.5989 37.1945 66.5409 37.0384 66.6015 36.908L67.9141 34.0687C67.9448 34.0022 67.9959 33.9561 68.065 33.9314C68.1341 33.9066 68.2032 33.9118 68.2689 33.9442C68.9256 34.2734 69.4689 34.7408 69.8663 35.3583C70.2697 35.9843 70.4608 36.6819 70.4804 37.4248C70.5017 38.241 70.2919 39.0453 69.9508 39.783C69.7435 40.2308 69.474 40.6479 69.1635 41.0308C68.8156 41.4607 68.3832 41.8018 67.9004 42.0688C67.3307 42.3827 66.6833 42.4961 66.0386 42.4978C65.2172 42.4986 64.3891 42.2325 63.6505 41.8914C63.0688 41.6219 62.5323 41.2696 62.0709 40.8227C61.6359 40.4014 61.2854 39.9144 61.0423 39.3583C60.8018 38.8099 60.6935 38.2206 60.7063 37.6227C60.7199 36.9787 60.8863 36.3613 61.1549 35.7787C61.4219 35.2013 61.7664 34.6563 62.2159 34.2026C62.6091 33.8068 63.0603 33.4793 63.5771 33.2644C64.0488 33.0682 64.5477 32.9625 65.0586 32.9693C65.5601 32.9753 66.0428 33.0819 66.5008 33.2857C66.5674 33.3156 66.6134 33.3651 66.639 33.4333C66.6646 33.5015 66.662 33.5689 66.6313 33.6354L66.6339 33.6337ZM66.0275 25.2208L70.6339 25.5705C70.6791 25.5739 70.8079 25.5799 70.8275 25.5799C70.8557 25.5466 70.8693 25.4264 70.8727 25.3846L70.9103 24.8865C70.9214 24.7423 71.0476 24.634 71.1909 24.6451L72.7926 24.7662C72.9367 24.7773 73.045 24.9035 73.034 25.0468L72.6783 29.7377C72.6672 29.8819 72.541 29.9902 72.3977 29.9791L70.796 29.858C70.6518 29.8469 70.5435 29.7207 70.5546 29.5774L70.593 29.0742C70.5956 29.0358 70.5998 28.9334 70.5853 28.8814C70.5341 28.8609 70.4267 28.8499 70.3857 28.8464L65.7793 28.4976L65.7767 28.5266C65.7707 28.6093 65.7554 28.8362 65.7827 28.913C65.7955 28.9377 65.8731 28.9735 65.897 28.9829C66.1273 29.075 66.4352 29.1398 66.6774 29.197C66.8036 29.2268 66.888 29.342 66.8787 29.4716L66.761 31.0247C66.7499 31.1689 66.6236 31.2772 66.4804 31.2661L63.5618 31.0452C63.4176 31.0341 63.3093 30.9079 63.3204 30.7646L63.937 22.6255C63.9481 22.4813 64.0744 22.373 64.2176 22.3841L67.1362 22.605C67.2804 22.6161 67.3887 22.7423 67.3776 22.8856L67.2607 24.4251C67.2514 24.5504 67.1567 24.6494 67.0313 24.6647C66.7797 24.6954 66.5264 24.7236 66.2688 24.7517C66.2322 24.7551 66.1221 24.7696 66.0991 24.7901C66.0573 24.8583 66.0343 25.1125 66.0283 25.1927L66.0258 25.2217L66.0275 25.2208ZM70.2433 18.5853C70.1879 18.5811 70.0821 18.6024 70.0412 18.6118L65.6241 19.631C65.5831 19.6404 65.4791 19.6676 65.4304 19.6958C65.4245 19.747 65.4424 19.8399 65.4501 19.8749L65.5635 20.3662C65.5959 20.5069 65.5081 20.6476 65.3673 20.68L63.8023 21.0416C63.6616 21.0741 63.5208 20.9862 63.4884 20.8455L62.4334 16.274C62.401 16.1333 62.4888 15.9925 62.6296 15.9601L64.1946 15.5985C64.3353 15.5661 64.4761 15.6539 64.5085 15.7947L64.6176 16.2689C64.6279 16.3124 64.662 16.4378 64.668 16.4514C64.7132 16.4642 64.8394 16.4395 64.8837 16.4284L69.3009 15.4092C69.3452 15.3989 69.4697 15.3665 69.4876 15.3623C69.5047 15.3196 69.4808 15.1908 69.4706 15.1482L69.3614 14.674C69.329 14.5332 69.4169 14.3925 69.5576 14.3601L71.1235 13.9985C71.2642 13.9661 71.4049 14.0539 71.4374 14.1946L72.4924 18.7661C72.5248 18.9069 72.4369 19.0476 72.2962 19.08L70.7312 19.4416C70.5904 19.474 70.4497 19.3862 70.4173 19.2455L70.3039 18.7542C70.2962 18.7192 70.2706 18.628 70.2433 18.5845V18.5853ZM26.4031 53.0165L26.8176 51.9222L26.908 51.9563C27.1272 52.0399 27.3515 52.1568 27.5161 52.3282C27.644 52.4613 27.5673 52.7171 27.511 52.8638C27.4589 53.002 27.3694 53.1879 27.198 53.1913C26.9387 53.1964 26.6436 53.1069 26.4022 53.0165H26.4031ZM25.1587 56.3001L25.5954 55.1479L25.7216 55.1956C25.9579 55.2852 26.2086 55.4088 26.3962 55.582C26.5284 55.7048 26.4704 55.9112 26.415 56.0579C26.3502 56.2293 26.2419 56.4366 26.0414 56.4664C25.7702 56.5065 25.412 56.3965 25.1613 56.3018H25.1587V56.3001ZM57.6845 45.1409L58.5997 46.114C58.4274 46.2556 58.2227 46.3938 58.035 46.4373C57.8457 46.4808 57.693 46.3733 57.5685 46.2403C57.1864 45.8343 57.3195 45.494 57.6845 45.1409Z" fill="#221E1F"></path>
    <path fill-rule="evenodd" clip-rule="evenodd" d="M17.0637 45.6612C17.0637 45.6663 17.0637 45.6705 17.0629 45.6757L16.9981 46.3025L17.636 46.143C17.567 46.0475 17.5687 45.9119 17.6497 45.8189L18.6979 44.601C18.7917 44.4918 18.958 44.479 19.0672 44.5729L21.7819 46.9081C21.8911 47.0019 21.9039 47.1682 21.8101 47.2774L20.7627 48.4953C20.6689 48.6045 20.5026 48.6173 20.3934 48.5235L20.1248 48.2923C20.0352 48.2147 19.9414 48.1746 19.822 48.1849C19.5457 48.2087 19.2275 48.2863 18.9631 48.3461L17.5158 48.7102L17.2292 51.4173C17.2173 51.5265 17.2045 51.6357 17.1917 51.7448C17.1797 51.8438 17.1772 51.9452 17.1789 52.045C17.1797 52.1329 17.1891 52.2216 17.2156 52.3052C17.2309 52.3555 17.2574 52.3964 17.2974 52.4305L17.5661 52.6617C17.6753 52.7555 17.6881 52.9218 17.5942 53.031L16.5469 54.2489C16.4531 54.3581 16.2868 54.3709 16.1776 54.2771L12.6526 51.245C12.5434 51.1512 12.5306 50.9849 12.6245 50.8757L13.6718 49.6578C13.7656 49.5486 13.9319 49.5358 14.0411 49.6297C14.0471 49.6348 14.0573 49.6433 14.0684 49.6518C14.0795 49.5947 14.0863 49.5247 14.0889 49.4881L14.152 48.8697L13.427 49.0514C13.41 49.0557 13.3955 49.0582 13.3784 49.0591C13.4884 49.1537 13.5004 49.3192 13.4066 49.4284L12.3584 50.6463C12.2645 50.7555 12.0982 50.7683 11.9891 50.6744L9.07388 48.1661C8.96471 48.0723 8.95191 47.906 9.04573 47.7968L10.0931 46.5789C10.1869 46.4697 10.3532 46.4569 10.4624 46.5507L10.7327 46.7836C10.8462 46.8808 11.0065 46.9925 11.1635 46.9908C11.4142 46.9883 11.7443 46.9064 11.9873 46.8441L13.711 46.4023L13.9771 43.8581C13.9942 43.6927 14.0496 43.2679 14.024 43.1093C14.0138 43.0453 13.9371 42.9694 13.891 42.9302L13.7008 42.7664C13.5916 42.6726 13.5788 42.5063 13.6735 42.3971L14.7209 41.1792C14.8147 41.07 14.981 41.0573 15.0902 41.1511L18.4881 44.0739C18.5972 44.1677 18.61 44.3341 18.5162 44.4432L17.4689 45.6612C17.3751 45.7703 17.2087 45.7831 17.0996 45.6893L17.0655 45.6603L17.0637 45.6612ZM28.6912 54.7308C28.7355 54.7257 28.7799 54.7197 28.8242 54.7112C29.1995 54.6446 29.5373 54.4894 29.8272 54.2421C30.1138 53.9981 30.3253 53.6979 30.4584 53.3457C30.6332 52.8843 30.7245 52.3717 30.5855 51.8881C30.4618 51.4557 30.211 51.0983 29.8656 50.8118C29.5125 50.5201 29.1159 50.2838 28.6997 50.0936C28.1445 49.8395 27.5696 49.6134 26.9991 49.3977L23.4775 48.0629C23.3427 48.0117 23.1909 48.0799 23.1397 48.2147L22.5709 49.7166C22.5197 49.8514 22.5879 50.0032 22.7227 50.0544L23.1943 50.2335C23.2276 50.2463 23.3146 50.283 23.3538 50.3162C23.3513 50.3717 23.3146 50.4766 23.3001 50.515L21.6932 54.7538C21.6787 54.793 21.6369 54.8937 21.602 54.9372C21.5517 54.9363 21.4604 54.9048 21.428 54.8928L20.9563 54.7137C20.8216 54.6626 20.6698 54.7308 20.6186 54.8655L20.0497 56.3658C19.9985 56.5005 20.0668 56.6523 20.2015 56.7035L23.2907 57.8745C23.9935 58.1406 24.7082 58.4042 25.4263 58.6259C25.9312 58.782 26.4583 58.8912 26.9871 58.9134C27.4699 58.933 27.933 58.834 28.3407 58.5696C28.785 58.2822 29.0656 57.808 29.249 57.3227C29.4136 56.8877 29.4818 56.4272 29.3863 55.9683C29.3019 55.5606 29.1245 55.1948 28.8439 54.8869C28.7944 54.8323 28.7432 54.7811 28.6903 54.7316L28.6912 54.7308ZM37.835 56.8468L36.3118 60.2677C36.2691 60.3633 36.1804 60.4221 36.0755 60.423L32.6529 60.4614C32.5087 60.4631 32.3902 60.3471 32.3885 60.2021L32.3706 58.5961C32.3689 58.4519 32.4848 58.3334 32.6298 58.3317L33.1339 58.3257C33.1714 58.3257 33.2627 58.3223 33.3139 58.3078C33.3292 58.2464 33.3309 58.1321 33.3301 58.0869L33.2789 53.5666C33.2789 53.5248 33.2738 53.4165 33.2567 53.3636C33.2081 53.3474 33.1134 53.344 33.0776 53.3448L32.5735 53.3508C32.4294 53.3525 32.31 53.2365 32.3083 53.0915L32.2904 51.4847C32.2887 51.3405 32.4047 51.222 32.5497 51.2203L36.9787 51.1708C37.1229 51.1691 37.2414 51.2851 37.2431 51.4301L37.261 53.0369C37.2627 53.1811 37.1467 53.2996 37.0018 53.3013L36.7774 53.3039C36.7331 53.3039 36.6035 53.3107 36.5881 53.3141C36.5659 53.3551 36.5634 53.4847 36.5642 53.5299L36.5796 54.9338L38.1659 51.3116C38.2077 51.2152 38.2973 51.1563 38.403 51.1546L41.7728 51.1171C41.917 51.1154 42.0355 51.2314 42.0372 51.3764L42.0551 52.9824C42.0568 53.1265 41.9408 53.2451 41.7958 53.2468L41.2961 53.2527C41.2517 53.2527 41.1212 53.2595 41.1067 53.263C41.0845 53.3039 41.082 53.4335 41.0828 53.4787L41.134 58.0119C41.134 58.0579 41.14 58.1867 41.14 58.2038C41.1784 58.2293 41.3088 58.2336 41.3532 58.2328L41.853 58.2268C41.9971 58.2251 42.1157 58.3411 42.1174 58.4861L42.1353 60.0921C42.137 60.2362 42.021 60.3547 41.876 60.3564L37.4359 60.4068C37.2917 60.4085 37.1732 60.2925 37.1715 60.1475L37.1536 58.5415C37.1519 58.3974 37.2679 58.2788 37.4128 58.2771L37.6534 58.2745C37.6892 58.2745 37.7932 58.2694 37.8163 58.2566C37.8461 58.2165 37.8495 58.0826 37.8487 58.0357L37.835 56.846V56.8468ZM48.5533 50.9218L47.6637 51.3235C47.9426 51.9905 48.2104 52.6617 48.4765 53.3338C48.6957 53.8873 48.9158 54.4476 49.1025 55.0131C49.2586 55.4856 49.3524 55.9734 49.3942 56.4681C49.4386 56.9918 49.3576 57.5001 49.1273 57.9752C48.8723 58.5014 48.4134 58.8562 47.8889 59.0925C47.471 59.2809 47.0232 59.3739 46.5644 59.3603C46.462 59.3569 46.3759 59.2997 46.3332 59.2059L45.314 56.9474C45.279 56.8707 45.2825 56.7897 45.3225 56.7155C45.3626 56.6413 45.4283 56.5943 45.5119 56.5816C45.7106 56.55 45.9648 56.5039 46.149 56.4204C46.4066 56.3044 46.5149 56.1398 46.4774 55.8566C46.4134 55.3687 46.1985 54.8067 46.0142 54.353C46.0125 54.3495 46.0117 54.3461 46.01 54.3427C45.9827 54.2668 45.9562 54.1883 45.9255 54.1133C45.9238 54.1099 45.923 54.1073 45.9213 54.1031C45.8974 54.0382 45.8709 53.9751 45.8462 53.9103C45.8206 53.8438 45.795 53.7773 45.7652 53.703C45.6603 53.4207 45.5511 53.1384 45.4274 52.8647C45.3822 52.764 45.2168 52.4109 45.1323 52.3504C45.082 52.3316 44.9191 52.3973 44.8748 52.4178L44.4313 52.6182C44.2999 52.6779 44.1439 52.6182 44.085 52.4877L43.424 51.0233C43.3652 50.8919 43.424 50.7358 43.5554 50.677L51.1435 47.2518C51.2749 47.1921 51.4309 47.2518 51.4898 47.3831L52.1508 48.8475C52.2096 48.9789 52.1508 49.1341 52.0203 49.1938L51.7312 49.3243C51.6629 49.355 51.5674 49.4079 51.5324 49.454C51.5239 49.5009 51.5759 49.6297 51.5955 49.6714L53.431 53.7372C53.4506 53.7807 53.5137 53.9077 53.535 53.9274C53.6032 53.9393 53.7218 53.8924 53.7815 53.8651L54.0826 53.7295C54.2139 53.6706 54.37 53.7295 54.4288 53.86L55.089 55.3227C55.1487 55.454 55.089 55.6101 54.9585 55.669L51.0318 57.4413C50.9004 57.5001 50.7444 57.4413 50.6855 57.3099L50.0254 55.8472C49.9665 55.7159 50.0254 55.5598 50.1567 55.5009L50.3017 55.4361C50.3699 55.4054 50.4663 55.3525 50.5021 55.3065C50.5098 55.2613 50.4604 55.1393 50.4424 55.1001L48.5558 50.9218H48.5533ZM59.5948 42.4782C59.6195 42.4304 59.6912 42.3571 59.7193 42.3306L60.0869 41.9852C60.1918 41.8863 60.1969 41.7199 60.098 41.615L58.9969 40.4449C58.898 40.34 58.7317 40.3349 58.6268 40.4338L55.7849 43.1068C55.3039 43.5588 54.8425 44.0424 54.4357 44.5626C54.0613 45.042 53.8173 45.5827 53.732 46.1848C53.6348 46.8731 53.9316 47.4761 54.3956 47.9691C54.7308 48.3256 55.135 48.5883 55.6212 48.677C56.0681 48.758 56.5056 48.7111 56.9287 48.5465C57.025 48.509 57.1189 48.468 57.211 48.4228C57.1751 48.4953 57.1419 48.5687 57.1146 48.6412C57.0276 48.8672 56.9457 49.1512 56.9926 49.3943C57.031 49.5981 57.1214 49.8036 57.2152 49.9879C57.2169 49.9913 57.2187 49.9947 57.2204 49.9981C57.2587 50.0646 57.2929 50.1448 57.2954 50.2233C57.2971 50.2599 57.2229 50.3358 57.1999 50.358C57.1172 50.4356 56.9534 50.5277 56.8562 50.5849C56.7854 50.6267 56.741 50.6915 56.7291 50.7725C56.7172 50.8535 56.7402 50.9286 56.7965 50.9892L58.5287 52.8502C58.5978 52.9244 58.695 52.9508 58.7922 52.9235C59.1632 52.8178 59.4907 52.6003 59.7696 52.3376C60.1048 52.0229 60.417 51.6339 60.5475 51.1862C60.6618 50.7938 60.6584 50.3955 60.5492 50.0024C60.4187 49.5341 60.2055 49.0599 59.9922 48.6249C59.8788 48.3921 59.7389 48.103 59.6767 47.8514C59.6639 47.8011 59.6315 47.6433 59.6536 47.5938C59.6724 47.5529 59.7057 47.5077 59.7432 47.4642L60.4289 48.1934C60.4596 48.2266 60.55 48.3281 60.5594 48.3742C60.5483 48.3844 60.4724 48.4595 60.4443 48.4868L60.3692 48.5576C60.2652 48.6557 60.2592 48.8203 60.3564 48.926L61.4456 50.1064C61.495 50.1601 61.5564 50.1883 61.6289 50.1908C61.7014 50.1934 61.7645 50.1695 61.8174 50.1201L64.9569 47.1674C65.0618 47.0684 65.0669 46.9021 64.968 46.7972L63.8669 45.627C63.768 45.5221 63.6017 45.517 63.4968 45.616L63.1292 45.9614C63.101 45.9878 63.0243 46.0552 62.9739 46.0765C62.9262 46.0501 62.8494 45.9733 62.8213 45.9435L59.7159 42.6411C59.6878 42.6112 59.6161 42.5302 59.5922 42.4807L59.5948 42.4782ZM66.2149 33.3198L64.9015 36.1608C64.8435 36.287 64.6968 36.345 64.568 36.2947C64.2763 36.1796 63.9599 36.061 63.6537 35.9902C63.4857 35.951 63.3091 35.9459 63.1462 36.009C62.9825 36.0721 62.8725 36.2478 62.8025 36.3988C62.7164 36.5847 62.6567 36.8056 62.7403 37.0043C62.8264 37.2107 62.9808 37.3694 63.1633 37.4947C63.4524 37.6943 63.7833 37.8623 64.1023 38.009L64.713 38.2913C64.8162 38.3391 64.9219 38.3817 65.0269 38.4244C65.1966 38.4943 65.3655 38.5677 65.5335 38.6419C65.8687 38.7903 66.3437 38.9924 66.7096 39.0351C66.8375 39.0504 67.0533 39.0606 67.1616 38.9745C67.2955 38.8679 67.3996 38.6803 67.4704 38.5284C67.8397 37.7301 66.9117 37.2193 66.3113 36.9412C66.1808 36.8807 66.1228 36.7246 66.1834 36.5941L67.496 33.7548C67.5267 33.6883 67.5779 33.6422 67.6469 33.6175C67.716 33.5936 67.7851 33.5979 67.8508 33.6303C68.5083 33.9595 69.0508 34.4269 69.4482 35.0444C69.8508 35.6704 70.0427 36.3681 70.0623 37.1109C70.0836 37.9272 69.8738 38.7314 69.5327 39.4692C69.3254 39.9169 69.0559 40.334 68.7455 40.717C68.3975 41.1468 67.9651 41.488 67.4823 41.7549C66.9126 42.0688 66.2653 42.1822 65.6205 42.1839C64.7991 42.1848 63.971 41.9187 63.2324 41.5775C62.6507 41.308 62.1142 40.9558 61.6528 40.5088C61.2178 40.0875 60.8673 39.6005 60.6242 39.0444C60.3837 38.496 60.2754 37.9067 60.2882 37.3088C60.3018 36.6649 60.4682 36.0474 60.7368 35.4649C61.0038 34.8875 61.3483 34.3425 61.7987 33.8887C62.1918 33.493 62.643 33.1655 63.1599 32.9505C63.6315 32.7544 64.1305 32.6486 64.6413 32.6554C65.1428 32.6614 65.6256 32.768 66.0836 32.9719C66.1501 33.0017 66.1962 33.0512 66.2218 33.1194C66.2473 33.1876 66.2448 33.255 66.2141 33.3215L66.2149 33.3198ZM65.6085 24.9069L70.215 25.2558C70.2602 25.2592 70.389 25.2651 70.4086 25.2651C70.4367 25.2319 70.4512 25.1116 70.4538 25.0698L70.4913 24.5717C70.5024 24.4276 70.6286 24.3193 70.7719 24.3304L72.3736 24.4515C72.5178 24.4626 72.6261 24.5888 72.615 24.7321L72.2594 29.423C72.2483 29.5671 72.122 29.6754 71.9788 29.6644L70.377 29.5432C70.2329 29.5322 70.1246 29.4059 70.1357 29.2626L70.174 28.7594C70.1766 28.7211 70.1809 28.6187 70.1664 28.5667C70.1152 28.5462 70.0077 28.5351 69.9668 28.5317L65.3603 28.1829L65.3578 28.2119C65.3518 28.2946 65.3365 28.5215 65.3637 28.5982C65.3765 28.623 65.4542 28.6588 65.478 28.6682C65.7083 28.7603 66.0162 28.8251 66.2584 28.8823C66.3847 28.9121 66.4691 29.0272 66.4597 29.1569L66.342 30.71C66.3309 30.8541 66.2047 30.9625 66.0614 30.9514L63.1428 30.7305C62.9987 30.7194 62.8904 30.5931 62.9015 30.4499L63.5181 22.3107C63.5292 22.1666 63.6554 22.0583 63.7987 22.0694L66.7173 22.2903C66.8614 22.3014 66.9697 22.4276 66.9587 22.5709L66.8418 24.1103C66.8324 24.2357 66.7378 24.3346 66.6124 24.35C66.3608 24.3807 66.1075 24.4088 65.8499 24.437C65.8132 24.4404 65.7032 24.4549 65.6802 24.4754C65.6384 24.5436 65.6153 24.7978 65.6094 24.8779L65.6068 24.9069H65.6085ZM69.8244 18.2706C69.7689 18.2663 69.6632 18.2877 69.6222 18.297L65.2051 19.3162C65.1642 19.3256 65.0601 19.3529 65.0115 19.3811C65.0055 19.4322 65.0234 19.5252 65.0311 19.5602L65.1446 20.0514C65.177 20.1922 65.0891 20.3329 64.9484 20.3653L63.3833 20.7269C63.2426 20.7593 63.1019 20.6715 63.0695 20.5308L62.0144 15.9593C61.982 15.8185 62.0699 15.6778 62.2106 15.6454L63.7757 15.2838C63.9164 15.2514 64.0571 15.3392 64.0895 15.4799L64.1987 15.9542C64.2089 15.9976 64.243 16.123 64.249 16.1367C64.2942 16.1495 64.4205 16.1247 64.4648 16.1136L68.8819 15.0944C68.9263 15.0842 69.0508 15.0518 69.0687 15.0475C69.0858 15.004 69.0619 14.8761 69.0516 14.8335L68.9425 14.3592C68.9101 14.2185 68.9979 14.0778 69.1386 14.0454L70.7037 13.6838C70.8444 13.6513 70.9851 13.7392 71.0176 13.8799L72.0726 18.4514C72.105 18.5921 72.0171 18.7329 71.8764 18.7653L70.3114 19.1269C70.1706 19.1593 70.0299 19.0715 69.9975 18.9307L69.8841 18.4395C69.8764 18.4054 69.8508 18.3132 69.8235 18.2697L69.8244 18.2706ZM25.9841 52.7018L26.3986 51.6075L26.489 51.6416C26.7091 51.7252 26.9325 51.842 27.0971 52.0135C27.2251 52.1465 27.1483 52.4024 27.092 52.5491C27.04 52.6873 26.9504 52.8732 26.779 52.8766C26.5197 52.8817 26.2246 52.7922 25.9833 52.7018H25.9841ZM24.7398 55.9862L25.1764 54.834L25.3027 54.8817C25.5389 54.9713 25.7897 55.095 25.9773 55.2681C26.1095 55.3909 26.0515 55.5973 25.9961 55.744C25.9312 55.9155 25.8229 56.1227 25.6225 56.1526C25.3513 56.1926 24.9931 56.0826 24.7423 55.9879H24.7398V55.9862ZM57.2656 44.827L58.1807 45.8002C58.0084 45.9418 57.8037 46.0799 57.6161 46.1234C57.4268 46.1669 57.2741 46.0595 57.1496 45.9264C56.7675 45.5204 56.9005 45.1801 57.2656 44.827Z" fill="white"></path>
    <path fill-rule="evenodd" clip-rule="evenodd" d="M18.3822 44.2513L17.3349 45.4693L17.2146 45.3661C17.108 45.274 17.0125 45.274 16.9298 45.3703C16.8931 45.413 16.8718 45.4983 16.8684 45.627L16.7737 46.5473L16.8419 46.6062L17.7741 46.3733C17.9601 46.3222 18.0624 46.2846 18.0829 46.2607C18.1315 46.2045 18.1196 46.1439 18.0462 46.0808L17.914 45.9674L18.9622 44.7494L21.677 47.0846L20.6296 48.3026L20.3609 48.0714C20.2108 47.9418 20.0471 47.8864 19.8646 47.9017C19.6855 47.9171 19.3861 47.9751 18.9648 48.0697L17.34 48.4791L17.0347 51.3679C17.0227 51.4864 17.0099 51.593 16.9972 51.6919C16.9861 51.7892 16.9801 51.9018 16.9827 52.0271C16.9835 52.1542 16.9997 52.2634 17.0313 52.3623C17.0611 52.4595 17.1157 52.5414 17.1925 52.608L17.4611 52.8391L16.4138 54.057L12.8888 51.025L13.9361 49.8071C14.1033 49.9503 14.2278 49.9708 14.3165 49.8685C14.3668 49.8105 14.401 49.6859 14.4155 49.4932L14.5084 48.5738L14.447 48.5209L13.4287 48.7759C13.3178 48.7793 13.2257 48.8262 13.1498 48.9141C13.0781 48.9977 13.1199 49.1043 13.2734 49.2365L12.2252 50.4544L9.31006 47.9461L10.3574 46.7281L10.6278 46.961C10.8401 47.1435 11.0406 47.2339 11.2316 47.2313C11.421 47.2305 11.7178 47.1793 12.1178 47.0761L14.018 46.5891L14.3029 43.8633C14.3515 43.4283 14.3668 43.1571 14.3472 43.0445C14.3293 42.9336 14.2551 42.8202 14.1263 42.7093L13.9361 42.5456L14.9835 41.3276L18.3814 44.2505L18.3822 44.2513ZM23.3341 48.3444L22.7652 49.8463L23.2369 50.0254C23.387 50.0825 23.4868 50.1491 23.5363 50.2233C23.5849 50.2992 23.5721 50.439 23.4945 50.6446L21.8876 54.8835C21.8109 55.0873 21.7273 55.2024 21.6403 55.2246C21.5533 55.2494 21.4347 55.2314 21.2846 55.1743L20.813 54.9952L20.2441 56.4954L23.3333 57.6664C24.2126 57.9999 24.9196 58.2481 25.4536 58.4127C25.9875 58.5773 26.4847 58.6686 26.9487 58.6882C27.4126 58.7061 27.8118 58.6046 28.1487 58.3863C28.4856 58.1679 28.7542 57.7944 28.9547 57.2664C29.1176 56.8374 29.1594 56.434 29.0809 56.0579C29.0024 55.6801 28.8412 55.3611 28.6007 55.0992C28.3619 54.8357 28.0847 54.6464 27.7717 54.5278L27.5406 54.44L27.5807 54.3351L27.7265 54.3905C28.06 54.5167 28.3935 54.55 28.7278 54.4903C29.0604 54.4323 29.353 54.2941 29.6063 54.08C29.8579 53.8643 30.0438 53.6024 30.1624 53.2903C30.3491 52.7973 30.3884 52.3657 30.2826 51.9973C30.1769 51.6288 29.9645 51.3133 29.6472 51.0506C29.3316 50.7887 28.9606 50.5619 28.5393 50.3691C28.118 50.1764 27.5576 49.9461 26.8549 49.68L23.3333 48.3452L23.3341 48.3444ZM25.596 52.8903L26.1964 51.3064L26.5325 51.4335C26.831 51.547 27.0664 51.6911 27.2369 51.8693C27.4075 52.0467 27.4246 52.318 27.2881 52.6787C27.1645 53.0045 26.9794 53.17 26.7354 53.1751C26.489 53.1794 26.1887 53.1146 25.8322 52.979L25.5977 52.8903H25.596ZM24.3516 56.1747L24.9742 54.5329L25.3452 54.6736C25.6668 54.7956 25.9192 54.9423 26.1043 55.1129C26.2885 55.2852 26.3175 55.5376 26.1905 55.8737C26.06 56.2191 25.8672 56.4101 25.6096 56.4485C25.3529 56.4869 25.0152 56.4272 24.599 56.2694L24.3516 56.1747ZM38.397 51.4045L41.7668 51.367L41.7847 52.9738L41.2849 52.9798C41.1177 52.9815 40.9949 53.0097 40.9199 53.0651C40.8457 53.1197 40.8098 53.2553 40.8124 53.4711L40.8636 58.0042C40.8661 58.22 40.9054 58.3547 40.9804 58.4076C41.0563 58.4605 41.18 58.4861 41.3472 58.4844L41.8469 58.4784L41.8649 60.0852L37.4247 60.1356L37.4068 58.5296L37.6473 58.527C37.8392 58.5253 37.962 58.4844 38.0183 58.4025C38.0772 58.3232 38.1036 58.1961 38.1019 58.0238L38.0772 55.8319H37.9868L36.0635 60.1509L32.6409 60.1893L32.6229 58.5833L33.127 58.5773C33.3274 58.5748 33.4545 58.5406 33.5065 58.4758C33.5586 58.411 33.5833 58.2754 33.5816 58.0741L33.5304 53.5538C33.5279 53.3355 33.4886 53.199 33.4153 53.1478C33.3419 53.0967 33.2251 53.0711 33.0639 53.0728L32.5598 53.0787L32.5419 51.4719L36.971 51.4224L36.9889 53.0293L36.7646 53.0318C36.5974 53.0335 36.4737 53.0617 36.4004 53.1171C36.3262 53.1717 36.2904 53.3073 36.2929 53.5231L36.3202 55.9385H36.4123L38.397 51.4062V51.4045ZM51.1912 47.4659L51.8522 48.9303L51.5631 49.0608C51.4147 49.1282 51.3089 49.2092 51.2466 49.3013C51.1852 49.3951 51.2031 49.5469 51.297 49.755L53.1324 53.8208C53.2271 54.0306 53.3268 54.1449 53.4317 54.1619C53.5366 54.1807 53.6688 54.1525 53.83 54.08L54.1311 53.9444L54.7913 55.4071L50.8646 57.1794L50.2044 55.7167L50.3494 55.6511C50.4978 55.5837 50.6044 55.5044 50.6667 55.4123C50.7289 55.3201 50.7127 55.1726 50.6206 54.9679L48.6266 50.5508L47.2654 51.1649C47.5468 51.8301 47.8504 52.5789 48.1745 53.4054C48.4449 54.0783 48.6513 54.6319 48.7954 55.0702C48.9404 55.5086 49.0334 55.9717 49.0743 56.4656C49.1161 56.9594 49.0368 57.4165 48.833 57.8362C48.6308 58.2549 48.259 58.5876 47.7225 58.8289C47.3353 59.0038 46.9302 59.0865 46.514 59.0737L45.4939 56.8153C45.8052 56.7658 46.0415 56.7052 46.1975 56.6344C46.5685 56.4664 46.728 56.1875 46.6777 55.7978C46.6257 55.4088 46.4645 54.8877 46.1967 54.2293C46.1592 54.1252 46.1302 54.0451 46.108 53.9896C46.0884 53.935 46.0602 53.8677 46.0312 53.7918C46.0014 53.7141 45.9749 53.6459 45.9519 53.5888C45.8308 53.2613 45.7165 52.9755 45.6065 52.7333C45.4436 52.3717 45.3088 52.1593 45.2014 52.0988C45.093 52.0357 44.9301 52.0553 44.7075 52.1551L44.264 52.3555L43.603 50.8911L51.1912 47.4659ZM58.8493 40.6069L56.2403 43.0607L56.0075 43.2799C55.4829 43.7729 55.0412 44.2488 54.6855 44.7059C54.3281 45.1614 54.1115 45.6612 54.0347 46.2036C53.958 46.746 54.1567 47.2689 54.6301 47.7721C54.9584 48.1209 55.3183 48.3299 55.7124 48.4015C56.1064 48.4731 56.4945 48.4356 56.8783 48.2847C57.2621 48.1371 57.616 47.9188 57.9427 47.6288L58.0194 47.7107C57.709 48.12 57.5034 48.4552 57.4028 48.7179C57.3022 48.9781 57.2655 49.1827 57.2936 49.3277C57.3209 49.4727 57.3883 49.6467 57.4924 49.8506C57.5623 49.9734 57.5973 50.0877 57.6015 50.1951C57.6058 50.3026 57.5469 50.4143 57.4241 50.5303C57.3627 50.5875 57.2339 50.6753 57.0327 50.793L58.7649 52.654C59.0608 52.5696 59.3525 52.3947 59.6348 52.1295C60.0084 51.7781 60.2429 51.4318 60.3402 51.0958C60.4391 50.7572 60.4391 50.4101 60.3402 50.0553C60.2404 49.6987 60.0613 49.2544 59.8003 48.7222C59.6263 48.364 59.5146 48.0902 59.4659 47.8974C59.4182 47.7055 59.4165 47.5623 59.4583 47.4684C59.5018 47.3729 59.5905 47.262 59.7252 47.135L59.7926 47.0718L60.6625 47.9972C60.7862 48.1286 60.8527 48.2377 60.8621 48.3282C60.8715 48.4186 60.8058 48.5286 60.6668 48.6599L60.5918 48.7307L61.6809 49.9111L64.8204 46.9584L63.7202 45.7882L63.3526 46.1337C63.2306 46.248 63.124 46.3119 63.0353 46.3239C62.9449 46.3375 62.8238 46.2633 62.6745 46.1047L59.5691 42.8023C59.4199 42.6436 59.3534 42.5183 59.3721 42.4287C59.3892 42.3409 59.4591 42.2385 59.5811 42.1242L59.9487 41.7788L58.8476 40.6086L58.8493 40.6069ZM57.3192 44.4398L58.5994 45.8002C58.2625 46.1175 57.97 46.3042 57.7184 46.3614C57.4685 46.4202 57.2288 46.329 57.0019 46.0885C56.5525 45.6108 56.6036 45.1119 57.1555 44.5933L57.3192 44.4398ZM65.9999 33.2175L64.6865 36.0585C64.2942 35.9041 63.9769 35.7983 63.7347 35.7421C63.4933 35.6858 63.2715 35.6951 63.0737 35.7711C62.8758 35.847 62.7129 36.0218 62.5867 36.2956C62.4442 36.6035 62.4212 36.8764 62.5201 37.1118C62.6174 37.3463 62.7897 37.5468 63.0361 37.7173C63.2801 37.8862 63.6067 38.0662 64.0136 38.2538L64.6242 38.5361C64.7052 38.5736 64.8144 38.6197 64.9492 38.6743C65.0856 38.7306 65.2511 38.8022 65.449 38.8884C65.9914 39.1297 66.4085 39.2662 66.701 39.302C66.9927 39.3344 67.2076 39.2986 67.3466 39.186C67.4865 39.076 67.6136 38.8943 67.7296 38.6444C68.0699 37.9084 67.6409 37.2636 66.4426 36.7101L67.7552 33.8708C68.3906 34.1889 68.8887 34.6299 69.2503 35.1928C69.6136 35.7566 69.8038 36.3996 69.8226 37.1246C69.8413 37.8495 69.6725 38.5958 69.3168 39.366C69.1275 39.7754 68.8767 40.1745 68.5637 40.5583C68.2533 40.9438 67.8567 41.2671 67.3773 41.5315C66.8989 41.795 66.3189 41.9255 65.6417 41.9272C64.9645 41.9272 64.2037 41.7328 63.3637 41.3447C62.7854 41.0769 62.2813 40.7374 61.8566 40.3255C61.4301 39.9127 61.1078 39.453 60.8852 38.9447C60.6625 38.4363 60.5585 37.8956 60.5713 37.319C60.5832 36.7442 60.7257 36.1651 60.996 35.5792C61.2741 34.977 61.6101 34.4772 62.0058 34.0781C62.4033 33.6789 62.8272 33.3855 63.2818 33.1979C63.7355 33.0077 64.1961 32.9173 64.66 32.9224C65.124 32.9284 65.5701 33.0256 65.9991 33.2167L65.9999 33.2175ZM63.228 30.4149L63.8447 22.2758L66.7633 22.4967L66.6464 24.0361C66.6021 24.0413 66.3522 24.0711 65.8925 24.1223C65.7202 24.1376 65.6025 24.1845 65.5411 24.2587C65.4771 24.3355 65.4362 24.518 65.4148 24.8037L65.3927 25.0937L70.2601 25.463C70.475 25.4792 70.6124 25.4519 70.6721 25.3812C70.7318 25.3129 70.7676 25.1961 70.7795 25.0357L70.8171 24.5376L72.4188 24.6588L72.0631 29.3496L70.4614 29.2285L70.4998 28.7253C70.5126 28.5582 70.4947 28.4354 70.4486 28.3594C70.4025 28.281 70.2687 28.2332 70.0512 28.2162L65.1837 27.8469L65.1615 28.1368C65.1436 28.3739 65.1496 28.5403 65.182 28.6307C65.2144 28.7236 65.3023 28.7987 65.4456 28.8558C65.5888 28.913 65.8626 28.9872 66.2635 29.081L66.1458 30.6341L63.2272 30.4132L63.228 30.4149ZM71.7859 18.5205L70.2209 18.8821L70.1074 18.3909C70.0716 18.2339 70.0187 18.1265 69.9514 18.0676C69.8848 18.0088 69.7424 18.0028 69.53 18.0514L65.1129 19.0706C64.9006 19.1192 64.7752 19.1866 64.7411 19.2693C64.707 19.3521 64.7069 19.4715 64.7428 19.6284L64.8562 20.1197L63.2912 20.4813L62.2361 15.9098L63.8012 15.5482L63.9104 16.0224C63.9479 16.1853 64.0025 16.2996 64.0715 16.3601C64.1406 16.4207 64.2805 16.4275 64.4912 16.3789L68.9083 15.3597C69.1189 15.3111 69.2418 15.2446 69.2776 15.1593C69.3134 15.074 69.3117 14.9478 69.2742 14.7849L69.165 14.3106L70.7301 13.949L71.7859 18.5205Z" fill="#441010"></path>
    <path d="M68.0664 5.99581C68.0733 6.01884 68.0775 6.03931 68.0801 6.05636C68.0826 6.07428 68.0826 6.08877 68.0801 6.10071C68.0775 6.11266 68.0733 6.12204 68.0664 6.12886C68.0596 6.13568 68.0519 6.1408 68.0417 6.14336L67.3807 6.331L67.9581 8.36684C67.9607 8.37622 67.9607 8.38561 67.9581 8.39413C67.9556 8.40266 67.9487 8.41119 67.9376 8.41887C67.9266 8.42654 67.9121 8.43507 67.8924 8.4436C67.8737 8.45213 67.8489 8.46066 67.8182 8.46919C67.7892 8.47772 67.7637 8.48284 67.7423 8.48539C67.721 8.48795 67.7031 8.48881 67.6903 8.48881C67.6767 8.48881 67.6673 8.48454 67.6605 8.47857C67.6536 8.4726 67.6485 8.46492 67.646 8.45554L67.0686 6.4197L66.4076 6.60733C66.3982 6.60989 66.3888 6.60989 66.3794 6.60733C66.37 6.60477 66.3615 6.5988 66.3538 6.59027C66.3462 6.58174 66.3385 6.56895 66.3308 6.55275C66.3231 6.53654 66.3154 6.51693 66.3095 6.4939C66.3027 6.47087 66.2984 6.4504 66.2967 6.43164C66.295 6.41287 66.295 6.39752 66.2967 6.38558C66.2984 6.37364 66.3027 6.3634 66.3095 6.35658C66.3163 6.34976 66.324 6.34464 66.3334 6.34208L67.9666 5.87896C67.976 5.87641 67.9854 5.87641 67.9948 5.87896C68.0042 5.88152 68.0127 5.88749 68.0212 5.89687C68.0298 5.90626 68.0374 5.91905 68.0451 5.93611C68.0528 5.95316 68.0596 5.97278 68.0664 5.99581Z" fill="#441010"></path>
    <path d="M71.5737 7.34253C71.5763 7.35191 71.5763 7.3613 71.5737 7.36982C71.5703 7.37835 71.5635 7.38688 71.5524 7.39456C71.5413 7.40223 71.5259 7.41076 71.508 7.41929C71.4893 7.42782 71.4645 7.43635 71.4338 7.44573C71.4048 7.45426 71.3801 7.45938 71.3588 7.46194C71.3375 7.46449 71.3204 7.46535 71.3068 7.46449C71.294 7.46449 71.2837 7.46023 71.2769 7.45426C71.2701 7.44829 71.265 7.44061 71.2624 7.43123L70.6824 5.386H70.679L70.4334 7.67601C70.4325 7.68539 70.4291 7.69392 70.424 7.70245C70.4189 7.71013 70.4112 7.71866 70.3993 7.72633C70.3873 7.73401 70.3737 7.74168 70.3566 7.74851C70.3396 7.75533 70.3191 7.76215 70.2944 7.76898C70.2688 7.7758 70.2466 7.78092 70.2279 7.78433C70.2091 7.78689 70.1929 7.78774 70.1792 7.78689C70.1656 7.78689 70.1554 7.78348 70.1468 7.77921C70.1383 7.77495 70.1323 7.76983 70.1272 7.76301L68.7532 5.9327H68.7515L69.3315 7.97879C69.334 7.98817 69.334 7.99755 69.3315 8.00608C69.3289 8.01461 69.3212 8.02314 69.3101 8.03081C69.2991 8.03849 69.2837 8.04702 69.2649 8.05555C69.2462 8.06408 69.2206 8.07346 69.1899 8.08199C69.16 8.09052 69.1344 8.09563 69.114 8.09819C69.0935 8.10075 69.0765 8.1016 69.0628 8.10075C69.05 8.10075 69.0398 8.09649 69.0338 8.09052C69.027 8.08455 69.0227 8.07687 69.0202 8.06664L68.4078 5.90712C68.3933 5.85594 68.3967 5.81586 68.4172 5.78686C68.4385 5.75786 68.4649 5.73825 68.4982 5.72886L68.6901 5.67428C68.7293 5.66319 68.7651 5.65722 68.7967 5.65637C68.8283 5.65552 68.8573 5.65978 68.8837 5.66916C68.9101 5.67854 68.934 5.6939 68.9562 5.71351C68.9775 5.73398 68.9988 5.75872 69.0193 5.78771L70.1733 7.29818L70.1826 7.29562L70.401 5.40221C70.4044 5.36212 70.4104 5.32715 70.4189 5.2973C70.4274 5.26745 70.4394 5.24186 70.4539 5.22139C70.4684 5.20093 70.4863 5.18387 70.5085 5.17022C70.5306 5.15657 70.5562 5.14634 70.5869 5.13696L70.7882 5.07982C70.807 5.0747 70.8249 5.07214 70.8428 5.07299C70.8607 5.07384 70.8778 5.07811 70.8923 5.08664C70.9068 5.09517 70.9204 5.10625 70.9332 5.12246C70.9451 5.13781 70.9554 5.15828 70.9622 5.18387L71.5746 7.34338L71.5737 7.34253Z" fill="#441010"></path>
    <defs>
        <linearGradient id="paint0_linear_1813_164" x1="13.92" y1="64.58" x2="19.1081" y2="5.27769" gradientUnits="userSpaceOnUse">
            <stop stop-color="#AA906C"></stop>
            <stop offset="0.21" stop-color="#DDC39F"></stop>
            <stop offset="0.36" stop-color="#DDC39F"></stop>
            <stop offset="0.64" stop-color="#AE9368"></stop>
            <stop offset="0.91" stop-color="#DDC39F"></stop>
            <stop offset="1" stop-color="#DDC39F"></stop>
        </linearGradient>
        <linearGradient id="paint1_linear_1813_164" x1="14.0614" y1="75.9925" x2="21.6146" y2="-10.3413" gradientUnits="userSpaceOnUse">
            <stop stop-color="#AA906C"></stop>
            <stop offset="0.21" stop-color="#DDC39F"></stop>
            <stop offset="0.36" stop-color="#DDC39F"></stop>
            <stop offset="0.64" stop-color="#AE9368"></stop>
            <stop offset="0.91" stop-color="#DDC39F"></stop>
            <stop offset="1" stop-color="#DDC39F"></stop>
        </linearGradient>
        <linearGradient id="paint2_linear_1813_164" x1="15.1927" y1="87.2455" x2="25.0334" y2="-25.2344" gradientUnits="userSpaceOnUse">
            <stop stop-color="#AA906C"></stop>
            <stop offset="0.21" stop-color="#DDC39F"></stop>
            <stop offset="0.36" stop-color="#DDC39F"></stop>
            <stop offset="0.64" stop-color="#AE9368"></stop>
            <stop offset="0.91" stop-color="#DDC39F"></stop>
            <stop offset="1" stop-color="#DDC39F"></stop>
        </linearGradient>
        <linearGradient id="paint3_linear_1813_164" x1="17.6692" y1="92.8234" x2="28.8608" y2="-35.0973" gradientUnits="userSpaceOnUse">
            <stop stop-color="#AA906C"></stop>
            <stop offset="0.21" stop-color="#DDC39F"></stop>
            <stop offset="0.36" stop-color="#DDC39F"></stop>
            <stop offset="0.64" stop-color="#AE9368"></stop>
            <stop offset="0.91" stop-color="#DDC39F"></stop>
            <stop offset="1" stop-color="#DDC39F"></stop>
        </linearGradient>
        <linearGradient id="paint4_linear_1813_164" x1="25.2108" y1="59.4012" x2="31.0906" y2="-7.79968" gradientUnits="userSpaceOnUse">
            <stop stop-color="#AA906C"></stop>
            <stop offset="0.21" stop-color="#DDC39F"></stop>
            <stop offset="0.36" stop-color="#DDC39F"></stop>
            <stop offset="0.64" stop-color="#AE9368"></stop>
            <stop offset="0.91" stop-color="#DDC39F"></stop>
            <stop offset="1" stop-color="#DDC39F"></stop>
        </linearGradient>
        <linearGradient id="paint5_linear_1813_164" x1="30.0099" y1="59.93" x2="36.4108" y2="-13.2317" gradientUnits="userSpaceOnUse">
            <stop stop-color="#AA906C"></stop>
            <stop offset="0.21" stop-color="#DDC39F"></stop>
            <stop offset="0.36" stop-color="#DDC39F"></stop>
            <stop offset="0.64" stop-color="#AE9368"></stop>
            <stop offset="0.91" stop-color="#DDC39F"></stop>
            <stop offset="1" stop-color="#DDC39F"></stop>
        </linearGradient>
        <linearGradient id="paint6_linear_1813_164" x1="34.0637" y1="63.9062" x2="41.0003" y2="-15.3776" gradientUnits="userSpaceOnUse">
            <stop stop-color="#AA906C"></stop>
            <stop offset="0.21" stop-color="#DDC39F"></stop>
            <stop offset="0.36" stop-color="#DDC39F"></stop>
            <stop offset="0.64" stop-color="#AE9368"></stop>
            <stop offset="0.91" stop-color="#DDC39F"></stop>
            <stop offset="1" stop-color="#DDC39F"></stop>
        </linearGradient>
        <linearGradient id="paint7_linear_1813_164" x1="41.2893" y1="48.59" x2="45.4676" y2="0.829004" gradientUnits="userSpaceOnUse">
            <stop stop-color="#AA906C"></stop>
            <stop offset="0.21" stop-color="#DDC39F"></stop>
            <stop offset="0.36" stop-color="#DDC39F"></stop>
            <stop offset="0.64" stop-color="#AE9368"></stop>
            <stop offset="0.91" stop-color="#DDC39F"></stop>
            <stop offset="1" stop-color="#DDC39F"></stop>
        </linearGradient>
        <linearGradient id="paint8_linear_1813_164" x1="48.1072" y1="50.0808" x2="52.4168" y2="0.816219" gradientUnits="userSpaceOnUse">
            <stop stop-color="#AA906C"></stop>
            <stop offset="0.21" stop-color="#DDC39F"></stop>
            <stop offset="0.36" stop-color="#DDC39F"></stop>
            <stop offset="0.64" stop-color="#AE9368"></stop>
            <stop offset="0.91" stop-color="#DDC39F"></stop>
            <stop offset="1" stop-color="#DDC39F"></stop>
        </linearGradient>
    </defs>
</svg>