<svg width="57" height="38" viewBox="0 0 57 38" fill="none" xmlns="http://www.w3.org/2000/svg">
<path d="M32.6913 26.8426C32.6672 26.8376 32.6938 26.4946 32.8121 25.9576C32.9304 25.4207 33.1562 24.6924 33.5104 23.9445C33.8672 23.1965 34.2828 22.58 34.6155 22.1688C34.9489 21.7563 35.1893 21.5396 35.2063 21.5579C35.2544 21.6047 34.3808 22.5737 33.6869 24.0474C32.981 25.5142 32.7526 26.861 32.6906 26.8426" fill="#0E0E0E"/>
<path d="M15.4331 27.5387C15.4217 27.4787 15.9056 27.329 16.5249 27.305C17.1442 27.2791 17.6464 27.3916 17.6433 27.4516C17.6407 27.516 17.1461 27.5065 16.5407 27.5312C15.9353 27.5539 15.4438 27.6019 15.4331 27.5381" fill="#0E0E0E"/>
<path d="M35.4404 21.3128C35.4195 21.2819 35.5796 21.1031 35.7984 20.9124C36.0167 20.7222 36.2102 20.5927 36.2317 20.623C36.2526 20.654 36.0919 20.8328 35.8737 21.0235C35.6555 21.2137 35.4613 21.3438 35.4404 21.3128Z" fill="#0E0E0E"/>
<path d="M43.9958 8.3841C44.0116 8.38852 43.9857 8.6172 43.894 8.9741C43.8016 9.331 43.6333 9.81235 43.3771 10.3032C43.1197 10.794 42.8268 11.1945 42.5934 11.4598C42.36 11.7264 42.1936 11.8641 42.1829 11.8508C42.1519 11.818 42.761 11.1951 43.2614 10.228C43.77 9.26594 43.9553 8.36957 43.9964 8.38347" fill="#0E0E0E"/>
<path d="M42.0671 11.9576C42.0804 11.979 41.9684 12.094 41.8173 12.2147C41.6661 12.3353 41.5332 12.4162 41.5199 12.3953C41.5067 12.3738 41.6186 12.2589 41.7698 12.1382C41.921 12.0176 42.0538 11.9361 42.0671 11.9576Z" fill="#0E0E0E"/>
<path d="M22.3141 17.9611C22.2761 17.9251 22.1332 18.054 22.0377 18.2776C21.9415 18.5012 21.9403 18.7097 21.9883 18.7223C22.0377 18.7362 22.1148 18.5701 22.2009 18.3698C22.2863 18.1696 22.354 17.9977 22.3141 17.9611Z" fill="#0E0E0E"/>
<path d="M45.9852 2.34454C45.9801 2.40202 46.3021 2.50752 46.7044 2.58079C47.1067 2.6547 47.4376 2.66733 47.4433 2.61048C47.449 2.553 47.1263 2.44687 46.724 2.37423C46.3217 2.30032 45.9909 2.28769 45.9852 2.34454Z" fill="#0E0E0E"/>
<path d="M52.9421 8.49086C52.9409 8.43337 52.61 8.37652 52.202 8.36326C51.7947 8.34999 51.4651 8.386 51.4664 8.44348C51.4676 8.5016 51.7991 8.55908 52.2065 8.57108C52.6138 8.58435 52.9434 8.54834 52.9421 8.49086Z" fill="#0E0E0E"/>
<path d="M48.3839 2.79872C48.3902 2.75198 48.2567 2.69071 48.0878 2.66228C47.9183 2.63449 47.776 2.64965 47.7703 2.69702C47.7646 2.7444 47.8968 2.80504 48.067 2.83347C48.2365 2.86126 48.3788 2.8461 48.3845 2.79872" fill="#0E0E0E"/>
<path d="M52.3867 22.0904C52.3241 22.0797 52.1906 22.5396 52.0875 23.1176C51.9844 23.6956 51.9522 24.1738 52.0148 24.1839C52.078 24.1952 52.2121 23.7347 52.314 23.1567C52.4171 22.5787 52.4494 22.1006 52.3867 22.0904Z" fill="#0E0E0E"/>
<path d="M51.7567 25.535C51.8079 25.5464 51.8819 25.3575 51.9231 25.1137C51.9629 24.8699 51.9534 24.6633 51.9028 24.6519C51.8509 24.6412 51.7769 24.8288 51.7365 25.0733C51.6966 25.3171 51.7061 25.5237 51.7567 25.535Z" fill="#0E0E0E"/>
<path d="M47.0991 26.4781C47.1004 26.4308 46.9612 26.3891 46.7905 26.3847C46.619 26.3815 46.4799 26.4169 46.4786 26.4643C46.4786 26.5123 46.6159 26.554 46.7873 26.5577C46.9587 26.5609 47.0979 26.5255 47.0991 26.4781Z" fill="#0E0E0E"/>
<path d="M21.073 27.943C21.0825 28.0087 21.431 27.9923 21.8561 27.962C22.2812 27.9298 22.6291 27.8963 22.6329 27.83C22.6367 27.7655 22.2844 27.6916 21.846 27.7238C21.4076 27.7554 21.0635 27.8799 21.073 27.943Z" fill="#0E0E0E"/>
<path d="M24.69 8.21165C24.6989 8.25903 24.9519 8.23313 25.2606 8.1946C25.5686 8.15417 25.821 8.11627 25.8217 8.067C25.8223 8.01962 25.5636 7.97982 25.2454 8.02088C24.9272 8.06131 24.6811 8.16554 24.69 8.21165Z" fill="#0E0E0E"/>
<path d="M29.4709 8.24955C29.4899 8.30514 29.8131 8.28556 30.2059 8.25334C30.5981 8.21923 30.9176 8.18638 30.9106 8.12953C30.9043 8.07458 30.5633 8.01772 30.1585 8.05184C29.7543 8.08531 29.4519 8.19523 29.4709 8.24892" fill="#0E0E0E"/>
<path d="M16.5116 20.2864C16.4768 20.3148 16.5736 20.5384 16.7279 20.7848C16.8823 21.0311 17.0366 21.2073 17.0714 21.1789C17.1062 21.1499 17.0094 20.9269 16.8551 20.6805C16.7007 20.4335 16.5464 20.2579 16.5116 20.2864Z" fill="#0E0E0E"/>
<path d="M16.9886 22.808C16.9683 22.808 16.955 22.9249 16.9582 23.067C16.9614 23.2092 16.9803 23.3241 17.0006 23.3235C17.0208 23.3229 17.0341 23.2066 17.0309 23.0645C17.0278 22.9217 17.0088 22.8074 16.9886 22.808Z" fill="#0E0E0E"/>
<path d="M41.3523 5.79039C40.5148 5.4158 39.5906 5.28378 38.6829 5.304C38.2281 5.31537 37.7745 5.36401 37.3286 5.44739C37.2173 5.46823 37.1066 5.49413 36.9952 5.51687L36.665 5.59963L36.3393 5.69564C36.2349 5.72912 36.1337 5.77334 36.0363 5.82451C35.6529 6.04307 35.2898 6.32796 35.0077 6.66781C34.7243 7.00829 34.52 7.4113 34.4321 7.84022L34.4144 7.92044C34.4081 7.94697 34.4074 7.97477 34.4036 8.00193L34.3859 8.16491C34.3821 8.19207 34.3809 8.21923 34.3815 8.2464V8.32851C34.3821 8.38284 34.3783 8.4378 34.3828 8.49212L34.4074 8.73722L34.4549 8.97915C34.4656 9.03284 34.4852 9.08464 34.4998 9.13707C34.6257 9.55715 34.8382 9.95195 35.1172 10.2937C35.6719 10.981 36.4557 11.4756 37.3058 11.6986C37.7315 11.8104 38.1737 11.8527 38.6114 11.8249C38.8303 11.8091 39.0485 11.7813 39.2623 11.732C39.478 11.6891 39.6868 11.6202 39.8917 11.5457C40.2991 11.3865 40.6767 11.1597 41.0107 10.8805C41.1758 10.7384 41.3321 10.5855 41.4757 10.4207C41.6167 10.2539 41.7521 10.0808 41.8698 9.89573C42.1095 9.52809 42.3024 9.12823 42.4561 8.71384C42.5327 8.50665 42.5985 8.29503 42.6541 8.08152C42.6826 7.97477 42.7066 7.86675 42.7288 7.75936C42.7503 7.65324 42.7705 7.54017 42.7825 7.44226L42.8066 7.24643L43.0039 7.24075L50.4201 7.03798L56.2137 6.89206L56.2719 6.89079H56.301C56.3086 6.88953 56.3251 6.88953 56.3238 6.8889C56.3333 6.88827 56.3415 6.88637 56.3497 6.88321C56.3807 6.87247 56.4073 6.83457 56.4035 6.80425C56.4035 6.80046 56.4022 6.79667 56.4022 6.79225C56.4016 6.79036 56.401 6.78783 56.4003 6.78593C56.4003 6.78467 56.4003 6.78404 56.4003 6.78214L56.3959 6.76951L56.3599 6.66844L56.2884 6.46567C56.2618 6.39934 56.2289 6.33428 56.1998 6.26858L56.1549 6.17067L56.1328 6.1214L56.1062 6.07402C55.8336 5.56362 55.4597 5.10312 55.0321 4.69315C54.6051 4.28129 54.125 3.91807 53.6183 3.59212C52.6031 2.94022 51.4917 2.42603 50.3524 1.99016C49.2113 1.5562 48.0372 1.19866 46.848 0.903663C46.5507 0.829756 46.2528 0.76027 45.9536 0.695206C45.6784 0.632669 45.4039 0.615614 45.1274 0.639618C44.9902 0.65162 44.8535 0.675624 44.7188 0.709104C44.6518 0.724896 44.5853 0.74511 44.5189 0.766587L43.4227 1.13549C38.7354 2.71218 34.0513 4.29709 29.3589 5.85862C24.6698 7.42899 19.9755 8.98357 15.28 10.5356L15.1959 10.1332L19.8781 9.76939L24.561 9.41312L29.2451 9.06506L33.9298 8.73027L29.2565 9.20024L24.5818 9.65695L19.9066 10.1054L13.5126 10.7081L15.1465 10.1434C19.8205 8.52813 24.4952 6.91543 29.1755 5.31916C33.8527 3.71404 38.5381 2.13166 43.2203 0.541075L44.0983 0.242918L44.3197 0.168379C44.4006 0.141849 44.4822 0.117213 44.5651 0.0969987C44.7308 0.0559391 44.8997 0.0268815 45.0699 0.0123527C45.4096 -0.0173366 45.7594 0.00666748 46.0864 0.0824699C46.3913 0.149429 46.6949 0.221441 46.9979 0.297244C48.208 0.600453 49.4029 0.966832 50.5719 1.4147C51.7384 1.86509 52.8833 2.39571 53.9479 3.08235C54.4792 3.42599 54.9891 3.81258 55.4509 4.25982C55.9107 4.70768 56.3232 5.21872 56.6293 5.80176L56.6591 5.85546L56.735 6.02412C56.7679 6.09992 56.8039 6.17383 56.8343 6.25026L56.9152 6.48462L56.9551 6.60211L56.9602 6.61664L56.9665 6.64065L56.9779 6.69055C56.9829 6.72466 56.9874 6.75877 56.9874 6.79351C56.9949 7.07461 56.8096 7.33613 56.5484 7.42962C56.4838 7.45363 56.4155 7.46626 56.3478 7.46942C56.3276 7.47068 56.3244 7.47005 56.3124 7.47068H56.2833L56.2251 7.47195L55.9936 7.47637L50.4302 7.57744L43.0122 7.69683L43.2336 7.49532C43.2158 7.62355 43.1943 7.73536 43.169 7.85285C43.1431 7.96845 43.1165 8.08342 43.0849 8.19712C43.0229 8.42453 42.9502 8.64878 42.866 8.86924C42.7819 9.0897 42.6864 9.30573 42.5795 9.51672C42.472 9.7277 42.3505 9.9311 42.2183 10.1288C42.0874 10.3265 41.9374 10.5129 41.7806 10.6917C41.6212 10.8692 41.4472 11.034 41.2638 11.1869C40.8924 11.4882 40.4718 11.7308 40.0239 11.8975C39.7987 11.9765 39.5704 12.0466 39.3363 12.0896C39.1036 12.1389 38.8663 12.1654 38.6291 12.178C38.1541 12.2008 37.6752 12.1464 37.2179 12.0188C36.3026 11.7643 35.4771 11.2134 34.8977 10.4661C34.6067 10.0934 34.3859 9.66453 34.2588 9.20719C34.2442 9.14971 34.2252 9.09349 34.2139 9.03474L34.1829 8.85913L34.1677 8.77133L34.1468 8.50412C34.1436 8.44474 34.1481 8.38537 34.1487 8.32536L34.1512 8.23629C34.1512 8.2066 34.1531 8.17691 34.1576 8.14722L34.1803 7.97035C34.1848 7.94129 34.1867 7.91097 34.1936 7.88191L34.2145 7.79537C34.3201 7.33108 34.5497 6.89964 34.861 6.54652C34.9394 6.45872 35.0248 6.37786 35.1064 6.29385C35.1931 6.21552 35.2854 6.14288 35.3746 6.06771C35.4663 5.99569 35.565 5.93379 35.6605 5.8662C35.7548 5.79861 35.8591 5.74049 35.9642 5.68806C36.0698 5.63626 36.1805 5.59078 36.295 5.5573L36.6296 5.46823L36.9668 5.39306C37.08 5.37222 37.1932 5.34948 37.3065 5.33116C37.7613 5.25788 38.2211 5.21935 38.681 5.22314C39.5982 5.23009 40.5256 5.39243 41.3511 5.79229L41.3523 5.79039Z" fill="#0E0E0E"/>
<path d="M33.4757 28.3094C33.4959 27.9405 33.5484 27.5741 33.6129 27.209C33.6781 26.8445 33.7641 26.4832 33.8628 26.1238C34.0652 25.4074 34.3385 24.705 34.7092 24.0436C34.8951 23.7133 35.1058 23.3943 35.3493 23.0961C35.5909 22.7967 35.8667 22.52 36.1748 22.2774C36.4829 22.0349 36.8276 21.8327 37.1951 21.6811C37.5639 21.532 37.9555 21.4373 38.3495 21.3994C38.4482 21.3874 38.5469 21.3867 38.6456 21.3804C38.7443 21.3811 38.8429 21.3773 38.941 21.383L39.0884 21.3899C39.1371 21.3931 39.1852 21.3994 39.2339 21.4044L39.5236 21.436C39.6197 21.4499 39.7159 21.472 39.8114 21.4897L39.955 21.5181C40.0024 21.5289 40.0499 21.544 40.0973 21.5567C40.1916 21.5838 40.2864 21.6085 40.3801 21.6388L40.6565 21.7443C41.0196 21.8984 41.3656 22.098 41.6718 22.3475C41.9798 22.5952 42.2417 22.894 42.4612 23.2136C42.9002 23.8573 43.1583 24.5907 43.2924 25.3285C43.3569 25.6986 43.3968 26.0707 43.4069 26.4421C43.4157 26.8136 43.4037 27.1856 43.3499 27.5508C43.3114 26.8155 43.1962 26.0903 42.9907 25.3999C42.7863 24.7107 42.4878 24.0531 42.0595 23.5067C41.9545 23.369 41.8369 23.242 41.716 23.1207L41.5282 22.9458L41.3277 22.7866C41.0525 22.5857 40.752 22.4233 40.4338 22.3014L40.1922 22.2168C40.1106 22.1922 40.0265 22.1732 39.9436 22.1505C39.9019 22.1404 39.8614 22.1277 39.819 22.1189L39.6912 22.0968C39.6058 22.0829 39.5217 22.0652 39.4363 22.0544L39.1776 22.0285C39.1346 22.0248 39.0909 22.0184 39.0485 22.0165L38.9201 22.0115C38.8347 22.0064 38.7493 22.0115 38.6639 22.0109C38.5792 22.0172 38.4938 22.0178 38.4096 22.0285C37.7328 22.0879 37.0876 22.3444 36.5366 22.7537C35.9825 23.1612 35.5207 23.705 35.1323 24.3007C34.7433 24.8983 34.4258 25.5508 34.1538 26.2242C33.8805 26.8982 33.6572 27.5962 33.4738 28.31L33.4757 28.3094Z" fill="#0E0E0E"/>
<path d="M56.9975 7.06072C56.5945 9.60136 56.1846 12.1407 55.7646 14.6782L55.1352 18.4848L54.497 22.2894L53.8536 26.0934L53.7119 26.9254L53.7018 26.9854C53.6974 27.0088 53.6936 27.0321 53.6879 27.0555C53.6468 27.2425 53.569 27.4244 53.452 27.583C53.3356 27.7415 53.1806 27.8773 52.9953 27.9651C52.9029 28.0087 52.8036 28.0409 52.7011 28.058C52.6499 28.0662 52.598 28.0719 52.5461 28.0725H52.4196L51.937 28.0738H50.9711L43.2449 28.0618H43.1589L43.0817 28.0112C43.047 27.9885 42.9995 27.9595 42.9565 27.9342L42.8224 27.8571C42.7319 27.8066 42.6396 27.7573 42.5466 27.7106C42.3606 27.6158 42.1702 27.528 41.9773 27.4472C41.5914 27.2848 41.1948 27.1458 40.7906 27.0366C39.9835 26.8174 39.1466 26.7138 38.3173 26.7548C37.4886 26.7953 36.6707 26.986 35.911 27.317C35.1507 27.6474 34.4511 28.1148 33.8248 28.6688L33.742 28.7421L33.6313 28.7478L27.7896 29.0321C25.8419 29.1255 23.8949 29.2228 21.9472 29.3087L16.1042 29.574L14.2787 29.653L14.0959 29.6606L14.0731 29.6618H14.0307C13.9972 29.6606 13.963 29.6562 13.9314 29.648C13.8662 29.6315 13.8068 29.6012 13.7574 29.5633C13.6575 29.4862 13.598 29.3808 13.5708 29.2727C13.5639 29.2456 13.5601 29.2184 13.5569 29.1906C13.555 29.1653 13.5544 29.1293 13.5544 29.1199L13.5556 29.0289L13.5993 25.494L13.8485 25.5205C13.8561 25.5211 13.8751 25.523 13.8909 25.5237L13.9409 25.5256C13.9744 25.5262 14.0092 25.5256 14.0434 25.5243C14.1123 25.5218 14.1819 25.5142 14.2502 25.5041C14.3875 25.4832 14.5228 25.4479 14.6506 25.3973C14.9068 25.2969 15.1345 25.1352 15.3129 24.9242C15.4021 24.8187 15.4818 24.7031 15.5463 24.5774C15.6121 24.4523 15.6678 24.3203 15.7108 24.182C15.757 24.0449 15.788 23.9015 15.8152 23.7575C15.8417 23.6147 15.855 23.4726 15.855 23.3298C15.8563 23.0449 15.7987 22.7619 15.688 22.4985C15.5767 22.2345 15.4135 21.9906 15.2168 21.7733C15.02 21.556 14.791 21.3634 14.5443 21.1953C14.421 21.1113 14.2932 21.033 14.1616 20.9616C14.0313 20.8909 13.8928 20.8214 13.7625 20.769L13.6657 20.7298L13.6625 20.6325L13.4861 15.6725L13.4038 13.1925L13.3292 10.7119L13.4981 13.1881L13.6588 15.6643L13.9687 20.6174L13.8688 20.4815C14.0275 20.5409 14.168 20.6066 14.3116 20.6812C14.4533 20.7551 14.5918 20.8359 14.7265 20.9231C14.9954 21.0981 15.2484 21.3015 15.4723 21.539C15.6956 21.7759 15.8885 22.0488 16.0245 22.3532C16.1599 22.6571 16.2352 22.9919 16.2409 23.3254C16.2447 23.4922 16.232 23.6596 16.2054 23.8219C16.1782 23.9824 16.1466 24.1428 16.0973 24.3007C16.0517 24.4593 15.9897 24.6147 15.9145 24.765C15.8405 24.916 15.7475 25.06 15.6393 25.1927C15.4236 25.4599 15.1352 25.6734 14.8163 25.8029C14.6569 25.8686 14.4912 25.9147 14.3223 25.9425C14.2382 25.9564 14.1528 25.9665 14.0674 25.9709C14.0244 25.9734 13.9814 25.9747 13.9377 25.9741L13.8713 25.9728C13.8479 25.9722 13.8289 25.9709 13.7973 25.9677L14.0497 25.7448L14.0566 28.665V29.0302L14.0579 29.1211C14.0579 29.142 14.0585 29.1369 14.0585 29.1413C14.0592 29.1439 14.0592 29.147 14.0604 29.1489C14.063 29.1584 14.0687 29.1634 14.0668 29.1603C14.0655 29.159 14.0617 29.1565 14.056 29.1546C14.0528 29.1546 14.0497 29.1533 14.0465 29.1527C14.0459 29.1527 14.0452 29.1527 14.044 29.1527H14.0497L14.0724 29.1508L14.2546 29.1401L16.0796 29.0365L21.92 28.7194C23.8664 28.6114 25.8141 28.5147 27.7611 28.4143L33.6022 28.1161L33.4086 28.1951C34.0785 27.6051 34.8363 27.101 35.6656 26.7435C36.4936 26.3859 37.3893 26.18 38.2901 26.1383C39.1909 26.096 40.0923 26.2116 40.9538 26.4485C41.3846 26.5672 41.8071 26.7138 42.217 26.8919C42.422 26.9803 42.6238 27.0757 42.8224 27.1787C42.9217 27.2299 43.0204 27.2835 43.1178 27.3398L43.2639 27.4257C43.3139 27.456 43.3588 27.4838 43.4138 27.5204L43.2506 27.4699L50.9761 27.5577L52.4247 27.5779L52.5392 27.5792C52.5676 27.5792 52.5961 27.5767 52.6246 27.5722C52.6809 27.564 52.7365 27.547 52.7897 27.523C53.0047 27.4263 53.1705 27.2033 53.2274 26.9506L54.1067 22.2199L54.817 18.4279L55.5356 14.6372C56.0151 12.1098 56.5041 9.58494 57 7.06072H56.9975Z" fill="#0E0E0E"/>
<path d="M36.5955 6.32101C36.2425 6.49852 35.9161 6.73161 35.6612 7.02471C35.4037 7.31402 35.2304 7.67535 35.2076 8.05373C35.1956 8.24197 35.2177 8.43211 35.2671 8.6153C35.3145 8.79912 35.3879 8.97662 35.4796 9.14402C35.6637 9.47882 35.9192 9.77445 36.2121 10.0252C36.5037 10.2785 36.832 10.4914 37.1806 10.6601C37.5278 10.8287 37.9011 10.9614 38.2793 10.9917C38.3268 10.9955 38.3729 10.9949 38.4198 10.9936C38.4678 10.9898 38.5159 10.9879 38.564 10.9822C38.6601 10.9728 38.7556 10.9576 38.8499 10.938C39.039 10.8988 39.2237 10.8376 39.3977 10.7517C39.7475 10.5849 40.0505 10.3145 40.2555 9.97595C40.172 10.1554 40.0556 10.3209 39.9158 10.4642C39.7772 10.6089 39.6166 10.7333 39.4407 10.8338C39.2649 10.9336 39.0745 11.0075 38.8784 11.0587C38.7803 11.0852 38.6804 11.1041 38.5804 11.118C38.5305 11.1256 38.4799 11.13 38.4292 11.1357C38.3767 11.1389 38.3242 11.1414 38.273 11.1395C38.0655 11.1345 37.865 11.0928 37.6702 11.0366C37.476 10.9797 37.2868 10.9064 37.1034 10.8224C36.7384 10.6506 36.3956 10.4314 36.0881 10.168C35.7839 9.90205 35.5131 9.58999 35.3227 9.2274C35.2278 9.04611 35.1538 8.85345 35.107 8.65383C35.0571 8.45485 35.0419 8.24576 35.0621 8.04046C35.083 7.83517 35.1418 7.63366 35.2361 7.45173C35.3297 7.26981 35.453 7.10494 35.5947 6.96217C35.7371 6.81941 35.8958 6.6956 36.0641 6.58822C36.2317 6.48083 36.4095 6.3886 36.5955 6.32038V6.32101Z" fill="#0E0E0E"/>
<path d="M21.7309 19.7589C21.5487 19.0495 21.6758 18.2776 22.0351 17.6364C22.3906 16.9921 22.9713 16.4646 23.669 16.1798C24.017 16.0376 24.3927 15.9523 24.7754 15.9454C25.1575 15.9397 25.5452 16.0079 25.9033 16.1608C26.26 16.3143 26.5871 16.5461 26.8439 16.8443C26.9078 16.9188 26.9628 17.0003 27.0229 17.0786C27.0754 17.1614 27.1241 17.2473 27.1734 17.3319C27.2139 17.421 27.2531 17.5114 27.2924 17.601L27.3809 17.8815C27.4771 18.2612 27.4897 18.661 27.422 19.0438C27.3556 19.4273 27.2101 19.7917 27.0115 20.1202C26.8116 20.4487 26.551 20.7355 26.2537 20.9724C25.9551 21.2086 25.6167 21.3899 25.2593 21.508C24.5477 21.7481 23.7475 21.7253 23.0814 21.4019C22.7474 21.2446 22.452 21.0122 22.2198 20.7298C21.9871 20.4474 21.8201 20.1126 21.7321 19.7583L21.7309 19.7589ZM21.7309 19.7589C21.8207 20.1126 21.9902 20.4462 22.2293 20.7216C22.4672 20.9976 22.7708 21.2124 23.1029 21.3539C23.4356 21.496 23.7975 21.5586 24.1549 21.5523C24.5129 21.5447 24.8652 21.4644 25.1929 21.3299C25.8489 21.0608 26.3954 20.5624 26.7288 19.9553C27.0659 19.3515 27.1817 18.6313 27.0134 17.975C26.8527 17.3174 26.3897 16.7483 25.7698 16.4571C25.1537 16.1564 24.4072 16.1311 23.7361 16.356C23.3996 16.4672 23.0801 16.6371 22.798 16.8594C22.5172 17.0824 22.2705 17.3534 22.082 17.6623C21.8941 17.9712 21.7568 18.3142 21.6942 18.6737C21.6309 19.0325 21.643 19.4045 21.7315 19.7589H21.7309Z" fill="#0E0E0E"/>
<path d="M48.7742 12.4187C48.733 12.1565 48.7508 11.8862 48.8191 11.6291C48.8874 11.372 49.0063 11.1282 49.1638 10.9109C49.4763 10.4744 49.9488 10.1459 50.4833 10.0037C50.7503 9.93237 51.0324 9.90457 51.3133 9.933C51.5935 9.96206 51.8725 10.0435 52.1242 10.1831C52.376 10.3221 52.6005 10.5179 52.7701 10.7567C52.9402 10.9949 53.0522 11.276 53.0958 11.5653C53.1395 11.8546 53.1173 12.1534 53.0332 12.4307C52.9503 12.7086 52.8093 12.9657 52.6284 13.1856C52.4475 13.406 52.2254 13.5886 51.9832 13.7294C51.7396 13.869 51.4714 13.9625 51.1994 14.0086C50.6554 14.1028 50.0817 14.003 49.6281 13.7111C49.401 13.5671 49.2049 13.3776 49.0576 13.1559C48.9102 12.9341 48.8121 12.6808 48.7735 12.4187H48.7742ZM48.7742 12.4187C48.814 12.6808 48.9152 12.9335 49.0689 13.1483C49.222 13.3637 49.4257 13.5406 49.6553 13.6663C49.8849 13.7926 50.1399 13.8659 50.3967 13.8911C50.6541 13.9158 50.9129 13.8893 51.1589 13.8223C51.6511 13.6896 52.0844 13.3845 52.369 12.9847C52.6568 12.5873 52.7954 12.0921 52.7214 11.6209C52.6872 11.3859 52.5999 11.1604 52.469 10.962C52.338 10.7637 52.1622 10.5937 51.9579 10.4624C51.5492 10.197 51.0267 10.1023 50.5245 10.1869C50.2733 10.2286 50.026 10.3133 49.8008 10.4415C49.5769 10.571 49.3713 10.7384 49.2049 10.9412C49.0379 11.1433 48.9083 11.3783 48.8324 11.6316C48.7558 11.8843 48.7356 12.1553 48.7748 12.4174L48.7742 12.4187Z" fill="#0E0E0E"/>
<path d="M47.38 19.1695C47.349 18.9674 47.3939 18.7551 47.5027 18.5745C47.6109 18.3944 47.7848 18.2403 48.0031 18.1664C48.1112 18.1298 48.2295 18.1115 48.3497 18.119C48.4699 18.1272 48.5914 18.1614 48.7008 18.2226C48.8102 18.2833 48.9076 18.3704 48.9804 18.4759C49.0538 18.5814 49.1006 18.7052 49.1208 18.8309C49.1607 19.0843 49.0797 19.3477 48.9228 19.5346C48.7678 19.7248 48.5382 19.8404 48.3105 19.8631C48.0821 19.8884 47.8544 19.8208 47.6874 19.6913C47.5179 19.5624 47.4091 19.3717 47.38 19.1695ZM47.38 19.1695C47.3964 19.27 47.4338 19.3679 47.4926 19.4506C47.5508 19.5334 47.6286 19.6016 47.7159 19.6477C47.8917 19.7425 48.0992 19.7431 48.2687 19.6774C48.4408 19.6136 48.5736 19.4866 48.6552 19.3439C48.7375 19.1999 48.7685 19.0388 48.7451 18.8878C48.7229 18.7362 48.6464 18.5972 48.5218 18.4961C48.3984 18.3957 48.2264 18.3357 48.0429 18.3509C47.8607 18.3635 47.6722 18.4519 47.5438 18.6048C47.4135 18.7551 47.3477 18.9668 47.3787 19.1695H47.38Z" fill="#0E0E0E"/>
<path d="M33.6211 18.0805C33.5901 17.8784 33.6351 17.6661 33.7439 17.4854C33.852 17.3054 34.026 17.1513 34.2442 17.0774C34.3524 17.0407 34.4707 17.0224 34.5909 17.03C34.711 17.0382 34.8325 17.0723 34.9419 17.1336C35.0514 17.1942 35.1488 17.2814 35.2215 17.3869C35.2949 17.4924 35.3417 17.6162 35.362 17.7419C35.4018 17.9952 35.3208 18.2586 35.164 18.4456C35.009 18.6358 34.7794 18.7514 34.5516 18.7741C34.3233 18.7994 34.0956 18.7318 33.9286 18.6023C33.759 18.4734 33.6502 18.2826 33.6211 18.0805ZM33.6211 18.0805C33.6376 18.1809 33.6749 18.2789 33.7337 18.3616C33.7919 18.4444 33.8697 18.5126 33.957 18.5587C34.1329 18.6534 34.3404 18.6541 34.5099 18.5884C34.6819 18.5246 34.8148 18.3976 34.8964 18.2548C34.9786 18.1108 35.0096 17.9497 34.9862 17.7988C34.9641 17.6472 34.8875 17.5082 34.7629 17.4071C34.6396 17.3067 34.4675 17.2467 34.2841 17.2618C34.1019 17.2745 33.9134 17.3629 33.785 17.5158C33.6547 17.6661 33.5889 17.8777 33.6199 18.0805H33.6211Z" fill="#0E0E0E"/>
<path d="M32.5926 12.7769C32.5806 12.6954 32.592 12.6095 32.6299 12.5273C32.6679 12.4465 32.7337 12.3644 32.833 12.3164C32.9291 12.2677 33.0632 12.2551 33.1809 12.3126C33.2397 12.3397 33.2922 12.3833 33.3327 12.4376C33.3732 12.492 33.3991 12.557 33.4092 12.6234C33.4307 12.7566 33.3827 12.8931 33.2973 12.9822C33.2125 13.0731 33.0911 13.1167 32.9823 13.1135C32.8722 13.1116 32.7741 13.0643 32.709 13.0017C32.6426 12.9386 32.6053 12.859 32.5932 12.7775L32.5926 12.7769ZM32.5926 12.7769C32.604 12.8596 32.6634 12.9316 32.7368 12.9575C32.8102 12.9859 32.8886 12.9657 32.9399 12.9272C32.9924 12.8887 33.0183 12.8343 33.0291 12.7908C33.0405 12.7453 33.0373 12.7105 33.0335 12.6796C33.0284 12.6486 33.0234 12.6208 33.0019 12.5855C32.981 12.552 32.938 12.5122 32.8735 12.5002C32.8102 12.4869 32.7299 12.5033 32.6717 12.557C32.6128 12.6088 32.5793 12.6947 32.5926 12.7769Z" fill="#0E0E0E"/>
<path d="M43.1659 15.8879C43.1539 15.8064 43.1652 15.7205 43.2032 15.6384C43.2411 15.5575 43.3069 15.4754 43.4062 15.4274C43.5024 15.3788 43.6365 15.3661 43.7542 15.4236C43.813 15.4508 43.8655 15.4944 43.906 15.5487C43.9465 15.603 43.9724 15.6681 43.9825 15.7344C44.004 15.8677 43.9559 16.0048 43.8705 16.0932C43.7858 16.1842 43.6643 16.2278 43.5555 16.2246C43.4455 16.2227 43.3474 16.1753 43.2823 16.1128C43.2158 16.0496 43.1785 15.97 43.1665 15.8885L43.1659 15.8879ZM43.1659 15.8879C43.1773 15.9707 43.2367 16.0427 43.3101 16.0686C43.3835 16.097 43.4619 16.0768 43.5132 16.0383C43.5657 15.9997 43.5916 15.9454 43.6023 15.9018C43.6137 15.8563 43.6106 15.8216 43.6068 15.7906C43.6017 15.7597 43.5966 15.7319 43.5751 15.6965C43.5543 15.663 43.5113 15.6232 43.4467 15.6112C43.3835 15.598 43.3031 15.6144 43.2449 15.6681C43.1861 15.7199 43.1526 15.8058 43.1659 15.8879Z" fill="#0E0E0E"/>
<path d="M48.7229 5.30968C48.7109 5.22819 48.7223 5.14228 48.7603 5.06016C48.7982 4.97931 48.864 4.89719 48.9633 4.84918C49.0595 4.80054 49.1936 4.78791 49.3112 4.84539C49.37 4.87255 49.4225 4.91614 49.463 4.97046C49.5035 5.02479 49.5294 5.08985 49.5396 5.15618C49.5611 5.28947 49.513 5.42591 49.4276 5.51498C49.3428 5.60594 49.2214 5.64953 49.1126 5.64637C49.0025 5.64447 48.9045 5.5971 48.8393 5.53456C48.7729 5.47139 48.7356 5.3918 48.7236 5.31031L48.7229 5.30968ZM48.7229 5.30968C48.7343 5.39243 48.7938 5.46444 48.8672 5.49034C48.9405 5.51877 49.019 5.49856 49.0702 5.46002C49.1227 5.42149 49.1486 5.36716 49.1594 5.32358C49.1708 5.2781 49.1676 5.24335 49.1638 5.2124C49.1588 5.18145 49.1537 5.15365 49.1322 5.11828C49.1113 5.0848 49.0683 5.045 49.0038 5.033C48.9405 5.01974 48.8602 5.03616 48.802 5.08985C48.7432 5.14165 48.7096 5.22756 48.7229 5.30968Z" fill="#0E0E0E"/>
<path d="M40.7976 2.89853C41.5105 2.58269 42.2341 2.2959 42.9609 2.01985C43.324 1.87962 43.689 1.74633 44.054 1.61305L44.3285 1.5145C44.4171 1.48229 44.5202 1.44691 44.6189 1.42165C44.8188 1.37048 45.0256 1.34205 45.2325 1.34016C45.3362 1.34016 45.4393 1.34521 45.5424 1.35721C45.6436 1.36858 45.7505 1.3888 45.8435 1.40901C46.0345 1.45007 46.2249 1.49303 46.4153 1.53914C46.7949 1.632 47.1732 1.73307 47.5457 1.85183C47.9196 1.96806 48.2884 2.10071 48.6496 2.25421C49.0076 2.4115 49.3631 2.58648 49.6762 2.8202C49.327 2.64712 48.9639 2.51447 48.5952 2.3995C48.227 2.282 47.8538 2.18346 47.4793 2.08934C47.1036 1.99838 46.7272 1.9112 46.3489 1.83161C46.1598 1.79245 45.9707 1.75139 45.7809 1.71538C45.6835 1.69517 45.5993 1.68001 45.5076 1.6699C45.4172 1.65979 45.3267 1.65537 45.2356 1.65663C45.0541 1.65663 44.8725 1.68127 44.696 1.72422C44.6056 1.7457 44.5246 1.7716 44.4297 1.80382L44.1533 1.89604C43.7839 2.01733 43.4145 2.13798 43.0425 2.25232C42.3005 2.48478 41.5547 2.7065 40.7988 2.89916L40.7976 2.89853Z" fill="#0E0E0E"/>
<path d="M23.9221 16.5569C24.3339 16.4874 24.7634 16.5272 25.1726 16.6529C25.5807 16.7805 25.9709 17.0205 26.2486 17.3673C26.3195 17.4526 26.3783 17.5461 26.4359 17.6402L26.5111 17.7874C26.5352 17.8367 26.5535 17.8885 26.5738 17.939C26.649 18.1443 26.699 18.3572 26.7142 18.5707C26.7509 18.9977 26.6933 19.4197 26.5618 19.8138C26.5624 19.3988 26.5497 18.9927 26.4681 18.6061C26.4314 18.4128 26.372 18.2271 26.2961 18.0514C26.2214 17.8746 26.1221 17.7116 26.0026 17.565C25.766 17.2694 25.4453 17.0439 25.0854 16.8841C24.7254 16.723 24.332 16.6188 23.9227 16.5569H23.9221Z" fill="#0E0E0E"/>
<path d="M50.9312 10.5691C51.0761 10.5653 51.219 10.5925 51.3601 10.6279C51.5005 10.6658 51.6378 10.722 51.7681 10.7971C51.8978 10.8723 52.0205 10.9677 52.1236 11.0858C52.2273 11.204 52.3089 11.3461 52.3564 11.4996C52.4038 11.6531 52.4171 11.8154 52.4025 11.9702C52.3899 12.0466 52.3823 12.1237 52.3583 12.1963C52.3475 12.2323 52.3399 12.2702 52.3254 12.305L52.2843 12.4092C52.1679 12.6834 51.9888 12.9165 51.7776 13.1104C51.8807 12.8426 51.9888 12.588 52.0483 12.3303C52.0799 12.202 52.097 12.0751 52.1027 11.9506C52.104 11.8268 52.0894 11.7061 52.054 11.5931C51.9857 11.3657 51.8288 11.1667 51.627 11.0006C51.4246 10.8338 51.1868 10.6954 50.9306 10.5685L50.9312 10.5691Z" fill="#0E0E0E"/>
<path d="M20.5328 9.35437C21.2312 9.2053 21.9333 9.08717 22.6361 8.97978C23.3389 8.8705 24.0442 8.77701 24.7501 8.69237C25.456 8.60835 26.1632 8.53318 26.8723 8.4738C27.5808 8.41253 28.2912 8.36263 29.0047 8.34367C28.3064 8.49338 27.6048 8.61151 26.9014 8.7189C26.1987 8.82818 25.4934 8.92167 24.7874 9.00631C24.0815 9.0897 23.3743 9.16487 22.6652 9.22425C21.9567 9.28552 21.2463 9.33605 20.5328 9.35501V9.35437Z" fill="#0E0E0E"/>
<path d="M37.6278 7.73789C37.6234 7.57238 37.6468 7.40499 37.6986 7.2458C37.7505 7.08599 37.8359 6.9388 37.9371 6.80362C38.0383 6.66781 38.1667 6.55474 38.304 6.45556C38.4406 6.35512 38.5956 6.28122 38.7544 6.22184C38.9132 6.15993 39.0821 6.13024 39.2509 6.11003C39.3357 6.10561 39.4211 6.09676 39.5059 6.10245C39.5482 6.10434 39.5913 6.10245 39.6336 6.10813L39.7608 6.12329C39.9291 6.15046 40.0961 6.19215 40.2523 6.26227C40.4092 6.32986 40.5597 6.4145 40.6926 6.52442C40.9608 6.73793 41.1632 7.03861 41.2473 7.37467C41.2853 7.54333 41.2948 7.71704 41.2758 7.88823C41.253 8.05941 41.1992 8.22429 41.1208 8.37652C40.9614 8.68036 40.7027 8.92293 40.4041 9.07769C40.1049 9.23372 39.7671 9.30447 39.4363 9.29626L39.5603 9.28552L39.6223 9.27983L39.6836 9.2691C39.7241 9.26152 39.7652 9.25583 39.8051 9.24762L39.9246 9.21667C40.0821 9.16992 40.2358 9.10991 40.375 9.024C40.5148 8.94125 40.647 8.84397 40.7571 8.72521C40.8665 8.60772 40.9671 8.47886 41.0341 8.33294C41.1025 8.18828 41.1486 8.03415 41.167 7.87623C41.1809 7.71767 41.1695 7.55786 41.1322 7.40372C41.0518 7.09672 40.8652 6.82068 40.6141 6.62296C40.1157 6.21931 39.4002 6.11129 38.7879 6.31469C38.6348 6.36586 38.4862 6.43282 38.3514 6.52315C38.2167 6.61159 38.0896 6.71582 37.9865 6.84152C37.8821 6.96533 37.791 7.10304 37.7315 7.25591C37.6727 7.40878 37.6379 7.57049 37.6291 7.73662L37.6278 7.73789Z" fill="#0E0E0E"/>
<path d="M53.9802 18.5985C53.8467 19.654 53.6822 20.7045 53.5064 21.7525C53.4216 22.2768 53.3261 22.7992 53.235 23.3229L52.9465 24.8901L52.8137 25.5748C52.8074 25.6077 52.8017 25.6386 52.7928 25.6765C52.7283 25.9665 52.5664 26.2457 52.3115 26.4226C52.1856 26.5116 52.0388 26.5735 51.8838 26.5963C51.8453 26.6032 51.8067 26.6057 51.7675 26.6076L51.7384 26.6089H51.4638C51.1981 26.6108 50.9318 26.6089 50.6662 26.6064C49.6022 26.5994 48.5382 26.5817 47.4736 26.5325C48.5363 26.4504 49.599 26.3992 50.6624 26.36C50.928 26.3493 51.1937 26.3392 51.46 26.3322L51.6593 26.3265L51.7093 26.3253H51.7339L51.7548 26.3228C51.782 26.3209 51.8098 26.319 51.8364 26.3126C51.9446 26.2937 52.0477 26.247 52.1369 26.18C52.3184 26.048 52.443 25.8376 52.4905 25.6108L52.636 24.832L52.9415 23.2679C53.049 22.7474 53.1515 22.2263 53.2647 21.7076C53.4855 20.6685 53.7176 19.6313 53.9795 18.5997L53.9802 18.5985Z" fill="#0E0E0E"/>
<path d="M15.1105 20.3994C15.3622 20.4089 15.6115 20.4885 15.8373 20.6079C16.0638 20.7279 16.2712 20.8902 16.4363 21.0886L16.4686 21.1246L16.4971 21.1638L16.5534 21.2421L16.609 21.3217C16.6274 21.3482 16.6413 21.3773 16.6565 21.4057L16.7463 21.5763C16.7703 21.6356 16.7925 21.6956 16.8146 21.7557L16.8475 21.8454C16.8557 21.8763 16.8633 21.9073 16.8703 21.9382L16.9114 22.1239C16.9304 22.249 16.9373 22.3753 16.9417 22.4998C16.8956 22.3817 16.8646 22.2629 16.8216 22.1479L16.7526 21.978L16.7197 21.8934L16.6786 21.8125C16.6508 21.7588 16.6242 21.7051 16.5989 21.6508L16.504 21.4986C16.4876 21.4739 16.4743 21.4468 16.4566 21.4228L16.4028 21.3514L16.3231 21.2434L16.2934 21.2105L16.1757 21.0766C16.1327 21.0355 16.0884 20.9964 16.046 20.954C16.003 20.913 15.9543 20.8776 15.9088 20.8391C15.886 20.8195 15.8613 20.8031 15.8367 20.7854L15.7633 20.733C15.564 20.5978 15.3477 20.4847 15.1124 20.3982L15.1105 20.3994Z" fill="#0E0E0E"/>
<path d="M40.9671 22.3829C40.9671 22.3829 43.4746 24.0942 42.4922 27.3025L43.3392 27.9051C43.3392 27.9051 43.4746 27.0498 43.2038 25.494C42.8148 23.261 40.9671 22.3829 40.9671 22.3829Z" fill="#0E0E0E"/>
<path d="M35.1387 25.9608C35.2082 25.5268 35.3664 25.1099 35.5713 24.717C35.7788 24.3247 36.0483 23.9602 36.3779 23.6513C36.543 23.4972 36.7258 23.3608 36.9206 23.2445C37.1148 23.127 37.3248 23.0348 37.5424 22.971C37.9757 22.8371 38.4394 22.8302 38.8657 22.9281C38.6469 22.9514 38.4324 22.9653 38.2256 23.0171L38.1478 23.0323L38.0712 23.0531C38.0206 23.0677 37.9694 23.0803 37.9194 23.0955C37.8207 23.1315 37.7208 23.1612 37.6259 23.2047C37.5778 23.2243 37.5297 23.2433 37.4842 23.2685C37.438 23.2919 37.3906 23.3134 37.345 23.338L37.2103 23.4151C37.1648 23.4397 37.123 23.4713 37.0794 23.4985L37.0148 23.5408L36.9522 23.5869C36.9111 23.6179 36.8675 23.6463 36.8289 23.6804L36.708 23.7783L36.5923 23.8825C36.2887 24.1668 36.0205 24.4928 35.7832 24.8446C35.5448 25.1965 35.3322 25.5692 35.138 25.9614L35.1387 25.9608Z" fill="#0E0E0E"/>
<path d="M36.8934 24.8806C36.9813 24.5723 37.1515 24.2862 37.3735 24.0462C37.4842 23.9249 37.6132 23.82 37.7518 23.729C37.8916 23.6393 38.0447 23.5705 38.2034 23.5193C38.3628 23.4726 38.5279 23.4404 38.6937 23.4353C38.8588 23.4321 39.0245 23.4391 39.1845 23.4732C39.5059 23.5332 39.8101 23.6539 40.0834 23.82C39.7779 23.7259 39.4717 23.6495 39.1637 23.6198C39.0099 23.604 38.8562 23.6021 38.7044 23.6147C38.5526 23.6242 38.4033 23.6558 38.2597 23.7C37.97 23.7859 37.7062 23.947 37.4772 24.151C37.2495 24.3576 37.0528 24.6046 36.8934 24.8806Z" fill="#0E0E0E"/>
<path d="M53.5544 8.52055C53.9485 8.49907 54.342 8.48833 54.7361 8.47759L55.3269 8.46622C55.3522 8.46622 55.3737 8.46496 55.4028 8.46559C55.4344 8.46559 55.466 8.47064 55.4964 8.47886C55.5578 8.49528 55.6141 8.5275 55.6602 8.56792C55.7532 8.65004 55.8076 8.76501 55.8228 8.88377C55.8272 8.91346 55.8272 8.94378 55.8272 8.97347L55.8234 9.01832L55.819 9.05622L55.8007 9.20277L55.7614 9.49524L55.6817 10.0796L55.5116 11.2463L55.3281 12.4111C55.2624 12.799 55.201 13.1868 55.1301 13.574C54.9935 14.3485 54.8487 15.1217 54.6785 15.8911C54.7443 15.1059 54.8354 14.3245 54.9353 13.545C54.9828 13.1546 55.0397 12.7655 55.0916 12.3757L55.2624 11.209L55.4464 10.0442L55.5438 9.46239L55.5932 9.17182L55.6254 8.99115L55.6292 8.96273C55.6299 8.94378 55.6311 8.9242 55.6292 8.90524C55.6236 8.82944 55.5919 8.75364 55.5394 8.70247C55.5135 8.67721 55.4825 8.65762 55.449 8.64688C55.4325 8.64183 55.4154 8.63804 55.3977 8.63615C55.3775 8.63425 55.3497 8.63362 55.3262 8.63172L54.7361 8.6014C54.3426 8.57803 53.9498 8.55529 53.5563 8.52118L53.5544 8.52055Z" fill="#0E0E0E"/>
<path d="M14.798 27.444C14.817 27.5804 14.8296 27.7175 14.8429 27.854L14.8518 27.9563C14.8543 27.991 14.8594 28.0131 14.8688 28.0403C14.8872 28.0908 14.9188 28.1351 14.9599 28.1666C15.0011 28.1976 15.0491 28.2153 15.0978 28.2197C15.1099 28.2197 15.1219 28.2216 15.1345 28.2197L15.1535 28.2184L15.1788 28.2159L15.2813 28.2045L15.6905 28.1654C16.2364 28.1142 16.7849 28.1149 17.332 28.0934L18.9748 28.034C19.5226 28.0182 20.0698 27.9993 20.6182 27.9872L20.6195 28.0125C20.0742 28.0649 19.5283 28.1111 18.9824 28.1603L17.3447 28.2955C16.7988 28.3391 16.2535 28.4042 15.7057 28.4181L15.2946 28.4275H15.1915L15.1655 28.4288H15.1333C15.1111 28.4282 15.089 28.4237 15.0675 28.4206C14.9802 28.4035 14.9005 28.3599 14.8404 28.2987C14.7803 28.2374 14.7385 28.1597 14.7246 28.0769C14.7202 28.0567 14.7196 28.0359 14.7183 28.015C14.7183 27.9948 14.7183 27.9727 14.7202 27.9569L14.729 27.8546C14.7423 27.7182 14.755 27.5811 14.774 27.4446H14.7993L14.798 27.444Z" fill="#0E0E0E"/>
<path d="M14.5266 13.924C14.4811 13.5532 14.4533 13.183 14.4311 12.8122L14.4229 12.6733L14.4191 12.6038C14.4178 12.5817 14.4191 12.552 14.4191 12.5261C14.4223 12.4193 14.4431 12.3119 14.4823 12.2102C14.5621 12.0081 14.7151 11.8331 14.91 11.727C15.008 11.6746 15.1149 11.6392 15.225 11.6228L15.2661 11.6164L15.3015 11.6127L15.5096 11.5937C15.6943 11.5779 15.8797 11.5646 16.065 11.5526L17.1771 11.4851L19.3993 11.3366C20.1406 11.2924 20.8813 11.2444 21.6233 11.204L21.6259 11.2355C20.8889 11.3259 20.1507 11.4074 19.4132 11.4939L17.1992 11.7365L16.0929 11.8641C15.9081 11.8849 15.7241 11.9045 15.5387 11.9209L15.4002 11.9329L15.3306 11.9386L15.2971 11.9418L15.2693 11.9449C15.1952 11.9531 15.1231 11.974 15.0561 12.0068C14.9195 12.0687 14.8062 12.1831 14.7392 12.3208C14.7044 12.3896 14.6816 12.4648 14.6721 12.5425C14.6702 12.5627 14.6671 12.5791 14.6664 12.6038L14.6626 12.6733L14.6544 12.8122C14.6323 13.183 14.6044 13.5532 14.5589 13.924H14.5266Z" fill="#0E0E0E"/>
<path d="M14.612 14.5481C14.6569 14.9113 14.6835 15.2752 14.7031 15.639C14.7145 15.821 14.7196 16.0029 14.7278 16.1848L14.7417 16.7306L14.7455 17.2764C14.743 17.4583 14.7442 17.6402 14.7385 17.8228C14.7303 18.1873 14.7158 18.5511 14.6816 18.9162C14.6361 18.553 14.6101 18.1891 14.5905 17.8253C14.5785 17.6434 14.5741 17.4614 14.5658 17.2795L14.5519 16.7337L14.5488 16.188C14.5513 16.006 14.55 15.8241 14.5557 15.6416C14.564 15.2771 14.5785 14.9132 14.612 14.5481Z" fill="#0E0E0E"/>
<path d="M27.5258 16.9403C27.7168 17.1759 27.8591 17.4494 27.9667 17.7343C28.0742 18.0205 28.1419 18.3237 28.1602 18.632C28.1767 18.9402 28.1438 19.2535 28.047 19.5473C27.9547 19.8416 27.7959 20.1126 27.5947 20.3375C27.7307 20.0678 27.8427 19.7936 27.9041 19.5081C27.9357 19.366 27.9578 19.222 27.9673 19.0773C27.98 18.9326 27.98 18.7874 27.9705 18.6427C27.9641 18.4974 27.9464 18.3528 27.9211 18.2087C27.8977 18.0641 27.8629 17.9219 27.8256 17.7792C27.7472 17.4956 27.6479 17.2151 27.5251 16.9397L27.5258 16.9403Z" fill="#0E0E0E"/>
<path d="M33.4965 13.0573C33.4953 13.1161 33.4712 13.1742 33.4339 13.2222C33.3972 13.2708 33.346 13.3081 33.2897 13.3327C33.2334 13.3567 33.1727 13.3656 33.1132 13.3662C33.0835 13.3662 33.0544 13.3618 33.0253 13.358C32.9968 13.3511 32.9683 13.3441 32.9411 13.334C32.9702 13.3296 32.9987 13.3283 33.0272 13.3264L33.11 13.3163C33.1638 13.3062 33.2169 13.2955 33.265 13.274C33.3618 13.2329 33.4434 13.1597 33.4965 13.0567V13.0573Z" fill="#0E0E0E"/>
<path d="M19.2639 12.1565C19.8205 12.0542 20.3797 11.9702 20.9389 11.8925C21.2185 11.8521 21.4987 11.8186 21.779 11.7813L22.6203 11.6809L23.4628 11.5905C23.7443 11.564 24.0245 11.5337 24.3067 11.511C24.8696 11.4611 25.4333 11.4181 25.9988 11.3935C25.4421 11.4964 24.8829 11.5804 24.3237 11.6575C24.0442 11.6979 23.7639 11.7314 23.4837 11.7687L22.6424 11.8691L21.7998 11.9595C21.5183 11.986 21.2381 12.0157 20.956 12.039C20.393 12.0889 19.8294 12.1319 19.2639 12.1565Z" fill="#0E0E0E"/>
<path d="M8.49958 32.8771C8.48629 32.9182 8.74185 33.0553 9.07078 33.1835C9.40035 33.3117 9.67804 33.3825 9.69196 33.3414C9.70587 33.2997 9.44969 33.162 9.12076 33.0351C8.79119 32.9068 8.51349 32.8361 8.49958 32.8771Z" fill="#0E0E0E"/>
<path d="M10.4593 33.6535C10.4719 33.62 10.3688 33.5505 10.2303 33.4981C10.0911 33.4463 9.96839 33.4318 9.95574 33.4652C9.94308 33.4994 10.0456 33.5682 10.1847 33.6206C10.3239 33.6724 10.4466 33.687 10.4593 33.6535Z" fill="#0E0E0E"/>
<path d="M2.44723 30.2954C2.43394 30.3365 2.6895 30.4736 3.01843 30.6018C3.34799 30.73 3.62569 30.8008 3.63961 30.7597C3.65352 30.718 3.39733 30.5803 3.0684 30.4534C2.73884 30.3251 2.46114 30.2544 2.44723 30.2954Z" fill="#0E0E0E"/>
<path d="M4.4069 31.0711C4.41955 31.0377 4.31645 30.9682 4.17792 30.9158C4.03875 30.864 3.91603 30.8494 3.90338 30.8829C3.89073 30.917 3.99321 30.9859 4.13237 31.0383C4.27153 31.0901 4.39425 31.1046 4.4069 31.0711Z" fill="#0E0E0E"/>
<path d="M10.4985 22.8744C10.4763 22.8264 10.4093 22.8106 10.3675 22.8422C10.3454 22.8573 10.3372 22.8788 10.3233 22.9123C10.31 22.9426 10.298 22.9735 10.284 23.0032C10.229 23.1233 10.1657 23.2389 10.0981 23.3513C9.96206 23.5768 9.80519 23.7878 9.63756 23.9899C9.3023 24.3942 8.92213 24.7581 8.51856 25.0935C8.11561 25.4289 7.69433 25.7429 7.25596 26.0309L5.94782 26.8995L3.33787 28.6455L0.722862 30.3832L0.395195 30.5993C0.390767 30.6024 0.38887 30.6037 0.390767 30.6024C0.390767 30.6024 0.390767 30.6024 0.3914 30.6018C0.392665 30.6018 0.392665 30.5999 0.39393 30.5993C0.395828 30.5974 0.39646 30.5942 0.397093 30.5923C0.397725 30.5879 0.397093 30.5847 0.394563 30.5803C0.392665 30.5784 0.390767 30.5759 0.38887 30.5753C0.38887 30.5753 0.38887 30.5753 0.387604 30.5753C0.387604 30.5753 0.394563 30.5778 0.397725 30.5791L0.42113 30.5873L0.514117 30.6195L11.6358 34.498L17.5711 36.5573L18.4979 36.882L18.544 36.8985C18.5516 36.9016 18.5396 36.8966 18.5377 36.8959C18.5333 36.8947 18.5288 36.8947 18.5238 36.8928C18.5137 36.8909 18.5035 36.8909 18.4928 36.8909C18.4485 36.8934 18.4106 36.9155 18.3872 36.9452C18.3638 36.9743 18.3517 37.0216 18.3606 37.0633C18.3631 37.0734 18.3656 37.0823 18.3694 37.0905C18.3732 37.0981 18.3675 37.0861 18.3669 37.0854L18.3619 37.0747L18.3403 37.0305L17.5667 35.4437L16.8867 34.03L16.2118 32.6137L15.5444 31.1937L15.5235 31.1495L15.5185 31.1381C15.5166 31.1337 15.521 31.1438 15.5223 31.1451C15.5267 31.1526 15.5324 31.1596 15.5381 31.1659C15.5501 31.1785 15.5647 31.1886 15.5811 31.195C15.5893 31.1981 15.5976 31.2006 15.6058 31.2019C15.6102 31.2019 15.614 31.2032 15.6184 31.2032C15.6248 31.2032 15.6267 31.2032 15.6197 31.2032C15.5501 31.2013 15.4818 31.1975 15.4135 31.1931C15.2768 31.1836 15.1421 31.1691 15.0067 31.1501C14.7373 31.1116 14.4703 31.0547 14.2072 30.9764C13.9447 30.8987 13.6879 30.7919 13.4456 30.6549C13.2033 30.5178 12.9756 30.3472 12.7846 30.1381C12.5929 29.9297 12.4417 29.6827 12.3462 29.418C12.2507 29.1533 12.2045 28.8748 12.2045 28.6006C12.202 28.5318 12.2089 28.4642 12.2115 28.396L12.2165 28.2936L12.2298 28.1925C12.2393 28.1256 12.2469 28.058 12.257 27.9917L12.3196 27.6954L12.3468 27.5988L12.4019 27.4061C12.4423 27.2791 12.4898 27.1547 12.5328 27.029C12.5347 27.022 12.5372 27.0214 12.5328 27.0107L12.4904 26.9222L12.405 26.7454L12.2349 26.3916C12.121 26.156 12.009 25.9197 11.8926 25.6854L11.2 24.2774L10.4985 22.8737V22.8744ZM10.5434 22.851L11.2696 24.242L12.0046 25.6285C12.1267 25.8597 12.2526 26.089 12.3766 26.3196L12.5632 26.6645L12.6568 26.8369L12.7036 26.9235C12.7308 26.9702 12.7384 27.041 12.7175 27.0953C12.5562 27.583 12.4518 28.0927 12.4752 28.5911C12.4872 28.84 12.5416 29.082 12.634 29.3049C12.727 29.5279 12.8643 29.7282 13.035 29.8975C13.3779 30.2373 13.8416 30.4451 14.3223 30.5715C14.5633 30.6346 14.8119 30.6782 15.0618 30.7054C15.187 30.718 15.3123 30.7275 15.4375 30.7319C15.5001 30.7345 15.5628 30.7351 15.6241 30.7351H15.6494C15.6621 30.737 15.6741 30.7382 15.6867 30.7401C15.7114 30.7446 15.7355 30.7515 15.7589 30.7604C15.805 30.7787 15.8474 30.8077 15.8822 30.8444C15.8993 30.8627 15.9151 30.8829 15.9278 30.9044C15.9334 30.9132 15.9417 30.9303 15.9436 30.9334L15.9493 30.9442L15.9708 30.9884L16.6679 32.3939L17.3573 33.8032L18.0418 35.215L18.8034 36.8075L18.8243 36.8517L18.8375 36.8795C18.8477 36.9029 18.8565 36.9269 18.8616 36.9534C18.8862 37.0583 18.8571 37.1758 18.7933 37.256C18.7313 37.3375 18.6307 37.395 18.5206 37.4C18.4934 37.4019 18.4669 37.4 18.4403 37.3956C18.427 37.3937 18.415 37.3905 18.403 37.3874C18.3928 37.3849 18.3732 37.3779 18.3732 37.3779L18.3271 37.3615L18.1424 37.2952L17.4035 37.0286L11.5005 34.879L0.334469 30.833L0.311697 30.8248L0.298413 30.8197L0.275008 30.8096C0.244013 30.7938 0.214915 30.7717 0.193408 30.7439C0.149129 30.6883 0.131417 30.6163 0.144068 30.5475C0.149761 30.5134 0.16431 30.4793 0.185185 30.4508C0.195306 30.4363 0.207324 30.4237 0.219976 30.4117C0.226301 30.406 0.233259 30.4009 0.240218 30.3959C0.248441 30.3902 0.253501 30.3864 0.255399 30.3851L0.585596 30.1729L3.23603 28.4882L5.89153 26.8117L7.21548 25.9684C7.65637 25.6885 8.08462 25.3879 8.48819 25.0569C8.8905 24.7246 9.2732 24.3664 9.60593 23.964C9.77166 23.7632 9.92664 23.5522 10.0595 23.3292C10.1259 23.2174 10.1879 23.103 10.241 22.9849C10.2549 22.9559 10.2663 22.9255 10.2796 22.8959C10.2859 22.8807 10.291 22.8668 10.3005 22.8485C10.3106 22.8314 10.3239 22.8156 10.3403 22.8043C10.3732 22.7809 10.415 22.7727 10.4542 22.7821C10.4934 22.791 10.5276 22.8188 10.5453 22.8542L10.5434 22.851Z" fill="#0E0E0E"/>
<path d="M0.00174166 30.6214C0.0162906 30.8463 0.0396954 31.0705 0.0725886 31.2929C0.0890352 31.404 0.10738 31.5146 0.132049 31.6232C0.156087 31.7313 0.185185 31.8399 0.227566 31.9378C0.248441 31.9858 0.274376 32.0332 0.304739 32.0642L0.310432 32.0698C0.310432 32.0698 0.31486 32.0743 0.313595 32.0724C0.310432 32.0698 0.319288 32.0749 0.322451 32.0762C0.333204 32.0812 0.345223 32.0863 0.357241 32.092C0.381911 32.1021 0.407846 32.1122 0.433781 32.1216C0.538154 32.1602 0.644425 32.1962 0.751328 32.2316C0.965134 32.3023 1.17957 32.3712 1.39464 32.4387L2.68507 32.8449L3.97676 33.2498C4.83894 33.5164 5.69796 33.7931 6.55888 34.0622L9.13847 34.884L11.7143 35.7159L14.2875 36.5573L16.8595 37.4025C17.2878 37.5447 17.7173 37.6824 18.1468 37.8188L18.47 37.918C18.5206 37.9332 18.5719 37.9395 18.6187 37.9268C18.6655 37.9148 18.706 37.8826 18.7357 37.8397C18.7952 37.7519 18.8173 37.6388 18.8299 37.5289C18.8413 37.4177 18.8413 37.3046 18.8312 37.1922C18.8489 37.3034 18.8578 37.4164 18.8552 37.5301C18.8508 37.6432 18.8382 37.7607 18.7787 37.8668C18.749 37.9186 18.6996 37.9666 18.637 37.9862C18.575 38.0071 18.5099 38.0014 18.4517 37.9881L18.1208 37.9117C17.6806 37.8075 17.2447 37.6893 16.8076 37.5737C15.936 37.3368 15.0668 37.0911 14.2002 36.8359C13.333 36.5845 12.4702 36.3186 11.6061 36.0558C10.7433 35.7898 9.88299 35.5163 9.02208 35.2441C8.16306 34.9655 7.30467 34.6869 6.44755 34.4033C5.59232 34.1146 4.7352 33.8304 3.88314 33.5303C3.02982 33.2347 2.17965 32.9302 1.33265 32.6144C1.12138 32.5341 0.910101 32.4533 0.70009 32.3693C0.595085 32.3269 0.490079 32.2852 0.385074 32.2391C0.358507 32.2278 0.332572 32.2158 0.306004 32.2025C0.29272 32.1962 0.278804 32.1892 0.264887 32.181C0.256032 32.1753 0.251604 32.1741 0.237687 32.1627C0.230729 32.157 0.228199 32.1539 0.225669 32.1507L0.217445 32.1406C0.173166 32.0869 0.149761 32.0307 0.129519 31.9745C0.0903003 31.862 0.0687932 31.7489 0.0517141 31.6365C0.0346349 31.5234 0.0238813 31.4104 0.015658 31.2973C0.0011091 31.0711 -0.00268627 30.845 0.00174166 30.6195V30.6214Z" fill="#0E0E0E"/>
<path d="M6.40706 28.9739C6.4855 29.0914 6.5127 29.2405 6.49119 29.3927C6.47032 29.545 6.402 29.7048 6.28118 29.8368C6.161 29.9663 5.98261 30.0724 5.77007 30.0832C5.66444 30.0889 5.55184 30.0699 5.44494 30.02C5.33867 29.9707 5.24062 29.888 5.17294 29.7857C5.10525 29.684 5.0673 29.5614 5.0635 29.4439C5.05907 29.3264 5.08627 29.2152 5.13245 29.1199C5.22607 28.9285 5.39433 28.8059 5.56133 28.7472C5.73085 28.6884 5.90607 28.6891 6.05409 28.7301C6.20275 28.7712 6.32926 28.8552 6.40643 28.9733L6.40706 28.9739ZM6.40706 28.9739C6.32926 28.8533 6.17871 28.7971 6.04714 28.8167C5.91367 28.8337 5.80297 28.9177 5.73718 29.0125C5.67013 29.1091 5.64925 29.2159 5.65368 29.2923C5.65558 29.3308 5.6638 29.3618 5.67329 29.3845C5.68278 29.4073 5.69164 29.4224 5.70176 29.4382C5.71251 29.4534 5.722 29.4679 5.73908 29.4862C5.75616 29.5039 5.78209 29.5241 5.81688 29.5412C5.88583 29.5759 5.99274 29.5993 6.10849 29.5747C6.22236 29.5513 6.34254 29.4825 6.41086 29.3662C6.48044 29.2531 6.4874 29.0927 6.4077 28.9739H6.40706Z" fill="#0E0E0E"/>
<path d="M10.6674 29.9827C10.816 30.0112 10.959 30.0623 11.0887 30.1577C11.1532 30.2057 11.2114 30.2676 11.2531 30.3441C11.2942 30.4199 11.3183 30.5108 11.3132 30.6024C11.3056 30.7875 11.1956 30.9638 11.0456 31.0693C10.8945 31.1754 10.7072 31.2221 10.5238 31.2114C10.341 31.1987 10.1512 31.1375 9.99749 31.0042C9.92221 30.9366 9.85642 30.8507 9.81784 30.749C9.77862 30.6479 9.7666 30.5329 9.78558 30.4249C9.80455 30.3169 9.85769 30.2165 9.9298 30.1432C10.0019 30.0687 10.0911 30.0219 10.1784 29.9954C10.2663 29.9682 10.353 29.9613 10.434 29.9613C10.5156 29.9613 10.5921 29.9695 10.6674 29.9827ZM10.6623 30.0263C10.5908 30.0232 10.5193 30.0371 10.4567 30.0674C10.3941 30.0971 10.3416 30.1445 10.3049 30.195C10.2676 30.2462 10.2467 30.3011 10.236 30.3485C10.2252 30.3965 10.2239 30.4369 10.2265 30.4748C10.2322 30.5494 10.2562 30.6182 10.31 30.6947C10.3631 30.7705 10.4567 30.8362 10.5655 30.8583C10.6737 30.8804 10.7914 30.8684 10.89 30.8185C10.99 30.7711 11.069 30.6852 11.0937 30.5753C11.1197 30.4685 11.1026 30.3352 11.0229 30.2215C10.9451 30.1072 10.8053 30.032 10.6623 30.0251V30.0263Z" fill="#0E0E0E"/>
<path d="M13.8416 33.4027C13.8985 33.385 13.9611 33.3869 14.0282 33.4078C14.094 33.4292 14.1654 33.4722 14.2186 33.5417C14.2711 33.6099 14.3078 33.7091 14.2875 33.8171C14.2774 33.8708 14.254 33.9264 14.2135 33.9737C14.1737 34.0218 14.1161 34.0609 14.0528 34.0805C13.9896 34.1001 13.92 34.1007 13.8599 34.0843C13.7992 34.0679 13.7479 34.0363 13.7094 33.9971C13.6309 33.9194 13.6044 33.8171 13.6094 33.7305C13.6138 33.6427 13.6493 33.5669 13.691 33.512C13.7347 33.457 13.7853 33.4198 13.8422 33.4027H13.8416ZM13.8416 33.4027C13.7834 33.4204 13.7454 33.4785 13.7473 33.5341C13.7467 33.5903 13.7815 33.6396 13.8213 33.6649C13.8612 33.6914 13.9061 33.692 13.9257 33.6819C13.9491 33.6712 13.9358 33.6528 13.9213 33.6585C13.9061 33.663 13.9067 33.6851 13.932 33.6806C13.9542 33.6775 13.9908 33.6516 14.0086 33.6067C14.0263 33.5631 14.0269 33.5031 13.9946 33.457C13.9643 33.4103 13.8998 33.3838 13.8422 33.4027H13.8416Z" fill="#0E0E0E"/>
<path d="M10.6528 25.8528C10.7623 25.9911 10.8318 26.1585 10.8616 26.3329C10.8919 26.5072 10.8824 26.6885 10.8432 26.8635C10.7629 27.2141 10.5655 27.5413 10.291 27.7952C10.0152 28.0454 9.65717 28.2311 9.25675 28.2639C9.05813 28.2804 8.85002 28.2576 8.65329 28.1831C8.45656 28.1098 8.27439 27.9803 8.14092 27.8104C8.00871 27.6398 7.92648 27.432 7.90244 27.2242C7.87714 27.0157 7.9056 26.8085 7.96949 26.6196C8.0979 26.24 8.36611 25.9374 8.67606 25.7309C8.98981 25.5268 9.35544 25.415 9.716 25.4226C9.89564 25.427 10.074 25.4618 10.2366 25.5338C10.3985 25.6052 10.544 25.7132 10.6522 25.8528H10.6528ZM10.6528 25.8528C10.5434 25.7144 10.3954 25.6089 10.2315 25.5489C10.0677 25.4877 9.89058 25.4687 9.71916 25.4845C9.37378 25.5155 9.05687 25.6822 8.8146 25.9071C8.57359 26.1358 8.40469 26.4263 8.33954 26.7251C8.27375 27.0233 8.32183 27.3246 8.49072 27.5394C8.65835 27.7554 8.93921 27.8754 9.24537 27.8843C9.55153 27.8938 9.8754 27.8009 10.1556 27.6221C10.4327 27.4415 10.6718 27.1749 10.785 26.8471C10.842 26.6847 10.866 26.5085 10.8464 26.3348C10.8274 26.161 10.7604 25.9924 10.6528 25.8528Z" fill="#0E0E0E"/>
<path d="M2.89192 29.3991C2.60157 29.6334 2.30553 29.8589 2.00886 30.0844L1.78557 30.2518L1.6736 30.3352L1.64577 30.3561L1.63185 30.3668L1.62553 30.3725C1.61857 30.3794 1.61477 30.3877 1.61288 30.3959C1.60845 30.4129 1.61477 30.4338 1.62616 30.4445C1.63185 30.4502 1.63818 30.454 1.64704 30.4565L1.71092 30.4767L1.97787 30.5595C2.334 30.6681 2.6876 30.785 3.04183 30.8974L4.10138 31.2486L5.15649 31.6131C5.50693 31.7395 5.85863 31.8608 6.20717 31.9909C6.90616 32.2473 7.60197 32.512 8.2902 32.8007C7.56845 32.6118 6.85492 32.399 6.14392 32.1779C5.78779 32.0698 5.43482 31.9523 5.07995 31.8399L4.02041 31.4881L2.96529 31.1236C2.61486 30.9979 2.26315 30.876 1.91461 30.7458L1.58441 30.6239C1.54899 30.6106 1.51609 30.5873 1.49206 30.557C1.44335 30.4963 1.4307 30.4142 1.45663 30.3434C1.46929 30.3081 1.49206 30.2765 1.52052 30.2531L1.54203 30.2373L1.58568 30.2089L1.70333 30.1337L1.93865 29.984C2.25429 29.7869 2.56994 29.5886 2.89192 29.4003V29.3991Z" fill="#0E0E0E"/>
<path d="M0.276906 31.2474C0.316758 31.3137 0.348386 31.3826 0.380646 31.4514L0.424926 31.5557C0.440107 31.5904 0.452758 31.627 0.466675 31.6529C0.524238 31.7673 0.624183 31.8488 0.741839 31.8848C0.884798 31.9296 1.02523 31.9808 1.16376 32.0389C1.30166 32.0983 1.43892 32.1621 1.56923 32.2448C1.41425 32.2379 1.2656 32.2113 1.11885 32.181C0.972092 32.1494 0.827235 32.1103 0.684909 32.0654C0.515382 32.0155 0.373056 31.8728 0.327511 31.7054C0.315492 31.6618 0.311064 31.6251 0.305371 31.5879L0.290823 31.4754C0.283864 31.3996 0.275641 31.3245 0.276274 31.2468L0.276906 31.2474Z" fill="#0E0E0E"/>
<path d="M7.45142 27.0846C7.47546 27.3777 7.53935 27.6626 7.65764 27.9152C7.77783 28.1666 7.96633 28.3757 8.2105 28.4926C8.33005 28.5558 8.46416 28.5905 8.60079 28.6139C8.73679 28.6423 8.87912 28.641 9.02081 28.6442C9.3061 28.6379 9.59391 28.5937 9.88552 28.5463C9.61732 28.6695 9.33013 28.7566 9.03093 28.792C8.73299 28.8236 8.41355 28.8015 8.127 28.6625C7.98657 28.5911 7.85753 28.4932 7.75442 28.3738C7.65321 28.2532 7.57351 28.1167 7.52164 27.9721C7.41916 27.6828 7.39702 27.3745 7.45206 27.0846H7.45142Z" fill="#0E0E0E"/>
<path d="M11.9413 29.5753C12.0248 29.8551 12.1621 30.1148 12.3335 30.3441C12.5037 30.5753 12.7124 30.7736 12.9421 30.9404C13.0629 31.0156 13.1799 31.0958 13.3096 31.1545C13.4336 31.2246 13.5702 31.2676 13.7018 31.3194C13.7347 31.3333 13.7688 31.3421 13.8036 31.351L13.9067 31.3794C13.9757 31.3971 14.0434 31.4198 14.1129 31.4337L14.3242 31.4697C14.3957 31.4817 14.4608 31.4937 14.5418 31.5064C14.8505 31.5639 15.1364 31.7281 15.3407 31.9631C15.3907 32.0225 15.4382 32.0844 15.478 32.1513C15.4995 32.1835 15.5166 32.2183 15.5356 32.2524L15.5849 32.3503C15.6507 32.4804 15.7158 32.6112 15.7797 32.7426C16.0378 33.2663 16.2896 33.7931 16.5249 34.3288C16.2194 33.8297 15.9309 33.3218 15.6482 32.8108C15.5773 32.6832 15.5065 32.5556 15.4375 32.4267L15.3856 32.3307C15.3679 32.301 15.3521 32.2714 15.3325 32.2429C15.2958 32.1854 15.2522 32.1324 15.2066 32.0818C15.0238 31.8791 14.7746 31.7395 14.5083 31.6921C14.4444 31.682 14.366 31.6668 14.2938 31.6542L14.0737 31.6138C14.0003 31.5986 13.9295 31.574 13.8574 31.5544L13.7492 31.5234C13.7132 31.5133 13.6771 31.5026 13.6429 31.4874C13.5044 31.4287 13.3627 31.3788 13.2337 31.3011L13.135 31.2474L13.0857 31.2202L13.0395 31.188L12.8554 31.0585C12.6195 30.8722 12.4158 30.6479 12.2576 30.3959C12.1014 30.1438 11.985 29.8653 11.942 29.5753H11.9413Z" fill="#0E0E0E"/>
<path d="M10.0905 28.4307C10.1752 28.3719 10.2594 28.3201 10.346 28.2696C10.3897 28.2456 10.4333 28.2203 10.4789 28.1982C10.5238 28.1755 10.57 28.154 10.6193 28.137C10.5491 28.214 10.4656 28.2728 10.3777 28.3239C10.3334 28.3486 10.2878 28.3719 10.2398 28.3903C10.1923 28.4086 10.1423 28.425 10.0905 28.4301V28.4307Z" fill="#0E0E0E"/>
<path d="M12.999 31.3946C13.19 31.5007 13.3766 31.5891 13.5715 31.6643C13.6689 31.7003 13.7663 31.7376 13.8669 31.7679C13.9668 31.8007 14.0693 31.8273 14.1743 31.8639C14.0655 31.8797 13.9542 31.8797 13.8454 31.8639C13.7359 31.8506 13.629 31.821 13.5253 31.7818C13.4222 31.742 13.3241 31.6889 13.2337 31.6251C13.1438 31.5613 13.0597 31.4868 12.999 31.3939V31.3946Z" fill="#0E0E0E"/>
<path d="M47.7266 12.7029C47.7741 13.0156 47.8759 13.3151 48.0221 13.5873C48.0967 13.7225 48.1808 13.8526 48.2795 13.9701C48.3769 14.0889 48.4851 14.1988 48.6065 14.2929C48.845 14.4862 49.1233 14.6283 49.4181 14.7256C49.7129 14.8242 50.0228 14.881 50.3379 14.917C50.0216 14.9334 49.6996 14.9037 49.3896 14.8197C49.2334 14.7812 49.0835 14.7199 48.9367 14.6511C48.7906 14.5803 48.6546 14.4906 48.5268 14.3908C48.2725 14.188 48.0701 13.9227 47.9341 13.6309C47.8658 13.485 47.8139 13.3321 47.7779 13.1761C47.7437 13.0201 47.7216 12.8609 47.7266 12.7023V12.7029Z" fill="#0E0E0E"/>
<path d="M47.7368 12.3757C47.69 12.2702 47.6684 12.1559 47.6609 12.0416C47.6533 11.9266 47.6609 11.8104 47.6843 11.6973C47.6944 11.6404 47.7121 11.5849 47.7292 11.5299C47.7519 11.4762 47.769 11.4213 47.7988 11.3707C47.8494 11.2671 47.9215 11.1743 48.0037 11.0953C47.9651 11.204 47.9208 11.3038 47.8898 11.4086C47.8557 11.5116 47.8298 11.6164 47.8082 11.7219C47.764 11.9336 47.7463 12.149 47.7368 12.3764V12.3757Z" fill="#0E0E0E"/>
</svg>
