<svg width="63" height="49" viewBox="0 0 63 49" fill="none" xmlns="http://www.w3.org/2000/svg">
<path d="M38.1816 25.2017C37.9401 25.7013 37.7157 26.2085 37.4989 26.7184C37.2807 27.2277 37.0707 27.7404 36.8709 28.2571C36.4707 29.29 36.0986 30.3331 35.7744 31.39C35.4446 32.4454 35.1587 33.5132 34.9295 34.5919C34.7052 35.6707 34.5253 36.7597 34.448 37.8541C34.4076 38.401 34.3884 38.9493 34.4042 39.4948C34.4185 40.0403 34.4582 40.5845 34.5383 41.1218C34.699 42.1937 35.0253 43.2416 35.5726 44.1595C35.8469 44.6167 36.1704 45.0445 36.5501 45.4175C36.9284 45.792 37.3545 46.1164 37.8122 46.3909C37.9285 46.4559 38.0413 46.5278 38.1611 46.588L38.5216 46.7646C38.6426 46.8221 38.7692 46.8686 38.8923 46.9206C38.9546 46.946 39.0161 46.9727 39.0791 46.9966L39.2699 47.0616C39.7761 47.2451 40.3056 47.3655 40.8364 47.4675C41.1046 47.5086 41.3707 47.5627 41.6416 47.5873L42.0465 47.6339L42.4542 47.6633C42.7265 47.6879 42.9981 47.6893 43.2703 47.6975C43.4064 47.7044 43.5419 47.6955 43.6773 47.6948L43.8812 47.6907C43.9489 47.6907 44.0166 47.6879 44.0844 47.6825L44.4893 47.6551C44.557 47.6517 44.6241 47.6434 44.6911 47.6352L44.8922 47.6106L45.0933 47.5866C45.1604 47.5784 45.2261 47.564 45.2924 47.5531C45.4244 47.5285 45.5585 47.5086 45.6898 47.4799C46.2166 47.3683 46.7276 47.2013 47.216 46.9864C47.703 46.7694 48.1627 46.4942 48.5766 46.1602C48.9905 45.8269 49.3578 45.4353 49.6704 45.0021C49.9837 44.5688 50.2416 44.0945 50.4523 43.5982C50.6644 43.102 50.8278 42.5831 50.9523 42.054C51.2 40.9931 51.2923 39.8945 51.3026 38.7966C51.3128 37.6974 51.2301 36.5954 51.0885 35.5002C50.951 34.4044 50.7492 33.3154 50.5084 32.2353C50.388 31.6952 50.2539 31.1573 50.1103 30.6227C49.9666 30.0874 49.8148 29.5542 49.641 29.0272C50.0378 30.0635 50.3682 31.1258 50.6562 32.199C50.9421 33.273 51.1767 34.3619 51.3553 35.4619C51.5297 36.5625 51.6419 37.6755 51.6624 38.7946C51.6816 39.913 51.6036 41.0403 51.3703 42.1471C51.2513 42.6995 51.0912 43.2457 50.8778 43.7741C50.6637 44.3019 50.3935 44.8104 50.0624 45.2806C49.732 45.7502 49.3386 46.1794 48.894 46.5469C48.4494 46.9145 47.9541 47.2198 47.4315 47.4593C46.9089 47.6996 46.3602 47.8762 45.8027 47.9973C45.6639 48.0288 45.5229 48.05 45.3827 48.0767C45.3122 48.0884 45.2425 48.1041 45.172 48.113L44.7493 48.1664C44.6788 48.1753 44.6083 48.1842 44.5379 48.1883L44.1138 48.2191C44.0433 48.2252 43.9722 48.228 43.9017 48.2287L43.6897 48.2335C43.548 48.2348 43.4064 48.2444 43.2655 48.2376C42.9837 48.23 42.7012 48.2294 42.42 48.2054L41.9986 48.1767L41.5779 48.1301C41.2968 48.1048 41.0184 48.0514 40.7386 48.0083C40.1831 47.8994 39.6277 47.7708 39.0914 47.5743L38.8889 47.5045C38.8219 47.4792 38.7569 47.4504 38.6905 47.423C38.5592 47.3669 38.4251 47.317 38.2958 47.2547L37.9107 47.0637C37.7835 46.9987 37.6617 46.9213 37.5365 46.8501C37.0453 46.5531 36.585 46.1999 36.1766 45.7919C35.7661 45.3861 35.4152 44.9206 35.1272 44.4237C34.5485 43.4271 34.2195 42.3114 34.0642 41.1916C33.9117 40.0684 33.9164 38.9356 34.0238 37.8199C34.2332 35.5844 34.8023 33.4119 35.5206 31.3078C35.8845 30.2565 36.2881 29.2195 36.732 28.201C37.176 27.1825 37.6528 26.1784 38.1823 25.2037L38.1816 25.2017Z" fill="#0E0E0E"/>
<path d="M49.682 45.4538C49.9735 45.4148 50.2628 45.3607 50.5494 45.2984C50.8361 45.2368 51.1206 45.1657 51.4018 45.0849C51.9634 44.922 52.5168 44.7324 53.0476 44.4949C54.1107 44.0301 55.1039 43.399 55.892 42.5722C56.2846 42.1588 56.6253 41.6988 56.8941 41.2012C57.1643 40.7036 57.3654 40.1704 57.4954 39.6187C57.6254 39.067 57.6924 38.4996 57.6979 37.928C57.7041 37.3572 57.6541 36.7843 57.5659 36.2162C57.3983 35.0772 57.0569 33.9622 56.6479 32.876C56.2408 31.7863 55.7326 30.7336 55.1956 29.6952L54.9897 29.3078L54.8864 29.1141L54.779 28.9225C54.634 28.6678 54.4937 28.4111 54.3467 28.1579L53.902 27.3995L53.4417 26.65C52.8233 25.652 52.17 24.6746 51.5146 23.6958C53.0127 25.5117 54.4 27.431 55.5705 29.4906L55.682 29.6829L55.788 29.878L56.0007 30.2681L56.1054 30.4639L56.2046 30.6631L56.4036 31.0607C56.4714 31.1928 56.5323 31.3284 56.5945 31.4625L56.7819 31.8664C56.8428 32.0019 56.8989 32.1395 56.9584 32.2757C57.0152 32.4133 57.0774 32.5481 57.1308 32.687L57.2909 33.1039C57.3456 33.2422 57.3935 33.3838 57.4407 33.5248L57.5837 33.9492L57.7116 34.3791C57.8751 34.954 58.018 35.5372 58.1063 36.1327C58.1945 36.7275 58.2431 37.3305 58.2315 37.9369C58.2192 38.542 58.1507 39.1512 57.9968 39.7419C57.6931 40.9219 57.0733 42.0321 56.195 42.8713C55.7634 43.297 55.2777 43.6619 54.764 43.9713C54.5054 44.1232 54.2427 44.2676 53.9718 44.3936C53.7023 44.5223 53.428 44.64 53.1482 44.7426C52.8691 44.8467 52.5866 44.9384 52.3006 45.0192C52.0154 45.0999 51.7281 45.1732 51.438 45.232C50.8586 45.3498 50.2717 45.4347 49.6827 45.4545L49.682 45.4538Z" fill="#0E0E0E"/>
<path d="M57.3675 40.9692C57.7287 40.7556 58.0707 40.5119 58.4018 40.2559C58.7336 40.0013 59.0523 39.7303 59.3554 39.4435C59.9628 38.8726 60.5142 38.2429 60.9718 37.553C61.4336 36.8671 61.8009 36.1197 62.0376 35.3353C62.2763 34.5515 62.3844 33.7316 62.3523 32.9163C62.3194 32.1011 62.1621 31.2921 61.9021 30.5152C61.6443 29.737 61.2851 28.993 60.8706 28.2811C60.0415 26.854 58.9703 25.5713 57.8156 24.3782C56.6581 23.1838 55.3933 22.0921 54.0888 21.0517C53.4348 20.5329 52.7665 20.0312 52.0893 19.5411C51.4134 19.0489 50.7273 18.5705 50.0323 18.1044C49.3373 17.6403 48.6286 17.1933 47.9267 16.7252C47.2283 16.2556 46.5326 15.758 45.9368 15.1454C45.6392 14.8394 45.3683 14.5075 45.1351 14.1509C44.9004 13.7949 44.7062 13.4144 44.5481 13.0215C44.2301 12.2343 44.0652 11.4007 43.964 10.5683C44.1117 11.3938 44.3251 12.2111 44.6699 12.9695C44.8423 13.348 45.0509 13.7087 45.2904 14.0448C45.5305 14.3815 45.8041 14.6923 46.103 14.977C46.7036 15.5451 47.3952 16.0119 48.1012 16.4562C48.8092 16.8997 49.5357 17.322 50.245 17.7772C50.9558 18.2276 51.659 18.6903 52.3533 19.168C53.0456 19.6485 53.7262 20.1455 54.3959 20.6581C54.7311 20.9148 55.0615 21.1763 55.3899 21.4419C55.7168 21.7095 56.0397 21.9812 56.3571 22.2605C56.9933 22.8163 57.611 23.3953 58.2041 24.0004C58.7979 24.6041 59.3615 25.2407 59.8869 25.9087C60.4123 26.5774 60.8993 27.2783 61.3248 28.0196C61.7475 28.7623 62.1067 29.5453 62.3653 30.366C62.6252 31.1846 62.7812 32.043 62.7894 32.9068C62.7996 33.7699 62.6642 34.6344 62.3892 35.4496C62.1108 36.2634 61.6997 37.0252 61.1989 37.7131C60.6948 38.4003 60.1051 39.017 59.46 39.5619C58.8136 40.1047 58.1165 40.5879 57.3675 40.9698V40.9692Z" fill="#0E0E0E"/>
<path d="M30.9209 27.8246C30.4804 28.2195 30.0638 28.6432 29.6616 29.0771C29.2587 29.5111 28.8715 29.9601 28.5035 30.4228C27.7667 31.3482 27.1004 32.3304 26.5463 33.3708C25.9909 34.4085 25.5483 35.5105 25.3055 36.6549C25.0612 37.7973 25.0311 38.9842 25.2795 40.117C25.4046 40.6824 25.5887 41.2341 25.8445 41.7508C26.099 42.2676 26.4171 42.7522 26.7871 43.1916C27.1538 43.6338 27.5752 44.0294 28.0335 44.373C28.4911 44.718 28.9878 45.0137 29.5118 45.2478C29.6445 45.3025 29.7751 45.3635 29.9092 45.4148L30.3162 45.5579L30.7321 45.6756C30.8724 45.7098 31.014 45.744 31.1556 45.7721C31.7233 45.8939 32.3041 45.9507 32.8876 45.9747C34.0553 46.0076 35.2326 45.8542 36.3839 45.5702L36.3982 45.616C35.2832 46.0329 34.0936 46.2779 32.8869 46.3121C32.2843 46.3265 31.6775 46.2868 31.0789 46.1883C30.9285 46.1664 30.7807 46.1342 30.6316 46.1027L30.1869 45.9918L29.7498 45.8529C29.6055 45.8029 29.4646 45.7433 29.3216 45.6886C28.7579 45.4497 28.2223 45.1424 27.7332 44.7721C27.2455 44.4011 26.8042 43.9692 26.4198 43.4928C26.0381 43.0137 25.7159 42.4887 25.4601 41.9336L25.2808 41.5119L25.1297 41.08C25.04 40.7891 24.9586 40.4948 24.9039 40.1957C24.8875 40.1211 24.8745 40.0465 24.8636 39.9712C24.8519 39.8959 24.8382 39.8213 24.8287 39.746C24.8109 39.5947 24.7904 39.4442 24.7815 39.2929C24.7671 39.1416 24.7644 38.9897 24.7575 38.8384C24.7575 38.6864 24.7534 38.5352 24.7609 38.3839C24.7691 38.0807 24.7972 37.7788 24.8376 37.4797C24.8765 37.1799 24.9347 36.8835 25.0017 36.5899C25.276 35.4147 25.7521 34.3003 26.3363 33.2579C26.926 32.2168 27.6244 31.2442 28.3892 30.3318C29.1567 29.4207 29.9851 28.5631 30.8901 27.7903L30.9209 27.8266V27.8246Z" fill="#0E0E0E"/>
<path d="M25.4703 41.7056C25.0927 41.4373 24.7425 41.1307 24.4093 40.8076C24.0762 40.4839 23.7643 40.1375 23.477 39.7713C22.9003 39.0403 22.4167 38.2299 22.0739 37.3565C21.7305 36.4845 21.5315 35.5509 21.5 34.6084C21.472 33.6652 21.6081 32.7199 21.8756 31.8164C22.009 31.3646 22.1738 30.9218 22.364 30.4913C22.5569 30.0614 22.7751 29.6446 23.0118 29.2387C23.2464 28.8314 23.5071 28.4406 23.7779 28.058L23.9838 27.7732L24.1973 27.494L24.3047 27.3543L24.4237 27.2133C24.4627 27.1647 24.5058 27.1243 24.5461 27.0792C24.5872 27.0354 24.6282 26.9902 24.6713 26.9498C25.0113 26.6137 25.3698 26.3105 25.7357 26.0189C26.1017 25.728 26.4732 25.4474 26.8466 25.1709C27.5936 24.6178 28.3489 24.0812 29.0993 23.5391C30.5974 22.4535 32.0968 21.372 33.4903 20.1742C33.8385 19.8751 34.1771 19.5671 34.5068 19.2502C34.8379 18.934 35.1478 18.6068 35.4412 18.2597C36.0275 17.5698 36.5371 16.8141 36.9407 16.0058C37.3429 15.1988 37.6446 14.337 37.7896 13.4548C37.8252 13.2344 37.8505 13.0133 37.8614 12.7929C37.8724 12.5732 37.8703 12.3534 37.8443 12.1454C37.8313 12.042 37.8122 11.9407 37.7841 11.8551C37.7705 11.8127 37.754 11.7744 37.739 11.7497C37.7321 11.7381 37.7253 11.7299 37.7239 11.7285C37.7226 11.7265 37.7287 11.7347 37.7499 11.7422C37.7705 11.7497 37.8047 11.7504 37.8211 11.7443C37.8382 11.7388 37.8395 11.7354 37.8354 11.7388C37.8265 11.7449 37.8006 11.773 37.7787 11.8072C37.7328 11.8777 37.6897 11.9722 37.6528 12.0694C37.6159 12.1679 37.5837 12.2713 37.555 12.3774C37.5269 12.4787 37.4989 12.604 37.4613 12.7203C37.3901 12.9558 37.295 13.1864 37.1781 13.4068C36.9441 13.8476 36.5987 14.2385 36.18 14.5177C35.762 14.7984 35.2839 14.9688 34.8023 15.0516C34.5608 15.0934 34.3173 15.1146 34.0745 15.1173C33.9527 15.118 33.8316 15.1153 33.7099 15.1071C33.649 15.103 33.5881 15.0975 33.5272 15.0913C33.465 15.0845 33.4082 15.0776 33.3384 15.0653L32.2316 14.8716L33.3288 14.6252C33.3576 14.6184 33.4 14.6074 33.4369 14.5965C33.4745 14.5855 33.5128 14.5732 33.5505 14.5609C33.6264 14.5355 33.7016 14.5068 33.7762 14.4767C33.9253 14.4151 34.071 14.3446 34.2113 14.2652C34.4917 14.1057 34.7517 13.9113 34.974 13.682C35.1963 13.4527 35.381 13.1885 35.5165 12.8996C35.6512 12.6108 35.7388 12.298 35.7785 11.977C35.7983 11.8161 35.8079 11.6539 35.8079 11.4903C35.8079 11.4082 35.8051 11.3281 35.801 11.2439C35.7962 11.1488 35.7997 11.0536 35.8086 10.9605C35.8482 10.5861 35.9885 10.2377 36.1848 9.93178C36.3825 9.6265 36.6404 9.36024 36.9475 9.16243C37.2533 8.96462 37.6145 8.8373 37.9853 8.82772C38.1699 8.82156 38.3553 8.8462 38.5325 8.89412C38.709 8.94477 38.8773 9.01869 39.0326 9.11041C39.3431 9.2959 39.6031 9.54505 39.8247 9.8161C40.0457 10.0892 40.231 10.3856 40.3904 10.6929C40.5478 11.0002 40.6948 11.3089 40.8296 11.6252C41.0977 12.2569 41.3214 12.9092 41.4719 13.5786C41.5472 13.9133 41.6019 14.2522 41.632 14.5937C41.66 14.9346 41.671 15.2796 41.619 15.6177C41.6566 15.2782 41.6299 14.9359 41.5875 14.5985C41.5431 14.2611 41.4726 13.9277 41.3857 13.5999C41.2127 12.9428 40.9685 12.3062 40.6811 11.6922C40.3863 11.0817 40.0874 10.465 39.6516 9.96189C39.4348 9.71206 39.1865 9.48961 38.9053 9.33355C38.6242 9.17886 38.3095 9.09398 37.9969 9.11246C37.6843 9.12821 37.3799 9.24183 37.1185 9.42047C36.8559 9.59844 36.6335 9.83869 36.4673 10.1097C36.3011 10.3808 36.1896 10.6867 36.165 10.9934C36.1595 11.0701 36.1581 11.146 36.1643 11.2213C36.1704 11.3076 36.1759 11.3979 36.178 11.4862C36.1821 11.6642 36.1752 11.8428 36.1561 12.0215C36.1178 12.3781 36.0261 12.7333 35.8777 13.0653C35.7292 13.3973 35.5226 13.7039 35.2743 13.9681C35.026 14.233 34.7373 14.4561 34.4281 14.6396C34.2728 14.7306 34.1128 14.8121 33.9479 14.8832C33.8651 14.9188 33.7817 14.9517 33.6962 14.9818C33.6538 14.9969 33.6107 15.0112 33.5669 15.0249C33.5217 15.0386 33.4821 15.0509 33.428 15.0639L33.4184 14.6238C33.4622 14.6307 33.5211 14.6375 33.5737 14.6423C33.6278 14.6471 33.6825 14.6512 33.7372 14.6539C33.8467 14.6594 33.9568 14.6601 34.0669 14.6574C34.2865 14.6512 34.5061 14.6307 34.7202 14.591C35.1491 14.5123 35.5602 14.3589 35.9098 14.1187C36.2594 13.8791 36.5432 13.5533 36.7396 13.1741C36.8374 12.9845 36.9181 12.784 36.979 12.5752C37.0118 12.4705 37.033 12.3699 37.0652 12.2467C37.096 12.1289 37.1309 12.0105 37.1746 11.8914C37.2191 11.7723 37.2684 11.6525 37.347 11.5273C37.3881 11.465 37.4339 11.4 37.5153 11.3329C37.5563 11.3007 37.609 11.2665 37.6815 11.2453C37.7527 11.2234 37.8478 11.2241 37.923 11.2521C37.9989 11.2795 38.053 11.3219 38.092 11.361C38.1316 11.4007 38.159 11.4397 38.1823 11.4773C38.2274 11.5519 38.2555 11.6211 38.278 11.6888C38.3232 11.823 38.3464 11.951 38.3635 12.0769C38.3957 12.3288 38.3977 12.5738 38.3868 12.8168C38.3752 13.0598 38.3485 13.2994 38.3109 13.5362C38.1583 14.4842 37.8423 15.3925 37.4223 16.244C37.0009 17.0955 36.4701 17.8894 35.8578 18.6116C35.5514 18.9716 35.2223 19.3159 34.8823 19.6383C34.543 19.9627 34.1955 20.2769 33.8398 20.5794C33.1291 21.1859 32.3951 21.7608 31.6508 22.318C30.9079 22.8772 30.1514 23.4159 29.3941 23.9498C28.6368 24.4843 27.8769 25.0134 27.1299 25.5548C26.7564 25.8259 26.3856 26.099 26.0237 26.3817C25.6632 26.6644 25.3068 26.9525 24.9833 27.2633C24.9415 27.3016 24.9039 27.3413 24.8649 27.381C24.8273 27.4214 24.7856 27.4597 24.7514 27.5015L24.644 27.624L24.5373 27.7582L24.3238 28.0272L24.1186 28.3016C23.8484 28.6706 23.5878 29.047 23.3538 29.4385C22.8805 30.2188 22.4823 31.0457 22.2053 31.9136C21.9269 32.7801 21.775 33.6877 21.7812 34.5988C21.7866 35.054 21.8277 35.5091 21.9084 35.9581C21.9871 36.4078 22.1109 36.8493 22.2634 37.2805C22.5754 38.1416 23.0207 38.9561 23.5652 39.6995C23.8375 40.0711 24.1343 40.4257 24.4504 40.7624C24.7678 41.0978 25.1037 41.4182 25.4696 41.7022L25.4703 41.7056Z" fill="#0E0E0E"/>
<path d="M40.3952 11.0173C40.4787 10.4944 40.5518 9.97011 40.6141 9.44512C40.675 8.91944 40.7242 8.39308 40.7625 7.86672C40.7803 7.6032 40.7954 7.33968 40.805 7.07684C40.8152 6.81332 40.8221 6.55048 40.82 6.28696C40.8173 5.76129 40.7899 5.23561 40.7167 4.72021L40.6688 4.38139L40.9178 4.61343C40.9814 4.67229 41.0266 4.72568 41.0758 4.78455C41.1237 4.84204 41.1682 4.90159 41.2113 4.96182C41.2975 5.08229 41.3748 5.20823 41.4452 5.33691C41.5882 5.59428 41.7024 5.86464 41.7975 6.14117C41.9843 6.69491 42.093 7.27055 42.1416 7.84893C42.1662 8.13777 42.1772 8.42799 42.1731 8.71684C42.1744 8.86126 42.1656 9.00568 42.1614 9.15011C42.1512 9.29385 42.1457 9.43896 42.132 9.58201L42.093 10.0078L42.0794 10.2172L42.0725 10.4273C42.0671 10.7073 42.078 10.9879 42.106 11.2672C42.2189 12.3863 42.5958 13.4719 43.1308 14.4691C43.6712 15.465 44.3477 16.3946 45.1549 17.2029C44.7205 16.8306 44.3313 16.4082 43.9674 15.9654C43.7854 15.7436 43.6124 15.5143 43.4468 15.2796C43.2833 15.0434 43.128 14.8011 42.9837 14.552C42.4057 13.5581 41.9898 12.452 41.8577 11.2946C41.8242 11.0057 41.8078 10.7148 41.8098 10.4239L41.8153 10.2056L41.8283 9.9879L41.8653 9.56011C41.8783 9.4191 41.883 9.2781 41.8919 9.1371C41.8947 8.9961 41.9029 8.8551 41.9008 8.7141C41.9042 8.4321 41.8899 8.15078 41.8687 7.87083C41.8249 7.31025 41.7216 6.75514 41.5465 6.22536C41.4562 5.96184 41.3502 5.70311 41.2202 5.45875C41.1552 5.33623 41.0841 5.21782 41.0061 5.10419C40.9671 5.04738 40.9267 4.99262 40.8843 4.93924C40.8426 4.8879 40.7947 4.83246 40.7543 4.79344L40.9555 4.68667C41.0245 5.22055 41.0396 5.7565 41.0273 6.28901C41.0163 6.82222 40.9773 7.35268 40.9206 7.8811C40.8658 8.40951 40.7899 8.93518 40.7017 9.45812C40.6134 9.98106 40.5156 10.5019 40.3938 11.018L40.3952 11.0173Z" fill="#0E0E0E"/>
<path d="M41.9145 11.1939C41.9207 10.862 41.9651 10.53 42.026 10.2021C42.0889 9.87428 42.1683 9.54916 42.2695 9.23019C42.4686 8.59089 42.7361 7.97076 43.0692 7.38622C43.1499 7.23838 43.2395 7.09601 43.3271 6.95227C43.4208 6.81264 43.5118 6.67027 43.6117 6.53474C43.8059 6.2589 44.0187 5.99675 44.2396 5.74144C44.6856 5.23356 45.1857 4.77496 45.7193 4.36017L46.4875 3.76263L46.0476 4.64149C45.9888 4.75922 45.9293 4.89338 45.8745 5.02274C45.8198 5.15348 45.7672 5.28558 45.7165 5.41837C45.6153 5.68463 45.5243 5.95499 45.4429 6.2281C45.2787 6.77431 45.1604 7.33352 45.0742 7.89615C44.9039 9.02211 44.9107 10.1734 45.12 11.2905C45.1734 11.5697 45.2418 11.8456 45.3205 12.1187C45.3971 12.3925 45.4908 12.6614 45.5948 12.9263C45.6981 13.1919 45.8178 13.4506 45.9477 13.7053C46.075 13.9613 46.2193 14.2084 46.3698 14.452C46.9807 15.4233 47.768 16.2844 48.6436 17.051C47.688 16.3877 46.8206 15.5725 46.1365 14.6081C45.7938 14.1276 45.4963 13.6115 45.2575 13.068C45.1378 12.7963 45.0277 12.5198 44.936 12.2371C44.845 11.9537 44.7671 11.6662 44.7034 11.3753C44.5803 10.7935 44.503 10.2001 44.4927 9.6046C44.4804 9.00979 44.5187 8.4143 44.6022 7.82702C44.6856 7.23906 44.8218 6.66 44.9948 6.09257C45.0817 5.8092 45.1789 5.52857 45.2863 5.25204C45.3396 5.11378 45.3971 4.9762 45.4586 4.84067C45.5209 4.70378 45.5818 4.57304 45.657 4.43204L45.9854 4.71336C45.4614 5.09803 44.9764 5.53267 44.5269 6.00222C44.0796 6.47382 43.6787 6.9906 43.3271 7.54091C43.1506 7.81539 42.9878 8.09944 42.8407 8.3924C42.693 8.68398 42.5555 8.98241 42.4364 9.28906C42.1998 9.90097 42.0055 10.5362 41.9138 11.1939H41.9145Z" fill="#0E0E0E"/>
<path d="M40.5354 0.0500524C40.3049 -0.0149725 40.0573 -0.00538986 39.8295 0.0610039C39.6017 0.130136 39.3965 0.259501 39.2302 0.425143L39.1673 0.486746C39.1475 0.508649 39.1304 0.532605 39.1112 0.555193C39.0756 0.601737 39.0353 0.644174 39.0052 0.69551L38.9101 0.842671L38.8171 0.997362C38.6926 1.20407 38.5646 1.40873 38.4251 1.60791C38.2849 1.80641 38.1385 2.00217 37.9709 2.18697C37.9292 2.23283 37.8854 2.27801 37.8395 2.32318C37.7978 2.36699 37.7315 2.41833 37.7034 2.4457C37.6309 2.51484 37.57 2.59697 37.5345 2.67226C37.5167 2.70991 37.5057 2.74687 37.503 2.77904C37.5002 2.81121 37.5044 2.83928 37.5126 2.86734C37.5269 2.92278 37.5789 2.98438 37.6466 3.04393C37.7882 3.16303 37.9928 3.25817 38.2 3.3362C38.395 3.41218 38.5968 3.4423 38.8013 3.43477C39.0052 3.42245 39.2118 3.37111 39.4102 3.28144C39.6092 3.19452 39.8021 3.0761 39.9827 2.93716C40.1633 2.79752 40.3357 2.64146 40.4944 2.47035C40.5737 2.38479 40.6504 2.29649 40.7229 2.20477C40.7578 2.15823 40.7981 2.11237 40.82 2.07061C40.848 2.02065 40.8747 1.96863 40.8994 1.91524C40.9958 1.70305 41.0724 1.47786 41.1053 1.24446C41.1374 1.01242 41.1237 0.767379 41.0266 0.549717C40.978 0.44157 40.9096 0.341637 40.8248 0.258132C40.7393 0.174626 40.6401 0.106179 40.5348 0.0500524H40.5354ZM40.5354 0.0500524C40.7475 0.157514 40.9356 0.324526 41.043 0.542188C41.1518 0.758481 41.1832 1.00763 41.1716 1.24993C41.1593 1.49292 41.1114 1.73454 41.0348 1.96726C41.015 2.02544 40.9951 2.08362 40.9726 2.1418C40.9657 2.15823 40.963 2.16712 40.952 2.18971L40.9288 2.23283L40.8829 2.31292C40.8207 2.41901 40.7537 2.521 40.6825 2.62161C40.3993 3.02135 40.0532 3.39575 39.5962 3.65243C39.3698 3.78042 39.1092 3.86804 38.8369 3.8961C38.5646 3.92074 38.2828 3.88036 38.0318 3.78385C37.7958 3.69007 37.5563 3.58398 37.3381 3.38548C37.3114 3.35947 37.2841 3.33483 37.2595 3.30403L37.2218 3.25886L37.1876 3.20821C37.1432 3.14044 37.1042 3.06036 37.0857 2.97138C37.0652 2.88377 37.0652 2.78931 37.083 2.70375C37.1008 2.61819 37.1343 2.54153 37.1733 2.47445C37.2526 2.33961 37.3552 2.24173 37.4647 2.15686C37.529 2.10826 37.5618 2.09252 37.6083 2.05487C37.6521 2.02065 37.6966 1.98437 37.7397 1.94672C37.9141 1.79751 38.081 1.6305 38.2411 1.45733C38.4005 1.28347 38.5544 1.10209 38.7008 0.914541L38.8095 0.772855L38.9265 0.630485C38.9628 0.581887 39.0107 0.541503 39.0524 0.497697L39.1174 0.433357L39.1878 0.375177C39.3746 0.219801 39.5928 0.102757 39.8261 0.0432077C40.0593 -0.0122346 40.3063 -0.0183948 40.5361 0.0486834L40.5354 0.0500524Z" fill="#0E0E0E"/>
<path d="M37.5016 3.27323C37.8265 3.67228 38.0783 4.12061 38.2951 4.58331C38.5092 5.04807 38.6796 5.53404 38.8054 6.03234C38.9313 6.53132 38.9983 7.04673 39.012 7.56213C39.0196 8.07823 38.9518 8.59842 38.7924 9.08508C38.7534 8.57173 38.7151 8.08165 38.6372 7.59362C38.5551 7.10696 38.4614 6.62578 38.341 6.14733C38.2206 5.66957 38.0879 5.19318 37.9442 4.71678L37.5009 3.27255L37.5016 3.27323Z" fill="#0E0E0E"/>
<path d="M41.1162 0.793389C41.4555 1.33618 41.7079 1.92551 41.9282 2.52237C42.1457 3.12128 42.3222 3.73388 42.4638 4.3547C42.5288 4.66613 42.5979 4.97688 42.6451 5.29174C42.669 5.44917 42.6957 5.60591 42.7169 5.76334C42.7368 5.92145 42.7539 6.07957 42.771 6.23768C42.8079 6.55322 42.8209 6.87219 42.8359 7.1891C42.8435 7.34789 42.8407 7.50737 42.8394 7.66686C42.8373 7.82634 42.8339 7.98514 42.825 8.14462C42.7374 7.83592 42.6738 7.52654 42.6027 7.21853C42.5288 6.9112 42.4713 6.6025 42.3988 6.29654C42.3646 6.14322 42.3318 5.9899 42.301 5.83589L42.1991 5.3773L42.1505 5.14732L42.0978 4.9187L41.9966 4.46011C41.8577 3.85024 41.7161 3.24106 41.5691 2.6312C41.422 2.02133 41.2722 1.41215 41.1162 0.793389Z" fill="#0E0E0E"/>
<path d="M46.2542 18.0879C46.6393 18.307 46.9903 18.5657 47.3289 18.8368C47.6668 19.1099 47.989 19.3994 48.2975 19.7047C48.606 20.0093 48.9002 20.3296 49.1731 20.6698C49.444 21.0106 49.7033 21.3679 49.8955 21.7683C49.548 21.4946 49.221 21.216 48.8995 20.9292C48.5793 20.6417 48.266 20.3481 47.9609 20.0455C47.6558 19.743 47.3583 19.4316 47.0703 19.1092C46.7837 18.7854 46.5053 18.4528 46.2542 18.0879Z" fill="#0E0E0E"/>
<path d="M34.1312 25.2092C34.803 24.6226 35.4474 24.0155 36.0685 23.3885C36.3756 23.0716 36.6842 22.7574 36.9749 22.4261C37.269 22.0989 37.5563 21.7663 37.8293 21.422C38.1043 21.0798 38.3656 20.7273 38.6187 20.3693C38.8732 20.012 39.1003 19.6369 39.326 19.2604L39.4861 18.973C39.5408 18.8778 39.586 18.7779 39.6386 18.6814C39.6899 18.5842 39.7412 18.487 39.7864 18.3864L39.9259 18.0873C40.1065 17.6855 40.2577 17.27 40.3993 16.8463C40.3466 17.2899 40.2454 17.7286 40.1141 18.1591C39.9731 18.5856 39.8076 19.0065 39.6085 19.411C39.5073 19.6116 39.4081 19.8149 39.2911 20.0079C39.2337 20.1051 39.1796 20.2043 39.1201 20.2995L38.9416 20.5863C38.6953 20.9634 38.4306 21.3282 38.1494 21.6794C37.8635 22.0264 37.5687 22.3659 37.2588 22.6903C36.9462 23.012 36.6253 23.3262 36.2874 23.6205C35.6157 24.2119 34.9035 24.7602 34.1306 25.2092H34.1312Z" fill="#0E0E0E"/>
<path d="M37.5228 31.5761C37.2567 32.8253 37.0474 34.0806 36.8948 35.3401C36.8251 35.9705 36.7601 36.6009 36.7307 37.2326C36.6958 37.8637 36.6835 38.4955 36.7081 39.1245C36.7314 39.7535 36.7854 40.3805 36.8901 40.9986C36.9879 41.6174 37.1527 42.2231 37.3751 42.8049C37.4879 43.0958 37.6254 43.3758 37.7793 43.6461C37.9333 43.9165 38.1111 44.1739 38.3115 44.4134C38.7097 44.896 39.2131 45.2902 39.7734 45.5976C39.1748 45.3737 38.6201 45.013 38.1624 44.5489C37.7075 44.0821 37.3463 43.525 37.0802 42.9295C36.9462 42.6317 36.8333 42.3258 36.7402 42.0137C36.6452 41.7022 36.5699 41.386 36.5077 41.067C36.4461 40.7488 36.3989 40.4271 36.3654 40.1054C36.3326 39.7836 36.3107 39.4606 36.2983 39.1382C36.2812 38.4927 36.2949 37.848 36.3442 37.2066C36.3695 36.8863 36.4023 36.5659 36.4413 36.2477C36.4789 35.9287 36.5261 35.6111 36.5795 35.2949C36.6835 34.6617 36.8169 34.0348 36.9708 33.4133C37.1295 32.7931 37.3032 32.1764 37.5235 31.5761H37.5228Z" fill="#0E0E0E"/>
<path d="M46.2556 26.1989C46.6044 26.7328 46.9088 27.2948 47.2023 27.8608C47.491 28.4303 47.7605 29.0094 48.0061 29.5994C48.2571 30.1874 48.4747 30.7897 48.6799 31.3954L48.7558 31.6234L48.8256 31.8534C48.8707 32.0067 48.9207 32.1593 48.9624 32.314L49.0917 32.7767L49.21 33.2428C49.3571 33.8671 49.485 34.4968 49.5699 35.1334C49.5945 35.2921 49.6068 35.4523 49.626 35.6118L49.6526 35.8514L49.6711 36.0916C49.6814 36.2518 49.6978 36.4119 49.7039 36.5721L49.7162 37.054C49.721 37.6967 49.6855 38.3401 49.5938 38.9753C49.4926 39.6091 49.3441 40.2347 49.1238 40.8329C49.2566 40.2087 49.3489 39.5831 49.3934 38.9534L49.4173 38.4811C49.4228 38.4024 49.4228 38.3237 49.4221 38.245V38.0088L49.4235 37.7727L49.4159 37.5365C49.4091 37.3791 49.4084 37.2224 49.3961 37.0649C49.3557 36.4366 49.2853 35.811 49.1854 35.1895L49.1067 34.724C49.0787 34.5693 49.0459 34.4153 49.0158 34.2606C48.987 34.106 48.9528 33.952 48.9179 33.7986C48.8831 33.6453 48.8516 33.4906 48.8119 33.338C48.671 32.7233 48.4952 32.1169 48.3105 31.5132C48.1285 30.9081 47.9219 30.3106 47.7085 29.7151C47.4903 29.1209 47.2639 28.5296 47.0197 27.9437C46.7789 27.3571 46.5244 26.7753 46.2556 26.1976V26.1989Z" fill="#0E0E0E"/>
<path d="M38.0796 2.48335C38.0242 2.53674 37.9736 2.59492 37.9367 2.65789C37.9004 2.72018 37.8806 2.79068 37.9073 2.83859C37.9305 2.88719 37.988 2.92278 38.0516 2.95016C38.1152 2.97754 38.185 2.9967 38.2555 3.01108C38.3971 3.03709 38.5428 3.04736 38.6871 3.03572C38.8314 3.02614 38.9737 3.00081 39.1112 2.95701C39.2494 2.91662 39.3794 2.85228 39.5039 2.77973C39.6304 2.70786 39.7365 2.61135 39.8555 2.51415C39.969 2.4149 40.0833 2.31565 40.1913 2.20956C40.2461 2.15754 40.2981 2.10278 40.3473 2.04597C40.3726 2.01791 40.3959 1.98848 40.4178 1.95768C40.4397 1.92687 40.4609 1.89539 40.4718 1.85843C40.4684 1.93714 40.4294 2.0097 40.3938 2.07814C40.3562 2.14727 40.3124 2.21162 40.2673 2.27527C40.1743 2.40053 40.073 2.51826 39.9656 2.63051C39.9109 2.68595 39.8609 2.74208 39.798 2.7941C39.7672 2.82011 39.7385 2.84817 39.7064 2.87282L39.6085 2.944C39.4738 3.0323 39.3281 3.1069 39.1721 3.15345C38.8622 3.24517 38.5277 3.26091 38.2165 3.16645C38.1782 3.15276 38.1392 3.1425 38.1015 3.12539L38.0448 3.10074L37.99 3.06994C37.9716 3.06036 37.9545 3.04667 37.9374 3.03435C37.9203 3.02203 37.9032 3.00902 37.8867 2.99123C37.8703 2.97549 37.8546 2.95906 37.8423 2.93716C37.8361 2.92689 37.8286 2.91731 37.8238 2.90635C37.8197 2.89472 37.8156 2.88308 37.8122 2.87076C37.7999 2.82285 37.8047 2.77151 37.8231 2.73113C37.8389 2.68938 37.8642 2.65515 37.8915 2.62504C37.9469 2.56549 38.0112 2.51963 38.0796 2.48472V2.48335Z" fill="#0E0E0E"/>
<path d="M39.0346 1.86322C39.0503 1.71127 39.0893 1.56274 39.1406 1.419C39.1912 1.27457 39.2583 1.13631 39.3411 1.00489C39.4273 0.876895 39.5285 0.750952 39.6674 0.666077C39.7358 0.62364 39.8138 0.592839 39.8945 0.584625C39.9752 0.576411 40.0559 0.59147 40.1236 0.626378C39.9697 0.60995 39.835 0.664708 39.7289 0.75369C39.6763 0.798865 39.6256 0.848147 39.5819 0.904958C39.5367 0.9604 39.4943 1.01858 39.456 1.0795C39.3766 1.20065 39.3069 1.3307 39.2384 1.46143L39.0353 1.86322H39.0346Z" fill="#0E0E0E"/>
<path d="M36.2128 13.58C36.2812 13.4082 36.3517 13.2405 36.4215 13.0728C36.4899 12.9044 36.5597 12.7381 36.6205 12.5684C36.6541 12.4849 36.6821 12.3993 36.7108 12.3137L36.7526 12.1857L36.7895 12.0564C36.8353 11.8832 36.8736 11.708 36.8887 11.5232C36.9311 11.7039 36.9222 11.8948 36.8942 12.0783C36.8675 12.2631 36.8114 12.441 36.7491 12.6156C36.6842 12.7888 36.6069 12.9571 36.5179 13.1187C36.429 13.2802 36.3312 13.437 36.2135 13.58H36.2128Z" fill="#0E0E0E"/>
<path d="M38.7035 4.32869C38.8779 4.55799 39.0107 4.81603 39.1242 5.08024C39.2378 5.34513 39.3281 5.6196 39.3985 5.89887C39.4662 6.17882 39.5176 6.46287 39.5401 6.74966C39.5682 7.03577 39.5668 7.32462 39.5388 7.61005C39.5059 7.46904 39.4881 7.32804 39.4601 7.1891C39.4327 7.04946 39.4108 6.91052 39.3814 6.77225C39.3301 6.49504 39.2638 6.22125 39.1995 5.94815L39.1488 5.74349C39.1311 5.67573 39.1098 5.60865 39.0927 5.5402C39.0565 5.40399 39.0154 5.26984 38.9751 5.13499C38.8916 4.86531 38.8034 4.59768 38.7042 4.328L38.7035 4.32869Z" fill="#0E0E0E"/>
<path d="M55.8256 24.5829C56.1683 24.7999 56.483 25.0586 56.7874 25.3276C57.0898 25.5993 57.3771 25.8882 57.6473 26.1935C58.1918 26.7999 58.6658 27.4714 59.0694 28.1819C59.2692 28.5385 59.4484 28.9067 59.6099 29.2825C59.6851 29.4728 59.7658 29.6603 59.8294 29.8547C59.8623 29.9512 59.8999 30.0464 59.9279 30.1449L60.0155 30.4386C60.2412 31.223 60.3671 32.0354 60.3767 32.8452C60.2248 32.0498 60.0292 31.2722 59.7617 30.52C59.6256 30.1449 59.4758 29.776 59.3123 29.4132C59.1447 29.0525 58.9661 28.6966 58.7712 28.3495C58.3792 27.6569 57.9353 26.9936 57.4434 26.3639C57.1958 26.0504 56.9406 25.7417 56.6697 25.446C56.4016 25.1476 56.1218 24.8587 55.8256 24.5829Z" fill="#0E0E0E"/>
<path d="M24.003 35.4708C23.9031 35.3182 23.8279 35.1498 23.7649 34.9773C23.702 34.8048 23.6541 34.6268 23.6158 34.4461C23.546 34.0841 23.52 33.7124 23.5392 33.3428C23.5543 32.9725 23.6192 32.6056 23.7102 32.2469C23.8046 31.889 23.9305 31.5406 24.0776 31.2017C24.1159 31.1176 24.1576 31.0354 24.1973 30.9526L24.2575 30.828L24.3231 30.7069L24.4552 30.4646L24.5981 30.2291L24.6706 30.1121C24.6953 30.0737 24.7219 30.0361 24.7479 29.9978L24.9032 29.7705C25.0086 29.6206 25.1214 29.4762 25.2329 29.3304C25.6892 28.7582 26.2009 28.2339 26.7564 27.7636C26.2809 28.3146 25.8206 28.8718 25.404 29.4584L25.2528 29.6815C25.2028 29.7561 25.1488 29.828 25.1016 29.9047L24.958 30.1319C24.934 30.1702 24.9094 30.2072 24.8868 30.2455L24.8205 30.3619L24.685 30.5939L24.5598 30.8308L24.4969 30.9492L24.4401 31.0703C24.4025 31.1511 24.3635 31.2312 24.3266 31.3126C24.1802 31.6378 24.0577 31.9725 23.9585 32.314C23.8573 32.6549 23.7896 33.0046 23.7506 33.3578C23.715 33.711 23.7102 34.069 23.7472 34.4249C23.7868 34.7795 23.8593 35.1354 24.0023 35.4694L24.003 35.4708Z" fill="#0E0E0E"/>
<path d="M40.8638 29.0292C40.636 29.8417 40.4274 30.659 40.244 31.4824C40.0552 32.3037 39.8869 33.1299 39.7474 33.9602C39.6106 34.7911 39.4902 35.6241 39.4177 36.4619C39.3438 37.299 39.3075 38.1395 39.352 38.976C39.3958 39.8097 39.5134 40.6481 39.8192 41.4189C39.9725 41.8015 40.1784 42.1649 40.4554 42.4654C40.7413 42.7645 41.0512 43.0499 41.3871 43.2923C41.7237 43.5339 42.093 43.7344 42.4919 43.8357C42.6909 43.8864 42.8961 43.911 43.1014 43.9062C43.3066 43.9014 43.5111 43.8658 43.7095 43.8077C44.1083 43.692 44.4763 43.4819 44.8341 43.2615C45.014 43.1519 45.1925 43.0383 45.3807 42.9404C45.5681 42.846 45.7719 42.7618 45.9847 42.7638C45.7719 42.7721 45.5763 42.8645 45.395 42.9678C45.2124 43.0712 45.0386 43.191 44.8628 43.3073C44.5126 43.5407 44.148 43.768 43.7389 43.9035C43.5344 43.9699 43.3209 44.011 43.1048 44.0219C42.8886 44.0315 42.6711 44.011 42.4604 43.9617C42.2497 43.9131 42.0458 43.8385 41.8516 43.7454C41.6573 43.653 41.4719 43.5428 41.2954 43.4216C40.9411 43.1786 40.6216 42.8959 40.3227 42.5879C40.0231 42.2703 39.8028 41.8891 39.6379 41.4921C39.4738 41.0937 39.3657 40.6762 39.2891 40.2566C39.2131 39.8364 39.1687 39.412 39.1461 38.9869C39.1044 38.1368 39.142 37.2874 39.2234 36.4441C39.3082 35.6008 39.4307 34.7631 39.5907 33.9328C39.7494 33.1018 39.9355 32.277 40.1448 31.4591C40.2522 31.0505 40.3644 30.6432 40.4828 30.238C40.6004 29.8328 40.7249 29.429 40.8617 29.0299L40.8638 29.0292Z" fill="#0E0E0E"/>
<path d="M41.9125 25.7814C41.9364 25.5028 42.0007 25.2208 42.145 24.9717C42.2182 24.8485 42.3167 24.7335 42.4488 24.6609C42.5801 24.5877 42.7402 24.5672 42.8859 24.5918C43.0336 24.6151 43.1704 24.6726 43.2977 24.7403C43.4249 24.8095 43.5439 24.8909 43.6568 24.9785C43.7697 25.0682 43.8757 25.1579 43.979 25.2633C44.0802 25.3687 44.1692 25.4837 44.2499 25.6028C44.4093 25.843 44.5365 26.0997 44.6473 26.3612C44.7575 26.6233 44.8532 26.8903 44.9374 27.1599C45.1036 27.7007 45.2336 28.2496 45.3437 28.802C45.5592 29.9081 45.7008 31.0245 45.7986 32.1436C45.8964 33.2627 45.9512 34.3852 45.9553 35.5078C45.9122 34.9479 45.8698 34.3893 45.8144 33.8315C45.763 33.2736 45.7049 32.7158 45.642 32.1593C45.512 31.0471 45.3615 29.9368 45.144 28.8417C45.0352 28.2941 44.9114 27.7493 44.7499 27.2174C44.5892 26.687 44.3997 26.1586 44.111 25.6938C44.0378 25.5788 43.9571 25.4693 43.8668 25.37C43.7765 25.2722 43.6712 25.177 43.5679 25.0894C43.3586 24.9156 43.1273 24.7526 42.8674 24.6972C42.7388 24.6705 42.6047 24.6787 42.4864 24.7355C42.3674 24.791 42.2695 24.8902 42.1936 25.0032C42.117 25.1168 42.0595 25.2441 42.0144 25.3755C41.9685 25.5069 41.933 25.6431 41.9118 25.7814H41.9125Z" fill="#0E0E0E"/>
<path d="M44.4592 6.49367C44.3361 6.70449 44.2232 6.92147 44.1206 7.14324C44.0166 7.36364 43.9202 7.58814 43.8333 7.81607C43.6602 8.27125 43.5138 8.73806 43.4194 9.21582C43.3688 9.45401 43.3298 9.69426 43.3052 9.93657C43.2902 10.057 43.2847 10.1789 43.2758 10.3C43.2737 10.4219 43.2655 10.543 43.2683 10.6648C43.2683 11.1515 43.3353 11.6382 43.4571 12.1111C43.4235 11.9934 43.3825 11.8777 43.3579 11.7579L43.3162 11.5786L43.2833 11.3979C43.245 11.1556 43.2204 10.9113 43.2149 10.6655C43.206 10.4198 43.2183 10.1741 43.2423 9.92972C43.2648 9.68537 43.3025 9.44238 43.3517 9.20144C43.453 8.72094 43.5987 8.25071 43.784 7.79622C43.9708 7.3431 44.189 6.9023 44.4579 6.49367H44.4592Z" fill="#0E0E0E"/>
<path d="M41.3837 7.19183C41.4233 7.46083 41.4432 7.73188 41.4548 8.00293C41.4658 8.27467 41.4644 8.5464 41.4514 8.81814C41.4487 8.8859 41.4418 8.95366 41.4363 9.02143C41.4309 9.08919 41.4261 9.15695 41.4165 9.22472L41.3919 9.42732C41.3816 9.4944 41.37 9.56147 41.3577 9.62855C41.3057 9.8955 41.2359 10.1611 41.1237 10.4089C41.1429 10.3438 41.1627 10.2788 41.1832 10.2145C41.2044 10.1501 41.2154 10.083 41.2318 10.0173C41.2489 9.95231 41.2619 9.88592 41.2729 9.81952C41.2838 9.75313 41.2988 9.68742 41.3064 9.61966C41.3474 9.35271 41.3693 9.08371 41.383 8.81403C41.4015 8.54435 41.4015 8.27398 41.4021 8.00362C41.4028 7.86809 41.4001 7.73325 41.3967 7.59773C41.3953 7.4622 41.3891 7.32667 41.3837 7.19115V7.19183Z" fill="#0E0E0E"/>
<path d="M32.9287 44.7385C32.668 44.7406 32.4067 44.7173 32.1475 44.6845C31.8875 44.6523 31.6303 44.601 31.3745 44.5421C30.8648 44.4175 30.3634 44.2457 29.8894 44.0103C29.4133 43.7789 28.9693 43.4777 28.5719 43.1225C28.1758 42.7652 27.8385 42.3415 27.5731 41.8781C27.3111 41.412 27.1196 40.9096 26.9944 40.3928C26.9677 40.2628 26.9458 40.1314 26.9219 40.0013C26.911 39.9356 26.8959 39.8713 26.8891 39.8056L26.8699 39.6077C26.8583 39.4756 26.8405 39.3442 26.835 39.2128L26.8302 38.8172C26.8275 37.761 27.0341 36.7213 27.3481 35.7282C27.1435 36.7494 27.0012 37.7843 27.0437 38.8131L27.0642 39.1977C27.0738 39.3257 27.0936 39.4524 27.108 39.5797L27.1312 39.77C27.1394 39.8336 27.1558 39.8952 27.1675 39.9582C27.1942 40.0828 27.2174 40.2087 27.2461 40.3326C27.3741 40.8261 27.5581 41.3032 27.8105 41.7426C28.3044 42.6311 29.089 43.3354 29.9872 43.822C30.438 44.065 30.9161 44.2608 31.4093 44.4134C31.6556 44.4901 31.906 44.5565 32.1598 44.6105C32.2863 44.6386 32.4136 44.6633 32.5415 44.6845C32.6694 44.7071 32.798 44.7269 32.928 44.7392L32.9287 44.7385Z" fill="#0E0E0E"/>
<path d="M31.0003 41.6666C30.6925 41.7508 30.3668 41.7898 30.0412 41.7501C29.8791 41.7269 29.719 41.6837 29.5658 41.618C29.4146 41.5496 29.2723 41.4606 29.1424 41.3545C29.0158 41.245 28.9036 41.1204 28.8044 40.9863C28.71 40.8501 28.6218 40.7077 28.5527 40.5571C28.5144 40.4832 28.4863 40.4058 28.4535 40.3299C28.4268 40.2518 28.3967 40.1752 28.3735 40.0965C28.3502 40.0177 28.3256 39.939 28.3071 39.8589L28.2777 39.7392L28.2531 39.6187C28.1224 38.976 28.1129 38.3196 28.1505 37.6734C28.1936 37.0259 28.2969 36.3859 28.4378 35.7555C28.5869 35.1265 28.7716 34.5071 28.9987 33.9034C29.2286 33.3003 29.4919 32.7103 29.8025 32.1443C30.111 31.5782 30.4619 31.0347 30.8607 30.5289C31.2623 30.0265 31.709 29.5563 32.2179 29.1682C31.2992 30.06 30.6035 31.1374 30.0392 32.2675C29.7628 32.8363 29.5104 33.4174 29.3031 34.0142C29.089 34.609 28.9112 35.2162 28.7709 35.8315C28.6266 36.4462 28.5253 37.0697 28.472 37.6967C28.4173 38.323 28.42 38.9548 28.5144 39.5708C28.5636 39.8774 28.6382 40.1813 28.7559 40.4654C28.8113 40.6091 28.8852 40.744 28.9645 40.8747C29.048 41.0027 29.1444 41.1211 29.2525 41.2293C29.3633 41.334 29.4871 41.4243 29.6212 41.4983C29.7573 41.5688 29.9044 41.6194 30.0556 41.6564C30.3607 41.72 30.6829 41.7152 30.9982 41.666L31.0003 41.6666Z" fill="#0E0E0E"/>
<path d="M45.2028 20.1119C46.0018 20.7143 46.7638 21.3645 47.5047 22.0373C47.8761 22.3727 48.2366 22.7204 48.5958 23.0695C48.9528 23.4207 49.3003 23.7821 49.6431 24.1476C50.3216 24.8847 50.9749 25.65 51.5495 26.4761C51.8375 26.8882 52.107 27.3146 52.3348 27.7643C52.5592 28.214 52.7549 28.6863 52.8349 29.1819C52.6953 28.7007 52.471 28.2544 52.2172 27.8293C51.9654 27.4022 51.6754 26.9977 51.3765 26.6021C51.0741 26.2085 50.7649 25.8197 50.4372 25.4453C50.1137 25.0682 49.7833 24.6958 49.4426 24.3337C49.1054 23.9676 48.7613 23.6075 48.4124 23.2523C48.0663 22.8943 47.7113 22.5445 47.3583 22.192C46.6475 21.4925 45.9279 20.8012 45.2021 20.1119H45.2028Z" fill="#0E0E0E"/>
<path d="M37.1945 19.0517C37.0481 19.242 36.8976 19.4295 36.743 19.6129C36.5898 19.7978 36.4317 19.9791 36.2744 20.1605C36.115 20.3405 35.9515 20.5164 35.7901 20.6944L35.2941 21.218C34.6265 21.91 33.9205 22.5637 33.1968 23.1968L32.9225 23.4309C32.8315 23.5096 32.7392 23.587 32.6448 23.6609L32.0825 24.1127C31.8944 24.2626 31.6994 24.4036 31.5085 24.5494L31.2205 24.7663C31.1234 24.8368 31.0229 24.9032 30.9244 24.9717C30.1432 25.5329 29.3141 26.0237 28.4713 26.483C28.6745 26.3543 28.8776 26.227 29.0815 26.1011L29.3873 25.9115L29.6848 25.7089L30.282 25.3084L30.8635 24.8861C30.9599 24.8149 31.0584 24.7465 31.1528 24.6739L31.4374 24.4549C31.6269 24.3077 31.8191 24.1661 32.0052 24.0148L32.5613 23.5596C32.655 23.485 32.746 23.407 32.8356 23.3276L33.1072 23.0921C33.8357 22.4699 34.5376 21.8169 35.2196 21.1434L35.7272 20.6342L36.2245 20.1147C36.5562 19.7683 36.8784 19.4131 37.1938 19.051L37.1945 19.0517Z" fill="#0E0E0E"/>
<path d="M52.5544 43.1465C52.6461 43.1122 52.735 43.0732 52.8233 43.0322C52.9122 42.9925 52.9997 42.9507 53.0859 42.9055C53.259 42.8179 53.428 42.7241 53.5921 42.6222C53.9219 42.4216 54.2331 42.1937 54.5204 41.9418C55.093 41.436 55.5622 40.8165 55.8448 40.1143C55.9884 39.7652 56.0972 39.3997 56.1492 39.0232C56.169 38.9301 56.1759 38.835 56.1861 38.7405L56.2005 38.5981L56.208 38.527L56.2101 38.4558L56.2176 38.1697C56.221 38.1218 56.219 38.0738 56.2169 38.0266L56.2114 37.8829C56.1806 37.1163 56.0233 36.3524 55.8071 35.6022C56.1307 36.3134 56.3523 37.0786 56.4249 37.8685C56.5035 38.6563 56.4071 39.4756 56.0992 40.2183C55.9446 40.5886 55.7435 40.9397 55.4993 41.2566C55.2531 41.5722 54.9712 41.8583 54.6593 42.104C54.3487 42.3518 54.0108 42.5612 53.6592 42.7385C53.4827 42.8254 53.3028 42.9062 53.1188 42.974C52.9348 43.0424 52.748 43.1027 52.5572 43.1451L52.5544 43.1465Z" fill="#0E0E0E"/>
<path d="M52.8452 31.3037C53.0935 31.659 53.3165 32.0306 53.5347 32.4057C53.7481 32.7836 53.9472 33.1689 54.1339 33.5611C54.322 33.9526 54.4862 34.3558 54.6347 34.7644C54.7817 35.1737 54.909 35.5913 55.0047 36.017C55.0964 36.4434 55.1545 36.8794 55.1573 37.3182C55.158 37.7556 55.1053 38.1998 54.9493 38.6132C54.7995 39.0287 54.5163 39.4017 54.136 39.6296C54.0402 39.6851 53.9369 39.7303 53.8275 39.7535C53.718 39.7768 53.6024 39.7754 53.4957 39.7419C53.3883 39.709 53.2953 39.6447 53.2166 39.5694C53.1359 39.4948 53.0764 39.4024 53.0182 39.3114C53.0818 39.399 53.1468 39.4859 53.2303 39.5537C53.311 39.6235 53.4033 39.681 53.5053 39.7063C53.6072 39.733 53.7146 39.7289 53.8152 39.7022C53.9164 39.6755 54.0122 39.629 54.1004 39.5715C54.4575 39.3415 54.7188 38.978 54.8495 38.5762C54.9842 38.1731 55.0389 37.7453 55.0321 37.3182C55.0259 36.8904 54.9644 36.464 54.8707 36.0451C54.6908 35.2039 54.385 34.3927 54.0382 33.6036C53.8644 33.2086 53.6763 32.8191 53.4759 32.4365C53.2788 32.0519 53.0675 31.674 52.8452 31.3024V31.3037Z" fill="#0E0E0E"/>
<path d="M40.9076 7.76542C40.9076 7.76542 40.3945 10.4006 41.4548 13.6177C41.4548 13.6177 40.8734 11.53 40.4458 10.8798L40.9076 7.76542Z" fill="#0E0E0E"/>
<path d="M42.1731 4.85641C42.1731 4.85641 42.4467 5.98579 42.0363 7.61141L42.2128 11.2508L42.42 9.85169C42.4645 9.55258 42.5267 9.2562 42.6068 8.96462L42.8571 8.05632L42.6006 6.4307L42.1731 4.85641Z" fill="#0E0E0E"/>
<path d="M42.3612 9.4766C42.3612 9.4766 42.0021 13.0016 43.6609 15.4315C43.6609 15.4315 41.8311 12.4541 41.9679 11.6327C41.9679 11.6327 41.7968 9.23704 42.3612 9.4766Z" fill="#0E0E0E"/>
<path d="M56.9256 32.3037C56.9256 32.3037 60.8473 39.3538 57.427 40.9281C57.427 40.9281 58.7267 35.8726 56.9256 32.3037Z" fill="#0E0E0E"/>
<path d="M35.4925 45.8056C35.4925 45.8056 34.5465 45.371 34.0074 43.8152C33.6681 42.835 33.5881 41.8405 33.6278 40.7063C33.7543 37.1217 34.6723 34.5817 34.4226 35.7843C33.1017 42.1458 36.1916 45.6783 36.1916 45.6783L35.4912 45.805L35.4925 45.8056Z" fill="#0E0E0E"/>
<path d="M38.4436 9.94341C38.9464 10.3514 39.365 10.864 39.6988 11.4267C40.0313 11.99 40.2707 12.6197 40.3603 13.2782C40.4014 13.6074 40.4082 13.9414 40.3781 14.272C40.3391 14.6019 40.2666 14.9264 40.1585 15.2385C39.9314 15.8586 39.5757 16.4206 39.1331 16.8915C39.4854 16.3501 39.7754 15.7765 39.9547 15.1728C40.0333 14.8682 40.097 14.5609 40.1195 14.2487C40.14 13.9373 40.1318 13.6238 40.0887 13.3144C40.0518 13.0044 39.9745 12.6991 39.8767 12.4007C39.7809 12.1016 39.653 11.812 39.5121 11.5286C39.2234 10.9653 38.8656 10.4314 38.4429 9.94341H38.4436Z" fill="#0E0E0E"/>
<path d="M48.7743 27.136C48.6601 26.943 48.541 26.7588 48.4193 26.5747L48.0588 26.0244C47.8187 25.6582 47.5806 25.2906 47.3467 24.9203C47.2899 24.8266 47.2297 24.7348 47.1715 24.6418L46.9991 24.3611C46.8835 24.1743 46.7714 23.9854 46.6605 23.7951C46.549 23.6055 46.4416 23.4125 46.3363 23.2174C46.2323 23.0209 46.1277 22.8259 46.038 22.6191C46.2022 22.7732 46.3513 22.9381 46.5018 23.1024C46.6496 23.2687 46.7891 23.4412 46.928 23.6144C47.0655 23.7882 47.1955 23.9682 47.3248 24.1483C47.4513 24.3303 47.5751 24.5145 47.6935 24.702C47.9302 25.0771 48.1477 25.4659 48.3392 25.8683C48.4336 26.0703 48.5232 26.2749 48.5985 26.4864C48.671 26.6986 48.7442 26.9122 48.7736 27.1367L48.7743 27.136Z" fill="#0E0E0E"/>
<path d="M29.2101 31.3797C29.2935 31.275 29.3688 31.1689 29.442 31.0594L29.6616 30.7301C29.81 30.5118 29.9591 30.2928 30.1178 30.0799C30.4339 29.6542 30.7752 29.2435 31.1474 28.8615C31.5195 28.4796 31.9224 28.1264 32.3499 27.8074C32.7802 27.4919 33.2406 27.2174 33.7249 26.9991C33.3152 27.3393 32.9068 27.6658 32.5196 28.0162C32.1324 28.3667 31.7569 28.7274 31.3929 29.0997C31.0283 29.4728 30.6774 29.8595 30.3258 30.249C30.1507 30.4447 29.9721 30.6384 29.7929 30.8335C29.7019 30.9293 29.6103 31.0258 29.5152 31.1189C29.468 31.1655 29.4174 31.21 29.3681 31.2551C29.3189 31.2996 29.2628 31.3393 29.2108 31.3783L29.2101 31.3797Z" fill="#0E0E0E"/>
<path d="M26.9527 29.6685C26.9609 29.5268 27.0293 29.3961 27.0943 29.2708C27.1305 29.2106 27.1641 29.147 27.2051 29.0895L27.3269 28.9149C27.5013 28.6932 27.6867 28.4789 27.8878 28.2825C28.0834 28.0792 28.2982 27.8985 28.5076 27.7109C28.615 27.6206 28.7258 27.5343 28.8345 27.446L28.9987 27.3146L29.1663 27.188C29.6151 26.8533 30.0761 26.5357 30.5529 26.2434C31.0263 25.9464 31.5154 25.6753 32.0154 25.4248C31.7965 25.6 31.5715 25.7643 31.3471 25.9293C31.2335 26.01 31.1207 26.0915 31.0099 26.1757C30.8984 26.2592 30.7848 26.3393 30.6726 26.4207L30.5037 26.5425C30.4469 26.5822 30.3901 26.6226 30.3347 26.6644L29.9995 26.9115C29.7731 27.0716 29.5521 27.2393 29.3312 27.4063C28.8872 27.7369 28.4508 28.0771 28.0335 28.4378C27.8235 28.6172 27.6224 28.8054 27.4288 29.0012L27.2892 29.1531C27.2414 29.2031 27.203 29.2592 27.1579 29.3119C27.1346 29.3379 27.1169 29.3667 27.097 29.3947C27.0785 29.4235 27.0553 29.4502 27.0396 29.4803C27.0047 29.5392 26.967 29.5987 26.9534 29.6678L26.9527 29.6685Z" fill="#0E0E0E"/>
<path d="M57.7355 29.4632C57.5419 28.9341 57.2929 28.4276 57.0193 27.9368C56.8893 27.6877 56.7395 27.4488 56.5986 27.2065C56.4529 26.9662 56.2956 26.7328 56.1451 26.496C55.5205 25.561 54.8283 24.6732 54.0915 23.8252L53.5374 23.19L52.6693 22.2701C52.5715 22.1688 52.4689 22.0729 52.369 21.9737C52.1672 21.7779 51.9675 21.5801 51.7684 21.3816L51.6186 21.2331L51.4633 21.0907L50.531 20.2344C50.1075 19.8641 49.6773 19.5007 49.2538 19.1283C49.6964 19.4767 50.1356 19.8292 50.5747 20.1831L51.5283 21.0202L51.687 21.1599L51.8409 21.305C52.0455 21.4987 52.25 21.6937 52.4525 21.8895C52.5537 21.9881 52.657 22.0839 52.7555 22.1845L53.6339 23.101L54.1948 23.7355C54.9261 24.5952 55.6238 25.4864 56.2326 26.4385C56.379 26.6801 56.5316 26.9176 56.6725 27.162C56.8093 27.4091 56.9543 27.6514 57.0788 27.9053C57.3333 28.4084 57.572 28.9231 57.7362 29.4632H57.7355Z" fill="#0E0E0E"/>
<path d="M38.9922 7.0125L39.8131 9.88728L38.787 9.13436L38.9922 7.0125Z" fill="#0E0E0E"/>
<path d="M41.9337 37.1293C41.7921 37.6597 41.6901 38.2012 41.6436 38.7467C41.5964 39.2895 41.5964 39.8453 41.736 40.3682C41.8071 40.6276 41.9166 40.8768 42.0794 41.0855C42.2415 41.2943 42.4604 41.4544 42.7087 41.5455C42.8332 41.59 42.9618 41.6235 43.0945 41.6399C43.2259 41.6625 43.3586 41.666 43.4885 41.6523C43.7492 41.6256 43.9947 41.5113 44.1794 41.3258C44.3676 41.1437 44.5023 40.9076 44.6001 40.6577C44.6986 40.4079 44.7643 40.1437 44.8101 39.8761C44.9018 39.3401 44.9162 38.7912 44.9052 38.245C44.8916 37.6981 44.8409 37.1519 44.7602 36.6098C44.7212 36.3387 44.6747 36.0683 44.6166 35.8C44.557 35.5324 44.4927 35.2655 44.3956 35.0081C44.5064 35.26 44.583 35.5256 44.6521 35.7918C44.7198 36.0588 44.7773 36.3278 44.8266 36.5988C44.921 37.1416 44.9839 37.6899 45.0106 38.2415C45.0243 38.5174 45.027 38.7939 45.0147 39.0698C45.0024 39.3463 44.9784 39.6228 44.9333 39.8966C44.8881 40.1704 44.8231 40.4428 44.7226 40.7056C44.622 40.9664 44.4818 41.221 44.2752 41.4236C44.07 41.6269 43.7888 41.7556 43.5029 41.7816C43.3599 41.796 43.2156 41.7905 43.0767 41.7659C42.9365 41.7474 42.799 41.7104 42.6649 41.6618C42.3981 41.5619 42.1587 41.3846 41.9863 41.1581C41.8112 40.9322 41.7018 40.6653 41.6347 40.3949C41.5677 40.1231 41.5396 39.8446 41.5342 39.568C41.5287 39.2908 41.5451 39.0143 41.5773 38.7405C41.6108 38.4667 41.658 38.195 41.7182 37.926C41.7777 37.657 41.8468 37.3907 41.9343 37.13L41.9337 37.1293Z" fill="#0E0E0E"/>
<path d="M31.5359 34.186C31.5858 33.8999 31.6522 33.6166 31.7302 33.3373C31.7664 33.1963 31.8095 33.0573 31.8513 32.9184C31.8916 32.7788 31.9381 32.6412 31.984 32.5029C32.1728 31.9533 32.3848 31.4105 32.6297 30.8821C33.1113 29.8225 33.6996 28.8116 34.3713 27.8602C34.5458 27.6274 34.7182 27.392 34.8953 27.1613L35.4501 26.4864L36.0138 25.8238L36.5699 25.1551C36.9366 24.7061 37.2971 24.2523 37.6364 23.7834C37.8053 23.5487 37.9729 23.3118 38.1227 23.0647C38.1604 23.0031 38.1994 22.9415 38.2329 22.8779C38.2678 22.8142 38.304 22.7519 38.3334 22.6855C38.367 22.6212 38.3929 22.5541 38.4189 22.4864C38.4278 22.4515 38.4408 22.4172 38.447 22.3816C38.4518 22.3467 38.4607 22.3084 38.4449 22.2749C38.462 22.3077 38.4552 22.3467 38.4518 22.3823C38.4477 22.4186 38.436 22.4535 38.4285 22.4891C38.4053 22.5582 38.382 22.6274 38.3519 22.6938C38.3245 22.7615 38.2903 22.8259 38.2575 22.8909C38.226 22.9566 38.1898 23.0196 38.1535 23.0825C38.0119 23.3372 37.8519 23.5795 37.6904 23.8218C37.3607 24.3009 37.0084 24.7629 36.6506 25.2208C36.4707 25.4488 36.2881 25.6746 36.1034 25.8991L35.5438 26.5665L34.9979 27.2407C34.8235 27.4707 34.6545 27.7061 34.4822 27.9382C34.3153 28.1743 34.1559 28.4159 33.9924 28.6541C33.8385 28.8985 33.6866 29.1449 33.5361 29.392L33.3227 29.7698C33.2522 29.8965 33.1783 30.0203 33.114 30.1504C32.9834 30.4084 32.8445 30.6624 32.7234 30.9252C32.469 31.4447 32.2473 31.9807 32.0462 32.5235C31.8437 33.0662 31.6659 33.6186 31.5345 34.1847L31.5359 34.186Z" fill="#0E0E0E"/>
<path d="M41.0786 17.8614C41.0225 18.3576 40.9301 18.8477 40.8221 19.3344C40.714 19.821 40.584 20.3029 40.4383 20.7807C40.2864 21.2564 40.1209 21.728 39.9239 22.1872C39.7248 22.6458 39.5011 23.0949 39.2282 23.5124C39.4259 23.0538 39.6058 22.5938 39.7754 22.1284C39.8151 22.0113 39.8555 21.8943 39.8979 21.7779C39.941 21.6623 39.9759 21.5432 40.0155 21.4261C40.0963 21.192 40.1688 20.9552 40.2433 20.7197C40.3172 20.4836 40.3897 20.2468 40.4588 20.0086C40.532 19.7717 40.5977 19.5329 40.6681 19.2947L41.0793 17.8607L41.0786 17.8614Z" fill="#0E0E0E"/>
<path d="M22.2833 37.7165C23.4961 40.6598 25.5209 41.7091 25.5209 41.7091L25.1105 40.2032C22.1006 38.6289 21.7128 33.2901 21.7128 33.2901C21.7128 33.2901 21.3707 35.503 22.2826 37.7165H22.2833Z" fill="#0E0E0E"/>
<path d="M38.8266 6.2192C38.8266 6.2192 39.7159 9.57311 40.1948 9.71001C40.6736 9.8469 40.8104 7.3828 40.8104 7.3828L40.571 11.2501L39.3739 9.23088L38.8266 6.2192Z" fill="#0E0E0E"/>
<path d="M19.1988 37.8925C18.9074 37.785 18.6304 37.6495 18.3581 37.5037C18.0852 37.3586 17.8204 37.1984 17.5612 37.03C17.3012 36.863 17.0488 36.6809 16.8012 36.5043C16.5522 36.3284 16.3011 36.1594 16.0405 36.0081C15.5234 35.6994 14.9679 35.4619 14.3967 35.2661C13.8255 35.0697 13.2379 34.9191 12.6441 34.7925C12.0504 34.6638 11.4504 34.5604 10.8471 34.4735L10.3942 34.4092L9.94071 34.3496L9.03091 34.2422L8.91735 34.2285L8.79833 34.2127C8.71829 34.2038 8.64031 34.1874 8.56096 34.1751C8.40431 34.1443 8.24834 34.1087 8.09579 34.0635C7.7907 33.9732 7.49519 33.8575 7.21062 33.7227C6.92673 33.5864 6.65311 33.4304 6.39179 33.2579C6.12911 33.0847 5.8808 32.9013 5.64069 32.6877L5.65369 32.698C5.48062 32.5755 5.29045 32.4598 5.10028 32.353C4.90943 32.2462 4.71447 32.1443 4.51472 32.0546C4.11523 31.8739 3.7 31.7247 3.27178 31.6336C2.84493 31.5399 2.4037 31.5043 1.97343 31.5556C1.54315 31.6049 1.12656 31.7562 0.775635 32.0026L0.722278 31.8349C0.956227 31.8308 1.1765 31.8582 1.3995 31.9033C1.62114 31.9499 1.83867 32.019 2.04731 32.1135C2.4639 32.301 2.84219 32.6015 3.10555 32.9896C3.37097 33.3763 3.52078 33.8315 3.58166 34.2867C3.6145 34.5132 3.62476 34.7473 3.62339 34.9684C3.62339 35.1861 3.62544 35.4037 3.6316 35.6207C3.65144 36.4886 3.71027 37.3551 3.88949 38.1895C4.06735 39.0225 4.37791 39.8179 4.86496 40.4982C4.98604 40.6687 5.11944 40.8295 5.25762 40.9876L5.36365 41.104L5.4731 41.2169C5.54698 41.2922 5.62701 41.3709 5.70363 41.4462C6.01214 41.7501 6.32818 42.0397 6.66337 42.3053C7.32759 42.8419 8.07254 43.2731 8.87221 43.5756C9.27238 43.7255 9.68556 43.8426 10.1063 43.9309C10.527 44.0171 10.9559 44.0739 11.3875 44.1006C11.8191 44.1259 12.2535 44.1266 12.6886 44.1068C13.1237 44.0849 13.5574 44.0335 13.9917 43.976L14.0006 44.0233C13.1476 44.23 12.2679 44.3559 11.3793 44.3552C10.9353 44.358 10.49 44.3217 10.0481 44.2546C9.60621 44.1882 9.16909 44.0842 8.74292 43.9432C7.88852 43.6646 7.08612 43.2245 6.37059 42.6824C6.01351 42.41 5.67832 42.1109 5.35749 41.8056C5.27677 41.7282 5.19879 41.655 5.11807 41.5749L4.99699 41.4538L4.87933 41.3292C4.72473 41.1608 4.58245 40.9808 4.44837 40.7946C4.18227 40.4209 3.96268 40.0143 3.79167 39.5906C3.62544 39.1656 3.50368 38.7261 3.41885 38.284C3.24921 37.3983 3.20611 36.5064 3.20748 35.6227C3.20748 35.4017 3.21295 35.1806 3.21911 34.9602C3.22526 34.7432 3.22663 34.5379 3.20543 34.3291C3.16575 33.915 3.05493 33.5091 2.84287 33.1586C2.63081 32.8089 2.31614 32.5214 1.94196 32.3325C1.7559 32.2367 1.55683 32.1627 1.35162 32.11C1.14777 32.0573 0.932285 32.0224 0.72775 32.0156L0.419922 32.006L0.674393 31.8472C0.77153 31.7863 0.870719 31.7288 0.974013 31.6781C1.07731 31.6289 1.18334 31.585 1.29142 31.5474C1.50827 31.4748 1.73195 31.4276 1.9577 31.4023C2.40986 31.353 2.86408 31.3955 3.30393 31.4831C3.5242 31.5276 3.74105 31.5878 3.95516 31.6535C4.16996 31.7192 4.38065 31.7966 4.5886 31.8814C5.0052 32.0525 5.40674 32.2456 5.79803 32.4831H5.7994L5.81034 32.4933C6.03882 32.6761 6.29466 32.8452 6.55255 32.9964C6.81181 33.1484 7.08065 33.2825 7.35564 33.3989C7.63063 33.5153 7.91247 33.6118 8.19909 33.6836C8.34274 33.7192 8.48639 33.75 8.63142 33.774C8.70393 33.7836 8.77644 33.7966 8.84963 33.8027L8.95908 33.8144L9.07401 33.8253C9.38115 33.8513 9.68761 33.8862 9.99339 33.9225L10.4524 33.9807L10.9107 34.0464C11.5209 34.1409 12.129 34.2538 12.7337 34.3921C13.0354 34.4612 13.3357 34.5406 13.634 34.6282C13.9322 34.7158 14.2284 34.8116 14.5205 34.9212C15.104 35.1402 15.6718 35.4133 16.1972 35.7535C16.7239 36.0937 17.1884 36.503 17.6734 36.8671C18.1638 37.2278 18.6714 37.5735 19.2173 37.8445L19.1995 37.889L19.1988 37.8925Z" fill="#0E0E0E"/>
<path d="M18.1967 41.0157C17.841 41.115 17.477 41.1827 17.1117 41.2409C16.7465 41.3004 16.3777 41.336 16.0084 41.3675C15.2689 41.4195 14.5239 41.4236 13.781 41.3648C12.2973 41.2518 10.817 40.9103 9.44682 40.2929C8.76549 39.978 8.10948 39.6064 7.49861 39.169C7.34811 39.0567 7.20241 38.9376 7.05465 38.8227C6.98214 38.7631 6.90484 38.7097 6.83643 38.6454L6.41916 38.2689L6.31518 38.1745L6.21804 38.0732L5.83155 37.6652C5.76519 37.5995 5.7091 37.5235 5.6489 37.4523L5.47036 37.236L5.2925 37.0198C5.23231 36.9486 5.18305 36.8685 5.12833 36.7932L4.80819 36.3353C4.70626 36.1792 4.61391 36.0177 4.51746 35.8589C4.31977 35.544 4.1638 35.2052 3.99894 34.8746L3.93806 34.75C3.91822 34.7083 3.90249 34.6645 3.88402 34.622L3.77867 34.3654C3.71027 34.1936 3.64049 34.0224 3.57482 33.8506C4.26025 35.1566 5.08729 36.3757 6.1038 37.4092C6.61822 37.9192 7.17026 38.3866 7.76197 38.8001C8.35642 39.2087 8.98713 39.5619 9.6452 39.8576C10.2985 40.1635 10.9866 40.3942 11.6851 40.5811C12.3835 40.7727 13.099 40.9007 13.82 40.9958C14.5417 41.0841 15.2709 41.1321 16.0022 41.1355C16.3682 41.1382 16.7341 41.1307 17.1008 41.1108C17.2841 41.1019 17.4675 41.0896 17.6501 41.0739C17.8334 41.0602 18.0161 41.041 18.1994 41.0171L18.1967 41.0157Z" fill="#0E0E0E"/>
<path d="M5.63385 35.8185C6.0094 36.1758 6.40821 36.5057 6.81865 36.8185C7.22703 37.1334 7.65252 37.425 8.08622 37.7022C8.95498 38.2545 9.86889 38.7309 10.819 39.1197C11.2931 39.3175 11.7788 39.4839 12.2693 39.6344C12.7604 39.785 13.2605 39.9027 13.7633 40.0075C14.7723 40.2046 15.8018 40.3004 16.8388 40.3169C15.8066 40.4147 14.7572 40.3791 13.7256 40.2183C13.4684 40.1731 13.2105 40.1334 12.9567 40.0718C12.8295 40.0417 12.7009 40.0184 12.575 39.9835L12.1961 39.8836C11.6946 39.7378 11.1987 39.5701 10.7151 39.373C10.2335 39.1711 9.76012 38.9486 9.30043 38.7008C8.84211 38.4503 8.3961 38.1779 7.96788 37.8801C7.53897 37.5838 7.12579 37.2648 6.73382 36.9226C6.34391 36.5783 5.96562 36.2189 5.63385 35.8192V35.8185Z" fill="#0E0E0E"/>
<path d="M6.09217 32.8855C5.91774 32.776 5.75083 32.6569 5.58597 32.5371C5.42111 32.4167 5.2583 32.2942 5.09823 32.1689C4.93816 32.043 4.78014 31.9156 4.62349 31.7863C4.46752 31.6562 4.31156 31.5262 4.15764 31.3934L4.3656 31.2373C4.41211 31.3585 4.44905 31.481 4.47505 31.609C4.48668 31.6733 4.49762 31.7377 4.50173 31.8041C4.50652 31.8698 4.50788 31.9382 4.4942 32.0053L4.39091 31.8397C4.35671 31.7856 4.32592 31.7308 4.29309 31.6768C4.23084 31.5672 4.17269 31.4557 4.12002 31.3441L3.87034 30.8205L4.32797 31.1881C4.64606 31.4434 4.95321 31.7124 5.24941 31.993C5.39717 32.1333 5.5415 32.2777 5.6831 32.4256C5.82402 32.5741 5.96289 32.7247 6.09149 32.8855H6.09217Z" fill="#0E0E0E"/>
<path d="M17.9333 39.5229C17.8505 39.5598 17.7609 39.579 17.6713 39.592C17.6262 39.5995 17.581 39.605 17.5359 39.6077C17.4907 39.6105 17.4449 39.616 17.3997 39.616C17.3094 39.6173 17.2185 39.616 17.1282 39.6098C17.0372 39.6064 16.9476 39.5954 16.858 39.5831C16.4995 39.5331 16.1486 39.4442 15.8093 39.3278C15.639 39.2703 15.4727 39.2032 15.3072 39.1355C15.1444 39.0615 14.9802 38.9903 14.8215 38.9075C14.6635 38.824 14.5061 38.7391 14.3529 38.6481C14.2017 38.5523 14.0499 38.4578 13.9049 38.3524C14.0779 38.4038 14.2442 38.466 14.4104 38.527C14.5759 38.5899 14.7442 38.6461 14.9077 38.7104C15.0726 38.7727 15.2388 38.8302 15.4023 38.8938L15.6499 38.9814C15.7327 39.0102 15.8141 39.0437 15.8975 39.0684C16.2279 39.182 16.5611 39.2854 16.8983 39.3723L17.0249 39.4045C17.0673 39.4154 17.1097 39.4223 17.1521 39.4325C17.2369 39.4537 17.3224 39.4674 17.4086 39.4825C17.5803 39.5099 17.7548 39.5338 17.9333 39.5229Z" fill="#0E0E0E"/>
<path d="M6.67773 34.505C7.05875 34.8034 7.45688 35.0765 7.85842 35.3421C8.05954 35.4742 8.26271 35.6043 8.46861 35.7295L8.77712 35.9171L9.09042 36.0971C9.19372 36.1594 9.30043 36.2148 9.40509 36.2737C9.51044 36.3312 9.6151 36.3907 9.7225 36.4455L10.0426 36.6132C10.1494 36.6686 10.2588 36.72 10.3662 36.774C10.7972 36.9896 11.2384 37.1854 11.6803 37.3832C11.5654 37.3462 11.4504 37.3079 11.3362 37.2682C11.222 37.2285 11.1064 37.1916 10.9935 37.1471C10.7684 37.0581 10.5413 36.9725 10.3211 36.8705C9.87573 36.6782 9.44545 36.4523 9.0227 36.2155C8.60063 35.9759 8.19225 35.7124 7.79823 35.4297C7.40421 35.147 7.02455 34.8431 6.67773 34.5043V34.505Z" fill="#0E0E0E"/>
<path d="M20.175 40.6043C20.1606 40.4223 20.149 40.2539 20.1257 40.0882C20.1045 39.9233 20.0731 39.7624 20.0334 39.605C19.9923 39.4489 19.9417 39.2956 19.8713 39.1553C19.8357 39.0855 19.794 39.0205 19.742 38.9637C19.69 38.9068 19.6236 38.8637 19.532 38.848C19.5723 38.8261 19.6209 38.8158 19.6708 38.8165C19.7208 38.8179 19.7693 38.8329 19.8165 38.8514C19.9082 38.8932 19.9855 38.9595 20.0477 39.0328C20.1729 39.1813 20.2509 39.3565 20.2981 39.5366C20.3433 39.7166 20.3583 39.9034 20.3398 40.0862C20.3214 40.2683 20.2708 40.4483 20.1743 40.6043H20.175Z" fill="#0E0E0E"/>
<path d="M19.4061 39.0944C19.3172 39.234 19.2549 39.3682 19.2159 39.5044C19.1762 39.6392 19.1626 39.7741 19.166 39.911L19.1728 40.0143C19.1762 40.0492 19.1845 40.0835 19.1886 40.1184L19.1954 40.1711L19.2077 40.2238C19.2166 40.2587 19.2241 40.295 19.231 40.3312C19.2501 40.4024 19.272 40.475 19.2898 40.5509C19.3131 40.6249 19.3377 40.7002 19.3527 40.7837C19.2871 40.7337 19.2296 40.6748 19.1715 40.6153C19.1208 40.5509 19.0723 40.4832 19.0305 40.4106C19.0121 40.373 18.9943 40.3347 18.9772 40.2963C18.969 40.2772 18.9594 40.258 18.9526 40.2381L18.9348 40.1765C18.9238 40.1348 18.9122 40.0937 18.904 40.0506L18.8917 39.9199C18.8862 39.7446 18.9286 39.5633 19.0203 39.414C19.1106 39.2655 19.2447 39.1444 19.4047 39.0937L19.4061 39.0944Z" fill="#0E0E0E"/>
<path d="M16.9476 37.5571C16.5105 37.3045 16.0699 37.0588 15.6301 36.8144C15.1882 36.5728 14.7449 36.3346 14.2941 36.1121C14.0697 35.9985 13.8426 35.8917 13.6134 35.7884C13.3857 35.6823 13.1538 35.5878 12.9198 35.4954C12.6859 35.4058 12.4492 35.3216 12.207 35.2579C11.9655 35.1908 11.7179 35.145 11.4655 35.1409C11.7179 35.1142 11.9731 35.147 12.2227 35.1929C12.4724 35.2422 12.7166 35.3134 12.9567 35.3955C13.4376 35.5584 13.9008 35.7665 14.355 35.9903C14.8078 36.2169 15.2504 36.4619 15.6834 36.7227C16.1164 36.9835 16.5399 37.2607 16.9483 37.5578L16.9476 37.5571Z" fill="#0E0E0E"/>
<path d="M24.8711 45.5579C24.8711 45.5579 25.9074 44.4737 25.4108 43.781C25.4108 43.781 24.6549 44.5839 24.8711 45.5579Z" fill="#0E0E0E"/>
<path d="M14.6313 43.8973C14.4514 43.872 14.2831 43.8138 14.1217 43.7426C13.961 43.6708 13.8064 43.5832 13.662 43.4784C13.5184 43.3737 13.3829 43.2512 13.2721 43.1027C13.2181 43.0274 13.1695 42.9452 13.1394 42.8542C13.1107 42.7638 13.0977 42.6605 13.1339 42.5749C13.1592 42.6632 13.2037 42.7296 13.2571 42.7899C13.3097 42.8501 13.3686 42.9048 13.4308 42.9569C13.5553 43.0616 13.6887 43.1588 13.8235 43.2574C13.9582 43.3559 14.095 43.4545 14.2312 43.5585C14.3666 43.6632 14.502 43.7707 14.6313 43.898V43.8973Z" fill="#0E0E0E"/>
<path d="M25.5312 43.6407C25.3862 43.345 25.1981 43.0691 24.9928 42.8138C24.7897 42.5558 24.5626 42.3189 24.3197 42.1033C23.832 41.6735 23.2745 41.3326 22.6752 41.1067C22.0794 40.8733 21.4446 40.7542 20.8071 40.7214C20.1716 40.6885 19.5326 40.7467 18.9115 40.8891C18.8328 40.9062 18.7583 40.9254 18.6776 40.9459L18.4354 41.0068L17.9511 41.1293C17.6282 41.2108 17.304 41.2874 16.9811 41.3662L15.0397 41.8378C14.7162 41.9178 14.3919 41.9925 14.0677 42.0677L13.5813 42.1807C13.4199 42.2183 13.2577 42.2567 13.0888 42.2936C12.9212 42.3299 12.7508 42.3641 12.5771 42.3929C12.4902 42.4072 12.4027 42.4202 12.3144 42.4312L12.1817 42.4469C12.1475 42.451 12.1441 42.4524 12.14 42.4538C12.14 42.4538 12.1461 42.4524 12.1489 42.4504C12.1516 42.4476 12.1694 42.4401 12.1797 42.4291C12.1844 42.4237 12.1968 42.4161 12.2029 42.4072C12.2111 42.3983 12.2152 42.3888 12.2241 42.3792C12.2316 42.3689 12.2378 42.3573 12.2419 42.3456C12.2453 42.3333 12.2508 42.3265 12.2535 42.3162C12.2563 42.3073 12.257 42.2943 12.2583 42.2881C12.2597 42.2833 12.2611 42.2779 12.2611 42.2731C12.2611 42.269 12.2583 42.2601 12.2597 42.2608C12.2604 42.2608 12.2611 42.2594 12.2611 42.2594C12.2611 42.2594 12.2611 42.2594 12.2597 42.2594L12.2638 42.2683C12.2672 42.2751 12.2665 42.2799 12.2706 42.2895C12.2884 42.3285 12.3158 42.3799 12.3527 42.4339C12.3726 42.4613 12.389 42.4887 12.4109 42.5168L12.4772 42.6016C12.5251 42.6578 12.5716 42.718 12.6229 42.7721L12.7768 42.9356C12.8897 43.0404 12.9978 43.1485 13.1209 43.2478C13.3576 43.4524 13.6196 43.64 13.8823 43.8248C14.4145 44.1882 14.9788 44.5161 15.5541 44.8234C16.1281 45.1328 16.7191 45.4155 17.3204 45.6619C17.4702 45.7249 17.6214 45.7817 17.7732 45.8385C17.8505 45.87 17.921 45.8878 17.9942 45.9117C18.0681 45.933 18.1378 45.9603 18.2145 45.9768C18.5168 46.0521 18.8287 46.115 19.1489 46.1534C19.7871 46.2362 20.4418 46.2608 21.095 46.254C21.749 46.2492 22.4057 46.2088 23.0528 46.1205C23.3778 46.0801 23.6972 46.0206 24.0126 45.948C24.0899 45.9275 24.1665 45.9049 24.2438 45.883C24.2821 45.8713 24.3218 45.8625 24.3587 45.8488L24.4695 45.8063L24.581 45.7639L24.6091 45.7536L24.631 45.744C24.6453 45.7372 24.6611 45.7297 24.6747 45.7215C24.7028 45.7057 24.7281 45.6879 24.7452 45.6722C24.763 45.6564 24.7664 45.6455 24.7664 45.6557C24.7664 45.6585 24.7685 45.6605 24.7678 45.6626C24.7678 45.6646 24.7712 45.6667 24.7705 45.666H24.7712C24.7712 45.666 24.7712 45.6653 24.7719 45.6646L24.7657 45.6523C24.7582 45.6359 24.7507 45.6195 24.7445 45.603C24.7343 45.5729 24.7308 45.549 24.724 45.5216L24.7151 45.449C24.7083 45.3546 24.7083 45.2649 24.7172 45.1766C24.7322 45 24.7678 44.8289 24.8191 44.6633C24.919 44.3306 25.1009 44.026 25.3376 43.781L25.3431 43.7755L25.3465 43.7734C25.3855 43.7515 25.4252 43.7283 25.4628 43.7029C25.4813 43.6906 25.4997 43.6776 25.5161 43.6639C25.5244 43.6571 25.5319 43.6502 25.5367 43.6441C25.5394 43.6413 25.5394 43.6379 25.5394 43.6441C25.5394 43.6468 25.5435 43.6537 25.5449 43.6543C25.5483 43.6564 25.5469 43.655 25.5469 43.655L25.5572 43.6085C25.5627 43.6105 25.5675 43.6105 25.575 43.6167C25.5811 43.6208 25.588 43.6331 25.588 43.6413C25.588 43.6585 25.5818 43.6653 25.5777 43.6721C25.5688 43.6852 25.5606 43.6934 25.551 43.7023C25.5332 43.7194 25.5148 43.7344 25.4956 43.7481C25.458 43.7769 25.4197 43.8029 25.38 43.8282L25.3855 43.8234C25.2788 43.9487 25.1871 44.0856 25.1112 44.232C25.0359 44.3785 24.9805 44.5346 24.9388 44.6941C24.8978 44.8535 24.8724 45.0171 24.8663 45.1814C24.8622 45.2635 24.8663 45.3457 24.8759 45.4258L24.8861 45.4853C24.8916 45.5038 24.8957 45.5236 24.9025 45.5414C24.9128 45.5681 24.9491 45.6195 24.9409 45.6708C24.9361 45.7221 24.9073 45.7632 24.8772 45.7954C24.8464 45.8282 24.8116 45.8542 24.7753 45.8782C24.7021 45.9268 24.6221 45.9528 24.5461 45.9877L24.4305 46.0377C24.3915 46.0534 24.3512 46.0651 24.3122 46.0787C24.2328 46.1048 24.1535 46.1321 24.0735 46.1575C23.7513 46.2464 23.4257 46.3231 23.0959 46.3765C22.4379 46.4901 21.773 46.5538 21.1067 46.5818C20.4404 46.6085 19.7714 46.5989 19.1072 46.5305C18.7747 46.499 18.4443 46.4429 18.1173 46.369C18.0352 46.3525 17.9559 46.3238 17.8752 46.3019C17.7951 46.2772 17.713 46.2574 17.6351 46.2266C17.4777 46.1705 17.3204 46.1143 17.1658 46.0521C16.544 45.8091 15.9372 45.5305 15.3448 45.2232C14.7524 44.9158 14.1737 44.5818 13.6189 44.2088C13.3446 44.0185 13.071 43.8255 12.8158 43.6078C12.6845 43.5038 12.5641 43.386 12.441 43.2724L12.2665 43.0897C12.2084 43.0287 12.1557 42.963 12.1024 42.898C11.9977 42.7659 11.8985 42.627 11.8294 42.4654C11.7993 42.3833 11.7706 42.2922 11.7952 42.1923C11.8055 42.1423 11.8383 42.0979 11.8752 42.065C11.9142 42.0335 11.958 42.013 12.0025 42C12.0463 41.9863 12.0914 41.9801 12.1338 41.976L12.257 41.9623C12.339 41.9521 12.4211 41.9404 12.5025 41.9281C12.666 41.9021 12.8288 41.8713 12.9909 41.8364L18.837 40.5195C19.4923 40.3887 20.1668 40.3401 20.8337 40.3997C21.4993 40.4579 22.1615 40.605 22.7751 40.874C24.0044 41.4031 25.0346 42.3942 25.5757 43.6235L25.5312 43.6407Z" fill="#0E0E0E"/>
<path d="M24.384 45.1082C23.5953 45.3491 22.7772 45.488 21.9549 45.5715C21.5438 45.6147 21.1299 45.6338 20.7161 45.6434C20.3022 45.6496 19.8877 45.6338 19.4738 45.6058C18.6475 45.5407 17.8232 45.4025 17.029 45.1588C16.6302 45.0431 16.2444 44.8878 15.8668 44.718C15.4905 44.5442 15.1307 44.3374 14.7894 44.1075C15.1615 44.2847 15.5329 44.4565 15.9181 44.5934C16.0125 44.6325 16.111 44.6605 16.2067 44.6947C16.3032 44.7269 16.399 44.7618 16.4975 44.7885L16.7902 44.8761L17.0858 44.9528C17.4811 45.0486 17.8786 45.1369 18.2815 45.1937C18.683 45.2567 19.0873 45.306 19.4937 45.3327C20.3056 45.3977 21.1224 45.3977 21.9385 45.3594C22.7546 45.3169 23.5707 45.2382 24.3833 45.1088L24.384 45.1082Z" fill="#0E0E0E"/>
<path d="M24.3758 44.6722C24.2397 44.7344 24.0974 44.7598 23.9551 44.7714C23.8128 44.781 23.6692 44.7741 23.5276 44.7474C23.386 44.7201 23.2464 44.6749 23.1165 44.6064C22.9885 44.5353 22.8675 44.4408 22.7888 44.3142C22.9345 44.3484 23.0617 44.3778 23.191 44.4045L23.5775 44.4784C23.7068 44.5031 23.8375 44.5277 23.9695 44.5572C24.1022 44.5873 24.2356 44.6208 24.3751 44.6722H24.3758Z" fill="#0E0E0E"/>
<path d="M23.9031 43.6735C24.0023 43.6057 24.0912 43.5264 24.1651 43.4374C24.239 43.3484 24.2958 43.2491 24.3184 43.1444C24.3307 43.0924 24.3327 43.0404 24.3293 42.989C24.3238 42.9377 24.3122 42.8871 24.293 42.8385C24.2554 42.7406 24.1959 42.6489 24.1227 42.566C24.0495 42.4832 23.9654 42.4072 23.8785 42.3333C23.7903 42.2614 23.6945 42.1957 23.5994 42.13C23.4058 42.0034 23.204 41.8877 22.9954 41.7837C22.7861 41.681 22.5713 41.59 22.3524 41.5058C22.1335 41.4216 21.9091 41.3538 21.6833 41.2874C21.2291 41.1642 20.766 41.0705 20.2865 41.0431C20.5232 40.9972 20.7667 40.9883 21.0089 40.9959C21.251 41.0068 21.4932 41.0328 21.7319 41.0794C21.9713 41.1232 22.206 41.1882 22.4385 41.2614C22.6698 41.3388 22.8962 41.4319 23.1165 41.5386C23.3347 41.6495 23.5474 41.7741 23.7472 41.9185C23.9428 42.0657 24.1384 42.2252 24.2896 42.4346C24.3642 42.5387 24.4312 42.6543 24.4634 42.7864C24.4798 42.8515 24.4873 42.9199 24.4859 42.9877C24.4818 43.0554 24.4702 43.1232 24.4456 43.1855C24.3957 43.3101 24.3136 43.4127 24.2178 43.4921C24.122 43.5715 24.0153 43.6338 23.9024 43.6749L23.9031 43.6735Z" fill="#0E0E0E"/>
<path d="M25.129 44.0986C25.129 44.0986 25.4847 43.1574 24.4812 42.0896C24.4812 42.0896 25.813 43.5483 25.6133 43.694C25.4129 43.8405 25.1297 44.0986 25.1297 44.0986H25.129Z" fill="#0E0E0E"/>
<path d="M20.6306 40.5112C20.699 40.2628 20.7469 40.0123 20.7393 39.7706C20.7339 39.529 20.6655 39.3045 20.543 39.1142C20.4226 38.9226 20.2489 38.7631 20.0607 38.6214C19.8767 38.4838 19.6708 38.3873 19.5101 38.4044C19.43 38.4106 19.3568 38.4421 19.285 38.4968C19.2139 38.553 19.1448 38.631 19.0853 38.7214C18.9656 38.9034 18.8718 39.1245 18.798 39.3524C18.7597 39.4667 18.7268 39.5831 18.6974 39.7015C18.683 39.7617 18.6687 39.8179 18.657 39.8781L18.6208 40.0616C18.5743 40.308 18.5312 40.5571 18.4942 40.8035L18.2815 40.5954C18.4682 40.5817 18.657 40.5715 18.8465 40.5612C19.0367 40.5516 19.2282 40.5434 19.4225 40.5366C19.6175 40.5304 19.8138 40.5243 20.0149 40.5208C20.216 40.5167 20.4192 40.5126 20.6292 40.5119L20.6306 40.5112ZM20.6306 40.5112C20.4527 40.5564 20.2687 40.5975 20.082 40.6392C19.8952 40.681 19.7043 40.7207 19.5114 40.7604C19.3179 40.7987 19.1222 40.8364 18.9245 40.8726C18.7268 40.9076 18.5271 40.9438 18.3266 40.9753L18.1016 41.0109L18.1139 40.7672C18.1269 40.5058 18.1529 40.2498 18.1857 39.9924L18.2131 39.7987C18.2234 39.7337 18.235 39.6646 18.2487 39.6002C18.276 39.4702 18.3082 39.3401 18.3465 39.2108C18.4265 38.9541 18.525 38.696 18.6899 38.4544C18.7727 38.3339 18.8718 38.2155 19.0059 38.119C19.1379 38.0232 19.311 37.9527 19.4861 37.9486C19.6619 37.9431 19.8227 37.9931 19.9588 38.0595C20.0949 38.1279 20.2106 38.2142 20.3159 38.3052C20.4199 38.3983 20.5129 38.4948 20.6025 38.6036C20.6887 38.7138 20.7667 38.8329 20.8255 38.963C20.9452 39.2217 20.9788 39.5181 20.9295 39.785C20.9062 39.9192 20.8652 40.0465 20.8132 40.1676C20.7626 40.2888 20.699 40.4024 20.6292 40.5106L20.6306 40.5112Z" fill="#0E0E0E"/>
</svg>
