<svg width="54" height="53" viewBox="0 0 54 53" fill="none" xmlns="http://www.w3.org/2000/svg">
<path fill-rule="evenodd" clip-rule="evenodd" d="M27.3709 15.6387C32.6674 15.6387 36.9606 19.9318 36.9606 25.2283C36.9606 30.5248 32.6674 34.818 27.3709 34.818C22.0744 34.818 17.7812 30.5248 17.7812 25.2283C17.7812 19.9318 22.0744 15.6387 27.3709 15.6387ZM27.5241 16.3568C22.5866 16.3568 18.5892 20.3596 18.5892 25.2917C18.5892 30.2238 22.5919 34.2266 27.5241 34.2266C32.4562 34.2266 36.4589 30.2238 36.4589 25.2917C36.4589 20.3596 32.4562 16.3568 27.5241 16.3568Z" fill="#0E0E0E"/>
<path fill-rule="evenodd" clip-rule="evenodd" d="M27.281 20.8345C29.5252 20.8345 31.3471 22.6563 31.3471 24.9006C31.3471 27.1449 29.5252 28.9667 27.281 28.9667C25.0367 28.9667 23.2148 27.1449 23.2148 24.9006C23.2148 22.6563 25.0367 20.8345 27.281 20.8345ZM27.3918 21.3837C25.3746 21.3837 23.7429 23.0154 23.7429 25.0326C23.7429 27.0498 25.3746 28.6815 27.3918 28.6815C29.4091 28.6815 31.0408 27.0498 31.0408 25.0326C31.0408 23.0154 29.4091 21.3837 27.3918 21.3837Z" fill="#0E0E0E"/>
<path fill-rule="evenodd" clip-rule="evenodd" d="M23.4578 15.6965C20.7488 11.7624 18.4359 8.47257 17.9448 3.66717C17.9289 3.49819 17.8867 2.24667 18.0346 2.18859C18.2669 2.09354 18.8214 2.61104 19.2544 3.01237C19.8511 3.56156 20.4267 4.30085 21.0445 5.01374C21.3086 5.34114 21.5673 5.67382 21.8314 6.00122C21.2505 4.82364 19.2491 2.28892 18.0398 1.78198C17.8181 1.68692 17.7441 1.99848 17.7019 2.33645C17.6227 3.03349 17.7494 4.31669 17.8709 5.17744C18.42 9.12737 20.8227 12.808 23.4578 15.6965Z" fill="#0E0E0E"/>
<path fill-rule="evenodd" clip-rule="evenodd" d="M23.3103 15.4855C21.7842 13.0933 19.6086 10.5216 17.4066 8.75791C15.9702 7.612 14.2276 6.58756 12.6698 6.03837C11.8619 5.75321 10.9061 5.25683 10.3516 5.39413C10.1721 5.43637 9.95556 5.74265 10.1404 6.37633C10.811 8.68926 12.0573 9.8246 13.3088 11.0127C14.8983 12.5283 16.7148 13.6055 18.4363 14.9996C18.9221 15.3904 19.2601 15.7601 19.6033 16.1772C20.4377 17.1806 20.1525 16.8056 19.6033 15.9871C19.3393 15.5911 19.0541 15.2214 18.6686 14.894C16.9683 13.4471 15.5689 12.0055 13.9002 10.5269C13.0923 9.81404 12.3794 9.11699 11.7457 8.2668C11.4077 7.81267 10.1193 6.08589 10.5628 5.71625C10.7899 5.53142 11.6454 5.91163 12.9127 6.41857C14.6818 7.21067 15.6798 7.90244 16.9208 8.87408C19.1439 10.6114 21.5413 13.8485 23.3156 15.4855H23.3103Z" fill="#0E0E0E"/>
<path fill-rule="evenodd" clip-rule="evenodd" d="M15.1356 12.1637C12.6695 11.7412 10.7685 11.3346 8.36581 10.6481C7.44697 10.3841 7.57371 10.5372 8.1757 11.1286C9.62788 12.565 11.1276 13.9274 12.622 15.3162C11.4339 13.9327 10.3196 12.6389 8.94668 11.4244C7.8483 10.458 9.34801 11.4666 12.094 12.1056C13.2821 12.3802 14.3805 12.4699 15.6954 12.6442C15.5105 12.4858 15.3204 12.3274 15.1356 12.1637Z" fill="#0E0E0E"/>
<path fill-rule="evenodd" clip-rule="evenodd" d="M22.291 6.89893C23.0303 9.70295 23.5848 13.109 24.3241 15.7176C24.0336 12.2271 23.5267 9.73992 22.291 6.89893Z" fill="#0E0E0E"/>
<path fill-rule="evenodd" clip-rule="evenodd" d="M21.3823 5.38873C21.5724 4.29035 21.7678 3.23422 21.8893 2.12528C22.1639 -0.404153 22.1111 -0.831886 23.088 1.69227C23.6055 3.02828 23.8537 4.50686 23.8167 5.93792C23.5685 4.01048 23.3256 2.93322 22.5282 1.10612C22.354 0.704785 22.3645 0.599172 22.2748 1.14308C22.2061 1.54969 22.1427 1.9563 22.0899 2.36291C21.9421 3.47185 21.7678 4.43293 21.5355 5.53131C21.4879 5.48378 21.4351 5.43625 21.3876 5.38873H21.3823Z" fill="#0E0E0E"/>
<path fill-rule="evenodd" clip-rule="evenodd" d="M24.8572 1.97196C25.3378 3.32381 25.6757 4.02614 26.2672 5.26181C26.584 5.92717 26.8744 6.79848 27.1332 8.05C27.2916 8.80513 27.4289 9.64476 27.6137 10.3946C27.5081 8.88434 27.355 7.49553 26.8163 6.04863C26.3411 4.77071 25.7074 3.71986 25.2269 2.25184C25.0948 1.84523 24.9575 1.39637 24.8255 1.07953C24.778 0.973917 24.5087 0.0656441 24.308 0.224064C24.1707 0.329677 24.1285 0.931672 24.0651 1.81882C23.9648 3.23932 23.8592 5.28293 23.8539 5.46776C23.8222 5.89021 23.8116 6.39715 23.8328 6.90938C23.8592 7.58002 23.9331 8.26122 24.0598 8.78401C24.5562 10.8171 25.6229 13.2884 26.4203 15.1261C25.6599 11.8626 24.3186 10.1253 24.0651 6.9569C23.9648 5.67898 24.1549 3.66177 24.2763 2.04061C24.3872 0.614832 24.3714 0.620113 24.8519 1.97724L24.8572 1.97196Z" fill="#0E0E0E"/>
<path fill-rule="evenodd" clip-rule="evenodd" d="M28.0622 15.7334C28.0411 15.575 27.9355 14.9096 27.9196 14.7512C27.513 10.8699 28.0252 7.24741 29.4774 3.15491C30.2748 0.905345 30.2431 0.567383 30.2748 1.5179C30.3118 2.60572 30.3223 5.31997 30.4385 7.31606C30.6497 5.26189 30.7553 3.39782 30.4702 0.741645C30.4385 0.440647 30.4385 0.181895 30.3857 0.107966C30.2273 -0.134945 29.9949 0.657154 29.7573 1.25915C29.055 3.04401 28.5005 4.80247 28.0516 6.69823C27.814 7.69627 27.6186 8.70488 27.5289 9.7346C27.3599 11.6884 27.286 14.1704 27.814 15.8021C27.8668 15.612 28.0094 15.9341 28.0569 15.744L28.0622 15.7334Z" fill="#0E0E0E"/>
<path fill-rule="evenodd" clip-rule="evenodd" d="M19.0483 19.5673C16.841 17.0009 16.0225 17.4075 13.398 15.6861C13.0548 15.459 12.6957 15.2478 12.3683 14.9309C10.6732 13.2939 9.02037 12.6919 6.96619 12.0002C5.28166 11.4298 5.22357 11.6094 5.83085 12.2272C7.23551 13.653 9.0943 15.5382 10.6891 16.7739C9.84943 15.8128 8.9834 14.9468 8.0276 14.0121C7.75301 13.7428 7.16686 13.0827 6.72856 12.6655C6.17409 12.1269 5.87838 11.884 6.93979 12.2642C7.66324 12.5229 8.43421 12.882 9.06261 13.1566C10.4145 13.7586 11.1009 14.1758 12.4 15.3851C12.664 15.6332 12.9281 15.8339 13.2026 16.0135C15.6159 17.5765 16.5031 17.1805 19.0483 19.5568V19.5673Z" fill="#0E0E0E"/>
<path fill-rule="evenodd" clip-rule="evenodd" d="M19.1591 20.972C16.693 19.7257 14.1583 18.6115 11.6447 17.3283C9.30009 16.1296 3.5653 12.4015 3.30126 13.6002C3.13228 14.35 7.40433 18.2207 8.51855 19.0868C7.4413 17.8669 2.4986 13.3414 5.47689 14.4292C9.88624 16.9059 14.2903 19.1501 18.6733 21.669C18.6891 21.405 19.1485 21.236 19.1644 20.972H19.1591Z" fill="#0E0E0E"/>
<path fill-rule="evenodd" clip-rule="evenodd" d="M5.91572 18.5956C4.74341 18.2259 2.76316 16.8741 2.68396 17.1434C2.59418 17.4339 3.47077 18.0834 4.41073 18.8755C6.10054 20.296 8.5402 22.0967 9.80756 22.4874C8.98378 22.2392 8.34482 22.2868 6.61276 21.2306C4.46882 19.921 1.42716 16.9163 1.57502 16.5097C1.88658 15.649 8.15472 18.8121 9.54881 19.1289C12.8175 19.8682 15.7536 21.0617 18.3253 23.3693C16.1602 22.2709 14.4229 21.2254 12.3106 20.4861C10.2723 19.7732 8.07023 19.3349 5.91572 18.6009V18.5956Z" fill="#0E0E0E"/>
<path fill-rule="evenodd" clip-rule="evenodd" d="M8.16503 22.7885C7.42046 22.7463 1.12063 21.8169 2.06059 22.5509C4.91214 23.6123 8.61388 24.9377 11.5182 25.8407C10.441 25.677 9.81787 25.4394 8.74062 25.2757C8.36569 25.149 4.86462 23.9608 2.90549 23.2902C0.830195 22.5826 -0.928264 22.0915 0.545039 21.8697C5.12337 21.4103 14.0318 22.4875 17.7811 25.2282C16.4926 24.7846 15.0616 24.2777 13.2556 23.7602C11.439 23.2374 9.54856 23.0526 8.17031 22.7832L8.16503 22.7885Z" fill="#0E0E0E"/>
<path fill-rule="evenodd" clip-rule="evenodd" d="M18.1245 26.4002C17.1211 26.2998 16.1178 26.1995 15.1145 26.0992C10.5309 25.6503 6.39611 24.441 1.79666 26.0305C0.978157 26.3104 1.20523 26.5005 2.37225 26.8754C4.41587 27.5302 6.72879 28.1533 8.81465 28.6128C6.7816 27.8735 0.914789 26.6853 4.90169 26.02C7.64763 25.7718 8.62455 25.6081 11.3441 26.0411C13.6729 26.2893 15.8062 26.6748 18.1456 26.981C18.1403 26.7857 18.1297 26.5956 18.1245 26.4002Z" fill="#0E0E0E"/>
<path fill-rule="evenodd" clip-rule="evenodd" d="M18.4415 28.1539C15.9491 28.1908 13.5675 28.2225 11.1067 28.1486C8.55614 28.0694 7.01946 28.6714 5.11315 29.5744C3.73489 30.2292 1.29523 31.9876 1.61207 32.4576C1.61207 32.4576 3.22795 32.0351 4.50059 31.8873C5.81019 31.7342 8.10728 32.0404 9.80765 32.051C10.5522 32.051 11.0909 31.9559 11.4605 31.7606C9.23206 31.7606 7.70067 31.4701 6.09007 31.3328C5.06562 31.2325 3.32828 31.6285 3.44446 31.4226C3.94084 30.5671 7.39967 28.9724 10.8057 28.6186C13.446 28.344 16.0441 28.4918 18.8006 28.5974C18.6792 28.4496 18.563 28.307 18.4415 28.1591V28.1539Z" fill="#0E0E0E"/>
<path fill-rule="evenodd" clip-rule="evenodd" d="M18.88 28.9302C17.9137 29.2734 12.9393 30.6939 9.37487 32.7534C8.77815 33.0966 5.19787 36.2228 5.65728 36.9304C6.40714 38.0868 12.1631 35.4729 13.3354 34.8973C10.9749 35.5363 7.16227 36.9515 6.72398 36.4657C6.52859 36.2492 7.53192 35.0082 8.7095 34.0471C9.92405 33.0544 11.3181 32.3415 11.7828 32.088C13.9796 30.8629 16.2556 30.2715 19.2444 29.3685C19.123 29.2206 19.0068 29.078 18.8853 28.9302H18.88Z" fill="#0E0E0E"/>
<path fill-rule="evenodd" clip-rule="evenodd" d="M19.2385 29.9491C17.6279 31.4013 16.2919 32.6106 14.7393 33.8093C12.9914 35.1611 11.4917 36.4496 9.92866 37.849C8.51873 39.1111 4.47374 44.1277 7.5154 42.4432C9.427 41.387 10.9584 40.5474 12.9756 39.6022C11.9195 39.9507 10.8633 40.2992 9.80721 40.6477C8.64018 41.0332 7.93786 41.5824 7.94314 41.3501C7.96954 40.3995 13.7994 35.2456 14.8186 34.4852C16.4925 33.2337 17.9183 32.4733 20.1256 31.2482C20.1943 31.1003 20.0675 30.9683 20.1415 30.8204C19.8405 30.53 19.5447 30.2343 19.2437 29.9438L19.2385 29.9491Z" fill="#0E0E0E"/>
<path fill-rule="evenodd" clip-rule="evenodd" d="M20.3945 31.4434C19.0373 33.0117 17.6802 34.5801 16.3231 36.1537C15.7158 36.7663 15.156 37.5848 14.1791 38.4297C12.1408 40.1987 9.44238 42.2106 8.77702 43.6153C8.40209 44.4074 8.23839 45.0675 8.47074 45.2312C9.21003 45.7539 12.6108 43.3565 14.6755 41.4872C15.7211 40.5367 16.6294 38.3927 16.9937 37.833C16.7667 38.0759 15.4148 40.0825 14.4907 40.938C12.4524 42.8285 9.36845 45.0463 9.20475 44.2648C8.92487 42.9446 13.593 39.396 14.3534 38.7254C16.3759 36.6659 18.3984 34.6012 20.4209 32.5417C20.6532 32.3411 20.8856 32.1404 21.1179 31.945C20.8803 31.7813 20.6374 31.6123 20.3997 31.4486L20.3945 31.4434Z" fill="#0E0E0E"/>
<path fill-rule="evenodd" clip-rule="evenodd" d="M21.4928 32.3256C20.0353 34.6649 17.5904 36.8828 16.624 39.5654C18.2346 36.8986 19.7871 35.156 21.7938 32.7797C21.6935 32.6266 21.5931 32.4735 21.4928 32.3203V32.3256Z" fill="#0E0E0E"/>
<path fill-rule="evenodd" clip-rule="evenodd" d="M22.8186 33.2124C20.9334 36.8561 19.5446 40.299 18.1558 44.0747C17.332 46.3084 17.0997 47.8609 17.3901 49.8148C17.8653 53.0466 19.1697 49.3923 19.4707 48.4946C20.2892 46.5197 21.113 44.55 21.9315 42.575C20.0199 46.4193 19.3545 48.1039 18.198 50.0999C17.8812 50.6491 17.4112 46.0814 19.534 41.7671C20.9862 38.8205 22.0159 36.9669 23.5949 33.6507C23.3361 33.5028 23.0774 33.3603 22.8186 33.2124Z" fill="#0E0E0E"/>
<path fill-rule="evenodd" clip-rule="evenodd" d="M15.5576 45.8013C14.9714 46.5828 14.681 46.8522 14.4222 47.132C14.2004 47.3749 14.0051 47.6179 13.6671 48.2093C13.4928 48.5103 13.7041 46.3663 14.2004 44.2118C14.5067 42.8864 15.0612 41.5979 15.2935 40.7583C14.9925 41.2811 14.3694 41.9517 13.91 43.2508C13.0915 45.5584 12.743 48.1142 13.0915 49.3763C13.3186 50.2107 13.6301 49.6562 14.2163 48.7215C15.5893 46.5353 16.9675 45.4739 18.2138 43.5359C18.7629 42.6804 19.3808 40.621 19.9247 39.5596C19.5286 39.9345 19.0164 41.1966 18.5412 41.9359C17.7438 43.1821 16.6507 44.5392 15.679 45.664C15.6368 45.7115 15.5945 45.7591 15.5523 45.8066L15.5576 45.8013Z" fill="#0E0E0E"/>
<path fill-rule="evenodd" clip-rule="evenodd" d="M24.7512 34.1895C23.3677 36.9829 22.5703 39.2483 21.9894 42.0999C21.625 43.89 20.7537 52.9094 21.831 52.0539C22.301 51.6843 23.1776 48.801 24.672 44.793C23.5525 46.6729 22.1267 51.3041 21.7993 51.0295C21.6145 50.871 21.8046 49.3713 21.9947 47.5865C22.528 42.591 23.3465 37.812 26.0661 34.4165C25.6278 34.3426 25.1842 34.2634 24.7459 34.1895H24.7512Z" fill="#0E0E0E"/>
<path fill-rule="evenodd" clip-rule="evenodd" d="M26.6103 34.5166C25.9132 37.8012 25.9608 39.7656 25.3799 43.0554C26.0347 39.8712 26.5363 37.7695 27.3496 34.6169C27.1014 34.5852 26.8585 34.5483 26.6103 34.5166Z" fill="#0E0E0E"/>
<path fill-rule="evenodd" clip-rule="evenodd" d="M30.4915 8.06618C30.6974 7.40082 30.9298 6.78298 31.3311 6.06481C32.1549 4.60207 33.0051 3.13933 33.6387 1.5921C34.1932 0.229688 33.9556 3.83638 33.6176 6.54007C33.4539 7.85496 33.1212 8.853 33.0843 9.13288C33.7708 7.52227 34.0295 6.98365 34.2407 5.47866C34.4097 4.26411 34.6262 2.11488 34.3833 0.631018C34.2513 -0.166361 33.9978 -0.113555 33.2744 1.29638C32.4506 2.90698 31.7113 4.28523 30.9878 5.89055C30.6816 6.57176 30.4123 7.29521 30.1535 8.02922C29.2188 10.7012 29.1132 13.1831 28.7383 15.9449C28.9073 15.9819 29.0762 16.0189 29.2452 16.0558C29.7152 13.1303 29.5515 11.129 30.4915 8.06618Z" fill="#0E0E0E"/>
<path fill-rule="evenodd" clip-rule="evenodd" d="M30.1116 16.3932C30.5182 13.9113 32.0285 10.9066 33.2431 8.75208C34.521 5.97445 35.7725 4.52755 37.7263 2.47338C38.735 1.41196 38.6241 1.80801 38.2544 3.27604C37.7369 5.33021 36.459 9.67091 36.5171 9.32767C36.8339 7.56921 37.2194 5.82659 37.5785 4.0787C37.8372 2.83246 37.1666 3.79882 36.5699 4.5698C35.3712 6.12231 34.5315 7.38439 33.5335 8.90522C32.0708 11.8941 31.6113 13.2934 30.9196 16.5463C30.645 16.4935 30.3757 16.4407 30.1011 16.3879L30.1116 16.3932Z" fill="#0E0E0E"/>
<path fill-rule="evenodd" clip-rule="evenodd" d="M30.872 33.9097C30.0376 36.7559 30.0535 38.1712 30.2225 40.3943C30.2436 40.69 30.1855 41.667 30.4337 43.0875C30.9248 45.9126 31.9334 49.9206 32.3031 49.7728C32.4087 49.7305 32.4932 49.3503 32.5882 48.8539C33.0635 46.2558 33.7447 44.2439 33.7658 41.5719C33.9823 44.4076 33.6338 46.5885 32.9579 49.419C32.641 50.7391 32.6357 51.2461 32.2819 50.8342C31.4951 49.9153 30.3862 45.601 30.1327 44.038C29.6258 40.9541 29.7261 38.3137 29.3564 34.348C29.8634 34.2001 30.3651 34.0575 30.872 33.9097Z" fill="#0E0E0E"/>
<path fill-rule="evenodd" clip-rule="evenodd" d="M28.5379 34.5698C27.2442 37.6168 26.9537 39.9138 26.827 44.0856C26.7689 46.1239 27.3604 47.4863 28.2105 49.0599C29.1558 50.8078 29.3248 50.9451 29.2984 49.9524C29.2139 46.9846 29.705 45.6539 30.1538 43.0294C30.2066 44.8143 29.6891 47.048 29.6258 48.8751C29.5835 50.1161 29.7155 51.3782 29.6152 51.3887C28.5802 51.4679 27.6138 49.2553 27.1122 48.2837C26.2567 46.6414 26.2989 45.5378 26.4362 43.9852C26.7161 40.7799 26.9801 37.8544 27.7036 34.5909C27.9835 34.5857 28.2633 34.5751 28.5432 34.5698H28.5379Z" fill="#0E0E0E"/>
<path fill-rule="evenodd" clip-rule="evenodd" d="M24.1391 46.2453C24.3133 47.8823 24.5879 50.4962 25.0737 50.3061C25.1001 50.2955 26.4362 46.0974 26.547 45.7119C26.5418 45.807 25.6388 52.7986 24.7833 51.151C24.0176 49.683 24.1549 47.9826 24.1338 46.2453H24.1391Z" fill="#0E0E0E"/>
<path fill-rule="evenodd" clip-rule="evenodd" d="M31.1094 33.8305C31.3259 36.0273 32.1708 37.4478 32.7833 38.7996C32.3345 37.2365 31.7272 35.8741 31.9068 33.5137C31.685 33.7143 31.3259 33.6351 31.1094 33.8305Z" fill="#0E0E0E"/>
<path fill-rule="evenodd" clip-rule="evenodd" d="M18.2085 14.4922C20.1571 16.2823 21.1868 16.7682 22.3591 17.4494C21.9472 17.7662 21.5353 18.0883 21.1234 18.4052C20.3683 17.1325 19.4389 15.8335 18.2085 14.4922Z" fill="#0E0E0E"/>
<path fill-rule="evenodd" clip-rule="evenodd" d="M16.0537 17.2705C17.5534 17.6877 18.9158 18.3583 20.2043 19.1451C19.972 19.557 19.7396 19.9689 19.5073 20.3808C18.6993 19.1557 17.5006 18.1471 16.0537 17.2705Z" fill="#0E0E0E"/>
<path fill-rule="evenodd" clip-rule="evenodd" d="M18.3245 23.3643C17.1575 23.7339 15.8637 23.8976 14.3799 23.7339C15.6684 24.3412 16.9621 24.9432 18.2506 25.5504C18.277 24.8217 18.2981 24.093 18.3245 23.3643Z" fill="#0E0E0E"/>
<path fill-rule="evenodd" clip-rule="evenodd" d="M15.0981 21.2837C16.1754 21.9755 17.2474 22.6725 18.3246 23.3643C18.4408 22.7992 18.557 22.2342 18.6732 21.6692C17.7068 22.0177 16.5186 21.891 15.0981 21.2837Z" fill="#0E0E0E"/>
<path fill-rule="evenodd" clip-rule="evenodd" d="M21.1343 13.1726L22.6181 15.8763L23.0564 16.8426L24.2023 16.473L21.3349 13.0986L21.1343 13.1726Z" fill="#0E0E0E"/>
<path fill-rule="evenodd" clip-rule="evenodd" d="M23.7796 11.6098C24.239 13.4052 24.7987 14.8627 25.4588 15.9716C25.6859 16.3571 25.5433 16.3624 25.3585 16.4416C25.0152 16.5947 24.3288 16.5261 24.3393 16.468C24.3604 16.3782 23.6528 11.7893 23.6528 11.7893C23.6951 11.7259 23.7373 11.6679 23.7743 11.6045L23.7796 11.6098Z" fill="#0E0E0E"/>
<path fill-rule="evenodd" clip-rule="evenodd" d="M25.4385 12.5757C25.486 12.6971 25.8609 15.6385 25.75 16.1665C25.6339 16.6946 26.4576 15.9131 26.8062 15.9183C26.352 14.8041 25.8926 13.6899 25.4385 12.5757Z" fill="#0E0E0E"/>
<path fill-rule="evenodd" clip-rule="evenodd" d="M27.4132 11.7568L27.0488 15.8863L27.9941 15.918L27.4132 11.7568Z" fill="#0E0E0E"/>
<path fill-rule="evenodd" clip-rule="evenodd" d="M36.052 10.2997C34.489 12.4806 32.984 14.5454 31.5635 16.8213C31.9384 17.0484 32.308 17.2755 32.683 17.4973C33.2797 14.3658 34.4467 13.0193 36.0573 10.2944L36.052 10.2997Z" fill="#0E0E0E"/>
<path fill-rule="evenodd" clip-rule="evenodd" d="M31.9067 33.5136C32.6407 35.0397 32.9734 35.5572 33.1054 36.645C33.5965 40.6319 34.2144 41.9362 35.8831 44.1646C36.4059 44.8617 39.9017 48.8697 40.9103 48.574C41.1056 48.5159 40.8363 47.4756 40.4931 46.3878C39.5848 43.5098 38.2911 41.123 36.9762 38.414C38.0745 41.0807 39.3049 43.7211 40.1129 46.4881C40.3135 47.1693 40.472 47.6921 40.3505 47.7608C39.9175 47.9931 36.6118 44.2386 36.0521 43.4465C34.4943 41.2392 34.0824 40.4365 33.5596 36.1433C33.4434 35.1717 33.1371 34.237 32.6619 33.0225C32.4084 33.1175 32.1655 33.4132 31.912 33.5136H31.9067Z" fill="#0E0E0E"/>
<path fill-rule="evenodd" clip-rule="evenodd" d="M32.9629 32.7427C33.4751 33.482 33.9979 33.8199 34.5101 34.5592C35.0276 35.251 35.5399 36.3388 36.0574 37.0306C35.3867 35.3936 34.5101 33.6668 33.7075 32.0879C33.3748 32.2727 33.3009 32.5579 32.9682 32.7427H32.9629Z" fill="#0E0E0E"/>
<path fill-rule="evenodd" clip-rule="evenodd" d="M34.5786 31.3696C35.5292 32.7426 36.1048 33.5083 36.6803 34.7228C37.6097 36.6873 37.6203 37.0516 38.3279 37.8226C39.4949 39.1005 40.9788 39.9929 42.5049 40.8114C43.6614 41.4293 44.839 41.9468 45.969 42.5752C48.6674 44.0749 46.1591 40.653 45.3934 39.4226C46.3545 40.426 48.3031 43.5891 47.606 43.6155C46.9459 43.6419 44.3637 42.3745 42.4996 41.3818C40.8204 40.484 39.0091 39.4226 38.0639 38.5091C37.615 38.0761 37.3035 37.5374 36.786 36.3176C36.0942 34.6964 35.5133 33.4925 34.1245 31.7868C34.2777 31.6495 34.4308 31.5069 34.5839 31.3696H34.5786Z" fill="#0E0E0E"/>
<path fill-rule="evenodd" clip-rule="evenodd" d="M33.6392 41.144C33.8399 42.4959 34.8643 48.8221 36.2162 48.9911C36.364 49.0069 36.3218 48.5528 36.3852 48.0828C36.533 46.9844 36.7337 44.9778 36.7125 44.6768C36.9871 45.6326 37.1244 46.7204 36.7442 48.9753C36.57 50.0155 36.3851 50.0367 36.0525 49.6142C33.5494 46.4511 33.5653 44.962 33.6392 41.144Z" fill="#0E0E0E"/>
<path fill-rule="evenodd" clip-rule="evenodd" d="M41.9036 46.8526C42.1201 46.7998 40.4619 40.5263 40.2507 39.6973C40.7841 40.7692 43.3505 47.3384 42.2363 47.5549C41.8983 47.6183 40.9319 46.6889 39.7227 44.7139C40.1504 45.0254 41.8877 46.8526 41.9036 46.8526Z" fill="#0E0E0E"/>
<path fill-rule="evenodd" clip-rule="evenodd" d="M35.0537 30.9681C36.8438 31.6545 37.7151 32.4202 38.7818 33.3338C40.9997 35.2296 43.0011 36.555 46.0533 40.2303C43.3443 36.4494 42.3885 36.0058 38.9614 33.0592C37.7151 31.9872 36.5903 30.8413 35.7771 29.4736C35.4972 29.8908 35.2174 30.3133 34.9375 30.7304C34.9745 30.8096 35.0167 30.8889 35.0537 30.9681Z" fill="#0E0E0E"/>
<path fill-rule="evenodd" clip-rule="evenodd" d="M35.7567 29.1728C36.3007 29.1992 36.7231 29.2572 37.0875 29.3576C38.133 29.6427 41.7714 32.4362 43.1285 33.3339C40.7311 31.4118 38.7298 29.6427 36.5858 27.8843C36.5013 27.8843 36.4168 27.8948 36.3323 27.9001C36.137 28.3279 35.9468 28.7503 35.7515 29.178L35.7567 29.1728Z" fill="#0E0E0E"/>
<path fill-rule="evenodd" clip-rule="evenodd" d="M43.4556 33.5608C45.4411 34.4374 46.4709 34.7015 48.5092 35.2771C49.3066 35.5041 49.7818 35.615 49.6604 35.1134C49.5759 34.7754 49.0478 33.8777 48.4722 33.0592C48.2452 32.7318 47.9547 32.378 47.5376 31.871C45.6893 29.6479 45.0134 29.0406 41.0635 27.7046C45.3883 28.8663 45.9639 29.0828 47.7963 31.3166C49.6234 33.545 50.5581 35.314 50.3733 35.8843C50.2149 36.3807 49.0056 35.9794 47.9917 35.6467C46.9408 35.2982 46.2966 35.2506 45.3989 34.8071C44.7441 34.4797 43.7249 33.7298 43.4609 33.5661L43.4556 33.5608Z" fill="#0E0E0E"/>
<path fill-rule="evenodd" clip-rule="evenodd" d="M36.9607 25.228C37.4518 26.2736 38.4287 26.6961 40.4037 27.4987C39.0888 27.24 37.5469 26.7858 36.8023 26.9706C36.7442 26.4637 36.6914 25.9515 36.6333 25.4445C36.7442 25.3706 36.8498 25.302 36.9607 25.228Z" fill="#0E0E0E"/>
<path fill-rule="evenodd" clip-rule="evenodd" d="M36.6333 23.6647C37.7053 23.839 38.7508 24.0397 39.8017 24.2245C41.9615 24.6047 42.7641 24.8212 43.6935 24.7842C44.2903 24.7631 44.9926 24.6575 45.6896 24.5413C47.126 24.309 48.2138 24.3301 49.497 24.3882C50.0937 24.4146 50.6693 24.4516 51.2502 24.4991C52.5545 24.6047 51.8574 24.3301 50.6904 23.6753C49.4706 22.9888 47.7385 21.9168 47.39 21.7373C47.9709 21.9274 54.7829 24.9004 53.0667 25.1592C52.3697 25.2648 50.0779 24.6892 48.858 24.7103C47.485 24.7314 46.1279 25.0324 44.1741 25.2331C41.4757 25.513 39.7278 24.5044 36.7125 24.5625C36.6861 24.2615 36.6597 23.9657 36.6333 23.6647Z" fill="#0E0E0E"/>
<path fill-rule="evenodd" clip-rule="evenodd" d="M44.0361 37.0466C45.6256 37.6592 48.2553 38.9054 48.4507 38.3721C48.5247 38.1767 48.1444 37.6803 47.4157 36.8196C46.687 36.0644 45.8104 35.3304 45.0869 34.5806C45.3879 34.8076 45.8368 35.0294 46.1431 35.2565C46.7187 35.6842 50.3306 38.8473 49.2006 39.085C48.1286 39.312 43.6189 37.543 42.4941 36.075C43.1965 36.5186 43.6981 36.9093 44.0361 37.0466Z" fill="#0E0E0E"/>
<path fill-rule="evenodd" clip-rule="evenodd" d="M44.4328 24.906C46.825 25.8143 48.5042 26.9127 50.3736 28.6236C50.7327 28.951 51.0654 29.2732 51.3875 29.6375C52.074 30.4138 52.4911 30.7095 51.3875 30.2078C50.9228 29.9966 50.5109 29.8646 49.8666 29.6798C47.3795 28.9669 45.6844 28.6712 42.7642 28.3226C45.2144 29.1042 47.7755 29.6164 50.2469 30.3187C51.8839 30.7834 53.5578 32.1511 52.8291 30.7517C52.7552 30.6144 52.6601 30.4507 52.5439 30.2554C50.3841 27.3774 48.5676 26.4058 45.4573 24.8374C45.2249 24.943 44.6758 24.8004 44.4434 24.9113L44.4328 24.906Z" fill="#0E0E0E"/>
<path fill-rule="evenodd" clip-rule="evenodd" d="M36.3112 22.2132C36.1264 21.8225 35.9363 21.4264 35.7515 21.0356C36.6122 21.231 37.4571 21.3947 38.3073 21.5373C41.8031 22.1129 45.1563 21.7116 45.7478 21.701C46.3445 21.6904 44.1213 22.0654 36.3112 22.2132Z" fill="#0E0E0E"/>
<path fill-rule="evenodd" clip-rule="evenodd" d="M35.3179 20.0107C37.5569 20.8028 41.2322 20.354 43.8039 20.6339C47.0885 20.9929 51.3975 22.1441 52.2688 23.0313C52.5328 23.3006 48.303 22.0332 47.2046 21.7164C48.0654 21.8431 49.3644 22.1547 50.5367 22.4662C51.2179 22.6458 51.5823 22.7936 50.674 22.3765C49.9717 22.0544 48.9261 21.6372 47.3842 21.3784C44.3108 20.8609 39.083 20.9929 35.8776 21.0669C35.6083 20.7025 35.5872 20.3751 35.3179 20.016V20.0107Z" fill="#0E0E0E"/>
<path fill-rule="evenodd" clip-rule="evenodd" d="M34.5367 19.0182C35.2496 18.1733 36.0892 17.5343 37.0397 16.9165C37.8793 16.3673 38.5764 15.7442 39.3474 15.1C41.0319 13.7534 42.5263 12.3012 44.1528 11.1289C44.4326 10.9282 46.3865 9.87739 47.1997 9.33877C47.7383 8.98496 47.638 8.8371 46.9779 8.80542C46.6664 8.78958 46.2703 8.82126 45.8795 8.86351C41.5758 9.36517 38.7295 11.2979 35.9572 14.3818C38.5711 11.9685 40.5725 10.6959 43.6089 9.83515C44.327 9.6292 46.6611 9.0008 46.1964 9.41798C46.1964 9.41798 45.0769 10.0464 44.1 10.6114C42.4946 11.5355 40.8735 13.2253 39.3949 14.6881C37.8529 16.2142 35.8305 17.17 33.9769 18.2736C33.9083 18.3581 33.8396 18.4373 33.771 18.5218C34.0245 18.6855 34.2832 18.8492 34.5367 19.0182Z" fill="#0E0E0E"/>
<path fill-rule="evenodd" clip-rule="evenodd" d="M33.4175 17.999C33.935 17.0907 34.3311 16.5309 34.9647 15.7019C35.2657 15.3111 35.5615 14.9151 35.8572 14.5137C36.8394 13.1777 37.7846 11.8576 38.7035 10.4212C39.485 9.19611 40.2665 7.96043 41.0586 6.77756C41.4071 6.26006 41.8243 5.80064 42.12 5.25145C42.9597 3.69894 42.6323 3.89432 40.7735 5.05079C38.5873 6.4132 37.8269 6.64555 36.306 9.75057C37.8902 7.54854 38.6982 6.82509 40.6467 5.75312C40.8316 5.65278 41.0269 5.54717 41.2329 5.43628C41.46 5.30954 41.46 5.42572 41.3332 5.67391C40.7207 6.88318 39.4797 8.69972 38.3285 10.4001C38.0592 10.8014 37.7899 11.1975 37.5364 11.5724C36.8235 12.6391 36.1899 13.4893 35.4611 14.4028C35.1443 14.7989 34.8222 15.1738 34.4948 15.5435C33.9086 16.2035 33.3013 16.8372 32.6782 17.4973C32.9264 17.6663 33.1693 17.83 33.4175 17.999Z" fill="#0E0E0E"/>
<path fill-rule="evenodd" clip-rule="evenodd" d="M34.6685 19.3666C37.0448 18.4055 39.0303 17.1434 41.4119 16.0873C43.4502 15.1843 46.6397 14.4186 49.0107 13.4997C49.0107 13.4997 49.8873 13.1618 49.5494 13.2199C49.3857 13.2463 49.0213 13.2251 48.6728 13.1935C47.9335 13.1301 47.3737 13.109 46.6291 13.1354C42.9802 13.2621 41.9399 14.0542 38.2646 16.0925C43.0436 12.5334 43.3182 12.7921 49.7236 12.6284C51.086 12.5915 51.5138 12.3855 50.9487 12.9506C50.3203 13.5737 49.3856 14.1545 48.3348 14.5348C46.6291 15.1526 44.8548 15.4694 43.1703 15.9711C41.6178 16.4305 40.1392 17.1856 38.6923 17.9725C37.4778 18.6273 36.2791 19.2926 35.0803 19.9791C34.9431 19.7784 34.8058 19.5725 34.6685 19.3718V19.3666Z" fill="#0E0E0E"/>
<path fill-rule="evenodd" clip-rule="evenodd" d="M44.8499 15.459C48.2824 15.5646 51.2026 15.7389 50.6217 16.3884C49.724 17.4023 44.6123 19.1132 41.0215 20.106C39.6168 20.4915 38.3389 20.6763 37.8003 20.8083C37.6682 20.7396 37.5362 20.6763 37.3989 20.6076C41.935 19.3878 45.1615 18.3581 49.4652 16.494C50.1306 16.2036 49.8666 16.1507 48.2296 16.0029C47.0837 15.8973 45.1034 15.76 43.7146 15.6913C44.6229 15.5699 43.9364 15.5857 44.8447 15.459H44.8499Z" fill="#0E0E0E"/>
<path fill-rule="evenodd" clip-rule="evenodd" d="M18.3721 3.75684C19.2751 6.86186 20.046 8.98469 21.4824 11.8362C19.6077 8.48303 18.9899 7.55363 18.3721 3.75684Z" fill="#0E0E0E"/>
<path fill-rule="evenodd" clip-rule="evenodd" d="M12.4106 6.62988C16.1229 8.93225 18.9851 10.4531 21.1079 14.4294C18.1296 10.7963 16.5032 9.4656 12.4106 6.62988Z" fill="#0E0E0E"/>
<path fill-rule="evenodd" clip-rule="evenodd" d="M13.8052 12.9771C15.8224 13.8431 17.9505 15.0418 19.07 16.7105C17.3907 14.4398 16.6831 13.7058 13.8052 12.9771Z" fill="#0E0E0E"/>
<path fill-rule="evenodd" clip-rule="evenodd" d="M15.9591 27.1185C12.8013 26.6538 9.66988 26.3792 6.55957 26.3211C8.92002 25.7667 13.4614 26.6169 15.9591 27.1185Z" fill="#0E0E0E"/>
<path fill-rule="evenodd" clip-rule="evenodd" d="M7.94873 17.1328C9.80752 18.2259 12.1944 19.2926 14.5707 20.5124C12.696 19.8893 10.0082 18.8913 7.94873 17.1328Z" fill="#0E0E0E"/>
<path fill-rule="evenodd" clip-rule="evenodd" d="M38.5552 33.9937C41.3434 36.1218 44.7599 38.4558 46.756 42.4533C44.3586 39.0684 41.8081 36.6709 38.5552 33.9937Z" fill="#0E0E0E"/>
<path fill-rule="evenodd" clip-rule="evenodd" d="M40.4297 28.2856C43.3446 29.7589 43.3763 27.8685 48.113 33.4924C45.0925 30.588 44.1737 30.1075 40.4297 28.2856Z" fill="#0E0E0E"/>
<path fill-rule="evenodd" clip-rule="evenodd" d="M22.254 37.6216C21.2296 39.7233 20.3002 41.7352 19.3813 43.8844C20.2843 40.9378 20.6223 40.2355 22.254 37.6216Z" fill="#0E0E0E"/>
<path fill-rule="evenodd" clip-rule="evenodd" d="M7.02979 30.1602C9.25822 28.5179 12.6959 28.9404 15.9699 28.8242C12.7329 28.9932 9.57506 29.2414 7.02979 30.1602Z" fill="#0E0E0E"/>
<path fill-rule="evenodd" clip-rule="evenodd" d="M28.3004 38.5615C28.1895 40.7583 28.1209 42.9075 28.0786 45.1043C28.3162 42.728 28.7123 40.9167 28.3004 38.5615Z" fill="#0E0E0E"/>
<path fill-rule="evenodd" clip-rule="evenodd" d="M25.3062 4.64404C26.1141 7.12595 26.7742 8.99002 26.922 11.6251C26.3781 9.2963 25.8342 6.97281 25.3062 4.64404Z" fill="#0E0E0E"/>
<path fill-rule="evenodd" clip-rule="evenodd" d="M31.252 7.3374C30.1747 9.88268 29.9424 11.2504 30.0374 13.8432C30.2381 11.5514 30.6975 9.43382 31.252 7.3374Z" fill="#0E0E0E"/>
<path fill-rule="evenodd" clip-rule="evenodd" d="M28.3955 16.8369C34.1673 19.5195 35.3184 23.6173 34.2993 27.7784C33.9349 29.2676 33.0583 30.6194 31.5692 32.5891C34.4947 29.8696 35.9997 27.0339 35.1812 23.1156C34.5158 19.9208 32.0814 17.93 28.3955 16.8369Z" fill="#0E0E0E"/>
<path fill-rule="evenodd" clip-rule="evenodd" d="M37.5781 29.9224L46.1645 36.1377C42.3677 34.0096 40.794 32.7845 37.5781 29.9224Z" fill="#0E0E0E"/>
<path fill-rule="evenodd" clip-rule="evenodd" d="M38.2645 22.5931C35.7351 22.366 50.1196 22.6459 47.6641 22.6723C44.1525 22.7093 41.4329 22.873 38.2645 22.5931Z" fill="#0E0E0E"/>
<path fill-rule="evenodd" clip-rule="evenodd" d="M39.6218 13.4521C37.8 14.9624 36.5009 16.0555 34.4731 17.2806C37.2085 15.8337 37.7419 15.9129 39.6218 13.4521Z" fill="#0E0E0E"/>
<path fill-rule="evenodd" clip-rule="evenodd" d="M7.70068 17.6187C8.83074 18.2312 9.96081 18.8438 11.0909 19.4563C9.24264 18.8279 9.15815 18.9177 7.70068 17.6187Z" fill="#0E0E0E"/>
<path fill-rule="evenodd" clip-rule="evenodd" d="M34.4419 38.2236C35.0914 41.2125 35.7093 42.0415 37.7159 44.3862C36.2848 42.5485 35.1178 40.5418 34.4419 38.2236Z" fill="#0E0E0E"/>
<path fill-rule="evenodd" clip-rule="evenodd" d="M36.0886 6.15967C34.2034 8.17688 33.5116 9.38087 32.709 11.8469C33.6859 9.76108 34.8476 7.93397 36.0886 6.15967Z" fill="#0E0E0E"/>
<path fill-rule="evenodd" clip-rule="evenodd" d="M16.5772 30.4399C13.6781 31.7865 10.9163 33.2704 8.28125 34.9285C9.94994 33.17 14.2114 31.3852 16.5772 30.4399Z" fill="#0E0E0E"/>
<path fill-rule="evenodd" clip-rule="evenodd" d="M17.089 40.3101C16.0645 42.4118 15.1351 44.4237 14.2163 46.5729C15.1193 43.6263 15.4573 42.924 17.089 40.3101Z" fill="#0E0E0E"/>
</svg>
